<svg xmlns="http://www.w3.org/2000/svg" viewBox="0 0 65 64">
  <path fill="#28646E" d="M32.74 2.7A29.32 29.32 0 0 0 3.45 32a29.32 29.32 0 0 0 29.3 29.29 29.32 29.32 0 0 0 29.29-29.3 29.32 29.32 0 0 0-29.3-29.28zm0 61.3c-17.64 0-32-14.36-32-32 0-17.65 14.36-32 32-32 17.65 0 32 14.35 32 32 0 17.64-14.35 32-32 32zm-2.11-37.85a.9.9 0 0 1-.6-1.59 19.28 19.28 0 0 0 3.9-4.48c.76-1.32 1.98-2 3.25-1.83a.91.91 0 1 1-.25 1.8c-.74-.1-1.24.62-1.42.93-.22.4-1.5 2.5-4.28 4.95a.9.9 0 0 1-.6.22zM15.3 41.58a.9.9 0 0 1-.58-1.61c.9-.75 2.72-1.93 3.35-2.24a.91.91 0 1 1 .8 1.63c-.46.23-2.18 1.34-2.99 2a.9.9 0 0 1-.58.22zm22.88-8.64c-.35-.32-.29-.79 0-1.09 2.66-2.85 5.12-6.16 6.29-8.64.5-1.05.87-2.11.99-2.76.14-.75-.15-1.2-.6-1.3-.3-.06-.75.14-.95.72-.15.46-.33 1.04-.8 2.04a26.81 26.81 0 0 1-6.65 8.8c-.47.4-.9.23-1.11-.01-.24-.26-.3-.75.16-1.16 4.05-3.66 6.15-7.55 6.66-9.25.2-.7-.09-1.03-.33-1.1-.25-.07-.94-.08-1.21.56-.6 1.4-1.33 2.93-3.63 5.52a46.34 46.34 0 0 1-7.71 6.57c-.9.6-1.72.84-2.46.4-.95-.54-.85-1.75-.76-2.26.17-1.05.7-4.16 1.08-6.62.21-1.36-.52-1.55-.9-1.58-.4-.04-.78.17-1.05.84-.27.67-1.79 4.73-2.68 8.37a18.54 18.54 0 0 0-.18 7.5c.21.97.14 1.4.02 1.78-.13.4-.45 1.06-.93 2.04-.27.57-.98 1.93-1.32 2.65a1.12 1.12 0 0 1-1.56.5c-.5-.27-.7-.92-.47-1.45.58-1.34 1.61-2.87 2.32-4.03a.9.9 0 0 0 .12-.62 23.1 23.1 0 0 1 .16-9.29c.91-3.76 2-6.1 2.52-7.52.88-2.43 2.5-2.74 3.57-2.6 1.3.18 2.45 1.16 2.25 3.31-.12 1.32-.84 5.8-.92 6.48-.05.42.39.46.7.26a38.6 38.6 0 0 0 6.75-5.73c2.24-2.48 3-3.95 3.52-5.05.72-1.53 1.7-1.83 2.7-1.82.54.01.94.3 1.19.56.07.07.19.1.27.03a2.65 2.65 0 0 1 2.15-.45c1.14.25 2.1 1.61 1.76 3.12-.07.3-.17.77-.27 1.13-.02.09.03.17.12.2 1.59.34 1.91 1.74 1.68 2.9-.18.86-.6 1.96-1.53 3.55-.05.09 0 .2.1.23 1.2.32 1.9 2.24.56 4.48-.47.8-2.21 3.5-3.47 4.76a27.47 27.47 0 0 1-9.48 6.65 6.47 6.47 0 0 0-2.8 2.48c-.9 1.51-.85 1.48-.86 1.5a1.12 1.12 0 0 1-1.52.57 1.16 1.16 0 0 1-.5-1.54c.06-.14.27-.52.95-1.68.76-1.27 2-2.1 3.66-2.96 4.76-2.47 7.23-3.98 9.7-6.74.92-1.02 3.22-4.04 3.44-4.86.13-.5.06-.92-.38-1.01-.3-.06-.61.08-.87.45-1 1.42-2.17 2.79-3.9 4.56-.45.45-.93.47-1.22.2-.3-.26-.34-.7-.02-1.03a32.2 32.2 0 0 0 6.25-8.72c.46-.95.46-1.82-.04-2.02-.43-.18-.84.07-1.04.5-.92 2.05-3.72 5.99-6.35 8.5-.39.38-.8.52-1.17.18zM21.73 20.61c-.14.13-.29.05-.41 0-.6-.28-3.04-1.73-3.53-2.08-.24-.18-.25-.37-.15-.56.13-.25.42-.54.91-.98.5-.44.83-.68 1.1-.78.2-.08.38-.04.53.23.29.52 1.4 3.14 1.6 3.76.04.13.1.29-.05.41zm-5.34.88l4.38.84c.03.19-.11.28-.22.35-.55.37-3.05 1.7-3.61 1.93-.28.12-.45.03-.56-.16a4.2 4.2 0 0 1-.36-1.29 4.2 4.2 0 0 1-.1-1.33c.04-.21.17-.35.47-.34zm25.53 22.28c.19-.02.26.13.32.25.3.58 1.37 3.22 1.54 3.8.08.29-.02.45-.22.53a4.2 4.2 0 0 1-1.32.22c-.66.05-1.06.04-1.33-.04-.2-.06-.33-.2-.3-.5.1-.6.8-3.35 1.02-3.97.05-.12.1-.28.29-.3zm1.59-1.28c.09-.17.25-.16.39-.15.65.04 3.46.5 4.04.66.29.08.37.25.34.47-.03.28-.19.65-.5 1.24-.3.59-.51.93-.72 1.12-.16.14-.35.18-.58-.02a43.77 43.77 0 0 1-2.87-2.92c-.08-.1-.19-.24-.1-.4zM33.76 57.8a1.02 1.02 0 1 1-2.03 0 1.02 1.02 0 0 1 2.03 0zm0-51.62a1.02 1.02 0 1 1-2.03 0 1.02 1.02 0 0 1 2.03 0zm6.64 50.47a1.02 1.02 0 1 1-1.96.53 1.02 1.02 0 0 1 1.96-.53zM27.05 6.81a1.02 1.02 0 1 1-1.97.52 1.02 1.02 0 0 1 1.97-.52zm19.48 47.03a1.02 1.02 0 1 1-1.76 1.02 1.02 1.02 0 0 1 1.76-1.02zM20.72 9.14a1.02 1.02 0 1 1-1.76 1.02 1.02 1.02 0 0 1 1.76-1.02zm31 40.39a1.02 1.02 0 1 1-1.44 1.44 1.02 1.02 0 0 1 1.43-1.44zm-36.5-36.5a1.02 1.02 0 1 1-1.44 1.44 1.02 1.02 0 0 1 1.43-1.44zm40.38 31a1.02 1.02 0 1 1-1.01 1.75 1.02 1.02 0 0 1 1.01-1.76zM10.9 18.21a1.02 1.02 0 1 1-1.01 1.75 1.02 1.02 0 0 1 1.01-1.75zM57.94 37.7a1.02 1.02 0 1 1-.53 1.96 1.02 1.02 0 0 1 .53-1.96zM8.08 24.34a1.02 1.02 0 1 1-.53 1.96 1.02 1.02 0 0 1 .53-1.96zm50.47 6.64a1.02 1.02 0 1 1 0 2.03 1.02 1.02 0 0 1 0-2.03zm-51.61 0a1.02 1.02 0 1 1 0 2.03 1.02 1.02 0 0 1 0-2.03zm50.47-6.64a1.02 1.02 0 1 1 .53 1.96 1.02 1.02 0 0 1-.53-1.96zM7.55 37.7a1.02 1.02 0 1 1 .53 1.96 1.02 1.02 0 0 1-.53-1.96zM54.6 18.22a1.02 1.02 0 1 1 1.01 1.75 1.02 1.02 0 0 1-1.01-1.75zm-44.7 25.8a1.02 1.02 0 1 1 1.01 1.76 1.02 1.02 0 0 1-1.01-1.76zm40.39-30.99a1.01 1.01 0 1 1 1.43 1.44 1.01 1.01 0 0 1-1.43-1.44zm-36.5 36.5a1.01 1.01 0 1 1 1.43 1.43 1.01 1.01 0 0 1-1.43-1.43zM44.77 9.14a1.02 1.02 0 1 1 1.76 1.02 1.02 1.02 0 0 1-1.76-1.02zm-25.8 44.7a1.02 1.02 0 1 1 1.75 1.02 1.02 1.02 0 0 1-1.76-1.02zM38.43 6.81a1.02 1.02 0 1 1 1.96.52 1.02 1.02 0 0 1-1.96-.52zM25.08 56.66a1.02 1.02 0 1 1 1.97.53 1.02 1.02 0 0 1-1.97-.53z"/>
</svg>
