<svg width="16" height="16" viewBox="0 0 16 16" fill="none" xmlns="http://www.w3.org/2000/svg">
<path d="M7.93202 1L8.22887 0.478578C8.04516 0.373989 7.81996 0.373796 7.63607 0.478068L7.93202 1ZM2 4.36364L1.70405 3.84171C1.51613 3.94826 1.4 4.14761 1.4 4.36364H2ZM14 4.45455H14.6C14.6 4.23889 14.4843 4.03982 14.2968 3.93313L14 4.45455ZM2 11.3636H1.4C1.4 11.5724 1.50847 11.7661 1.68642 11.8752L2 11.3636ZM7.93202 15L7.61844 15.5115C7.80491 15.6258 8.0388 15.6296 8.22887 15.5214L7.93202 15ZM14 11.5455L14.2968 12.0669C14.4843 11.9602 14.6 11.7611 14.6 11.5455H14ZM7.63607 0.478068L1.70405 3.84171L2.29595 4.88557L8.22797 1.52193L7.63607 0.478068ZM1.68642 4.87518L7.61844 8.51154L8.2456 7.48847L2.31358 3.8521L1.68642 4.87518ZM8.23471 8.51806L14.3027 4.9726L13.6973 3.9365L7.62933 7.48196L8.23471 8.51806ZM14.2968 3.93313L8.22887 0.478578L7.63517 1.52142L13.7032 4.97597L14.2968 3.93313ZM1.4 4.36364V11.3636H2.6V4.36364H1.4ZM1.68642 11.8752L7.61844 15.5115L8.2456 14.4885L2.31358 10.8521L1.68642 11.8752ZM8.22887 15.5214L14.2968 12.0669L13.7032 11.0241L7.63517 14.4786L8.22887 15.5214ZM14.6 11.5455V4.45455H13.4V11.5455H14.6ZM7.33202 8.00001V15H8.53202V8.00001H7.33202Z" fill="#0D6763"/>
<circle cx="8" cy="8" r="1.4" fill="white" stroke="#0D6763" stroke-width="1.2"/>
</svg>
