<svg xmlns="http://www.w3.org/2000/svg" viewBox="0 0 14 16">
  <path  d="M5.66 6.52a2 2 0 0 1 2.66-.02l4.38-2.56.6 1.03-4.36 2.55a2 2 0 0 1-1.4 2.4V15h-1.2V9.89a2 2 0 0 1-1.29-2.34L.7 4.88l.62-1.03 4.35 2.67zM6.93 1l-.3-.52c.19-.1.42-.1.6 0l-.3.52zM1 4.36H.4a.6.6 0 0 1 .3-.52l.3.52zm12 .1l.3-.53c.18.11.3.3.3.52H13zm-12 6.9l-.31.52a.6.6 0 0 1-.29-.52H1zM6.93 15l.3.52a.6.6 0 0 1-.61 0l.31-.52zM13 11.55h.6a.6.6 0 0 1-.3.52l-.3-.52zM6.64.48l.59 1.04L1.3 4.9.7 3.84 6.64.48zm6.66 3.45l-.6 1.05-6.06-3.46.59-1.04 6.07 3.45zM.4 4.36h1.2v7H.4v-7zm.29 7.52l.62-1.03 5.94 3.64-.63 1.02-5.93-3.63zm6.54 3.64l-.6-1.04 6.07-3.46.6 1.05-6.07 3.45zm6.37-3.97h-1.2v-7.1h1.2v7.1zM7 8.8a.8.8 0 1 0 0-1.6.8.8 0 0 0 0 1.6z"/>
</svg>