<svg width="16" height="16" viewBox="0 0 16 16" fill="none" xmlns="http://www.w3.org/2000/svg">
<path d="M9.33337 11.6667H5.38889C4.62183 11.6667 4 11.0449 4 10.2778V1" stroke="#808080"/>
<path d="M4.33334 6.49996H9.6667" stroke="#808080"/>
<path fill-rule="evenodd" clip-rule="evenodd" d="M9.3335 6.33334C9.3335 5.59696 9.93045 5 10.6668 5V5C11.4032 5 12.0002 5.59696 12.0002 6.33334V6.33334C12.0002 7.06973 11.4032 7.66668 10.6668 7.66668V7.66668C9.93045 7.66668 9.3335 7.06973 9.3335 6.33334V6.33334Z" stroke="#808080"/>
<path fill-rule="evenodd" clip-rule="evenodd" d="M9.3335 11.6667C9.3335 10.9303 9.93045 10.3334 10.6668 10.3334V10.3334C11.4032 10.3334 12.0002 10.9303 12.0002 11.6667V11.6667C12.0002 12.4031 11.4032 13.0001 10.6668 13.0001V13.0001C9.93045 13.0001 9.3335 12.4031 9.3335 11.6667V11.6667Z" stroke="#808080"/>
</svg>
