<svg width="16" height="16" viewBox="0 0 16 16" fill="none" xmlns="http://www.w3.org/2000/svg">
    <path fill-rule="evenodd" clip-rule="evenodd" d="M12.7713 1.89174C13.516 2.63639 13.516 3.8437 12.7713 4.58835L5.44274 11.917L1.35425 13.3959L1.3335 13.371L2.74612 9.22035L10.0747 1.89174C10.8194 1.14709 12.0267 1.14709 12.7713 1.89174Z" stroke="#999C9D"/>
    <path fill-rule="evenodd" clip-rule="evenodd" d="M9.5 13.6667C10.0523 13.6667 10.5 13.219 10.5 12.6667C10.5 12.1145 10.0523 11.6667 9.5 11.6667C8.94772 11.6667 8.5 12.1145 8.5 12.6667C8.5 13.219 8.94772 13.6667 9.5 13.6667Z" fill="#999C9D"/>
    <path fill-rule="evenodd" clip-rule="evenodd" d="M13.3335 13.6667C13.8858 13.6667 14.3335 13.219 14.3335 12.6667C14.3335 12.1145 13.8858 11.6667 13.3335 11.6667C12.7812 11.6667 12.3335 12.1145 12.3335 12.6667C12.3335 13.219 12.7812 13.6667 13.3335 13.6667Z" fill="#999C9D"/>
</svg>
