<svg xmlns="http://www.w3.org/2000/svg" width="16" height="16" viewBox="0 0 16 16">
  <path fill="#0D6763" d="M9.14664003,12.5831 C9.46236231,11.6158691 10.3718153,10.917 11.4445,10.917 C12.7791136,10.917 13.8611,11.9989864 13.8611,13.3336 C13.8611,14.6682911 12.779136,15.7503 11.4445,15.7503 C10.371413,15.7503 9.46170372,15.0509156 9.1462989,14.0831 L4.84715,14.0831 C3.47413815,14.0831 2.36108,12.9700153 2.36108,11.597 L2.36108,-1.13686838e-13 L3.86108,-1.13686838e-13 L3.86108,6.12466 L9.08884121,6.12466 C9.33486786,5.05093695 10.2961371,4.25 11.4445,4.25 C12.779128,4.25 13.8611,5.33198092 13.8611,6.66664 C13.8611,8.00129132 12.7791258,9.08327 11.4445,9.08327 C10.4501636,9.08327 9.59609611,8.48277801 9.22516355,7.62466 L3.86108,7.62466 L3.86108,11.597 C3.86108,12.1415962 4.30257329,12.5831 4.84715,12.5831 L9.14664003,12.5831 Z M10.52783,6.66664 C10.52783,7.17288399 10.9382211,7.58327 11.4445,7.58327 C11.9506973,7.58327 12.3611,7.17286559 12.3611,6.66664 C12.3611,6.16040526 11.9506981,5.75 11.4445,5.75 C10.9382203,5.75 10.52783,6.16038686 10.52783,6.66664 Z M10.52783,13.3336 C10.52783,13.8398963 10.9382235,14.2503 11.4445,14.2503 C11.9506949,14.2503 12.3611,13.8398779 12.3611,13.3336 C12.3611,12.8274136 11.9506864,12.417 11.4445,12.417 C10.938232,12.417 10.52783,12.8273952 10.52783,13.3336 Z"/>
</svg>
