<svg xmlns="http://www.w3.org/2000/svg" width="16" height="16" viewBox="0 0 16 16">
  <path  d="M9.88047026,12.5 L10,12.5 C12.4852814,12.5 14.5,10.4852814 14.5,8 L14.5,7 C14.5,4.51471863 12.4852814,2.5 10,2.5 L6,2.5 C3.51471863,2.5 1.5,4.51471863 1.5,7 L1.5,8 C1.5,9.1934742 1.97410578,10.3380668 2.81801948,11.1819805 C3.66193319,12.0258942 4.8065258,12.5 6,12.5 L6.556,12.5 L6.556,14.1858368 L9.88047026,12.5 Z M2.1109127,11.8890873 C1.07946262,10.8576372 0.5,9.45869069 0.5,8 L0.5,7 C0.5,3.96243388 2.96243388,1.5 6,1.5 L10,1.5 C13.0375661,1.5 15.5,3.96243388 15.5,7 L15.5,8 C15.5,10.9967434 13.103308,13.4337095 10.1221518,13.4986703 L5.556,15.8141632 L5.556,13.4820627 C4.25985332,13.3771357 3.0371949,12.8153695 2.1109127,11.8890873 Z"/>
</svg>
