<svg width="16" height="16" viewBox="0 0 16 16" fill="none" xmlns="http://www.w3.org/2000/svg">
<path fill-rule="evenodd" clip-rule="evenodd" d="M0 8C0 3.58172 3.58172 0 8 0C12.4183 0 16 3.58172 16 8C16 12.4183 12.4183 16 8 16C3.58172 16 0 12.4183 0 8ZM11.9739 11.4026C12.0471 11.1229 11.9637 10.8254 11.7558 10.6246L9.12136 7.99016L11.7558 5.35577C12.0589 5.04186 12.0546 4.5429 11.746 4.23431C11.4374 3.92573 10.9385 3.92139 10.6246 4.22457L7.99016 6.85896L5.35577 4.22457C5.04186 3.92139 4.5429 3.92573 4.23431 4.23431C3.92573 4.5429 3.92139 5.04186 4.22457 5.35577L6.85896 7.99016L4.22457 10.6246C3.92139 10.9385 3.92573 11.4374 4.23431 11.746C4.5429 12.0546 5.04186 12.0589 5.35577 11.7558L7.99016 9.12136L10.6246 11.7558C10.8254 11.9637 11.1229 12.0471 11.4026 11.9739C11.6823 11.9007 11.9007 11.6823 11.9739 11.4026Z" fill="#333333"/>
</svg>
