<svg xmlns="http://www.w3.org/2000/svg" width="72" height="72" viewBox="0 0 72 72">
  <g fill="none" fill-rule="evenodd">
    <polygon points="34 53 50 53 50 69 34 69"/>
    <g fill="#DDD" fill-rule="nonzero" transform="translate(17 6)">
      <path d="M28.59375,41.7038734 C30.6762914,39.9225982 31.8751803,37.3192967 31.875,34.57875 L31.875,20.625 L35.625,20.6249999 L35.625,34.5786266 C35.6252524,38.4152193 33.946808,42.0598414 31.0314606,44.5534465 L18.75,55.0613809 L17.5310394,54.0184465 L6.46875015,44.5536268 C3.55203026,42.0588483 1.87346852,38.4123727 1.875,34.5750001 L1.87499895,20.6249999 L5.6249991,20.6249999 L5.62499985,34.5757482 C5.62390583,37.3172632 6.8228785,39.9218886 8.90646063,41.7040535 L18.75,50.1261191 L28.59375,41.7038734 Z"/>
      <path d="M19.9846961,37.0264187 L17.5153039,37.0264187 L18.75,35.9460596 L19.9846961,37.0264187 Z M28.675,27.2616846 C30.7083519,25.4817284 31.8747256,22.9109223 31.875,20.20875 L31.875,7.5 L35.625,7.5 L35.625,20.2089404 C35.6246159,23.9922481 33.9916926,27.5913767 31.1446961,30.0835813 L18.75,40.9289404 L17.5153039,39.8485813 L6.35500018,30.0833155 C3.50945567,27.5923825 1.87664505,23.9950966 1.875,20.2125 L1.875,7.5 L5.625,7.5 L5.62499982,20.2116845 C5.62617473,22.9129567 6.79246803,25.4824466 8.82469614,27.2614187 L18.75,35.9460596 L28.675,27.2616846 Z"/>
      <path d="M28.4125,13.1698991 C30.602982,11.3897855 31.874848,8.71748931 31.875,5.895 L31.875,0 L35.625,0 L35.625,5.89510094 C35.6247873,9.84672729 33.8441748,13.5879419 30.7774369,16.0801522 L18.75,25.8534844 L17.5675631,24.8926522 L6.7225,16.0801009 C3.65582521,13.5879419 1.87521275,9.84672729 1.875,5.895 L1.875,0 L5.625,0 L5.625,5.89489906 C5.62515196,8.71748931 6.897018,11.3897855 9.08743694,13.1698478 L18.75,21.0215156 L28.4125,13.1698991 Z M16.875,0 L20.625,0 L20.625,60 L16.875,60 L16.875,0 Z"/>
    </g>
  </g>
</svg>
