<svg xmlns="http://www.w3.org/2000/svg" width="72" height="72" viewBox="0 0 72 72">
  <path fill="#DDD" fill-rule="evenodd" d="M33.98913,21.8972279 C32.9526,21.8972279 32.08887,21.0334979 32.08887,19.9969679 C32.08887,19.4355479 32.304825,18.9172829 32.73669,18.5717729 C38.13516,13.8211229 40.510485,9.93420286 40.94235,9.15682786 C42.5403,6.39279286 45.0882,4.96759786 47.72295,5.31310786 C48.7593,5.44266286 49.4937,6.43599286 49.3641,7.47252286 C49.2345,8.50900786 48.2841,9.24322786 47.24775,9.11362786 C45.693,8.89771786 44.656515,10.4092679 44.26785,11.0570879 C43.792785,11.8776629 41.115105,16.2828029 35.28477,21.4221629 C34.93926,21.7676729 34.464195,21.8972279 33.98913,21.8972279 Z M1.9002645,54.2457929 C0.863757,54.2457929 2.66453526e-15,53.3817929 2.66453526e-15,52.3454429 C2.66453526e-15,51.7838429 0.2591271,51.2226929 0.6910065,50.8770929 C2.591271,49.3223429 6.3918,46.8603929 7.68744,46.1696429 C8.63757,45.6944429 9.760455,46.1264429 10.23552,47.0763929 C10.667385,48.0267929 10.321875,49.1063429 9.414945,49.5815429 C8.421615,50.0562929 4.83705,52.3886429 3.1527135,53.7705929 C2.807208,54.0729929 2.3753295,54.2457929 1.9002645,54.2457929 Z M49.8321,36.1478729 C49.0977,35.4568529 49.2273,34.5067229 49.8753,33.6429479 C55.4463,27.6830579 60.58575,20.7297929 63.0477,15.5472779 C64.08405,13.3446629 64.8612,11.0988929 65.1204,9.76009786 C65.4228,8.20534786 64.77525,7.25521786 63.86805,7.03926286 C63.22005,6.90970786 62.3133,7.34157286 61.8813,8.55081286 C61.53615,9.50094286 61.19055,10.7534279 60.19695,12.8264429 C58.21065,17.0156279 53.89155,24.7462679 46.2474,31.2676229 C45.25425,32.1313979 44.390385,31.7858879 43.91532,31.2676229 C43.440255,30.7493579 43.3107,29.7128729 44.26083,28.8490979 C52.7256,21.2048579 57.13065,13.0423529 58.21065,9.50094286 C58.6422,8.07574786 58.03785,7.34157286 57.51945,7.21201786 C57.00105,7.03926286 55.5327,7.03926286 54.97155,8.37810286 C53.71875,11.3148479 52.2072,14.5539479 47.37015,19.9524179 C42.792435,25.1349779 35.450505,30.8789579 31.218075,33.7293479 C29.317815,34.9817879 27.63351,35.5000529 26.07876,34.5930779 C24.0921,33.4270379 24.308055,30.9221129 24.48081,29.8424279 C24.869475,27.6398579 25.99236,21.1185029 26.769735,15.9791429 C27.201645,13.1287529 25.69005,12.7400429 24.869475,12.6536879 C24.0921,12.5672879 23.271525,12.9991979 22.710105,14.4243929 C22.14864,15.8495879 18.95274,24.3575579 17.09568,31.9586429 C15.670485,37.7026229 15.929595,44.2239779 16.70697,47.6789429 C17.138835,49.7520929 17.00928,50.6588429 16.75017,51.4364429 C16.49106,52.2999929 15.80004,53.6387429 14.80671,55.7118929 C14.24529,56.9210429 12.776895,59.7717929 12.042675,61.2833429 C11.99952,61.3265429 11.99952,61.3697429 11.95632,61.4129429 C11.3085,62.5788929 9.883305,62.9676929 8.76042,62.3628929 C7.680735,61.7580929 7.292025,60.4193429 7.76709,59.2965929 C8.933175,56.5326929 11.135745,53.2935929 12.60414,50.8748429 C12.86325,50.4860429 12.94965,50.0112929 12.86325,49.5792929 C11.65401,42.1509629 11.86992,35.6728079 13.20876,30.1447379 C15.10902,22.2413879 17.39799,17.3611379 18.477675,14.3811929 C20.334735,9.28503286 23.70339,8.63721286 25.94916,8.93952286 C28.669995,9.28503286 31.08852,11.3580479 30.656655,15.8495879 C30.3975,18.6135779 28.88595,28.0285229 28.713195,29.4105629 C28.58364,30.3174929 29.53377,30.4038929 30.18159,29.9719829 C33.93891,27.5103029 39.9852,22.8028079 44.347185,17.8362029 C49.0545,12.6536879 50.65245,9.54414286 51.73245,7.25521786 C53.244,4.05929986 55.3167,3.41147986 57.38985,3.45466636 C58.5558,3.49785736 59.3766,4.05929986 59.895,4.62073786 C60.02415,4.79349286 60.28335,4.83669286 60.45615,4.70709286 C61.7517,3.80017186 63.26325,3.41147986 64.9476,3.75698086 C67.32315,4.27522786 69.3099,7.12561786 68.6187,10.2783629 C68.4891,10.9261829 68.2731,11.8763129 68.0571,12.6536879 C68.0571,12.8264429 68.1435,12.9991979 68.3163,13.0423529 C71.685,13.7333729 72.333,16.7133179 71.8578,19.1318429 C71.5122,20.9025479 70.60545,23.2346729 68.6619,26.5601729 C68.6187,26.6033279 68.6187,26.6033279 68.6187,26.6465279 C68.5755,26.8192829 68.6619,26.9920379 68.8347,27.0352379 C71.3826,27.7262129 72.80775,31.7426879 70.04385,36.4501829 C69.0507,38.1344879 65.3796,43.7921129 62.7453,46.4265929 C56.91465,52.2135929 52.8552,55.8414929 42.87879,60.3761429 C39.855645,61.7580929 37.912185,64.0472429 37.005255,65.5587929 C35.104995,68.7546929 35.19135,68.6682929 35.19135,68.7114929 C35.19135,68.7546929 35.148195,68.7978929 35.148195,68.8410929 C34.58673,70.0502429 33.161535,70.5254429 31.99545,69.9638429 C30.78621,69.4026929 30.354345,67.8906929 30.915765,66.7247429 C31.08852,66.4223429 31.520385,65.6451929 32.945625,63.2264429 C34.500375,60.5489429 37.091655,58.8213929 40.589865,57.0074429 C50.56605,51.8252429 55.7487,48.6725429 60.93135,42.8851379 C62.8317,40.7689679 67.62555,34.4635229 68.1003,32.7360179 C68.4027,31.6994879 68.2299,30.7925579 67.32315,30.6198029 C66.71835,30.4902479 66.0276,30.7925579 65.5092,31.5699329 C63.43605,34.5499229 60.97455,37.4003129 57.34665,41.1144329 C56.3967,42.0645629 55.4031,42.1077629 54.79875,41.5463429 C54.19395,40.9848779 54.06435,40.0779479 54.75555,39.3869279 C61.7517,32.1745529 65.2932,26.3874179 67.84155,21.1185029 C68.7915,19.1318429 68.8347,17.3179829 67.75515,16.8860729 C66.84795,16.5405629 66.0276,17.0588279 65.5956,17.9657579 C63.65205,22.2845429 57.82185,30.5334479 52.2936,35.8023629 C51.47325,36.5365379 50.60925,36.8388479 49.8321,36.1478729 Z M15.372225,10.3218779 C15.069915,10.5810329 14.767605,10.4082779 14.465295,10.2787229 C13.21281,9.71725786 8.073495,6.65091286 7.080165,5.91673786 C6.6051,5.52802786 6.5619,5.13936286 6.777855,4.75065286 C7.036965,4.23238786 7.641585,3.62777236 8.678115,2.72082886 C9.7146,1.81388536 10.40562,1.29562936 10.96704,1.07969236 C11.39895,0.906941861 11.787615,0.993314861 12.089925,1.55475736 C12.69459,2.67764236 15.026715,8.16250786 15.45858,9.45814786 C15.54498,9.71725786 15.674535,10.0627679 15.372225,10.3218779 Z M13.344075,13.9058129 C13.430475,14.2945229 13.128165,14.4672329 12.82581,14.6831879 C11.702925,15.4605629 6.43401,18.2677979 5.26797,18.7428629 C4.66335,18.9587729 4.3178265,18.7860179 4.1018895,18.3973529 C3.799575,17.8790879 3.62682,17.0585129 3.3676965,15.6765179 C3.1085685,14.2945229 3.065382,13.4307479 3.151755,12.8692829 C3.2381325,12.4374179 3.4972605,12.1351079 4.145076,12.1783079 C5.440725,12.2214629 11.31426,13.0420379 12.6531,13.3875479 C12.91221,13.4307479 13.25772,13.5171029 13.344075,13.9058129 Z M57.6603,58.8218429 C58.0491,58.7786429 58.2219,59.0810429 58.35105,59.2970429 C58.99905,60.5061929 61.245,66.0344429 61.59015,67.2435929 C61.76295,67.8479429 61.50375,68.1935429 61.1154,68.3663429 C60.5538,68.6255429 59.73345,68.7551429 58.35105,68.8415429 C56.9691,68.9279429 56.10555,68.9279429 55.54395,68.7551429 C55.11195,68.6255429 54.8532,68.3231429 54.9396,67.7187929 C55.11195,66.5091929 56.58075,60.7221929 57.0555,59.4266429 C57.1419,59.1674429 57.2715,58.8650429 57.6603,58.8218429 Z M60.9894,56.1447929 C61.1622,55.7559929 61.55055,55.7991929 61.76655,55.8423929 C63.1485,55.9287929 69.02235,56.8791929 70.2315,57.2243429 C70.8363,57.3971429 71.00865,57.7859429 70.9659,58.2179429 C70.8795,58.7790929 70.5771,59.5566929 69.9291,60.8090429 C69.32475,62.0181929 68.84955,62.7525929 68.41755,63.1413929 C68.07195,63.4433429 67.6836,63.4865429 67.2084,63.0981929 C66.2148,62.2773929 62.06895,58.0451429 61.2054,56.9655929 C61.0326,56.7495929 60.8166,56.4903929 60.9894,56.1447929 Z"/>
</svg>
