<svg xmlns="http://www.w3.org/2000/svg" width="24" height="24" viewBox="0 0 24 24">
  <path fill="#333" fill-rule="evenodd" d="M12.5217391,24 L1.04347826,24 C0.467181131,24 1.15849359e-16,23.5328189 0,22.9565217 L0,1.04347826 C-5.79246795e-17,0.467181131 0.467181131,1.15849359e-16 1.04347826,0 L22.9565217,0 C23.5328189,0 24,0.467181131 24,1.04347826 L24,22.9565217 C24,23.5328189 23.5328189,24 22.9565217,24 L16.6956522,24 L16.6956522,14.6086957 L19.365913,14.6086957 C19.6305779,14.6107374 19.8548406,14.4142832 19.8876522,14.1516522 L20.2789565,11.0212174 C20.2976048,10.8720252 20.2509844,10.7220406 20.1510456,10.6097094 C20.0511068,10.4973782 19.907566,10.4336217 19.7572174,10.4347826 L16.6956522,10.4347826 L16.6956522,9.0626087 C16.6968031,8.0916178 17.4839651,7.30492272 18.4549565,7.30434783 L20.3478261,7.30434783 C20.6359747,7.30434783 20.8695652,7.07075726 20.8695652,6.7826087 L20.8695652,3.65217391 C20.8695652,3.36402535 20.6359747,3.13043478 20.3478261,3.13043478 L18.4549565,3.13043478 C15.1799683,3.13388451 12.5257649,5.78762116 12.5217391,9.0626087 L12.5217391,10.4347826 L9.91304348,10.4347826 C9.62489491,10.4347826 9.39130435,10.6683732 9.39130435,10.9565217 L9.39130435,14.0869565 C9.39130435,14.3751051 9.62489491,14.6086957 9.91304348,14.6086957 L12.5217391,14.6086957 L12.5217391,24 Z"/>
</svg>
