<svg xmlns="http://www.w3.org/2000/svg" width="24" height="24" viewBox="0 0 24 24">
    <g fill="none" fill-rule="evenodd">
        <path d="M0 0h24v24H0z"/>
        <g stroke="#444" stroke-width="1.5">
            <path d="M4 6.913h16v11.13a2 2 0 0 1-2 2H6a2 2 0 0 1-2-2V6.913zM12 6.913v13.304"/>
            <path d="M8.087 6.913A1.938 1.938 0 0 1 6.13 4.957C6.13 3.86 6.991 3 8.087 3s1.722.391 2.426 1.487C10.826 4.878 12 6.913 12 6.913M15.913 6.913c1.096 0 1.957-.86 1.957-1.956S17.009 3 15.913 3s-1.722.391-2.426 1.487C13.174 4.878 12 6.913 12 6.913"/>
        </g>
    </g>
</svg>
