<svg xmlns="http://www.w3.org/2000/svg" width="12" height="12" viewBox="0 0 12 12">
  <path fill="#D1D1D1" fill-rule="evenodd" d="M6.21568627,12 L7.05882353,8.52041522 L3.51960784,8.52041522 L2.67647059,12 L1.59803922,12 L2.43137255,8.52041522 L0,8.52041522 L0.215686275,7.59861592 L2.66666667,7.59861592 L3.44117647,4.3183391 L0.901960784,4.3183391 L1.11764706,3.40484429 L3.65686275,3.40484429 L4.5,0 L5.57843137,0 L4.76470588,3.40484429 L8.28431373,3.40484429 L9.12745098,0 L10.2156863,0 L9.38235294,3.40484429 L12,3.40484429 L11.7941176,4.3183391 L9.15686275,4.3183391 L8.37254902,7.59861592 L11.0882353,7.59861592 L10.8823529,8.52041522 L8.15686275,8.52041522 L7.31372549,12 L6.21568627,12 Z M3.74509804,7.61522491 L7.29411765,7.61522491 L8.06862745,4.3100346 L4.52941176,4.3100346 L3.74509804,7.61522491 Z"/>
</svg>
