<svg xmlns="http://www.w3.org/2000/svg" width="16" height="16" viewBox="0 0 16 16">
    <path fill="#B3B3B3" fill-rule="evenodd" d="M8 0a8 8 0 1 0 0 16A8 8 0 0 0 8 0zm-.12 12.667c-.58 0-.979-.386-.979-.96 0-.588.398-.973.979-.973.58 0 .973.385.973.973 0 .574-.392.96-.973.96zm1.623-4.812c-.815.48-1.048.814-1.048 1.452v.379H7.147l-.006-.48c-.031-.91.354-1.478 1.219-1.995.764-.462 1.035-.821 1.035-1.459 0-.695-.562-1.2-1.427-1.2-.871 0-1.433.511-1.49 1.32H5.171c.057-1.453 1.036-2.539 2.867-2.539 1.667 0 2.791.992 2.791 2.362 0 .972-.492 1.661-1.326 2.16z"/>
</svg>
