<svg xmlns="http://www.w3.org/2000/svg" xmlns:xlink="http://www.w3.org/1999/xlink" width="12" height="12" viewBox="0 0 12 12">
    <defs>
        <path id="a" d="M6 0a6 6 0 1 0 6 6 6.006 6.006 0 0 0-6-6zm.125 2.5a.75.75 0 1 1 0 1.5.75.75 0 0 1 0-1.5zM7.25 9.25h-2a.5.5 0 0 1 0-1h.375a.125.125 0 0 0 .125-.125v-2.25a.125.125 0 0 0-.125-.125H5.25a.5.5 0 0 1 0-1h.5a1 1 0 0 1 1 1v2.375c0 .069.056.125.125.125h.375a.5.5 0 0 1 0 1z"/>
    </defs>
    <g fill="none" fill-rule="evenodd">
        <use fill="#BDA56A" xlink:href="#a"/>
        <use fill="#BFA267" xlink:href="#a"/>
    </g>
</svg>
