<svg width="16" height="16" viewBox="0 0 16 16" fill="none" xmlns="http://www.w3.org/2000/svg">
<path d="M7.55314 4.95523C7.3228 4.95523 7.13086 4.76329 7.13086 4.53295C7.13086 4.40819 7.17885 4.29302 7.27482 4.21624C8.47448 3.16054 9.00233 2.29678 9.0983 2.12403C9.4534 1.5098 10.0196 1.19309 10.6051 1.26987C10.8354 1.29866 10.9986 1.5194 10.9698 1.74974C10.941 1.98007 10.7298 2.14323 10.4995 2.11443C10.154 2.06645 9.92367 2.40235 9.8373 2.54631C9.73173 2.72866 9.13669 3.70758 7.84106 4.84966C7.76428 4.92644 7.65871 4.95523 7.55314 4.95523Z" fill="#0D6763"/>
<path d="M0.422281 12.1438C0.191946 12.1438 0 11.9518 0 11.7215C0 11.5967 0.0575838 11.472 0.153557 11.3952C0.575838 11.0497 1.4204 10.5026 1.70832 10.3491C1.91946 10.2435 2.16899 10.3395 2.27456 10.5506C2.37053 10.7618 2.29375 11.0017 2.09221 11.1073C1.87147 11.2128 1.0749 11.7311 0.700603 12.0382C0.623824 12.1054 0.527851 12.1438 0.422281 12.1438Z" fill="#0D6763"/>
<path d="M11.0738 8.12204C11.2465 8.27559 11.4385 8.20841 11.6208 8.04526C12.8493 6.87439 14.1449 5.0413 14.5768 4.08157C14.6728 3.88003 14.8551 3.76486 15.0567 3.84164C15.2966 3.93762 15.287 4.3407 15.0759 4.78218C14.5096 5.95305 13.7226 7.23908 12.1679 8.84183C12.0143 8.99539 12.0431 9.19693 12.1775 9.3217C12.3118 9.44646 12.5326 9.43686 12.7437 9.22572C13.5499 8.40036 14.0969 7.76694 14.5576 7.10472C14.6728 6.93197 14.8263 6.86479 14.9607 6.89358C15.1622 6.93197 15.2006 7.13351 15.1334 7.36385C15.0279 7.74774 13.9626 9.14895 13.5403 9.61921C12.3886 10.9053 11.2369 11.6059 9.01997 12.7575C8.24259 13.1606 7.66675 13.5445 7.32125 14.1395C7.00453 14.677 6.90856 14.8497 6.87017 14.9169C6.74541 15.176 6.84138 15.512 7.1101 15.6367C7.36923 15.7615 7.68594 15.6559 7.81071 15.3872C7.81071 15.3776 7.8203 15.368 7.8203 15.3584C7.8203 15.3488 7.80111 15.368 8.22339 14.6578C8.42493 14.3219 8.85681 13.8132 9.52862 13.5061C11.7456 12.4984 12.6477 11.6922 13.9434 10.4062C14.5288 9.82076 15.3446 8.56351 15.5653 8.18922C16.1795 7.14311 15.8628 6.25056 15.2966 6.09701C15.2582 6.08741 15.239 6.04902 15.2486 6.01063C15.2486 6.00103 15.2486 6.00103 15.2582 5.99144C15.6901 5.25244 15.8916 4.73419 15.9684 4.3407C16.074 3.80325 15.93 3.14104 15.1814 2.98748C15.143 2.97789 15.1238 2.9395 15.1238 2.90111C15.1718 2.72836 15.2198 2.51722 15.2486 2.37326C15.4022 1.67265 14.9607 1.03923 14.4328 0.924064C14.0585 0.847286 13.7226 0.933662 13.4347 1.1352C13.3963 1.164 13.3387 1.1544 13.31 1.11601C13.1948 0.991246 13.0124 0.866481 12.7533 0.856883C12.2926 0.847286 11.832 0.991246 11.4961 1.70145C11.2561 2.2101 10.901 2.90111 9.85493 4.05278C8.8856 5.15647 7.54198 6.20258 6.70702 6.74962C6.56306 6.8456 6.35192 6.8264 6.38071 6.62486C6.4191 6.31774 6.755 4.22553 6.81259 3.61131C6.90856 2.61319 6.37111 2.15252 5.76648 2.07574C5.26742 2.00856 4.51883 2.15252 4.10615 3.285C3.86622 3.94721 3.35756 5.03171 2.93528 6.78801C2.63776 8.01647 2.58978 9.45606 2.8585 11.1068C2.8777 11.2028 2.8585 11.3083 2.80092 11.3947C2.47461 11.9322 1.98515 12.652 1.72602 13.2662C1.62045 13.5157 1.70683 13.8132 1.94676 13.9476C2.19629 14.082 2.513 13.9956 2.65696 13.7365C2.66656 13.7269 2.66656 13.7173 2.67615 13.7077C2.83931 13.3718 3.16562 12.7383 3.29038 12.4696C3.51112 12.0089 3.66468 11.7114 3.72226 11.5195C3.77984 11.3467 3.80863 11.1452 3.71266 10.6845C3.53991 9.91673 3.48233 8.46754 3.79904 7.1911C4.21172 5.50197 4.92192 3.61131 5.04669 3.2946C5.17145 2.97789 5.3538 2.88191 5.52655 2.90111C5.7089 2.9203 6.04481 3.00668 5.94883 3.6401C5.77608 4.78218 5.52655 6.23137 5.44018 6.72083C5.40179 6.96076 5.3538 7.51741 5.79528 7.77653C6.14078 7.97808 6.51507 7.86291 6.93735 7.58459C7.87789 6.95117 9.50943 5.67473 10.5267 4.52305C11.6016 3.32339 11.9375 2.60359 12.2159 1.95098C12.3406 1.65346 12.6669 1.65346 12.7821 1.69185C12.8973 1.72064 13.0316 1.88379 12.9357 2.2005C12.6957 2.98748 11.7168 4.80137 9.83574 6.50009C9.6246 6.69204 9.65339 6.92237 9.75896 7.03754C9.86453 7.15271 10.0565 7.22949 10.2772 7.03754C11.9759 5.58835 12.9357 3.87043 13.3771 2.9395C13.5979 2.47883 13.6747 2.2005 13.7514 1.98936C13.8474 1.72064 14.0489 1.62467 14.1929 1.65346C14.3945 1.70145 14.5384 1.91259 14.4712 2.25809C14.4136 2.5556 14.2409 3.05466 14.0106 3.54413C13.4635 4.6958 12.3214 6.24097 11.0834 7.56539C10.9394 7.75734 10.9106 7.96848 11.0738 8.12204Z" fill="#0D6763"/>
<path d="M3.41605 2.38293C3.48323 2.32535 3.45444 2.24857 3.43524 2.19099C3.33927 1.90307 2.82102 0.684211 2.68665 0.434681C2.61947 0.309916 2.5331 0.290722 2.43712 0.329111C2.31236 0.377097 2.1588 0.492265 1.92847 0.693808C1.69813 0.895351 1.56377 1.02971 1.50619 1.14488C1.4582 1.23126 1.4678 1.31763 1.57337 1.40401C1.79411 1.56716 2.93618 2.24857 3.21451 2.37334C3.28169 2.40213 3.34887 2.44052 3.41605 2.38293Z" fill="#0D6763"/>
<path d="M2.96535 3.17936C2.94616 3.09298 2.86938 3.07379 2.8118 3.06419C2.51428 2.98741 1.20905 2.80506 0.921128 2.79547C0.777169 2.78587 0.719585 2.85305 0.70039 2.94902C0.681196 3.07379 0.690793 3.26574 0.748377 3.57285C0.80596 3.87996 0.84435 4.06231 0.911531 4.17748C0.959517 4.26385 1.0363 4.30224 1.17066 4.25426C1.42978 4.14869 2.60065 3.52486 2.85018 3.35211C2.91737 3.30412 2.98455 3.26574 2.96535 3.17936Z" fill="#0D6763"/>
<path d="M12.8134 13.1607C12.727 13.1703 12.6982 13.2375 12.679 13.2951C12.5735 13.583 12.2471 14.869 12.2088 15.1378C12.1896 15.2721 12.2471 15.3393 12.3431 15.3681C12.4679 15.4065 12.6598 15.4065 12.9669 15.3873C13.2741 15.3681 13.4564 15.3393 13.5812 15.2817C13.6675 15.2433 13.7251 15.1665 13.6867 15.0322C13.61 14.7635 13.1109 13.535 12.9669 13.2663C12.9382 13.2183 12.8998 13.1511 12.8134 13.1607Z" fill="#0D6763"/>
<path d="M13.5532 12.5658C13.5148 12.6426 13.5628 12.7002 13.6012 12.7482C13.7931 12.9881 14.7144 13.9286 14.9352 14.111C15.0408 14.1973 15.1271 14.1877 15.2039 14.1206C15.2999 14.0342 15.4055 13.871 15.5398 13.6023C15.6838 13.324 15.751 13.1512 15.7702 13.0265C15.7797 12.9305 15.7414 12.8441 15.607 12.8057C15.3383 12.729 14.033 12.5178 13.7259 12.4986C13.6779 12.489 13.5916 12.4794 13.5532 12.5658Z" fill="#0D6763"/>
</svg>
