<svg width="97" height="20" viewBox="0 0 97 20" fill="none" xmlns="http://www.w3.org/2000/svg">
<path fill-rule="evenodd" clip-rule="evenodd" d="M0 19.143V0H4.617L9.801 14.58H9.882L15.066 0H19.71V19.143H16.389V5.616H16.281C16.2587 5.69759 16.2365 5.78019 16.2139 5.86409C16.072 6.39106 15.9162 6.96925 15.66 7.668L11.421 19.143H8.316L4.077 7.668C3.78 6.858 3.591 6.21 3.456 5.616H3.348V19.143H0ZM29.497 19.548C25.258 19.548 22.126 16.038 22.126 11.664C22.126 7.29 25.258 3.78 29.497 3.78C32.143 3.78 34.195 5.211 35.14 7.182H35.248V4.212H38.542V19.143H35.248V16.227H35.14C33.844 18.576 31.9 19.548 29.497 19.548ZM30.199 16.362C32.899 16.362 34.762 14.337 34.762 11.664C34.762 8.964 32.899 6.966 30.199 6.966C27.526 6.966 25.69 8.964 25.69 11.664C25.69 14.337 27.526 16.362 30.199 16.362ZM42.497 19.143V7.371H40.202V4.212H42.497V0H45.872V4.212H47.639H48.248H50.934V0H54.309V4.212H56.685V7.371H54.309V15.984H56.604V19.143H50.934V7.371H48.248H47.639H45.872V15.984H48.167V19.143H42.497ZM75.962 19.143V4.212H84.953V7.371H79.364V19.143H75.962ZM90.96 19.548C87.774 19.548 85.398 17.388 85.398 14.769H88.773C88.8 15.741 89.772 16.443 91.014 16.443C92.337 16.443 93.174 15.795 93.174 14.823C93.174 13.581 91.851 13.311 90.501 12.96C87.693 12.258 85.695 11.097 85.695 8.37C85.695 5.805 88.017 3.807 91.068 3.807C94.011 3.807 96.441 5.832 96.441 8.478L93.066 8.451C93.066 7.452 92.121 6.885 91.068 6.885C89.988 6.885 89.07 7.425 89.07 8.343C89.07 9.45 90.366 9.72 91.716 10.071C93.714 10.584 96.468 11.259 96.468 14.769C96.468 17.415 93.984 19.548 90.96 19.548Z" fill="#333333"/>
<circle cx="66" cy="11" r="8" fill="url(#paint0_linear)"/>
<defs>
<linearGradient id="paint0_linear" x1="71" y1="17.5" x2="56" y2="-3" gradientUnits="userSpaceOnUse">
<stop stop-color="#C0A46B"/>
<stop offset="1" stop-color="white" stop-opacity="0"/>
</linearGradient>
</defs>
</svg>
