<svg xmlns="http://www.w3.org/2000/svg" xmlns:xlink="http://www.w3.org/1999/xlink" width="97" height="20" viewBox="0 0 97 20">
  <defs>
    <path id="group-2-a" d="M0,19.143 L0,0 L4.617,0 L9.801,14.58 L9.882,14.58 L15.066,0 L19.71,0 L19.71,19.143 L16.389,19.143 L16.389,5.616 L16.281,5.616 C16.2587,5.69759 16.2365,5.78019 16.2139,5.86409 C16.072,6.39106 15.9162,6.96925 15.66,7.668 L11.421,19.143 L8.316,19.143 L4.077,7.668 C3.78,6.858 3.591,6.21 3.456,5.616 L3.348,5.616 L3.348,19.143 L0,19.143 Z"/>
  </defs>
  <g fill="none" fill-rule="evenodd">
    <polygon fill="#333" points="42.497 19.143 42.497 7.371 40.202 7.371 40.202 4.212 42.497 4.212 42.497 0 45.872 0 45.872 4.212 47.639 4.212 48.248 4.212 50.934 4.212 50.934 0 54.309 0 54.309 4.212 56.685 4.212 56.685 7.371 54.309 7.371 54.309 15.984 56.604 15.984 56.604 19.143 50.934 19.143 50.934 7.371 48.248 7.371 47.639 7.371 45.872 7.371 45.872 15.984 48.167 15.984 48.167 19.143"/>
    <polygon fill="#333" points="75.962 4.212 75.962 19.143 79.364 19.143 79.364 7.371 84.953 7.371 84.953 4.212"/>
    <path fill="#333" d="M85.398 14.769C85.398 17.388 87.774 19.548 90.96 19.548 93.984 19.548 96.468 17.415 96.468 14.769 96.468 11.2904 93.7631 10.5963 91.7698 10.0848L91.716 10.071C90.366 9.72 89.07 9.45 89.07 8.343 89.07 7.425 89.988 6.885 91.068 6.885 92.121 6.885 93.066 7.452 93.066 8.451L96.441 8.478C96.441 5.832 94.011 3.807 91.068 3.807 88.017 3.807 85.695 5.805 85.695 8.37 85.695 11.097 87.693 12.258 90.501 12.96 91.851 13.311 93.174 13.581 93.174 14.823 93.174 15.795 92.337 16.443 91.014 16.443 89.772 16.443 88.8 15.741 88.773 14.769L85.398 14.769zM22.126 11.664C22.126 16.038 25.258 19.548 29.497 19.548 31.9 19.548 33.844 18.576 35.14 16.227L35.248 16.227 35.248 19.143 38.542 19.143 38.542 4.212 35.248 4.212 35.248 7.182 35.14 7.182C34.195 5.211 32.143 3.78 29.497 3.78 25.258 3.78 22.126 7.29 22.126 11.664zM30.199 16.362C32.899 16.362 34.762 14.337 34.762 11.664 34.762 8.964 32.899 6.966 30.199 6.966 27.526 6.966 25.69 8.964 25.69 11.664 25.69 14.337 27.526 16.362 30.199 16.362zM65.878 19.548C61.315 19.548 57.751 15.984 57.751 11.61 57.751 7.236 61.315 3.807 65.878 3.807 70.441 3.807 74.005 7.236 74.005 11.718 74.005 11.961 73.978 12.393 73.897 12.798L61.369 12.798C61.747 14.85 63.664 16.389 65.932 16.389 67.714 16.389 69.199 15.552 69.901 14.04L73.627 14.04C72.574 17.253 69.604 19.548 65.878 19.548zM70.252 10.233L61.423 10.233C61.666 8.343 63.448 6.966 65.824 6.966 68.2 6.966 69.955 8.451 70.252 10.233z"/>
    <mask id="group-2-b" fill="#fff">
      <use xlink:href="#group-2-a"/>
    </mask>
    <g mask="url(#group-2-b)">
      <g transform="translate(-3)">
        <path fill="#880082" d="M0,16.1952 C0,17.8214 1.2935,19.1399 2.888889,19.1399 L23.1111,19.1399 C24.7065,19.1399 26,17.8214 26,16.1952 L26,15.8271 L0,15.8271 L0,16.1952 Z"/>
        <polygon fill="#3558A0" points="0 12.567 26 12.567 26 15.953 0 15.953"/>
        <polygon fill="#138F3E" points="0 9.445 26 9.445 26 12.758 0 12.758"/>
        <polygon fill="#FAD220" points="0 6.257 26 6.257 26 9.57 0 9.57"/>
        <polygon fill="#FF5000" points="0 3.07 26 3.07 26 6.383 0 6.383"/>
        <path fill="#FF000E" d="M23.1111,0 L2.888889,0 C1.2935,0 0,1.31848 0,2.94468 L0,3.18762 L26,3.18762 L26,2.94468 C26,1.31848 24.7065,0 23.1111,0 Z"/>
      </g>
    </g>
  </g>
</svg>
