<svg xmlns="http://www.w3.org/2000/svg" width="16" height="16" viewBox="0 0 16 16">
    <g fill="none" fill-rule="evenodd">
        <path d="M0 0h16v16H0z"/>
        <g stroke="#444">
            <path d="M11.5 5.813v3.083a3 3 0 0 1-1.05 2.28L8 13.271l-2.45-2.097A3 3 0 0 1 4.5 8.896V5.813"/>
            <path d="M11.5 2.75v2.795a3 3 0 0 1-1.024 2.258L8 9.969 5.524 7.803A3 3 0 0 1 4.5 5.545V2.75"/>
            <path d="M11.5 1v1.197a3 3 0 0 1-1.108 2.328L8 6.47 5.608 4.525A3 3 0 0 1 4.5 2.197V1M8 1v14"/>
        </g>
    </g>
</svg>
