<svg xmlns="http://www.w3.org/2000/svg" width="16" height="16" viewBox="0 0 16 16">
  <path fill-rule="nonzero" d="M7.86784659,10.6299965 L14.7484454,10.6299965 L14.7484454,12.0372638 L7.86784659,12.0372638 L7.86784659,10.6299965 Z M12.1684554,15.2211217 L12.1684554,7.44613858 L16.055947,11.3336301 L12.1684554,15.2211217 Z M11.6527042,2.90871776 C11.3167598,2.57225728 10.7727924,2.57225728 10.43595,2.90909976 L3.6539847,9.691065 L2.85487228,11.7375851 L4.86742933,10.9100159 L11.6536417,4.12380372 C11.9751796,3.80177117 11.988597,3.28800485 11.6938938,2.94997069 L11.6527042,2.90871776 Z M11.8680214,1.40340001 L11.9591606,1.22112174 L12.6494946,1.91251775 C13.5335867,2.79797002 13.5335867,4.23267452 12.6491123,5.11850938 L5.66325129,12.1043704 L1.41633863,13.8507131 L0.808902067,13.1082906 L2.45037126,8.90450199 L9.44086171,1.91401152 C10.0975581,1.25731517 11.0555135,1.08705958 11.8680214,1.40340001 Z"/>
</svg>
