<svg xmlns="http://www.w3.org/2000/svg" width="24" height="24" viewBox="0 0 24 24">
    <g fill="none" fill-rule="evenodd">
        <path d="M0 0h24v24H0z"/>
        <path stroke="#444" stroke-width="1.5" d="M12 4.636a5.056 5.056 0 0 1 5.056 5.056v3.183a8.57 8.57 0 0 0 1.444 4.761h-13a8.312 8.312 0 0 0 1.444-4.682V9.692A5.056 5.056 0 0 1 12 4.636z"/>
        <path fill="#444" d="M12.068 3c.452 0 .818.366.818.818v.818H11.25v-.818c0-.452.366-.818.818-.818zM10.25 19.5a1.75 1.75 0 0 0 3.5 0h-3.5z"/>
    </g>
</svg>
