<svg xmlns="http://www.w3.org/2000/svg" width="24" height="24" viewBox="0 0 24 24">
  <path  d="M13.7543399,6.87999994 L12.4345962,6.87999989 C10.6614385,6.87904517 8.96063051,7.58300652 7.70681852,8.83681852 C6.45300652,10.0906305 5.74904517,11.7914385 5.74999989,13.5654038 C5.74904517,15.3385615 6.45300652,17.0393695 7.70681852,18.2931815 C8.96063051,19.5469935 10.6614385,20.2509548 12.4354038,20.2500001 C14.2085615,20.2509548 15.9093695,19.5469935 17.1631815,18.2931815 C18.4169935,17.0393695 19.1209548,15.3385615 19.1200001,13.5654038 L20.6199999,13.5645962 C20.621169,15.7358584 19.7591561,17.8185272 18.2238417,19.3538417 C16.6885272,20.8891561 14.6058584,21.751169 12.4354038,21.7499999 C10.2641416,21.751169 8.18147281,20.8891561 6.64615835,19.3538417 C5.11084388,17.8185272 4.24883103,15.7358584 4.25000011,13.5654038 C4.24883103,11.3941416 5.11084388,9.31147281 6.64615835,7.77615835 C8.18147281,6.24084388 10.2641416,5.37883103 12.435,5.38 L13.7543398,5.38 L11.9046699,3.53033009 L12.9653301,2.46966991 L16.6256602,6.13 L12.9653301,9.79033009 L11.9046699,8.72966991 L13.7543399,6.87999994 Z"/>
</svg>
