<svg xmlns="http://www.w3.org/2000/svg" width="24" height="24" viewBox="0 0 24 24">
  <path d="M15.5236266,7.47637343 C13.2926897,5.24543661 9.68077829,5.22884016 7.42943414,7.43918124 C5.95456891,8.88718519 5.37032971,11.015356 5.89915637,13.0134264 C6.42798302,15.0114968 7.98850321,16.572017 9.9865736,17.1008436 C11.984644,17.6296703 14.1128148,17.0454311 15.5608188,15.5705659 C17.7711598,13.3192217 17.7545634,9.70731025 15.5236266,7.47637343 Z M9.60278517,18.5509148 C7.08347903,17.8841334 5.11586662,15.916521 4.44908518,13.3972148 C3.78230375,10.8779087 4.51895317,8.19456286 6.37856586,6.36881876 C9.21721717,3.58186696 13.7713664,3.60279292 16.5842867,6.41571326 C19.3972071,9.2286336 19.418133,13.7827828 16.6311812,16.6214341 C14.8054371,18.4810468 12.1220913,19.2176963 9.60278517,18.5509148 Z M19.7803301,18.7196699 L18.7196699,19.7803301 L15.7856699,16.8463301 L16.8463301,15.7856699 L19.7803301,18.7196699 Z M18.7196699,19.7803301 L15.7856699,16.8463301 L16.8463301,15.7856699 L19.7803301,18.7196699 L18.7196699,19.7803301 Z"/>
</svg>
