<svg xmlns="http://www.w3.org/2000/svg" width="16" height="16" viewBox="0 0 16 16">
  <path fill="#45AEDB" fill-rule="evenodd" d="M16,3.56 C15.3970285,3.80644746 14.7625477,3.96733967 14.115,4.038 C14.786001,3.67612088 15.2998333,3.07932054 15.558,2.362 C14.924,2.709 14.222,2.962 13.473,3.097 C12.8303344,2.47687511 11.9700394,2.13361885 11.077,2.141 C9.265,2.141 7.796,3.497 7.796,5.171 C7.796,5.407 7.825,5.639 7.88,5.861 C5.152,5.734 2.734,4.528 1.115,2.696 C0.824933996,3.15105575 0.670571281,3.67935781 0.67,4.219 C0.67,5.269 1.25,6.197 2.13,6.739 C1.61271428,6.72511573 1.10504523,6.59597784 0.644,6.361 L0.644,6.4 C0.644,7.868 1.774,9.092 3.276,9.37 C2.7913599,9.49264508 2.286163,9.51071217 1.794,9.423 C2.211,10.626 3.424,11.502 4.86,11.527 C3.67143534,12.377769 2.2446549,12.831665 0.783,12.824 C0.519,12.824 0.257,12.809 0,12.781 C1.52457474,13.6776954 3.2622837,14.1477852 5.031,14.142 C11.068,14.142 14.371,9.527 14.371,5.524 C14.371,5.392 14.367,5.262 14.361,5.132 C15.003,4.702 15.561,4.17 16,3.562 L16,3.56 Z"/>
</svg>
