<svg xmlns="http://www.w3.org/2000/svg" width="389" height="389" viewBox="0 0 389 389">
  <path fill="#2E963D" d="M11.03,-0.1 L378.47,-0.1 L378.47,41.3 L11.03,41.3 L11.03,-0.1 Z M346.53,246.3 L346.53,84.47 L42.97,84.47 L42.97,246.3 L346.53,246.3 Z M87,125.84 L302.96,125.84 L302.96,204.94 L87,204.94 L87,125.84 Z M280.86,339.54 C294.06,319.34 306.54,295.88 318.09,269.26 L273.93,253.16 C262.45,284.71 249.07,313.55 233.86,339.55 L157.01,339.55 C144.26,305.84 129.89,277.02 113.77,253.16 L73.16,269.26 C89.91,294.39 103.41,317.79 113.77,339.55 L0.63,339.55 L0.63,380.49 L388.87,380.49 L388.87,339.55 L280.87,339.55 L280.86,339.54 Z"/>
</svg>
