<svg xmlns="http://www.w3.org/2000/svg" xmlns:xlink="http://www.w3.org/1999/xlink" width="16" height="16" viewBox="0 0 16 16">
    <defs>
        <path id="a" d="M32 0c17.673 0 32 14.327 32 32 0 17.673-14.327 32-32 32C14.327 64 0 49.673 0 32 0 14.327 14.327 0 32 0z"/>
    </defs>
    <g fill="none" fill-rule="evenodd">
        <use fill="#DEF3ED" xlink:href="#a"/>
        <use fill="#ECF6F1" xlink:href="#a"/>
        <use fill="#F2FAF7" xlink:href="#a"/>
        <use fill="#F3FAED" xlink:href="#a"/>
        <use fill="#F2FAF8" xlink:href="#a"/>
        <g fill-rule="nonzero">
            <circle cx="32" cy="32" r="32" fill="#45AEDB"/>
            <path fill="#FFF" d="M45 24.5a10.65 10.65 0 0 1-3.063.84 5.35 5.35 0 0 0 2.345-2.95 10.656 10.656 0 0 1-3.388 1.294A5.326 5.326 0 0 0 37.001 22a5.333 5.333 0 0 0-5.333 5.334c0 .417.047.824.137 1.215a15.145 15.145 0 0 1-10.993-5.572 5.308 5.308 0 0 0-.723 2.682 5.33 5.33 0 0 0 2.373 4.438 5.31 5.31 0 0 1-2.416-.666v.067a5.336 5.336 0 0 0 4.278 5.23 5.413 5.413 0 0 1-2.41.093 5.34 5.34 0 0 0 4.983 3.703A10.7 10.7 0 0 1 19 40.732a15.094 15.094 0 0 0 8.176 2.398c9.81 0 15.175-8.127 15.175-15.176 0-.231-.005-.46-.016-.69A10.868 10.868 0 0 0 45 24.5z"/>
        </g>
    </g>
</svg>
