<svg xmlns="http://www.w3.org/2000/svg" width="16" height="17" viewBox="0 0 16 17">
  <path fill="#C94C4C" d="M11.768,8.551 C11.548,8.489 11.398,8.445 11.513,8.168 C11.763,7.566 11.788,7.046 11.518,6.675 C11.008,5.982 9.618,6.018 8.024,6.658 C8.024,6.656 7.521,6.868 7.649,6.488 C7.896,5.731 7.859,5.1 7.476,4.734 C6.611,3.906 4.309,4.766 2.337,6.654 C0.857,8.067 0,9.567 0,10.863 C0,13.34 3.322,15 6.574,15 C10.834,15 13.668,12.481 13.668,10.6 C13.668,9.464 12.668,8.818 11.768,8.551 Z M6.581,13.887 C3.989,14.131 1.75,13.023 1.582,11.412 C1.415,9.801 3.379,8.303 5.972,8.06 C8.564,7.817 10.806,8.927 10.973,10.535 C11.141,12.144 9.176,13.647 6.581,13.887 Z M16,6.533 C15.965,4 13.806,1.971 11.176,2.001 C10.9732799,1.98664516 10.7788787,2.08403751 10.669,2.255 C10.562418,2.4228428 10.562418,2.6371572 10.669,2.805 C10.7791271,2.97558089 10.9734818,3.07256658 11.176,3.058 C13.194,3.035 14.849,4.592 14.876,6.536 C14.884,6.829 15.133,7.062 15.438,7.062 C15.736645,7.06721515 15.9854621,6.83433654 16,6.536 L16,6.533 Z M13.763,6.456 C13.49,5.262 12.507,4.338 11.261,4.103 C10.9646335,4.03930907 10.6709289,4.22127343 10.596,4.515 C10.5675049,4.65421239 10.5979124,4.79900998 10.68,4.915 C10.762,5.032 10.89,5.113 11.033,5.139 C11.843,5.292 12.482,5.892 12.661,6.669 C12.727,6.958 13.024,7.142 13.325,7.079 C13.4681732,7.05455329 13.5958245,6.97436673 13.68,6.856 C13.7620783,6.74000623 13.7921518,6.59507402 13.763,6.456 Z M5.252,9.637 C4.207,9.835 3.502,10.658 3.677,11.475 C3.852,12.291 4.842,12.797 5.887,12.599 C6.931,12.402 7.637,11.579 7.461,10.762 C7.286,9.945 6.297,9.44 5.251,9.637 L5.252,9.637 Z"/>
</svg>
