<svg xmlns="http://www.w3.org/2000/svg" width="16" height="16" viewBox="0 0 16 16">
    <g fill="none" fill-rule="evenodd">
        <path d="M0 0h16v16H0z"/>
        <path fill="#00AC2D" d="M.916 11.72l4.057-4.057v7.744a8.03 8.03 0 0 1-4.057-3.686zm-.294-.623C.222 10.145 0 9.098 0 8c0-.828.126-1.627.36-2.378h5.738L.622 11.097zm5 4.544V9.902l5.475 5.476c-.952.4-1.999.622-3.097.622a7.998 7.998 0 0 1-2.378-.36zm6.099-.557l-4.058-4.057h7.744a8.03 8.03 0 0 1-3.686 4.057zm3.92-4.706H9.902l5.476-5.475c.4.952.622 1.999.622 3.097 0 .828-.126 1.627-.36 2.378zm-.557-6.099l-4.057 4.058V.593a8.03 8.03 0 0 1 4.057 3.686zM10.378.36v5.739L4.903.622C5.855.222 6.902 0 8 0c.828 0 1.627.126 2.378.36zM4.28.916l4.058 4.057H.593A8.03 8.03 0 0 1 4.279.916z"/>
    </g>
</svg>
