<svg xmlns="http://www.w3.org/2000/svg" xmlns:xlink="http://www.w3.org/1999/xlink" width="16" height="16" viewBox="0 0 16 16">
    <defs>
        <path id="a" d="M32 0c17.673 0 32 14.327 32 32 0 17.673-14.327 32-32 32C14.327 64 0 49.673 0 32 0 14.327 14.327 0 32 0z"/>
    </defs>
    <g fill="none" fill-rule="evenodd">
        <mask id="b" fill="#fff">
            <use xlink:href="#a"/>
        </mask>
        <use fill="#DEF3ED" xlink:href="#a"/>
        <use fill="#ECF6F1" xlink:href="#a"/>
        <use fill="#F2FAF7" xlink:href="#a"/>
        <use fill="#F3FAED" xlink:href="#a"/>
        <use fill="#F2FAF8" xlink:href="#a"/>
        <g fill-rule="nonzero" mask="url(#b)">
            <path fill="#4A6992" d="M60.468 64A3.532 3.532 0 0 0 64 60.468V3.532A3.532 3.532 0 0 0 60.468 0H3.532A3.532 3.532 0 0 0 0 3.532v56.936A3.532 3.532 0 0 0 3.532 64h56.936"/>
            <path fill="#FFF" d="M34.438 47V34.228h4.287l.642-4.978h-4.929v-3.178c0-1.44.4-2.423 2.467-2.423l2.636-.001v-4.452c-.456-.06-2.02-.196-3.84-.196-3.801 0-6.403 2.32-6.403 6.58v3.67H25v4.978h4.298V47h5.14"/>
        </g>
    </g>
</svg>
