<svg xmlns="http://www.w3.org/2000/svg" width="16" height="16" viewBox="0 0 16 16">
    <g fill="none" fill-rule="evenodd">
        <path fill="#C94C4C" d="M32 0c17.673 0 32 14.327 32 32 0 17.673-14.327 32-32 32C14.327 64 0 49.673 0 32 0 14.327 14.327 0 32 0z"/>
        <path fill="#FFF" d="M38.594 31.9c-.385-.113-.647-.192-.446-.695.438-1.094.481-2.039.009-2.712-.893-1.26-3.325-1.194-6.115-.03 0-.005-.88.38-.657-.311.433-1.374.368-2.52-.301-3.185-1.514-1.505-5.543.057-8.994 3.486C19.5 31.021 18 33.746 18 36.1c0 4.5 5.813 7.515 11.504 7.515 7.454 0 12.415-4.576 12.415-7.992 0-2.065-1.75-3.237-3.325-3.723zm-9.076 9.694c-4.537.442-8.456-1.57-8.75-4.497-.292-2.926 3.146-5.647 7.682-6.089 4.536-.442 8.46 1.575 8.753 4.497.293 2.922-3.145 5.651-7.685 6.089zM46 28.234a8.343 8.343 0 0 0-8.442-8.232.962.962 0 1 0 0 1.92 6.4 6.4 0 0 1 6.474 6.317.985.985 0 0 0 1.968 0v-.004zm-3.915-.14a5.578 5.578 0 0 0-4.379-4.273.986.986 0 0 0-1.163.748.962.962 0 0 0 .765 1.133 3.63 3.63 0 0 1 2.848 2.778.982.982 0 0 0 1.163.748.958.958 0 0 0 .766-1.133zm-14.895 5.78c-1.828.358-3.062 1.854-2.755 3.337.306 1.483 2.038 2.401 3.867 2.043 1.828-.36 3.062-1.855 2.755-3.338-.306-1.483-2.038-2.402-3.867-2.043z"/>
    </g>
</svg>
