<svg xmlns="http://www.w3.org/2000/svg" width="16" height="16" viewBox="0 0 16 16">
    <g fill="none" fill-rule="evenodd">
        <path d="M0 0h16v16H0z"/>
        <path fill="#00AC2D" fill-rule="nonzero" d="M12.761 8.865a.656.656 0 1 0-.001-1.312.656.656 0 0 0 .001 1.312zm-3.2 0a.656.656 0 1 0-.001-1.312.656.656 0 0 0 .001 1.312zm3.525 4.468a.34.34 0 0 0-.27-.031 5.673 5.673 0 0 1-1.645.24c-2.667 0-4.829-1.808-4.829-4.039 0-2.23 2.162-4.039 4.83-4.039 2.666 0 4.828 1.809 4.828 4.04 0 1.231-.66 2.335-1.7 3.075a.247.247 0 0 0-.095.264l.227.87c.068.26-.066.362-.298.228l-1.048-.608zM3.846 10.4a.468.468 0 0 0-.37.045l-1.242.727c-.274.161-.432.04-.35-.267l.273-1.02a.345.345 0 0 0-.133-.37C.785 8.628 0 7.311 0 5.841 0 3.167 2.598 1 5.802 1 8.7 1 11.1 2.77 11.534 5.085a6.505 6.505 0 0 0-.305-.007c-2.933 0-5.31 1.972-5.31 4.406 0 .413.068.812.195 1.191a6.835 6.835 0 0 1-2.268-.275zM7.73 5.058a.772.772 0 1 0-.002-1.544.772.772 0 0 0 .002 1.544zm-3.875 0a.772.772 0 1 0-.002-1.544.772.772 0 0 0 .002 1.544z"/>
    </g>
</svg>
