<svg xmlns="http://www.w3.org/2000/svg" width="639" height="533" viewBox="0 0 639 533">
    <g fill="none" fill-rule="evenodd">
        <path fill="#FFF" d="M-180-871h1440v2500H-180z"/>
        <path fill="#F6F6F6" d="M15 177h608v16H15v-16zm0 30h608v16H15v-16zm0 30h608v16H15v-16zm0 30h608v16H15v-16zm0 30h608v16H15v-16zm0 30h336.5v16H15v-16zm0 40h608v16H15v-16zm0 30h608v16H15v-16zm0 30h608v16H15v-16zm0 30h608v16H15v-16zm0 30h608v16H15v-16zm0 30h336.5v16H15v-16zm1-441h450v24H16V76zm0 38h123v12H16v-12zM49 2h80v16H49V2zm0 20h417v16H49V22zM20 0c11.046 0 20 8.954 20 20s-8.954 20-20 20S0 31.046 0 20 8.954 0 20 0z"/>
    </g>
</svg>
