<svg xmlns="http://www.w3.org/2000/svg" width="375" height="631" viewBox="0 0 375 631">
    <path fill="#F6F6F6" fill-rule="evenodd" d="M219 288h140v77H219v-77zM40 382h130v14H40v-14zm146 0h114v14H186v-14zM40 322h142v14H40v-14zm0 24h142v14H40v-14zm-24-56h120v20H16v-20zm28-27h80v14H44v-14zm-18 17c-5.523 0-10-4.477-10-10s4.477-10 10-10 10 4.477 10 10-4.477 10-10 10zm30 314h68c8.837 0 16 7.163 16 16s-7.163 16-16 16H56c-8.837 0-16-7.163-16-16s7.163-16 16-16zm-16-83h142v14H40v-14zm0 24h142v14H40v-14zm0 24h107.5v14H40v-14zm179-114h140v186H219V445zM16 475h120v20H16v-20zm28-27h80v14H44v-14zm-18 17c-5.523 0-10-4.477-10-10s4.477-10 10-10 10 4.477 10 10-4.477 10-10 10zm14-268h130v14H40v-14zm146 0h114v14H186v-14zM40 137h225v14H40v-14zm0 24h225v14H40v-14zm-24-60h120v20H16v-20zm28-27h80v14H44V74zM26 91c-5.523 0-10-4.477-10-10s4.477-10 10-10 10 4.477 10 10-4.477 10-10 10zM16 0h87v28H16V0z"/>
</svg>
