<svg width="169" height="168" viewBox="0 0 169 168" fill="none" xmlns="http://www.w3.org/2000/svg">
<path d="M156.02 53.8941C161.713 53.8941 166.328 49.2794 166.328 43.5869C166.328 37.8945 161.713 33.2798 156.02 33.2798C150.328 33.2798 145.713 37.8945 145.713 43.5869C145.713 49.2794 150.328 53.8941 156.02 53.8941Z" fill="#DDDDDD"/>
<path d="M158.302 51.4566C152.611 51.4566 147.995 46.8411 147.995 41.1494C147.995 39.0361 148.63 37.0784 149.719 35.4319C147.282 37.3118 145.713 40.2678 145.713 43.5868C145.713 49.2785 150.329 53.894 156.02 53.894C159.599 53.894 162.749 52.0659 164.603 49.3044C162.866 50.6527 160.675 51.4566 158.302 51.4566Z" fill="#CECECE"/>
<path d="M37.2354 107.05C40.71 107.05 44.0809 106.558 47.2703 105.676C38.7653 104.237 25.3595 101.838 14.6893 99.4399C20.9514 104.211 28.7563 107.05 37.2354 107.05Z" fill="#DDDDDD"/>
<path d="M70.2182 52.5196C53.8435 45.4278 31.2715 40.916 16.997 38.5693C13.678 40.7215 10.7609 43.4053 8.28459 46.465C8.2457 46.8021 8.2068 47.1521 8.16791 47.5022C32.0364 49.81 58.835 59.4559 74.2633 65.7439C73.7447 61.0117 72.3445 56.5647 70.2312 52.5326L70.2182 52.5196Z" fill="#E2E2E2"/>
<path d="M7.49377 47.4116C7.71418 47.4375 7.94755 47.4634 8.16795 47.4893C8.20685 47.1393 8.24574 46.7892 8.28464 46.4521C8.02534 46.7763 7.74011 47.0874 7.49377 47.4116Z" fill="#CECECE"/>
<path d="M66.4973 46.8151C59.6777 38.1545 49.1113 32.5667 37.2354 32.5667C33.1774 32.5667 29.2879 33.2408 25.6447 34.4336C32.1531 34.8355 39.6598 35.9505 46.8035 38.5565C53.9732 41.1754 60.8187 44.1444 66.5103 46.8151H66.4973Z" fill="#DDDDDD"/>
<path d="M66.4973 46.8151C60.8057 44.1573 53.9602 41.1754 46.7906 38.5565C39.6469 35.9505 32.1531 34.8355 25.6318 34.4336C22.5591 35.4449 19.6549 36.8191 16.9841 38.5565C31.2586 40.9031 53.8306 45.4279 70.2053 52.5068C69.1422 50.4842 67.8846 48.5784 66.4844 46.8022L66.4973 46.8151Z" fill="#EDEDED"/>
<path d="M27.0838 95.0058C18.2936 93.0092 10.6831 90.5977 5.08228 88.6011C7.54562 92.8147 10.8128 96.5097 14.6893 99.4528C25.3724 101.851 38.7782 104.237 47.2703 105.689C52.1321 104.328 56.605 102.007 60.4427 98.9471C58.3683 98.9471 56.3068 98.8953 54.2584 98.8045C45.8441 99.5694 35.7574 99.1286 27.0838 95.0187V95.0058Z" fill="#E5E5E5"/>
<path d="M54.2584 98.7787C44.5995 98.3508 35.3295 96.8599 27.0838 94.9929C35.7574 99.1028 45.8311 99.5307 54.2584 98.7787Z" fill="#EFEFEF"/>
<path d="M1.71139 58.6133C1.23168 60.1172 0.868664 61.66 0.583435 63.2418C2.69672 64.2919 5.27675 65.368 8.1809 66.4571C7.92161 64.4994 7.75306 62.5546 7.67527 60.6228C5.48419 59.8838 3.47462 59.2097 1.71139 58.6133Z" fill="#CECECE"/>
<path d="M73.3687 78.8775C54.6214 75.7788 25.0353 66.4181 7.67523 60.6228C7.76599 62.5546 7.92157 64.4993 8.18087 66.457C27.8487 73.7693 62.5559 81.1593 72.0333 83.104C72.5519 81.7298 73.0057 80.3295 73.3687 78.8775Z" fill="#DDDDDD"/>
<path d="M60.4557 98.9212C60.9224 98.5453 61.3762 98.1433 61.8299 97.7544C59.5611 98.1693 57.007 98.5323 54.2714 98.7786C56.3198 98.8694 58.3813 98.9342 60.4557 98.9212Z" fill="#EFEFEF"/>
<path d="M15.6487 85.9044C11.1239 84.8931 6.26205 83.6226 2.21698 82.4946C2.99488 84.6209 3.95429 86.6564 5.08224 88.5882C10.6701 90.5977 18.2935 93.0092 27.0838 94.9929C24.05 93.5537 21.1977 91.6868 18.6436 89.2494C17.5416 88.1992 16.5562 87.0713 15.6487 85.8914V85.9044Z" fill="#DBDBDB"/>
<path d="M72.0333 83.104C62.5689 81.1463 27.8617 73.7693 8.18091 66.457C8.64765 69.8927 9.43851 73.3155 10.6313 76.5956C14.3263 77.6717 18.4621 78.7867 22.8572 79.8369C38.7393 83.6097 48.5538 87.2399 46.5313 89.2624C44.4958 91.2979 32.5939 88.9772 21.5607 87.0973C19.7327 86.7861 17.7231 86.3712 15.6487 85.9045C16.5563 87.0843 17.5416 88.2122 18.6436 89.2624C21.1977 91.6998 24.05 93.5668 27.0838 95.0059C35.3166 96.8728 44.5995 98.3508 54.2584 98.7917C56.994 98.5453 59.5481 98.1693 61.817 97.7674C66.3158 93.8131 69.8552 88.8086 72.0333 83.104Z" fill="#E8E8E8"/>
<path d="M0.583423 63.2417C0.207439 65.3809 0 67.572 0 69.8149C0 70.9947 0.0648248 72.1746 0.168545 73.3284C2.90415 74.249 6.49545 75.3899 10.6313 76.5956C9.43849 73.3155 8.64763 69.8927 8.18089 66.457C5.27674 65.3809 2.69671 64.3048 0.583423 63.2417Z" fill="#DBDBDB"/>
<path d="M8.15495 47.4892C7.93455 47.4632 7.70118 47.4373 7.48077 47.4114C4.96557 50.7563 2.9949 54.5291 1.71136 58.6001C3.46163 59.1965 5.4712 59.8837 7.67525 60.6097C7.46781 55.9164 7.72711 51.4046 8.15495 47.4762V47.4892Z" fill="#BABABA"/>
<path d="M74.4837 69.8149C74.4837 68.4277 74.4059 67.0664 74.2503 65.731C58.835 59.443 32.0234 49.797 8.15494 47.4893C7.71413 51.4176 7.45483 55.9294 7.67523 60.6228C25.0353 66.4181 54.6214 75.7788 73.3687 78.8774C74.0947 75.9733 74.4837 72.9395 74.4837 69.8149Z" fill="#C9C9C9"/>
<path d="M46.5313 89.2625C48.5668 87.227 38.7523 83.5968 22.8572 79.8369C18.4621 78.7997 14.3263 77.6718 10.6313 76.5957C11.837 79.9147 13.4706 83.0782 15.6487 85.9045C17.7231 86.3713 19.7327 86.7862 21.5608 87.0973C32.581 88.9772 44.4958 91.298 46.5313 89.2625Z" fill="#C6C6C6"/>
<path d="M0.168518 73.3284C0.466712 76.5178 1.16682 79.5904 2.21698 82.4946C6.26205 83.6225 11.1109 84.8931 15.6487 85.9044C13.4706 83.0651 11.837 79.9146 10.6312 76.5955C6.49542 75.3898 2.90413 74.2489 0.168518 73.3284Z" fill="#B7B7B7"/>
<path d="M130.674 158.34C145.739 158.34 157.952 146.127 157.952 131.061C157.952 115.996 145.739 103.783 130.674 103.783C115.608 103.783 103.396 115.996 103.396 131.061C103.396 146.127 115.608 158.34 130.674 158.34Z" fill="#EDEDED"/>
<path d="M136.703 151.87C121.637 151.87 109.424 139.657 109.424 124.592C109.424 119.004 111.11 113.805 114.001 109.475C107.544 114.466 103.396 122.271 103.396 131.062C103.396 146.127 115.609 158.34 130.674 158.34C140.151 158.34 148.488 153.504 153.376 146.179C148.76 149.744 142.991 151.87 136.716 151.87H136.703Z" fill="#DBDBDB"/>
<path d="M138.997 29.6236C138.868 29.6236 138.751 29.5847 138.634 29.5199C137.908 29.0402 137.195 28.5605 136.482 28.1067C136.184 27.9123 136.093 27.5103 136.288 27.2122C136.482 26.914 136.884 26.8232 137.182 27.0177C137.908 27.4844 138.634 27.9641 139.36 28.4438C139.659 28.6383 139.736 29.0402 139.542 29.3384C139.412 29.5199 139.218 29.6236 138.997 29.6236ZM49.2928 24.697C49.1113 24.697 48.9298 24.6192 48.8001 24.4636C48.5668 24.1913 48.6057 23.7764 48.8779 23.556C48.9039 23.5301 49.6299 22.9208 51.0172 21.9743C51.3153 21.7798 51.7173 21.8447 51.9117 22.1429C52.1192 22.441 52.0414 22.843 51.7432 23.0374C50.4208 23.945 49.7077 24.5414 49.7077 24.5414C49.591 24.6451 49.4354 24.697 49.2928 24.697ZM130.155 24.2043C130.052 24.2043 129.935 24.1784 129.844 24.1265C129.079 23.6987 128.327 23.2967 127.575 22.8948C127.264 22.7263 127.134 22.3373 127.303 22.0132C127.472 21.702 127.86 21.5724 128.185 21.7409C128.95 22.1429 129.714 22.5577 130.479 22.9856C130.791 23.1541 130.907 23.556 130.726 23.8672C130.609 24.0746 130.389 24.2043 130.155 24.2043ZM120.872 19.6017C120.782 19.6017 120.704 19.5888 120.613 19.5499C119.822 19.1998 119.018 18.8757 118.24 18.5516C117.903 18.4219 117.748 18.033 117.877 17.7088C118.007 17.3717 118.396 17.2162 118.72 17.3458C119.511 17.6699 120.315 18.007 121.132 18.3571C121.456 18.4997 121.611 18.8757 121.469 19.2128C121.365 19.4591 121.119 19.6017 120.872 19.6017ZM58.122 19.2646C57.8886 19.2646 57.6552 19.135 57.5385 18.9016C57.383 18.5775 57.5126 18.1885 57.8367 18.033C58.5887 17.6699 59.3796 17.294 60.2093 16.918C60.5334 16.7754 60.9224 16.918 61.065 17.2421C61.2076 17.5662 61.065 17.9552 60.7409 18.0978C59.9241 18.4608 59.1462 18.8238 58.4202 19.1868C58.3294 19.2387 58.2257 19.2517 58.1349 19.2517L58.122 19.2646ZM111.162 15.9845C111.162 15.9845 111.032 15.9845 110.967 15.9586C110.137 15.6993 109.308 15.4659 108.504 15.2325C108.154 15.1418 107.959 14.7788 108.05 14.4287C108.141 14.0786 108.504 13.8842 108.854 13.9749C109.684 14.2083 110.513 14.4546 111.356 14.7139C111.693 14.8176 111.888 15.1807 111.784 15.5178C111.693 15.79 111.447 15.9715 111.162 15.9715V15.9845ZM67.7549 15.427C67.4827 15.427 67.2234 15.2455 67.1326 14.9732C67.0289 14.6361 67.2234 14.2731 67.5604 14.1564C68.3772 13.9101 69.207 13.6638 70.0757 13.4304C70.4257 13.3396 70.7758 13.5471 70.8665 13.8842C70.9573 14.2342 70.7498 14.5843 70.4127 14.675C69.57 14.8954 68.7403 15.1418 67.9494 15.3881C67.8846 15.414 67.8197 15.414 67.7549 15.414V15.427ZM101.088 13.5341C101.088 13.5341 101.01 13.5341 100.971 13.5341C100.115 13.3785 99.2727 13.2489 98.43 13.1322C98.08 13.0803 97.8336 12.7562 97.8855 12.3932C97.9374 12.0431 98.2615 11.7968 98.6245 11.8487C99.4802 11.9654 100.336 12.108 101.205 12.2636C101.555 12.3284 101.788 12.6655 101.736 13.0155C101.684 13.3267 101.412 13.5471 101.101 13.5471L101.088 13.5341ZM77.8546 13.1322C77.5435 13.1322 77.2582 12.8988 77.2193 12.5747C77.1675 12.2247 77.4138 11.8876 77.7639 11.8357C78.6066 11.7061 79.4753 11.6023 80.3569 11.4986C80.7199 11.4597 81.031 11.719 81.0699 12.0691C81.1088 12.4191 80.8495 12.7433 80.4995 12.7822C79.6308 12.8729 78.7881 12.9896 77.9454 13.1063C77.9195 13.1063 77.8806 13.1063 77.8546 13.1063V13.1322ZM90.7807 12.4321C90.7807 12.4321 90.7677 12.4321 90.7548 12.4321C89.8861 12.4062 89.0304 12.3802 88.1877 12.3802C87.8247 12.3802 87.5395 12.095 87.5395 11.732C87.5395 11.369 87.8247 11.0837 88.1877 11.0837C89.0434 11.0837 89.925 11.0967 90.8066 11.1356C91.1697 11.1486 91.4419 11.4468 91.4289 11.8098C91.4289 12.1598 91.1307 12.4321 90.7807 12.4321Z" fill="#BABABA"/>
<path d="M154.335 104.639C154.218 104.639 154.102 104.613 153.998 104.548C153.687 104.367 153.596 103.965 153.777 103.653C154.218 102.902 154.646 102.163 155.048 101.424C155.217 101.112 155.618 100.996 155.93 101.164C156.241 101.333 156.357 101.735 156.189 102.046C155.774 102.798 155.346 103.563 154.892 104.315C154.776 104.522 154.555 104.626 154.335 104.626V104.639ZM158.95 95.3689C158.873 95.3689 158.795 95.3559 158.704 95.317C158.367 95.1874 158.211 94.8114 158.341 94.4743C158.665 93.6705 158.963 92.8666 159.249 92.0758C159.365 91.7387 159.741 91.5572 160.078 91.6868C160.416 91.8035 160.597 92.1795 160.467 92.5166C160.182 93.3204 159.871 94.1372 159.547 94.967C159.443 95.2263 159.197 95.3689 158.95 95.3689ZM161.984 85.4636C161.984 85.4636 161.894 85.4636 161.842 85.4507C161.492 85.3729 161.271 85.0358 161.349 84.6857C161.531 83.8301 161.699 82.9873 161.829 82.1705C161.894 81.8205 162.231 81.5871 162.581 81.639C162.931 81.7038 163.177 82.0279 163.112 82.3909C162.97 83.2337 162.801 84.0894 162.62 84.971C162.555 85.2692 162.282 85.4896 161.984 85.4896V85.4636ZM163.255 75.1824C163.255 75.1824 163.242 75.1824 163.229 75.1824C162.866 75.1824 162.594 74.8713 162.607 74.5083C162.62 73.9248 162.633 73.3544 162.633 72.8098C162.633 72.5116 162.633 72.2264 162.633 71.9542C162.633 71.5911 162.918 71.3059 163.268 71.2929C163.657 71.28 163.916 71.5782 163.929 71.9282C163.929 72.2135 163.929 72.5116 163.929 72.8098C163.929 73.3673 163.929 73.9508 163.903 74.5471C163.903 74.8972 163.605 75.1695 163.255 75.1695V75.1824ZM162.542 64.8494C162.231 64.8494 161.958 64.6289 161.906 64.3178C161.621 62.749 161.349 61.8674 161.349 61.8674C161.245 61.5303 161.44 61.1673 161.777 61.0636C162.114 60.9599 162.477 61.1543 162.581 61.4914C162.581 61.5303 162.866 62.4379 163.164 64.0974C163.229 64.4474 162.996 64.7845 162.645 64.8494C162.607 64.8494 162.568 64.8494 162.529 64.8494H162.542Z" fill="#BABABA"/>
<path d="M96.3037 143.754C95.9537 143.754 95.6685 143.482 95.6555 143.119C95.6555 142.756 95.9278 142.458 96.2908 142.458C97.9244 142.419 98.8449 142.354 98.8578 142.354C99.2079 142.315 99.5191 142.6 99.545 142.95C99.5709 143.313 99.2986 143.611 98.9486 143.637C98.9486 143.637 98.0151 143.702 96.3297 143.754H96.3167H96.3037ZM88.5248 143.715C88.5248 143.715 88.5118 143.715 88.4988 143.715C87.6691 143.689 86.8004 143.65 85.8929 143.611C85.5299 143.598 85.2576 143.287 85.2835 142.937C85.2965 142.574 85.6206 142.315 85.9577 142.328C86.8523 142.38 87.7209 142.406 88.5377 142.432C88.9007 142.432 89.173 142.743 89.16 143.106C89.16 143.456 88.8618 143.728 88.5118 143.728L88.5248 143.715ZM78.1658 143.002C78.1658 143.002 78.1139 143.002 78.1009 143.002C77.2582 142.911 76.3896 142.808 75.5079 142.704C75.1579 142.665 74.8986 142.341 74.9505 141.978C74.9893 141.628 75.3264 141.368 75.6765 141.42C76.5451 141.524 77.4008 141.628 78.2435 141.719C78.5936 141.757 78.8529 142.069 78.814 142.432C78.7751 142.769 78.5028 143.015 78.1658 143.015V143.002ZM67.8975 141.511C67.8975 141.511 67.8197 141.511 67.7808 141.511C66.9381 141.356 66.0824 141.187 65.2267 141.005C64.8767 140.928 64.6563 140.591 64.7211 140.241C64.7989 139.89 65.136 139.657 65.486 139.735C66.3417 139.916 67.1844 140.085 68.0142 140.241C68.3642 140.305 68.5976 140.642 68.5328 140.992C68.4809 141.304 68.2087 141.524 67.8975 141.524V141.511ZM57.7978 139.151C57.7978 139.151 57.6811 139.151 57.6163 139.126C56.7865 138.892 55.9438 138.633 55.1141 138.374C54.777 138.27 54.5825 137.907 54.6862 137.557C54.7899 137.22 55.153 137.025 55.503 137.129C56.3198 137.388 57.1496 137.635 57.9663 137.868C58.3164 137.972 58.5109 138.322 58.4072 138.672C58.3294 138.957 58.0701 139.139 57.7848 139.139L57.7978 139.151ZM47.9963 135.768C47.9185 135.768 47.8277 135.755 47.75 135.716C46.9461 135.379 46.1423 135.042 45.3514 134.679C45.0273 134.536 44.8847 134.147 45.0273 133.823C45.1699 133.499 45.5589 133.356 45.883 133.499C46.6609 133.849 47.4518 134.199 48.2426 134.523C48.5797 134.653 48.7353 135.042 48.5927 135.366C48.489 135.612 48.2426 135.768 47.9963 135.768ZM38.7134 131.152C38.5967 131.152 38.493 131.126 38.3893 131.061C37.6373 130.621 36.8983 130.154 36.1722 129.674C35.8741 129.48 35.7833 129.078 35.9778 128.78C36.1722 128.481 36.5742 128.391 36.8724 128.585C37.5854 129.052 38.3115 129.506 39.0505 129.933C39.3616 130.115 39.4653 130.517 39.2709 130.828C39.1542 131.035 38.9338 131.139 38.7134 131.139V131.152ZM30.3121 125.123C30.1565 125.123 30.0139 125.072 29.8842 124.968C29.223 124.397 28.5748 123.801 27.9525 123.205C27.6932 122.958 27.6802 122.543 27.9395 122.284C28.1858 122.025 28.6007 122.012 28.86 122.271C29.4823 122.867 30.1046 123.438 30.7529 123.995C31.0252 124.229 31.0511 124.644 30.8177 124.916C30.6881 125.059 30.5066 125.136 30.325 125.136L30.3121 125.123ZM23.2462 117.565C23.0517 117.565 22.8572 117.474 22.7276 117.306C22.209 116.605 21.7033 115.892 21.2107 115.166C21.0162 114.868 21.094 114.466 21.3922 114.272C21.6904 114.077 22.0923 114.155 22.2868 114.453C22.7665 115.166 23.2591 115.853 23.7648 116.541C23.9852 116.826 23.9204 117.228 23.6351 117.448C23.5184 117.539 23.3758 117.578 23.2462 117.578V117.565Z" fill="#BABABA"/>
<path d="M133.643 130.776L141.889 122.53C142.628 121.791 142.628 120.586 141.889 119.847C141.15 119.108 139.944 119.108 139.205 119.847L130.959 128.092L122.713 119.847C121.974 119.108 120.769 119.108 120.03 119.847C119.291 120.586 119.291 121.791 120.03 122.53L128.275 130.776L120.03 139.022C119.291 139.761 119.291 140.967 120.03 141.706C120.406 142.082 120.885 142.263 121.365 142.263C121.845 142.263 122.337 142.082 122.7 141.706L130.946 133.46L139.192 141.706C139.568 142.082 140.048 142.263 140.527 142.263C141.007 142.263 141.5 142.082 141.863 141.706C142.602 140.967 142.602 139.761 141.863 139.022L133.617 130.776H133.643Z" fill="#BABABA"/>
<path d="M71.9426 130.88L53.2342 136.844C51.9506 137.246 51.6395 138.62 52.6378 139.398L68.2087 151.39C69.583 152.454 71.774 151.352 71.2684 149.861L68.9347 143.041C68.5328 141.874 68.7402 140.63 69.4922 139.592L74.2115 133.097C75.119 131.852 73.6021 130.348 71.9556 130.88H71.9426Z" fill="#E2E2E2"/>
<path d="M156.033 85.2043L157.096 96.9376C157.174 97.7414 157.926 98.1044 158.51 97.6247L167.559 90.0661C168.363 89.4049 168 87.9788 167.054 88.0825L162.762 88.5622C162.023 88.64 161.323 88.3677 160.817 87.7843L157.628 84.18C157.019 83.4799 155.943 84.18 156.033 85.2172V85.2043Z" fill="#E2E2E2"/>
<path d="M104.031 17.6309L112.782 16.1269C113.379 16.0232 113.612 15.4268 113.21 15.0249L106.987 8.67208C106.442 8.11459 105.392 8.46464 105.522 9.16475L106.144 12.3671C106.248 12.9116 106.079 13.4562 105.677 13.871L103.162 16.477C102.682 16.9826 103.266 17.7476 104.031 17.6179V17.6309Z" fill="#E2E2E2"/>
<path d="M151.677 47.23C152.243 47.23 152.701 46.4812 152.701 45.5575C152.701 44.6338 152.243 43.885 151.677 43.885C151.111 43.885 150.653 44.6338 150.653 45.5575C150.653 46.4812 151.111 47.23 151.677 47.23Z" fill="#9E9E9E"/>
<path d="M159.43 47.23C159.996 47.23 160.454 46.4812 160.454 45.5575C160.454 44.6338 159.996 43.885 159.43 43.885C158.864 43.885 158.406 44.6338 158.406 45.5575C158.406 46.4812 158.864 47.23 159.43 47.23Z" fill="#9E9E9E"/>
</svg>
