<svg width="320" height="54" viewBox="0 0 320 54" fill="none" xmlns="http://www.w3.org/2000/svg">
<g clip-path="url(#clip0_1298_4640)">
<path fill-rule="evenodd" clip-rule="evenodd" d="M52.9268 50.936C66.0814 50.936 76.7432 40.1337 76.7432 26.8083C76.7432 13.483 66.0814 2.68066 52.9268 2.68066C39.7723 2.68066 29.1105 13.483 29.1105 26.8083C29.1105 40.1337 39.7723 50.936 52.9268 50.936Z" fill="url(#paint0_linear_1298_4640)"/>
<path fill-rule="evenodd" clip-rule="evenodd" d="M26.4644 53.617C41.0804 53.617 52.9288 41.6149 52.9288 26.8085C52.9288 12.0021 41.0804 0 26.4644 0C11.8485 0 0 12.0021 0 26.8085C0 41.6149 11.8465 53.617 26.4644 53.617Z" fill="url(#paint1_linear_1298_4640)"/>
<path fill-rule="evenodd" clip-rule="evenodd" d="M307.138 49.6836C299.698 49.6836 294.141 44.6598 294.141 38.5657H302.023C302.091 40.8277 304.351 42.4504 307.256 42.4504C310.348 42.4504 312.301 40.9491 312.301 38.6871C312.301 35.8039 309.209 35.1645 306.049 34.3532C299.491 32.7123 294.82 30.0193 294.82 23.6844C294.82 17.7279 300.239 13.0662 307.375 13.0662C314.511 13.0662 319.93 17.7784 319.93 23.9252L312.048 23.8564C312.048 21.5256 309.84 20.2145 307.375 20.2145C304.91 20.2145 302.702 21.475 302.702 23.5974C302.702 26.169 305.726 26.7922 308.886 27.6197C313.559 28.8114 319.996 30.3815 319.996 38.5474C320.014 44.7286 314.202 49.6836 307.136 49.6836H307.138ZM273.518 48.5445V13.8431H294.143V21.1796H281.317V48.5263H273.518V48.5445ZM240.899 27.9475H261.524C260.827 23.5792 256.734 19.9373 251.179 19.9373C245.624 19.9373 241.479 23.3202 240.901 27.9475H240.899ZM251.211 49.6836C240.575 49.6836 232.284 41.3962 232.284 31.2272C232.284 21.0582 240.593 13.0824 251.211 13.0824C261.829 13.0824 270.137 21.0582 270.137 31.468C270.137 32.0385 270.07 33.038 269.882 33.9708H240.696C241.58 38.7356 246.048 42.3269 251.332 42.3269C255.478 42.3269 258.944 40.3765 260.574 36.8722H269.255C266.826 44.3482 259.894 49.6816 251.213 49.6816L251.211 49.6836ZM171.481 42.4322C177.733 42.4322 182.047 37.6673 182.047 31.383C182.047 25.0987 177.733 20.3338 171.481 20.3338C165.229 20.3338 161.05 25.0299 161.05 31.383C161.05 37.7361 165.297 42.4322 171.481 42.4322ZM170.173 49.6836C160.387 49.6836 153.168 41.5358 153.168 31.383C153.168 21.2302 160.405 13.0824 170.173 13.0824C176.271 13.0824 181.012 16.3965 183.186 20.9732H183.441V14.0839H191.035V48.7327H183.441V41.9648H183.186C180.196 47.4195 175.712 49.6816 170.173 49.6816V49.6836ZM102.557 48.5445V3.93311H113.276L125.304 37.9101H125.491L137.519 3.93311H148.29V48.5445H140.577V17.0197H140.322C139.948 18.4016 139.575 19.9211 138.878 21.8027L129.059 48.5445H121.855L112.018 21.8027C111.321 19.9211 110.897 18.4016 110.574 17.0197H110.319V48.5445H102.555H102.557ZM212.406 13.74H217.384V3.93311H225.25V13.74H230.789V21.0946H225.25V41.1737H230.602V48.5283H217.384V21.1108H206.867V41.1899H212.219V48.5445H199.001V21.1108H193.649V13.7561H199.001V3.93311H206.867V13.74H212.406Z" fill="#333333"/>
</g>
<defs>
<linearGradient id="paint0_linear_1298_4640" x1="23.7616" y1="29.5905" x2="59.4939" y2="57.0975" gradientUnits="userSpaceOnUse">
<stop stop-color="#D7EAE1"/>
<stop offset="1" stop-color="#79B1A6"/>
</linearGradient>
<linearGradient id="paint1_linear_1298_4640" x1="-2.27631" y1="26.4534" x2="28.7386" y2="58.2192" gradientUnits="userSpaceOnUse">
<stop stop-color="#F4E2BC"/>
<stop offset="1" stop-color="#BF9F5E"/>
</linearGradient>
<clipPath id="clip0_1298_4640">
<rect width="320" height="53.617" fill="white"/>
</clipPath>
</defs>
</svg>
