<svg xmlns="http://www.w3.org/2000/svg" width="375" height="533" viewBox="0 0 375 533">
    <g fill="none" fill-rule="evenodd">
        <path fill="#FFF" d="M-180-1608h1440V892H-180z"/>
        <path fill="#F6F6F6" d="M16 177h343v16H16v-16zm0 30h343v16H16v-16zm0 30h343v16H16v-16zm0 30h343v16H16v-16zm0 30h343v16H16v-16zm0 30h56.5v16H16v-16zm0 40h343v16H16v-16zm0 30h343v16H16v-16zm0 30h343v16H16v-16zm0 30h343v16H16v-16zm0 30h343v16H16v-16zm0 30h56.5v16H16v-16zm0-441h170v24H16V76zm0 38h123v12H16v-12zM65 2h80v16H65V2zm0 20h137v16H65V22zM36 0c11.046 0 20 8.954 20 20s-8.954 20-20 20-20-8.954-20-20S24.954 0 36 0z"/>
    </g>
</svg>
