<svg xmlns="http://www.w3.org/2000/svg" width="639" height="631" viewBox="0 0 639 631">
    <path fill="#F6F6F6" fill-rule="evenodd" d="M499 288h140v77H499v-77zM24 382h130v14H24v-14zm146 0h130v14H170v-14zM24 322h422v14H24v-14zm0 24h422v14H24v-14zM0 290h400v20H0v-20zm28-27h80v14H28v-14zm-18 17c-5.523 0-10-4.477-10-10s4.477-10 10-10 10 4.477 10 10-4.477 10-10 10zm30 314h68c8.837 0 16 7.163 16 16s-7.163 16-16 16H40c-8.837 0-16-7.163-16-16s7.163-16 16-16zm100 9h130v14H140v-14zM24 511h422v14H24v-14zm0 24h422v14H24v-14zm0 24h243.5v14H24v-14zm475-114h140v186H499V445zM0 475h400v20H0v-20zm28-27h80v14H28v-14zm-18 17c-5.523 0-10-4.477-10-10s4.477-10 10-10 10 4.477 10 10-4.477 10-10 10zm14-268h130v14H24v-14zm146 0h130v14H170v-14zM24 137h521v14H24v-14zm0 24h521v14H24v-14zM0 101h400v20H0v-20zm28-27h80v14H28V74zM10 91C4.477 91 0 86.523 0 81s4.477-10 10-10 10 4.477 10 10-4.477 10-10 10zM0 0h87v28H0V0z"/>
</svg>
