<svg xmlns="http://www.w3.org/2000/svg" width="704" height="533" viewBox="0 0 704 533">
    <path fill="#F6F6F6" fill-rule="evenodd" d="M15 177h673v16H15v-16zm0 30h673v16H15v-16zm0 30h673v16H15v-16zm0 30h673v16H15v-16zm0 30h673v16H15v-16zm0 30h336.5v16H15v-16zm0 40h673v16H15v-16zm0 30h673v16H15v-16zm0 30h673v16H15v-16zm0 30h673v16H15v-16zm0 30h673v16H15v-16zm0 30h336.5v16H15v-16zm1-441h499v24H16V76zm0 38h123v12H16v-12zM49 2h80v16H49V2zm0 20h466v16H49V22zM20 0c11.046 0 20 8.954 20 20s-8.954 20-20 20S0 31.046 0 20 8.954 0 20 0z"/>
</svg>
