<svg height="800" viewBox="0 0 955 800" width="955" xmlns="http://www.w3.org/2000/svg" xmlns:xlink="http://www.w3.org/1999/xlink"><defs><linearGradient id="a" x1="95.434%" x2="21.137%" y1="77.234%" y2="18.145%"><stop offset="0" stop-color="#79b1a6"/><stop offset="1" stop-color="#d7eae1"/></linearGradient><linearGradient id="b" x1="17.738%" x2="92.027%" y1="18.621%" y2="76.557%"><stop offset="0" stop-color="#d7eae1"/><stop offset="1" stop-color="#79b1a6"/></linearGradient><circle id="c" cx="679" cy="788" r="100"/><linearGradient id="d" x1="25.696%" x2="83.518%" y1="20.426%" y2="80.419%"><stop offset="0" stop-color="#f4e2bc"/><stop offset="1" stop-color="#bf9f5e"/></linearGradient><linearGradient id="e" x1="95.897%" x2="1.32%" y1="51.32%" y2="51.32%"><stop offset="0" stop-color="#79b1a6"/><stop offset="1" stop-color="#0d6763"/></linearGradient><path id="f" d="m857.43 626.332c.278.279.63.776.158 1.842-1.842 4.154-6.727 10.308-8.053 17.07-.029.146-.14.763-2.13 3.646l-12.533-12.532c2.883-1.99 3.5-2.102 3.645-2.13 6.764-1.326 12.918-6.211 17.072-8.054 1.065-.472 1.563-.12 1.84.158z"/></defs><g fill="none" fill-rule="evenodd" transform="translate(-15 -425)"><circle cx="658.5" cy="1102.5" fill="url(#a)" r="14.5"/><circle cx="570.5" cy="534.5" fill="url(#a)" r="14.5"/><g stroke="#92c7b8" stroke-width=".5"><circle cx="976.5" cy="1182.5" r="325.5"/><circle cx="325.5" cy="325.5" r="325.5"/><path d="m61.5 1198 774-552.5"/></g><use fill="#87b9ab" xlink:href="#c"/><use fill="url(#b)" xlink:href="#c"/><circle cx="579" cy="788" fill="url(#d)" r="100"/><g transform="matrix(.98768834 .15643447 -.15643447 .98768834 110.133911 -124.550023)"><use fill="#359177" xlink:href="#f"/><g fill="url(#e)"><use xlink:href="#f"/><use xlink:href="#f"/></g></g></g></svg>