<svg xmlns="http://www.w3.org/2000/svg" xmlns:xlink="http://www.w3.org/1999/xlink" width="768" height="800" viewBox="0 0 768 800">
    <defs>
        <linearGradient id="a" x1="95.434%" x2="21.137%" y1="77.234%" y2="18.145%">
            <stop offset="0%" stop-color="#79B1A6"/>
            <stop offset="100%" stop-color="#D7EAE1"/>
        </linearGradient>
        <linearGradient id="c" x1="17.738%" x2="92.027%" y1="18.621%" y2="76.557%">
            <stop offset="0%" stop-color="#D7EAE1"/>
            <stop offset="100%" stop-color="#79B1A6"/>
        </linearGradient>
        <circle id="b" cx="679" cy="788" r="100"/>
        <linearGradient id="d" x1="25.696%" x2="83.518%" y1="20.426%" y2="80.419%">
            <stop offset="0%" stop-color="#F4E2BC"/>
            <stop offset="100%" stop-color="#BF9F5E"/>
        </linearGradient>
        <linearGradient id="f" x1="95.897%" x2="1.32%" y1="51.32%" y2="51.32%">
            <stop offset="0%" stop-color="#79B1A6"/>
            <stop offset="100%" stop-color="#0D6763"/>
        </linearGradient>
        <path id="e" d="M857.43 626.332c.278.279.63.776.158 1.842-1.842 4.154-6.727 10.308-8.053 17.07-.029.146-.14.763-2.13 3.646l-12.533-12.532c2.883-1.99 3.5-2.102 3.645-2.13 6.764-1.326 12.918-6.211 17.072-8.054 1.065-.472 1.563-.12 1.84.158z"/>
    </defs>
    <g fill="none" fill-rule="evenodd" transform="translate(-267 -250)">
        <circle cx="570.5" cy="534.5" r="14.5" fill="url(#a)"/>
        <circle cx="976.5" cy="1182.5" r="325.5" stroke="#92C7B8" stroke-width=".5"/>
        <circle cx="325.5" cy="325.5" r="325.5" stroke="#92C7B8" stroke-width=".5"/>
        <path stroke="#92C7B8" stroke-width=".5" d="M61.5 1198l774-552.5"/>
        <use fill="#87B9AB" xlink:href="#b"/>
        <use fill="url(#c)" xlink:href="#b"/>
        <circle cx="579" cy="788" r="100" fill="url(#d)"/>
        <g transform="rotate(9 846.346 637.417)">
            <use fill="#359177" xlink:href="#e"/>
            <use fill="url(#f)" xlink:href="#e"/>
            <use fill="url(#f)" xlink:href="#e"/>
        </g>
    </g>
</svg>
