<svg viewBox="0 0 1440 128" fill="none" xmlns="http://www.w3.org/2000/svg">
<g clip-path="url(#clip0)">
<path d="M1440 0H0V128H1440V0Z" fill="white"/>
<g style="mix-blend-mode:multiply">
<g style="mix-blend-mode:multiply">
<path d="M658.065 233.977C755.706 18.9934 854.262 149.181 1001.83 74.7021C1000.89 74.7588 1001.39 74.3751 1005.47 72.833V74.1413C1008.49 73.6469 1011.21 73.3794 1005.47 76.1089C923.875 123.833 818.918 147.444 866.875 233.977C782.74 279.3 670.651 229.556 658.065 233.977Z" fill="#EEFCF6"/>
</g>
<g style="mix-blend-mode:multiply">
<path d="M658.065 233.977C755.706 18.9934 854.262 149.181 1001.83 74.7021C1000.89 74.7588 1001.39 74.3751 1005.47 72.833V74.1413C1008.49 73.6469 1011.21 73.3794 1005.47 76.1089C923.875 123.833 818.918 147.444 866.875 233.977C782.74 279.3 670.651 229.556 658.065 233.977Z" fill="#DAEFE6"/>
</g>
</g>
<path d="M1000.48 65.4322L1008.69 82.2861L1009.31 81.9828C1010.48 81.4162 1011.43 80.4983 1012.08 79.3783C1014.56 75.1099 1018.57 71.6847 1021.92 68.8262C1023.52 67.4648 1024.97 66.2319 1026.02 65.0978C1026.86 64.1958 1026.68 63.577 1026.5 63.2029C1026.32 62.8287 1025.94 62.3046 1024.71 62.4089C1023.17 62.5401 1021.3 62.9159 1019.25 63.331C1014.93 64.2023 1009.75 65.2464 1004.86 64.5619C1003.57 64.3823 1002.27 64.5623 1001.1 65.1289L1000.48 65.4322Z" fill="#437D6D"/>
<path d="M1000.48 65.4322L1008.69 82.2861L1009.31 81.9828C1010.48 81.4162 1011.43 80.4983 1012.08 79.3783C1014.56 75.1099 1018.57 71.6847 1021.92 68.8262C1023.52 67.4648 1024.97 66.2319 1026.02 65.0978C1026.86 64.1958 1026.68 63.577 1026.5 63.2029C1026.32 62.8287 1025.94 62.3046 1024.71 62.4089C1023.17 62.5401 1021.3 62.9159 1019.25 63.331C1014.93 64.2023 1009.75 65.2464 1004.86 64.5619C1003.57 64.3823 1002.27 64.5623 1001.1 65.1289L1000.48 65.4322Z" fill="#4E8764"/>
<path d="M1000.48 65.4322L1008.69 82.2861L1009.31 81.9828C1010.48 81.4162 1011.43 80.4983 1012.08 79.3783C1014.56 75.1099 1018.57 71.6847 1021.92 68.8262C1023.52 67.4648 1024.97 66.2319 1026.02 65.0978C1026.86 64.1958 1026.68 63.577 1026.5 63.2029C1026.32 62.8287 1025.94 62.3046 1024.71 62.4089C1023.17 62.5401 1021.3 62.9159 1019.25 63.331C1014.93 64.2023 1009.75 65.2464 1004.86 64.5619C1003.57 64.3823 1002.27 64.5623 1001.1 65.1289L1000.48 65.4322Z" fill="#3D725E"/>
<path d="M1000.48 65.4322L1008.69 82.2861L1009.31 81.9828C1010.48 81.4162 1011.43 80.4983 1012.08 79.3783C1014.56 75.1099 1018.57 71.6847 1021.92 68.8262C1023.52 67.4648 1024.97 66.2319 1026.02 65.0978C1026.86 64.1958 1026.68 63.577 1026.5 63.2029C1026.32 62.8287 1025.94 62.3046 1024.71 62.4089C1023.17 62.5401 1021.3 62.9159 1019.25 63.331C1014.93 64.2023 1009.75 65.2464 1004.86 64.5619C1003.57 64.3823 1002.27 64.5623 1001.1 65.1289L1000.48 65.4322Z" fill="url(#paint0_linear)"/>
<g opacity="0.5">
<path opacity="0.5" fill-rule="evenodd" clip-rule="evenodd" d="M268.5 50C377.024 50 465 -37.976 465 -146.5C465 -255.024 377.024 -343 268.5 -343C159.976 -343 72 -255.024 72 -146.5C72 -37.976 159.976 50 268.5 50Z" fill="#437D6D"/>
<path opacity="0.5" fill-rule="evenodd" clip-rule="evenodd" d="M268.5 50C377.024 50 465 -37.976 465 -146.5C465 -255.024 377.024 -343 268.5 -343C159.976 -343 72 -255.024 72 -146.5C72 -37.976 159.976 50 268.5 50Z" fill="#4E8764"/>
<path opacity="0.5" fill-rule="evenodd" clip-rule="evenodd" d="M268.5 50C377.024 50 465 -37.976 465 -146.5C465 -255.024 377.024 -343 268.5 -343C159.976 -343 72 -255.024 72 -146.5C72 -37.976 159.976 50 268.5 50Z" fill="#3D725E"/>
<path opacity="0.5" fill-rule="evenodd" clip-rule="evenodd" d="M268.5 50C377.024 50 465 -37.976 465 -146.5C465 -255.024 377.024 -343 268.5 -343C159.976 -343 72 -255.024 72 -146.5C72 -37.976 159.976 50 268.5 50Z" fill="url(#paint1_linear)"/>
</g>
<path d="M206 99L208.514 103.486L213 106L208.514 108.514L206 113L203.486 108.514L199 106L203.486 103.486L206 99Z" fill="#437D6D"/>
<path d="M206 99L208.514 103.486L213 106L208.514 108.514L206 113L203.486 108.514L199 106L203.486 103.486L206 99Z" fill="#4E8764"/>
<path d="M206 99L208.514 103.486L213 106L208.514 108.514L206 113L203.486 108.514L199 106L203.486 103.486L206 99Z" fill="#3D725E"/>
<path d="M206 99L208.514 103.486L213 106L208.514 108.514L206 113L203.486 108.514L199 106L203.486 103.486L206 99Z" fill="url(#paint2_linear)"/>
<g opacity="0.7">
<path opacity="0.7" d="M898 23L900.514 27.4857L905 30L900.514 32.5143L898 37L895.486 32.5143L891 30L895.486 27.4857L898 23Z" fill="#437D6D"/>
<path opacity="0.7" d="M898 23L900.514 27.4857L905 30L900.514 32.5143L898 37L895.486 32.5143L891 30L895.486 27.4857L898 23Z" fill="#4E8764"/>
<path opacity="0.7" d="M898 23L900.514 27.4857L905 30L900.514 32.5143L898 37L895.486 32.5143L891 30L895.486 27.4857L898 23Z" fill="#3D725E"/>
<path opacity="0.7" d="M898 23L900.514 27.4857L905 30L900.514 32.5143L898 37L895.486 32.5143L891 30L895.486 27.4857L898 23Z" fill="url(#paint3_linear)"/>
<path opacity="0.7" d="M898 23L900.514 27.4857L905 30L900.514 32.5143L898 37L895.486 32.5143L891 30L895.486 27.4857L898 23Z" fill="url(#paint4_linear)"/>
</g>
</g>
<defs>
<linearGradient id="paint0_linear" x1="1009.31" y1="82.3298" x2="1020.78" y2="59.509" gradientUnits="userSpaceOnUse">
<stop stop-color="#0D675C"/>
<stop offset="1" stop-color="#DBF3E8"/>
</linearGradient>
<linearGradient id="paint1_linear" x1="189" y1="-147" x2="362.21" y2="23.4852" gradientUnits="userSpaceOnUse">
<stop stop-color="#0D6763"/>
<stop offset="1" stop-color="#D5F4E5"/>
</linearGradient>
<linearGradient id="paint2_linear" x1="215.864" y1="107.257" x2="207.017" y2="96.7956" gradientUnits="userSpaceOnUse">
<stop stop-color="#6BA5A2"/>
<stop offset="1" stop-color="#DFF5EB"/>
</linearGradient>
<linearGradient id="paint3_linear" x1="907.864" y1="31.2568" x2="899.017" y2="20.7956" gradientUnits="userSpaceOnUse">
<stop stop-color="#0D6763"/>
<stop offset="1" stop-color="#D7EAE1"/>
</linearGradient>
<linearGradient id="paint4_linear" x1="898" y1="23" x2="898" y2="37" gradientUnits="userSpaceOnUse">
<stop stop-color="#E7F0ED"/>
<stop offset="1" stop-color="#C0C9C6"/>
</linearGradient>
<clipPath id="clip0">
<rect width="1440" height="128" fill="white"/>
</clipPath>
</defs>
</svg>
