<svg height="45" viewBox="0 0 152 45" width="152" xmlns="http://www.w3.org/2000/svg"><g fill="none" fill-rule="evenodd"><path d="m5.786 44.902a5.58 5.58 0 0 1 -5.59-5.576v-33.652c-.098-3.13 2.452-5.674 5.59-5.674h140.624a5.58 5.58 0 0 1 5.59 5.576v33.652c0 3.13-2.55 5.674-5.59 5.674z" fill="#000"/><g fill="#fff"><path d="m53.445 11.543c0 .979-.294 1.664-.882 2.25-.589.685-1.471.979-2.452.979-.98 0-1.765-.294-2.452-.979-.686-.684-.98-1.467-.98-2.543 0-.978.294-1.859.98-2.543.687-.685 1.471-.979 2.452-.979.49 0 .98.098 1.373.294.49.195.882.489 1.079.782l-.589.587c-.49-.489-1.079-.782-1.863-.782-.686 0-1.373.293-1.863.782-.49.49-.785 1.174-.785 1.957 0 .782.294 1.467.785 1.956.49.49 1.177.783 1.863.783.784 0 1.373-.294 1.863-.783.294-.293.49-.782.589-1.37h-2.453v-.782h3.236c.098 0 .098.196.098.391zm5.198-2.836h-3.04v2.152h2.745v.782h-2.745v2.152h3.04v.88h-3.923v-6.75h3.923zm3.628 5.967h-.883v-5.87h-1.863v-.88h4.61v.783h-1.865zm5.295 0v-6.75h.883v6.75zm4.708 0h-.883v-5.87h-1.863v-.88h4.609v.783h-1.863z" stroke="#fff" stroke-width=".563"/><path d="m82.963 13.793c-.687.685-1.471.979-2.452.979-.98 0-1.765-.294-2.452-.979-.686-.684-.98-1.467-.98-2.543s.294-1.859.98-2.543c.687-.685 1.471-.979 2.452-.979.98 0 1.765.294 2.452.979.686.684.98 1.467.98 2.445a3.97 3.97 0 0 1 -.98 2.641zm-4.315-.586c.49.489 1.078.782 1.863.782.686 0 1.373-.293 1.863-.782.49-.49.785-1.174.785-1.957s-.294-1.467-.785-1.957c-.588-.489-1.177-.684-1.961-.684-.687 0-1.373.293-1.863.782-.49.49-.785 1.174-.785 1.957.098.685.392 1.37.883 1.859z" fill-rule="nonzero" stroke="#fff" stroke-width=".563"/><path d="m85.12 14.674v-6.75h1.079l3.236 5.283v-5.185h.882v6.652h-.882l-3.432-5.478v5.478z" stroke="#fff" stroke-width=".563"/><path d="m76.785 24.457c-2.648 0-4.806 2.054-4.806 4.793 0 2.74 2.158 4.793 4.806 4.793 2.647 0 4.805-2.054 4.805-4.793 0-2.837-2.158-4.793-4.805-4.793zm0 7.63c-1.471 0-2.746-1.174-2.746-2.935 0-1.76 1.275-2.935 2.746-2.935 1.47 0 2.745 1.174 2.745 2.935-.098 1.761-1.275 2.935-2.745 2.935zm-10.493-7.63c-2.648 0-4.806 2.054-4.806 4.793 0 2.74 2.158 4.793 4.806 4.793 2.647 0 4.805-2.054 4.805-4.793 0-2.837-2.158-4.793-4.805-4.793zm0 7.63c-1.471 0-2.746-1.174-2.746-2.935 0-1.76 1.275-2.935 2.746-2.935 1.47 0 2.745 1.174 2.745 2.935s-1.274 2.935-2.745 2.935zm-12.455-6.163v2.054h4.904c-.098 1.174-.49 1.957-1.08 2.544-.686.685-1.764 1.467-3.726 1.467-2.941 0-5.295-2.446-5.295-5.38 0-2.935 2.354-5.38 5.295-5.38 1.57 0 2.746.586 3.629 1.467l1.47-1.468c-1.176-1.174-2.843-2.054-5.099-2.054-4.118 0-7.55 3.326-7.55 7.435 0 4.108 3.432 7.434 7.55 7.434 2.256 0 3.923-.684 5.198-2.054 1.373-1.37 1.765-3.228 1.765-4.696 0-.489 0-.88-.098-1.271h-6.963zm50.994 1.565c-.392-1.076-1.57-3.032-4.119-3.032-2.451 0-4.51 1.956-4.51 4.793 0 2.641 2.059 4.793 4.706 4.793 2.158 0 3.433-1.37 4.021-2.152l-1.667-1.076c-.588.783-1.275 1.272-2.354 1.272-1.078 0-1.863-.49-2.353-1.467l6.374-2.642zm-6.57 1.565c-.098-1.858 1.47-2.739 2.55-2.739.882 0 1.568.392 1.764.978zm-5.198 4.696h2.06v-14.087h-2.06zm-3.432-8.217c-.588-.587-1.471-1.076-2.55-1.076-2.353 0-4.609 2.054-4.609 4.793 0 2.641 2.158 4.793 4.61 4.793 1.176 0 2.059-.489 2.549-1.076h.098v.685c0 1.859-.98 2.837-2.55 2.837-1.274 0-2.059-.88-2.451-1.663l-1.863.783c.49 1.271 1.96 2.837 4.216 2.837 2.452 0 4.511-1.468 4.511-4.99v-8.608h-1.961zm-2.452 6.554c-1.47 0-2.647-1.174-2.647-2.837s1.176-2.935 2.647-2.935 2.55 1.272 2.55 2.935c.098 1.663-1.079 2.837-2.55 2.837zm27.458-12.424h-5v13.99h2.058v-5.283h2.942c2.354 0 4.61-1.663 4.61-4.403 0-2.739-2.256-4.304-4.61-4.304zm.098 6.75h-2.941v-4.793h2.941c1.57 0 2.452 1.271 2.452 2.445a2.4 2.4 0 0 1 -2.452 2.348zm12.945-1.956c-1.471 0-3.138.684-3.726 2.152l1.863.782c.392-.782 1.177-1.076 1.961-1.076 1.079 0 2.157.685 2.256 1.761v.098c-.393-.196-1.177-.587-2.158-.587-1.961 0-4.02 1.076-4.02 3.13 0 1.86 1.667 3.13 3.53 3.13 1.373 0 2.157-.586 2.648-1.369h.098v1.076h2.059v-5.38c-.196-2.348-2.06-3.717-4.511-3.717zm-.294 7.63c-.687 0-1.667-.391-1.667-1.174 0-1.076 1.176-1.467 2.255-1.467.883 0 1.373.195 1.961.489-.196 1.272-1.274 2.152-2.55 2.152zm11.964-7.337-2.452 6.065h-.098l-2.452-6.065h-2.255l3.726 8.51-2.157 4.697h2.157l5.786-13.207zm-18.927 9h2.06v-14.087h-2.06z" fill-rule="nonzero"/></g><path d="m11.375 10.076v24.848c0 .685.197 1.272.49 1.565l.099.098 13.925-13.891v-.392l-13.812-13.899-.211.106c-.294.391-.49.88-.49 1.565z" fill="#00d2ff"/><path d="m25.889 22.696v-.392l4.61-4.597h.097l5.492 3.228c1.569.88 1.569 2.348 0 3.228l-5.492 3.04z" fill="#ffcd00"/><path d="m30.596 27.196-4.706-4.696-14.024 13.99c.49.586 1.373.586 2.353.097z" fill="#ff3a44"/><path d="m14.22 8.413c-.981-.587-1.864-.49-2.354.098l1.316 1.313 12.708 12.676 4.707-4.793z" fill="#06e775"/></g></svg>