<svg xmlns="http://www.w3.org/2000/svg" width="152" height="45" viewBox="0 0 152 45">
    <g fill="none" fill-rule="evenodd">
        <path fill="#000" d="M5.786 44.902a5.58 5.58 0 0 1-5.59-5.576V5.674C.098 2.544 2.648 0 5.786 0H146.41A5.58 5.58 0 0 1 152 5.576v33.652c0 3.13-2.55 5.674-5.59 5.674H5.786z"/>
        <path fill="#FFF" stroke="#FFF" stroke-width=".563" d="M53.445 11.543c0 .979-.294 1.664-.882 2.25-.589.685-1.471.979-2.452.979-.98 0-1.765-.294-2.452-.979-.686-.684-.98-1.467-.98-2.543 0-.978.294-1.859.98-2.543.687-.685 1.471-.979 2.452-.979.49 0 .98.098 1.373.294.49.195.882.489 1.079.782l-.589.587c-.49-.489-1.079-.782-1.863-.782-.686 0-1.373.293-1.863.782-.49.49-.785 1.174-.785 1.957 0 .782.294 1.467.785 1.956.49.49 1.177.783 1.863.783.784 0 1.373-.294 1.863-.783.294-.293.49-.782.589-1.37H50.11v-.782h3.236c.098 0 .098.196.098.391zM58.643 8.707h-3.04v2.152h2.745v.782h-2.745v2.152h3.04v.88H54.72v-6.75h3.923zM62.271 14.674h-.883v-5.87h-1.863v-.88h4.61v.783H62.27zM67.566 14.674v-6.75h.883v6.75zM72.274 14.674h-.883v-5.87h-1.863v-.88h4.609v.783h-1.863z"/>
        <path fill="#FFF" fill-rule="nonzero" stroke="#FFF" stroke-width=".563" d="M82.963 13.793c-.687.685-1.471.979-2.452.979-.98 0-1.765-.294-2.452-.979-.686-.684-.98-1.467-.98-2.543s.294-1.859.98-2.543c.687-.685 1.471-.979 2.452-.979.98 0 1.765.294 2.452.979.686.684.98 1.467.98 2.445a3.97 3.97 0 0 1-.98 2.641zm-4.315-.586c.49.489 1.078.782 1.863.782.686 0 1.373-.293 1.863-.782.49-.49.785-1.174.785-1.957 0-.783-.294-1.467-.785-1.957-.588-.489-1.177-.684-1.961-.684-.687 0-1.373.293-1.863.782-.49.49-.785 1.174-.785 1.957.098.685.392 1.37.883 1.859z"/>
        <path fill="#FFF" stroke="#FFF" stroke-width=".563" d="M85.12 14.674v-6.75h1.079l3.236 5.283V8.022h.882v6.652h-.882l-3.432-5.478v5.478z"/>
        <path fill="#FFF" fill-rule="nonzero" d="M76.785 24.457c-2.648 0-4.806 2.054-4.806 4.793 0 2.74 2.158 4.793 4.806 4.793 2.647 0 4.805-2.054 4.805-4.793 0-2.837-2.158-4.793-4.805-4.793zm0 7.63c-1.471 0-2.746-1.174-2.746-2.935 0-1.76 1.275-2.935 2.746-2.935 1.47 0 2.745 1.174 2.745 2.935-.098 1.761-1.275 2.935-2.745 2.935zm-10.493-7.63c-2.648 0-4.806 2.054-4.806 4.793 0 2.74 2.158 4.793 4.806 4.793 2.647 0 4.805-2.054 4.805-4.793 0-2.837-2.158-4.793-4.805-4.793zm0 7.63c-1.471 0-2.746-1.174-2.746-2.935 0-1.76 1.275-2.935 2.746-2.935 1.47 0 2.745 1.174 2.745 2.935 0 1.761-1.274 2.935-2.745 2.935zm-12.455-6.163v2.054h4.904c-.098 1.174-.49 1.957-1.08 2.544-.686.685-1.764 1.467-3.726 1.467-2.941 0-5.295-2.446-5.295-5.38 0-2.935 2.354-5.38 5.295-5.38 1.57 0 2.746.586 3.629 1.467l1.47-1.468c-1.176-1.174-2.843-2.054-5.099-2.054-4.118 0-7.55 3.326-7.55 7.435 0 4.108 3.432 7.434 7.55 7.434 2.256 0 3.923-.684 5.198-2.054 1.373-1.37 1.765-3.228 1.765-4.696 0-.489 0-.88-.098-1.271h-6.963v-.098zm50.994 1.565c-.392-1.076-1.57-3.032-4.119-3.032-2.451 0-4.51 1.956-4.51 4.793 0 2.641 2.059 4.793 4.706 4.793 2.158 0 3.433-1.37 4.021-2.152l-1.667-1.076c-.588.783-1.275 1.272-2.354 1.272-1.078 0-1.863-.49-2.353-1.467l6.374-2.642-.098-.489zm-6.57 1.565c-.098-1.858 1.47-2.739 2.55-2.739.882 0 1.568.392 1.764.978l-4.314 1.761zm-5.198 4.696h2.06V19.663h-2.06V33.75zm-3.432-8.217c-.588-.587-1.471-1.076-2.55-1.076-2.353 0-4.609 2.054-4.609 4.793 0 2.641 2.158 4.793 4.61 4.793 1.176 0 2.059-.489 2.549-1.076h.098v.685c0 1.859-.98 2.837-2.55 2.837-1.274 0-2.059-.88-2.451-1.663l-1.863.783c.49 1.271 1.96 2.837 4.216 2.837 2.452 0 4.511-1.468 4.511-4.99v-8.608h-1.961v.685zm-2.452 6.554c-1.47 0-2.647-1.174-2.647-2.837 0-1.663 1.176-2.935 2.647-2.935 1.471 0 2.55 1.272 2.55 2.935.098 1.663-1.079 2.837-2.55 2.837zm27.458-12.424h-5v13.99h2.058V28.37h2.942c2.354 0 4.61-1.663 4.61-4.403 0-2.739-2.256-4.304-4.61-4.304zm.098 6.75h-2.941V21.62h2.941c1.57 0 2.452 1.271 2.452 2.445a2.4 2.4 0 0 1-2.452 2.348zm12.945-1.956c-1.471 0-3.138.684-3.726 2.152l1.863.782c.392-.782 1.177-1.076 1.961-1.076 1.079 0 2.157.685 2.256 1.761v.098c-.393-.196-1.177-.587-2.158-.587-1.961 0-4.02 1.076-4.02 3.13 0 1.86 1.667 3.13 3.53 3.13 1.373 0 2.157-.586 2.648-1.369h.098v1.076h2.059v-5.38c-.196-2.348-2.06-3.717-4.511-3.717zm-.294 7.63c-.687 0-1.667-.391-1.667-1.174 0-1.076 1.176-1.467 2.255-1.467.883 0 1.373.195 1.961.489-.196 1.272-1.274 2.152-2.55 2.152zm11.964-7.337l-2.452 6.065h-.098l-2.452-6.065h-2.255l3.726 8.51-2.157 4.697h2.157l5.786-13.207h-2.255zm-18.927 9h2.06V19.663h-2.06V33.75z"/>
        <path fill="#00D2FF" d="M11.375 10.076v24.848c0 .685.197 1.272.49 1.565l.099.098 13.925-13.891v-.392L12.077 8.405l-.211.106c-.294.391-.49.88-.49 1.565z"/>
        <path fill="#FFCD00" d="M25.889 22.696v-.392l4.61-4.597h.097l5.492 3.228c1.569.88 1.569 2.348 0 3.228l-5.492 3.04-4.707-4.507z"/>
        <path fill="#FF3A44" d="M30.596 27.196L25.89 22.5 11.866 36.49c.49.586 1.373.586 2.353.097l16.377-9.391"/>
        <path fill="#06E775" d="M14.22 8.413c-.981-.587-1.864-.49-2.354.098l1.316 1.313L25.89 22.5l4.707-4.793L14.22 8.413z"/>
    </g>
</svg>
