<svg xmlns="http://www.w3.org/2000/svg" xmlns:xlink="http://www.w3.org/1999/xlink" width="242" height="145" viewBox="0 0 242 145">
  <defs>
    <path id="illustration-empty-comment-a" d="M31.9394,63.87879 C49.579,63.87879 63.8788,49.579 63.8788,31.9394 C63.8788,14.2998 49.579,0 31.9394,0 C14.2998,0 0,14.2998 0,31.9394 C0,49.579 14.2998,63.87879 31.9394,63.87879 Z"/>
    <linearGradient id="illustration-empty-comment-b" x1="0%" x2="0%" y1="0%" y2="1603.036%">
      <stop offset="0%" stop-color="#FFF"/>
      <stop offset="100%" stop-color="#DDD"/>
    </linearGradient>
    <path id="illustration-empty-comment-d" d="M31.9394,63.87879 C49.579,63.87879 63.8788,49.579 63.8788,31.9394 C63.8788,14.2998 49.579,0 31.9394,0 C14.2998,0 0,14.2998 0,31.9394 C0,49.579 14.2998,63.87879 31.9394,63.87879 Z"/>
    <linearGradient id="illustration-empty-comment-e" x1="88.027%" x2="18.84%" y1="20.727%" y2="87.314%">
      <stop offset="0%" stop-color="#FFF"/>
      <stop offset="100%" stop-color="#DDD"/>
    </linearGradient>
    <path id="illustration-empty-comment-g" d="M9.5,19 C14.7467,19 19,14.7467 19,9.5 C19,4.2533 14.7467,0 9.5,0 C4.2533,0 0,4.2533 0,9.5 C0,14.7467 4.2533,19 9.5,19 Z"/>
    <linearGradient id="illustration-empty-comment-h" x1="0%" x2="0%" y1="0%" y2="5389.474%">
      <stop offset="0%" stop-color="#FFF"/>
      <stop offset="100%" stop-color="#DDD"/>
    </linearGradient>
    <path id="illustration-empty-comment-j" d="M9.5,19 C14.7467,19 19,14.7467 19,9.5 C19,4.2533 14.7467,0 9.5,0 C4.2533,0 0,4.2533 0,9.5 C0,14.7467 4.2533,19 9.5,19 Z"/>
    <linearGradient id="illustration-empty-comment-k" x1="88.027%" x2="18.84%" y1="20.727%" y2="87.314%">
      <stop offset="0%" stop-color="#FFF"/>
      <stop offset="100%" stop-color="#DDD"/>
    </linearGradient>
    <path id="illustration-empty-comment-m" d="M18.1139,17.9539 L14.0606,22.0007 L10.0073,17.9539 L1,17.9539 C0.4477,17.9539 0,17.5062 0,16.9539 L0,1 C0,0.4477 0.4477,0 1,0 L27,0 C27.5523,0 28,0.4477 28,1 L28,16.9539 C28,17.5062 27.5523,17.9539 27,17.9539 L18.1139,17.9539 Z"/>
    <path id="illustration-empty-comment-o" d="M18.1139,17.9539 L14.0606,22.0007 L10.0073,17.9539 L1,17.9539 C0.4477,17.9539 0,17.5062 0,16.9539 L0,1 C0,0.4477 0.4477,0 1,0 L27,0 C27.5523,0 28,0.4477 28,1 L28,16.9539 C28,17.5062 27.5523,17.9539 27,17.9539 L18.1139,17.9539 Z"/>
    <path id="illustration-empty-comment-q" d="M18.11386,17.9539 L14.06057,22.00068 L10.00728,17.9539 L1,17.9539 C0.44772,17.9539 0,17.5062 0,16.9539 L0,1 C0,0.4477 0.44772,0 1,0 L27,0 C27.55228,0 28,0.4477 28,1 L28,16.9539 C28,17.5062 27.55228,17.9539 27,17.9539 L18.11386,17.9539 Z"/>
    <path id="illustration-empty-comment-s" d="M7,14 C10.86599,14 14,10.86599 14,7 C14,3.13401 10.86599,0 7,0 C3.13401,0 0,3.13401 0,7 C0,10.86599 3.13401,14 7,14 Z"/>
    <linearGradient id="illustration-empty-comment-t" x1="0%" x2="0%" y1="0%" y2="7314.286%">
      <stop offset="0%" stop-color="#FFF"/>
      <stop offset="100%" stop-color="#DDD"/>
    </linearGradient>
    <path id="illustration-empty-comment-v" d="M7,14 C10.86599,14 14,10.86599 14,7 C14,3.13401 10.86599,0 7,0 C3.13401,0 0,3.13401 0,7 C0,10.86599 3.13401,14 7,14 Z"/>
    <path id="illustration-empty-comment-x" d="M7,14 C10.866,14 14,10.86599 14,7 C14,3.13401 10.866,0 7,0 C3.134,0 0,3.13401 0,7 C0,10.86599 3.134,14 7,14 Z"/>
    <path id="illustration-empty-comment-z" d="M7,14 C10.866,14 14,10.86599 14,7 C14,3.13401 10.866,0 7,0 C3.134,0 0,3.13401 0,7 C0,10.86599 3.134,14 7,14 Z"/>
  </defs>
  <g fill="none" fill-rule="evenodd" transform="translate(1)">
    <path stroke="#000" stroke-linecap="square" stroke-opacity=".161" stroke-width=".5" d="M120,144 C186.2742,144 240,119.37566 240,89 C240,58.62434 186.2742,34 120,34 C53.72583,34 0,58.62434 0,89 C0,119.37566 53.72583,144 120,144 Z"/>
    <g transform="translate(88 54)">
      <mask id="illustration-empty-comment-c" fill="#fff">
        <use xlink:href="#illustration-empty-comment-a"/>
      </mask>
      <path fill="url(#illustration-empty-comment-b)" d="M31.9394,63.87879 C49.579,63.87879 63.8788,49.579 63.8788,31.9394 C63.8788,14.2998 49.579,0 31.9394,0 C14.2998,0 0,14.2998 0,31.9394 C0,49.579 14.2998,63.87879 31.9394,63.87879 Z" mask="url(#illustration-empty-comment-c)"/>
      <g>
        <mask id="illustration-empty-comment-f" fill="#fff">
          <use xlink:href="#illustration-empty-comment-d"/>
        </mask>
        <path fill="url(#illustration-empty-comment-e)" d="M31.9394,63.87879 C49.579,63.87879 63.8788,49.579 63.8788,31.9394 C63.8788,14.2998 49.579,0 31.9394,0 C14.2998,0 0,14.2998 0,31.9394 C0,49.579 14.2998,63.87879 31.9394,63.87879 Z" mask="url(#illustration-empty-comment-f)"/>
      </g>
    </g>
    <g transform="translate(152 28)">
      <mask id="illustration-empty-comment-i" fill="#fff">
        <use xlink:href="#illustration-empty-comment-g"/>
      </mask>
      <path fill="url(#illustration-empty-comment-h)" d="M9.5,19 C14.7467,19 19,14.7467 19,9.5 C19,4.2533 14.7467,0 9.5,0 C4.2533,0 0,4.2533 0,9.5 C0,14.7467 4.2533,19 9.5,19 Z" mask="url(#illustration-empty-comment-i)"/>
      <g>
        <mask id="illustration-empty-comment-l" fill="#fff">
          <use xlink:href="#illustration-empty-comment-j"/>
        </mask>
        <path fill="url(#illustration-empty-comment-k)" d="M9.5,19 C14.7467,19 19,14.7467 19,9.5 C19,4.2533 14.7467,0 9.5,0 C4.2533,0 0,4.2533 0,9.5 C0,14.7467 4.2533,19 9.5,19 Z" mask="url(#illustration-empty-comment-l)"/>
      </g>
    </g>
    <g transform="translate(148)">
      <mask id="illustration-empty-comment-n" fill="#fff">
        <use xlink:href="#illustration-empty-comment-m"/>
      </mask>
      <polygon fill="#F6F6F6" points="-5 -5 33 -5 33 27.001 -5 27.001" mask="url(#illustration-empty-comment-n)"/>
    </g>
    <g transform="translate(205 86)">
      <mask id="illustration-empty-comment-p" fill="#fff">
        <use xlink:href="#illustration-empty-comment-o"/>
      </mask>
      <polygon fill="#F6F6F6" points="-5 -5 33 -5 33 27.001 -5 27.001" mask="url(#illustration-empty-comment-p)"/>
    </g>
    <g transform="translate(14 89)">
      <mask id="illustration-empty-comment-r" fill="#fff">
        <use xlink:href="#illustration-empty-comment-q"/>
      </mask>
      <polygon fill="#F6F6F6" points="-5 -5 33 -5 33 27.001 -5 27.001" mask="url(#illustration-empty-comment-r)"/>
    </g>
    <g transform="translate(21 117)">
      <mask id="illustration-empty-comment-u" fill="#fff">
        <use xlink:href="#illustration-empty-comment-s"/>
      </mask>
      <path fill="url(#illustration-empty-comment-t)" d="M7,14 C10.86599,14 14,10.86599 14,7 C14,3.13401 10.86599,0 7,0 C3.13401,0 0,3.13401 0,7 C0,10.86599 3.13401,14 7,14 Z" mask="url(#illustration-empty-comment-u)"/>
      <g>
        <mask id="illustration-empty-comment-w" fill="#fff">
          <use xlink:href="#illustration-empty-comment-v"/>
        </mask>
        <path fill="url(#illustration-empty-comment-k)" d="M7,14 C10.86599,14 14,10.86599 14,7 C14,3.13401 10.86599,0 7,0 C3.13401,0 0,3.13401 0,7 C0,10.86599 3.13401,14 7,14 Z" mask="url(#illustration-empty-comment-w)"/>
      </g>
    </g>
    <g transform="translate(212 114)">
      <mask id="illustration-empty-comment-y" fill="#fff">
        <use xlink:href="#illustration-empty-comment-x"/>
      </mask>
      <path fill="url(#illustration-empty-comment-t)" d="M7,14 C10.866,14 14,10.86599 14,7 C14,3.13401 10.866,0 7,0 C3.134,0 0,3.13401 0,7 C0,10.86599 3.134,14 7,14 Z" mask="url(#illustration-empty-comment-y)"/>
      <g>
        <mask id="illustration-empty-comment-A" fill="#fff">
          <use xlink:href="#illustration-empty-comment-z"/>
        </mask>
        <path fill="url(#illustration-empty-comment-k)" d="M7,14 C10.866,14 14,10.86599 14,7 C14,3.13401 10.866,0 7,0 C3.134,0 0,3.13401 0,7 C0,10.86599 3.134,14 7,14 Z" mask="url(#illustration-empty-comment-A)"/>
      </g>
    </g>
  </g>
</svg>
