<svg height="240" viewBox="0 0 240 240" width="240" xmlns="http://www.w3.org/2000/svg" xmlns:xlink="http://www.w3.org/1999/xlink"><defs><linearGradient id="a"><stop offset="0" stop-color="#fff"/><stop offset="1" stop-color="#ddd"/></linearGradient><linearGradient id="b" x1="0%" xlink:href="#a" y1="58.023%" y2="58.023%"/><linearGradient id="c" x1="88.027%" x2="18.84%" xlink:href="#a" y1="20.727%" y2="87.314%"/><circle id="d" cx="57.939" cy="72.939" r="11.939"/><circle id="e" cx="172.939" cy="167.939" r="5.939"/><circle id="f" cx="119.439" cy="120.439" r="47.439"/></defs><g fill="none" fill-rule="evenodd"><path d="m0 0h240v240h-240z"/><g transform="matrix(.5 .8660254 -.8660254 .5 60.094234 142.613734)"><path d="m7 30h10l-1.667 4h-6.666z" fill="#ddd"/><path d="m18 11.182c0-5.182-3.343-11.092-6-11.182-2.657.09-6 6-6 11.182v18.818h12z" fill="url(#b)"/><path d="m3 21c1.224-1.114 3-3.09 3-8.08v17.08h-6v-3.06c0-2.658 1.776-4.826 3-5.94zm18 0c-1.224-1.114-3-3.09-3-8.08v17.08h6v-3.06c0-2.658-1.776-4.826-3-5.94z" fill="#ddd"/><circle cx="12" cy="12" fill="#fff" r="3"/></g><use fill="#87b9ab" xlink:href="#d"/><use fill="url(#c)" xlink:href="#d"/><use fill="#87b9ab" xlink:href="#e"/><use fill="url(#c)" xlink:href="#e"/><use fill="#87b9ab" xlink:href="#f"/><use fill="url(#c)" xlink:href="#f"/></g></svg>