<svg height="145" viewBox="0 0 242 145" width="242" xmlns="http://www.w3.org/2000/svg" xmlns:xlink="http://www.w3.org/1999/xlink"><linearGradient id="a"><stop offset="0" stop-color="#fff"/><stop offset="1" stop-color="#ddd"/></linearGradient><linearGradient id="b" x1="0%" x2="0%" xlink:href="#a" y1="0%" y2="1603.036%"/><linearGradient id="c" x1="88.027%" x2="18.84%" xlink:href="#a" y1="20.727%" y2="87.314%"/><linearGradient id="d" x1="0%" x2="0%" xlink:href="#a" y1="0%" y2="5389.474%"/><linearGradient id="e" x1="0%" x2="0%" xlink:href="#a" y1="0%" y2="7314.286%"/><mask id="f" fill="#fff"><path d="m31.9394 63.87879c17.6396 0 31.9394-14.29979 31.9394-31.93939s-14.2998-31.9394-31.9394-31.9394-31.9394 14.2998-31.9394 31.9394 14.2998 31.93939 31.9394 31.93939z" fill="#fff" fill-rule="evenodd"/></mask><mask id="g" fill="#fff"><path d="m31.9394 63.87879c17.6396 0 31.9394-14.29979 31.9394-31.93939s-14.2998-31.9394-31.9394-31.9394-31.9394 14.2998-31.9394 31.9394 14.2998 31.93939 31.9394 31.93939z" fill="#fff" fill-rule="evenodd"/></mask><mask id="h" fill="#fff"><path d="m9.5 19c5.2467 0 9.5-4.2533 9.5-9.5s-4.2533-9.5-9.5-9.5-9.5 4.2533-9.5 9.5 4.2533 9.5 9.5 9.5z" fill="#fff" fill-rule="evenodd"/></mask><mask id="i" fill="#fff"><path d="m9.5 19c5.2467 0 9.5-4.2533 9.5-9.5s-4.2533-9.5-9.5-9.5-9.5 4.2533-9.5 9.5 4.2533 9.5 9.5 9.5z" fill="#fff" fill-rule="evenodd"/></mask><mask id="j" fill="#fff"><path d="m18.1139 17.9539-4.0533 4.0468-4.0533-4.0468h-9.0073c-.5523 0-1-.4477-1-1v-15.9539c0-.5523.4477-1 1-1h26c.5523 0 1 .4477 1 1v15.9539c0 .5523-.4477 1-1 1z" fill="#fff" fill-rule="evenodd"/></mask><mask id="k" fill="#fff"><path d="m18.1139 17.9539-4.0533 4.0468-4.0533-4.0468h-9.0073c-.5523 0-1-.4477-1-1v-15.9539c0-.5523.4477-1 1-1h26c.5523 0 1 .4477 1 1v15.9539c0 .5523-.4477 1-1 1z" fill="#fff" fill-rule="evenodd"/></mask><mask id="l" fill="#fff"><path d="m18.11386 17.9539-4.05329 4.04678-4.05329-4.04678h-9.00728c-.55228 0-1-.4477-1-1v-15.9539c0-.5523.44772-1 1-1h26c.55228 0 1 .4477 1 1v15.9539c0 .5523-.44772 1-1 1z" fill="#fff" fill-rule="evenodd"/></mask><mask id="m" fill="#fff"><path d="m7 14c3.86599 0 7-3.13401 7-7s-3.13401-7-7-7-7 3.13401-7 7 3.13401 7 7 7z" fill="#fff" fill-rule="evenodd"/></mask><mask id="n" fill="#fff"><path d="m7 14c3.86599 0 7-3.13401 7-7s-3.13401-7-7-7-7 3.13401-7 7 3.13401 7 7 7z" fill="#fff" fill-rule="evenodd"/></mask><mask id="o" fill="#fff"><path d="m7 14c3.866 0 7-3.13401 7-7s-3.134-7-7-7-7 3.13401-7 7 3.134 7 7 7z" fill="#fff" fill-rule="evenodd"/></mask><mask id="p" fill="#fff"><path d="m7 14c3.866 0 7-3.13401 7-7s-3.134-7-7-7-7 3.13401-7 7 3.134 7 7 7z" fill="#fff" fill-rule="evenodd"/></mask><g fill="none" fill-rule="evenodd" transform="translate(1)"><path d="m120 144c66.2742 0 120-24.62434 120-55s-53.7258-55-120-55c-66.27417 0-120 24.62434-120 55s53.72583 55 120 55z" stroke="#000" stroke-linecap="square" stroke-opacity=".161" stroke-width=".5"/><g transform="translate(88 54)"><path d="m31.9394 63.87879c17.6396 0 31.9394-14.29979 31.9394-31.93939s-14.2998-31.9394-31.9394-31.9394-31.9394 14.2998-31.9394 31.9394 14.2998 31.93939 31.9394 31.93939z" fill="url(#b)" mask="url(#f)"/><path d="m31.9394 63.87879c17.6396 0 31.9394-14.29979 31.9394-31.93939s-14.2998-31.9394-31.9394-31.9394-31.9394 14.2998-31.9394 31.9394 14.2998 31.93939 31.9394 31.93939z" fill="url(#c)" mask="url(#g)"/></g><g transform="translate(152 28)"><path d="m9.5 19c5.2467 0 9.5-4.2533 9.5-9.5s-4.2533-9.5-9.5-9.5-9.5 4.2533-9.5 9.5 4.2533 9.5 9.5 9.5z" fill="url(#d)" mask="url(#h)"/><path d="m9.5 19c5.2467 0 9.5-4.2533 9.5-9.5s-4.2533-9.5-9.5-9.5-9.5 4.2533-9.5 9.5 4.2533 9.5 9.5 9.5z" fill="url(#c)" mask="url(#i)"/></g><g fill="#f6f6f6"><path d="m-5-5h38v32.001h-38z" mask="url(#j)" transform="translate(148)"/><path d="m-5-5h38v32.001h-38z" mask="url(#k)" transform="translate(205 86)"/><path d="m-5-5h38v32.001h-38z" mask="url(#l)" transform="translate(14 89)"/></g><g transform="translate(21 117)"><path d="m7 14c3.86599 0 7-3.13401 7-7s-3.13401-7-7-7-7 3.13401-7 7 3.13401 7 7 7z" fill="url(#e)" mask="url(#m)"/><path d="m7 14c3.86599 0 7-3.13401 7-7s-3.13401-7-7-7-7 3.13401-7 7 3.13401 7 7 7z" fill="url(#c)" mask="url(#n)"/></g><g transform="translate(212 114)"><path d="m7 14c3.866 0 7-3.13401 7-7s-3.134-7-7-7-7 3.13401-7 7 3.134 7 7 7z" fill="url(#e)" mask="url(#o)"/><path d="m7 14c3.866 0 7-3.13401 7-7s-3.134-7-7-7-7 3.13401-7 7 3.134 7 7 7z" fill="url(#c)" mask="url(#p)"/></g></g></svg>