<svg xmlns="http://www.w3.org/2000/svg" xmlns:xlink="http://www.w3.org/1999/xlink" width="516" height="300" viewBox="0 0 516 300">
    <defs>
        <path id="a" d="M0 0h516v300H0z"/>
        <linearGradient id="d" x1="95.897%" x2="1.32%" y1="51.32%" y2="51.32%">
            <stop offset="0%" stop-color="#79B1A6"/>
            <stop offset="100%" stop-color="#0D6763"/>
        </linearGradient>
        <path id="c" d="M319.07 137.21c.304 0 .77.08 1.094.921 1.266 3.283 1.96 9.325 4.937 13.753.064.095.34.495.83 3.162h-13.724c.49-2.667.766-3.067.83-3.162 2.977-4.428 3.672-10.47 4.937-13.753.325-.842.79-.921 1.095-.921z"/>
        <linearGradient id="e" x1="95.434%" x2="21.137%" y1="77.234%" y2="18.145%">
            <stop offset="0%" stop-color="#79B1A6"/>
            <stop offset="100%" stop-color="#D7EAE1"/>
        </linearGradient>
        <linearGradient id="g" x1="83.092%" x2="19.903%" y1="90.571%" y2="15.848%">
            <stop offset="0%" stop-color="#0D6763"/>
            <stop offset="100%" stop-color="#D7EAE1"/>
        </linearGradient>
        <ellipse id="f" cx="245.649" cy="147.5" rx="32.936" ry="32.928"/>
        <linearGradient id="h" x1="97.457%" x2="20.421%" y1="78.844%" y2="17.577%">
            <stop offset="0%" stop-color="#438F83"/>
            <stop offset="100%" stop-color="#FFF"/>
        </linearGradient>
        <linearGradient id="j" x1="90.602%" x2="21.291%" y1="73.392%" y2="18.268%">
            <stop offset="0%" stop-color="#A13A21"/>
            <stop offset="100%" stop-color="#F09A85"/>
        </linearGradient>
        <ellipse id="i" cx="299.17" cy="242.168" rx="9.606" ry="9.604"/>
        <linearGradient id="k" x1="23.784%" x2="83.518%" y1="18.443%" y2="80.419%">
            <stop offset="0%" stop-color="#EFDAAF"/>
            <stop offset="100%" stop-color="#BF9F5E"/>
        </linearGradient>
    </defs>
    <g fill="none" fill-rule="evenodd">
        <mask id="b" fill="#fff">
            <use xlink:href="#a"/>
        </mask>
        <path stroke="#000" stroke-linecap="square" stroke-opacity=".161" stroke-width=".686" d="M-85.03 34.968c0 122.784 99.511 222.32 222.264 222.32 122.753 0 222.264-99.536 222.264-222.32" mask="url(#b)" transform="rotate(90 137.234 146.128)"/>
        <path stroke="#000" stroke-linecap="square" stroke-opacity=".161" stroke-width=".686" d="M-111.16-210.592H245.65V8.894c0 75.792-61.442 137.234-137.234 137.234H-111.16v-356.72z" mask="url(#b)"/>
        <ellipse cx="245.649" cy="146.128" stroke="#92C7B8" stroke-width=".686" mask="url(#b)" rx="109.787" ry="109.76"/>
        <g mask="url(#b)" transform="rotate(-90 319.07 146.128)">
            <use fill="#359177" xlink:href="#c"/>
            <use fill="url(#d)" xlink:href="#c"/>
            <use fill="url(#d)" xlink:href="#c"/>
        </g>
        <g fill="#D7EAE1" mask="url(#b)">
            <path d="M516.628 3.44v285.376c-.915-94.394-63.128-141.59-186.639-141.59v-2.196c123.511 0 185.724-47.196 186.639-141.59z"/>
        </g>
        <path stroke="#000" stroke-linecap="square" stroke-opacity=".161" stroke-width=".686" d="M135.917 34.968c0 122.784 99.51 222.32 222.264 222.32 122.753 0 222.264-99.536 222.264-222.32" mask="url(#b)" transform="matrix(0 1 1 0 212.053 -212.053)"/>
        <ellipse cx="90.574" cy="-10.28" fill="url(#e)" mask="url(#b)" rx="10.979" ry="10.976"/>
        <g mask="url(#b)">
            <use fill="#437D6D" xlink:href="#f"/>
            <use fill="#4E8764" xlink:href="#f"/>
            <use fill="#3D725E" xlink:href="#f"/>
            <use fill="url(#g)" xlink:href="#f"/>
        </g>
        <g mask="url(#b)">
            <use fill="url(#h)" xlink:href="#i"/>
            <use fill="url(#j)" xlink:href="#i"/>
        </g>
        <ellipse cx="82.34" cy="146.128" fill="url(#k)" mask="url(#b)" rx="13.723" ry="13.72"/>
        <ellipse cx="459.048" cy="79.586" fill="url(#e)" mask="url(#b)" rx="4.803" ry="4.802"/>
    </g>
</svg>
