<svg xmlns="http://www.w3.org/2000/svg" xmlns:xlink="http://www.w3.org/1999/xlink" width="516" height="300" viewBox="0 0 516 300">
    <defs>
        <path id="a" d="M0 0h516v300H0z"/>
        <linearGradient id="c" x1="12.37%" x2="67.226%" y1="35.343%" y2="44.672%">
            <stop offset="0%" stop-color="#D7EAE1"/>
            <stop offset="100%" stop-color="#FFF"/>
        </linearGradient>
        <linearGradient id="d" x1="97.457%" x2="20.421%" y1="78.844%" y2="17.577%">
            <stop offset="0%" stop-color="#438F83"/>
            <stop offset="100%" stop-color="#FFF"/>
        </linearGradient>
        <linearGradient id="f" x1="90.602%" x2="21.291%" y1="73.392%" y2="18.268%">
            <stop offset="0%" stop-color="#A13A21"/>
            <stop offset="100%" stop-color="#F09A85"/>
        </linearGradient>
        <circle id="e" cx="452.704" cy="23.392" r="9.632"/>
        <linearGradient id="g" x1="42.543%" x2="50%" y1="100%" y2="8.94%">
            <stop offset="0%" stop-color="#D7EAE1"/>
            <stop offset="100%" stop-color="#FFF"/>
        </linearGradient>
        <linearGradient id="i" x1="83.092%" x2="19.903%" y1="90.571%" y2="15.848%">
            <stop offset="0%" stop-color="#0D6763"/>
            <stop offset="100%" stop-color="#D7EAE1"/>
        </linearGradient>
        <circle id="h" cx="347.44" cy="174.064" r="105.264"/>
        <linearGradient id="k" x1="17.15%" x2="84.77%" y1="78.999%" y2="16.872%">
            <stop offset="0%" stop-color="#BFDCD7"/>
            <stop offset="100%" stop-color="#85B4AD"/>
        </linearGradient>
        <circle id="j" cx="310.976" cy="134.848" r="31.648"/>
        <linearGradient id="l" x1="23.784%" x2="83.518%" y1="18.443%" y2="80.419%">
            <stop offset="0%" stop-color="#EFDAAF"/>
            <stop offset="100%" stop-color="#BF9F5E"/>
        </linearGradient>
        <linearGradient id="m" x1="72.531%" x2="64.817%" y1="100%" y2="0%">
            <stop offset="0%" stop-color="#79B1A6"/>
            <stop offset="100%" stop-color="#D7EAE1"/>
        </linearGradient>
    </defs>
    <g fill="none" fill-rule="evenodd">
        <mask id="b" fill="#fff">
            <use xlink:href="#a"/>
        </mask>
        <g mask="url(#b)">
            <g transform="translate(0 -22)">
                <path fill="url(#c)" stroke="#C4E1D3" stroke-dasharray="5.504,11.008" stroke-width="2.752" d="M401.104 313.728c58.136 0 105.264-47.128 105.264-105.264 0-58.136-47.128-105.264-105.264-105.264-58.136 0-105.264 47.128-105.264 105.264 0 58.136 47.128 105.264 105.264 105.264z"/>
                <use fill="url(#d)" xlink:href="#e"/>
                <use fill="url(#f)" xlink:href="#e"/>
                <path fill="url(#g)" stroke="#C4E1D3" stroke-dasharray="5.504,11.008" stroke-width="2.752" d="M73.616 401.792c33.817 0 61.232-27.414 61.232-61.232 0-33.817-27.415-61.232-61.232-61.232s-61.232 27.415-61.232 61.232 27.415 61.232 61.232 61.232z"/>
                <use fill="#437D6D" xlink:href="#h"/>
                <use fill="#4E8764" xlink:href="#h"/>
                <use fill="#3D725E" xlink:href="#h"/>
                <use fill="url(#i)" xlink:href="#h"/>
                <g opacity=".7">
                    <use fill="#359177" xlink:href="#j"/>
                    <use fill="url(#k)" xlink:href="#j"/>
                </g>
                <circle cx="134.848" cy="174.752" r="27.52" fill="url(#l)"/>
                <circle cx="23.392" cy="53.664" r="49.536" fill="url(#m)"/>
            </g>
        </g>
    </g>
</svg>
