<svg height="300" viewBox="0 0 516 300" width="516" xmlns="http://www.w3.org/2000/svg" xmlns:xlink="http://www.w3.org/1999/xlink"><defs><linearGradient id="a" x1="95.434%" x2="21.137%" y1="77.234%" y2="18.145%"><stop offset="0" stop-color="#79b1a6"/><stop offset="1" stop-color="#d7eae1"/></linearGradient><linearGradient id="b" x1="83.092%" x2="19.903%" y1="90.571%" y2="15.848%"><stop offset="0" stop-color="#0d6763"/><stop offset="1" stop-color="#d7eae1"/></linearGradient><ellipse id="c" cx="62.56" cy="69.842" rx="58.88" ry="58.814"/><circle id="d" cx="61.947" cy="134.17" r="3.44"/><circle id="e" cx="23.92" cy="3.063" r="3.44"/><circle id="f" cx="3.067" cy="117.016" r="3.44"/><circle id="g" cx="128.187" cy="39.822" r="3.44"/><circle id="h" cx="125.733" cy="102.312" r="3.44"/><linearGradient id="i" x1="97.457%" x2="20.421%" y1="78.844%" y2="17.577%"><stop offset="0" stop-color="#438f83"/><stop offset="1" stop-color="#fff"/></linearGradient><linearGradient id="j" x1="90.602%" x2="21.291%" y1="73.392%" y2="18.268%"><stop offset="0" stop-color="#a13a21"/><stop offset="1" stop-color="#f09a85"/></linearGradient><ellipse id="k" cx="47.84" cy="53.913" rx="26.987" ry="26.957"/><linearGradient id="l" x1="23.784%" x2="83.518%" y1="18.443%" y2="80.419%"><stop offset="0" stop-color="#efdaaf"/><stop offset="1" stop-color="#bf9f5e"/></linearGradient><mask id="m" fill="#fff"><path d="m0 0h516v300h-516z" fill="#fff" fill-rule="evenodd"/></mask></defs><g fill="none" fill-rule="evenodd" mask="url(#m)"><g transform="translate(28 -13)"><path d="m230 48.097 123.51 231.27-238.425-127.636-80.29 100.675" stroke="#000" stroke-linecap="square" stroke-opacity=".161" stroke-width="1.376"/><g fill="url(#a)"><ellipse cx="421.973" cy="225.455" rx="9.813" ry="9.802"/><ellipse cx="34.96" cy="251.798" rx="5.52" ry="5.514"/><ellipse cx="353.28" cy="279.368" rx="3.68" ry="3.676"/><ellipse cx="115.307" cy="151.937" rx="3.68" ry="3.676"/><ellipse cx="229.387" cy="47.787" rx="3.68" ry="3.676"/></g><path d="m204.424 229.56 125.979-78.052" stroke="#4a7c6e" stroke-linecap="square" stroke-opacity=".307" stroke-width="1.376"/><g transform="translate(201.173 112.727)"><use fill="#437d6d" xlink:href="#c"/><use fill="#4e8764" xlink:href="#c"/><use fill="#3d725e" xlink:href="#c"/><use fill="url(#b)" xlink:href="#c"/></g><g transform="translate(201.173 112.727)"><use fill="#437d6d" xlink:href="#d"/><use fill="#4e8764" xlink:href="#d"/><use fill="#3d725e" xlink:href="#d"/><use fill="#4a7c6e" xlink:href="#d"/></g><g transform="translate(201.173 112.727)"><use fill="#437d6d" xlink:href="#e"/><use fill="#4e8764" xlink:href="#e"/><use fill="#3d725e" xlink:href="#e"/><use fill="#4a7c6e" xlink:href="#e"/></g><g transform="translate(201.173 112.727)"><use fill="#437d6d" xlink:href="#f"/><use fill="#4e8764" xlink:href="#f"/><use fill="#3d725e" xlink:href="#f"/><use fill="#4a7c6e" xlink:href="#f"/></g><g transform="translate(201.173 112.727)"><use fill="#437d6d" xlink:href="#g"/><use fill="#4e8764" xlink:href="#g"/><use fill="#3d725e" xlink:href="#g"/><use fill="#4a7c6e" xlink:href="#g"/></g><g transform="translate(201.173 112.727)"><use fill="#437d6d" xlink:href="#h"/><use fill="#4e8764" xlink:href="#h"/><use fill="#3d725e" xlink:href="#h"/><use fill="#4a7c6e" xlink:href="#h"/></g><path d="m224.289 115.178-20.662 114.642 58.63 17.689 64.25-32.816 3.466-62.933zm.976.795 37.683 132.141m-58.528-18.554 122.306-14.337" stroke="#4a7c6e" stroke-linecap="square" stroke-opacity=".307" stroke-width="1.376"/><g transform="translate(29.44 24.506)"><path d="m3.68 61.877 87.843 3.676" stroke="#4a7c6e" stroke-linecap="square" stroke-opacity=".307" stroke-width="1.376"/><ellipse cx="47.84" cy="53.913" fill="url(#a)" rx="26.987" ry="26.957"/><path d="m51.43 3.063-47.75 58.687 32.356 31.374 55.487-27.04z" stroke="#4a7c6e" stroke-linecap="square" stroke-opacity=".307" stroke-width="1.376"/><g fill="#9acabd"><ellipse cx="91.387" cy="65.553" rx="3.067" ry="3.063"/><ellipse cx="50.907" cy="3.063" rx="3.067" ry="3.063"/><ellipse cx="3.067" cy="61.877" rx="3.067" ry="3.063"/><ellipse cx="36.187" cy="92.51" rx="3.067" ry="3.063"/></g><path d="m51.358 3.32-15.171 89.802" stroke="#4a7c6e" stroke-linecap="square" stroke-opacity=".307" stroke-width="1.376"/></g><g transform="matrix(0 1 1 0 340.453 25.066)"><path d="m3.68 61.877 87.843 3.676" stroke="#4a7c6e" stroke-linecap="square" stroke-opacity=".307" stroke-width="1.376"/><use fill="url(#i)" xlink:href="#k"/><use fill="url(#j)" xlink:href="#k"/><path d="m51.43 3.063-47.75 58.687 32.356 31.374 55.487-27.04z" stroke="#4a7c6e" stroke-linecap="square" stroke-opacity=".307" stroke-width="1.376"/><g fill="#9acabd"><ellipse cx="91.387" cy="65.553" rx="3.067" ry="3.063"/><ellipse cx="50.907" cy="3.063" rx="3.067" ry="3.063"/><ellipse cx="3.067" cy="61.877" rx="3.067" ry="3.063"/><ellipse cx="36.187" cy="92.51" rx="3.067" ry="3.063"/></g><path d="m51.358 3.32-15.171 89.802" stroke="#4a7c6e" stroke-linecap="square" stroke-opacity=".307" stroke-width="1.376"/></g><g transform="matrix(.5 .8660254 .8660254 -.5 42.967059 241.958871)"><path d="m2.453 51.462 71.805 4.289m-71.805-4.289 63.787-48.996" stroke="#4a7c6e" stroke-linecap="square" stroke-opacity=".307" stroke-width="1.376"/><ellipse cx="44.773" cy="38.597" fill="url(#l)" rx="22.693" ry="22.668"/><path d="m66.24 3.676 8.018 52.688-39.911 9.802-31.894-14.704m63.787-47.786-31.893 61.264" stroke="#4a7c6e" stroke-linecap="square" stroke-opacity=".307" stroke-width="1.376"/><g fill="#9acabd"><ellipse cx="66.853" cy="3.063" rx="3.067" ry="3.063"/><ellipse cx="3.067" cy="50.85" rx="3.067" ry="3.063"/><ellipse cx="32.507" cy="66.779" rx="3.067" ry="3.063"/><ellipse cx="74.213" cy="56.976" rx="3.067" ry="3.063"/></g></g></g></g></svg>