<svg height="300" viewBox="0 0 516 300" width="516" xmlns="http://www.w3.org/2000/svg" xmlns:xlink="http://www.w3.org/1999/xlink"><defs><linearGradient id="a" x1="95.434%" x2="21.137%" y1="77.234%" y2="18.145%"><stop offset="0" stop-color="#79b1a6"/><stop offset="1" stop-color="#d7eae1"/></linearGradient><linearGradient id="b" x1="50%" x2="50%" y1="93.226%" y2="2.633%"><stop offset="0" stop-color="#d7eae1"/><stop offset="1" stop-color="#fff"/></linearGradient><linearGradient id="c" x1="83.092%" x2="19.903%" y1="90.571%" y2="15.848%"><stop offset="0" stop-color="#0d6763"/><stop offset="1" stop-color="#d7eae1"/></linearGradient><circle id="d" cx="444.448" cy="203.648" r="61.92"/><linearGradient id="e" x1="97.457%" x2="20.421%" y1="78.844%" y2="17.577%"><stop offset="0" stop-color="#438f83"/><stop offset="1" stop-color="#fff"/></linearGradient><linearGradient id="f" x1="90.602%" x2="21.291%" y1="73.392%" y2="18.268%"><stop offset="0" stop-color="#a13a21"/><stop offset="1" stop-color="#f09a85"/></linearGradient><circle id="g" cx="587.552" cy="228.416" r="11.008"/><linearGradient id="h" x1="23.784%" x2="83.518%" y1="18.443%" y2="80.419%"><stop offset="0" stop-color="#efdaaf"/><stop offset="1" stop-color="#bf9f5e"/></linearGradient><mask id="i" fill="#fff"><path d="m0 0h516v300h-516z" fill="#fff" fill-rule="evenodd"/></mask></defs><g fill="none" fill-rule="evenodd" mask="url(#i)"><g transform="translate(-187.136 -33.76)"><g stroke="#92c7b8" stroke-width=".688"><ellipse cx="444.448" cy="202.96" opacity=".7" rx="221.536" ry="123.152"/><ellipse cx="444.448" cy="205.024" opacity=".4" rx="284.832" ry="166.496"/><ellipse cx="443.76" cy="205.024" rx="149.296" ry="75.68"/></g><g transform="translate(554.746)"><ellipse cx="106.129" cy="96.468" fill="url(#a)" rx="12.561" ry="12.532"/><path d="m39.2 62.66-8.336 8.325-8.336-8.324h-17.024a5.504 5.504 0 0 1 -5.504-5.504v-51.653a5.504 5.504 0 0 1 5.504-5.504h51.798a5.504 5.504 0 0 1 5.504 5.504v51.653a5.504 5.504 0 0 1 -5.504 5.504h-18.102z" fill="url(#b)" transform="translate(74.304)"/><path d="m86.865 19.582h37.684m-37.684 7.832h37.684m-37.684 7.833h37.684m-37.684 7.049h18.842" stroke="#9acabd" stroke-linecap="square" stroke-width="1.376"/><path d="m39.2 62.66-8.336 8.325-8.336-8.324h-17.024a5.504 5.504 0 0 1 -5.504-5.504v-51.653a5.504 5.504 0 0 1 5.504-5.504h51.798a5.504 5.504 0 0 1 5.504 5.504v51.653a5.504 5.504 0 0 1 -5.504 5.504h-18.102z" fill="url(#b)" transform="translate(1.085 132.9)"/><path d="m13.646 152.482h37.683m-37.683 7.833h37.683m-37.683 7.832h37.683m-37.683 7.05h18.842" stroke="#9acabd" stroke-linecap="square" stroke-width="1.376"/></g><use fill="#437d6d" xlink:href="#d"/><use fill="#4e8764" xlink:href="#d"/><use fill="#3d725e" xlink:href="#d"/><use fill="url(#c)" xlink:href="#d"/><use fill="url(#e)" xlink:href="#g"/><use fill="url(#f)" xlink:href="#g"/><circle cx="275.2" cy="282.08" fill="url(#h)" r="20.64"/><path d="m39.503 62.22-8.398 8.099-8.398-8.1h-17.203a5.504 5.504 0 0 1 -5.504-5.504v-51.211a5.504 5.504 0 0 1 5.504-5.504h52.288a5.504 5.504 0 0 1 5.504 5.504v51.211a5.504 5.504 0 0 1 -5.504 5.504h-18.289z" fill="url(#b)" transform="translate(243.552 181.632)"/><path d="m256.211 201.075h37.978m-37.978 7.778h37.978m-37.978 7.777h37.978m-37.978 7h18.989" stroke="#9acabd" stroke-linecap="square" stroke-width="1.376"/><path d="m39.503 62.22-8.398 8.099-8.398-8.1h-17.203a5.504 5.504 0 0 1 -5.504-5.504v-51.211a5.504 5.504 0 0 1 5.504-5.504h52.288a5.504 5.504 0 0 1 5.504 5.504v51.211a5.504 5.504 0 0 1 -5.504 5.504h-18.289z" fill="url(#b)" transform="translate(411.424 59.168)"/><path d="m424.083 78.611h37.978m-37.978 7.778h37.978m-37.978 7.777h37.978m-37.978 7h18.989" stroke="#9acabd" stroke-linecap="square" stroke-width="1.376"/></g></g></svg>