<svg width="20" height="20" viewBox="0 0 20 20" fill="none" xmlns="http://www.w3.org/2000/svg">
<path d="M11.0565 5.76781C12.1524 5.76781 13.0408 4.92436 13.0408 3.8839C13.0408 2.84345 12.1524 2 11.0565 2C9.96066 2 9.07227 2.84345 9.07227 3.8839C9.07227 4.92436 9.96066 5.76781 11.0565 5.76781Z" stroke="#C0A46B" stroke-width="0.8" stroke-miterlimit="10"/>
<path d="M3.98428 13.239C5.08017 13.239 5.96856 12.3955 5.96856 11.3551C5.96856 10.3146 5.08017 9.47119 3.98428 9.47119C2.88839 9.47119 2 10.3146 2 11.3551C2 12.3955 2.88839 13.239 3.98428 13.239Z" stroke="#C0A46B" stroke-width="0.8" stroke-miterlimit="10"/>
<path d="M15.0165 17C16.1124 17 17.0008 16.1565 17.0008 15.1161C17.0008 14.0756 16.1124 13.2322 15.0165 13.2322C13.9206 13.2322 13.0322 14.0756 13.0322 15.1161C13.0322 16.1565 13.9206 17 15.0165 17Z" stroke="#C0A46B" stroke-width="0.8" stroke-miterlimit="10"/>
<path d="M9.73658 5.28149L5.57812 9.94165" stroke="#C0A46B" stroke-width="0.8" stroke-miterlimit="10"/>
<path d="M5.95898 12.4385L13.0416 14.3945" stroke="#C0A46B" stroke-width="0.8" stroke-miterlimit="10"/>
<path d="M15.016 13.2401L12.1582 5.44312" stroke="#C0A46B" stroke-width="0.8" stroke-miterlimit="10"/>
</svg>
