<svg xmlns="http://www.w3.org/2000/svg" width="24" height="24" viewBox="0 0 24 24">
  <path  d="M22.2666902,8.076 L21.5960808,18.1406205 C21.4238273,20.5437955 19.4216734,22.424 17.022,22.424 L6.978,22.424 C4.57832657,22.424 2.57617269,20.5437955 2.40365959,18.1368662 L1.73324686,8.076 L0.25,8.076 L0.25,2.75 L23.75,2.75 L23.75,8.076 L22.2666902,8.076 Z M20.7633649,8.076 L3.2365727,8.076 L3.90008077,18.0333795 C4.01628548,19.6545966 5.36802193,20.924 6.978,20.924 L17.022,20.924 C18.6319781,20.924 19.9837145,19.6545966 20.0996593,18.0371384 L20.7633649,8.076 Z M1.75,6.576 L22.25,6.576 L22.25,4.25 L1.75,4.25 L1.75,6.576 Z M8.59966991,12.1603301 L9.66033009,11.0996699 L15.4003301,16.8396699 L14.3396699,17.9003301 L8.59966991,12.1603301 Z M9.66033009,17.9003301 L8.59966991,16.8396699 L14.3396699,11.0996699 L15.4003301,12.1603301 L9.66033009,17.9003301 Z"/>
</svg>
