<svg width="9" height="8" viewBox="0 0 9 8" fill="none" xmlns="http://www.w3.org/2000/svg">
<path d="M2.71967 5.96967C2.42678 6.26256 2.42678 6.73744 2.71967 7.03033C3.01256 7.32322 3.48744 7.32322 3.78033 7.03033L2.71967 5.96967ZM5.75 4L6.28033 4.53033C6.57322 4.23744 6.57322 3.76256 6.28033 3.46967L5.75 4ZM3.78033 0.96967C3.48744 0.676777 3.01256 0.676777 2.71967 0.96967C2.42678 1.26256 2.42678 1.73744 2.71967 2.03033L3.78033 0.96967ZM3.78033 7.03033L6.28033 4.53033L5.21967 3.46967L2.71967 5.96967L3.78033 7.03033ZM6.28033 3.46967L3.78033 0.96967L2.71967 2.03033L5.21967 4.53033L6.28033 3.46967Z" fill="#B3B3B3"/>
</svg>
