<svg width="80" height="80" viewBox="0 0 80 80" fill="none" xmlns="http://www.w3.org/2000/svg">
<path fill-rule="evenodd" clip-rule="evenodd" d="M40 80C62.0914 80 80 62.0914 80 40C80 17.9086 62.0914 0 40 0C17.9086 0 0 17.9086 0 40C0 62.0914 17.9086 80 40 80Z" fill="#359177"/>
<path fill-rule="evenodd" clip-rule="evenodd" d="M40 80C62.0914 80 80 62.0914 80 40C80 17.9086 62.0914 0 40 0C17.9086 0 0 17.9086 0 40C0 62.0914 17.9086 80 40 80Z" fill="#0D6763"/>
<mask id="mask0" mask-type="alpha" maskUnits="userSpaceOnUse" x="0" y="0" width="80" height="80">
<path fill-rule="evenodd" clip-rule="evenodd" d="M40 80C62.0914 80 80 62.0914 80 40C80 17.9086 62.0914 0 40 0C17.9086 0 0 17.9086 0 40C0 62.0914 17.9086 80 40 80Z" fill="white"/>
<path fill-rule="evenodd" clip-rule="evenodd" d="M40 80C62.0914 80 80 62.0914 80 40C80 17.9086 62.0914 0 40 0C17.9086 0 0 17.9086 0 40C0 62.0914 17.9086 80 40 80Z" stroke="white"/>
</mask>
<g mask="url(#mask0)">
<path fill-rule="evenodd" clip-rule="evenodd" d="M20 56.6667H60L60.6508 59.2702C61.657 63.2947 64.2206 66.7547 67.7778 68.889V80.0001H11.1111V68.889C15.3425 66.7733 18.4381 62.9142 19.5855 58.3246L20 56.6667Z" fill="#92C7B8"/>
<path fill-rule="evenodd" clip-rule="evenodd" d="M20 56.6667H60L60.6508 59.2702C61.657 63.2947 64.2206 66.7547 67.7778 68.889V80.0001H11.1111V68.889C15.3425 66.7733 18.4381 62.9142 19.5855 58.3246L20 56.6667Z" fill="url(#paint0_linear)"/>
<path d="M11.1111 35.5555C11.1111 33.1009 13.1009 31.1111 15.5555 31.1111H17.7778V48.8889H15.5555C13.1009 48.8889 11.1111 46.899 11.1111 44.4444V35.5555Z" fill="#C4E1D3"/>
<path d="M62.2222 31.1111H64.4444C66.899 31.1111 68.8888 33.1009 68.8888 35.5555V44.4444C68.8888 46.899 66.899 48.8889 64.4444 48.8889H62.2222V31.1111Z" fill="#C4E1D3"/>
<path d="M15.5557 37.7777C15.5557 24.2774 26.4998 13.3333 40.0001 13.3333C53.5004 13.3333 64.4446 24.2774 64.4446 37.7777V46.5408C64.4446 57.656 55.4339 66.6666 44.3188 66.6666H35.6814C24.5663 66.6666 15.5557 57.656 15.5557 46.5408V37.7777Z" fill="white"/>
<path fill-rule="evenodd" clip-rule="evenodd" d="M40 60C51.0457 60 60 51.0457 60 40C60 28.9543 51.0457 20 40 20C28.9543 20 20 28.9543 20 40C20 51.0457 28.9543 60 40 60Z" fill="url(#paint1_linear)"/>
<mask id="mask1" mask-type="alpha" maskUnits="userSpaceOnUse" x="20" y="20" width="40" height="40">
<path fill-rule="evenodd" clip-rule="evenodd" d="M40 60C51.0457 60 60 51.0457 60 40C60 28.9543 51.0457 20 40 20C28.9543 20 20 28.9543 20 40C20 51.0457 28.9543 60 40 60Z" fill="white"/>
</mask>
<g mask="url(#mask1)">
<path fill-rule="evenodd" clip-rule="evenodd" d="M22.2222 55.5556C34.4952 55.5556 44.4444 42.8703 44.4444 27.2222C44.4444 11.5742 34.4952 -1.11108 22.2222 -1.11108C9.94923 -1.11108 0 11.5742 0 27.2222C0 42.8703 9.94923 55.5556 22.2222 55.5556Z" fill="#79B1A6"/>
<path fill-rule="evenodd" clip-rule="evenodd" d="M22.2222 55.5556C34.4952 55.5556 44.4444 42.8703 44.4444 27.2222C44.4444 11.5742 34.4952 -1.11108 22.2222 -1.11108C9.94923 -1.11108 0 11.5742 0 27.2222C0 42.8703 9.94923 55.5556 22.2222 55.5556Z" fill="url(#paint2_linear)"/>
</g>
</g>
<defs>
<linearGradient id="paint0_linear" x1="11.1111" y1="56.6667" x2="11.1111" y2="80.0001" gradientUnits="userSpaceOnUse">
<stop stop-color="#D7EAE1"/>
<stop offset="1" stop-color="#9ACABD"/>
</linearGradient>
<linearGradient id="paint1_linear" x1="7.62124" y1="33.935" x2="35.4913" y2="71.1736" gradientUnits="userSpaceOnUse">
<stop stop-color="#92C7B8"/>
<stop offset="1" stop-color="#0D6763"/>
</linearGradient>
<linearGradient id="paint2_linear" x1="12.312" y1="13.8985" x2="12.312" y2="55.5556" gradientUnits="userSpaceOnUse">
<stop stop-color="#C4E1D3"/>
<stop offset="1" stop-color="#54A295"/>
</linearGradient>
</defs>
</svg>
