<svg xmlns="http://www.w3.org/2000/svg" width="40" height="40" viewBox="0 0 40 40">
  <g fill="none" fill-rule="evenodd">
    <circle cx="20" cy="20" r="20" fill="#c0a46b"/>
    <path fill="#FFF" fill-rule="nonzero" d="M22.6252716,24.1209031 C23.1804095,23.6459355 23.5,22.9518971 23.5,22.2212999 L23.5,18.5 L24.5,18.5 L24.5,22.2212999 C24.5,23.244136 24.0525734,24.2157897 23.2753803,24.8807443 L20,27.6831101 L16.7246197,24.8807443 C15.9474266,24.2157897 15.5,23.244136 15.5,22.2212999 L15.5,18.5 L16.5,18.5 L16.5,22.2212999 C16.5,22.9518971 16.8195905,23.6459355 17.3747284,24.1209031 L20,26.3670457 L22.6252716,24.1209031 Z"/>
    <path fill="#FFF" fill-rule="nonzero" d="M22.6462615,20.2701371 C23.1887989,19.7954168 23.5,19.1096018 23.5,18.3886953 L23.5,15 L24.5,15 L24.5,18.3886953 C24.5,19.3979644 24.0643185,20.3581054 23.3047661,21.0227137 L20,23.9143841 L16.6952339,21.0227137 C15.9356815,20.3581054 15.5,19.3979644 15.5,18.3886953 L15.5,15 L16.5,15 L16.5,18.3886953 C16.5,19.1096018 16.8112011,19.7954168 17.3537385,20.2701371 L20,22.5856159 L22.6462615,20.2701371 Z"/>
    <path fill="#FFF" fill-rule="nonzero" d="M20.3152963,18.861943 L19.6847037,18.861943 L20,18.6057647 L20.3152963,18.861943 Z M22.5764816,16.5123735 C23.1607568,16.0376498 23.5,15.3249099 23.5,14.5720885 L23.5,13 L24.5,13 L24.5,14.5720885 C24.5,15.6260385 24.0250596,16.6238744 23.2070742,17.2884875 L20,19.8942353 L16.7929258,17.2884875 C15.9749404,16.6238744 15.5,15.6260385 15.5,14.5720885 L15.5,13 L16.5,13 L16.5,14.5720885 C16.5,15.3249099 16.8392432,16.0376498 17.4235184,16.5123735 L20,18.6057647 L22.5764816,16.5123735 Z M19.5,13 L20.5,13 L20.5,29 L19.5,29 L19.5,13 Z"/>
  </g>
</svg>
