<svg width="48" height="48" viewBox="0 0 48 48" fill="none" xmlns="http://www.w3.org/2000/svg">
<circle cx="24" cy="24" r="23.5" fill="white" stroke="#FAF7F0"/>
<path d="M13 17.7612C13 17.7612 23.8667 16.8368 29.1756 19.3672V35.0002C29.1756 35.0002 21.9207 32.7817 13 33.7176V17.7612Z" stroke="#C0A46B" stroke-width="1.2" stroke-miterlimit="10" stroke-linecap="round" stroke-linejoin="round"/>
<path d="M29.1772 19.3664C29.1772 19.3664 28.788 14.4096 34.9998 13V29.5688C34.9998 29.5688 31.3723 29.0027 29.1772 34.9994" stroke="#C0A46B" stroke-width="1.2" stroke-miterlimit="10" stroke-linecap="round" stroke-linejoin="round"/>
<path d="M16.364 25.9052C16.364 25.9052 20.2405 25.0156 26.0787 26.8411" stroke="#C0A46B" stroke-width="1.2" stroke-miterlimit="10" stroke-linecap="round" stroke-linejoin="round"/>
<path d="M16.364 29.2636C16.364 29.2636 20.5986 28.4433 26.0787 30.1995" stroke="#C0A46B" stroke-width="1.2" stroke-miterlimit="10" stroke-linecap="round" stroke-linejoin="round"/>
<path d="M16.364 22.4961C16.364 22.4961 20.5986 21.6757 26.0787 23.432" stroke="#C0A46B" stroke-width="1.2" stroke-miterlimit="10" stroke-linecap="round" stroke-linejoin="round"/>
</svg>
