<svg width="48" height="48" viewBox="0 0 48 48" fill="none" xmlns="http://www.w3.org/2000/svg">
<circle cx="24" cy="24" r="23.5" fill="white" stroke="#FAF7F0"/>
<path d="M19.3892 24.6636C19.3892 24.6636 21.1469 26.3216 24.2579 26.3216C27.3689 26.3216 28.5547 24.6636 28.5547 24.6636" stroke="#C0A46B" stroke-width="1.2" stroke-miterlimit="10" stroke-linecap="round"/>
<path d="M19.6399 21.3474C20.4027 21.3474 21.021 20.7688 21.021 20.0549C21.021 19.3411 20.4027 18.7625 19.6399 18.7625C18.8771 18.7625 18.2588 19.3411 18.2588 20.0549C18.2588 20.7688 18.8771 21.3474 19.6399 21.3474Z" fill="#C0A46B"/>
<path d="M28.3586 21.3484C29.1214 21.3484 29.7397 20.7697 29.7397 20.0559C29.7397 19.3421 29.1214 18.7634 28.3586 18.7634C27.5959 18.7634 26.9775 19.3421 26.9775 20.0559C26.9775 20.7697 27.5959 21.3484 28.3586 21.3484Z" fill="#C0A46B"/>
<path d="M30.5498 12H17.4363C14.9949 12 13 13.8669 13 16.1516V28.4237C13 30.5256 14.3253 32.2098 16.7666 32.4709C17.1294 32.51 17.3944 32.7973 17.3247 33.1367C17.1852 33.8808 17.0596 34.5728 17.0596 34.5728C16.7666 35.8 18.0501 36.753 19.0406 36.048L23.0723 33.1759C23.6024 32.7972 24.2581 32.5884 24.9277 32.5884H30.5637C33.019 32.5884 35 30.7214 35 28.4367V16.1647C35 13.8669 33.0051 12 30.5498 12Z" stroke="#C0A46B" stroke-width="1.2" stroke-miterlimit="10"/>
</svg>
