<svg width="48" height="48" viewBox="0 0 48 48" fill="none" xmlns="http://www.w3.org/2000/svg">
<circle cx="24" cy="24" r="23.5" fill="white" stroke="#FAF7F0"/>
<path d="M26.2836 18.5261C27.8909 18.5261 29.1939 17.2891 29.1939 15.7631C29.1939 14.2371 27.8909 13 26.2836 13C24.6763 13 23.3733 14.2371 23.3733 15.7631C23.3733 17.2891 24.6763 18.5261 26.2836 18.5261Z" stroke="#C0A46B" stroke-width="1.2" stroke-miterlimit="10"/>
<path d="M15.9103 29.4841C17.5176 29.4841 18.8206 28.2471 18.8206 26.7211C18.8206 25.1951 17.5176 23.958 15.9103 23.958C14.303 23.958 13 25.1951 13 26.7211C13 28.2471 14.303 29.4841 15.9103 29.4841Z" stroke="#C0A46B" stroke-width="1.2" stroke-miterlimit="10"/>
<path d="M32.0897 35C33.697 35 35 33.7629 35 32.2369C35 30.7109 33.697 29.4739 32.0897 29.4739C30.4824 29.4739 29.1794 30.7109 29.1794 32.2369C29.1794 33.7629 30.4824 35 32.0897 35Z" stroke="#C0A46B" stroke-width="1.2" stroke-miterlimit="10"/>
<path d="M24.3476 17.8127L18.2485 24.6477" stroke="#C0A46B" stroke-width="1.2" stroke-miterlimit="10"/>
<path d="M18.8062 28.3098L29.1941 31.1786" stroke="#C0A46B" stroke-width="1.2" stroke-miterlimit="10"/>
<path d="M32.0893 29.4856L27.8979 18.05" stroke="#C0A46B" stroke-width="1.2" stroke-miterlimit="10"/>
</svg>
