<svg xmlns="http://www.w3.org/2000/svg" viewBox="0 0 16 16">
  <path d="M1.666 8.5a.5.5 0 010-1h12.667a.5.5 0 110 1H1.666zm6.833-4.04v1.207a.5.5 0 01-.87.337l-2.65-2.65a.5.5 0 11.708-.708L7.499 4.46V-.333a.5.5 0 011 0V4.46l1.814-1.814a.5.5 0 01.707.707L8.353 6.02a.498.498 0 01-.217.127L8.5 4.46zm-1 7.081v-1.208c0-.13.05-.249.132-.338l.015-.015a.498.498 0 01.707 0l2.667 2.666a.5.5 0 01-.707.707L8.499 11.54v4.793a.5.5 0 11-1 0v-4.792l-1.812 1.812a.5.5 0 11-.708-.707l2.652-2.65-.132 1.545z" fill-rule="nonzero"/>
</svg>
