<svg xmlns="http://www.w3.org/2000/svg" xmlns:xlink="http://www.w3.org/1999/xlink" width="16" height="16" viewBox="0 0 16 16">
    <defs>
        <path id="a" d="M5.75 5.157h-1.5V.25h11.5v11.5h-4.726v-1.5h3.226v-8.5h-8.5z"/>
        <path id="b" d="M.25 5.75v-1.5h2v1.5h-2zm4 0v-1.5h2.5v1.5h-2.5zm4.75 0v-1.5h2.75v1.5H9zM10.25 7h1.5v2h-1.5V7zm0 4h1.5v2h-1.5v-2zm1.5 3.25v1.5h-2.5v-1.5h2.5zm-4.25 0v1.5H5v-1.5h2.5zm-4.5 0v1.5H.25v-1.5H3zM1.75 13H.25v-2h1.5v2zm0-4H.25V7h1.5v2z"/>
    </defs>
    <g fill="none" fill-rule="evenodd">
        <path d="M0 0h16v16H0z"/>
        <use fill="#437D6D" xlink:href="#a"/>
        <use fill="#4E8764" xlink:href="#a"/>
        <use fill="#3D725E" xlink:href="#a"/>
        <use fill="#4A7C6E" xlink:href="#a"/>
        <g>
            <use fill="#437D6D" xlink:href="#b"/>
            <use fill="#4E8764" xlink:href="#b"/>
            <use fill="#3D725E" xlink:href="#b"/>
            <use fill="#4A7C6E" xlink:href="#b"/>
        </g>
    </g>
</svg>
