<svg width="32" height="32" viewBox="0 0 32 32" fill="none" xmlns="http://www.w3.org/2000/svg">
<path d="M16 32C7.18462 32 0 24.8154 0 16C0 7.18462 7.18462 0 16 0C24.8154 0 32 7.18462 32 16C32 24.8154 24.8154 32 16 32ZM16 1.23077C7.86154 1.23077 1.23077 7.86154 1.23077 16C1.23077 24.1385 7.86154 30.7692 16 30.7692C24.1385 30.7692 30.7692 24.1385 30.7692 16C30.7692 7.86154 24.1385 1.23077 16 1.23077ZM16 25.1692C15.6615 25.1692 15.3846 24.8923 15.3846 24.5538V16.6154H7.44615C7.10769 16.6154 6.83077 16.3385 6.83077 16C6.83077 15.6615 7.10769 15.3846 7.44615 15.3846H15.3846V7.44615C15.3846 7.10769 15.6615 6.83077 16 6.83077C16.3385 6.83077 16.6154 7.10769 16.6154 7.44615V15.3846H24.5538C24.8923 15.3846 25.1692 15.6615 25.1692 16C25.1692 16.3385 24.8923 16.6154 24.5538 16.6154H16.6154V24.5538C16.6154 24.8923 16.3385 25.1692 16 25.1692Z" fill="currentColor"/>
</svg>
