<svg width="32" height="32" viewBox="0 0 32 32" fill="none" xmlns="http://www.w3.org/2000/svg">
<path d="M16 0C7.18462 0 0 7.18462 0 16C0 24.8154 7.18462 32 16 32C24.8154 32 32 24.8154 32 16C32 7.18462 24.8154 0 16 0ZM16 30.7692C7.86154 30.7692 1.23077 24.1385 1.23077 16C1.23077 7.86154 7.86154 1.23077 16 1.23077C24.1385 1.23077 30.7692 7.86154 30.7692 16C30.7692 24.1385 24.1385 30.7692 16 30.7692Z" fill="currentColor"/>
<path d="M22.0615 11.5538C21.8308 11.2923 21.4462 11.2769 21.1846 11.5077C20.9385 11.7385 20.9077 12.1231 21.1385 12.3846L24.4 16.0154L21.1385 19.6462C20.9077 19.9077 20.9385 20.2923 21.1846 20.5231C21.3077 20.6308 21.4462 20.6769 21.6 20.6769C21.7692 20.6769 21.9385 20.6154 22.0615 20.4769L25.6923 16.4462C25.9077 16.2154 25.9077 15.8615 25.6923 15.6154L22.0615 11.5846V11.5538Z" fill="currentColor"/>
<path d="M10.8154 11.5077C10.5538 11.2769 10.1692 11.3077 9.93846 11.5538L6.30769 15.5846C6.09231 15.8154 6.09231 16.1692 6.30769 16.4154L9.93846 20.4462C10.0615 20.5846 10.2308 20.6462 10.4 20.6462C10.5538 20.6462 10.6923 20.6 10.8154 20.4923C11.0615 20.2615 11.0923 19.8769 10.8615 19.6154L7.6 15.9846L10.8615 12.3538C11.0923 12.0923 11.0615 11.7077 10.8154 11.4769V11.5077Z" fill="currentColor"/>
<path d="M18.1846 10.0462C17.8615 9.92308 17.5077 10.0923 17.4 10.4154L13.4462 21.1846C13.3231 21.5077 13.4923 21.8615 13.8154 21.9692C13.8769 22 13.9538 22.0154 14.0308 22.0154C14.2769 22.0154 14.5231 21.8615 14.6154 21.6154L18.5692 10.8462C18.6923 10.5231 18.5231 10.1692 18.2 10.0615L18.1846 10.0462Z" fill="currentColor"/>
</svg>
