<svg width="32" height="32" viewBox="0 0 32 32" fill="none" xmlns="http://www.w3.org/2000/svg">
<path d="M16 0C7.18462 0 0 7.18462 0 16C0 24.8154 7.18462 32 16 32C24.8154 32 32 24.8154 32 16C32 7.18462 24.8154 0 16 0ZM16 30.7692C7.86154 30.7692 1.23077 24.1385 1.23077 16C1.23077 7.86154 7.86154 1.23077 16 1.23077C24.1385 1.23077 30.7692 7.86154 30.7692 16C30.7692 24.1385 24.1385 30.7692 16 30.7692Z" fill="currentColor"/>
<path d="M26.3538 10.8769C26.1846 10.7692 25.9692 10.7385 25.7846 10.8154L22.6615 12.0308C22.6 9.87692 21.0462 8.13846 19.1231 8.13846H10.4769C8.52308 8.13846 6.92308 9.95385 6.92308 12.1692V19.8308C6.92308 22.0615 8.50769 23.8615 10.4769 23.8615H19.1231C21.0308 23.8615 22.5846 22.1231 22.6615 19.9692L25.7846 21.1846C25.7846 21.1846 25.9385 21.2308 26.0154 21.2308C26.1385 21.2308 26.2615 21.2 26.3692 21.1231C26.5385 21.0154 26.6308 20.8154 26.6308 20.6154V11.3846C26.6308 11.1846 26.5385 10.9846 26.3692 10.8769H26.3538ZM21.4308 19.8308C21.4308 21.3846 20.3846 22.6308 19.1077 22.6308H10.4615C9.18462 22.6308 8.13846 21.3692 8.13846 19.8308V12.1692C8.13846 10.6154 9.18462 9.36923 10.4615 9.36923H19.1077C20.3846 9.36923 21.4308 10.6308 21.4308 12.1692V19.8308ZM25.3846 19.7231L22.6615 18.6615V13.3538L25.3846 12.2923V19.7231Z" fill="currentColor"/>
<path d="M13.8769 14.0615C13.6 13.8923 13.2462 14.1077 13.2462 14.4308V17.5692C13.2462 17.8923 13.6 18.0923 13.8769 17.9385L16.6 16.3692C16.8769 16.2 16.8769 15.8 16.6 15.6308L13.8769 14.0615Z" fill="currentColor"/>
</svg>
