<svg width="32" height="32" viewBox="0 0 32 32" fill="none" xmlns="http://www.w3.org/2000/svg">
<path d="M10.2019 19.537C9.94036 19.537 9.66953 19.4249 9.49209 19.2101L6.87717 16.1095C6.58766 15.764 6.58766 15.2504 6.87717 14.9048L9.49209 11.8043C9.82829 11.412 10.4166 11.356 10.8089 11.6922C11.2011 12.0284 11.2572 12.6168 10.921 13.009L8.81034 15.5025L10.921 17.996C11.2572 18.3883 11.2011 18.9766 10.8089 19.3128C10.6314 19.4622 10.4166 19.537 10.2019 19.537Z" fill="currentColor"/>
<path d="M21.7822 19.537C21.5674 19.537 21.3526 19.4622 21.1845 19.3128C20.7923 18.9766 20.7362 18.3883 21.0724 17.996L23.1831 15.5025L21.0724 13.009C20.7362 12.6168 20.7923 12.0284 21.1845 11.6922C21.5767 11.356 22.1651 11.412 22.5013 11.8043L25.1162 14.9048C25.4057 15.2504 25.4057 15.764 25.1162 16.1095L22.5013 19.2101C22.3145 19.4249 22.0437 19.537 21.7822 19.537Z" fill="currentColor"/>
<path d="M14.1243 21.4047C14.0215 21.4047 13.9095 21.386 13.8067 21.3486C13.3211 21.1712 13.069 20.6389 13.2464 20.1533L16.982 9.88035C17.1594 9.39473 17.6918 9.14257 18.1774 9.32001C18.663 9.49746 18.9152 10.0298 18.7377 10.5154L15.0021 20.7883C14.8621 21.1712 14.5072 21.4047 14.1243 21.4047Z" fill="currentColor"/>
<rect x="0.85" y="0.85" width="30.3" height="30.3" rx="15.15" stroke="currentColor" stroke-width="1.7"/>
</svg>
