<svg width="32" height="32" viewBox="0 0 32 32" fill="none" xmlns="http://www.w3.org/2000/svg">
<path d="M16 0C7.18667 0 0 7.18667 0 16C0 24.8133 7.18667 32 16 32C24.8133 32 32 24.8133 32 16C32 7.18667 24.8133 0 16 0ZM16 30.7733C7.86667 30.7733 1.22667 24.1333 1.22667 16C1.22667 7.86667 7.86667 1.22667 16 1.22667C24.1333 1.22667 30.7733 7.85333 30.7733 16C30.7733 24.1467 24.1467 30.7733 16 30.7733Z" fill="currentColor"/>
<path d="M24.2667 9.44H12.8933C12.5467 9.44 12.2533 9.73333 12.2533 10.08C12.2533 10.4267 12.5467 10.72 12.8933 10.72H24.2667C24.6133 10.72 24.9067 10.4267 24.9067 10.08C24.9067 9.73333 24.6133 9.44 24.2667 9.44Z" fill="currentColor"/>
<path d="M24.2667 15.3333H12.8933C12.5467 15.3333 12.2533 15.6267 12.2533 15.9733C12.2533 16.32 12.5467 16.6133 12.8933 16.6133H24.2667C24.6133 16.6133 24.9067 16.32 24.9067 15.9733C24.9067 15.6267 24.6133 15.3333 24.2667 15.3333Z" fill="currentColor"/>
<path d="M24.2667 21.24H12.8933C12.5467 21.24 12.2533 21.5333 12.2533 21.88C12.2533 22.2267 12.5467 22.52 12.8933 22.52H24.2667C24.6133 22.52 24.9067 22.2267 24.9067 21.88C24.9067 21.5333 24.6133 21.24 24.2667 21.24Z" fill="currentColor"/>
<path d="M7.36 17.6133H9.22667C9.37333 17.6133 9.48 17.4933 9.48 17.36C9.48 17.2267 9.36 17.1067 9.22667 17.1067H7.68C7.76 16.9467 7.94667 16.7333 8.38667 16.5333C8.92 16.3067 9.28 15.9467 9.34667 15.5467C9.4 15.24 9.29333 14.9333 9.02667 14.6933C8.68 14.36 8.24 14.28 7.82667 14.4667C7.42667 14.64 7.10667 15.04 7.10667 15.3733C7.10667 15.52 7.22667 15.6267 7.36 15.6267C7.49333 15.6267 7.61333 15.5067 7.61333 15.3733C7.61333 15.28 7.77333 15.04 8.02667 14.9333C8.25333 14.84 8.46667 14.88 8.66667 15.0667C8.8 15.1867 8.85333 15.32 8.82667 15.4533C8.78667 15.68 8.54667 15.9067 8.17333 16.0533C6.96 16.5733 7.09333 17.3733 7.09333 17.4133C7.12 17.5333 7.21333 17.6267 7.34667 17.6267L7.36 17.6133Z" fill="currentColor"/>
<path d="M9.12 21.8C9.29333 21.64 9.4 21.4267 9.4 21.1867C9.4 20.7067 8.98667 20.2267 8.30667 20.2267C7.57333 20.2267 7.2 20.7867 7.12 21.08C7.08 21.2133 7.14667 21.36 7.28 21.4C7.41333 21.44 7.56 21.3733 7.61333 21.24C7.64 21.1867 7.78667 20.76 8.32 20.76C8.68 20.76 8.89333 20.9867 8.89333 21.2C8.89333 21.2933 8.85333 21.3867 8.76 21.4533C8.68 21.52 8.53333 21.5867 8.25333 21.6H8.14667C8.01333 21.6 7.89333 21.72 7.90667 21.8667C7.90667 22.0267 8.09333 22.12 8.25333 22.12C8.41333 22.12 8.72 22.16 8.88 22.3067C8.96 22.3733 9 22.4667 9 22.6C9 22.9467 8.56 23.04 8.30667 23.04C7.76 23.04 7.61333 22.6933 7.6 22.6533C7.56 22.52 7.41333 22.44 7.28 22.4933C7.14667 22.5333 7.06667 22.68 7.12 22.8133C7.12 22.84 7.37333 23.56 8.30667 23.56C9.01333 23.56 9.52 23.1733 9.52 22.6C9.52 22.3333 9.42667 22.1067 9.24 21.9333C9.2 21.8933 9.16 21.8667 9.12 21.8267V21.8Z" fill="currentColor"/>
<path d="M7.49333 9.72L8.25333 9.21333V11.44C8.25333 11.5867 8.37333 11.6933 8.50667 11.6933C8.64 11.6933 8.76 11.5733 8.76 11.44V8.73333C8.76 8.64 8.70667 8.54667 8.62667 8.50667C8.54667 8.46667 8.44 8.46667 8.36 8.50667L7.2 9.28C7.08 9.36 7.04 9.52 7.13333 9.64C7.22667 9.76 7.37333 9.78667 7.49333 9.70667V9.72Z" fill="currentColor"/>
</svg>
