<svg width="32" height="32" viewBox="0 0 32 32" fill="none" xmlns="http://www.w3.org/2000/svg">
<path d="M16 0C7.18667 0 0 7.18667 0 16C0 24.8133 7.18667 32 16 32C24.8133 32 32 24.8133 32 16C32 7.18667 24.8133 0 16 0ZM16 30.7733C7.86667 30.7733 1.22667 24.1333 1.22667 16C1.22667 7.86667 7.86667 1.22667 16 1.22667C24.1333 1.22667 30.7733 7.85333 30.7733 16C30.7733 24.1467 24.1467 30.7733 16 30.7733Z" fill="currentColor"/>
<path d="M24.3333 9.46667H12.96C12.6133 9.46667 12.32 9.76 12.32 10.1067C12.32 10.4533 12.6133 10.7467 12.96 10.7467H24.3333C24.68 10.7467 24.9733 10.4533 24.9733 10.1067C24.9733 9.76 24.68 9.46667 24.3333 9.46667Z" fill="currentColor"/>
<path d="M8.32 8.8C7.6 8.8 7.02667 9.37333 7.02667 10.0933C7.02667 10.8133 7.6 11.3867 8.32 11.3867C9.04 11.3867 9.61333 10.8133 9.61333 10.0933C9.61333 9.37333 9.04 8.8 8.32 8.8Z" fill="currentColor"/>
<path d="M24.3333 15.3467H12.96C12.6133 15.3467 12.32 15.64 12.32 15.9867C12.32 16.3333 12.6133 16.6267 12.96 16.6267H24.3333C24.68 16.6267 24.9733 16.3333 24.9733 15.9867C24.9733 15.64 24.68 15.3467 24.3333 15.3467Z" fill="currentColor"/>
<path d="M8.32 14.7067C7.6 14.7067 7.02667 15.28 7.02667 16C7.02667 16.72 7.6 17.2933 8.32 17.2933C9.04 17.2933 9.61333 16.72 9.61333 16C9.61333 15.28 9.04 14.7067 8.32 14.7067Z" fill="currentColor"/>
<path d="M24.3333 21.2533H12.96C12.6133 21.2533 12.32 21.5467 12.32 21.8933C12.32 22.24 12.6133 22.5333 12.96 22.5333H24.3333C24.68 22.5333 24.9733 22.24 24.9733 21.8933C24.9733 21.5467 24.68 21.2533 24.3333 21.2533Z" fill="currentColor"/>
<path d="M8.32 20.6133C7.6 20.6133 7.02667 21.1867 7.02667 21.9067C7.02667 22.6267 7.6 23.2 8.32 23.2C9.04 23.2 9.61333 22.6267 9.61333 21.9067C9.61333 21.1867 9.04 20.6133 8.32 20.6133Z" fill="currentColor"/>
</svg>
