<svg width="32" height="32" viewBox="0 0 32 32" fill="none" xmlns="http://www.w3.org/2000/svg">
<path d="M16 0C7.18667 0 0 7.18667 0 16C0 24.8133 7.18667 32 16 32C24.8133 32 32 24.8133 32 16C32 7.18667 24.8133 0 16 0ZM16 30.7733C7.86667 30.7733 1.22667 24.1333 1.22667 16C1.22667 7.86667 7.86667 1.22667 16 1.22667C24.1333 1.22667 30.7733 7.85333 30.7733 16C30.7733 24.1467 24.1467 30.7733 16 30.7733Z" fill="currentColor"/>
<path d="M22.16 9.22667H9.84C9.50667 9.22667 9.22667 9.50667 9.22667 9.84C9.22667 10.1733 9.50667 10.4533 9.84 10.4533H22.1467C22.48 10.4533 22.76 10.1733 22.76 9.84C22.76 9.50667 22.48 9.22667 22.1467 9.22667H22.16Z" fill="currentColor"/>
<path d="M22.16 21.5333H9.84C9.50667 21.5333 9.22667 21.8133 9.22667 22.1467C9.22667 22.48 9.50667 22.76 9.84 22.76H22.1467C22.48 22.76 22.76 22.48 22.76 22.1467C22.76 21.8133 22.48 21.5333 22.1467 21.5333H22.16Z" fill="currentColor"/>
<path d="M7.74667 14.5333C6.93333 14.5333 6.28 15.1867 6.28 16C6.28 16.8133 6.93333 17.4667 7.74667 17.4667C8.56 17.4667 9.21333 16.8133 9.21333 16C9.21333 15.1867 8.56 14.5333 7.74667 14.5333Z" fill="currentColor"/>
<path d="M16 17.4667C16.81 17.4667 17.4667 16.81 17.4667 16C17.4667 15.19 16.81 14.5333 16 14.5333C15.19 14.5333 14.5333 15.19 14.5333 16C14.5333 16.81 15.19 17.4667 16 17.4667Z" fill="currentColor"/>
<path d="M24.2533 17.4667C25.0634 17.4667 25.72 16.81 25.72 16C25.72 15.19 25.0634 14.5333 24.2533 14.5333C23.4433 14.5333 22.7867 15.19 22.7867 16C22.7867 16.81 23.4433 17.4667 24.2533 17.4667Z" fill="currentColor"/>
</svg>
