<svg width="32" height="32" viewBox="0 0 32 32" fill="none" xmlns="http://www.w3.org/2000/svg">
<path d="M16 0C7.18667 0 0 7.18667 0 16C0 24.8133 7.18667 32 16 32C24.8133 32 32 24.8133 32 16C32 7.18667 24.8133 0 16 0ZM16 30.7733C7.86667 30.7733 1.22667 24.1333 1.22667 16C1.22667 7.86667 7.86667 1.22667 16 1.22667C24.1333 1.22667 30.7733 7.85333 30.7733 16C30.7733 24.1467 24.1467 30.7733 16 30.7733Z" fill="currentColor"/>
<path d="M24.3333 9.46667H12.96C12.6133 9.46667 12.32 9.76 12.32 10.1067C12.32 10.4533 12.6133 10.7467 12.96 10.7467H24.3333C24.68 10.7467 24.9733 10.4533 24.9733 10.1067C24.9733 9.76 24.68 9.46667 24.3333 9.46667Z" fill="currentColor"/>
<path d="M9.30667 22.92V9.08C9.30667 8.73333 9.01333 8.44 8.66667 8.44C8.32 8.44 8.02667 8.73333 8.02667 9.08V22.9067C8.02667 23.2533 8.32 23.5467 8.66667 23.5467C9.01333 23.5467 9.30667 23.2533 9.30667 22.9067V22.92Z" fill="currentColor"/>
<path d="M24.3333 15.3467H12.96C12.6133 15.3467 12.32 15.64 12.32 15.9867C12.32 16.3333 12.6133 16.6267 12.96 16.6267H24.3333C24.68 16.6267 24.9733 16.3333 24.9733 15.9867C24.9733 15.64 24.68 15.3467 24.3333 15.3467Z" fill="currentColor"/>
<path d="M20.4933 21.2533H12.9733C12.6267 21.2533 12.3333 21.5467 12.3333 21.8933C12.3333 22.24 12.6267 22.5333 12.9733 22.5333H20.4933C20.84 22.5333 21.1333 22.24 21.1333 21.8933C21.1333 21.5467 20.84 21.2533 20.4933 21.2533Z" fill="currentColor"/>
</svg>
