<svg xmlns="http://www.w3.org/2000/svg" width="33" height="33" viewBox="0 0 33 33">
  <g fill="none" fill-rule="evenodd" stroke="#333">
    <path d="M32.5,16.5 C32.5,25.3366 25.3366,32.5 16.5,32.5 C7.66344,32.5 0.5,25.3366 0.5,16.5 C0.5,7.66344 7.66344,0.5 16.5,0.5 C25.3366,0.5 32.5,7.66344 32.5,16.5 Z"/>
    <path d="M22 14.5107L22 16.3193C22 19.3214 19.5433 21.7448 16.5 21.7448 13.4567 21.7448 11 19.3214 11 16.3193L11 14.5107M16.5002 21.7446L16.5002 26.4999"/>
    <path d="M16.5002,8 C18.3335,8 19.8002,9.44681 19.8002,11.2553 L19.8002,16.3191 C19.8002,18.1277 18.3335,19.5745 16.5002,19.5745 C14.6669,19.5745 13.2002,18.1277 13.2002,16.3191 L13.2002,11.2553 C13.2002,9.44681 14.6669,8 16.5002,8 Z"/>
  </g>
</svg>
