<svg width="32" height="32" viewBox="0 0 32 32" fill="none" xmlns="http://www.w3.org/2000/svg">
<path d="M21.9077 8.46154H10.0923C8.26154 8.46154 7.44615 9.27692 7.44615 11.1077V20.8769C7.44615 22.7077 8.26154 23.5231 10.0923 23.5231H21.9077C23.7385 23.5231 24.5538 22.7077 24.5538 20.8769V11.1077C24.5538 9.27692 23.7385 8.46154 21.9077 8.46154ZM10.0923 9.69231H21.9077C23.0615 9.69231 23.3231 9.95385 23.3231 11.1077V17.0154L15.8308 13.6615C14.1385 12.9077 12.1538 13.2308 10.7692 14.4769L8.67692 16.3846V11.1077C8.67692 9.95385 8.93846 9.69231 10.0923 9.69231ZM21.9077 22.3077H10.0923C8.93846 22.3077 8.67692 22.0462 8.67692 20.8923V18.0462L11.6 15.3846C12.6154 14.4615 14.0769 14.2308 15.3231 14.7846L23.3231 18.3538V20.8769C23.3231 22.0308 23.0615 22.2923 21.9077 22.2923V22.3077Z" fill="currentColor"/>
<path d="M17.8462 12.9538H17.8308V12.9692H17.8462V12.9538Z" fill="currentColor"/>
<path d="M20.2769 14.1692C20.9538 14.1692 21.4923 13.6154 21.4923 12.9538C21.4923 12.2923 20.9385 11.7385 20.2769 11.7385C19.6154 11.7385 19.0615 12.2923 19.0615 12.9538C19.0615 13.6154 19.6154 14.1692 20.2769 14.1692Z" fill="currentColor"/>
<path d="M16 0C7.18462 0 0 7.18462 0 16C0 24.8154 7.18462 32 16 32C24.8154 32 32 24.8154 32 16C32 7.18462 24.8154 0 16 0ZM16 30.7692C7.86154 30.7692 1.23077 24.1385 1.23077 16C1.23077 7.86154 7.86154 1.23077 16 1.23077C24.1385 1.23077 30.7692 7.86154 30.7692 16C30.7692 24.1385 24.1385 30.7692 16 30.7692Z" fill="currentColor"/>
</svg>
