<svg width="32" height="32" viewBox="0 0 32 32" fill="none" xmlns="http://www.w3.org/2000/svg">
<path d="M21.9765 10.4949C21.3576 10.0749 20.6355 9.85217 19.888 9.85217C19.436 9.85217 19.0693 10.219 19.0693 10.6709C19.0693 11.1228 19.436 11.4896 19.888 11.4896C20.3055 11.4896 20.71 11.6141 21.0563 11.849C21.6359 12.242 21.9815 12.8905 21.9815 13.5831V20.4849C21.9815 21.6393 21.0424 22.5784 19.888 22.5784H12.9861C11.8317 22.5784 10.8918 21.6393 10.8918 20.4849V17.034C10.8918 16.5821 10.5251 16.2153 10.0731 16.2153C9.62118 16.2153 9.25439 16.5821 9.25439 17.034V20.4849C9.25439 22.5424 10.9287 24.2159 12.9861 24.2159H19.888C21.9454 24.2159 23.6189 22.5424 23.6189 20.4849V13.5839C23.6189 12.3485 23.0049 11.1932 21.9757 10.4949H21.9765Z" fill="currentColor"/>
<path d="M15.4637 12.7757C15.4105 12.8486 15.354 12.9174 15.2934 12.9837C14.9299 13.3775 14.5541 13.5052 14.55 13.506L14.5623 13.5027V13.506C14.234 13.6108 13.9949 13.9195 13.9949 14.2838C13.9949 14.7349 14.3609 15.1009 14.812 15.1009C14.8857 15.1009 14.9577 15.0902 15.0257 15.0714V15.0731C15.0306 15.0714 15.0412 15.0681 15.0543 15.064C15.0543 15.064 15.0552 15.064 15.056 15.064C15.3565 14.9658 17.6702 14.0955 17.6702 10.7248C17.6702 10.706 17.6685 10.688 17.6677 10.67C17.6382 9.55895 16.7295 8.66736 15.6119 8.66736C14.4943 8.66736 13.5544 9.58842 13.5544 10.7248C13.5544 11.8612 14.3969 12.7004 15.4645 12.7765L15.4637 12.7757Z" fill="currentColor"/>
<path d="M9.1071 14.2831C9.1071 14.7342 9.47307 15.1002 9.92419 15.1002C9.99787 15.1002 10.0699 15.0895 10.1379 15.0707V15.0723C10.1428 15.0707 10.1534 15.0674 10.1665 15.0633C10.1665 15.0633 10.1673 15.0633 10.1682 15.0633C10.4678 14.9651 12.7823 14.0956 12.7823 10.7241C12.7823 10.7061 12.7807 10.6889 12.7799 10.6717C12.7521 9.55985 11.8425 8.66663 10.7241 8.66663C9.6057 8.66663 8.66663 9.58769 8.66663 10.7241C8.66663 11.8605 9.50909 12.6997 10.5767 12.7758C10.5235 12.8487 10.467 12.9174 10.4064 12.9838C10.0429 13.3776 9.66711 13.5053 9.66301 13.5061L9.67529 13.5028V13.5061C9.34699 13.6109 9.10792 13.9196 9.10792 14.2839L9.1071 14.2831Z" fill="currentColor"/>
<rect x="0.85" y="0.85" width="30.3" height="30.3" rx="15.15" stroke="currentColor" stroke-width="1.7"/>
</svg>
