<svg width="32" height="32" viewBox="0 0 32 32" fill="none" xmlns="http://www.w3.org/2000/svg">
<path d="M16 0C7.18462 0 0 7.18462 0 16C0 24.8154 7.18462 32 16 32C24.8154 32 32 24.8154 32 16C32 7.18462 24.8154 0 16 0ZM16 30.7692C7.86154 30.7692 1.23077 24.1385 1.23077 16C1.23077 7.86154 7.86154 1.23077 16 1.23077C24.1385 1.23077 30.7692 7.86154 30.7692 16C30.7692 24.1385 24.1385 30.7692 16 30.7692Z" fill="currentColor"/>
<path d="M16 18.3077C18.4 18.3077 20.3538 16.3538 20.3538 13.9538V10.2154C20.3538 7.81538 18.4 5.86154 16 5.86154C13.6 5.86154 11.6462 7.81538 11.6462 10.2154V13.9538C11.6462 16.3538 13.6 18.3077 16 18.3077ZM12.8769 10.2C12.8769 8.47692 14.2769 7.07692 16 7.07692C17.7231 7.07692 19.1231 8.47692 19.1231 10.2V13.9385C19.1231 15.6615 17.7231 17.0615 16 17.0615C14.2769 17.0615 12.8769 15.6615 12.8769 13.9385V10.2Z" fill="currentColor"/>
<path d="M22.2154 18.8615C21.9077 18.7077 21.5385 18.8308 21.3846 19.1231C20.4769 20.8769 18.3692 22 16 22C13.6308 22 11.5077 20.8769 10.6154 19.1231C10.4615 18.8154 10.0923 18.7077 9.78462 18.8615C9.47692 19.0154 9.36923 19.3846 9.52308 19.6923C10.5538 21.6923 12.8154 23.0154 15.3846 23.2V25.5385C15.3846 25.8769 15.6615 26.1538 16 26.1538C16.3385 26.1538 16.6154 25.8769 16.6154 25.5385V23.2C19.1846 23.0154 21.4462 21.6923 22.4769 19.6923C22.6308 19.3846 22.5231 19.0154 22.2154 18.8615Z" fill="currentColor"/>
</svg>
