<svg width="32" height="32" viewBox="0 0 32 32" fill="none" xmlns="http://www.w3.org/2000/svg">
<path d="M16 0C7.18667 0 0 7.18667 0 16C0 24.8133 7.18667 32 16 32C24.8133 32 32 24.8133 32 16C32 7.18667 24.8133 0 16 0ZM16 30.7733C7.86667 30.7733 1.22667 24.1333 1.22667 16C1.22667 7.86667 7.86667 1.22667 16 1.22667C24.1333 1.22667 30.7733 7.85333 30.7733 16C30.7733 24.1467 24.1467 30.7733 16 30.7733Z" fill="currentColor"/>
<path d="M16.32 9.12C16 9.12 15.7467 9.38667 15.7467 9.69333V15.4133H7.69333V9.69333C7.69333 9.37333 7.42667 9.12 7.12 9.12C6.81333 9.12 6.54667 9.38667 6.54667 9.69333V22.2933C6.54667 22.6133 6.81333 22.8667 7.12 22.8667C7.42667 22.8667 7.69333 22.6 7.69333 22.2933V16.5733H15.7333V22.2933C15.7333 22.6133 16 22.8667 16.3067 22.8667C16.6133 22.8667 16.88 22.6 16.88 22.2933V9.69333C16.88 9.37333 16.6267 9.12 16.3067 9.12H16.32Z" fill="currentColor"/>
<path d="M24.88 21.72H21.1333C21.3067 21.3333 21.7467 20.7867 22.88 20.3067C24.1467 19.7733 24.9733 18.92 25.1467 17.9733C25.28 17.24 25.0133 16.5333 24.4133 15.96C23.5867 15.1867 22.56 14.9867 21.5867 15.4133C20.6267 15.8267 19.88 16.7733 19.88 17.5733C19.88 17.8933 20.1467 18.1467 20.4533 18.1467C20.76 18.1467 21.0267 17.88 21.0267 17.5733C21.0267 17.3333 21.4133 16.76 22.0267 16.4933C22.5733 16.2533 23.1067 16.36 23.6 16.8267C23.92 17.12 24.0533 17.4533 23.9867 17.7867C23.8933 18.3333 23.3067 18.88 22.4267 19.24C19.56 20.44 19.8533 22.3333 19.88 22.4133C19.9333 22.6933 20.1733 22.8933 20.4533 22.8933H24.88C25.2133 22.8933 25.4533 22.6267 25.4533 22.32C25.4533 22.0133 25.1867 21.7467 24.88 21.7467V21.72Z" fill="currentColor"/>
</svg>
