<svg width="32" height="32" viewBox="0 0 32 32" fill="none" xmlns="http://www.w3.org/2000/svg">
<path d="M16 0C7.18667 0 0 7.18667 0 16C0 24.8133 7.18667 32 16 32C24.8133 32 32 24.8133 32 16C32 7.18667 24.8133 0 16 0ZM16 30.7733C7.86667 30.7733 1.22667 24.1333 1.22667 16C1.22667 7.86667 7.86667 1.22667 16 1.22667C24.1333 1.22667 30.7733 7.85333 30.7733 16C30.7733 24.1467 24.1467 30.7733 16 30.7733Z" fill="currentColor"/>
<path d="M16.1867 9.12C15.8533 9.12 15.6 9.38667 15.6 9.70667V15.4H7.58667V9.70667C7.58667 9.38667 7.32 9.12 7 9.12C6.68 9.12 6.41333 9.38667 6.41333 9.70667V22.2933C6.41333 22.6133 6.68 22.88 7 22.88C7.32 22.88 7.58667 22.6133 7.58667 22.2933V16.6H15.6V22.2933C15.6 22.6133 15.8667 22.88 16.1867 22.88C16.5067 22.88 16.7733 22.6133 16.7733 22.2933V9.70667C16.7733 9.38667 16.5067 9.12 16.1867 9.12Z" fill="currentColor"/>
<path d="M24.9333 19.0133C24.8267 18.92 24.72 18.8267 24.6 18.76C25.08 18.3733 25.3333 17.8267 25.3333 17.2267C25.3333 16.0933 24.36 14.9333 22.72 14.9333C20.96 14.9333 20.08 16.2667 19.8667 16.96C19.7733 17.2667 19.9467 17.6 20.24 17.6933C20.5333 17.7867 20.88 17.6267 20.9867 17.32C21.0267 17.2 21.4267 16.12 22.7067 16.12C23.6 16.12 24.1333 16.6933 24.1333 17.2267C24.1333 17.4667 24.0133 17.6933 23.8 17.8667C23.6 18.0133 23.2267 18.2 22.5733 18.24H22.3333C22.0133 18.2533 21.76 18.5333 21.7867 18.8533C21.7867 19.1733 22.0667 19.4267 22.3733 19.4267H22.6C23 19.4267 23.7333 19.52 24.1333 19.8933C24.32 20.08 24.4133 20.3067 24.4133 20.6267C24.4133 21.4933 23.3467 21.7333 22.72 21.7333C21.36 21.7333 21.0267 20.88 21 20.8C20.9067 20.4933 20.5733 20.3067 20.2667 20.4133C19.96 20.5067 19.7867 20.84 19.88 21.1467C19.8933 21.2267 20.4533 22.92 22.7333 22.92C24.12 22.92 25.6133 22.2133 25.6133 20.64C25.6133 20 25.3867 19.4533 24.9467 19.0533L24.9333 19.0133Z" fill="currentColor"/>
</svg>
