<svg xmlns="http://www.w3.org/2000/svg" width="72" height="72" viewBox="0 0 72 72">
    <g fill="none" fill-rule="evenodd">
        <path d="M0 0h72v72H0z"/>
        <path stroke="#DDD" stroke-width="4" d="M35.182 6.426c10.965 0 19.854 8.89 19.854 19.855v12.501a33.654 33.654 0 0 0 5.673 18.699H9.655a32.642 32.642 0 0 0 5.672-18.39v-12.81c0-10.965 8.89-19.855 19.855-19.855z"/>
        <path fill="#DDD" d="M35.45 0a3.213 3.213 0 0 1 3.213 3.213v3.213h-6.427V3.213A3.213 3.213 0 0 1 35.45 0zM28.31 64.8a6.873 6.873 0 1 0 13.745 0H28.309z"/>
    </g>
</svg>
