<svg width="97" height="97" viewBox="0 0 97 97" fill="none" xmlns="http://www.w3.org/2000/svg">
<path fill-rule="evenodd" clip-rule="evenodd" d="M22.3266 8.73854C20.7729 8.57525 19.3815 9.69874 19.2187 11.2479L12.1429 78.5694C11.9801 80.1186 13.1075 81.5068 14.6611 81.6701L53.4926 85.7515C66.1875 87.0858 78.4006 79.5768 79.6272 67.9062L84.8571 18.1468C85.0199 16.5976 83.8925 15.2094 82.3389 15.0461L22.3266 8.73854ZM18.0639 76.3557L24.55 14.6443L78.9361 20.3605L74.001 67.3148C73.1972 74.9625 64.6863 81.2559 54.0823 80.1414L18.0639 76.3557ZM32.2194 58.9365C30.6657 58.7732 29.2743 59.8967 29.1115 61.4459C28.9486 62.9951 30.0761 64.3833 31.6297 64.5466L46.6328 66.1235C48.1864 66.2868 49.5779 65.1633 49.7407 63.6141C49.9035 62.0649 48.7761 60.6767 47.2224 60.5134L32.2194 58.9365ZM30.6839 46.4856C30.8467 44.9364 32.2381 43.8129 33.7918 43.9762L60.0471 46.7357C61.6007 46.899 62.7282 48.2872 62.5654 49.8364C62.4026 51.3856 61.0111 52.5091 59.4575 52.3458L33.2021 49.5863C31.6485 49.423 30.521 48.0347 30.6839 46.4856ZM35.3641 29.0158C33.8105 28.8525 32.4191 29.976 32.2562 31.5252C32.0934 33.0744 33.2209 34.4627 34.7745 34.626L61.0299 37.3855C62.5835 37.5488 63.9749 36.4253 64.1378 34.8761C64.3006 33.3269 63.1731 31.9387 61.6195 31.7754L35.3641 29.0158Z" fill="currentColor"/>
</svg>
