<svg width="98" height="97" viewBox="0 0 98 97" fill="none" xmlns="http://www.w3.org/2000/svg">
<g id="Book">
<path id="Vector" fill-rule="evenodd" clip-rule="evenodd" d="M35.1289 10.0318C32.2061 9.72462 29.7152 9.99361 27.6278 10.8722C25.5052 11.7657 23.9802 13.2143 22.8991 14.9459C20.8534 18.2224 20.3662 22.6283 19.9808 26.2954L15.8634 65.4689C15.8017 66.056 15.951 66.6165 16.2501 67.0751C16.4977 68.9569 17.4432 70.7587 19.0578 72.2194C20.7843 73.7814 23.205 74.9028 26.2685 75.4787L25.7616 80.3011C25.6621 81.248 26.1157 82.1678 26.9275 82.6652C27.7394 83.1626 28.7648 83.1491 29.5633 82.6305L36.0868 78.3928L41.5867 83.8942C42.2599 84.5675 43.2601 84.7939 44.1576 84.4762C45.0551 84.1584 45.6901 83.353 45.7896 82.4061L46.2976 77.5724C46.5003 77.652 46.7169 77.7059 46.9439 77.7298L74.6783 80.6448C75.758 80.7583 76.7853 80.1533 77.2097 79.1539C77.6341 78.1546 77.3561 76.9953 76.5246 76.2971C76.5249 76.2973 76.5169 76.2906 76.5017 76.2743C76.4865 76.258 76.4653 76.2336 76.4392 76.1992C76.3861 76.1293 76.3198 76.028 76.2461 75.889C76.0964 75.6067 75.9438 75.2213 75.8121 74.7383C75.5473 73.7671 75.4117 72.5658 75.4634 71.3655C75.5156 70.1525 75.7525 69.0887 76.1136 68.3278C76.4707 67.5751 76.8421 67.3178 77.1071 67.2305C78.0303 66.9265 78.6893 66.1094 78.7909 65.1428L83.3876 21.408C83.7493 17.9661 81.2549 14.8799 77.8097 14.5177L35.1289 10.0318ZM46.7954 72.8368C47.0101 72.8011 47.2332 72.7934 47.4602 72.8173L70.8608 75.2768C70.5827 73.9705 70.4683 72.546 70.5284 71.1529C70.59 69.7223 70.8421 68.215 71.3764 66.8469L47.6866 64.3571L46.7954 72.8368ZM42.7741 63.8407L32.5712 62.7684L31.2155 75.6669L35.0736 73.1607C36.0517 72.5253 37.341 72.6608 38.1657 73.4857L41.4184 76.7393L42.7741 63.8407ZM27.6586 62.252L27.5069 62.2361C23.2321 61.7868 21.2993 64.1612 21.1378 65.7935C21.0557 66.6234 21.3334 67.6171 22.3717 68.5564C23.2168 69.321 24.6198 70.0847 26.7869 70.5456L27.6586 62.252ZM28.0232 57.3235C25.6359 57.0726 23.431 57.4395 21.5872 58.2665L24.8933 26.8118C25.3069 22.8767 25.7573 19.695 27.0891 17.5619C27.6968 16.5886 28.4705 15.8769 29.5442 15.4249C30.6531 14.9581 32.2562 14.6967 34.6126 14.9443L77.2934 19.4303C78.0222 19.5069 78.552 20.1596 78.475 20.8917L74.1362 62.1702L28.0232 57.3235Z" fill="currentColor"/>
</g>
</svg>
