<svg width="100" height="82" viewBox="0 0 100 82" fill="none" xmlns="http://www.w3.org/2000/svg">
<g id="Image">
<path id="Vector" d="M52.9751 59.2729C55.7913 59.2729 58.0743 56.8631 58.0743 53.8905C58.0743 50.9179 55.7913 48.5081 52.9751 48.5081C50.1589 48.5081 47.876 50.9179 47.876 53.8905C47.876 56.8631 50.1589 59.2729 52.9751 59.2729Z" fill="#DDDDDD"/>
<path id="Vector_2" d="M25.2115 59.2729C28.0276 59.2729 30.3106 56.8631 30.3106 53.8905C30.3106 50.9179 28.0276 48.5081 25.2115 48.5081C22.3953 48.5081 20.1123 50.9179 20.1123 53.8905C20.1123 56.8631 22.3953 59.2729 25.2115 59.2729Z" fill="#DDDDDD"/>
<path id="Vector_3" d="M96.6006 50.7673H77.0198V38.824C77.0198 36.9486 75.4958 35.4246 73.6204 35.4246C71.745 35.4246 70.221 36.9486 70.221 38.824V56.3424C70.221 64.5464 73.4731 70.3764 76.9915 74.2801H26.9122C22.7762 74.2801 16.8159 72.8013 12.4986 68.6484C8.71955 65.011 6.79887 59.9515 6.79887 53.6059V38.824C6.79887 36.9486 5.27479 35.4246 3.39943 35.4246C1.52408 35.4246 0 36.9486 0 38.824V53.6059C0 61.7588 2.69122 68.654 7.7847 73.5549C12.6912 78.2688 19.8414 81.0846 26.9122 81.0846H86.9688C87.2805 81.0846 87.5864 81.028 87.8754 80.9486C93.864 80.2517 100 76.5577 100 64.3764V54.1724C100 52.2971 98.4759 50.773 96.6006 50.773V50.7673ZM93.2011 64.3707C93.2011 68.8693 92.7195 73.2716 87.4958 74.1271C84.9688 72.6993 77.6091 67.6965 77.0538 57.5662H93.2011V64.3707Z" fill="#DDDDDD"/>
<path id="Vector_4" d="M3.68264 32.644C5.55799 32.644 7.08207 31.1199 7.08207 29.2446V26.9783C7.08207 25.1029 5.55799 23.5789 3.68264 23.5789C1.80728 23.5789 0.283203 25.1029 0.283203 26.9783V29.2446C0.283203 31.1199 1.80728 32.644 3.68264 32.644Z" fill="#DDDDDD"/>
<path id="Vector_5" d="M3.68264 20.1782C5.55799 20.1782 7.08207 18.6541 7.08207 16.7788V14.5125C7.08207 12.6371 5.55799 11.113 3.68264 11.113C1.80728 11.113 0.283203 12.6371 0.283203 14.5125V16.7788C0.283203 18.6541 1.80728 20.1782 3.68264 20.1782Z" fill="#DDDDDD"/>
<path id="Vector_6" d="M3.68264 7.71415H5.94893C7.82428 7.71415 9.34836 6.19007 9.34836 4.31472C9.34836 2.43936 7.82428 0.915283 5.94893 0.915283H3.68264C1.80728 0.915283 0.283203 2.43936 0.283203 4.31472C0.283203 6.19007 1.80728 7.71415 3.68264 7.71415Z" fill="#DDDDDD"/>
<path id="Vector_7" d="M17.2813 7.71415H19.5476C21.4229 7.71415 22.947 6.19007 22.947 4.31472C22.947 2.43936 21.4229 0.915283 19.5476 0.915283H17.2813C15.4059 0.915283 13.8818 2.43936 13.8818 4.31472C13.8818 6.19007 15.4059 7.71415 17.2813 7.71415Z" fill="#DDDDDD"/>
<path id="Vector_8" d="M30.8775 7.71415H33.1437C35.0191 7.71415 36.5432 6.19007 36.5432 4.31472C36.5432 2.43936 35.0191 0.915283 33.1437 0.915283H30.8775C29.0021 0.915283 27.478 2.43936 27.478 4.31472C27.478 6.19007 29.0021 7.71415 30.8775 7.71415Z" fill="#DDDDDD"/>
<path id="Vector_9" d="M44.4761 7.71415H46.7424C48.6177 7.71415 50.1418 6.19007 50.1418 4.31472C50.1418 2.43936 48.6177 0.915283 46.7424 0.915283H44.4761C42.6007 0.915283 41.0767 2.43936 41.0767 4.31472C41.0767 6.19007 42.6007 7.71415 44.4761 7.71415Z" fill="#DDDDDD"/>
<path id="Vector_10" d="M58.0747 7.71415H60.341C62.2164 7.71415 63.7404 6.19007 63.7404 4.31472C63.7404 2.43936 62.2164 0.915283 60.341 0.915283H58.0747C56.1994 0.915283 54.6753 2.43936 54.6753 4.31472C54.6753 6.19007 56.1994 7.71415 58.0747 7.71415Z" fill="#DDDDDD"/>
<path id="Vector_11" d="M71.6709 7.71415H73.9372C75.8126 7.71415 77.3366 6.19007 77.3366 4.31472C77.3366 2.43936 75.8126 0.915283 73.9372 0.915283H71.6709C69.7956 0.915283 68.2715 2.43936 68.2715 4.31472C68.2715 6.19007 69.7956 7.71415 71.6709 7.71415Z" fill="#DDDDDD"/>
<path id="Vector_12" d="M73.3701 23.5789C71.4948 23.5789 69.9707 25.1029 69.9707 26.9783V29.2446C69.9707 31.1199 71.4948 32.644 73.3701 32.644C75.2455 32.644 76.7696 31.1199 76.7696 29.2446V26.9783C76.7696 25.1029 75.2455 23.5789 73.3701 23.5789Z" fill="#DDDDDD"/>
<path id="Vector_13" d="M76.7696 14.5125C76.7696 12.6371 75.2455 11.113 73.3701 11.113C71.4948 11.113 69.9707 12.6371 69.9707 14.5125V16.7788C69.9707 18.6541 71.4948 20.1782 73.3701 20.1782C75.2455 20.1782 76.7696 18.6541 76.7696 16.7788V14.5125Z" fill="#DDDDDD"/>
</g>
</svg>
