<?xml version="1.0" encoding="UTF-8"?>
<svg width="16px" height="16px" viewBox="0 0 16 16" version="1.1" xmlns="http://www.w3.org/2000/svg" xmlns:xlink="http://www.w3.org/1999/xlink">
    <!-- Generator: Sketch 52.4 (67378) - http://www.bohemiancoding.com/sketch -->
    <title>Combined Shape</title>
    <desc>Created with Sketch.</desc>
    <g id="Page-1" stroke="none" stroke-width="1" fill="none" fill-rule="evenodd">
        <path d="M10.7928017,4.49994 L9.05273,4.49994 L9.05273,3.49994 L12.0001,3.49994 C12.2762424,3.49994 12.5001,3.72379763 12.5001,3.99994 L12.5001,6.94734 L11.5001,6.94734 L11.5001,5.20685523 L7.30082514,9.40617164 L6.59371486,8.69906836 L10.7928017,4.49994 Z M10.658,8.42106 L11.658,8.42106 L11.658,12 C11.658,12.2761424 11.4341424,12.5 11.158,12.5 L4,12.5 C3.72385763,12.5 3.5,12.2761424 3.5,12 L3.5,4.84207 C3.5,4.56592763 3.72385763,4.34207 4,4.34207 L7.57898,4.34207 L7.57898,5.34207 L4.5,5.34207 L4.5,11.5 L10.658,11.5 L10.658,8.42106 Z" id="Combined-Shape" fill="#0D6763" fill-rule="nonzero"></path>
    </g>
</svg>