<svg xmlns="http://www.w3.org/2000/svg" width="16" height="16" viewBox="0 0 16 16">
  <path d="M8.90250949,12.1667 C9.120148,11.3972045 9.82762811,10.8334 10.6668,10.8334 C11.6793499,10.8334 12.5002,11.6541651 12.5002,12.6667 C12.5002,13.6792424 11.6793424,14.5001 10.6668,14.5001 C9.82763051,14.5001 9.12014373,13.9362269 8.90250708,13.1667 L5.38889,13.1667 C4.34567683,13.1667 3.5,12.3210316 3.5,11.2778 L3.5,2 L4.5,2 L4.5,6.99996 L8.8637378,6.99996 C9.02050715,6.14661258 9.76814825,5.5 10.6668,5.5 C11.6793411,5.5 12.5002,6.32081636 12.5002,7.33334 C12.5002,8.34587076 11.679344,9.16668 10.6668,9.16668 C9.88947043,9.16668 9.22513232,8.68288047 8.9584593,7.99996 L4.5,7.99996 L4.5,11.2778 C4.5,11.7687446 4.89795935,12.1667 5.38889,12.1667 L8.90250949,12.1667 Z M9.8335,7.33334 C9.8335,7.79358376 10.2065885,8.16668 10.6668,8.16668 C11.127072,8.16668 11.5002,7.79357326 11.5002,7.33334 C11.5002,6.87311271 11.127068,6.5 10.6668,6.5 C10.2065925,6.5 9.8335,6.87310221 9.8335,7.33334 Z M9.8335,12.6667 C9.8335,13.1269681 10.2066029,13.5001 10.6668,13.5001 C11.1270576,13.5001 11.5002,13.1269576 11.5002,12.6667 C11.5002,12.206473 11.1270883,11.8334 10.6668,11.8334 C10.2065722,11.8334 9.8335,12.2064625 9.8335,12.6667 Z"/>
</svg>
