<svg xmlns="http://www.w3.org/2000/svg" width="24" height="24" viewBox="0 0 24 24">
    <g fill="none" fill-rule="evenodd">
        <path d="M0 0h24v24H0z"/>
        <path stroke="#444" stroke-width="1.5" d="M5 1.5v22M19.131 2.164c-.009.01-.816.836-3.13.836-1.669 0-2.445-.475-3.268-.977C11.91 1.52 11.058 1 9.437 1c-2.762 0-4.18 1.058-4.24 1.102A.502.502 0 0 0 5 2.5v10a.501.501 0 0 0 .801.399C5.812 12.891 7.039 12 9.437 12c1.34 0 2.005.406 2.775.877C13.074 13.403 14.052 14 16 14c2.772 0 3.771-1.05 3.876-1.17A.498.498 0 0 0 20 12.5v-10a.498.498 0 0 0-.319-.46.505.505 0 0 0-.55.124z"/>
    </g>
</svg>
