<svg xmlns="http://www.w3.org/2000/svg" width="24" height="24" viewBox="0 0 24 24">
  <path fill="#333" fill-rule="evenodd" d="M5.15583665,6.96451273 C1.36261402,5.02588871 0.441928878,3.27425334 0.441928878,3.27425334 C0.441928878,3.27425334 -0.147309617,4.31812781 0.110482241,6.25675191 C0.368274195,8.19537602 2.18011963,10.6896906 2.18011963,10.6896906 L0,9.79846903 C0,9.79846903 0.110482155,11.0287497 0.957512526,12.2963116 C1.80454281,13.5638735 4.78756263,15.1669665 4.78756263,15.1669665 L1.95185244,15.2042477 C1.95185244,15.2042477 2.2096443,15.8007475 3.2408116,16.8073407 C4.2719789,17.813934 7.14451656,18.7086836 7.14451656,18.7086836 C7.14451656,18.7086836 5.12425716,20.1408834 3.71956795,20.684589 C2.31487874,21.2282947 0.110482241,21.3556511 0.110482241,21.3556511 C0.110482241,21.3556511 3.39312019,23.423345 8.43347572,22.9214628 C13.4738312,22.4195808 16.943571,20.0349494 19.6290068,16.0617161 C22.3144421,12.0884826 22.0596155,6.92781409 22.0596155,6.92781409 C22.0596155,6.92781409 22.3536207,6.58566266 23.0669675,5.92336414 C23.7803142,5.26106561 24,4.93590047 24,4.93590047 L22.2175983,5.12716366 L23.3751159,3.03559927 C23.3751159,3.03559927 22.6686016,3.36069966 22.1804645,3.54275584 C21.6923272,3.7248121 21.0371958,3.90686819 21.0371958,3.90686819 C21.0371958,3.90686819 18.4522561,0.701265696 14.6958609,2.60260859 C10.9394653,4.50395112 12.1547699,8.79129319 12.1547699,8.79129319 C12.1547699,8.79129319 8.94905937,8.90313692 5.15583665,6.96451273 Z"/>
</svg>
