<svg xmlns="http://www.w3.org/2000/svg" width="21" height="23" viewBox="0 0 21 23">
  <g fill="none" fill-rule="evenodd" transform="translate(-2)">
    <rect width="24" height="24"/>
    <g stroke="#0D6763" stroke-width="1.5" transform="translate(3 1)">
      <path d="M0 4.72826087L18.75 4.72826087 18.75 17.5108696C18.75 19.1677238 17.4068542 20.5108696 15.75 20.5108696L3 20.5108696C1.34314575 20.5108696 6.46995335e-16 19.1677238 4.4408921e-16 17.5108696L0 4.72826087zM9.375 4.72826087L9.375 20.8043478M4.64673913 4.72826087C3.32282609 4.72826087 2.2826087 3.68804348 2.2826087 2.36413043 2.2826087 1.04021739 3.32282609 0 4.64673913 0 5.97065217 0 6.72717391.472826087 7.57826087 1.79673913 7.95652174 2.26956522 9.375 4.72826087 9.375 4.72826087M14.1032609 4.72826087C15.4271739 4.72826087 16.4673913 3.68804348 16.4673913 2.36413043 16.4673913 1.04021739 15.4271739 0 14.1032609 0 12.7793478 0 12.0228261.472826087 11.1717391 1.79673913 10.7934783 2.26956522 9.375 4.72826087 9.375 4.72826087"/>
    </g>
  </g>
</svg>
