
<svg xmlns="http://www.w3.org/2000/svg" viewBox="0 0 16 16">
  <path fill-rule="evenodd" d="M7.55 4.96a.43.43 0 0 1-.42-.43.4.4 0 0 1 .14-.31 8.82 8.82 0 0 0 1.83-2.1c.35-.61.92-.93 1.5-.85.24.03.4.25.37.48a.42.42 0 0 1-.47.36c-.35-.04-.58.3-.66.44-.1.18-.7 1.16-2 2.3a.4.4 0 0 1-.29.1zM.42 12.14a.43.43 0 0 1-.42-.42c0-.12.06-.25.15-.32.43-.35 1.27-.9 1.56-1.05.2-.1.46-.01.56.2.1.21.02.45-.18.56-.22.1-1.02.62-1.39.93a.42.42 0 0 1-.28.1zm10.65-4.02c-.16-.15-.13-.36.01-.55a18.01 18.01 0 0 0 2.93-4.03c.23-.49.4-.98.46-1.28.07-.35-.08-.56-.28-.6-.14-.04-.34.06-.44.33-.08.21-.15.49-.37.95-.44.93-1.4 2.65-3.1 4.1-.22.19-.42.11-.52 0-.1-.12-.14-.35.08-.54a11.23 11.23 0 0 0 3.1-4.3c.1-.32-.04-.48-.16-.5-.11-.05-.44-.05-.56.25a8.3 8.3 0 0 1-1.7 2.57 21.51 21.51 0 0 1-3.58 3.06c-.42.28-.8.4-1.14.2-.45-.26-.4-.82-.36-1.06.09-.49.34-1.94.5-3.08.1-.63-.23-.72-.41-.74-.18-.02-.36.08-.48.4-.13.31-.84 2.2-1.25 3.9a8.52 8.52 0 0 0-.09 3.48c.1.47.07.67.01.84-.06.2-.2.49-.43.95-.12.27-.45.9-.61 1.24l-.02.03a.53.53 0 0 1-.71.2.54.54 0 0 1-.22-.67c.26-.62.74-1.34 1.07-1.88.06-.08.08-.19.06-.28a10.9 10.9 0 0 1 .08-4.32c.42-1.76.93-2.84 1.17-3.5C4.5 2.15 5.27 2 5.77 2.08c.6.07 1.14.53 1.04 1.53-.05.62-.4 2.7-.43 3.01-.03.2.18.23.33.13.83-.55 2.18-1.6 3.14-2.7A8.8 8.8 0 0 0 11.5 1.7c.33-.7.8-.85 1.25-.84.26 0 .44.13.56.26a.1.1 0 0 0 .12.02c.3-.2.63-.3 1-.22.53.12.97.75.82 1.45l-.13.53c0 .04.02.08.06.09.75.15.9.81.79 1.35-.08.4-.28.91-.71 1.65l-.01.02c-.01.04 0 .08.05.09.56.15.88 1.04.27 2.09a14.7 14.7 0 0 1-1.63 2.22c-1.3 1.28-2.2 2.09-4.41 3.1-.67.3-1.1.81-1.3 1.15-.43.7-.41.69-.41.7v.03a.52.52 0 0 1-.71.25c-.27-.13-.36-.46-.24-.72l.45-.78c.35-.6.92-.98 1.7-1.38 2.22-1.15 3.37-1.85 4.52-3.14.42-.47 1.49-1.87 1.6-2.26.06-.23.02-.43-.18-.47-.13-.03-.29.04-.4.21-.46.67-1.01 1.3-1.82 2.13-.2.2-.43.22-.56.1-.14-.13-.17-.33-.01-.49a14.87 14.87 0 0 0 2.9-4.06c.22-.44.23-.84-.01-.94-.2-.08-.39.04-.48.24-.44.96-1.73 2.8-2.96 3.97-.18.16-.37.23-.55.07zM3.42 2.38c-.07.06-.14.02-.2 0-.28-.13-1.43-.81-1.65-.98-.1-.08-.11-.17-.06-.26.05-.11.19-.24.42-.45.23-.2.38-.31.5-.36.1-.04.19-.02.26.1.13.25.65 1.47.75 1.76.01.06.04.14-.02.2zm-.45.8c.01.09-.05.12-.12.17-.25.17-1.42.8-1.68.9-.13.05-.21.01-.26-.07-.07-.12-.1-.3-.16-.6a2 2 0 0 1-.05-.63c.02-.1.08-.16.22-.15.29 0 1.6.19 1.9.26.05.01.13.03.15.12zm9.84 9.98c.09 0 .13.06.16.1.14.28.64 1.5.72 1.77.04.14-.02.21-.1.25-.13.06-.32.09-.62.1-.31.03-.5.03-.63-.01-.1-.03-.15-.1-.13-.23.04-.27.36-1.56.47-1.84.02-.06.05-.13.13-.14zm.74-.6c.04-.08.13-.07.18-.06.3.02 1.6.23 1.88.3.13.04.17.13.16.23-.02.12-.09.3-.23.57-.13.27-.24.43-.34.52-.07.07-.16.08-.26 0a19.92 19.92 0 0 1-1.34-1.37c-.04-.05-.09-.1-.05-.18z"/>
</svg>
