<svg width="78" height="16" viewBox="0 0 78 16" fill="none" xmlns="http://www.w3.org/2000/svg">
<g id="Type1">
<path id="Matters" fill-rule="evenodd" clip-rule="evenodd" d="M0 15.6685V0H3.61778L7.67984 11.9337H7.74331L11.8054 0H15.4443V15.6685H12.842V4.59669H12.7574C12.74 4.66346 12.7226 4.73107 12.7048 4.79974C12.5936 5.23106 12.4716 5.70432 12.2708 6.27624L8.94924 15.6685H6.51623L3.19465 6.27624C2.96192 5.61326 2.81383 5.08287 2.70804 4.59669H2.62342V15.6685H0ZM23.113 16C19.7914 16 17.3373 13.1271 17.3373 9.54696C17.3373 5.96685 19.7914 3.09392 23.113 3.09392C25.1864 3.09392 26.7943 4.26519 27.5347 5.87845H27.6194V3.44751H30.2005V15.6685H27.6194V13.2818H27.5347C26.5192 15.2044 24.9959 16 23.113 16ZM23.6633 13.3923C25.779 13.3923 27.2388 11.7348 27.2388 9.54696C27.2388 7.33702 25.779 5.70166 23.6633 5.70166C21.5688 5.70166 20.1302 7.33702 20.1302 9.54696C20.1302 11.7348 21.5688 13.3923 23.6633 13.3923ZM33.3663 15.6685V6.03315H31.5644V3.44751H33.3663V0H36.0162V3.44751H37.4035H37.8817H39.9906V0H42.6404V3.44751H44.506V6.03315H42.6404V13.0829H44.4424V15.6685H39.9906V6.03315H37.8817H37.4035H36.0162V13.0829H37.8181V15.6685H33.3663ZM52.1026 16C48.4938 16 45.675 13.0829 45.675 9.50277C45.675 5.92266 48.4938 3.11603 52.1026 3.11603C55.7115 3.11603 58.5302 5.92266 58.5302 9.59117C58.5302 9.79006 58.5089 10.1437 58.4448 10.4751H48.5365C48.8354 12.1547 50.3516 13.4144 52.1453 13.4144C53.5547 13.4144 54.7292 12.7293 55.2844 11.4917H58.2313C57.3985 14.1216 55.0495 16 52.1026 16ZM48.5793 8.37569H55.5621C55.3272 6.91713 53.9392 5.70166 52.06 5.70166C50.1808 5.70166 48.7715 6.82873 48.5793 8.37569ZM60.078 15.6685V3.44752H67.1889V6.03315H62.7686V15.6685H60.078ZM71.9399 16C69.4201 16 67.5409 14.232 67.5409 12.0884H70.2102C70.2315 12.884 71.0003 13.4586 71.9826 13.4586C73.0289 13.4586 73.6909 12.9282 73.6909 12.1326C73.6909 11.116 72.6445 10.895 71.5768 10.6077C69.356 10.0332 67.7758 9.08288 67.7758 6.85083C67.7758 4.75139 69.6123 3.11603 72.0253 3.11603C74.3529 3.11603 76.2748 4.77349 76.2748 6.93923L73.6055 6.91713C73.6055 6.09945 72.8581 5.63536 72.0253 5.63536C71.1711 5.63536 70.4451 6.07735 70.4451 6.82873C70.4451 7.73481 71.4701 7.95581 72.5378 8.2431C74.118 8.66299 76.2961 9.21548 76.2961 12.0884C76.2961 14.2541 74.3315 16 71.9399 16Z" fill="#DDDDDD"/>
</g>
</svg>
