<svg xmlns="http://www.w3.org/2000/svg" width="16" height="16" viewBox="0 0 16 16">
  <g transform="translate(3)">
    <path d="M5,13.3669651 L7.625,11.1210329 C8.18034438,10.6460262 8.50004808,9.95181244 8.5,9.221 L8.5,5.5 L9.5,5.49999997 L9.5,9.2209671 C9.50006731,10.2440585 9.05248213,11.2159577 8.27505617,11.8809191 L5,14.6830349 L4.67494383,14.4049191 L1.72500004,11.8809671 C0.947208071,11.2156929 0.499591605,10.2432994 0.5,9.22000003 L0.499999721,5.49999997 L1.49999976,5.49999997 L1.49999996,9.22019953 C1.49970822,9.95127018 1.81943427,10.645837 2.37505617,11.1210809 L5,13.3669651 Z"/>
    <path d="M5,9.58561589 L7.64666667,7.26978257 C8.18889384,6.79512758 8.49992683,6.10957927 8.5,5.389 L8.5,2 L9.5,2 L9.5,5.38905077 C9.49989756,6.39793282 9.06445137,7.35770046 8.3052523,8.02228835 L5,10.9143841 L4.6707477,10.6262883 L1.69466671,8.02221747 C0.935854846,7.35796867 0.500438679,6.39869243 0.5,5.39 L0.5,2 L1.5,2 L1.49999995,5.38978253 C1.50031326,6.11012178 1.81132481,6.7953191 2.3532523,7.26971165 L5,9.58561589 Z"/>
    <path d="M5,5.60573749 L7.57666667,3.51197308 C8.1607952,3.03727613 8.49995948,2.32466381 8.5,1.572 L8.5,0 L9.5,0 L9.5,1.57202692 C9.49994327,2.62579394 9.02511328,3.62345118 8.20731652,4.28804058 L5,6.89426251 L4.68468348,6.63804058 L1.79266667,4.28802692 C0.974886722,3.62345118 0.500056732,2.62579394 0.5,1.572 L0.5,0 L1.5,0 L1.5,1.57197308 C1.50004052,2.32466381 1.8392048,3.03727613 2.42331652,3.51195942 L5,5.60573749 Z M4.5,0 L5.5,0 L5.5,16 L4.5,16 L4.5,0 Z"/>
  </g>
</svg>
