<svg xmlns="http://www.w3.org/2000/svg" viewBox="0 0 41 41">
  <path d="M10.528 14.808a3.547 3.547 0 00.85 3.93l1.383 1.327-1.18 1.133a.6.6 0 000 .866l8.196 7.866a.6.6 0 00.832 0l1.213-1.169.944.906c1.127 1.081 2.738 1.316 4.075.794.127.134.276.277.444.422.713.611 1.46.949 2.235.818.733-.124 1.34-.663 1.79-1.6.453-.94.77-2.155.975-3.586.247-1.715.31-3.502.274-5.023l-.001-.034c2.067-5.11 2.268-9.29-.363-11.824a.608.608 0 00-.015-.014c-2.627-2.512-6.97-2.316-12.285-.332l-.03-.001c-1.581-.035-3.44.026-5.222.262-1.485.197-2.745.499-3.72.93-.972.432-1.536 1.016-1.668 1.736-.14.769.217 1.499.862 2.192.14.15.28.285.411.4zm.648-1.035a4.723 4.723 0 01-.18-.184c-.412-.442-.615-.857-.56-1.157.05-.279.333-.57.974-.855.852-.378 2.01-.656 3.39-.838a29.534 29.534 0 012.107-.199 65.487 65.487 0 00-4.777 2.468c-.372.21-.69.47-.954.765zm9.32-3.41c4.473-1.628 8.149-1.908 10.38-.274l-2.461 2.362a4.541 4.541 0 00-2.698-.878c-2.454 0-4.454 1.919-4.454 4.299 0 2.38 2 4.298 4.454 4.298 2.454 0 4.454-1.919 4.454-4.298 0-.972-.333-1.866-.895-2.585l2.47-2.37c1.724 2.125 1.436 5.655-.269 9.962a.598.598 0 00-.123.307c-.9 2.207-2.162 4.61-3.708 7.127-.855 1.39-2.856 1.633-4.049.488L12.21 17.871a2.35 2.35 0 01-.457-2.846.609.609 0 00.09-.15c.209-.325.504-.61.88-.823 2.619-1.482 5.121-2.693 7.42-3.558a.597.597 0 00.353-.13zm.33 30.065c-11.045 0-20-8.955-20-20 0-11.046 8.955-20 20-20 11.046 0 20 8.954 20 20 0 11.045-8.954 20-20 20zm-7.198-19.531l7.328 7.033-.764.735-7.33-7.034.766-.734zm17.682 3.317a26.296 26.296 0 01-.213 2.13c-.19 1.32-.477 2.425-.868 3.237-.295.613-.6.885-.909.937-.34.057-.785-.144-1.254-.547a4.748 4.748 0 01-.16-.142c.292-.247.55-.543.762-.887 1-1.629 1.888-3.21 2.642-4.728zm-5.593-5.244c-1.802 0-3.254-1.393-3.254-3.098 0-1.706 1.452-3.099 3.254-3.099s3.254 1.393 3.254 3.099c0 1.705-1.452 3.098-3.254 3.098zM11.45 23.968c.19-.275-.084-.636-.412-.533-1.497.487-4.211 1.506-4.211 2.497 0 1.288 1.79 2.066 4.623-1.964zm6.276 6.023c-4.2 2.72-3.389 4.437-2.047 4.437 1.032 0 2.094-2.605 2.601-4.042.108-.315-.268-.578-.554-.395zm-5.78-1.548c-3.668 1.386-3.609 3.132-2.32 3.292 1.229.15 2.541-1.471 2.875-2.73.072-.276-.304-.66-.554-.562z" fill="#C0A46B" fill-rule="evenodd"/>
</svg>
