
<svg xmlns="http://www.w3.org/2000/svg" viewBox="0 0 24 24" width="24" height="24">
  <path d="M19.53 12c0 .7.43 1.31 1.25 1.8l.5.3-.16.56a9.56 9.56 0 0 1-.75 1.81l-.28.52-.57-.15c-.72-.19-1.34.04-2 .69-.54.55-.7 1.16-.48 1.99l.15.57-.52.28c-.58.3-1.18.56-1.81.75l-.57.17-.3-.51A2.42 2.42 0 0 0 12 19.53c-.76 0-1.55.49-2 1.25l-.3.5-.56-.16a9.6 9.6 0 0 1-1.81-.75l-.52-.28.15-.57c.22-.83.06-1.44-.49-2-.55-.54-1.16-.7-1.99-.48l-.57.15-.28-.52a9.64 9.64 0 0 1-.75-1.81l-.17-.57.51-.3A2.42 2.42 0 0 0 4.46 12c0-.7-.42-1.32-1.24-1.8l-.5-.3.16-.56c.19-.63.44-1.23.75-1.81L3.91 7l.57.15c.72.19 1.34-.04 2-.69.54-.55.7-1.16.48-1.99l-.15-.57.52-.28a9.45 9.45 0 0 1 1.81-.75l.57-.17.3.51A2.42 2.42 0 0 0 12 4.46c.76 0 1.55-.48 2-1.24l.3-.5.56.16c.62.19 1.23.44 1.81.75l.52.28-.15.57c-.22.83-.06 1.44.49 2 .65.64 1.27.87 1.99.68l.57-.15.28.52c.3.58.56 1.18.75 1.81l.17.57-.51.3c-.82.47-1.25 1.09-1.25 1.79zm-1.5 0c0-1.1.54-2.04 1.48-2.75a8.18 8.18 0 0 0-.23-.53 3.52 3.52 0 0 1-2.81-1.19 3.28 3.28 0 0 1-1-2.82 7.98 7.98 0 0 0-.53-.22A3.84 3.84 0 0 1 12 5.96c-1.12 0-2.2-.56-2.94-1.47l-.53.22a3.27 3.27 0 0 1-1 2.82 3.52 3.52 0 0 1-2.82 1.19l-.22.53A3.4 3.4 0 0 1 5.96 12c0 1.12-.56 2.2-1.47 2.94l.22.53c1.08-.13 2.03.2 2.82 1 .8.79 1.13 1.74 1 2.82l.53.22A3.84 3.84 0 0 1 12 18.03c1.12 0 2.2.57 2.94 1.48l.53-.22a3.28 3.28 0 0 1 1-2.82 3.53 3.53 0 0 1 2.82-1.19l.22-.53A3.4 3.4 0 0 1 18.03 12zm-3.13 0a2.9 2.9 0 1 0-5.8 0 2.9 2.9 0 0 0 5.8 0zM8.2 14.2a4.4 4.4 0 1 1 7.62-4.4 4.4 4.4 0 0 1-7.62 4.4z"/>
</svg>
