<svg xmlns="http://www.w3.org/2000/svg" viewBox="0 0 40 40">
  <path d="M20 40C8.954 40 0 31.046 0 20S8.954 0 20 0s20 8.954 20 20-8.954 20-20 20zm-4.733-18.42c.686-.02 1.38.013 2.066-.007.434-.013.6.167.587.6-.02.747 0 1.494-.007 2.234 0 2.086-.013 4.173-.02 6.26H21.8c-.007-2.834-.007-5.667-.02-8.5 0-.427.16-.607.593-.594.727.02 1.454-.006 2.18.007.36.007.54-.133.58-.507.1-.886.207-1.773.347-2.66.073-.453-.087-.6-.533-.586-.874.02-1.754 0-2.627.006-.333 0-.54-.113-.533-.48.006-.78-.034-1.566.02-2.346.066-.947.546-1.4 1.5-1.48.593-.047 1.193-.06 1.786-.067.38-.007.594-.133.594-.553a87.665 87.665 0 010-2.294c0-.32-.134-.473-.46-.5-.927-.06-1.86-.153-2.787-.1-2.513.134-4.107 1.614-4.44 4.107-.133 1.007-.073 2.007-.067 3.013.007.54-.193.727-.72.7-.653-.033-1.306.007-1.953-.013-.44-.007-.6.18-.593.607.02.853.02 1.713 0 2.573-.007.433.18.593.6.58z" fill="#3C65B8" fill-rule="evenodd"/>
</svg>
