<svg xmlns="http://www.w3.org/2000/svg" width="16" height="16" viewBox="0 0 16 16">
    <g fill="none" fill-rule="evenodd">
        <path d="M0 0h16v16H0z"/>
        <path fill="#00CB00" d="M8 0c4.418 0 8 2.873 8 6.417 0 1.238-.437 2.393-1.194 3.374a1.66 1.66 0 0 1-.148.185l-.005.005c-.259.31-.55.601-.87.87-2.212 2.048-5.854 4.487-6.334 4.11-.418-.327.688-1.926-.588-2.193-.09-.01-.178-.02-.266-.033h-.002C2.846 12.2 0 9.575 0 6.417 0 2.873 3.582 0 8 0zM3.358 8.464H4.972c.23 0 .417-.189.417-.418V8.01a.419.419 0 0 0-.417-.418H3.81V4.946a.419.419 0 0 0-.417-.418h-.035a.419.419 0 0 0-.417.418v3.1c0 .23.188.418.417.418zm9.998-1.943v-.035a.419.419 0 0 0-.417-.418h-1.161v-.662h1.161c.23 0 .417-.188.417-.418v-.035a.419.419 0 0 0-.417-.418h-1.613a.419.419 0 0 0-.418.418v3.1c0 .23.188.418.418.418h1.613c.23 0 .417-.188.417-.418v-.035a.419.419 0 0 0-.417-.418h-1.161v-.662h1.161c.23 0 .417-.188.417-.417zm-3.103 1.818a.417.417 0 0 0 .121-.293v-3.1a.419.419 0 0 0-.417-.418h-.035a.419.419 0 0 0-.417.418v1.82L7.997 4.738a.418.418 0 0 0-.363-.211H7.6a.419.419 0 0 0-.418.418v3.1c0 .23.188.418.418.418h.034c.23 0 .418-.189.418-.418V6.192L9.57 8.27c.009.015.02.029.03.042a.35.35 0 0 0 .163.12c.049.02.102.032.158.032h.035c.07 0 .136-.018.195-.05a.294.294 0 0 0 .101-.075zm-4.11.125h.035c.23 0 .417-.189.417-.418v-3.1a.419.419 0 0 0-.417-.418h-.035a.419.419 0 0 0-.417.418v3.1c0 .23.188.418.417.418z"/>
    </g>
</svg>
