<svg xmlns="http://www.w3.org/2000/svg" viewBox="0 0 41 40">
  <path d="M20.933 40c-11.045 0-20-8.954-20-20s8.955-20 20-20c11.046 0 20 8.954 20 20s-8.954 20-20 20zM9.6 22.839v1.17c.123.692.36 1.339.77 1.913a6.31 6.31 0 002.273 1.96c1.55.83 3.208 1.277 4.952 1.437.313.029.63 0 .94.065h.6c.057-.007.111-.025.169-.025.536 0 1.068-.055 1.6-.131 2.047-.298 3.939-.986 5.579-2.291.848-.673 1.579-1.451 2.003-2.473.45-1.083.446-2.134-.291-3.113-.37-.49-.85-.836-1.4-1.083-.255-.113-.52-.204-.78-.306-.302-.116-.338-.17-.244-.483.071-.251.165-.495.219-.75.24-1.156-.273-1.97-1.424-2.196-.745-.146-1.482-.036-2.209.145-.543.139-1.06.353-1.586.542-.122.047-.277.11-.385 0-.1-.102-.036-.247 0-.37.126-.44.195-.884.18-1.346-.025-.902-.683-1.582-1.575-1.622-.928-.044-1.759.276-2.572.665-1.366.659-2.532 1.604-3.589 2.684-.892.916-1.69 1.906-2.316 3.03a7.853 7.853 0 00-.914 2.578zm15.376.476c.01.91-.36 1.658-.946 2.305-1.119 1.226-2.532 1.906-4.13 2.233-1.456.302-2.912.302-4.355-.08-1.14-.302-2.18-.792-2.963-1.727-.968-1.153-.996-2.778-.08-3.978.806-1.051 1.867-1.739 3.08-2.197 1.32-.502 2.697-.669 4.092-.567 1.41.102 2.752.47 3.899 1.36.709.55 1.226 1.236 1.367 2.156.021.16.025.328.036.495zm6.625-5.99c0-.283-.008-.53-.044-.781-.244-1.884-1.172-3.328-2.747-4.342-.889-.575-1.885-.833-2.932-.866a4.686 4.686 0 00-1.402.156.839.839 0 00-.612 1 .867.867 0 00.99.691c.452-.061.906-.101 1.366-.061 1.557.134 3.06 1.4 3.474 2.92.227.825.22 1.636-.01 2.458-.152.542.107 1 .607 1.138.468.131.885-.134 1.054-.669.173-.549.274-1.109.256-1.643zm-5.83-2.96a2.364 2.364 0 00-.659.077.747.747 0 00-.521.894c.097.43.457.637.967.55.367-.062.698.021.99.247.52.403.665.927.506 1.56-.107.425.13.843.511.938.414.102.799-.13.924-.564.098-.334.134-.672.108-1.025-.104-1.502-1.345-2.68-2.827-2.677zm-7.525 6.64c-.18-.01-.36.015-.539.048-1.14.196-2.097.702-2.762 1.687-.881 1.306-.637 2.928.6 3.826.763.549 1.637.756 2.565.622 1.197-.179 2.204-.702 2.863-1.775.744-1.215.622-2.506-.328-3.473-.658-.673-1.5-.887-2.399-.934zm-.233 3.604c-.004.688-.788 1.317-1.482 1.19-.568-.106-.892-.48-.863-1.004.01-.186.082-.35.176-.506a1.353 1.353 0 011.442-.614c.46.109.73.454.727.934zm1.05-1.127c-.007.215-.252.425-.493.425-.201-.003-.378-.163-.367-.338.015-.24.27-.469.515-.454a.36.36 0 01.345.367z" fill="#D74048" fill-rule="evenodd"/>
</svg>
