<svg xmlns="http://www.w3.org/2000/svg" width="16" height="16" viewBox="0 0 16 16">
    <g fill="none" fill-rule="evenodd">
        <path d="M0 0h16v16H0z"/>
        <path fill="#333" d="M15.06.943A3.167 3.167 0 0 0 12.8 0c-.866-.02-1.665.332-2.272.94L8.195 3.275a.667.667 0 1 0 .943.942l2.333-2.333a1.86 1.86 0 0 1 1.324-.55h.004c.494 0 .969.198 1.316.55a1.857 1.857 0 0 1 0 2.643L9.529 9.115c-.978.977-2.383.524-2.894-.307a.667.667 0 0 0-1.124.717c.118.186.459.637.958.96A3.22 3.22 0 0 0 8.212 11c.502 0 1.441-.126 2.26-.944l4.586-4.586c.6-.602.938-1.415.942-2.264 0-.854-.335-1.658-.94-2.264m-7.255 10.84c.26.26.26.683 0 .943L5.47 15.059c-.608.608-1.407.96-2.273.94a3.169 3.169 0 0 1-2.258-.942A3.184 3.184 0 0 1 0 12.794c0-.841.343-1.667.942-2.265l4.587-4.587a3.173 3.173 0 0 1 2.259-.943c.61 0 1.215.176 1.743.516.38.254.706.58.958.961a.667.667 0 0 1-1.125.716c-.51-.831-1.915-1.285-2.893-.307l-4.586 4.587a1.86 1.86 0 0 0 0 2.644c.347.352.821.55 1.316.55h.003c.5 0 .97-.196 1.325-.55l2.333-2.333a.666.666 0 0 1 .943 0"/>
    </g>
</svg>
