<svg fill="none" xmlns="http://www.w3.org/2000/svg" viewBox="0 0 347 58">
  <path fill-rule="evenodd" clip-rule="evenodd" d="M58 54c13.807 0 25-11.193 25-25S71.807 4 58 4 33 15.193 33 29s11.193 25 25 25z" fill="url(#paint0_linear)"/>
  <path fill-rule="evenodd" clip-rule="evenodd" d="M29 58c16.016 0 29-12.984 29-29S45.016 0 29 0 0 12.984 0 29s12.984 29 29 29z" fill="url(#paint1_linear)"/>
  <path fill-rule="evenodd" clip-rule="evenodd" d="M214.965 51.629v-28.8h-5.614v-7.727h5.614V4.797h8.257v10.305h12.383V4.797h8.257v10.305h5.813v7.728h-5.813V43.9h5.614v7.729h-13.871v-28.8h-12.383v21.072h5.614v7.728h-13.871zm-103.965 0V4.798h11.295l12.682 35.668h.198l12.683-35.668h11.361v46.831h-8.125V18.537h-.264l-.164.604v.003c-.347 1.289-.728 2.703-1.355 4.413L138.94 51.629h-7.596l-10.37-28.072c-.727-1.982-1.189-3.567-1.519-5.02h-.264v33.092H111zm72.162.99c-10.371 0-18.033-8.586-18.033-19.287 0-10.7 7.662-19.287 18.033-19.287 6.473 0 11.493 3.5 13.805 8.323h.264v-7.266h8.058v36.527h-8.058v-7.134h-.264c-3.171 5.747-7.927 8.125-13.805 8.125zm1.717-7.794c6.605 0 11.163-4.954 11.163-11.493 0-6.605-4.558-11.493-11.163-11.493-6.539 0-11.031 4.888-11.031 11.493 0 6.54 4.492 11.493 11.031 11.493zm87.285 7.795c-11.163 0-19.882-8.72-19.882-19.42 0-10.7 8.719-19.089 19.882-19.089 11.163 0 19.882 8.389 19.882 19.354 0 .594-.066 1.65-.264 2.642h-30.649c.925 5.02 5.615 8.785 11.163 8.785 4.36 0 7.993-2.048 9.71-5.747h9.116c-2.577 7.86-9.842 13.475-18.958 13.475zM261.266 29.83h21.599c-.727-4.36-5.02-7.992-10.833-7.992-5.812 0-10.172 3.369-10.766 7.992zm35.568 21.798V15.102h21.996v7.728h-13.673v28.799h-8.323zm36.691.99c-7.794 0-13.607-5.283-13.607-11.69h8.257c.066 2.377 2.444 4.095 5.482 4.095 3.237 0 5.285-1.586 5.285-3.963 0-3.039-3.237-3.7-6.54-4.558-6.869-1.717-11.757-4.558-11.757-11.229 0-6.275 5.68-11.163 13.144-11.163 7.2 0 13.145 4.954 13.145 11.427l-8.257-.066c0-2.444-2.312-3.83-4.888-3.83-2.642 0-4.888 1.32-4.888 3.566 0 2.708 3.171 3.369 6.474 4.227C340.263 30.69 347 32.342 347 40.93c0 6.473-6.077 11.69-13.475 11.69z" fill="#333"/>
  <defs>
    <linearGradient id="paint0_linear" x1="27.385" y1="31.883" x2="64.53" y2="60.851" gradientUnits="userSpaceOnUse">
      <stop stop-color="#D7EAE1"/>
      <stop offset="1" stop-color="#79B1A6"/>
    </linearGradient>
    <linearGradient id="paint1_linear" x1="-2.494" y1="28.616" x2="31.043" y2="63.411" gradientUnits="userSpaceOnUse">
      <stop stop-color="#F4E2BC"/>
      <stop offset="1" stop-color="#BF9F5E"/>
    </linearGradient>
  </defs>
</svg>
