<svg width="16" height="16" viewBox="0 0 16 16" fill="none" xmlns="http://www.w3.org/2000/svg">
<path fill-rule="evenodd" clip-rule="evenodd" d="M8 0C3.582 0 0 3.582 0 8C0 12.418 3.582 16 8 16C12.418 16 16 12.418 16 8C16 3.582 12.418 0 8 0Z" fill="#C0A46B"/>
<path d="M6.8 4L8.08976 7.51024L11.6 8.8L8.08976 10.0898L6.8 13.6L5.51024 10.0898L2 8.8L5.51024 7.51024L6.8 4Z" fill="white"/>
<path d="M10.8 2L11.4138 4.18627L13.6001 4.80005L11.4138 5.41383L10.8 7.6001L10.1863 5.41383L8 4.80005L10.1863 4.18627L10.8 2Z" fill="white"/>
</svg>
