<svg width="16" height="16" viewBox="0 0 16 16" fill="none" xmlns="http://www.w3.org/2000/svg">
<path fill-rule="evenodd" clip-rule="evenodd" d="M7.76964 5.07985C7.7608 5.08703 7.75238 5.09461 7.74442 5.10256L6.07797 6.90366C5.95979 7.03034 5.97801 7.21931 6.11866 7.32575C6.17893 7.37136 6.25521 7.39624 6.33394 7.39597H7.50045V13.5497C7.50045 13.8813 7.63224 14 8.00038 14C8.36853 14 8.50032 13.8813 8.50032 13.5497V7.39597H9.66683C9.85091 7.3959 10.0001 7.26146 10 7.09567C9.99997 7.02551 9.97266 6.95757 9.9228 6.90366L8.25635 5.10256C8.12891 4.97524 7.911 4.96507 7.76964 5.07985ZM15 2.5C15 2.77614 14.7388 3 14.4167 3H1.58333C1.26117 3 1 2.77614 1 2.5C1 2.22386 1.26117 2 1.58333 2H14.4167C14.7388 2 15 2.22386 15 2.5Z" fill="#B3B3B3"/>
</svg>
