<svg xmlns="http://www.w3.org/2000/svg" viewBox="0 0 64 64">
  <g fill="none" fill-rule="evenodd">
    <path fill="#FFF" d="M0 0h64v64H0z"/>
    <g fill="#32325D">
      <path d="M56 32.43c0-3.414-1.653-6.107-4.813-6.107-3.174 0-5.094 2.693-5.094 6.08 0 4.013 2.267 6.04 5.52 6.04 1.587 0 2.787-.36 3.694-.867V34.91c-.907.453-1.947.733-3.267.733-1.293 0-2.44-.453-2.587-2.027h6.52c0-.173.027-.866.027-1.186zm-6.587-1.267c0-1.507.92-2.133 1.76-2.133.814 0 1.68.626 1.68 2.133h-3.44zM40.947 26.323c-1.307 0-2.147.613-2.614 1.04l-.173-.827h-2.933v15.547l3.333-.707.013-3.773c.48.347 1.187.84 2.36.84 2.387 0 4.56-1.92 4.56-6.147-.013-3.866-2.213-5.973-4.546-5.973zm-.8 9.187c-.787 0-1.254-.28-1.574-.627l-.013-4.947c.347-.386.827-.653 1.587-.653 1.213 0 2.053 1.36 2.053 3.107 0 1.786-.827 3.12-2.053 3.12zM30.64 25.536l3.347-.72V22.11l-3.347.706zM30.64 26.55h3.347v11.667H30.64zM27.053 27.536l-.213-.986h-2.88v11.666h3.333V30.31c.787-1.027 2.12-.84 2.534-.694V26.55c-.427-.16-1.987-.454-2.774.986zM20.387 23.656l-3.254.694-.013 10.68c0 1.973 1.48 3.426 3.453 3.426 1.094 0 1.894-.2 2.334-.44V35.31c-.427.173-2.534.786-2.534-1.187V29.39h2.534v-2.84h-2.534l.014-2.894zM11.373 29.936c0-.52.427-.72 1.134-.72 1.013 0 2.293.307 3.306.854v-3.134a8.793 8.793 0 00-3.306-.613C9.8 26.323 8 27.736 8 30.096c0 3.68 5.067 3.094 5.067 4.68 0 .614-.534.814-1.28.814-1.107 0-2.52-.454-3.64-1.067v3.173c1.24.534 2.493.76 3.64.76 2.773 0 4.68-1.373 4.68-3.76-.014-3.973-5.094-3.266-5.094-4.76z"/>
    </g>
  </g>
</svg>
