<svg xmlns="http://www.w3.org/2000/svg" width="30" height="20" viewBox="0 0 30 20" fill="none">
  <path fill="currentColor" fill-rule="evenodd" d="M27.08,0.499912681 C27.7165262,0.494670333 28.3290955,0.742432467 28.7829383,1.1887738 C29.2367812,1.63511513 29.4947177,2.24347029 29.5,2.87999682 L29.5,17.1299968 C29.4835257,18.4515796 28.4016388,19.5111135 27.08,19.5000835 L2.92,19.5000835 C2.28347383,19.5053233 1.67090452,19.2575612 1.21706166,18.8112198 C0.763218789,18.3648785 0.505282285,17.7565234 0.5,17.1199968 L0.5,2.87999682 C0.505282285,2.24347029 0.763218789,1.63511513 1.21706166,1.1887738 C1.67090452,0.742432467 2.28347383,0.494670333 2.92,0.499912681 L27.08,0.499912681 Z M25.5,13.4999968 L22.5,13.4999968 C21.85,13.4999968 21.5,13.7999968 21.5,14.4999968 C21.5,15.1999968 21.85,15.4999968 22.5,15.4999968 L22.5,15.4999968 L25.5,15.4999968 C26.15,15.4999968 26.5,15.1999968 26.5,14.4999968 C26.5,13.7999968 26.15,13.4999968 25.5,13.4999968 L25.5,13.4999968 Z M19.5,13.4999968 L16.5,13.4999968 C15.85,13.4999968 15.5,13.7999968 15.5,14.4999968 C15.5,15.1999968 15.85,15.4999968 16.5,15.4999968 L16.5,15.4999968 L19.5,15.4999968 C20.15,15.4999968 20.5,15.1999968 20.5,14.4999968 C20.5,13.7999968 20.15,13.4999968 19.5,13.4999968 L19.5,13.4999968 Z M13.5,13.4999968 L10.5,13.4999968 C9.85,13.4999968 9.5,13.7999968 9.5,14.4999968 C9.5,15.1999968 9.85,15.4999968 10.5,15.4999968 L10.5,15.4999968 L13.5,15.4999968 C14.15,15.4999968 14.5,15.1999968 14.5,14.4999968 C14.5,13.7999968 14.15,13.4999968 13.5,13.4999968 L13.5,13.4999968 Z M7.5,13.4999968 L4.5,13.4999968 C3.85,13.4999968 3.5,13.7999968 3.5,14.4999968 C3.5,15.1999968 3.85,15.4999968 4.5,15.4999968 L4.5,15.4999968 L7.5,15.4999968 C8.15,15.4999968 8.5,15.1999968 8.5,14.4999968 C8.5,13.7999968 8.15,13.4999968 7.5,13.4999968 L7.5,13.4999968 Z M9.72,5.49999682 L4.28,5.49999682 L4.18231224,5.50643742 C3.79822485,5.55745244 3.5,5.90538144 3.5,6.32999682 L3.5,6.32999682 L3.5,9.66999682 L3.50609012,9.77442559 C3.55431953,10.1847305 3.88307692,10.4999968 4.28,10.4999968 L4.28,10.4999968 L9.72,10.4999968 L9.81768776,10.4935562 C10.2017751,10.4425412 10.5,10.0946122 10.5,9.66999682 L10.5,9.66999682 L10.5,6.32999682 L10.4939099,6.22556805 C10.4456805,5.81526309 10.1169231,5.49999682 9.72,5.49999682 L9.72,5.49999682 Z"/>
</svg>
