<svg xmlns="http://www.w3.org/2000/svg" viewBox="0 0 28 28">
  <defs>
    <linearGradient x1="0%" y1="10.077%" x2="100%" y2="107.668%" id="a">
      <stop stop-color="#F4E2BC" offset="0%"/>
      <stop stop-color="#BF9F5E" offset="100%"/>
    </linearGradient>
  </defs>
  <g fill="none" fill-rule="evenodd">
    <path d="M15.593 18.383c.08-.053.157-.007.197.021.28.15 2.845 7.54 2.978 7.849.095.22.133.443 0 .591-.082.092-.14.15-.419.311-.264.158-.448.242-.583.27-.107.02-.193-.01-.248-.126-.114-.244-1.916-8.472-1.974-8.749-.011-.055-.027-.123.049-.167zm-3.452-.005c.08.033.069.1.06.156-.04.279-1.348 8.555-1.45 8.809-.048.12-.135.162-.246.157-.14-.008-.335-.066-.617-.182-.298-.118-.36-.168-.451-.246-.147-.126-.122-.35-.04-.577.117-.32 2.265-7.883 2.542-8.069.04-.033.115-.089.202-.048zm1.798-.049c.086-.003.12.056.145.098.126.235.563 6.638.603 6.871.028.163-.033.447-.219.508-.186.06-.207.1-.512.1-.305-.001-.431-.061-.552-.1-.121-.04-.212-.282-.179-.509.038-.257.45-6.625.573-6.862.022-.047.055-.103.141-.106z" fill="#C0A46B" fill-rule="nonzero"/>
    <path class="star" d="M8.103.941a1 1 0 011.794 0l1.96 3.973a1 1 0 00.753.547l4.386.64a1 1 0 01.553 1.707l-3.172 3.09a1 1 0 00-.288.885l.748 4.364a1 1 0 01-1.45 1.054L9.464 15.14a1 1 0 00-.93 0l-3.921 2.062a1 1 0 01-1.451-1.054l.748-4.364a1 1 0 00-.288-.885L.451 7.808a1 1 0 01.553-1.706L5.39 5.46a1 1 0 00.752-.547L8.103.94z" stroke="url(#a)" stroke-width="1.6" fill="url(#a)" stroke-linecap="round" stroke-linejoin="round" transform="translate(5 1)"/>
  </g>
</svg>
