<svg xmlns="http://www.w3.org/2000/svg" width="24" height="20" viewBox="0 0 24 20">
  <g fill="none" fill-rule="evenodd" transform="translate(0 -4)">
    <polygon points="0 0 24 0 24 24 0 24"/>
    <path fill="#444" fill-rule="nonzero" d="M12.3448562,23.8671555 C12.1327563,24.0581822 11.8059758,24.0411718 11.6148562,23.8291555 L9.1148562,20.8291555 C8.99072609,20.6801266 8.96398013,20.4727559 9.04623461,20.2971083 C9.12848908,20.1214607 9.30490294,20.0092282 9.4988562,20.0091555 L11.2488562,20.0091555 L11.2488562,9.75915546 C11.2488562,9.20715546 11.4468562,9.00915546 11.9988562,9.00915546 C12.5508562,9.00915546 12.7488562,9.20715546 12.7488562,9.75915546 L12.7488562,20.0091555 L14.4988562,20.0091555 C14.6931952,20.0083936 14.870297,20.1205303 14.9527157,20.2965286 C15.0351344,20.4725268 15.0078743,20.6803647 14.8828562,20.8291555 L12.3828562,23.8291555 C12.3708569,23.8424723 12.3581731,23.8551561 12.3448562,23.8671555 Z M24,4.75 C24,5.164 23.552,5.5 23,5.5 L1,5.5 C0.448,5.5 0,5.164 0,4.75 C0,4.336 0.448,4 1,4 L23,4 C23.552,4 24,4.336 24,4.75 Z"/>
  </g>
</svg>
