<svg width="16" height="16" viewBox="0 0 16 16" fill="none" xmlns="http://www.w3.org/2000/svg">
<path fill-rule="evenodd" clip-rule="evenodd" d="M15.3333 3C15.7015 3 16 2.77614 16 2.5C16 2.22386 15.7015 2 15.3333 2H0.666667C0.298477 2 0 2.22386 0 2.5C0 2.77614 0.298477 3 0.666667 3H15.3333ZM11.4825 13.5439C11.6777 13.3486 11.6777 13.0321 11.4825 12.8368L8.70759 10.0619L11.6467 7.12285C11.8419 6.92759 11.8419 6.61101 11.6467 6.41575C11.4514 6.22049 11.1348 6.22049 10.9396 6.41575L8.00049 9.35483L5.06141 6.41575C4.86614 6.22049 4.54956 6.22049 4.3543 6.41575C4.15904 6.61101 4.15904 6.92759 4.3543 7.12285L7.29338 10.0619L4.51852 12.8368C4.32325 13.0321 4.32325 13.3486 4.51852 13.5439C4.71378 13.7392 5.03036 13.7392 5.22562 13.5439L8.00049 10.769L10.7754 13.5439C10.9706 13.7392 11.2872 13.7392 11.4825 13.5439Z" fill="#333333"/>
</svg>
