<svg width="16" height="16" viewBox="0 0 16 16" fill="none" xmlns="http://www.w3.org/2000/svg">
<path d="M8.30969 0.0593694L7.84969 5.50937H7.69969L7.23969 0.0593694C7.20969 -0.110631 7.17969 0.0993693 7.17969 0.429369V8.75937C7.17969 9.05937 7.18969 9.32937 7.21969 9.47937L7.68969 12.7894V12.8194H7.85969V12.7994L8.32969 9.48937C8.34969 9.33937 8.36969 9.05937 8.36969 8.76937V0.429369C8.36969 0.0993693 8.32969 -0.110631 8.30969 0.0593694Z" fill="#F4ECE6"/>
<path d="M9.78973 0.0597666L8.13973 5.05977H7.56973L5.91973 0.0597666C5.82973 -0.110233 5.71973 0.0897666 5.71973 0.429767V8.75977C5.71973 9.05977 5.76973 9.32977 5.84973 9.47977L7.55973 12.7898V12.8198H8.15973V12.7998L9.86973 9.48977C9.94973 9.33977 9.99973 9.05977 9.99973 8.76977V0.429767C9.98973 0.0997666 9.87973 -0.110233 9.78973 0.0597666Z" fill="#F7F7F7"/>
<path d="M11.4096 0.0593694L8.43961 5.05937H7.42961L4.45961 0.0593694C4.29961 -0.110631 4.09961 0.0993693 4.09961 0.429369V8.75937C4.09961 9.05937 4.18961 9.32937 4.32961 9.47937L7.40961 12.7894V12.8194H8.48961V12.7994L11.5596 9.48937C11.6996 9.33937 11.7896 9.05937 11.7896 8.76937V0.429369C11.7796 0.0993693 11.5696 -0.110631 11.4096 0.0593694Z" fill="#F4ECE6"/>
<path d="M13.0296 0.20976L8.67957 5.06976H7.18957L2.83957 0.20976C2.60957 0.03976 2.30957 0.24976 2.30957 0.57976V8.90976C2.30957 9.20976 2.43957 9.47976 2.63957 9.62976L7.14957 12.9398V12.9698H8.72957V12.9298L13.2196 9.61976C13.4296 9.46976 13.5496 9.18976 13.5496 8.89976V0.57976C13.5596 0.24976 13.2596 0.03976 13.0296 0.20976Z" fill="#F7F7F7"/>
<path d="M14.3298 0.659376L8.92977 5.06938H7.07977L1.67977 0.659376C1.37977 0.489376 1.00977 0.689376 1.00977 1.02938V9.35938C1.00977 9.65938 1.16977 9.92938 1.42977 10.0794L7.02977 13.3894V13.4194H8.99977V13.3794L14.5798 10.0694C14.8398 9.91938 14.9998 9.63938 14.9998 9.34938V1.02938C14.9898 0.689376 14.6198 0.489376 14.3298 0.659376Z" fill="#F4ECE6"/>
<path d="M0.76 1.37981L6.94 5.03981V15.9998L0.47 12.1698C0.18 11.9998 0 11.6798 0 11.3398V1.79981C0 1.41981 0.43 1.17981 0.76 1.37981Z" fill="#FDA843"/>
<path d="M15.2396 1.37981L9.05957 5.03981V15.9998L15.5296 12.1698C15.8196 11.9998 15.9996 11.6798 15.9996 11.3398V1.79981C15.9996 1.41981 15.5696 1.17981 15.2396 1.37981Z" fill="#FDA843"/>
<path d="M9.12988 5.04004H6.87988V16H9.12988V5.04004Z" fill="#FFC483"/>
</svg>
