<svg width="20" height="20" viewBox="0 0 20 20" fill="none" xmlns="http://www.w3.org/2000/svg">
<path d="M6.41113 10.7429C6.41113 10.7429 7.62467 11.8876 9.77244 11.8876C11.9202 11.8876 12.7389 10.7429 12.7389 10.7429" stroke="#C0A46B" stroke-width="0.8" stroke-miterlimit="10" stroke-linecap="round"/>
<path d="M6.58435 8.45332C7.11095 8.45332 7.53785 8.05382 7.53785 7.56101C7.53785 7.0682 7.11095 6.6687 6.58435 6.6687C6.05775 6.6687 5.63086 7.0682 5.63086 7.56101C5.63086 8.05382 6.05775 8.45332 6.58435 8.45332Z" fill="#C0A46B"/>
<path d="M12.6039 8.45405C13.1305 8.45405 13.5574 8.05455 13.5574 7.56174C13.5574 7.06893 13.1305 6.66943 12.6039 6.66943C12.0773 6.66943 11.6504 7.06893 11.6504 7.56174C11.6504 8.05455 12.0773 8.45405 12.6039 8.45405Z" fill="#C0A46B"/>
<path d="M14.1161 2H5.06274C3.37727 2 2 3.2889 2 4.86621V13.3387C2 14.7898 2.91497 15.9525 4.60044 16.1328C4.85085 16.1598 5.03384 16.3581 4.98569 16.5925C4.88937 17.1062 4.80269 17.5839 4.80269 17.5839C4.60044 18.4312 5.48651 19.0891 6.17033 18.6024L8.95376 16.6195C9.31975 16.3581 9.77242 16.2139 10.2347 16.2139H14.1257C15.8208 16.2139 17.1885 14.925 17.1885 13.3477V4.87523C17.1885 3.2889 15.8112 2 14.1161 2Z" stroke="#C0A46B" stroke-width="0.8" stroke-miterlimit="10"/>
</svg>
