<svg width="24" height="24" viewBox="0 0 24 24" fill="none" xmlns="http://www.w3.org/2000/svg">
<path d="M22.8117 1L13.4463 7.89511L15.1818 3.82997L22.8117 1Z" fill="#E27625"/>
<path d="M1.18827 1L10.4756 7.95765L8.81824 3.82997L1.18827 1Z" fill="#E27625"/>
<path d="M19.4502 16.9948L16.9485 20.7785L22.2958 22.2482L23.828 17.073L19.4502 16.9948Z" fill="#E27625"/>
<path d="M0.203257 17.073L1.71987 22.2482L7.05147 20.7785L4.56547 16.9948L0.203257 17.073Z" fill="#E27625"/>
<path d="M6.77003 10.5844L5.28469 12.8202L10.5694 13.0547L10.3974 7.39479L6.77003 10.5844Z" fill="#E27625"/>
<path d="M17.2456 10.5844L13.5557 7.33225L13.4463 13.0547L18.7309 12.8202L17.2456 10.5844Z" fill="#E27625"/>
<path d="M7.05147 20.7785L10.2567 19.2463L7.48925 17.1199L7.05147 20.7785Z" fill="#E27625"/>
<path d="M13.759 19.2463L16.9485 20.7785L16.5107 17.1199L13.759 19.2463Z" fill="#E27625"/>
<path d="M16.9485 20.7785L13.759 19.2463L14.0248 21.3101L13.9935 22.1857L16.9485 20.7785Z" fill="#D7C1B3"/>
<path d="M7.05147 20.7785L10.0221 22.1857L10.0065 21.3101L10.2567 19.2463L7.05147 20.7785Z" fill="#D7C1B3"/>
<path d="M10.0691 15.744L7.42671 14.9778L9.30293 14.1179L10.0691 15.744Z" fill="#2F343B"/>
<path d="M13.9309 15.744L14.7127 14.1179L16.5889 14.9778L13.9309 15.744Z" fill="#2F343B"/>
<path d="M7.05147 20.7785L7.52052 16.9948L4.56547 17.073L7.05147 20.7785Z" fill="#CC6228"/>
<path d="M16.4951 16.9948L16.9485 20.7785L19.4502 17.073L16.4951 16.9948Z" fill="#CC6228"/>
<path d="M18.7309 12.8202L13.4463 13.0547L13.9309 15.744L14.7127 14.1179L16.5889 14.9778L18.7309 12.8202Z" fill="#CC6228"/>
<path d="M7.42671 14.9778L9.30293 14.1179L10.0691 15.744L10.5694 13.0547L5.28469 12.8202L7.42671 14.9778Z" fill="#CC6228"/>
<path d="M5.28469 12.8202L7.48925 17.1199L7.42671 14.9778L5.28469 12.8202Z" fill="#E27625"/>
<path d="M16.5889 14.9778L16.5107 17.1199L18.7309 12.8202L16.5889 14.9778Z" fill="#E27625"/>
<path d="M10.5694 13.0547L10.0691 15.744L10.6945 18.9335L10.8352 14.7433L10.5694 13.0547Z" fill="#E27625"/>
<path d="M13.4463 13.0547L13.1805 14.7277L13.3055 18.9335L13.9309 15.744L13.4463 13.0547Z" fill="#E27625"/>
<path d="M13.9309 15.744L13.3055 18.9335L13.759 19.2463L16.5107 17.1199L16.5889 14.9778L13.9309 15.744Z" fill="#F5841F"/>
<path d="M7.42671 14.9778L7.48925 17.1199L10.2567 19.2463L10.6945 18.9335L10.0691 15.744L7.42671 14.9778Z" fill="#F5841F"/>
<path d="M13.9935 22.1857L14.0248 21.3101L13.7746 21.1068H10.2254L10.0065 21.3101L10.0221 22.1857L7.05147 20.7785L8.08339 21.6228L10.1941 23.0769H13.8059L15.9166 21.6228L16.9485 20.7785L13.9935 22.1857Z" fill="#C0AD9E"/>
<path d="M13.759 19.2463L13.3055 18.9335H10.6945L10.2567 19.2463L10.0065 21.3101L10.2254 21.1068H13.7746L14.0248 21.3101L13.759 19.2463Z" fill="#2F343B"/>
<path d="M23.2182 8.34853L24 4.53355L22.8117 1L13.759 7.66059L17.2456 10.5844L22.1707 12.0228L23.2495 10.7564L22.7805 10.4124L23.5309 9.74007L22.9524 9.28664L23.7029 8.72378L23.2182 8.34853Z" fill="#763E1A"/>
<path d="M0 4.53355L0.797394 8.34853L0.297068 8.72378L1.04756 9.30228L0.469055 9.74007L1.21954 10.4124L0.750489 10.7564L1.84495 12.0228L6.77003 10.5844L10.2567 7.66059L1.18827 1L0 4.53355Z" fill="#763E1A"/>
<path d="M22.1707 12.0228L17.2456 10.5844L18.7309 12.8202L16.5107 17.1199L19.4502 17.073H23.828L22.1707 12.0228Z" fill="#F5841F"/>
<path d="M6.77003 10.5844L1.84495 12.0228L0.203257 17.073H4.56547L7.48925 17.1199L5.28469 12.8202L6.77003 10.5844Z" fill="#F5841F"/>
<path d="M13.4463 13.0547L13.759 7.66059L15.1818 3.82997H8.81824L10.2567 7.66059L10.5694 13.0547L10.6945 14.7433V18.9335H13.3055L13.3212 14.7433L13.4463 13.0547Z" fill="#F5841F"/>
</svg>
