<svg height="304" viewBox="0 0 267 304" width="267" xmlns="http://www.w3.org/2000/svg" xmlns:xlink="http://www.w3.org/1999/xlink"><defs><path id="a" d="m28.488694 45.5384615-6.0583859 6.0494528-6.0583858-6.0494528h-12.3719223c-2.209139 0-4-1.790861-4-4v-37.5384615c0-2.209139 1.790861-4 4-4h37.643739c2.209139 0 4 1.790861 4 4v37.5384615c0 2.209139-1.790861 4-4 4z"/><linearGradient id="b" x1="23.784%" x2="83.518%" y1="18.443%" y2="80.419%"><stop offset="0" stop-color="#efdaaf"/><stop offset="1" stop-color="#bf9f5e"/></linearGradient><path id="c" d="m28.488694 45.5384615-6.0583859 6.0494528-6.0583858-6.0494528h-12.3719223c-2.209139 0-4-1.790861-4-4v-37.5384615c0-2.209139 1.790861-4 4-4h37.643739c2.209139 0 4 1.790861 4 4v37.5384615c0 2.209139-1.790861 4-4 4z"/><linearGradient id="d" x1="95.434%" x2="21.137%" y1="77.234%" y2="18.145%"><stop offset="0" stop-color="#79b1a6"/><stop offset="1" stop-color="#d7eae1"/></linearGradient><path id="e" d="m28.488694 45.5384615-6.0583859 6.0494528-6.0583858-6.0494528h-12.3719223c-2.209139 0-4-1.790861-4-4v-37.5384615c0-2.209139 1.790861-4 4-4h37.643739c2.209139 0 4 1.790861 4 4v37.5384615c0 2.209139-1.790861 4-4 4z"/><path id="f" d="m28.488694 45.5384615-6.0583859 6.0494528-6.0583858-6.0494528h-12.3719223c-2.209139 0-4-1.790861-4-4v-37.5384615c0-2.209139 1.790861-4 4-4h37.643739c2.209139 0 4 1.790861 4 4v37.5384615c0 2.209139-1.790861 4-4 4z"/><path id="g" d="m28.488694 45.5384615-6.0583859 6.0494528-6.0583858-6.0494528h-12.3719223c-2.209139 0-4-1.790861-4-4v-37.5384615c0-2.209139 1.790861-4 4-4h37.643739c2.209139 0 4 1.790861 4 4v37.5384615c0 2.209139-1.790861 4-4 4z"/></defs><g fill="none" fill-rule="evenodd" transform="translate(-26 -8)"><path d="m0 0h320v320h-320z"/><g stroke="#92c7b8" stroke-width=".5"><ellipse cx="159.5" cy="118.5" rx="132.5" ry="38.5"/><ellipse cx="159.5" cy="167.5" rx="132.5" ry="38.5"/><ellipse cx="159.5" cy="215.5" rx="132.5" ry="38.5"/><ellipse cx="159.5" cy="263.5" rx="132.5" ry="38.5"/></g><g transform="translate(136 8)"><use fill="#def3ed" xlink:href="#a"/><use fill="#ecf6f1" xlink:href="#a"/><use fill="#f2faf7" xlink:href="#a"/><use fill="#f3faed" xlink:href="#a"/><use fill="#f2faf8" xlink:href="#a"/><path d="m9.1287478 14.2307692h27.3862434m-27.3862434 5.6923077h27.3862434m-27.3862434 5.6923077h27.3862434m-27.3862434 5.1230769h13.6931217" stroke="#9acabd" stroke-linecap="square"/></g><circle cx="160" cy="79" fill="url(#b)" r="11"/><g transform="translate(47 76)"><use fill="#def3ed" xlink:href="#c"/><use fill="#ecf6f1" xlink:href="#c"/><use fill="#f2faf7" xlink:href="#c"/><use fill="#f3faed" xlink:href="#c"/><use fill="#f2faf8" xlink:href="#c"/><path d="m9.1287478 14.2307692h27.3862434m-27.3862434 5.6923077h27.3862434m-27.3862434 5.6923077h27.3862434m-27.3862434 5.1230769h13.6931217" stroke="#9acabd" stroke-linecap="square"/></g><circle cx="71" cy="147" fill="url(#d)" r="11"/><g transform="translate(227 123)"><use fill="#def3ed" xlink:href="#e"/><use fill="#ecf6f1" xlink:href="#e"/><use fill="#f2faf7" xlink:href="#e"/><use fill="#f3faed" xlink:href="#e"/><use fill="#f2faf8" xlink:href="#e"/><path d="m9.1287478 14.2307692h27.3862434m-27.3862434 5.6923077h27.3862434m-27.3862434 5.6923077h27.3862434m-27.3862434 5.1230769h13.6931217" stroke="#9acabd" stroke-linecap="square"/></g><circle cx="250" cy="194" fill="url(#d)" r="11"/><g transform="translate(103 183)"><use fill="#def3ed" xlink:href="#f"/><use fill="#ecf6f1" xlink:href="#f"/><use fill="#f2faf7" xlink:href="#f"/><use fill="#f3faed" xlink:href="#f"/><use fill="#f2faf8" xlink:href="#f"/><path d="m9.1287478 14.2307692h27.3862434m-27.3862434 5.6923077h27.3862434m-27.3862434 5.6923077h27.3862434m-27.3862434 5.1230769h13.6931217" stroke="#9acabd" stroke-linecap="square"/></g><circle cx="126" cy="254" fill="url(#d)" r="11"/><g transform="translate(188 230)"><use fill="#def3ed" xlink:href="#g"/><use fill="#ecf6f1" xlink:href="#g"/><use fill="#f2faf7" xlink:href="#g"/><use fill="#f3faed" xlink:href="#g"/><use fill="#f2faf8" xlink:href="#g"/><path d="m9.1287478 14.2307692h27.3862434m-27.3862434 5.6923077h27.3862434m-27.3862434 5.6923077h27.3862434m-27.3862434 5.1230769h13.6931217" stroke="#9acabd" stroke-linecap="square"/></g><circle cx="211" cy="301" fill="url(#d)" r="11"/></g></svg>