<svg width="89" height="95" viewBox="0 0 89 95" fill="none" xmlns="http://www.w3.org/2000/svg">
<g clip-path="url(#clip0_9709_51615)">
<path d="M70.7599 81.3895C71.0624 81.0457 71.3578 80.7019 71.6533 80.3511C71.7728 80.2108 71.8854 80.0705 72.005 79.9302C72.3848 79.4601 72.7577 78.9831 73.1164 78.499C73.1516 78.4569 73.1797 78.4078 73.2079 78.3657C73.5315 77.9237 73.848 77.4677 74.1505 77.0187C74.263 76.8503 74.3686 76.6819 74.4811 76.5205C74.7062 76.1698 74.9313 75.812 75.1494 75.4542C75.2549 75.2858 75.3604 75.1104 75.4589 74.942C75.7473 74.4439 76.0287 73.9458 76.296 73.4406C76.3523 73.3284 76.4085 73.2161 76.4648 73.0969C76.6759 72.69 76.8799 72.276 77.0768 71.8551C77.1753 71.6516 77.2668 71.4412 77.3582 71.2377C77.513 70.8939 77.6607 70.5502 77.8084 70.2064C77.8928 70.0029 77.9843 69.7925 78.0687 69.582C78.2657 69.0839 78.4626 68.5787 78.6385 68.0736C78.7018 67.8912 78.7651 67.7018 78.8214 67.5194C78.948 67.1475 79.0676 66.7757 79.1801 66.4039C79.2505 66.1653 79.3208 65.9268 79.3912 65.6883C79.4826 65.3585 79.5741 65.0288 79.6585 64.699C79.7218 64.4605 79.7781 64.229 79.8414 63.9905C79.961 63.4783 80.0805 62.9591 80.179 62.44C80.2212 62.2155 80.2564 61.984 80.2986 61.7594C80.2142 58.1604 71.7377 47.0405 59.8916 35.254C48.0456 23.4676 36.8819 15.0347 33.2662 14.9575C33.0411 14.9996 32.809 15.0347 32.5839 15.0768C32.0633 15.182 31.5427 15.2943 31.0292 15.4206C30.7901 15.4767 30.5579 15.5398 30.3188 15.603C29.9881 15.6872 29.6575 15.7784 29.3269 15.8696C29.0877 15.9397 28.8485 16.0099 28.6094 16.08C28.2366 16.1923 27.8637 16.3186 27.4909 16.4449C27.308 16.508 27.1181 16.5641 26.9352 16.6273C26.4287 16.8097 25.9222 16.9991 25.4228 17.1955C25.2117 17.2797 25.0077 17.3709 24.7967 17.4551C24.452 17.6024 24.1073 17.7498 23.7626 17.9041C23.5586 17.9953 23.3476 18.0936 23.1436 18.1848C22.7286 18.3812 22.3135 18.5847 21.8985 18.8021C21.786 18.8583 21.6734 18.9144 21.5608 18.9705C21.0544 19.2371 20.5549 19.5177 20.0555 19.8124C19.8866 19.9106 19.7108 20.0159 19.542 20.1211C19.1832 20.3386 18.8315 20.5561 18.4727 20.7876C18.3039 20.8928 18.1351 21.0051 17.9733 21.1173C17.516 21.419 17.0658 21.7347 16.6227 22.0574C16.5805 22.0925 16.5312 22.1206 16.489 22.1557C16.0036 22.5135 15.5253 22.8853 15.054 23.2641C14.9133 23.3764 14.7726 23.4957 14.6249 23.6149C14.2731 23.9026 13.9355 24.1972 13.5908 24.4989C13.4501 24.6252 13.3094 24.7445 13.1758 24.8707C12.7185 25.2847 12.2683 25.7126 11.8252 26.1476C6.894 31.0797 3.50338 36.9659 1.66036 43.2028C1.10463 45.076 0.6896 46.9773 0.415256 48.8996C0.23236 50.1835 0.112774 51.4674 0.0494637 52.7583C-0.0419843 54.6946 0.00725694 56.631 0.197187 58.5603C0.492635 61.6191 1.14684 64.6499 2.14573 67.5825C2.71552 69.2733 3.41194 70.936 4.21386 72.5567C4.48821 73.1179 4.78366 73.6722 5.08614 74.2194C5.466 74.9069 5.874 75.5875 6.29607 76.254C6.78848 77.0257 7.30199 77.7974 7.85068 78.5411C9.05357 80.1757 10.3972 81.7332 11.8814 83.2136C12.8733 84.1958 13.9003 85.1218 14.9555 85.9778C16.0177 86.8407 17.108 87.6405 18.2335 88.3771C29.4606 95.7507 43.5576 96.9714 55.7272 92.0323C57.5562 91.2887 59.3359 90.4117 61.0594 89.3944C63.3596 88.0404 65.5473 86.4338 67.5944 84.5886C68.1079 84.1256 68.6073 83.6485 69.0997 83.1574C69.5429 82.7154 69.972 82.2594 70.387 81.8034C70.5137 81.6701 70.6333 81.5298 70.7528 81.3895H70.7599Z" fill="#F4E2B3"/>
<path fill-rule="evenodd" clip-rule="evenodd" d="M54.4679 77.7204C49.4594 76.0576 37.4304 77.2994 30.4452 82.5402C23.46 87.7739 28.7077 92.1237 41.3768 90.8047C54.0458 89.4857 63.6479 80.7582 54.4679 77.7204Z" fill="#EDC670"/>
<path fill-rule="evenodd" clip-rule="evenodd" d="M72.3215 68.1929C74.2489 65.2743 75.5995 57.985 73.5595 53.516C71.5125 49.0469 67.8616 51.9585 66.4477 59.6337C65.0338 67.3089 68.7972 73.5388 72.3285 68.1929H72.3215Z" fill="#EDC670"/>
<path fill-rule="evenodd" clip-rule="evenodd" d="M24.8176 25.4528C26.7521 25.7544 30.8883 24.681 32.8439 22.5062C34.7995 20.3313 32.5133 19.1105 28.159 20.2471C23.8046 21.3836 21.2652 24.8985 24.8176 25.4528Z" fill="#EDC670"/>
<path fill-rule="evenodd" clip-rule="evenodd" d="M11.0372 32.6232C6.93609 38.1516 3.32037 51.5446 6.6125 59.4093C9.90463 67.2809 17.319 61.542 21.1105 47.4404C24.9021 33.3388 18.557 22.4925 11.0372 32.6232Z" fill="#EDC670"/>
<path d="M38.9241 40.0518C41.9372 37.0403 42.2264 32.4558 39.5699 29.8119C36.9134 27.168 32.3172 27.466 29.304 30.4774C26.2908 33.4889 26.0017 38.0735 28.6582 40.7174C31.3147 43.3612 35.9109 43.0633 38.9241 40.0518Z" fill="#EDC670"/>
<path d="M67.3533 78.8014C68.6788 77.4767 69.0689 75.7216 68.2246 74.8814C67.3804 74.0412 65.6214 74.4339 64.296 75.7586C62.9705 77.0833 62.5804 78.8384 63.4246 79.6786C64.2689 80.5189 66.0278 80.1261 67.3533 78.8014Z" fill="#EDC670"/>
<path opacity="0.33" fill-rule="evenodd" clip-rule="evenodd" d="M13.5765 84.7988C14.0197 85.1917 14.4629 85.5776 14.9201 85.9424C14.9412 85.9564 14.9553 85.9704 14.9764 85.9845C15.4406 86.3633 15.919 86.7211 16.3973 87.0789C16.531 87.1771 16.6576 87.2754 16.7913 87.3666C17.2274 87.6823 17.6706 87.991 18.1137 88.2856C18.163 88.3207 18.2193 88.3558 18.2685 88.3909C18.9016 88.8048 19.5417 89.1977 20.1889 89.5695C20.2804 89.6256 20.3788 89.6818 20.4703 89.7379C21.0823 90.0887 21.7083 90.4114 22.3344 90.7271C22.4681 90.7973 22.6017 90.8604 22.7424 90.9306C23.3474 91.2252 23.9523 91.4988 24.5714 91.7584C24.7402 91.8286 24.902 91.8987 25.0708 91.9689C25.6687 92.2144 26.2667 92.446 26.8716 92.6564C27.0616 92.7266 27.2515 92.7897 27.4414 92.8529C28.0323 93.0563 28.6303 93.2387 29.2282 93.4141C29.4392 93.4773 29.6432 93.5264 29.8543 93.5825C30.4381 93.7439 31.029 93.8912 31.6129 94.0175C31.838 94.0666 32.0631 94.1087 32.2882 94.1578C32.7736 94.256 33.2589 94.3472 33.7513 94.4314C34.082 94.4875 34.4126 94.5366 34.7432 94.5858C35.1864 94.6489 35.6295 94.705 36.0657 94.7541C36.4385 94.7962 36.8113 94.8313 37.1842 94.8594C37.6133 94.8944 38.0424 94.9225 38.4715 94.9436C38.8232 94.9576 39.1749 94.9786 39.5266 94.9856C39.9909 94.9997 40.4552 94.9997 40.9195 94.9856C41.2571 94.9856 41.5948 94.9786 41.9324 94.9646C42.4178 94.9506 42.9032 94.9225 43.3956 94.8874C43.7473 94.8594 44.1061 94.8313 44.4578 94.7962C44.908 94.7541 45.3652 94.698 45.8154 94.6419C46.1953 94.5928 46.5822 94.5366 46.9621 94.4735C47.2716 94.4244 47.5741 94.3683 47.8836 94.3121C48.4041 94.2139 48.9176 94.1087 49.4382 93.9964C49.7125 93.9333 49.9939 93.8701 50.2683 93.8C50.5145 93.7368 50.7607 93.6807 51.0069 93.6176C44.3664 91.8566 38.0846 88.3909 32.865 83.1992C17.0445 67.4559 17.0164 41.9046 32.8017 26.1263C35.517 23.4112 38.5277 21.1731 41.7214 19.3912C37.8524 16.6059 34.8487 14.9853 33.28 14.9502C33.1464 14.9712 33.0057 14.9923 32.872 15.0204C32.858 15.0204 32.8439 15.0204 32.8228 15.0274C32.5485 15.0765 32.2811 15.1396 32.0138 15.1957C31.7747 15.2449 31.5355 15.294 31.2963 15.3501C31.0501 15.4062 30.8109 15.4623 30.5647 15.5255C30.4803 15.5465 30.4029 15.5676 30.3185 15.5886C30.0301 15.6658 29.7417 15.743 29.4533 15.8201C29.397 15.8342 29.3407 15.8482 29.2845 15.8693C29.1086 15.9184 28.9257 15.9745 28.7498 16.0236C28.6303 16.0587 28.5036 16.1008 28.3841 16.1359C28.0816 16.2271 27.7791 16.3253 27.4836 16.4235C27.4555 16.4305 27.4274 16.4445 27.3992 16.4516C27.1741 16.5287 26.9561 16.6059 26.738 16.6831C26.3159 16.8374 25.8939 16.9918 25.4718 17.1602C25.4507 17.1672 25.4296 17.1742 25.4085 17.1812C25.2045 17.2654 25.0005 17.3496 24.7965 17.4338C24.4518 17.5811 24.1071 17.7284 23.7624 17.8828C23.5865 17.967 23.4037 18.0441 23.2278 18.1283C23.1997 18.1424 23.1715 18.1564 23.1434 18.1704C22.7283 18.3669 22.3133 18.5703 21.9053 18.7808C21.8139 18.8299 21.7224 18.872 21.6239 18.9211C21.5466 18.9632 21.4692 19.0053 21.3848 19.0474C20.9627 19.2719 20.5406 19.5034 20.1256 19.749C20.0412 19.7981 19.9638 19.8472 19.8794 19.8963C19.7668 19.9664 19.6543 20.0296 19.5417 20.0997C19.183 20.3172 18.8313 20.5347 18.4725 20.7662C18.3037 20.8715 18.1348 20.9837 17.973 21.096C17.551 21.3766 17.1289 21.6713 16.7139 21.9729C16.5802 22.0712 16.4536 22.1624 16.32 22.2606C15.8908 22.5763 15.4688 22.906 15.0537 23.2428C14.9131 23.355 14.7724 23.4743 14.6246 23.5936C14.2729 23.8812 13.9353 24.1759 13.5906 24.4776C13.471 24.5828 13.3514 24.688 13.2318 24.8003C13.2107 24.8213 13.1826 24.8424 13.1615 24.8634C12.7113 25.2773 12.2611 25.6983 11.8249 26.1333C11.2622 26.6945 10.7205 27.2768 10.2 27.8662C10.0382 28.0486 9.87638 28.238 9.72163 28.4274C9.36287 28.8413 9.01818 29.2623 8.68053 29.6902C8.5117 29.9007 8.34287 30.1182 8.18108 30.3357C7.85046 30.7707 7.53391 31.2056 7.23143 31.6476C7.09777 31.8441 6.95005 32.0405 6.82343 32.237C6.39433 32.8754 5.98633 33.5138 5.59943 34.1663C5.59943 34.1663 5.59943 34.1663 5.59943 34.1733C5.21254 34.8258 4.85378 35.4923 4.50909 36.1658C4.40357 36.3762 4.29806 36.5867 4.19254 36.8042C3.9604 37.2742 3.7353 37.7513 3.51723 38.2354C3.41171 38.4739 3.3062 38.7195 3.20068 38.958C2.99668 39.4421 2.80675 39.9332 2.61682 40.4173C2.53241 40.6348 2.44799 40.8523 2.37061 41.0698C2.11737 41.7713 1.88524 42.4799 1.6742 43.1955C1.50537 43.7568 1.35765 44.3251 1.21696 44.8933C1.17476 45.0617 1.13958 45.2301 1.09738 45.3914C0.998893 45.8124 0.907445 46.2404 0.823032 46.6613C0.78786 46.8297 0.752687 46.9981 0.72455 47.1664C0.39393 48.9274 0.182896 50.7094 0.0844135 52.4914C0.0844135 52.5756 0.0703446 52.6597 0.0633102 52.7439H0.0422068C0.0140689 53.3262 0.00703446 53.9085 0 54.4909C0 54.6592 0 54.8346 0 55.003C0 55.438 0.0140689 55.8659 0.0351723 56.3009C0.0351723 56.4693 0.0492412 56.6447 0.0562757 56.8131C0.0844135 57.3954 0.12662 57.9777 0.182896 58.56C0.253241 59.2756 0.344689 59.9912 0.45724 60.7068C0.485378 60.8752 0.513516 61.0506 0.541654 61.2189C0.633102 61.7872 0.738618 62.3485 0.858204 62.9167C0.893377 63.0711 0.928549 63.2254 0.956687 63.3798C1.09034 63.9901 1.23807 64.5935 1.39986 65.1969C1.428 65.2951 1.4491 65.3863 1.47724 65.4845C1.6742 66.1861 1.88524 66.8876 2.12441 67.5822C2.25103 67.9611 2.39172 68.3399 2.53241 68.7188C2.56758 68.81 2.60275 68.9082 2.63792 68.9994C3.09516 70.1991 3.61571 71.3847 4.19254 72.5493C4.46688 73.1106 4.76233 73.6578 5.06481 74.2121C5.44467 74.8996 5.85267 75.5801 6.27474 76.2466C6.49281 76.5904 6.71791 76.9272 6.94301 77.2639C7.23143 77.6919 7.51984 78.1128 7.82936 78.5338C8.18811 79.0249 8.56797 79.5019 8.95487 79.979C9.06742 80.1193 9.18701 80.2596 9.29956 80.3999C9.59501 80.7507 9.89045 81.0945 10.2 81.4383C10.3196 81.5716 10.4391 81.7119 10.5658 81.8452C10.9878 82.3012 11.4169 82.7572 11.8601 83.1992C12.2962 83.6342 12.7464 84.0551 13.2037 84.4691C13.3162 84.5743 13.4358 84.6795 13.5554 84.7848L13.5765 84.7988Z" fill="#EAD096"/>
<path d="M79.9987 62.668C82.046 60.622 73.036 48.3445 59.8745 35.2455C46.713 22.1465 34.3839 13.1863 32.3367 15.2323C30.2895 17.2784 39.2994 29.5559 52.4609 42.6549C65.6224 55.7539 77.9515 64.7141 79.9987 62.668Z" fill="#CEA552"/>
<path d="M85.0749 10.5238C82.9646 6.31435 73.8198 -0.701383 63.2681 6.31435C54.1092 12.404 49.9026 20.3458 55.5302 28.7647C55.7553 29.1014 55.9804 29.4242 56.2126 29.7469C56.9371 30.7571 57.1763 32.027 56.8245 33.2197L55.6639 37.1555C55.3262 38.292 56.4658 39.3023 57.5561 38.8463L62.22 36.8889C63.0993 36.5171 64.0771 36.503 64.9916 36.7696C69.1419 37.9763 74.2208 37.0152 80.8472 32.9741C93.5093 25.2568 87.1782 14.7332 85.0679 10.5238H85.0749Z" fill="#E6F4ED"/>
<path d="M49.4311 15.0488C49.0723 15.7855 47.9609 15.7434 47.6795 14.9786C46.4766 11.6742 43.7543 4.37086 46.5118 1.10855C50.3033 -3.38853 53.4618 6.72815 49.4311 15.0558V15.0488Z" fill="#F4E2B3"/>
<path d="M75.2548 45.7284C74.8046 45.0479 75.4095 44.1148 76.2115 44.2621C79.6724 44.9146 87.3541 46.3177 88.761 50.3518C90.6954 55.9012 80.3618 53.4387 75.2548 45.7284Z" fill="#91BFA5"/>
<path d="M42.467 14.7331C42.4037 15.2593 41.7143 15.4697 41.3837 15.0628C39.9346 13.3019 36.7128 9.41515 37.6976 6.82635C39.0553 3.26937 43.1564 8.77672 42.474 14.7331H42.467Z" fill="#CCE2D6"/>
<path d="M77.2454 40.9296C76.7319 40.7963 76.6194 40.0878 77.0696 39.8141C79.0181 38.6285 83.3232 35.9695 85.7501 37.3025C89.0985 39.1336 83.0629 42.424 77.2454 40.9367V40.9296Z" fill="#DBB26A"/>
<circle cx="71.5" cy="19.5" r="10.5" fill="white"/>
<path d="M67.3691 16.1362C67.8276 16.1362 68.1992 15.7655 68.1992 15.3083C68.1992 14.8511 67.8276 14.4805 67.3691 14.4805C66.9107 14.4805 66.5391 14.8511 66.5391 15.3083C66.5391 15.7655 66.9107 16.1362 67.3691 16.1362Z" fill="#4B7F6E"/>
<path d="M74.4033 16.1362C74.8617 16.1362 75.2334 15.7655 75.2334 15.3083C75.2334 14.8511 74.8617 14.4805 74.4033 14.4805C73.9449 14.4805 73.5732 14.8511 73.5732 15.3083C73.5732 15.7655 73.9449 16.1362 74.4033 16.1362Z" fill="#4B7F6E"/>
<path d="M68.9096 18.9427C68.5368 18.9427 68.3891 18.4656 68.6916 18.2552C69.2191 17.8974 69.9367 17.5396 70.6471 17.5396C71.3576 17.5396 72.1595 17.8833 72.7997 18.2341C73.1444 18.4235 73.0177 18.9427 72.6238 18.9427H68.9026H68.9096Z" fill="#846225"/>
</g>
<defs>
<clipPath id="clip0_9709_51615">
<rect width="89" height="95" fill="white"/>
</clipPath>
</defs>
</svg>
