<svg width="686" height="308" viewBox="0 0 686 308" fill="none" xmlns="http://www.w3.org/2000/svg">
<path d="M342.09 89C165.95 89 40.6384 122.536 0 140.519V308H686V140.519C644.755 122.536 518.23 89 342.09 89Z" fill="#0D6763"/>
<path d="M415.285 265.618C415.197 265.989 415.109 266.371 415.011 266.743L415.031 266.733C415.031 266.743 415.119 266.342 415.285 265.618Z" fill="black"/>
<path d="M360.696 157.074C360.696 157.074 362.32 159.823 358.524 160.851C354.729 161.878 350.289 161.046 349.418 157.074C348.548 153.102 350.504 149.541 352.675 145.99C354.847 142.429 357.967 137.244 361.048 138.437C364.119 139.621 360.696 157.074 360.696 157.074Z" fill="#EFEFEF"/>
<path d="M361.694 137.537C361.694 137.537 358.417 140.218 355.385 145.354C352.352 150.49 348.665 156.311 353.321 158.463C357.977 160.615 361.234 159.06 362.858 155.646C364.481 152.231 367.523 146.459 368.717 145.354C369.91 144.248 361.694 137.537 361.694 137.537Z" fill="#7D7D7D"/>
<path d="M422.562 134.72C416.058 130.816 411.402 130.992 411.402 130.992L405.122 131.159C403.733 130.004 402.971 129.192 402.971 129.192L368.061 130.992C368.061 130.992 353.34 142.537 361.791 152.779C368.247 160.606 374.497 157.446 379.74 155.763C381.041 155.685 382.782 155.92 386.959 157.172C394.236 159.354 401.2 157.837 410.199 157.837C415.031 157.837 427.433 157.064 428.412 150.882C429.39 144.699 429.067 138.623 422.562 134.72Z" fill="#95AACD"/>
<path d="M385.1 137.488C385.1 137.488 392.69 138.193 394.696 138.956C396.701 139.719 395.234 140.042 399.361 139.875C403.479 139.709 404.946 140.306 405.866 140.276C406.785 140.247 412.155 142.634 412.155 142.634C412.155 142.634 407.597 139.435 405.758 139.112C403.919 138.789 401.474 138.789 399.087 138.085C396.701 137.381 395.781 136.617 392.583 135.483C389.384 134.348 386.949 133.526 386.46 133.418C385.971 133.311 381.256 132.655 381.256 132.655L385.1 137.488Z" fill="#7B92B0"/>
<path d="M360.383 114.234C366.046 96.5265 369.587 91.6741 375.28 89.5609C380.972 87.4478 391.702 86.2542 405.523 90.6469C419.344 95.0395 419.677 108.54 419.843 117.482C420.009 126.424 417.466 131.638 408.252 132.773C399.038 133.908 376.815 128.547 370.301 127.568C364.197 126.659 357.967 121.787 360.383 114.234Z" fill="#5784C0"/>
<path d="M401.19 78.3296L399.4 88.9834C399.4 88.9834 393.043 96.9567 381.99 90.2846V81.1765L401.19 78.3296Z" fill="#EDD1C3"/>
<path d="M378.723 66.9908C378.723 66.9908 377.285 63.8015 375.828 65.2103C374.37 66.6191 374.39 71.0997 376.209 72.8314C378.019 74.5728 379.173 69.6323 378.723 66.9908Z" fill="#F8E7DD"/>
<path d="M378.821 72.724C378.821 72.724 378.684 72.4011 375.348 63.0191C373.803 58.6852 377.715 46.6421 381.452 49.4108C385.531 52.4338 385.394 52.0033 389.159 51.6902C395.664 51.1522 401.2 50.0662 407.617 59.8787C409.857 63.3028 409.573 68.9672 406.267 73.1055C402.54 77.772 400.515 78.9265 390.323 77.1948C380.131 75.4632 378.821 72.724 378.821 72.724Z" fill="#5A3522"/>
<path d="M387.937 89.492C397.669 90.3725 402.247 81.2546 402.902 73.0075C403.557 64.7603 399.645 63.2439 390.763 61.5123C381.872 59.7807 379.153 59.5557 379.153 59.5557C379.153 59.5557 366.252 87.5452 387.937 89.492Z" fill="#F8E7DD"/>
<path d="M402.873 73.0663C402.873 73.0663 405.788 71.139 406.267 73.1054C406.746 75.0718 404.34 78.8481 401.885 79.3568C399.42 79.8558 401.083 75.062 402.873 73.0663Z" fill="#F8E7DD"/>
<path d="M381.843 70.7381C381.618 71.3349 381.638 72.1665 382.469 71.8926C383.31 71.6284 383.692 70.474 383.251 69.9653C382.811 69.4663 382.215 69.75 381.843 70.7381Z" fill="#5A3522"/>
<path d="M392.338 73.3304C392.113 73.9271 392.133 74.7587 392.964 74.4848C393.796 74.2109 394.187 73.0662 393.747 72.5575C393.307 72.0488 392.71 72.3423 392.338 73.3304Z" fill="#5A3522"/>
<path d="M382 68.1945C382.41 68.0281 384.318 67.9303 385.149 68.1651C385.98 68.3999 384.807 67.0988 383.418 67.2357C382.019 67.3629 382 68.1945 382 68.1945Z" fill="#5A3522"/>
<path d="M395.625 71.2368C395.312 70.9139 393.61 70.0628 392.759 69.9454C391.908 69.8182 393.502 69.1041 394.725 69.7889C395.938 70.4737 395.625 71.2368 395.625 71.2368Z" fill="#5A3522"/>
<path d="M386.235 73.0957C386.235 73.0957 382.89 77.322 381.784 78.6721C380.689 80.0319 382.43 81.2255 384.347 81.4016C386.264 81.5679 386.156 82.2918 385.951 82.9082C385.951 82.9082 386.714 83.4854 386.567 82.0766C386.421 80.6678 385.687 81.1081 384.298 80.6776C382.909 80.2374 381.677 80.1983 382.557 78.7797C383.428 77.3709 386.254 73.3598 386.235 73.0957Z" fill="#C67454"/>
<path d="M383.613 83.5439C383.613 83.5439 387.956 85.4614 390.343 84.3853C390.343 84.3853 390.333 86.7528 386.812 86.2734C383.007 85.7451 383.613 83.5439 383.613 83.5439Z" fill="#E4969B"/>
<path d="M403.479 104.793V121.219C403.479 121.219 369.91 123.792 365.107 125.758C360.305 127.725 359.013 134.71 359.013 134.71C359.013 134.71 401.582 134.915 408.233 132.763C414.884 130.611 415.764 122.354 415.764 117.795C415.774 113.255 403.479 104.793 403.479 104.793Z" fill="#5783C0"/>
<path d="M403.479 121.229V107.885L400.633 117.316L365.107 125.759C365.117 125.759 393.796 120.896 403.479 121.229Z" fill="#336399"/>
<path d="M380.581 122.09L373.832 119.761L376.092 105.771L376.806 118.46L389.159 122.09H380.581Z" fill="#336399"/>
<path d="M386.968 180.652C386.968 180.652 383.183 185.7 389.159 187.324C395.136 188.948 398.344 188.243 402.051 183.557C405.758 178.871 403.332 161.301 402.97 159.354C402.609 157.397 400.261 154.687 394.93 159.354C389.599 164.02 386.968 180.652 386.968 180.652Z" fill="#EFEFEF"/>
<path d="M399.684 153.053C400.007 153.161 401.875 159.217 402.051 160.547C402.97 167.699 403.479 178.832 399.684 182.804C395.889 186.776 385.697 187.343 386.352 181.473C387.007 175.603 390.91 164.431 388.191 158.796C385.472 153.161 399.684 153.053 399.684 153.053Z" fill="#7D7D7D"/>
<path d="M401.034 154.139C402.423 152.799 402.384 150.568 400.956 149.267C398.735 147.252 395.625 144.229 394.754 142.507C393.365 139.738 389.189 139.249 386.401 136.647C383.613 134.044 371.416 117.521 366.213 114.312C361.009 111.103 354.661 112.248 352.714 118.91C350.758 125.582 351.091 128.673 355.316 133.389C359.542 138.104 369.626 144.454 372.228 148.024C374.83 151.595 374.654 152.094 377.432 153.885C380.2 155.675 380.464 155.861 381.716 157.886C382.968 159.911 385.844 162.513 387.497 161.535C388.876 160.713 396.427 158.58 401.034 154.139Z" fill="#BBCDEE"/>
<path d="M410.659 132.342C410.659 132.342 417.633 132.469 420.147 133.409L421.966 134.367C421.966 134.367 421.467 131.52 420.821 130.875C420.166 130.219 419.462 129.867 418.572 129.632C417.682 129.388 416.968 128.84 416.968 128.84C416.968 128.84 414.992 131.364 410.659 132.342Z" fill="#EDD1C3"/>
<path d="M256.741 104.265C254.403 111.23 255.518 128.879 254.696 133.565C253.875 138.251 250.588 149.825 250.588 149.825C250.588 149.825 256.887 154.501 261.964 150.334C261.964 150.334 267.148 124.34 267.647 119.487C268.126 114.625 260.898 91.8501 256.741 104.265Z" fill="#834322"/>
<path d="M259.127 135.189C259.127 135.189 245.913 144.327 236.806 150.51C228.776 155.959 228.952 170.986 238.127 172.6C245.668 173.931 254.872 169.166 254.872 169.166C254.872 169.166 254.305 180.358 269.505 180.358C278.788 180.358 305.999 162.484 305.999 162.484C305.999 162.484 311.526 152.574 304.043 150.334L302.077 150.559C302.077 150.559 301.216 144.973 296.012 138.614L259.127 135.189Z" fill="#373838"/>
<path d="M254.853 169.166C254.853 169.166 261.524 156.703 270.464 151.694C279.404 146.685 276.861 142.644 276.861 142.644L256.437 136.755L251.234 140.59C251.234 140.59 255.987 148.749 258.11 150.569C260.232 152.388 252.104 169 246.167 172.082C246.167 172.072 252.74 169.851 254.853 169.166Z" fill="#1F2020"/>
<path d="M268.732 95.5777C268.732 95.5777 280.959 93.4352 285.145 95.5777C289.332 97.7202 299.23 95.7734 299.24 114.968C299.25 134.162 300.326 140.668 296.648 142.644C292.97 144.621 264.605 146.039 259.245 140.59C253.875 135.141 260.223 135.19 261.68 127.686C263.138 120.182 245.042 101.731 268.732 95.5777Z" fill="#A05623"/>
<path d="M268.732 90.872L269.212 97.6517C269.212 97.6517 272.303 101.986 277.8 101.232C283.297 100.479 285.488 97.1136 285.488 97.1136L286.075 89.8447L268.732 90.872Z" fill="#EDD1C3"/>
<path d="M263.48 76.1092C262.805 79.6898 263.118 92.8775 272.674 96.7223C279.345 99.4126 290.212 94.2765 290.016 83.7205C289.831 73.1547 286.084 66.0033 278.279 63.8901C270.473 61.7769 265.104 67.4805 263.48 76.1092Z" fill="#F8E7DD"/>
<path d="M271.285 66.0031C271.285 66.0031 274.435 69.4566 274.865 71.3936C275.951 76.3341 276.636 76.9407 282.025 75.62C284.294 75.0623 289.117 76.1091 289.117 76.1091C289.117 76.1091 291.493 86.7434 287.747 90.9403C284.001 95.1373 301.06 93.7579 300.727 90.9403C300.404 88.1228 296.658 83.9552 297.313 77.4201C297.969 70.8849 287.395 52.5024 273.408 57.7071C273.408 57.7071 263.979 56.2396 259.421 65.0248C254.863 73.8101 255.841 83.5541 251.781 87.3793C247.722 91.2045 268.449 96.6243 267.5 92.848C266.003 86.9586 264.233 86.2346 264.213 78.4081C264.184 71.648 271.285 66.0031 271.285 66.0031Z" fill="#704A38"/>
<path d="M264.204 78.418C264.204 78.418 260.301 75.6689 260.467 80.1007C260.634 84.5324 265.505 88.749 265.994 86.9684C266.473 85.1781 264.204 78.418 264.204 78.418Z" fill="#F8E7DD"/>
<path d="M283.991 78.8482C284.069 79.4841 283.854 80.2766 283.101 79.8265C282.348 79.3667 282.24 78.1634 282.798 77.7721C283.355 77.3808 283.864 77.8014 283.991 78.8482Z" fill="#5A3522"/>
<path d="M273.183 78.8972C273.261 79.5331 273.046 80.3255 272.293 79.8755C271.54 79.4157 271.432 78.2124 271.99 77.821C272.547 77.4297 273.056 77.8602 273.183 78.8972Z" fill="#5A3522"/>
<path d="M270.474 76.0992C270.855 75.8546 272.713 75.4339 273.564 75.5122C274.415 75.5904 273.036 74.5241 271.696 74.8958C270.356 75.2774 270.474 76.0992 270.474 76.0992Z" fill="#5A3522"/>
<path d="M279.795 78.4766C279.795 78.4766 281.233 82.8985 281.712 84.3269C282.191 85.7552 280.763 86.5085 279.433 86.3128C278.103 86.1074 278.025 86.7824 278.044 87.3694C278.044 87.3694 277.418 87.7412 277.79 86.5085C278.161 85.2758 278.572 85.8041 279.609 85.6672C280.636 85.5302 281.477 85.7161 281.164 84.278C280.851 82.8398 279.736 78.7114 279.795 78.4766Z" fill="#C67454"/>
<path d="M275.11 89.3458C275.11 89.3458 279.58 90.0013 281.125 89.0229C281.125 89.0229 280.392 91.3024 278.934 91.4589C277.467 91.6155 275.755 91.5372 275.11 89.3458Z" fill="#E4969B"/>
<path d="M305.5 108.824C302.253 97.8276 289.117 97.0156 289.117 97.0156C289.117 97.0156 291.181 108.53 290.701 113.843C290.359 117.668 286.456 132.333 284.304 140.247L267.745 145.579C267.745 145.579 267.383 153.278 270.425 155.685C270.425 155.685 293.773 153.415 296.619 146.235C298.399 141.754 299.133 139.142 299.436 137.801C303.133 128.586 307.476 115.516 305.5 108.824Z" fill="#A05623"/>
<path d="M267.744 147.223C267.744 147.223 267.93 152.104 269.231 154.218C269.231 154.218 263.274 157.446 262.091 158.855C260.907 160.254 256.848 165.82 256.281 166.75C255.713 167.679 256.007 161.105 256.437 157.769C256.868 154.433 257.513 150.588 260.986 149.062C264.458 147.536 267.744 147.223 267.744 147.223Z" fill="#F8E7DD"/>
<path d="M263.548 148.132C263.548 148.132 264.487 153.053 267.891 154.971L269.231 154.218C269.231 154.218 268.263 153.053 267.745 147.223C267.745 147.223 265.201 147.555 263.548 148.132Z" fill="#EDD1C3"/>
<path d="M272.156 144.161L284.304 140.247L290.466 115.447C290.466 115.447 283.091 135.943 282.456 137.352C281.81 138.76 267.471 143.584 267.471 143.584C267.471 143.584 271.168 144.131 272.156 144.161Z" fill="#834322"/>
<path d="M300.023 146.948C300.023 146.948 300.404 143.544 302.458 141.597C304.522 139.65 309.628 140.629 311.574 141.597C313.521 142.566 311.574 144.268 314.734 144.268C317.893 144.268 317.776 143.661 322.999 144.268C328.232 144.874 333.7 145.481 334.668 148.406C335.636 151.322 334.551 154.012 332.477 155.098C330.413 156.184 326.882 155.939 326.882 155.939L300.023 146.948Z" fill="#1F2020"/>
<path d="M296.012 152.055C296.012 152.055 298.34 144.15 302.468 144.268C306.596 144.385 314.861 147.917 319.849 148.162C324.838 148.406 324.838 147.839 328.115 149.091C331.401 150.353 332.125 151.664 330.912 154.286C329.699 156.908 326.902 156.653 322.402 156.595C317.903 156.546 300.394 159.823 299.054 160.43C297.714 161.036 296.012 152.055 296.012 152.055Z" fill="#583016"/>
<path d="M304.131 153.669C304.131 153.669 310.684 150.92 310.234 149.286C309.785 147.653 308.132 147.516 306.332 148.22C304.532 148.915 300.629 151.517 300.629 151.517L304.131 153.669Z" fill="#1F2020"/>
<path d="M297.744 151.41C297.744 151.41 266.404 156.693 264.253 157.769C262.101 158.845 255.146 163.541 255.146 171.543C255.146 179.546 263.734 182.843 275.599 178.969C287.454 175.095 305.999 162.484 305.999 162.484C305.999 162.484 312.817 152.065 297.744 151.41Z" fill="#4C4C4C"/>
<path d="M285.478 97.1035C285.478 97.1035 277.232 119.898 273.828 122.285C270.425 124.672 269.212 97.6514 269.212 97.6514C269.212 97.6514 272.322 101.389 275.98 101.32C279.639 101.242 283.414 99.5786 285.478 97.1035Z" fill="#373838"/>
<path d="M284.999 210.891H288.334L287.444 204.776L284.999 206.518V210.891Z" fill="#5A3522"/>
<path d="M396.28 210.646L390.069 209.022L396.574 202.379L398.628 204.776L396.28 210.646Z" fill="#5A3522"/>
<path d="M332.086 187.48C332.037 187.421 331.988 187.372 331.929 187.313C330.305 185.611 327.889 184.916 325.581 185.357L285.194 193.291L291.953 213.366L329.053 198.818C333.817 197.204 335.47 191.197 332.086 187.48Z" fill="#48291B"/>
<path d="M293.86 198.926L290.388 202.272L293.459 198.065C291.112 193.32 287.571 192.772 285.194 193.3C281.115 194.191 279.169 198.466 282.005 205.774C282.739 207.672 283.786 209.472 284.989 210.89L286.133 208.357L285.576 211.536C287.542 213.551 289.84 214.53 291.943 213.375C295.592 211.36 296.13 206.645 294.692 201.371C294.457 200.471 294.173 199.659 293.86 198.926Z" fill="#826339"/>
<path d="M349.203 187.235C349.252 187.177 349.301 187.128 349.359 187.069C350.983 185.367 353.399 184.672 355.707 185.112L396.094 193.047L389.335 213.122L352.235 198.574C347.472 196.96 345.809 190.953 349.203 187.235Z" fill="#48291B"/>
<path d="M387.418 198.682L390.891 202.027L387.819 197.821C390.167 193.076 393.708 192.528 396.084 193.056C400.163 193.947 402.11 198.222 399.273 205.53C398.54 207.428 397.493 209.228 396.29 210.646L395.145 208.113L395.703 211.292C393.737 213.307 391.438 214.286 389.335 213.131C385.687 211.116 385.149 206.4 386.587 201.127C386.831 200.218 387.115 199.406 387.418 198.682Z" fill="#826339"/>
<path d="M324.71 220.527L331.274 196.696C332.311 192.998 335.313 190.17 339.069 189.397C340.585 189.084 342.278 188.938 344.058 189.114C348 189.515 351.325 192.234 352.626 195.972L361.811 222.347L324.71 220.527Z" fill="#5A3522"/>
<path d="M361.341 227.699L360.637 221.486L329.073 227.307L330.217 235.496L331.714 236.503L361.341 227.699Z" fill="#5A3522"/>
<path d="M351.873 226.417L361.733 225.331C361.791 224.724 361.821 224.118 361.821 223.521C361.821 216.34 353.399 210.529 343.021 210.529C332.643 210.529 324.221 216.35 324.221 223.521C324.221 227.688 326.07 232.335 330.227 235.495L333.249 232.482L331.714 236.503C334.57 238.215 338.297 239.291 343.011 239.291C355.062 239.291 359.923 233.656 361.341 227.698L351.873 226.417Z" fill="#826339"/>
<path d="M319.145 202.722C319.145 202.722 320.514 195.052 317.091 191.765C313.667 188.478 312.415 187.949 312.415 187.949C312.415 187.949 308.053 184.095 311.476 171.22C314.9 158.346 309.54 151.223 309.54 151.223C309.54 151.223 315.585 151.223 317.228 156.976C318.871 162.728 324.212 167.385 324.212 167.385C324.212 167.385 319.145 155.606 323.116 148.758C327.087 141.91 332.565 129.446 327.498 125.474C327.498 125.474 335.577 124.105 336.536 132.322C337.495 140.54 347.413 150.95 347.413 150.95C347.413 150.95 345.163 140.198 351.462 136.95C351.462 136.95 349.545 142.321 352.832 145.471C356.118 148.621 361.459 157.524 360.363 166.016C359.268 174.507 362.828 179.027 362.828 179.027C362.828 179.027 362.554 166.289 368.169 162.181C373.783 158.072 368.169 153.689 368.169 153.689C368.169 153.689 375.563 154.97 375.974 164.049C376.385 173.128 383.202 180.68 373.91 188.683L360.099 186.276C360.099 186.276 349.565 189.798 353.389 198.104C353.389 198.104 348.733 188.742 341.749 189.153C334.766 189.564 330.618 199.043 330.618 199.043C330.618 199.043 331.068 193.125 327.782 194.22C324.485 195.326 319.145 202.722 319.145 202.722Z" fill="#EB8C3E"/>
<path d="M352.753 169.42C351.658 162.435 346.454 164.03 346.454 164.03C349.056 165.761 349.604 172.707 344.175 171.612C338.747 170.516 338.659 167.64 336.331 159.148C334.003 150.656 327.43 152.437 327.43 152.437C327.43 152.437 331.264 154.08 330.031 165.174C328.799 176.268 332.907 174.077 333.181 179.692C333.455 185.308 330.442 185.034 327.293 184.075C324.143 183.117 324.006 177.09 324.006 177.09C322.598 186.276 324.593 191.804 326.041 195.208C326.657 194.749 327.263 194.387 327.801 194.201C331.088 193.105 330.638 199.024 330.638 199.024C330.638 199.024 334.785 189.544 341.769 189.133C348.753 188.722 353.409 198.085 353.409 198.085C350.69 192.176 355.228 188.693 358.074 187.177C358.241 185.738 358.397 184.066 358.515 182.158C358.916 175.31 353.849 176.405 352.753 169.42Z" fill="#E7C25B"/>
<path d="M344.312 230.007C343.579 230.007 342.747 229.733 341.652 229.224C338.903 227.943 338.717 227.483 338.531 224.509C338.443 223.129 339.715 221.593 341.564 220.84C343.549 220.028 345.496 220.42 346.748 221.877C349.447 225.008 348.547 226.827 347.452 228.06C346.268 229.4 345.408 230.007 344.312 230.007ZM338.737 224.489C338.913 227.366 339.04 227.776 341.74 229.038C344.4 230.281 345.388 230.085 347.305 227.923C347.97 227.17 349.526 225.409 346.601 222.014C345.408 220.625 343.549 220.253 341.652 221.036C339.871 221.75 338.659 223.208 338.737 224.489Z" fill="#5A3522"/>
<path d="M343.931 227.356C343.559 227.356 343.129 227.219 342.581 226.964C341.182 226.309 341.084 226.084 340.996 224.558C340.947 223.844 341.603 223.051 342.542 222.67C343.559 222.259 344.547 222.454 345.192 223.198C346.572 224.793 346.102 225.722 345.544 226.358C344.948 227.043 344.498 227.356 343.931 227.356ZM341.202 224.538C341.29 225.967 341.348 226.152 342.669 226.769C343.97 227.375 344.459 227.277 345.388 226.221C345.926 225.614 346.298 224.802 345.036 223.335C344.449 222.66 343.549 222.484 342.62 222.855C341.769 223.208 341.162 223.932 341.202 224.538Z" fill="#5A3522"/>
<path d="M345.28 233.519C344.165 233.519 342.952 233.216 341.642 232.6C339.128 231.426 337.719 230.467 336.79 229.293C335.773 228.001 335.264 226.407 335.108 223.932C334.99 221.985 336.35 220.018 338.658 218.805C341.202 217.465 345.124 216.976 348.518 219.627C351.511 221.965 352.998 224.284 351.208 228.628C350.23 230.995 348.89 232.521 347.227 233.167C346.62 233.402 345.975 233.519 345.28 233.519ZM343.05 217.925C341.446 217.925 339.95 218.365 338.756 218.991C336.516 220.175 335.196 222.063 335.313 223.922C335.616 228.735 337.25 230.33 341.73 232.414C343.794 233.382 345.623 233.568 347.158 232.971C348.763 232.345 350.063 230.858 351.022 228.549C352.763 224.333 351.315 222.073 348.401 219.793C346.669 218.443 344.801 217.925 343.05 217.925Z" fill="#5A3522"/>
<path d="M345.672 235.27C343.94 235.27 342.023 234.762 339.891 233.764L339.324 233.5C333.367 230.731 331.763 229.978 331.352 223.335C331.156 220.194 334.081 216.663 338.306 214.941C342.874 213.082 347.325 213.963 350.21 217.318C356.773 224.939 355.228 227.532 354.093 229.43L354.064 229.488C351.736 233.372 349.036 235.27 345.672 235.27ZM331.557 223.325C331.968 229.85 333.543 230.584 339.412 233.323L339.979 233.588C346.141 236.464 350.425 235.163 353.878 229.381L353.908 229.322C355.003 227.483 356.509 224.969 350.044 217.455C347.227 214.178 342.864 213.307 338.375 215.137C334.237 216.819 331.362 220.263 331.557 223.325Z" fill="#5A3522"/>
<path d="M345.329 236.288C343.001 236.288 340.517 235.769 338.023 234.713C330.286 231.406 329.278 230.692 328.76 223.13C328.545 219.921 331.596 216.281 336.203 214.256C338.795 213.121 341.515 212.652 344.058 212.906C346.953 213.19 349.506 214.432 351.462 216.487C355.57 220.831 359.013 225.174 355.981 230.555C353.878 234.282 349.927 236.288 345.329 236.288ZM342.728 213.043C340.439 213.043 338.189 213.601 336.282 214.442C331.763 216.428 328.75 219.989 328.965 223.11C329.474 230.555 330.472 231.259 338.101 234.517C345.417 237.648 352.695 235.975 355.795 230.457C358.759 225.194 355.365 220.909 351.306 216.624C348.841 214.021 345.75 213.043 342.728 213.043Z" fill="#5A3522"/>
<path d="M343.882 238.009C341.524 238.009 339.167 237.579 336.937 236.718C328.378 233.411 326.735 230.232 326.138 222.337C325.914 219.314 328.74 215.958 333.357 213.786C336.35 212.378 339.686 211.683 342.767 211.83C346.317 212.006 349.447 213.288 351.805 215.547C353.966 217.631 355.688 219.089 357.067 220.253C359.199 222.063 360.373 223.051 360.666 224.274C360.96 225.477 360.432 226.818 359.062 229.557C357.37 232.932 354.054 235.662 349.956 237.031C347.99 237.677 345.936 238.009 343.882 238.009ZM341.749 211.986C339.236 211.986 336.428 212.554 333.445 213.972C328.907 216.115 326.119 219.392 326.344 222.317C326.931 230.114 328.554 233.265 337.015 236.532C341.143 238.127 345.721 238.234 349.897 236.835C353.937 235.485 357.214 232.795 358.876 229.469C361.478 224.274 361.136 223.98 356.93 220.41C355.551 219.236 353.829 217.778 351.658 215.694C349.545 213.669 346.073 211.986 341.749 211.986Z" fill="#5A3522"/>
<path d="M287.698 206.312C287.581 206.312 287.453 206.273 287.326 206.204C286.123 205.549 285.174 203.221 285.321 201.89C285.409 201.117 285.722 200.119 286.329 199.865C286.524 199.787 286.827 199.748 287.199 200.041C288.119 200.765 288.363 201.117 288.441 202.722C288.51 204.375 288.529 205.891 287.962 206.244C287.884 206.292 287.796 206.312 287.698 206.312ZM286.612 200.012C286.544 200.012 286.475 200.021 286.407 200.051C285.986 200.227 285.624 200.99 285.527 201.91C285.39 203.152 286.299 205.402 287.424 206.019C287.6 206.116 287.737 206.126 287.855 206.058C288.373 205.735 288.285 203.847 288.236 202.722C288.168 201.195 287.952 200.882 287.082 200.198C286.916 200.08 286.759 200.012 286.612 200.012Z" fill="#5A3522"/>
<path d="M287.982 208.2C287.815 208.2 287.639 208.152 287.444 208.054C285.605 207.115 284.167 203.778 284.392 201.89C284.519 200.814 284.979 199.415 285.869 199.034C286.289 198.858 286.73 198.926 287.18 199.259C288.588 200.286 288.95 200.795 289.058 203.084C289.146 204.855 289.273 207.525 288.373 208.103C288.255 208.161 288.128 208.2 287.982 208.2ZM286.309 199.131C286.182 199.131 286.064 199.161 285.947 199.21C285.194 199.542 284.724 200.804 284.597 201.91C284.382 203.71 285.8 206.978 287.532 207.868C287.835 208.024 288.07 208.034 288.265 207.917C289.058 207.408 288.93 204.698 288.852 203.084C288.745 200.873 288.422 200.413 287.052 199.415C286.798 199.229 286.554 199.131 286.309 199.131Z" fill="#5A3522"/>
<path d="M289.332 209.912C288.422 209.912 285.184 208.386 284.128 204.806C283.052 201.157 284.167 199.259 284.92 198.437C285.507 197.811 286.29 197.517 287.033 197.644C287.63 197.752 288.481 198.192 289.107 199.66C289.332 200.198 289.556 200.677 289.762 201.137C290.544 202.829 291.112 204.052 291.004 206.205C290.887 208.611 290.329 209.864 289.371 209.903C289.361 209.912 289.351 209.912 289.332 209.912ZM286.691 197.83C286.113 197.83 285.536 198.094 285.077 198.584C284.353 199.366 283.277 201.205 284.333 204.747C285.36 208.24 288.569 209.707 289.341 209.707C289.351 209.707 289.361 209.707 289.371 209.707C290.212 209.668 290.701 208.494 290.808 206.205C290.916 204.101 290.359 202.898 289.586 201.235C289.371 200.775 289.155 200.296 288.921 199.758C288.334 198.368 287.551 197.957 287.004 197.86C286.896 197.84 286.788 197.83 286.691 197.83Z" fill="#5A3522"/>
<path d="M289.821 210.793C289.293 210.793 288.715 210.666 288.129 210.411C286.965 209.903 284.793 208.465 283.277 204.512C282.064 201.323 282.319 199.102 284.187 196.842C284.47 196.5 285.087 196.285 285.879 196.236C286.779 196.197 288.089 196.392 288.823 197.106C291.131 199.366 292.305 203.465 292.511 205.52C292.775 208.2 292.579 209.883 290.77 210.617C290.486 210.734 290.163 210.793 289.821 210.793ZM286.143 196.431C286.055 196.431 285.977 196.431 285.898 196.441C285.175 196.48 284.588 196.676 284.353 196.969C282.543 199.161 282.289 201.323 283.483 204.434C284.959 208.318 287.082 209.727 288.217 210.216C289.136 210.617 290.046 210.695 290.701 210.431C292.403 209.746 292.579 208.181 292.315 205.549C292.11 203.524 290.946 199.484 288.686 197.253C288.06 196.647 286.974 196.431 286.143 196.431Z" fill="#5A3522"/>
<path d="M289.938 212.407C289.488 212.407 289.028 212.339 288.559 212.211C286.309 211.566 284.275 209.433 283.13 206.527C280.607 200.129 281.487 197.654 283.854 195.551C285.253 194.308 286.867 194.279 288.52 195.472C290.006 196.549 292.638 198.73 293.508 201.274C293.723 201.9 294.428 204.14 294.467 206.508C294.506 208.905 293.87 210.597 292.569 211.556C291.787 212.123 290.887 212.407 289.938 212.407ZM286.143 194.797C285.39 194.797 284.676 195.101 283.991 195.707C280.949 198.407 281.438 201.695 283.326 206.449C284.451 209.306 286.436 211.38 288.627 212.016C290.006 212.407 291.356 212.192 292.452 211.39C295.161 209.394 294.281 204.131 293.322 201.342C292.471 198.857 289.879 196.705 288.412 195.649C287.62 195.071 286.867 194.797 286.143 194.797Z" fill="#5A3522"/>
<path d="M393.629 205.706C393.747 205.706 393.874 205.666 394.001 205.598C395.204 204.943 396.153 202.614 396.006 201.284C395.918 200.511 395.605 199.513 394.999 199.258C394.803 199.18 394.5 199.141 394.128 199.435C393.209 200.159 392.964 200.511 392.886 202.115C392.818 203.769 392.798 205.285 393.365 205.637C393.453 205.676 393.541 205.706 393.629 205.706ZM394.725 199.405C394.793 199.405 394.862 199.415 394.93 199.444C395.351 199.62 395.713 200.384 395.811 201.303C395.948 202.546 395.038 204.796 393.913 205.412C393.737 205.51 393.6 205.52 393.483 205.451C392.964 205.128 393.052 203.24 393.101 202.115C393.17 200.589 393.385 200.276 394.255 199.591C394.422 199.464 394.578 199.405 394.725 199.405Z" fill="#5A3522"/>
<path d="M393.355 207.594C393.522 207.594 393.698 207.545 393.893 207.447C395.732 206.508 397.17 203.172 396.945 201.284C396.818 200.208 396.358 198.809 395.468 198.427C395.048 198.251 394.607 198.32 394.158 198.652C392.749 199.679 392.387 200.188 392.28 202.477C392.191 204.248 392.064 206.919 392.964 207.496C393.082 207.555 393.209 207.594 393.355 207.594ZM395.018 198.525C395.145 198.525 395.263 198.554 395.38 198.603C396.133 198.936 396.603 200.198 396.73 201.303C396.945 203.104 395.527 206.371 393.796 207.261C393.492 207.418 393.258 207.428 393.062 207.31C392.27 206.802 392.397 204.092 392.475 202.477C392.583 200.266 392.906 199.807 394.275 198.809C394.539 198.623 394.784 198.525 395.018 198.525Z" fill="#5A3522"/>
<path d="M392.006 209.306C392.915 209.306 396.153 207.78 397.209 204.199C398.285 200.55 397.17 198.652 396.417 197.83C395.83 197.204 395.048 196.911 394.304 197.038C393.708 197.146 392.857 197.586 392.231 199.053C392.006 199.591 391.781 200.071 391.575 200.531C390.793 202.223 390.226 203.446 390.333 205.598C390.451 208.005 391.008 209.257 391.967 209.296C391.976 209.306 391.986 209.306 392.006 209.306ZM394.647 197.224C395.224 197.224 395.801 197.488 396.261 197.977C396.984 198.76 398.06 200.599 397.004 204.14C395.977 207.633 392.769 209.101 391.996 209.101C391.986 209.101 391.976 209.101 391.967 209.101C391.125 209.061 390.636 207.887 390.529 205.598C390.421 203.495 390.979 202.291 391.751 200.628C391.967 200.169 392.182 199.689 392.417 199.151C393.003 197.762 393.786 197.351 394.334 197.253C394.441 197.224 394.539 197.224 394.647 197.224Z" fill="#5A3522"/>
<path d="M391.517 210.177C392.045 210.177 392.622 210.05 393.209 209.795C394.373 209.287 396.544 207.848 398.06 203.896C399.273 200.707 399.019 198.486 397.151 196.226C396.867 195.884 396.251 195.668 395.458 195.619C394.559 195.58 393.248 195.776 392.514 196.49C390.206 198.75 389.032 202.849 388.827 204.904C388.563 207.584 388.758 209.267 390.568 210.001C390.851 210.128 391.174 210.177 391.517 210.177ZM395.194 195.825C395.282 195.825 395.361 195.825 395.439 195.835C396.163 195.874 396.75 196.07 396.984 196.363C398.794 198.554 399.048 200.716 397.855 203.828C396.378 207.711 394.255 209.12 393.121 209.609C392.201 210.01 391.292 210.089 390.636 209.825C388.934 209.14 388.758 207.574 389.022 204.943C389.228 202.918 390.392 198.877 392.651 196.647C393.277 196.03 394.363 195.825 395.194 195.825Z" fill="#5A3522"/>
<path d="M391.399 211.801C391.849 211.801 392.309 211.732 392.778 211.605C395.028 210.959 397.063 208.827 398.207 205.921C400.731 199.523 399.85 197.048 397.483 194.944C396.085 193.702 394.471 193.672 392.818 194.866C391.331 195.942 388.7 198.124 387.829 200.667C387.614 201.294 386.91 203.534 386.871 205.901C386.831 208.298 387.467 209.991 388.768 210.949C389.551 211.507 390.451 211.801 391.399 211.801ZM395.194 194.181C395.948 194.181 396.662 194.484 397.346 195.091C400.388 197.791 399.899 201.078 398.011 205.833C396.887 208.69 394.901 210.764 392.71 211.4C391.331 211.791 389.981 211.576 388.886 210.773C386.176 208.778 387.056 203.514 388.015 200.726C388.866 198.241 391.458 196.089 392.925 195.032C393.717 194.465 394.471 194.181 395.194 194.181Z" fill="#5A3522"/>
<path d="M228.923 159.529C228.923 159.529 230.087 154.491 231.505 151.253C232.923 148.015 235.104 144.952 235.818 143.456C236.532 141.959 237.961 143.456 236.797 146.459C235.633 149.462 235.232 150.059 235.818 150.421C236.405 150.783 239.438 145.921 240.601 144.424C241.765 142.927 242.597 142.389 243.956 140.648C245.306 138.906 246.343 138.124 246.089 139.748C245.834 141.372 244.925 142.81 243.956 144.131C242.988 145.451 241.638 146.713 242.284 147.007C242.929 147.3 245.189 144.972 245.639 144.189C246.089 143.407 247.898 140.53 248.798 139.386C249.698 138.241 250.471 138.006 250.412 139.327C250.344 140.648 249.639 141.303 248.925 142.751C248.211 144.199 246.02 147.075 245.502 148.034C244.983 148.993 247.82 147.613 248.857 146.713C249.894 145.813 251.175 143.71 252.016 142.751C252.857 141.792 254.276 141.313 253.435 143.407C252.593 145.51 251.048 147.066 250.148 147.966C249.248 148.866 247.693 149.648 247.047 150.666C246.402 151.683 247.82 150.91 248.916 150.304C250.011 149.697 251.234 148.024 252.075 147.78C252.916 147.535 253.63 147.721 252.398 149.521C251.165 151.321 248.622 152.456 247.703 153.18C246.783 153.904 246.529 154.824 245.365 155.802C244.201 156.78 242.978 157.084 241.296 159.06C239.623 161.036 237.364 161.936 235.496 163.051C233.627 164.166 227.495 171.064 227.495 171.064C227.495 171.064 221.949 167.708 222.144 165.722C222.144 165.702 228.424 161.476 228.923 159.529Z" fill="#F8E7DD"/>
<path d="M195.784 160.615C195.784 160.615 188.722 168.784 188.066 173.587C187.411 178.391 194.903 184.466 206.66 176.875C218.417 169.283 200.684 158.502 195.784 160.615Z" fill="#6FABB0"/>
<path d="M241.012 240.406C241.012 240.406 239.095 240.367 237.188 239.673C235.28 238.978 230.458 236.757 230.458 236.757C230.458 236.757 239.652 226.475 243.829 226.788C248.006 227.101 247.076 230.32 247.076 230.32L241.012 240.406Z" fill="#939292"/>
<path d="M240.699 238.039L240.523 240.172C240.503 240.445 240.816 240.592 241.012 240.406C242.44 238.958 246.264 234.928 247.878 231.836C249.884 228.001 247.34 225.428 245.932 225.076" fill="#B7B7B7"/>
<path d="M224.785 235.202C224.785 235.202 224.002 238.684 224.081 240.514C224.159 242.343 225.822 244.271 229.92 244.574C233.774 244.848 236.288 244.652 238.635 242.744C238.929 242.5 239.115 242.138 239.144 241.756L239.623 236.963L224.785 235.202Z" fill="#B7B7B7"/>
<path d="M252.466 202.458L243.633 224.479C243.633 224.479 251.361 225.311 247.487 231.014C238.811 243.811 233.784 242.715 228.052 241.58C224.941 240.964 224.531 236.982 224.452 235.534C224.335 233.578 225.998 233.587 227.348 229.664C229.695 222.826 234.742 203.935 234.742 203.935L252.466 202.458Z" fill="#7A5237"/>
<path d="M243.624 224.479C243.624 224.479 241.667 228.843 243.624 229.586C245.58 230.33 247.918 226.573 247.918 226.573C247.918 226.573 247.331 225.008 243.624 224.479Z" fill="#64422A"/>
<path d="M243.624 209.521C243.624 209.521 229.099 230.77 226.908 236.033C225.841 238.596 226.908 240.964 226.908 240.964C226.908 240.964 224.658 240.005 224.315 236.288C223.993 232.785 229.891 224.89 231.661 218.159C233.422 211.438 238.371 209.609 238.371 209.609C238.371 209.609 241.619 209.531 243.624 209.521Z" fill="#64422A"/>
<path d="M270.18 176.64C270.18 176.64 273.652 169.929 274.083 165.575C274.513 161.222 276.049 158.13 276.939 156.79C277.829 155.45 278.651 154.471 279.012 153.865C279.374 153.258 280.519 153.659 280.313 155.694C280.108 157.729 279.218 157.768 279.012 159.558C278.807 161.349 278.357 162.523 279.052 162.083C279.746 161.633 281.771 160.009 283.072 158.825C284.373 157.641 285.918 153.728 286.857 152.358C287.796 150.988 288.119 148.944 290.593 148.416C293.078 147.887 291.122 149.834 289.987 151.429C288.852 153.014 288.481 155.498 287.708 157.044C286.935 158.59 286.935 158.59 286.935 158.59C286.935 158.59 289.048 155.743 290.192 154.853C291.337 153.963 293.156 151.311 295.034 150.421C296.902 149.531 296.942 149.286 297.959 149.404C298.976 149.521 299.954 150.421 297.959 151.556C295.963 152.691 294.545 154.158 293.645 155.381C292.755 156.604 292.511 156.888 292.511 156.888C292.511 156.888 296.619 154.452 298.321 154.364C300.032 154.285 300.433 154.285 299.983 155.498C299.534 156.721 297.255 157.122 295.914 157.778C294.574 158.433 294.574 158.433 294.574 158.433C294.574 158.433 292.824 160.625 291.894 162.092C290.955 163.56 289.742 166.279 287.424 167.992C285.106 169.704 281.321 173.685 280.392 174.703C279.453 175.72 275.922 181.903 275.922 181.903C275.922 181.903 270.777 179.046 270.18 176.64Z" fill="#F8E7DD"/>
<path d="M294.046 159.109C294.046 159.109 297.352 154.657 297.303 154.168C297.264 153.679 294.946 153.17 293.156 156.702C291.611 159.754 291.083 160.087 291.083 160.087L294.046 159.109Z" fill="#F8E7DD"/>
<path d="M280.959 173.803C280.959 173.803 278.005 168.051 273.77 167.375C273.77 167.375 273.065 170.77 272.733 171.416L279.345 176.19C279.355 176.19 280.079 175.27 280.959 173.803Z" fill="#EDD1C3"/>
<path d="M206.347 197.771C206.347 197.771 232.669 168.921 244.034 174.243C255.4 179.565 256.007 197.243 251.449 205.158C246.891 213.062 230.712 210.666 229.803 207.202C228.893 203.729 206.347 197.771 206.347 197.771Z" fill="#F8E7DD"/>
<path d="M241.795 193.75C239.144 200.873 233.402 204.815 229.47 206.772C229.568 206.919 229.656 207.056 229.685 207.192C230.253 209.345 236.728 211.086 242.636 210.196C243.741 203.093 241.795 193.75 241.795 193.75Z" fill="#EDD1C3"/>
<path d="M186.746 203.809C186.746 203.809 176.798 216.527 181.063 230.174C185.327 243.822 205.222 247.187 215.806 244.389C226.389 241.591 236.933 222.514 239.966 212.408C243.008 202.312 243.242 195.748 243.242 195.748C243.242 195.748 225.294 187.833 217.312 186.101C209.331 184.37 192.116 196.52 186.746 203.809Z" fill="#FAFAFA"/>
<path opacity="0.48" d="M243.194 195.698C242.813 195.531 241.091 194.778 238.666 193.761C238.617 194.064 238.568 194.377 238.509 194.71C237.697 193.976 236.876 193.311 236.064 192.675C234.929 192.205 233.716 191.716 232.454 191.217L232.357 191.178C230.958 190.62 229.52 190.072 228.082 189.525L227.887 189.446C225.911 188.703 223.945 188.008 222.125 187.421C221.812 188.419 221.431 189.652 221.01 191.08C219.387 191.129 217.01 191.09 214.33 190.845C215.054 189.065 215.758 187.411 216.433 185.944C214.789 185.807 212.833 186.14 210.711 186.834C210.28 187.871 209.821 188.986 209.361 190.17C207.972 189.906 206.603 189.573 205.282 189.163C201.595 191.06 197.799 193.594 194.513 196.216C194.415 196.461 194.327 196.705 194.229 196.96C194.102 196.891 193.985 196.823 193.858 196.744C192.283 198.036 190.845 199.327 189.603 200.579C190.503 201.127 191.471 201.685 192.488 202.243C191.813 204.571 191.217 207.027 190.767 209.58C189.084 208.699 187.539 207.799 186.179 206.938C187.304 204.473 188.517 202.321 189.564 200.619C188.458 201.734 187.51 202.81 186.786 203.798C186.786 203.798 176.838 216.516 181.103 230.164C185.367 243.811 205.263 247.176 215.846 244.378C216.345 244.242 216.853 244.065 217.352 243.86C217.606 243.713 217.871 243.576 218.125 243.43C218.184 243.43 218.242 243.43 218.301 243.439C222.174 241.532 225.969 237.697 229.305 233.177C230.518 230.555 231.144 226.945 230.997 223.374C231.877 222.621 232.758 221.75 233.599 220.772C233.883 220.449 234.147 220.107 234.411 219.764C234.616 221.564 234.773 223.032 234.91 224.264C236.426 221.437 237.717 218.649 238.705 216.135C238.538 215.215 238.343 214.315 238.108 213.464C239.331 210.803 240.299 207.966 241.072 205.266C241.277 205.569 241.463 205.872 241.659 206.185C242.294 203.387 242.695 201.049 242.93 199.317C242.823 199.19 242.715 199.043 242.607 198.916C242.852 197.723 243.038 196.656 243.194 195.698ZM225.656 192.42C225.93 192.557 226.234 192.724 226.537 192.89C226.009 194.22 225.392 195.776 224.776 197.292C224.61 197.224 224.444 197.136 224.287 197.067C224.776 195.375 225.246 193.8 225.656 192.42ZM222.918 202.477L221.656 206.909C222.018 205.422 222.409 203.915 222.8 202.428C222.839 202.438 222.879 202.458 222.918 202.477ZM219.895 215.186C219.983 214.667 220.081 214.129 220.179 213.571C223.064 214.853 224.942 217.172 225.784 220.488C223.827 221.515 222.135 221.613 221.098 220.958C219.348 219.842 219.67 216.545 219.895 215.186ZM212.276 196.294C215.132 196.627 217.665 196.715 219.367 196.735C219.025 197.967 218.673 199.239 218.321 200.531C215.768 201.616 213.097 202.027 210.417 201.959C211.004 200.022 211.63 198.124 212.276 196.294ZM208.94 207.525C209.605 207.574 210.271 207.604 210.936 207.604C212.863 207.604 214.799 207.379 216.707 206.899C216.178 209.149 215.709 211.331 215.367 213.317C212.853 214.237 210.241 214.599 207.63 214.54C207.933 212.241 208.383 209.883 208.94 207.525ZM217.01 224.196C214.408 226.788 211.679 228.618 208.833 229.684C207.669 226.974 207.199 223.717 207.229 220.175C207.532 220.185 207.825 220.195 208.128 220.195C210.456 220.195 212.794 219.911 215.102 219.255C215.347 221.222 215.993 222.895 217.01 224.196ZM200.988 193.487C202.856 194.308 205.008 194.983 207.414 195.502C206.769 197.371 206.143 199.337 205.566 201.372C203.179 200.863 200.851 200.061 198.67 199.132C199.423 197.048 200.225 195.15 200.988 193.487ZM196.919 204.405C199.188 205.383 201.634 206.224 204.157 206.802C203.619 209.189 203.179 211.615 202.886 214.021C200.255 213.513 197.692 212.691 195.286 211.703C195.687 209.179 196.254 206.723 196.919 204.405ZM184.174 212.104C185.896 213.18 187.871 214.315 190.033 215.391C189.749 219.158 189.837 223.041 190.503 226.906C187.392 225.008 184.653 222.689 182.482 220.586C182.658 217.661 183.294 214.794 184.174 212.104ZM192.087 239.917C190.317 239.193 188.654 238.333 187.138 237.423C185.729 235.241 184.36 232.326 183.245 228.442C183.235 228.403 183.225 228.354 183.216 228.315C185.827 230.438 188.879 232.482 192.224 233.999C193.036 236.65 193.926 238.939 194.855 240.905C193.946 240.612 193.016 240.299 192.087 239.917ZM195.501 227.571C194.748 224.225 194.532 220.801 194.679 217.436C197.154 218.395 199.775 219.187 202.485 219.666C202.416 223.599 202.847 227.375 204.011 230.741C203.443 230.78 202.876 230.8 202.309 230.79C200.137 230.731 198.015 230.271 195.99 229.557C195.824 228.911 195.657 228.266 195.501 227.571ZM201.213 242.099C200.147 240.544 199.051 238.518 198.015 235.916C199.374 236.2 200.753 236.376 202.172 236.415C202.377 236.425 202.582 236.425 202.788 236.425C204.118 236.425 205.419 236.298 206.71 236.053C208.031 238 209.468 239.555 211.043 240.739C207.845 241.874 204.558 242.314 201.213 242.099ZM224.522 231.504C222.145 233.989 219.709 236.033 217.215 237.657C215.269 237.266 213.479 236.17 211.875 234.39C215.279 232.815 218.516 230.32 221.558 226.925C221.94 226.984 222.331 227.023 222.722 227.023C223.827 227.023 224.991 226.769 226.175 226.329C225.911 228.872 225.138 230.858 224.522 231.504ZM230.273 216.761C230.136 216.927 229.99 217.074 229.853 217.23C228.562 213.562 226.253 210.734 223.123 208.964C224.043 207.692 225.099 206.126 226.204 204.326C228.571 205.99 231.202 208.68 232.865 212.936C232.093 214.344 231.232 215.645 230.273 216.761ZM235.438 207.036C233.55 203.798 231.183 201.391 228.835 199.67C229.52 198.349 230.185 196.94 230.811 195.482C232.885 196.881 235.154 198.642 237.277 200.756C236.788 202.761 236.181 204.913 235.438 207.036Z" fill="#8DC7D0"/>
<path opacity="0.5" d="M216.853 231.641C213.605 230.036 211.512 226.309 211.512 222.131C211.512 211.839 217.391 192.938 219.445 186.638C219.122 186.55 218.809 186.462 218.506 186.384C216.373 192.899 210.563 211.595 210.563 222.131C210.563 226.769 212.891 230.907 216.491 232.678C217.821 233.333 219.249 233.656 220.765 233.656C224.247 233.656 228.189 231.954 232.307 228.686C232.884 227.757 233.442 226.827 233.97 225.888C227.514 231.807 221.46 233.91 216.853 231.641Z" fill="#727272"/>
<path opacity="0.5" d="M199.784 226.759C196.713 213.415 202.679 196.48 205.848 188.869C205.399 189.094 204.949 189.319 204.499 189.564C203.511 192.019 202.337 195.179 201.261 198.75C198.962 206.42 196.674 217.553 198.865 227.053C201.085 236.679 205.359 242.207 208.93 245.288C209.458 245.279 209.986 245.249 210.495 245.22C206.924 242.481 202.151 237.051 199.784 226.759Z" fill="#727272"/>
<path opacity="0.5" d="M190.912 199.278C190.335 199.816 189.797 200.345 189.289 200.863C187.029 207.34 184.672 218.179 187.587 230.946C188.506 234.957 189.338 238.196 190.091 240.837C190.482 241.062 190.883 241.277 191.284 241.493C190.472 238.753 189.543 235.222 188.506 230.653C185.337 216.741 188.565 205.168 190.912 199.278Z" fill="#727272"/>
<path opacity="0.5" d="M219.542 216.702L219.885 217.749C220.012 217.69 232.199 211.977 235.906 192.645C235.613 192.528 235.31 192.401 234.997 192.273C231.436 211.086 219.669 216.643 219.542 216.702Z" fill="#727272"/>
<path d="M245.59 149.453C245.59 149.453 252.603 149.678 253.806 161.026C254.735 169.782 257.875 183.841 257.875 183.841C257.875 183.841 267.793 173.598 271.207 169.684C271.207 169.684 278.523 172.531 280.969 176.885C280.969 176.885 266.815 197.987 260.966 201.89C255.117 205.794 248.798 209.365 245.355 200.1C243.624 195.443 241.012 188.683 239.604 184.516C235.828 188.566 235.476 196.187 234.977 199.924C234.478 203.661 227.367 213.425 219.699 215.215C212.03 217.005 188.272 212.789 185.503 201.89C192.008 192.841 192.008 193.369 194.444 185.993C197.818 175.779 195.911 145.5 199.647 142.566C203.384 139.631 212.813 136.715 245.59 149.453Z" fill="#8DC7D0"/>
<path d="M229.089 146.733C229.089 146.733 239.897 150.421 245.59 149.443C245.59 149.443 242.528 146.811 235.877 143.465H227.133C227.133 143.465 223.572 145.588 229.089 146.733Z" fill="#EDD1C3"/>
<path d="M236.904 135.189L235.867 143.465C235.867 143.465 229.998 147.183 222.134 143.465C214.27 139.748 223.103 131.706 223.103 131.706L236.904 135.189Z" fill="#EDD1C3"/>
<path d="M225.636 94.9118C225.636 94.9118 234.576 93.4346 238.489 98.4729C242.401 103.511 238.851 113.148 238.851 113.148L224.228 104.842L225.636 94.9118Z" fill="#533B2E"/>
<path d="M240.318 112.903C240.318 112.903 244.69 115.417 246.48 117.746C247.732 119.37 244.543 119.869 244.709 122.226C244.846 124.212 244.612 123.762 245.433 129.251C245.776 131.52 244.573 133.761 242.499 134.749C237.168 137.282 231.622 137.185 227.856 135.561C223.298 133.604 211.287 107.16 226.135 101.74C232.786 99.3044 240.318 112.903 240.318 112.903Z" fill="#F8E7DD"/>
<path d="M227.093 94.9118C227.093 94.9118 234.41 102.719 231.485 108.08C228.561 113.441 220.305 112.022 222.33 116.288C224.355 120.553 228.424 121.982 225.166 126.472C221.909 130.963 229.392 129.769 229.558 133.536C229.725 137.302 222.731 141.646 227.123 143.465C231.515 145.275 227.612 154.716 224.844 157.152C222.076 159.588 224.599 160.889 224.844 165.067C225.333 173.304 205.78 174.781 198.131 171.377C190.482 167.972 188.252 164.372 192.477 153.151C196.703 141.929 191.343 143.446 192.644 138.789C193.945 134.132 197.036 134.749 196.713 128.008C196.39 121.277 193.416 123.224 196.987 117.697C200.567 112.169 198.601 109.968 199.119 106.808C201.408 92.9649 217.83 87.3592 227.093 94.9118Z" fill="#533B2E"/>
<path d="M237.921 113.51C238.137 114.282 238.019 115.31 237.012 114.889C235.994 114.468 235.642 112.981 236.249 112.404C236.855 111.817 237.569 112.238 237.921 113.51Z" fill="#5A3522"/>
<path d="M233.618 112.903C233.901 112.414 235.73 110.878 236.728 110.477C237.726 110.075 235.574 109.674 234.292 110.868C233.011 112.061 233.618 112.903 233.618 112.903Z" fill="#5A3522"/>
<path d="M243.389 125.161C243.389 125.161 241.169 126.912 239.379 126.824C237.589 126.736 241.325 130.023 243.115 128.253C244.915 126.492 243.389 125.161 243.389 125.161Z" fill="#E4969B"/>
<path d="M437.058 146.655C437.058 146.655 442.174 153.415 450.058 141.578C457.941 129.74 462.196 117.081 462.196 117.081C462.196 117.081 449.882 117.893 437.058 146.655Z" fill="#E4CDE3"/>
<path d="M487.696 179.116C487.696 179.116 491.481 173.745 496.46 175.31C501.439 176.885 503.933 179.458 505.234 182.364C506.535 185.259 511.993 182.354 515.543 185.152C519.104 187.94 517.323 191.071 514.242 192.411C511.161 193.751 508.55 192.411 504.872 192.411C501.194 192.411 491.951 191.961 491.951 191.961C491.951 191.961 485.691 184.027 487.696 179.116Z" fill="#C7A0C9"/>
<path d="M488.703 181.14C488.703 181.14 491.99 176.18 496.323 177.628C500.656 179.076 502.818 181.463 503.952 184.134C505.087 186.805 509.831 184.124 512.922 186.707C516.013 189.28 514.467 192.166 511.787 193.408C509.107 194.641 506.838 193.408 503.649 193.408C500.451 193.408 492.41 192.997 492.41 192.997C492.41 192.997 486.962 185.68 488.703 181.14Z" fill="#F4F4F4"/>
<path d="M491.462 176.738C485.984 165.585 447.299 167.522 447.299 167.522C447.299 167.522 420 164.597 413.926 174.742C410.101 181.14 408.047 187.431 417.173 192.596C426.299 197.762 443.416 189.593 443.416 189.593C443.416 189.593 471.126 201.029 479.93 198.887C488.733 196.744 496.949 187.891 491.462 176.738Z" fill="#C7A0C9"/>
<path d="M434.026 175.016C427.844 179.389 418.845 191.941 425.653 199.846C432.461 207.75 447.299 210.353 468.221 208.122C489.134 205.882 499.424 196.803 499.424 196.803C499.424 196.803 503.835 183.342 496.646 182.95C489.457 182.559 455.418 184.036 455.418 184.036L434.026 175.016Z" fill="#C7A0C9"/>
<path d="M423.276 194.26C423.276 194.26 421.663 187.265 425.526 182.246C429.39 177.227 442.996 176.405 442.996 176.405C442.996 176.405 430.779 175.016 425.066 179.213C419.344 183.41 418.621 188.664 419.833 193.692L423.276 194.26Z" fill="#B184B5"/>
<path d="M493.232 183.469C493.232 183.469 493.985 194.768 478.541 198.75C463.096 202.732 455.525 198.887 455.525 198.887C455.525 198.887 447.319 199.122 458.87 200.668C470.422 202.213 479.196 201.744 489.975 195.355C500.754 188.967 499.795 184.711 499.795 184.711C499.795 184.711 500.03 181.679 493.232 183.469Z" fill="#B184B5"/>
<path d="M442.203 168.901C442.203 168.901 442.868 174.595 447.798 174.898C452.728 175.211 452.64 175.662 454.342 176.395C456.053 177.139 458.861 178.068 458.861 178.068C458.861 178.068 455.613 180.788 457.98 184.564C460.347 188.34 462.372 189.671 461.727 189.896C461.081 190.121 454.459 183.791 453.011 182.901C451.564 182.011 448.473 179.311 448.395 180.974C448.316 182.637 448.483 183.635 451.378 184.877C451.378 184.877 441.685 186.511 441.176 187.665C440.668 188.82 444.208 189.211 445.333 189.055C445.333 189.055 440.736 192.224 441.127 193.31C441.519 194.396 445.206 193.31 445.206 193.31C445.206 193.31 443.592 194.651 445.206 195.14C446.82 195.629 449.432 193.848 449.432 193.848C449.432 193.848 447.466 196.089 450.713 196.245C453.96 196.402 455.163 194.367 456.073 194.259C456.983 194.152 462.891 194.846 464.338 193.614C465.786 192.381 467.771 192.156 469.679 191.96C471.586 191.765 477.435 188.595 479.92 186.345C482.404 184.104 481.485 185.22 481.485 185.22C481.485 185.22 486.894 183.557 489.329 181.394C491.765 179.232 492.058 178 491.755 177.364C491.452 176.728 490.268 175.016 490.268 175.016L442.203 168.901Z" fill="#B184B5"/>
<path d="M465.845 187.832C465.845 187.832 463.908 191.706 462.049 192.381C460.191 193.056 455.271 192.646 454.361 192.978C453.452 193.321 450.928 195.59 448.874 195.052C446.82 194.514 448.483 193.389 449.608 192.822C450.732 192.254 452.992 190.953 452.992 190.953C452.992 190.953 452.767 190.483 452.141 190.748C451.515 191.012 450.048 191.188 449.285 191.481C448.522 191.765 446.81 192.959 446.81 192.959C446.81 192.959 445.998 194.24 444.815 194.328C443.631 194.416 442.917 194.064 444.971 192.117C447.025 190.17 447.994 189.593 448.933 189.153L445.881 190.239C445.881 190.239 443.387 192.646 441.959 192.694C440.521 192.743 441.147 191.54 443.426 189.603C445.705 187.656 445.979 187.392 445.979 187.392L449.617 186.6C449.617 186.6 447.974 186.375 447.446 186.6C446.918 186.825 445.079 187.128 444.423 187.353C443.768 187.578 442.585 188.233 442.34 187.304C442.096 186.375 443.24 185.758 445.274 185.181C447.309 184.604 448.581 184.672 450.077 184.594C451.574 184.516 451.632 184.428 452.757 184.966C452.757 184.966 451.016 183.371 450.419 183.107C449.823 182.843 448.581 182.09 448.424 180.984C448.268 179.879 448.297 179.438 450.478 180.7C452.659 181.962 452.914 181.473 454.215 182.442C455.515 183.41 458.45 184.917 459.673 184.076C460.885 183.234 461.296 182.618 461.296 182.618L465.845 187.832Z" fill="#F8E7DD"/>
<path d="M465.845 187.813L461.277 182.598C461.277 182.598 460.876 183.214 459.653 184.056C458.675 184.731 456.601 183.899 455.144 183.038C454.938 184.203 454.899 185.905 455.789 187.509C456.777 189.3 457.247 191.403 459.516 192.733C460.514 192.685 461.433 192.577 462.04 192.362C463.908 191.687 465.845 187.813 465.845 187.813Z" fill="#EDD1C3"/>
<path d="M490.004 80.8146C490.004 80.8146 497.233 77.4296 501.947 82.0962C506.378 86.4888 505.635 93.2489 504.158 100.899C502.681 108.54 499.179 110.193 502.544 115.867C505.909 121.542 502.319 127.969 499.424 130.542C499.424 130.542 504.207 124.183 501.204 120.143C498.201 116.093 497.017 112.052 497.418 108.246C497.418 108.246 493.78 113.324 496.783 119.282C499.785 125.25 502.387 128.194 498.22 134.857C498.22 134.857 500.822 131.188 497.115 126.776C493.418 122.363 491.97 116.67 492.273 114.341C492.273 114.341 488.244 121.845 496.137 122.902C496.137 122.902 489.417 123.459 489.916 119.282C490.405 115.104 491.696 107.317 492.831 103.081C492.831 103.081 487.451 107.562 492.185 110.917C492.185 110.917 486.258 110.722 490.307 102.699C494.357 94.6772 494.592 95.0979 495.785 90.9694C496.812 87.4182 495.58 85.5887 493.017 86.2638C490.444 86.9486 486.796 82.7614 490.004 80.8146Z" fill="#644132"/>
<path d="M485.847 115.447C485.847 115.447 498.494 119.546 498.211 134.857C497.927 150.167 484.321 171.739 480.438 175.193C476.565 178.646 453.461 178.793 450.165 169.724C450.165 169.724 454.841 146.831 454.43 140.56C454.019 134.289 454.518 121.62 464.984 117.13C475.45 112.639 485.847 115.447 485.847 115.447Z" fill="#F4F4F4"/>
<path d="M485.055 122.344C481.7 132.861 468.212 153.317 464.28 161.32C460.347 169.322 456.474 170.32 465.972 179.213C475.46 188.096 486.796 182.08 490.102 179.213C493.408 176.347 488.038 171.279 493.398 160.929C498.759 150.578 500.705 139.19 499.424 130.542C498.142 121.894 490.523 116.601 485.857 115.447C485.847 115.447 486.248 118.607 485.055 122.344Z" fill="#F0DFED"/>
<path d="M469.679 115.564C469.679 115.564 458.753 113.432 453.403 128.909C448.052 144.385 444.336 159.363 442.066 164.764C439.797 170.164 448.043 175.29 450.517 172.209C452.992 169.127 453.403 159.813 454.43 151.791C455.457 143.769 458.548 132.45 461.854 125.944C465.15 119.439 469.679 115.564 469.679 115.564Z" fill="#F0DFED"/>
<path d="M488.273 116.543C488.273 116.543 491.824 125.396 485.906 136.442C479.988 147.487 465.962 179.213 465.962 179.213L464.133 177.423C464.133 177.423 477.973 148.895 482.179 140.56C486.385 132.225 489.633 125.993 486.503 115.633C486.503 115.633 487.432 115.809 488.273 116.543Z" fill="#C7A0C9"/>
<path d="M465.404 115.828C465.404 115.828 460.533 119.546 456.053 132C451.574 144.454 446.996 172.932 446.996 172.932L446.184 172.639C446.184 172.639 448.708 156.575 452.112 142.272C455.515 127.969 460.162 120.348 463.908 116.278L465.404 115.828Z" fill="#C7A0C9"/>
<path d="M465.962 174.899C465.962 174.899 461.981 168.442 461.776 167.327C461.56 166.211 462.167 166.162 462.94 167.327C463.712 168.491 466.96 173.138 466.96 173.138L465.962 174.899Z" fill="#C7A0C9"/>
<path d="M447.309 167.513C447.309 167.513 449.637 168.99 450.175 169.714C450.713 170.438 450.263 170.682 449.275 170.135C448.287 169.587 447.123 169.137 447.123 169.137L447.309 167.513Z" fill="#C7A0C9"/>
<path d="M447.984 163.658C447.984 163.658 450.312 165.135 450.85 165.859C451.388 166.583 450.938 166.828 449.95 166.28C448.962 165.732 447.798 165.282 447.798 165.282L447.984 163.658Z" fill="#C7A0C9"/>
<path d="M448.942 159.804C448.942 159.804 451.27 161.281 451.808 162.005C452.346 162.729 451.896 162.973 450.908 162.426C449.921 161.878 448.757 161.428 448.757 161.428L448.942 159.804Z" fill="#C7A0C9"/>
<path d="M449.617 155.342C449.617 155.342 451.945 156.82 452.483 157.543C453.021 158.267 452.571 158.512 451.583 157.964C450.596 157.416 449.432 156.966 449.432 156.966L449.617 155.342Z" fill="#C7A0C9"/>
<path d="M450.234 151.204C450.234 151.204 452.562 152.681 453.1 153.405C453.638 154.129 453.188 154.374 452.2 153.826C451.212 153.278 450.048 152.828 450.048 152.828L450.234 151.204Z" fill="#C7A0C9"/>
<path d="M451.251 148.201C451.251 148.201 453.579 149.678 454.117 150.402C454.655 151.126 454.205 151.37 453.217 150.823C452.229 150.275 451.065 149.825 451.065 149.825L451.251 148.201Z" fill="#C7A0C9"/>
<path d="M451.564 145.197C451.564 145.197 453.892 146.675 454.43 147.398C454.968 148.122 454.518 148.367 453.53 147.819C452.542 147.271 451.378 146.821 451.378 146.821L451.564 145.197Z" fill="#C7A0C9"/>
<path d="M452.317 142.057C452.317 142.057 454.068 143.534 454.508 144.199C454.948 144.864 454.655 145.031 453.931 144.473C453.197 143.915 452.356 143.416 452.356 143.416L452.317 142.057Z" fill="#C7A0C9"/>
<path d="M453.148 138.829C453.148 138.829 454.899 140.306 455.339 140.971C455.78 141.636 455.486 141.803 454.762 141.245C454.029 140.687 453.188 140.188 453.188 140.188L453.148 138.829Z" fill="#C7A0C9"/>
<path d="M454.019 135.952C454.019 135.952 455.77 137.429 456.21 138.095C456.65 138.76 456.357 138.926 455.633 138.369C454.899 137.811 454.058 137.312 454.058 137.312L454.019 135.952Z" fill="#C7A0C9"/>
<path d="M455.222 133.076C455.222 133.076 456.973 134.553 457.413 135.219C457.853 135.884 457.56 136.05 456.836 135.493C456.102 134.935 455.261 134.436 455.261 134.436L455.222 133.076Z" fill="#C7A0C9"/>
<path d="M456.415 130.063C456.415 130.063 457.794 131.305 458.235 131.971C458.675 132.636 458.381 132.802 457.658 132.245C456.924 131.687 456.083 131.188 456.083 131.188L456.415 130.063Z" fill="#C7A0C9"/>
<path d="M457.834 126.864C457.834 126.864 459.213 128.106 459.653 128.771C460.093 129.437 459.8 129.603 459.076 129.045C458.342 128.488 457.501 127.989 457.501 127.989L457.834 126.864Z" fill="#C7A0C9"/>
<path d="M459.213 123.968C459.213 123.968 460.592 125.21 461.032 125.875C461.472 126.541 461.179 126.707 460.455 126.149C459.721 125.592 458.88 125.093 458.88 125.093L459.213 123.968Z" fill="#C7A0C9"/>
<path d="M460.739 121.082C460.739 121.082 462.118 122.324 462.558 122.99C462.998 123.655 462.705 123.821 461.981 123.264C461.247 122.706 460.406 122.207 460.406 122.207L460.739 121.082Z" fill="#C7A0C9"/>
<path d="M462.529 118.274C462.529 118.274 463.908 119.516 464.348 120.182C464.788 120.847 464.495 121.013 463.771 120.456C463.037 119.898 462.196 119.399 462.196 119.399L462.529 118.274Z" fill="#C7A0C9"/>
<path d="M464.211 116.043C464.211 116.043 465.59 117.286 466.03 117.951C466.471 118.616 466.177 118.783 465.453 118.225C464.72 117.667 463.879 117.169 463.879 117.169L464.211 116.043Z" fill="#C7A0C9"/>
<path d="M467.233 115.515C467.233 115.515 467.351 115.525 467.791 116.19C468.231 116.855 467.938 117.022 467.214 116.464C466.49 115.906 466.011 115.642 466.011 115.642L467.233 115.515Z" fill="#C7A0C9"/>
<path d="M469.679 167.943C469.679 167.943 465.033 163.844 464.984 162.836C464.935 161.828 465.375 162.376 466.471 163.227C467.566 164.079 470.07 166.622 470.07 166.622L469.679 167.943Z" fill="#C7A0C9"/>
<path d="M472.281 163.384C472.281 163.384 468.251 159.5 468.212 158.542C468.172 157.593 468.544 158.101 469.503 158.904C470.451 159.706 472.623 162.122 472.623 162.122L472.281 163.384Z" fill="#C7A0C9"/>
<path d="M474.579 158.023C474.579 158.023 470.549 154.139 470.51 153.18C470.471 152.231 470.843 152.74 471.801 153.542C472.75 154.344 474.922 156.761 474.922 156.761L474.579 158.023Z" fill="#C7A0C9"/>
<path d="M476.584 153.298C476.584 153.298 473.249 150.549 473.092 149.766C472.936 148.983 473.269 149.365 474.041 149.922C474.814 150.48 476.653 152.222 476.653 152.222L476.584 153.298Z" fill="#C7A0C9"/>
<path d="M478.541 149.287C478.541 149.287 475.01 146.802 474.794 146.029C474.579 145.266 474.941 145.618 475.753 146.117C476.565 146.616 478.531 148.211 478.531 148.211L478.541 149.287Z" fill="#C7A0C9"/>
<path d="M480.438 145.706C480.438 145.706 476.907 143.221 476.692 142.448C476.477 141.675 476.839 142.037 477.65 142.536C478.462 143.035 480.428 144.63 480.428 144.63L480.438 145.706Z" fill="#C7A0C9"/>
<path d="M482.346 142.008C482.346 142.008 478.815 139.523 478.599 138.75C478.384 137.987 478.746 138.339 479.558 138.838C480.37 139.337 482.336 140.932 482.336 140.932L482.346 142.008Z" fill="#C7A0C9"/>
<path d="M484.253 138.613C484.253 138.613 480.722 136.129 480.507 135.356C480.291 134.593 480.653 134.945 481.465 135.444C482.277 135.943 484.243 137.537 484.243 137.537L484.253 138.613Z" fill="#C7A0C9"/>
<path d="M486.503 134.651C486.503 134.651 482.532 132.949 482.17 132.234C481.808 131.52 482.228 131.804 483.128 132.117C484.028 132.43 486.278 133.594 486.278 133.594L486.503 134.651Z" fill="#C7A0C9"/>
<path d="M488.322 130.669C488.322 130.669 484.155 129.525 483.695 128.869C483.236 128.214 483.695 128.429 484.625 128.625C485.554 128.82 487.95 129.662 487.95 129.662L488.322 130.669Z" fill="#C7A0C9"/>
<path d="M488.459 127.725C488.459 127.725 485.084 126.688 484.624 126.042C484.165 125.396 484.625 125.602 485.554 125.797C486.483 125.993 488.087 126.717 488.087 126.717L488.459 127.725Z" fill="#C7A0C9"/>
<path d="M488.645 124.203C488.645 124.203 486.248 123.723 485.779 123.078C485.309 122.432 485.779 122.637 486.708 122.833C487.637 123.029 488.273 123.195 488.273 123.195L488.645 124.203Z" fill="#C7A0C9"/>
<path d="M488.958 121.463C488.958 121.463 486.561 120.984 486.092 120.338C485.622 119.693 486.092 119.898 487.021 120.094C487.95 120.289 488.586 120.456 488.586 120.456L488.958 121.463Z" fill="#C7A0C9"/>
<path d="M488.821 118.705C488.821 118.705 486.424 118.225 485.955 117.58C485.485 116.934 485.955 117.139 486.884 117.335C487.813 117.531 488.449 117.697 488.449 117.697L488.821 118.705Z" fill="#C7A0C9"/>
<path d="M469.953 113.51L469.649 118.049C469.649 118.049 467.361 125.885 468.525 128.116C468.525 128.116 474.491 128.488 480.8 123.586C482.659 122.148 484.361 120.788 485.857 115.437L487.305 103.14L469.953 113.51Z" fill="#EDD1C3"/>
<path d="M463.722 90.6369C460.866 96.0078 456.425 110.428 465.972 114.86C475.509 119.292 487.539 110.937 488.791 96.3796C490.024 81.8125 470.158 78.545 463.722 90.6369Z" fill="#F8E7DD"/>
<path d="M474.501 85.755C474.501 85.755 471.518 82.2331 466.265 87.966C461.013 93.6989 460.494 101.741 455.408 103.873C455.408 103.873 459.927 97.1426 460.162 91.6934C460.396 86.2442 467.928 77.9187 473.308 79.2786C473.308 79.2786 475.362 74.9447 486.327 78.9264C497.106 82.8397 496.587 94.2076 495.511 98.4535C494.318 103.169 489.897 114.762 485.857 113.686L487.305 103.883C487.305 103.883 489.339 97.8959 488.527 93.875C487.716 89.8444 484.321 82.4972 474.501 85.755Z" fill="#704A38"/>
<path d="M486.816 100.919C487.041 100.586 488.831 97.2504 490.699 98.0135C492.567 98.7668 492.46 103.003 490.699 104.598C488.938 106.182 485.084 110.487 484.488 108.305L486.816 100.919Z" fill="#F8E7DD"/>
<path d="M463.429 96.3111C463.213 96.8785 463.233 97.6612 464.025 97.4166C464.818 97.172 465.189 96.0665 464.769 95.5872C464.348 95.1078 463.791 95.3719 463.429 96.3111Z" fill="#5A3522"/>
<path d="M471.195 98.3458C470.98 98.9132 470.999 99.6959 471.792 99.4513C472.584 99.2067 472.956 98.1012 472.535 97.6218C472.114 97.1425 471.557 97.4066 471.195 98.3458Z" fill="#5A3522"/>
<path d="M463.575 93.8943C463.869 93.7085 465.199 93.5617 465.776 93.7672C466.343 93.9726 465.561 92.691 464.593 92.8769C463.624 93.0628 463.575 93.8943 463.575 93.8943Z" fill="#5A3522"/>
<path d="M474.335 96.3597C474.11 96.0369 472.77 95.2738 472.066 95.2249C471.361 95.176 472.77 94.2368 473.719 94.8629C474.667 95.489 474.335 96.3597 474.335 96.3597Z" fill="#5A3522"/>
<path d="M466.48 97.6318C466.48 97.6318 464.407 101.428 463.732 102.651C463.057 103.873 464.045 104.881 465.16 104.979C466.275 105.077 466.197 105.713 466.06 106.261C466.06 106.261 466.49 106.74 466.441 105.517C466.392 104.284 465.952 104.695 465.15 104.343C464.348 103.991 463.634 103.991 464.182 102.729C464.72 101.457 466.48 97.8568 466.48 97.6318Z" fill="#C67454"/>
<path d="M463.311 108.384C463.311 108.384 467.908 110.702 469.532 107.376C469.532 107.376 469.61 109 468.603 109.577C467.605 110.154 465.708 109.89 463.311 108.384Z" fill="#E4969B"/>
<path d="M489.271 100.352C489.271 100.352 490.562 101.956 489.114 103.864C487.667 105.781 486.845 106.554 486.845 106.554C486.845 106.554 489.779 104.549 490.405 103.15C491.022 101.76 491.501 99.1581 489.271 100.352Z" fill="#C67454"/>
<path d="M472.887 79.1906C472.887 79.1906 474.892 79.8069 475.147 80.8928C475.147 80.8928 480.35 79.6014 482.981 81.2059C485.613 82.8005 485.554 85.4322 485.554 85.4322C485.554 85.4322 488.351 89.4041 489.016 92.5934C489.682 95.7925 489.779 97.9546 489.779 97.9546C489.779 97.9546 490.562 97.7589 491.159 98.3263C491.159 98.3263 491.325 95.9393 491.432 94.6088C491.833 89.3846 488.537 84.0332 484.067 81.4113C478.609 78.2025 476.222 78.6231 473.767 78.6231L472.887 79.1906Z" fill="#C7A0C9"/>
<path d="M484.351 88.2692C484.351 88.2692 486.914 93.9141 486.855 98.6687C486.796 103.423 484.771 105.536 484.899 107.033C484.899 107.033 486.141 103.619 486.679 102.807C487.217 101.995 488.899 97.8958 488.899 97.8958C488.899 97.8958 489.476 93.7086 488.293 91.2824C487.109 88.8562 484.762 86.2637 484.762 86.2637" fill="#704A38"/>
<path d="M474.501 85.755C474.501 85.755 479.949 83.7299 481.387 86.8703C482.825 90.0107 479.94 93.1706 480.771 99.6373C481.593 106.094 487.158 111.925 481.182 114.292C475.205 116.66 472.418 115.173 472.418 115.173C472.418 115.173 473.865 117.081 478.169 116.406C482.473 115.74 485.613 113.979 485.309 109.499C485.006 105.018 482.062 101.359 483.04 97.9057C484.018 94.4522 486.542 91.6934 485.769 88.2791C484.996 84.855 481.681 81.0298 474.501 85.755Z" fill="#704A38"/>
<path d="M446.957 149.326C446.957 149.326 445.881 148.573 445.265 151.116C444.649 153.66 441.186 162.103 442.507 163.658C443.827 165.214 446.595 159.647 446.967 157.172C447.319 154.697 450.195 149.835 446.957 149.326Z" fill="#F1E8F0"/>
<path d="M445.265 151.116C445.265 151.116 447.055 150.95 448.277 152.662C448.277 152.662 449.079 150.91 448.766 149.658C448.453 148.406 444.746 147.751 445.265 151.116Z" fill="#C7A0C9"/>
<path d="M479.167 162.523C479.167 162.523 476.467 173.255 478.541 175.417C480.614 177.579 484.986 175.525 487.129 175.417C489.271 175.31 490.053 174.84 491.051 173.686C492.058 172.531 492.538 164.852 491.471 163.384C490.405 161.917 479.167 162.523 479.167 162.523Z" fill="#F1E8F0"/>
<path d="M479.167 160.704L492.547 162.719L491.912 164.372C491.912 164.372 477.973 163.325 477.748 162.719C477.523 162.122 477.386 160.43 479.167 160.704Z" fill="#C7A0C9"/>
<path d="M494.768 121.082C494.768 121.082 504.363 129.877 501.576 146.821C498.798 163.766 475.822 189.906 471.078 190.288C466.334 190.669 456.23 188.948 457.491 183.469C458.753 177.99 476.721 169.293 483.51 157.945C490.298 146.596 494.768 121.082 494.768 121.082Z" fill="#F0DFED"/>
<path d="M481.612 160.704C481.612 160.704 487.324 151.752 489.965 141.587L479.157 160.704L481.358 161.036L481.612 160.704Z" fill="#E4CDE3"/>
<path d="M478.247 162.924L469.043 172.434C469.043 172.434 477.465 165.615 479.538 163.159L478.247 162.924Z" fill="#E4CDE3"/>
<path d="M492.068 167.757C492.068 167.757 482.932 180.945 479.411 183.743C479.411 183.743 481.279 183.449 481.964 183.264L488.517 175.251C488.517 175.251 487.647 175.506 487.393 175.457L492.009 169.147L492.068 167.757Z" fill="#E4CDE3"/>
<path d="M495.042 179.213C495.042 179.956 496.44 179.34 498.221 180.475C499.991 181.61 500.764 182.578 500.764 182.578C500.764 182.578 501.175 180.534 497.908 179.213C494.631 177.892 495.042 179.213 495.042 179.213Z" fill="#C7A0C9"/>
<path d="M500.744 188.36C500.744 188.36 511.523 189.006 509.156 193.966C509.156 193.966 502.485 193.242 500.275 193.399C500.275 193.389 500.862 190.571 500.744 188.36Z" fill="#DFC2DC"/>
<path d="M507.601 194.318C507.562 194.318 507.532 194.318 507.493 194.308C507.317 194.269 507.18 194.132 507.141 193.946L506.437 190.493L504.774 193.819C504.686 193.995 504.49 194.103 504.285 194.073C504.089 194.044 503.933 193.888 503.894 193.682L503.346 190.121L502.065 193.545C501.986 193.751 501.781 193.878 501.556 193.839C501.341 193.809 501.175 193.623 501.165 193.398L500.901 188.204C500.891 187.949 501.086 187.724 501.341 187.714C501.624 187.675 501.82 187.9 501.83 188.155L501.986 191.119L503.111 188.116C503.189 187.92 503.375 187.793 503.59 187.812C503.806 187.832 503.972 187.998 504.001 188.204L504.588 192.078L506.202 188.859C506.29 188.683 506.476 188.575 506.681 188.605C506.877 188.634 507.033 188.781 507.073 188.976L507.845 192.743L509.195 190.962C509.352 190.757 509.645 190.718 509.85 190.874C510.056 191.031 510.095 191.324 509.939 191.53L507.963 194.122C507.884 194.25 507.748 194.318 507.601 194.318Z" fill="#F4F4F4"/>
<path opacity="0.42" d="M466.94 125.23C468.251 123.87 469.376 120.407 470.197 119.028C471.019 117.648 472.75 114.449 471.987 113.148C470.931 111.358 469.014 115.819 469.327 114.576C470.745 113.177 471.087 112.815 471.987 111.661C473.405 109.841 472.711 109.088 471.987 108.618C471.263 108.149 469.943 110.213 469.063 110.731C468.182 111.25 469.728 109.597 471.019 108.158C472.31 106.711 472.261 105.869 471.078 105.546C469.894 105.224 469.376 105.84 468.182 106.564C466.989 107.288 466.001 109.655 466.001 109.655C466.001 109.655 466.999 107.816 466.999 106.358C466.999 105.077 465.776 104.509 464.456 105.556C463.135 106.603 462.998 108.374 461.492 111.152L464.231 127.187C464.24 127.167 465.541 126.688 466.94 125.23Z" fill="#C4AEA2"/>
<path d="M460.299 128.576C460.299 128.576 464.534 127.666 465.649 126.032C466.764 124.399 467.595 119.527 468.143 118.734C468.691 117.942 471.527 116.063 471.518 113.931C471.508 111.798 470.011 113.138 469.18 114.087C468.349 115.046 466.529 116.905 466.529 116.905C466.529 116.905 466.128 116.562 466.539 116.024C466.95 115.486 467.488 114.107 467.957 113.441C468.427 112.776 470.011 111.416 470.011 111.416C470.011 111.416 471.459 110.947 471.84 109.822C472.222 108.697 472.056 107.914 469.659 109.421C467.263 110.927 466.461 111.72 465.805 112.512L467.615 109.822C467.615 109.822 470.569 108.002 470.97 106.632C471.371 105.253 470.06 105.556 467.605 107.278C465.15 109 464.827 109.205 464.827 109.205L463.155 112.532C463.155 112.532 463.35 110.888 463.693 110.428C464.035 109.968 464.798 108.266 465.17 107.689C465.551 107.112 466.48 106.124 465.649 105.654C464.808 105.184 463.927 106.143 462.861 107.963C461.795 109.783 461.541 111.035 461.091 112.463C460.641 113.891 460.543 113.931 460.778 115.154C460.778 115.154 459.673 113.07 459.565 112.424C459.457 111.778 459.037 110.389 458.01 109.959C456.983 109.528 456.552 109.45 457.217 111.876C457.892 114.302 457.354 114.42 457.971 115.936C458.587 117.443 459.311 120.661 458.196 121.63C457.08 122.598 456.376 122.833 456.376 122.833L460.299 128.576Z" fill="#F8E7DD"/>
<path d="M460.279 128.566L456.366 122.843C456.366 122.843 457.071 122.608 458.186 121.64C459.076 120.867 458.792 118.646 458.323 117.022C459.506 117.12 461.159 117.501 462.49 118.763C463.976 120.172 465.893 121.15 466.617 123.674C466.314 124.633 465.991 125.494 465.629 126.022C464.514 127.656 460.279 128.566 460.279 128.566Z" fill="#EDD1C3"/>
<path d="M437.518 144.738C434.633 149.257 440.002 156.086 444.463 153.043C452.924 147.271 464.338 130.532 464.446 128.096C464.553 125.66 457.98 121.072 455.251 122.491C452.522 123.909 446.673 130.396 437.518 144.738Z" fill="#F1E6F0"/>
<path d="M490.092 196.109C490.092 196.109 474.931 205.217 467.233 208.465C459.536 211.713 440.159 214.795 440.159 214.795C440.159 214.795 436.374 205.96 438.183 201.558C439.993 197.165 459.545 194.504 459.545 194.504L485.681 176.787C485.681 176.797 499.727 186.844 490.092 196.109Z" fill="#515050"/>
<path d="M454.156 228.334C454.156 228.334 408.917 225.487 404.076 231.142C399.224 236.797 395.595 243.048 410.6 251.804C425.604 260.56 428.95 264.043 428.95 264.043C428.95 264.043 439.161 263.505 443.318 254.886L438.203 248.791C438.203 248.791 456.699 259.2 470.784 258.848C484.859 258.496 473.777 230.262 454.156 228.334Z" fill="#B7893E"/>
<path d="M393.091 265.363C393.091 265.363 395.136 267.32 394.275 269.805C393.414 272.29 381.461 271.595 376.962 270.734C372.463 269.873 361.782 271.135 356.304 269.805C350.826 268.484 344.958 267.956 347.286 260.169C349.604 252.371 393.091 265.363 393.091 265.363Z" fill="#B2B2B2"/>
<path d="M400.398 250.014L396.466 255.629C396.466 255.629 384.621 252.078 384.621 246.697L390.842 241.287L400.398 250.014Z" fill="#545454"/>
<path d="M384.611 244.643C384.611 244.643 393.346 252.694 398.021 253.398C398.021 253.398 398.999 259.826 395.996 265.627C392.994 271.429 382.273 269.824 376.444 268.778C370.614 267.731 359.238 268.905 352.695 266.811C346.151 264.727 345.985 258.417 349.76 254.876C353.536 251.334 356.353 253.173 365.097 252.831C373.842 252.489 379.231 250.64 384.611 244.643Z" fill="#444444"/>
<path d="M398.021 253.408C396.349 253.154 394.158 251.951 392.025 250.522C390.265 252.919 387.8 255.668 384.611 257.723C377.617 262.252 365.068 260.58 357.224 260.452C349.379 260.325 347.648 258.134 347.648 258.134C346.523 261.46 347.873 265.275 352.695 266.811C359.238 268.895 370.614 267.721 376.444 268.778C382.273 269.825 392.994 271.419 395.996 265.628C398.99 259.836 398.021 253.408 398.021 253.408Z" fill="#323333"/>
<path d="M402.452 216.203C402.452 216.203 398.334 215.098 400.398 210.196C402.462 205.295 408.233 202.624 409.847 201.528C411.461 200.433 419.912 201.528 419.912 201.528L407.538 217.622L402.452 216.203Z" fill="#F8E7DD"/>
<path d="M497.555 239.184C497.555 239.184 489.232 258.848 472.731 260.462C456.23 262.077 440.824 245.69 435.787 234.919C430.749 224.147 428.999 225.106 429.184 223.58C429.184 223.58 426.661 226.456 423.942 228.755C421.222 231.054 422.005 228.344 418.699 232.385C415.393 236.425 414.063 237.482 412.302 239.928C410.541 242.373 410.355 241.268 408.409 244.692C406.472 248.126 406.13 250.601 404.262 252.049C402.393 253.497 385.364 245.377 384.611 241.307C384.611 241.307 393.933 233.598 394.705 229.137C395.478 224.676 401.112 222.073 403.831 217.045C406.55 212.016 418.679 194.143 428.959 193.869C439.24 193.595 442.937 198.604 449.735 206.058C456.523 213.513 469.62 229.01 469.62 229.01L497.555 239.184Z" fill="#D6A54E"/>
<path d="M506.408 170.565C506.408 170.565 516.111 177.266 517.754 191.765C518.967 202.468 501.967 239.546 497.555 247.186C489.897 260.442 477.122 278.17 466.627 251.422C463.018 242.207 464.084 223.971 464.084 223.971C464.084 223.971 472.105 215.499 473.689 206.146C475.274 196.793 477.964 181.424 483.236 176.963C488.508 172.502 506.408 170.565 506.408 170.565Z" fill="#545454"/>
<path d="M496.998 122.95C496.998 122.95 487.686 121.405 483.627 126.658C479.568 131.912 482.101 143.847 482.101 143.847L498.475 133.291L496.998 122.95Z" fill="#545454"/>
<path d="M507.033 165.116C507.033 165.116 505.684 167.513 506.407 170.565C506.701 171.778 506.222 173.04 505.185 173.725C499.052 177.766 490.092 177.257 487.197 176.249C486.004 175.838 485.27 174.635 485.417 173.383L486.591 163.159L502.368 152.975L498.465 161.31L507.033 165.116Z" fill="#EDD1C3"/>
<path d="M483.725 137.215C483.725 137.215 475.861 144.278 474.061 146.753C472.261 149.228 477.66 148.906 477.504 151.361C477.367 153.435 476.105 154.883 475.254 160.587C474.902 162.954 476.144 165.283 478.306 166.31C483.852 168.951 488.332 165.811 494.553 161.301C498.739 158.268 502.554 134.28 496.499 130.044C490.444 125.808 483.725 137.215 483.725 137.215Z" fill="#F8E7DD"/>
<path d="M484.204 142.312C483.979 143.114 484.096 144.18 485.153 143.74C486.209 143.3 486.581 141.754 485.945 141.147C485.319 140.541 484.576 140.981 484.204 142.312Z" fill="#5A3522"/>
<path d="M488.694 138.682C488.4 138.173 486.493 136.578 485.456 136.158C484.419 135.737 486.659 135.326 487.989 136.559C489.32 137.801 488.694 138.682 488.694 138.682Z" fill="#5A3522"/>
<path d="M498.798 147.545C498.798 147.545 502.573 142.898 504.031 145.285C505.478 147.672 503.512 152.202 501.419 154.208C499.316 156.223 496.078 156.35 496.078 156.35L498.798 147.545Z" fill="#F8E7DD"/>
<path d="M497.487 151.967H496.078C496.078 151.967 497.595 141.45 497.233 138.212C496.871 134.984 493.672 127.245 493.672 127.245V122.726C493.672 122.726 498.944 116.973 509.215 121.239C519.485 125.514 525.491 134.514 522.028 144.904C518.566 155.294 515.944 156.927 515.944 156.927L512.677 156.331L507.033 165.096L498.465 161.291L502.368 152.955C502.368 152.955 504.931 149.287 503.669 146.166C502.397 143.045 498.68 148.24 498.68 148.24L497.487 151.967Z" fill="#545454"/>
<path d="M478.149 155.685C478.149 155.685 480.614 154.09 479.773 157.25C478.942 160.42 476.702 160.146 478.149 155.685Z" fill="#E4969B"/>
<path d="M502.769 145.286L483.177 137.596C483.206 137.244 483.197 136.99 483.118 136.921C482.649 136.461 481.495 137.449 481.162 139.631C480.8 141.969 480.585 145.677 481.162 144.963C481.524 144.503 482.394 141.588 482.874 139.386L501.106 145.785C501.106 145.785 502.045 145.403 502.769 145.286Z" fill="#D6A54E"/>
<path d="M485.417 173.383L506.3 167.415L510.77 174.116L481.319 184.946V175.662L477.68 177.863L480.81 172.512L485.417 173.383Z" fill="#D6A54E"/>
<path d="M498.475 189.525C489.642 191.687 487.627 193.976 474.706 200.257C461.785 206.528 450.703 208.377 450.703 208.377L410.825 204.043C410.825 204.043 404.066 207.898 402.462 215.871C400.858 223.834 438.212 225.546 450.713 226.857C463.213 228.168 501.018 218.101 506.965 212.3C521.617 197.987 512.57 186.081 498.475 189.525Z" fill="#666565"/>
<path d="M398.502 275.607C398.502 275.607 400.996 263.299 410.513 259.337C420.03 255.375 424.637 255.493 427.317 255.493C429.997 255.493 434.467 254.446 436.424 252.695C438.37 250.943 439.104 250.816 441.305 251.247C443.505 251.677 447.076 253.663 448.386 256.481L398.502 275.607Z" fill="#323333"/>
<path d="M431.727 258.34C437.244 254.994 441.049 250.004 447.113 255.18C453.178 260.355 447.544 266.508 442.125 268.739C436.706 270.979 431.199 275.675 424.049 280.087C416.899 284.5 399.645 283.326 398.559 278.346C397.473 273.366 401.807 265.608 412.644 262.067C423.482 258.525 426.455 261.548 431.727 258.34Z" fill="#B2B2B2"/>
<path d="M440.091 251.031C440.091 251.031 426.035 240.27 421.966 238.137L442.927 245.543C442.927 245.543 444.61 249.114 455.75 256.285C455.75 256.285 440.805 250.943 438.213 248.781L440.091 251.031Z" fill="#9A6F30"/>
<path d="M358.173 246.237C358.173 246.237 354.593 240.739 345.995 244.114C337.398 247.49 327.949 249.368 327.949 249.368L330.316 264.424L353.869 258.065L358.173 246.237Z" fill="#666565"/>
<path d="M351.365 263.074C351.365 263.074 364.081 252.322 358.173 246.237C352.265 240.152 342.259 248.38 337.574 255.737C332.889 263.084 351.365 263.074 351.365 263.074Z" fill="#272828"/>
<path d="M327.606 257.595C327.606 257.595 354.114 246.178 358.418 261.401C362.721 276.623 347.668 286.182 330.472 292.873C313.277 299.565 297.275 303.918 279.13 298.156C260.976 292.394 249.992 279.969 268.625 260.149C287.259 240.328 327.606 257.595 327.606 257.595Z" fill="#0E232E"/>
<path d="M312.426 147.574C313.414 147.574 314.216 150.421 314.216 153.933C314.216 157.445 313.414 160.292 312.426 160.292C311.438 160.292 310.636 157.445 310.636 153.933C310.626 150.421 311.428 147.574 312.426 147.574ZM312.426 159.148C313.15 159.148 313.727 156.819 313.727 153.943C313.727 151.067 313.14 148.738 312.426 148.738C311.712 148.738 311.125 151.067 311.125 153.943C311.115 156.809 311.702 159.148 312.426 159.148Z" fill="#806248"/>
<path d="M287.102 180.044C287.102 180.044 287.728 184.144 286.486 187.362C285.987 188.644 286.819 188.81 287.856 189.71C293.959 195.022 303.809 195.795 307.105 195.13C308.465 194.856 309.443 193.653 309.472 192.264L309.707 180.925L293.988 167.483L285.978 167.551L287.102 180.044Z" fill="#EDD1C3"/>
<path d="M308.005 151.312C308.005 151.312 314.862 159.852 315.879 162.748C316.896 165.644 310.92 164.705 310.685 167.405C310.489 169.684 310.079 170.085 310.783 173.49C311.321 176.053 312.837 181.209 311.037 182.109C306.401 184.418 301.941 176.885 297.842 171.308C295.084 167.561 294.037 146.166 299.3 142.174C304.542 138.173 308.005 151.312 308.005 151.312Z" fill="#F8E7DD"/>
<path d="M313.042 142.438C313.042 142.438 318.304 137.312 313.042 132.831C307.78 128.35 304.865 128.262 303.877 129.339C303.877 129.339 299.935 124.77 291.073 128.174C282.212 131.579 272.45 135.248 272.176 149.316C271.902 163.384 279.698 163.912 281.4 165.438C283.102 166.964 286.701 175.574 286.701 175.574L300.835 176.141L304.757 164.763C304.757 164.763 302.351 158.571 302.028 156.154C301.706 153.738 302.967 151.439 302.967 151.439C302.967 151.439 305.804 152.368 308.983 152.534C312.553 152.74 316.241 146.4 313.042 142.438Z" fill="#5A3522"/>
<path d="M314.138 152.163L304.317 151.82L302.948 151.439L313.727 150.989L314.138 152.163Z" fill="#806248"/>
<path d="M301.97 153.385C301.97 153.385 301.755 149.276 305.599 151.82C309.453 154.364 306.587 162.992 305.354 162.728C304.131 162.474 301.97 153.385 301.97 153.385Z" fill="#EDD1C3"/>
<path d="M302.39 151.576C302.39 151.576 300.982 151.409 300.689 152.329C300.395 153.249 300.953 162.875 301.334 162.425C301.716 161.975 302.195 162.005 301.96 160.948C301.735 159.891 301.295 153.601 301.491 153.024C301.686 152.437 302.038 152.446 302.038 152.446C302.038 152.446 302.146 151.859 302.39 151.576Z" fill="#806248"/>
<path d="M304.748 164.763C304.748 164.763 306.548 174.811 311.38 176.141C311.38 176.141 312.475 178.245 312.426 180.397C312.387 182.549 309.912 184.095 308.161 182.363L306.411 176.141C306.411 176.141 303.437 166.896 302.958 165.409C302.479 163.922 304.748 164.763 304.748 164.763Z" fill="#5A3522"/>
<path d="M311.115 166.417C311.115 166.417 311.477 168.09 311.898 169.166C312.318 170.242 312.416 171.797 312.416 171.797C312.416 171.797 311.399 172.336 311.115 171.797C310.832 171.259 310.108 171.318 310.108 171.318C310.108 171.318 308.064 165.996 311.115 166.417Z" fill="#5A3522"/>
<path d="M321.875 266.429C321.875 266.429 319.146 278.971 295.554 281.388C271.961 283.804 264.557 268.552 264.557 268.552C264.557 268.552 292.746 258.857 314.216 261.401C335.686 263.945 321.875 266.429 321.875 266.429Z" fill="white"/>
<path d="M317.092 263.739C317.092 263.739 327.206 229.478 323.381 207.809C319.557 186.139 283.532 175.573 269.995 199.611C260.703 216.105 262.688 232.726 266.972 246.198C270.376 256.881 264.019 262.125 273.144 269.853C282.28 277.592 315.419 270.92 317.092 263.739Z" fill="#CE919C"/>
<path d="M286.476 187.372C286.476 187.372 272.91 189.691 264.556 195.541C256.193 201.391 250.706 248.468 253.807 256.108C256.908 263.739 257.631 267.408 264.556 268.562C271.482 269.717 290.829 268.562 290.829 268.562L286.476 187.372Z" fill="#CE919C"/>
<path d="M303.31 187.333C303.31 187.333 328.321 186.981 331.9 201.352C335.48 215.723 337.055 254.582 330.316 264.424C324.936 272.28 307.31 262.604 307.31 262.604L303.31 187.333Z" fill="#CE919C"/>
<path d="M312.426 188.145L309.697 185.523C309.697 185.523 297.764 180.054 287.249 183.077L283.532 187.695C283.532 187.695 293.656 192.919 312.426 188.145Z" fill="white"/>
<path d="M273.154 269.863C273.154 269.863 264.557 262.966 264.557 251.412C264.557 239.858 266.464 235.632 265.75 226.876C265.036 218.12 266.708 210.626 266.708 210.626C266.708 210.626 260.977 225.604 260.977 238.342C260.977 251.08 267.07 268.562 267.07 268.562C267.07 268.562 268.136 269.061 273.154 269.863Z" fill="#B86B79"/>
<path d="M316.368 265.138C316.368 265.138 313.57 264.326 310.929 244.535C308.289 224.743 312.856 211.213 312.856 211.213C312.856 211.213 308.005 215.528 307.653 240.24C307.301 264.952 309.697 269.061 309.697 269.061C309.697 269.061 312.993 268.454 316.368 265.138Z" fill="#B86B79"/>
<path d="M330.316 264.424C330.316 264.424 339.217 260.775 339.736 254.044C340.254 247.313 337.564 240.866 332.908 242.656C328.252 244.447 323.42 257.879 330.316 264.424Z" fill="#CE919C"/>
<circle cx="389" cy="69.9995" r="24" fill="#DDDDDD"/>
<path d="M380.561 64.4331L382.797 65.5511L382.861 65.4226L382.91 65.2875L380.561 64.4331ZM388.588 74.1505L386.152 73.5884L386.088 73.8658V74.1505H388.588ZM386.088 77.5305C386.088 78.9112 387.208 80.0305 388.588 80.0305C389.969 80.0305 391.088 78.9112 391.088 77.5305H386.088ZM377.638 66.1231C377.638 67.5038 378.758 68.6231 380.138 68.6231C381.519 68.6231 382.638 67.5038 382.638 66.1231H377.638ZM382.91 65.2875C383.154 64.6165 384.682 62.2856 388.588 62.2856V57.2856C382.355 57.2856 379.094 61.1514 378.211 63.5787L382.91 65.2875ZM388.588 62.2856C391.278 62.2856 393.17 63.092 394.253 64.0703C395.298 65.0134 395.666 66.1516 395.432 67.3228L400.335 68.3034C400.945 65.2496 399.835 62.3741 397.605 60.3597C395.414 58.3805 392.235 57.2856 388.588 57.2856V62.2856ZM395.432 67.3228C395.408 67.4424 395.449 67.4341 395.232 67.5311C394.776 67.7352 394.167 67.8279 392.952 68.0458C391.936 68.2283 390.469 68.5102 389.165 69.2965C387.717 70.1698 386.62 71.5601 386.152 73.5884L391.024 74.7127C391.19 73.9947 391.466 73.7478 391.747 73.5781C392.173 73.3214 392.793 73.1544 393.836 72.9672C394.681 72.8154 396.106 72.6176 397.273 72.0956C398.68 71.4664 399.936 70.2962 400.335 68.3034L395.432 67.3228ZM386.088 74.1505V77.5305H391.088V74.1505H386.088ZM378.325 63.3151C378.097 63.7705 377.638 64.903 377.638 66.1231H382.638C382.638 66.1231 382.639 66.0937 382.649 66.0328C382.659 65.9738 382.675 65.904 382.697 65.8281C382.719 65.7528 382.744 65.6833 382.765 65.627C382.789 65.5672 382.802 65.5409 382.797 65.5511L378.325 63.3151Z" fill="#808080"/>
<path d="M389.011 83.8682V84.7132" stroke="#808080" stroke-width="5" stroke-linecap="round" stroke-linejoin="bevel"/>
<path fill-rule="evenodd" clip-rule="evenodd" d="M255 0C243.954 0 235 8.95431 235 20C235 31.0457 243.954 40 255 40H381.994L387.768 50C388.538 51.3333 390.462 51.3333 391.232 50L397.006 40H449C460.046 40 469 31.0457 469 20C469 8.95431 460.046 0 449 0H255Z" fill="#F2FAF7"/>
<path d="M264.825 12.595L263.925 13.465C264.555 13.945 265.065 14.425 265.47 14.875H263.16C263.13 14.185 263.1 13.45 263.1 12.67H261.66C261.66 13.435 261.66 14.17 261.69 14.875H255.51V19.87C255.465 22.315 254.97 24.22 254.04 25.585L255.12 26.545C256.26 24.865 256.875 22.645 256.935 19.87V19.78H259.2C259.17 21.34 259.125 22.33 259.035 22.72C258.945 23.05 258.78 23.215 258.51 23.23C258.09 23.23 257.595 23.2 256.995 23.17L257.43 24.46C257.895 24.505 258.315 24.535 258.675 24.535C259.455 24.52 259.965 24.205 260.205 23.575C260.445 22.855 260.58 21.145 260.61 18.43H256.935V16.24H261.765C261.87 18.07 262.08 19.585 262.41 20.8C262.575 21.43 262.755 22.015 262.965 22.555C261.975 23.785 260.76 24.715 259.32 25.36L260.13 26.56C261.45 25.975 262.62 25.12 263.625 23.995C263.82 24.355 264.03 24.685 264.27 24.985C264.99 25.87 265.68 26.32 266.34 26.32C267.06 26.32 267.615 25.27 267.99 23.2L266.7 22.51C266.505 23.98 266.31 24.715 266.115 24.715C265.875 24.715 265.515 24.37 265.065 23.71C264.9 23.455 264.735 23.155 264.57 22.795C265.5 21.445 266.25 19.795 266.85 17.875L265.545 17.32C265.125 18.745 264.6 20.005 263.97 21.115C263.895 20.875 263.82 20.62 263.76 20.365C263.505 19.39 263.325 18.01 263.22 16.24H267.69V14.875H265.89L266.58 14.185C266.1 13.645 265.515 13.12 264.825 12.595ZM278.91 16.255L278.55 17.65H274.92C275.115 17.2 275.31 16.735 275.49 16.255H278.91ZM274.26 18.91H280.2L279.855 20.455H273.24C273.6 19.975 273.945 19.45 274.26 18.91ZM281.25 20.455L281.745 17.65H279.93L280.485 14.995H275.895C276.09 14.335 276.255 13.63 276.405 12.88L275.01 12.7C274.86 13.495 274.68 14.26 274.455 14.995H273.015L273.735 14.485C273.435 13.99 273.03 13.42 272.49 12.79L271.365 13.495C271.785 14.02 272.13 14.515 272.43 14.995H270.15V16.255H274.005C272.97 18.82 271.35 20.845 269.13 22.315L269.835 23.575C270.675 23.035 271.44 22.42 272.13 21.73H281.175C281.145 23.305 281.04 24.28 280.89 24.64C280.74 25.015 280.35 25.21 279.735 25.24C279.33 25.21 278.82 25.18 278.22 25.135L278.58 26.485C279.15 26.515 279.645 26.545 280.065 26.545C280.995 26.545 281.64 26.245 282.03 25.675C282.39 25.105 282.585 23.365 282.615 20.455H281.25ZM271.89 22.6C271.56 23.56 271.035 24.475 270.3 25.33L271.545 26.11C272.25 25.21 272.805 24.13 273.195 22.885L271.89 22.6ZM274.995 22.825L273.78 22.975C274.02 23.605 274.185 24.505 274.26 25.675L275.625 25.51C275.52 24.37 275.31 23.485 274.995 22.825ZM277.08 22.525L275.97 22.84C276.3 23.635 276.57 24.445 276.795 25.285L278.085 24.82C277.845 24.13 277.515 23.365 277.08 22.525ZM279.36 22.12L278.22 22.48C278.55 23.17 278.835 23.875 279.06 24.61L280.365 24.28C280.065 23.455 279.72 22.735 279.36 22.12ZM297.12 13.195H284.88V26.59H286.215V26.095H295.785V26.59H297.12V13.195ZM286.215 24.91V14.38H295.785V24.91H286.215ZM287.67 15.205V16.165H289.47C289.41 16.375 289.35 16.585 289.29 16.825H286.77V17.785H295.275V16.825H294.165V15.205H291C291.03 15.055 291.045 14.89 291.075 14.74L289.785 14.575C289.755 14.785 289.71 14.995 289.68 15.205H287.67ZM290.655 16.825C290.715 16.615 290.76 16.39 290.82 16.165H292.815V16.825H290.655ZM287.655 18.31V20.605H290.715V21.13H287.04V22.12H287.685L287.37 23.845H290.715V24.655H292.05V23.845H295.035V22.84H292.05V22.12H294.84V21.13H292.05V20.605H294.375V18.31H287.655ZM290.715 22.12V22.84H288.78L288.93 22.12H290.715ZM293.19 19.75H288.84V19.165H293.19V19.75ZM303.495 14.89C303.225 15.31 302.94 15.73 302.61 16.15V12.82H301.275V18.445C301.245 21.715 300.54 24.085 299.13 25.57L300.105 26.425C301.065 25.435 301.755 24.085 302.175 22.375C302.445 22.825 302.79 23.425 303.18 24.175L303.93 23.05C303.42 22.33 302.925 21.685 302.43 21.085C302.535 20.275 302.595 19.405 302.61 18.445V17.77C303.3 17.17 303.855 16.54 304.305 15.91L303.495 14.89ZM310.575 16.045L308.76 16.285V15.715H311.355C311.265 16.105 311.16 16.45 311.025 16.765L312.18 17.08C312.39 16.465 312.525 15.85 312.615 15.22V14.695H308.775V14.14H312.195V13.165H308.775V12.7H307.5V14.695H304.455V18.715C304.425 21.55 304.02 23.89 303.255 25.75L304.26 26.62C305.19 24.43 305.67 21.79 305.685 18.7V15.715H307.59V16.45L306.105 16.66L306.225 17.47L307.59 17.275V17.53C307.59 18.085 307.92 18.37 308.61 18.37H312V17.455H309.105C308.895 17.455 308.79 17.335 308.775 17.11L310.695 16.855L310.575 16.045ZM306.36 18.775V22.42H311.955V18.775H306.36ZM310.845 21.625H309.705V20.965H310.845V21.625ZM308.64 21.625H307.485V20.965H308.64V21.625ZM307.485 20.185V19.57H308.64V20.185H307.485ZM309.705 19.57H310.845V20.185H309.705V19.57ZM312.285 22.915H306.075V25.27H305.295V26.26H313.005V25.27H312.285V22.915ZM307.185 25.27V23.785H307.92V25.27H307.185ZM308.805 25.27V23.785H309.51V25.27H308.805ZM310.425 25.27V23.785H311.175V25.27H310.425ZM300.15 15.34L299.04 15.685C299.385 17.005 299.67 18.385 299.91 19.825L301.02 19.525C300.75 17.95 300.465 16.555 300.15 15.34ZM314.205 18.79V20.2H327.78V18.79H314.205ZM331.545 13.165V16.315H340.47V13.165H331.545ZM339.105 15.25H332.91V14.245H339.105V15.25ZM330.825 16.99V23.875H333.585C332.46 24.505 331.08 25.075 329.46 25.57L330.285 26.635C332.115 26.02 333.645 25.315 334.89 24.505L334.155 23.875H337.815L337.17 24.49C339.015 25.255 340.44 25.975 341.445 26.65L342.435 25.66C341.355 25.06 340.065 24.475 338.535 23.875H341.22V16.99H330.825ZM339.855 22.675H332.19V21.835H339.855V22.675ZM332.19 20.755V19.975H339.855V20.755H332.19ZM332.19 18.895V18.115H339.855V18.895H332.19ZM350.97 18.355C350.61 18.355 350.325 18.46 350.115 18.67C349.89 18.88 349.785 19.15 349.785 19.48C349.785 19.795 349.89 20.065 350.1 20.275C350.31 20.485 350.565 20.605 350.88 20.605C351.03 20.605 351.15 20.575 351.24 20.545C351.24 20.905 351.105 21.25 350.865 21.595C350.595 21.925 350.25 22.165 349.845 22.3V23.23C350.595 23.02 351.195 22.645 351.645 22.075C352.095 21.505 352.32 20.83 352.32 20.065C352.32 19.555 352.185 19.15 351.945 18.835C351.675 18.505 351.36 18.355 350.97 18.355ZM359.205 18.79V20.2H372.78V18.79H359.205ZM387 13.6H381.645V22.57C381.645 23.395 382.11 23.815 383.055 23.815H385.95C386.655 23.785 387.105 23.44 387.315 22.81C387.435 22.42 387.555 21.775 387.645 20.86L386.31 20.425C386.25 21.34 386.175 21.895 386.085 22.075C385.98 22.315 385.785 22.45 385.5 22.48H383.64C383.235 22.48 383.04 22.33 383.04 22.03V18.745H387V13.6ZM383.04 17.455V14.875H385.65V17.455H383.04ZM377.13 12.64V14.59H374.76V15.88H377.13V17.77H374.505V19.09H377.475V24.07C376.995 23.725 376.575 23.23 376.185 22.585C376.305 21.775 376.38 20.92 376.41 20.035L375.15 19.885C375.06 21.985 374.685 23.89 373.995 25.6L375.09 26.56C375.405 25.81 375.66 25 375.87 24.13C376.38 24.85 376.98 25.36 377.655 25.66C378.525 26.05 380.715 26.26 384.225 26.26H387.705L387.945 24.895C387.06 24.955 385.71 24.985 383.91 24.985C381.495 24.985 379.815 24.88 378.855 24.7V22.18H380.85V20.89H378.855V19.09H380.94V17.77H378.54V15.88H380.745V14.59H378.54V12.64H377.13ZM401.355 13.24C400.995 14.245 400.56 15.115 400.035 15.85L401.175 16.495C401.715 15.685 402.18 14.755 402.54 13.675L401.355 13.24ZM401.325 20.005C400.995 20.95 400.59 21.775 400.11 22.465L401.22 23.095C401.73 22.345 402.165 21.46 402.51 20.455L401.325 20.005ZM395.595 13.375L394.41 13.855C394.86 14.575 395.295 15.415 395.7 16.375L396.855 15.88C396.495 14.995 396.075 14.155 395.595 13.375ZM395.625 20.065L394.47 20.545C394.89 21.235 395.295 22.045 395.655 22.96L396.795 22.465C396.465 21.625 396.075 20.815 395.625 20.065ZM398.505 17.245C399.66 17.89 400.8 18.715 401.925 19.705L402.675 18.535C401.535 17.605 400.29 16.81 398.94 16.135C399.075 15.595 399.165 14.995 399.195 14.335V12.7H397.815V14.335C397.77 15.43 397.5 16.315 397.02 16.99C396.54 17.65 395.61 18.175 394.23 18.595L394.98 19.765C396.42 19.315 397.455 18.685 398.115 17.875C398.25 17.68 398.385 17.47 398.505 17.245ZM397.845 18.775V20.005C397.785 21.385 397.485 22.525 396.96 23.395C396.42 24.205 395.4 24.865 393.915 25.39V21.085H389.625V26.32H390.945V25.6H393.915V25.555L394.59 26.62C396.18 26.065 397.335 25.285 398.04 24.295C398.265 23.95 398.46 23.575 398.64 23.155C399.27 24.685 400.455 25.825 402.18 26.575L403.02 25.36C400.71 24.52 399.42 22.96 399.18 20.665L399.225 20.005V18.775H397.845ZM389.16 14.515V15.805H394.29V14.515H392.685C392.52 13.96 392.28 13.345 391.965 12.67L390.63 13.03C390.885 13.51 391.11 14.005 391.305 14.515H389.16ZM389.7 16.765V17.98H393.81V16.765H389.7ZM389.7 18.85V20.065H393.81V18.85H389.7ZM390.945 24.4V22.255H392.64V24.4H390.945ZM404.64 17.89V19.255H409.665C409.425 20.125 409.14 20.845 408.795 21.43C407.865 22.99 406.305 24.325 404.115 25.465L405.015 26.635C407.415 25.33 409.125 23.785 410.13 22C410.46 21.43 410.73 20.725 410.97 19.885C412.08 22.78 414.09 25.03 417.015 26.62L417.9 25.465C415.065 24.01 413.13 21.94 412.08 19.255H417.405V17.89H411.405C411.555 16.96 411.675 15.925 411.75 14.785H416.97V13.42H405.03V14.785H410.31C410.25 15.91 410.13 16.945 409.965 17.89H404.64ZM423.75 21.085H419.565V26.32H420.885V25.6H423.75V21.085ZM420.885 24.4V22.255H422.46V24.4H420.885ZM419.145 14.515V15.805H424.05V14.515H422.52C422.34 13.96 422.1 13.345 421.8 12.67L420.45 13.03C420.705 13.51 420.93 14.005 421.14 14.515H419.145ZM419.685 16.765V17.98H423.615V16.84L424.605 17.71C424.785 17.56 424.965 17.395 425.145 17.215V21.085H426.33C426.165 23.095 425.355 24.52 423.915 25.375L424.665 26.56C426.48 25.42 427.47 23.59 427.65 21.085H428.775V24.94C428.775 25.84 429.225 26.305 430.14 26.305H431.205C431.67 26.305 432.015 26.185 432.255 25.945C432.51 25.675 432.69 24.865 432.78 23.545L431.565 23.14C431.52 24.04 431.445 24.595 431.355 24.775C431.28 24.94 431.145 25.03 430.965 25.03H430.545C430.245 25.03 430.095 24.895 430.095 24.655V21.085H431.31V16.99C431.52 17.2 431.76 17.41 432.03 17.62L432.975 16.54C431.61 15.58 430.68 14.305 430.17 12.685L429.03 13.33C429.39 14.47 429.96 15.49 430.71 16.36H425.895C426.525 15.55 427.065 14.56 427.515 13.405L426.24 12.895C425.67 14.515 424.785 15.82 423.615 16.81V16.765H419.685ZM419.685 18.88V20.095H423.615V18.88H419.685ZM430.005 19.825H426.48V17.62H430.005V19.825ZM442.995 12.7V16.405L441.42 16.855V14.23H440.04V17.26L439.11 17.53V18.91L440.04 18.64V24.46C440.04 25.66 440.595 26.275 441.705 26.275H446.085C446.655 26.275 447.075 26.125 447.36 25.84C447.66 25.54 447.855 24.595 447.975 23.02L446.655 22.6C446.595 23.74 446.505 24.415 446.37 24.625C446.25 24.835 446.07 24.94 445.815 24.94H442.125C441.645 24.94 441.42 24.685 441.42 24.175V18.235L442.995 17.785V23.32H444.345V17.395L446.1 16.885C445.935 18.4 445.71 19.735 445.425 20.89L446.745 21.295C447.195 19.135 447.435 17.065 447.465 15.1L444.345 16.015V12.7H442.995ZM434.25 16.585V17.98H435.9V22.96C435.285 23.14 434.67 23.29 434.04 23.41L434.4 24.85C436.08 24.4 437.655 23.83 439.125 23.17V21.76C438.525 22.03 437.925 22.285 437.31 22.51V17.98H438.87V16.585H437.31V12.76H435.9V16.585H434.25Z" fill="#0D6763"/>
</svg>
