<svg xmlns="http://www.w3.org/2000/svg" xmlns:xlink="http://www.w3.org/1999/xlink" width="654" height="136" viewBox="0 0 654 136">
  <defs>
    <rect id="circle-ad-banner-a" width="654" height="136"/>
  </defs>
  <g fill="none" fill-rule="evenodd">
    <mask id="circle-ad-banner-b" fill="#fff">
      <use xlink:href="#circle-ad-banner-a"/>
    </mask>
    <use fill="#217A76" fill-rule="nonzero" xlink:href="#circle-ad-banner-a"/>
    <path fill="#0D6763" fill-rule="nonzero" d="M95.6189 70C19.7064 62.5815 5.12407 38.6667 0 25L0 136 618 136C521.375 91 497.218 87.3478 422.736 97 348.254 106.652 339.195 67.5 277.798 60.5 171.107 48.3361 157.016 76 95.6189 70zM574 54.5C538.967 41.2908 568 15 552 0L654 0 654 136 628.748 136C567 96.5 604.5 66 574 54.5z" mask="url(#circle-ad-banner-b)"/>
    <path fill="#1B4340" fill-rule="nonzero" d="M598.347 102.796L601 103.941C601 103.941 599.685 102.542 598.189 100.972L599.431 101.596C599.431 101.596 597.908 99.7714 596.319 97.9078L598.982 99.2445C598.982 99.2445 598.022 98.0932 596.831 96.6849L596.831 95.9921 600.17 97.6638C600.17 97.6638 598.654 95.8457 597.068 93.9853L597.279 94.0894C597.279 94.0894 596.824 93.543 596.151 92.7462L598.169 93.7577C598.169 93.7577 596.188 91.3834 594.385 89.2823L594.385 89.2108 597.724 90.8825C597.724 90.8825 595.469 88.1797 593.582 85.9909L593.638 85.7795 595.191 87.1195C595.191 87.1195 594.023 85.2786 593.127 83.8378L596.319 85.4379C596.319 85.4379 593.595 82.1725 591.631 79.9121L594.094 81.148C594.094 81.148 591.798 78.3964 589.904 76.1978L589.891 75.9896 591.775 76.5686C591.775 76.5686 589.158 74.5033 588.234 73.8528 587.997 73.482 587.813 73.1763 587.709 73.0039 587.709 73.0039 585.42 75.5668 583.915 75.9831L585.544 75.7425 585.35 76.4775C585.133 76.6401 584.918 76.7832 584.721 76.8776L585.136 76.7247C584.249 77.3817 583.225 78.0549 582.516 78.2501L584.145 78.0094 584.015 78.5038C583.088 79.5413 582.128 80.4682 581.328 80.9236L584.072 79.782 584.072 81.1447C582.847 82.6506 581.412 84.2118 580.287 84.8525L583.031 83.7109 583.031 84.5663C581.686 85.542 580.274 86.4299 579.23 86.7357L582.175 86.2511 582.101 86.5535C580.937 87.9553 579.625 89.3441 578.581 89.9393L581.325 88.7977 581.325 90.1312C580.026 91.7672 578.41 93.595 577.172 94.3008L579.916 93.1592 579.916 94.2455C578.507 95.2831 576.995 96.2523 575.894 96.5775L578.748 96.1092C577.57 97.5337 576.232 98.9616 575.171 99.5665L577.915 98.4249 577.915 100.25 578.514 99.56C577.186 101.316 575.365 103.499 574 104.292L576.734 103.125 576.754 104.949 578.367 103.056 578.979 104.927 579.926 103.092 581.057 104.907 581.633 103.024 582.573 103.996C581.997 104.569 581.438 105.047 580.937 105.34L583.011 104.452 583.429 104.884 583.423 104.276 583.667 104.172 583.687 105.997 585.3 104.104 585.912 105.974 586.719 104.409 586.759 104.39 586.762 104.393 586.759 104.39 586.956 104.296 587.99 105.954 588.492 104.312 588.7 104.211 590.366 105.932 590.346 104.078 591.012 104.637 591.032 104.959 591.176 104.774 591.366 104.936C591.366 104.936 591.323 104.845 591.243 104.686L591.49 104.364 591.504 104.37 591.681 104.835 591.822 104.526 593.699 105.444C593.699 105.444 593.073 104.705 592.2 103.694L592.477 103.086 592.548 102.995 593.25 104.835 593.481 104.328 593.752 104.718 594.171 103.053 595.322 104.715 595.502 104.003 596.121 104.585 596.028 103.021 597.694 104.582 597.61 103.154 599.431 103.941C599.427 103.944 598.996 103.482 598.347 102.796zM583.406 102.757L583.627 102.864C583.557 102.946 583.483 103.027 583.413 103.108L583.406 102.757zM586.749 104.383C586.745 104.38 586.742 104.377 586.739 104.37L586.856 104.143 586.926 104.257C586.866 104.302 586.809 104.344 586.749 104.383zM588.512 104.247L588.566 104.078 588.636 104.152C588.593 104.182 588.552 104.214 588.512 104.247zM648.347 96.7923L651 97.9371C651 97.9371 649.685 96.5386 648.189 94.9677L649.431 95.5921C649.431 95.5921 647.908 93.7675 646.319 91.9039L648.982 93.2406C648.982 93.2406 648.022 92.0893 646.831 90.6809L646.831 89.9882 650.17 91.6599C650.17 91.6599 648.654 89.8418 647.068 87.9814L647.279 88.0855C647.279 88.0855 646.824 87.5391 646.151 86.7423L648.169 87.7538C648.169 87.7538 646.188 85.3795 644.385 83.2784L644.385 83.2069 647.724 84.8786C647.724 84.8786 645.469 82.1758 643.582 79.987L643.638 79.7755 645.191 81.1156C645.191 81.1156 644.023 79.2747 643.127 77.8338L646.319 79.434C646.319 79.434 643.595 76.1686 641.631 73.9082L644.094 75.1441C644.094 75.1441 641.798 72.3925 639.904 70.1939L639.891 69.9857 641.775 70.5647C641.775 70.5647 639.158 68.4994 638.234 67.8489 637.997 67.4781 637.813 67.1724 637.709 67 637.709 67 635.42 69.5629 633.915 69.9792L635.544 69.7385 635.35 70.4736C635.133 70.6362 634.918 70.7793 634.721 70.8736L635.136 70.7208C634.249 71.3778 633.225 72.051 632.516 72.2462L634.145 72.0055 634.015 72.4999C633.088 73.5374 632.128 74.4643 631.328 74.9197L634.072 73.7781 634.072 75.1408C632.847 76.6467 631.412 78.2079 630.287 78.8486L633.031 77.707 633.031 78.5624C631.686 79.5381 630.274 80.426 629.23 80.7318L632.175 80.2472 632.101 80.5496C630.937 81.9514 629.625 83.3402 628.581 83.9354L631.325 82.7938 631.325 84.1273C630.026 85.7633 628.41 87.5911 627.172 88.2969L629.916 87.1553 629.916 88.2416C628.507 89.2792 626.995 90.2484 625.894 90.5736L628.748 90.1053C627.57 91.5298 626.232 92.9576 625.171 93.5626L627.915 92.421 627.915 94.2456 628.514 93.5561C627.186 95.3124 625.365 97.4948 624 98.2884L626.734 97.1208 626.754 98.9454 628.367 97.0525 628.979 98.9226 629.926 97.0882 631.057 98.9031 631.633 97.0199 632.573 97.9924C631.997 98.5648 631.438 99.0429 630.937 99.3357L633.011 98.4478 633.429 98.8803 633.423 98.2721 633.667 98.168 633.687 99.9927 635.3 98.0997 635.912 99.9699 636.719 98.4055 636.759 98.386 636.762 98.3892 636.759 98.386 636.956 98.2916 637.99 99.9504 638.492 98.3079 638.7 98.2071 640.366 99.9276 640.346 98.0737 641.012 98.6331 641.032 98.9551 641.176 98.7697 641.366 98.9324C641.366 98.9324 641.323 98.8413 641.243 98.6819L641.49 98.3599 641.504 98.3664 641.681 98.8315 641.822 98.5226 643.699 99.4397C643.699 99.4397 643.073 98.7014 642.2 97.6899L642.477 97.0817 642.548 96.9907 643.25 98.8315 643.481 98.3242 643.752 98.7145 644.171 97.0492 645.322 98.7112 645.502 97.9989 646.121 98.5811 646.028 97.0167 647.694 98.5779 647.61 97.15 649.431 97.9371C649.427 97.9404 648.996 97.4785 648.347 96.7923zM633.406 96.7532L633.627 96.8606C633.557 96.9419 633.483 97.0232 633.413 97.1045L633.406 96.7532zM636.749 98.3795C636.745 98.3762 636.742 98.3729 636.739 98.3664L636.856 98.1388 636.926 98.2526C636.866 98.2981 636.809 98.3404 636.749 98.3795zM638.512 98.2428L638.566 98.0737 638.636 98.1485C638.593 98.1778 638.552 98.2103 638.512 98.2428z" mask="url(#circle-ad-banner-b)"/>
    <path fill="#1B4340" fill-rule="nonzero" d="M664.347 94.7923L667 95.9371C667 95.9371 665.685 94.5386 664.189 92.9677L665.431 93.5921C665.431 93.5921 663.908 91.7675 662.319 89.9039L664.982 91.2406C664.982 91.2406 664.022 90.0893 662.831 88.6809L662.831 87.9882 666.17 89.6599C666.17 89.6599 664.654 87.8418 663.068 85.9814L663.279 86.0855C663.279 86.0855 662.824 85.5391 662.151 84.7423L664.169 85.7538C664.169 85.7538 662.188 83.3795 660.385 81.2784L660.385 81.2069 663.724 82.8786C663.724 82.8786 661.469 80.1758 659.582 77.987L659.638 77.7755 661.191 79.1156C661.191 79.1156 660.023 77.2747 659.127 75.8338L662.319 77.434C662.319 77.434 659.595 74.1686 657.631 71.9082L660.094 73.1441C660.094 73.1441 657.798 70.3925 655.904 68.1939L655.891 67.9857 657.775 68.5647C657.775 68.5647 655.158 66.4994 654.234 65.8489 653.997 65.4781 653.813 65.1724 653.709 65 653.709 65 651.42 67.5629 649.915 67.9792L651.544 67.7385 651.35 68.4736C651.133 68.6362 650.918 68.7793 650.721 68.8736L651.136 68.7208C650.249 69.3778 649.225 70.051 648.516 70.2462L650.145 70.0055 650.015 70.4999C649.088 71.5374 648.128 72.4643 647.328 72.9197L650.072 71.7781 650.072 73.1408C648.847 74.6467 647.412 76.2079 646.287 76.8486L649.031 75.707 649.031 76.5624C647.686 77.5381 646.274 78.426 645.23 78.7318L648.175 78.2472 648.101 78.5496C646.937 79.9514 645.625 81.3402 644.581 81.9354L647.325 80.7938 647.325 82.1273C646.026 83.7633 644.41 85.5911 643.172 86.2969L645.916 85.1553 645.916 86.2416C644.507 87.2792 642.995 88.2484 641.894 88.5736L644.748 88.1053C643.57 89.5298 642.232 90.9576 641.171 91.5626L643.915 90.421 643.915 92.2456 644.514 91.5561C643.186 93.3124 641.365 95.4948 640 96.2884L642.734 95.1208 642.754 96.9454 644.367 95.0525 644.979 96.9226 645.926 95.0882 647.057 96.9031 647.633 95.0199 648.573 95.9924C647.997 96.5648 647.438 97.0429 646.937 97.3357L649.011 96.4478 649.429 96.8803 649.423 96.2721 649.667 96.168 649.687 97.9927 651.3 96.0997 651.912 97.9699 652.719 96.4055 652.759 96.386 652.762 96.3892 652.759 96.386 652.956 96.2916 653.99 97.9504 654.492 96.3079 654.7 96.2071 656.366 97.9276 656.346 96.0737 657.012 96.6331 657.032 96.9551 657.176 96.7697 657.366 96.9324C657.366 96.9324 657.323 96.8413 657.243 96.6819L657.49 96.3599 657.504 96.3664 657.681 96.8315 657.822 96.5226 659.699 97.4397C659.699 97.4397 659.073 96.7014 658.2 95.6899L658.477 95.0817 658.548 94.9907 659.25 96.8315 659.481 96.3242 659.752 96.7145 660.171 95.0492 661.322 96.7112 661.502 95.9989 662.121 96.5811 662.028 95.0167 663.694 96.5779 663.61 95.15 665.431 95.9371C665.427 95.9404 664.996 95.4785 664.347 94.7923zM649.406 94.7532L649.627 94.8606C649.557 94.9419 649.483 95.0232 649.413 95.1045L649.406 94.7532zM652.749 96.3795C652.745 96.3762 652.742 96.3729 652.739 96.3664L652.856 96.1388 652.926 96.2526C652.866 96.2981 652.809 96.3404 652.749 96.3795zM654.512 96.2428L654.566 96.0737 654.636 96.1485C654.593 96.1778 654.552 96.2103 654.512 96.2428zM630.347 107.792L633 108.937C633 108.937 631.685 107.539 630.189 105.968L631.431 106.592C631.431 106.592 629.908 104.768 628.319 102.904L630.982 104.241C630.982 104.241 630.022 103.089 628.831 101.681L628.831 100.988 632.17 102.66C632.17 102.66 630.654 100.842 629.068 98.9814L629.279 99.0855C629.279 99.0855 628.824 98.5391 628.151 97.7423L630.169 98.7538C630.169 98.7538 628.188 96.3795 626.385 94.2784L626.385 94.2069 629.724 95.8786C629.724 95.8786 627.469 93.1758 625.582 90.987L625.638 90.7755 627.191 92.1156C627.191 92.1156 626.023 90.2747 625.127 88.8338L628.319 90.434C628.319 90.434 625.595 87.1686 623.631 84.9082L626.094 86.1441C626.094 86.1441 623.798 83.3925 621.904 81.1939L621.891 80.9857 623.775 81.5647C623.775 81.5647 621.158 79.4994 620.234 78.8489 619.997 78.4781 619.813 78.1724 619.709 78 619.709 78 617.42 80.5629 615.915 80.9792L617.544 80.7385 617.35 81.4736C617.133 81.6362 616.918 81.7793 616.721 81.8736L617.136 81.7208C616.249 82.3778 615.225 83.051 614.516 83.2462L616.145 83.0055 616.015 83.4999C615.088 84.5374 614.128 85.4643 613.328 85.9197L616.072 84.7781 616.072 86.1408C614.847 87.6467 613.412 89.2079 612.287 89.8486L615.031 88.707 615.031 89.5624C613.686 90.5381 612.274 91.426 611.23 91.7318L614.175 91.2472 614.101 91.5496C612.937 92.9514 611.625 94.3402 610.581 94.9354L613.325 93.7938 613.325 95.1273C612.026 96.7633 610.41 98.5911 609.172 99.2969L611.916 98.1553 611.916 99.2416C610.507 100.279 608.995 101.248 607.894 101.574L610.748 101.105C609.57 102.53 608.232 103.958 607.171 104.563L609.915 103.421 609.915 105.246 610.514 104.556C609.186 106.312 607.365 108.495 606 109.288L608.734 108.121 608.754 109.945 610.367 108.052 610.979 109.923 611.926 108.088 613.057 109.903 613.633 108.02 614.573 108.992C613.997 109.565 613.438 110.043 612.937 110.336L615.011 109.448 615.429 109.88 615.423 109.272 615.667 109.168 615.687 110.993 617.3 109.1 617.912 110.97 618.719 109.405 618.759 109.386 618.762 109.389 618.759 109.386 618.956 109.292 619.99 110.95 620.492 109.308 620.7 109.207 622.366 110.928 622.346 109.074 623.012 109.633 623.032 109.955 623.176 109.77 623.366 109.932C623.366 109.932 623.323 109.841 623.243 109.682L623.49 109.36 623.504 109.366 623.681 109.832 623.822 109.523 625.699 110.44C625.699 110.44 625.073 109.701 624.2 108.69L624.477 108.082 624.548 107.991 625.25 109.832 625.481 109.324 625.752 109.714 626.171 108.049 627.322 109.711 627.502 108.999 628.121 109.581 628.028 108.017 629.694 109.578 629.61 108.15 631.431 108.937C631.427 108.94 630.996 108.479 630.347 107.792zM615.406 107.753L615.627 107.861C615.557 107.942 615.483 108.023 615.413 108.104L615.406 107.753zM618.749 109.379C618.745 109.376 618.742 109.373 618.739 109.366L618.856 109.139 618.926 109.253C618.866 109.298 618.809 109.34 618.749 109.379zM620.512 109.243L620.566 109.074 620.636 109.149C620.593 109.178 620.552 109.21 620.512 109.243zM583.679 98.579L586.527 99.0666C586.527 99.0666 584.92 98.0172 583.096 96.8427L584.45 97.1572C584.45 97.1572 582.54 95.7425 580.557 94.3057L583.46 94.9775C583.46 94.9775 582.256 94.0847 580.766 92.9966L580.603 92.3233 584.242 93.1615C584.242 93.1615 582.341 91.7516 580.361 90.3171L580.591 90.3686C580.591 90.3686 580.02 89.9447 579.178 89.3287L581.377 89.8365C581.377 89.8365 578.893 87.9956 576.645 86.3785L576.628 86.3089 580.268 87.1471C580.268 87.1471 577.439 85.0516 575.09 83.3688L575.095 83.1499 576.92 84.0865C576.92 84.0865 575.351 82.5725 574.14 81.3834L577.619 82.1867C577.619 82.1867 574.203 79.6547 571.762 77.9205L574.446 78.5416C574.446 78.5416 571.568 76.4081 569.209 74.7174L569.147 74.5182 571.114 74.6372C571.114 74.6372 568.085 73.2463 567.034 72.8316 566.716 72.5273 566.465 72.2735 566.323 72.1304 566.323 72.1304 564.703 75.1603 563.337 75.9195L564.864 75.3018 564.849 76.0619C564.676 76.2712 564.501 76.4607 564.332 76.5988L564.699 76.3526C563.992 77.1999 563.155 78.0954 562.512 78.4521L564.039 77.8344 564.029 78.3456C563.372 79.5723 562.657 80.6993 561.987 81.3302L564.385 79.5744 564.706 80.8989C563.87 82.6508 562.843 84.5062 561.901 85.3937L564.299 83.638 564.501 84.4693C563.423 85.7344 562.26 86.9299 561.317 87.4729L564.065 86.3084 564.065 86.6197C563.263 88.2563 562.315 89.915 561.441 90.7394L563.839 88.9836 564.153 90.2796C563.276 92.1753 562.136 94.3324 561.099 95.31L563.497 93.5542 563.753 94.61C562.628 95.9501 561.386 97.2483 560.393 97.8237L563.057 96.6962C562.248 98.3581 561.283 100.061 560.395 100.899L562.792 99.143 563.222 100.916 563.642 100.105C562.765 102.125 561.509 104.675 560.37 105.767L562.751 103.989 563.201 105.757 564.322 103.538 565.358 105.211 565.846 103.205 567.373 104.703 567.489 102.737 568.631 103.461C568.207 104.153 567.776 104.749 567.358 105.151L569.165 103.8 569.673 104.122 569.523 103.532 569.736 103.374 570.186 105.142 571.307 102.923 572.343 104.596 572.758 102.886 572.792 102.857 572.796 102.86 572.792 102.857 572.962 102.719 574.358 104.088 574.459 102.373 574.636 102.226 576.661 103.506 576.205 101.709 576.984 102.096 577.079 102.404 577.175 102.19 577.399 102.303C577.399 102.303 577.335 102.225 577.22 102.089L577.385 101.717 577.399 101.721 577.681 102.131 577.745 101.797 579.785 102.247C579.785 102.247 579.003 101.677 577.916 100.899L578.043 100.243 578.09 100.138 579.206 101.761 579.311 101.214 579.666 101.529 579.681 99.8123 581.191 101.156 581.199 100.422 581.937 100.842 581.478 99.3432 583.465 100.468 583.048 99.1001 585.002 99.4363C585 99.4402 584.471 99.093 583.679 98.579zM569.149 102.06L569.389 102.112C569.34 102.208 569.288 102.304 569.239 102.4L569.149 102.06zM572.781 102.853C572.777 102.851 572.773 102.848 572.768 102.843L572.828 102.594 572.924 102.688C572.876 102.747 572.83 102.801 572.781 102.853zM574.463 102.305L574.475 102.128 574.561 102.184C574.525 102.223 574.494 102.264 574.463 102.305z" mask="url(#circle-ad-banner-b)"/>
    <path fill="#1B4340" fill-rule="nonzero" d="M572.679,106.579 L575.527,107.067 C575.527,107.067 573.92,106.017 572.096,104.843 L573.45,105.157 C573.45,105.157 571.54,103.743 569.557,102.306 L572.46,102.977 C572.46,102.977 571.256,102.085 569.766,100.997 L569.603,100.323 L573.242,101.161 C573.242,101.161 571.341,99.7516 569.361,98.3171 L569.591,98.3686 C569.591,98.3686 569.02,97.9447 568.178,97.3287 L570.377,97.8365 C570.377,97.8365 567.893,95.9956 565.645,94.3785 L565.628,94.3089 L569.268,95.1471 C569.268,95.1471 566.439,93.0516 564.09,91.3688 L564.095,91.1499 L565.92,92.0865 C565.92,92.0865 564.351,90.5725 563.14,89.3834 L566.619,90.1867 C566.619,90.1867 563.203,87.6547 560.762,85.9205 L563.446,86.5416 C563.446,86.5416 560.568,84.4081 558.209,82.7174 L558.147,82.5182 L560.114,82.6372 C560.114,82.6372 557.085,81.2463 556.034,80.8316 C555.716,80.5273 555.465,80.2735 555.323,80.1304 C555.323,80.1304 553.703,83.1603 552.337,83.9195 L553.864,83.3018 L553.849,84.0619 C553.676,84.2712 553.501,84.4607 553.332,84.5988 L553.699,84.3526 C552.992,85.1999 552.155,86.0954 551.512,86.4521 L553.039,85.8344 L553.029,86.3456 C552.372,87.5723 551.657,88.6993 550.987,89.3302 L553.385,87.5744 L553.706,88.8989 C552.87,90.6508 551.843,92.5062 550.901,93.3937 L553.299,91.638 L553.501,92.4693 C552.423,93.7344 551.26,94.9299 550.317,95.4729 L553.065,94.3084 L553.065,94.6197 C552.263,96.2563 551.315,97.915 550.441,98.7394 L552.839,96.9836 L553.153,98.2796 C552.276,100.175 551.136,102.332 550.099,103.31 L552.497,101.554 L552.753,102.61 C551.628,103.95 550.386,105.248 549.393,105.824 L552.057,104.696 C551.248,106.358 550.283,108.061 549.395,108.899 L551.792,107.143 L552.222,108.916 L552.642,108.105 C551.765,110.125 550.509,112.675 549.37,113.767 L551.751,111.989 L552.201,113.757 L553.322,111.538 L554.358,113.211 L554.846,111.205 L556.373,112.703 L556.489,110.737 L557.631,111.461 C557.207,112.153 556.776,112.749 556.358,113.151 L558.165,111.8 L558.673,112.122 L558.523,111.532 L558.736,111.374 L559.186,113.142 L560.307,110.923 L561.343,112.596 L561.758,110.886 L561.792,110.857 L561.796,110.86 L561.792,110.857 L561.962,110.719 L563.358,112.088 L563.459,110.373 L563.636,110.226 L565.661,111.506 L565.205,109.709 L565.984,110.096 L566.079,110.404 L566.175,110.19 L566.399,110.303 C566.399,110.303 566.335,110.225 566.22,110.089 L566.385,109.717 L566.399,109.721 L566.681,110.131 L566.745,109.797 L568.785,110.247 C568.785,110.247 568.003,109.677 566.916,108.899 L567.043,108.243 L567.09,108.138 L568.206,109.761 L568.311,109.214 L568.666,109.529 L568.681,107.812 L570.191,109.156 L570.199,108.422 L570.937,108.842 L570.478,107.343 L572.465,108.468 L572.048,107.1 L574.002,107.436 C574,107.44 573.471,107.093 572.679,106.579 Z M558.149,110.06 L558.389,110.112 C558.34,110.208 558.288,110.304 558.239,110.4 L558.149,110.06 Z M561.781,110.853 C561.777,110.851 561.773,110.848 561.768,110.843 L561.828,110.594 L561.924,110.688 C561.876,110.747 561.83,110.801 561.781,110.853 Z M563.463,110.305 L563.475,110.128 L563.561,110.184 C563.525,110.223 563.494,110.264 563.463,110.305 Z" mask="url(#circle-ad-banner-b)"/>
    <path fill="#1B4340" fill-rule="nonzero" d="M563.679 122.579L566.527 123.067C566.527 123.067 564.92 122.017 563.096 120.843L564.45 121.157C564.45 121.157 562.54 119.743 560.557 118.306L563.46 118.977C563.46 118.977 562.256 118.085 560.766 116.997L560.603 116.323 564.242 117.161C564.242 117.161 562.341 115.752 560.361 114.317L560.591 114.369C560.591 114.369 560.02 113.945 559.178 113.329L561.377 113.837C561.377 113.837 558.893 111.996 556.645 110.378L556.628 110.309 560.268 111.147C560.268 111.147 557.439 109.052 555.09 107.369L555.095 107.15 556.92 108.087C556.92 108.087 555.351 106.572 554.14 105.383L557.619 106.187C557.619 106.187 554.203 103.655 551.762 101.92L554.446 102.542C554.446 102.542 551.568 100.408 549.209 98.7174L549.147 98.5182 551.114 98.6372C551.114 98.6372 548.085 97.2463 547.034 96.8316 546.716 96.5273 546.465 96.2735 546.323 96.1304 546.323 96.1304 544.703 99.1603 543.337 99.9195L544.864 99.3018 544.849 100.062C544.676 100.271 544.501 100.461 544.332 100.599L544.699 100.353C543.992 101.2 543.155 102.095 542.512 102.452L544.039 101.834 544.029 102.346C543.372 103.572 542.657 104.699 541.987 105.33L544.385 103.574 544.706 104.899C543.87 106.651 542.843 108.506 541.901 109.394L544.299 107.638 544.501 108.469C543.423 109.734 542.26 110.93 541.317 111.473L544.065 110.308 544.065 110.62C543.263 112.256 542.315 113.915 541.441 114.739L543.839 112.984 544.153 114.28C543.276 116.175 542.136 118.332 541.099 119.31L543.497 117.554 543.753 118.61C542.628 119.95 541.386 121.248 540.393 121.824L543.057 120.696C542.248 122.358 541.283 124.061 540.395 124.899L542.792 123.143 543.222 124.916 543.642 124.105C542.765 126.125 541.509 128.675 540.37 129.767L542.751 127.989 543.201 129.757 544.322 127.538 545.358 129.211 545.846 127.205 547.373 128.703 547.489 126.737 548.631 127.461C548.207 128.153 547.776 128.749 547.358 129.151L549.165 127.8 549.673 128.122 549.523 127.532 549.736 127.374 550.186 129.142 551.307 126.923 552.343 128.596 552.758 126.886 552.792 126.857 552.796 126.86 552.792 126.857 552.962 126.719 554.358 128.088 554.459 126.373 554.636 126.226 556.661 127.506 556.205 125.709 556.984 126.096 557.079 126.404 557.175 126.19 557.399 126.303C557.399 126.303 557.335 126.225 557.22 126.089L557.385 125.717 557.399 125.721 557.681 126.131 557.745 125.797 559.785 126.247C559.785 126.247 559.003 125.677 557.916 124.899L558.043 124.243 558.09 124.138 559.206 125.761 559.311 125.214 559.666 125.529 559.681 123.812 561.191 125.156 561.199 124.422 561.937 124.842 561.478 123.343 563.465 124.468 563.048 123.1 565.002 123.436C565 123.44 564.471 123.093 563.679 122.579zM549.149 126.06L549.389 126.112C549.34 126.208 549.288 126.304 549.239 126.4L549.149 126.06zM552.781 126.853C552.777 126.851 552.773 126.848 552.768 126.843L552.828 126.594 552.924 126.688C552.876 126.747 552.83 126.801 552.781 126.853zM554.463 126.305L554.475 126.128 554.561 126.184C554.525 126.223 554.494 126.264 554.463 126.305zM536.679 127.579L539.527 128.067C539.527 128.067 537.92 127.017 536.096 125.843L537.45 126.157C537.45 126.157 535.54 124.743 533.557 123.306L536.46 123.977C536.46 123.977 535.256 123.085 533.766 121.997L533.603 121.323 537.242 122.161C537.242 122.161 535.341 120.752 533.361 119.317L533.591 119.369C533.591 119.369 533.02 118.945 532.178 118.329L534.377 118.837C534.377 118.837 531.893 116.996 529.645 115.378L529.628 115.309 533.268 116.147C533.268 116.147 530.439 114.052 528.09 112.369L528.095 112.15 529.92 113.087C529.92 113.087 528.351 111.572 527.14 110.383L530.619 111.187C530.619 111.187 527.203 108.655 524.762 106.92L527.446 107.542C527.446 107.542 524.568 105.408 522.209 103.717L522.147 103.518 524.114 103.637C524.114 103.637 521.085 102.246 520.034 101.832 519.716 101.527 519.465 101.273 519.323 101.13 519.323 101.13 517.703 104.16 516.337 104.92L517.864 104.302 517.849 105.062C517.676 105.271 517.501 105.461 517.332 105.599L517.699 105.353C516.992 106.2 516.155 107.095 515.512 107.452L517.039 106.834 517.029 107.346C516.372 108.572 515.657 109.699 514.987 110.33L517.385 108.574 517.706 109.899C516.87 111.651 515.843 113.506 514.901 114.394L517.299 112.638 517.501 113.469C516.423 114.734 515.26 115.93 514.317 116.473L517.065 115.308 517.065 115.62C516.263 117.256 515.315 118.915 514.441 119.739L516.839 117.984 517.153 119.28C516.276 121.175 515.136 123.332 514.099 124.31L516.497 122.554 516.753 123.61C515.628 124.95 514.386 126.248 513.393 126.824L516.057 125.696C515.248 127.358 514.283 129.061 513.395 129.899L515.792 128.143 516.222 129.916 516.642 129.105C515.765 131.125 514.509 133.675 513.37 134.767L515.751 132.989 516.201 134.757 517.322 132.538 518.358 134.211 518.846 132.205 520.373 133.703 520.489 131.737 521.631 132.461C521.207 133.153 520.776 133.749 520.358 134.151L522.165 132.8 522.673 133.122 522.523 132.532 522.736 132.374 523.186 134.142 524.307 131.923 525.343 133.596 525.758 131.886 525.792 131.857 525.796 131.86 525.792 131.857 525.962 131.719 527.358 133.088 527.459 131.373 527.636 131.226 529.661 132.506 529.205 130.709 529.984 131.096 530.079 131.404 530.175 131.19 530.399 131.303C530.399 131.303 530.335 131.225 530.22 131.089L530.385 130.717 530.399 130.721 530.681 131.131 530.745 130.797 532.785 131.247C532.785 131.247 532.003 130.677 530.916 129.899L531.043 129.243 531.09 129.138 532.206 130.761 532.311 130.214 532.666 130.529 532.681 128.812 534.191 130.156 534.199 129.422 534.937 129.842 534.478 128.343 536.465 129.468 536.048 128.1 538.002 128.436C538 128.44 537.471 128.093 536.679 127.579zM522.149 131.06L522.389 131.112C522.34 131.208 522.288 131.304 522.239 131.4L522.149 131.06zM525.781 131.853C525.777 131.851 525.773 131.848 525.768 131.843L525.828 131.594 525.924 131.688C525.876 131.747 525.83 131.801 525.781 131.853zM527.463 131.305L527.475 131.128 527.561 131.184C527.525 131.223 527.494 131.264 527.463 131.305z" mask="url(#circle-ad-banner-b)"/>
    <path fill="#1B4340" fill-rule="nonzero" d="M518.866,119.34 L520.772,120.015 C520.772,120.015 519.638,118.901 518.354,117.653 L519.266,118.052 C519.266,118.052 517.907,116.569 516.498,115.06 L518.453,115.914 C518.453,115.914 517.596,114.978 516.537,113.836 L516.38,113.187 L518.83,114.253 C518.83,114.253 517.477,112.775 516.071,111.269 L516.225,111.335 C516.225,111.335 515.819,110.891 515.221,110.245 L516.702,110.89 C516.702,110.89 514.934,108.961 513.338,107.261 L513.322,107.194 L515.772,108.26 C515.772,108.26 513.76,106.064 512.092,104.295 L512.079,104.088 L513.347,105.112 C513.347,105.112 512.204,103.561 511.321,102.344 L513.664,103.365 C513.664,103.365 511.233,100.712 509.501,98.887 L511.309,99.6761 C511.309,99.6761 509.26,97.4404 507.586,95.6629 L507.531,95.4697 L508.83,95.7296 C508.83,95.7296 506.739,94.1858 506.018,93.7145 C505.787,93.4024 505.603,93.1433 505.499,92.9972 C505.499,92.9972 504.663,95.7448 503.824,96.3615 L504.78,95.891 L504.826,96.6095 C504.729,96.7947 504.628,96.9611 504.527,97.0792 L504.75,96.8735 C504.349,97.6229 503.868,98.4082 503.472,98.6978 L504.428,98.2272 L504.459,98.7105 C504.12,99.8228 503.736,100.837 503.343,101.384 L504.785,99.9008 L505.095,101.179 C504.678,102.775 504.143,104.455 503.591,105.225 L505.033,103.742 L505.227,104.544 C504.615,105.661 503.942,106.706 503.364,107.15 L505.079,106.253 L505.102,106.548 C504.699,108.037 504.201,109.537 503.689,110.252 L505.131,108.769 L505.434,110.02 C505.001,111.749 504.415,113.706 503.807,114.554 L505.249,113.071 L505.496,114.09 C504.858,115.275 504.141,116.411 503.532,116.882 L505.196,116.014 C504.789,117.527 504.284,119.067 503.764,119.794 L505.205,118.311 L505.62,120.022 L505.835,119.285 C505.41,121.132 504.778,123.452 504.112,124.402 L505.541,122.896 L505.969,124.604 L506.538,122.587 L507.343,124.248 L507.513,122.386 L508.627,123.918 L508.556,122.065 L509.36,122.836 C509.133,123.459 508.895,123.992 508.65,124.342 L509.735,123.197 L510.092,123.54 L509.95,122.971 L510.078,122.836 L510.505,124.545 L511.075,122.527 L511.879,124.189 L512.024,122.601 L512.044,122.576 L512.047,122.579 L512.044,122.576 L512.145,122.458 L513.163,123.858 L513.101,122.243 L513.207,122.117 L514.631,123.48 L514.197,121.744 L514.737,122.169 L514.823,122.468 L514.87,122.272 L515.025,122.396 C515.025,122.396 514.977,122.317 514.891,122.18 L514.972,121.841 L514.982,121.845 L515.197,122.255 L515.214,121.944 L516.586,122.522 C516.586,122.522 516.031,121.923 515.259,121.106 L515.293,120.494 L515.316,120.398 L516.17,122.019 L516.198,121.508 L516.455,121.833 L516.336,120.209 L517.427,121.595 L517.377,120.899 L517.893,121.352 L517.48,119.899 L518.868,121.113 L518.491,119.787 L519.799,120.251 C519.797,120.255 519.425,119.886 518.866,119.34 Z M509.594,121.549 L509.756,121.616 C509.731,121.703 509.704,121.79 509.678,121.877 L509.594,121.549 Z M512.037,122.572 C512.034,122.569 512.031,122.567 512.027,122.561 L512.048,122.33 L512.118,122.426 C512.091,122.478 512.065,122.526 512.037,122.572 Z M513.099,122.179 L513.094,122.012 L513.154,122.071 C513.134,122.105 513.116,122.142 513.099,122.179 Z" mask="url(#circle-ad-banner-b)"/>
    <path fill="#1B4340" fill-rule="nonzero" d="M511.796,120.739 L514.583,120.847 C514.583,120.847 512.913,120.045 511.02,119.151 L512.355,119.281 C512.355,119.281 510.35,118.168 508.271,117.043 L511.134,117.32 C511.134,117.32 509.869,116.618 508.307,115.764 L508.066,115.14 L511.653,115.484 C511.653,115.484 509.657,114.375 507.582,113.251 L507.808,113.272 C507.808,113.272 507.209,112.938 506.326,112.454 L508.494,112.664 C508.494,112.664 505.886,111.215 503.532,109.95 L503.507,109.886 L507.094,110.23 C507.094,110.23 504.124,108.581 501.664,107.267 L501.642,107.056 L503.505,107.723 C503.505,107.723 501.814,106.472 500.506,105.487 L503.936,105.817 C503.936,105.817 500.349,103.825 497.795,102.473 L500.441,102.729 C500.441,102.729 497.419,101.05 494.949,99.7291 L494.865,99.5463 L496.762,99.4126 C496.762,99.4126 493.689,98.463 492.631,98.1985 C492.288,97.9473 492.016,97.7361 491.863,97.617 C491.863,97.617 490.694,100.72 489.484,101.618 L490.867,100.835 L490.947,101.564 C490.808,101.786 490.665,101.989 490.52,102.143 L490.841,101.861 C490.271,102.761 489.583,103.723 489.013,104.145 L490.396,103.362 L490.45,103.852 C489.977,105.109 489.435,106.277 488.873,106.965 L490.946,104.983 L491.42,106.21 C490.841,107.991 490.092,109.896 489.302,110.863 L491.375,108.882 L491.673,109.652 C490.801,110.998 489.839,112.288 489.005,112.926 L491.487,111.466 L491.526,111.764 C490.965,113.431 490.268,115.137 489.535,116.036 L491.608,114.054 L492.071,115.255 C491.472,117.179 490.652,119.386 489.783,120.452 L491.856,118.47 L492.234,119.448 C491.327,120.872 490.302,122.27 489.424,122.946 L491.831,121.532 C491.266,123.224 490.557,124.975 489.813,125.888 L491.886,123.906 L492.52,125.549 L492.82,124.72 C492.234,126.763 491.355,129.36 490.402,130.549 L492.457,128.548 L493.109,130.183 L493.903,127.919 L495.104,129.389 L495.319,127.409 L496.968,128.649 L496.831,126.754 L498.015,127.303 C497.696,128.018 497.36,128.643 497.01,129.081 L498.568,127.56 L499.095,127.804 L498.878,127.259 L499.061,127.08 L499.714,128.716 L500.507,126.451 L501.709,127.922 L501.891,126.233 L501.92,126.202 L501.924,126.203 L501.92,126.202 L502.065,126.048 L503.572,127.182 L503.453,125.529 L503.605,125.366 L505.703,126.335 L505.04,124.674 L505.834,124.946 L505.964,125.229 L506.029,125.012 L506.257,125.092 C506.257,125.092 506.187,125.025 506.059,124.909 L506.17,124.533 L506.184,124.535 L506.506,124.892 L506.525,124.565 L508.533,124.738 C508.533,124.738 507.713,124.291 506.575,123.684 L506.614,123.04 L506.646,122.933 L507.918,124.346 L507.95,123.809 L508.329,124.066 L508.127,122.422 L509.741,123.518 L509.656,122.814 L510.415,123.122 L509.787,121.747 L511.83,122.573 L511.258,121.317 L513.17,121.392 C513.168,121.396 512.619,121.131 511.796,120.739 Z M498.335,125.897 L498.571,125.917 C498.536,126.015 498.498,126.114 498.463,126.211 L498.335,125.897 Z M501.909,126.199 C501.905,126.197 501.901,126.196 501.895,126.191 L501.922,125.945 L502.024,126.023 C501.986,126.085 501.949,126.143 501.909,126.199 Z M503.449,125.463 L503.438,125.292 L503.527,125.335 C503.498,125.377 503.473,125.42 503.449,125.463 Z" mask="url(#circle-ad-banner-b)"/>
    <path fill="#1B4340" fill-rule="nonzero" d="M502.273,127.742 L505.059,127.85 C505.059,127.85 503.389,127.048 501.497,126.154 L502.831,126.285 C502.831,126.285 500.827,125.171 498.748,124.046 L501.61,124.324 C501.61,124.324 500.345,123.621 498.784,122.767 L498.543,122.144 L502.13,122.488 C502.13,122.488 500.133,121.378 498.059,120.255 L498.285,120.275 C498.285,120.275 497.685,119.941 496.803,119.458 L498.971,119.667 C498.971,119.667 496.362,118.218 494.008,116.954 L493.983,116.889 L497.57,117.233 C497.57,117.233 494.601,115.584 492.141,114.27 L492.119,114.06 L493.982,114.726 C493.982,114.726 492.291,113.475 490.983,112.49 L494.412,112.821 C494.412,112.821 490.825,110.828 488.272,109.476 L490.918,109.732 C490.918,109.732 487.895,108.053 485.426,106.732 L485.342,106.55 L487.239,106.416 C487.239,106.416 484.165,105.466 483.108,105.202 C482.765,104.951 482.493,104.74 482.34,104.62 C482.34,104.62 481.171,107.723 479.96,108.621 L481.343,107.838 L481.424,108.567 C481.285,108.789 481.142,108.993 480.997,109.146 L481.317,108.864 C480.748,109.764 480.06,110.726 479.489,111.148 L480.872,110.365 L480.927,110.856 C480.453,112.112 479.911,113.28 479.35,113.968 L481.422,111.987 L481.896,113.213 C481.317,114.995 480.568,116.899 479.779,117.867 L481.852,115.885 L482.149,116.655 C481.278,118.001 480.315,119.292 479.482,119.93 L481.964,118.47 L482.003,118.768 C481.442,120.434 480.744,122.141 480.011,123.039 L482.084,121.058 L482.548,122.258 C481.948,124.182 481.129,126.39 480.26,127.455 L482.333,125.474 L482.71,126.452 C481.803,127.875 480.779,129.274 479.901,129.949 L482.307,128.535 C481.742,130.227 481.034,131.978 480.29,132.891 L482.362,130.91 L482.997,132.552 L483.296,131.723 C482.711,133.766 481.831,136.364 480.878,137.553 L482.933,135.551 L483.586,137.187 L484.379,134.922 L485.581,136.393 L485.795,134.412 L487.444,135.653 L487.308,133.757 L488.492,134.306 C488.173,135.021 487.836,135.646 487.486,136.084 L489.045,134.563 L489.572,134.807 L489.354,134.262 L489.538,134.084 L490.19,135.719 L490.984,133.455 L492.185,134.925 L492.367,133.237 L492.397,133.205 L492.401,133.207 L492.397,133.205 L492.542,133.051 L494.049,134.185 L493.93,132.532 L494.081,132.369 L496.18,133.339 L495.517,131.677 L496.311,131.949 L496.441,132.232 L496.506,132.015 L496.734,132.095 C496.734,132.095 496.663,132.028 496.536,131.913 L496.646,131.537 L496.661,131.538 L496.982,131.895 L497.001,131.568 L499.01,131.741 C499.01,131.741 498.19,131.294 497.052,130.687 L497.091,130.043 L497.122,129.937 L498.395,131.349 L498.426,130.812 L498.806,131.07 L498.603,129.425 L500.217,130.521 L500.132,129.817 L500.892,130.126 L500.264,128.75 L502.306,129.576 L501.735,128.32 L503.647,128.396 C503.645,128.4 503.096,128.134 502.273,127.742 Z M488.811,132.901 L489.047,132.921 C489.012,133.018 488.974,133.117 488.939,133.215 L488.811,132.901 Z M492.385,133.203 C492.381,133.201 492.377,133.199 492.372,133.194 L492.398,132.949 L492.501,133.027 C492.463,133.089 492.426,133.147 492.385,133.203 Z M493.925,132.467 L493.915,132.296 L494.004,132.339 C493.975,132.38 493.95,132.423 493.925,132.467 Z" mask="url(#circle-ad-banner-b)"/>
    <path fill="#1B4340" fill-rule="nonzero" d="M493.273,143.742 L496.059,143.85 C496.059,143.85 494.389,143.048 492.497,142.154 L493.831,142.285 C493.831,142.285 491.827,141.171 489.748,140.046 L492.61,140.324 C492.61,140.324 491.345,139.621 489.784,138.767 L489.543,138.144 L493.13,138.488 C493.13,138.488 491.133,137.378 489.059,136.255 L489.285,136.275 C489.285,136.275 488.685,135.941 487.803,135.458 L489.971,135.667 C489.971,135.667 487.362,134.218 485.008,132.954 L484.983,132.889 L488.57,133.233 C488.57,133.233 485.601,131.584 483.141,130.27 L483.119,130.06 L484.982,130.726 C484.982,130.726 483.291,129.475 481.983,128.49 L485.412,128.821 C485.412,128.821 481.825,126.828 479.272,125.476 L481.918,125.732 C481.918,125.732 478.895,124.053 476.426,122.732 L476.342,122.55 L478.239,122.416 C478.239,122.416 475.165,121.466 474.108,121.202 C473.765,120.951 473.493,120.74 473.34,120.62 C473.34,120.62 472.171,123.723 470.96,124.621 L472.343,123.838 L472.424,124.567 C472.285,124.789 472.142,124.993 471.997,125.146 L472.317,124.864 C471.748,125.764 471.06,126.726 470.489,127.148 L471.872,126.365 L471.927,126.856 C471.453,128.112 470.911,129.28 470.35,129.968 L472.422,127.987 L472.896,129.213 C472.317,130.995 471.568,132.899 470.779,133.867 L472.852,131.885 L473.149,132.655 C472.278,134.001 471.315,135.292 470.482,135.93 L472.964,134.47 L473.003,134.768 C472.442,136.434 471.744,138.141 471.011,139.039 L473.084,137.058 L473.548,138.258 C472.948,140.182 472.129,142.39 471.26,143.455 L473.333,141.474 L473.71,142.452 C472.803,143.875 471.779,145.274 470.901,145.949 L473.307,144.535 C472.742,146.227 472.034,147.978 471.29,148.891 L473.362,146.91 L473.997,148.552 L474.296,147.723 C473.711,149.766 472.831,152.364 471.878,153.553 L473.933,151.551 L474.586,153.187 L475.379,150.922 L476.581,152.393 L476.795,150.412 L478.444,151.653 L478.308,149.757 L479.492,150.306 C479.173,151.021 478.836,151.646 478.486,152.084 L480.045,150.563 L480.572,150.807 L480.354,150.262 L480.538,150.084 L481.19,151.719 L481.984,149.455 L483.185,150.925 L483.367,149.237 L483.397,149.205 L483.401,149.207 L483.397,149.205 L483.542,149.051 L485.049,150.185 L484.93,148.532 L485.081,148.369 L487.18,149.339 L486.517,147.677 L487.311,147.949 L487.441,148.232 L487.506,148.015 L487.734,148.095 C487.734,148.095 487.663,148.028 487.536,147.913 L487.646,147.537 L487.661,147.538 L487.982,147.895 L488.001,147.568 L490.01,147.741 C490.01,147.741 489.19,147.294 488.052,146.687 L488.091,146.043 L488.122,145.937 L489.395,147.349 L489.426,146.812 L489.806,147.07 L489.603,145.425 L491.217,146.521 L491.132,145.817 L491.892,146.126 L491.264,144.75 L493.306,145.576 L492.735,144.32 L494.647,144.396 C494.645,144.4 494.096,144.134 493.273,143.742 Z M479.811,148.901 L480.047,148.921 C480.012,149.018 479.974,149.117 479.939,149.215 L479.811,148.901 Z M483.385,149.203 C483.381,149.201 483.377,149.199 483.372,149.194 L483.398,148.949 L483.501,149.027 C483.463,149.089 483.426,149.147 483.385,149.203 Z M484.925,148.467 L484.915,148.296 L485.004,148.339 C484.975,148.38 484.95,148.423 484.925,148.467 Z" mask="url(#circle-ad-banner-b)"/>
    <path fill="#D9C4A5" fill-rule="nonzero" d="M550.5,106 C514.5,115 490.833,127.167 481,136 L654,136 L654,97.0001 C635.5,95.8334 585.209,97.323 550.5,106 Z" mask="url(#circle-ad-banner-b)"/>
    <path fill="#C5A981" fill-rule="nonzero" d="M573.499,111 C575.499,109.4 591.166,104.904 599.499,102.571 C601.999,101.864 606.999,99.5707 608.999,100.071 C610.999,100.571 624.499,104.571 630.499,107.071 C636.499,109.571 635.499,111.571 634.999,113.071 C634.499,114.571 631.999,115.571 629.499,115.071 C627.499,114.671 617.5,111 610,109 C612.167,114.5 614.883,123.199 614.499,125.5 C613.999,128.5 608.999,130.071 605.999,130.071 C602.999,130.071 596.499,128.5 596.999,124.5 C597.333,121.828 599.5,110 598.5,110.5 C597.5,111 584,113.571 579.5,115.071 C575,116.571 570.999,113 573.499,111 Z" mask="url(#circle-ad-banner-b)"/>
    <polygon fill="#5A3522" fill-rule="nonzero" points="574.309 112.615 576.088 112.615 575.614 109.35 574.309 110.277" mask="url(#circle-ad-banner-b)"/>
    <polygon fill="#5A3522" fill-rule="nonzero" points="633.69 112.483 630.377 111.618 633.848 108.071 634.943 109.35" mask="url(#circle-ad-banner-b)"/>
    <path fill="#48291B" fill-rule="nonzero" d="M599.437,100.122 C599.41,100.091 599.384,100.065 599.353,100.034 C598.488,99.1288 597.2,98.7553 595.97,98.9926 L574.42,103.229 L578.023,113.942 L597.82,106.182 C600.36,105.312 601.243,102.108 599.437,100.122 Z" mask="url(#circle-ad-banner-b)"/>
    <path fill="#826339" fill-rule="nonzero" d="M579.038,106.23 L577.184,108.014 L578.823,105.773 C577.57,103.242 575.681,102.952 574.415,103.228 C572.24,103.707 571.203,105.984 572.715,109.886 C573.106,110.901 573.664,111.859 574.31,112.615 L574.921,111.266 L574.626,112.962 C575.672,114.039 576.902,114.557 578.023,113.942 C579.97,112.865 580.255,110.352 579.486,107.539 C579.354,107.052 579.205,106.621 579.038,106.23 Z" mask="url(#circle-ad-banner-b)"/>
    <path fill="#48291B" fill-rule="nonzero" d="M608.568,99.9896 C608.595,99.9588 608.621,99.9325 608.652,99.9017 C609.518,98.9965 610.805,98.623 612.035,98.8603 L633.585,103.096 L629.982,113.81 L610.185,106.049 C607.646,105.179 606.758,101.976 608.568,99.9896 Z" mask="url(#circle-ad-banner-b)"/>
    <path fill="#826339" fill-rule="nonzero" d="M628.962,106.098 L630.817,107.882 L629.178,105.641 C630.43,103.11 632.32,102.82 633.585,103.097 C635.76,103.576 636.797,105.852 635.286,109.754 C634.895,110.769 634.337,111.727 633.691,112.483 L633.08,111.134 L633.374,112.83 C632.328,113.907 631.098,114.425 629.977,113.81 C628.031,112.733 627.745,110.22 628.514,107.407 C628.646,106.92 628.8,106.489 628.962,106.098 Z" mask="url(#circle-ad-banner-b)"/>
    <path fill="#5A3522" fill-rule="nonzero" d="M595.498,117.756 L599,105.039 C599.554,103.066 601.154,101.554 603.162,101.145 C603.97,100.978 604.876,100.899 605.825,100.996 C607.93,101.211 609.705,102.661 610.399,104.657 L615.299,118.727 L595.498,117.756 Z" mask="url(#circle-ad-banner-b)"/>
    <polygon fill="#5A3522" fill-rule="nonzero" points="615.049 121.579 614.667 118.266 597.828 121.372 598.439 125.736 599.239 126.276" mask="url(#circle-ad-banner-b)"/>
    <path fill="#826339" fill-rule="nonzero" d="M609.992,120.898 L615.256,120.318 C615.287,119.993 615.305,119.668 615.305,119.351 C615.305,115.524 610.814,112.417 605.272,112.417 C599.731,112.417 595.24,115.519 595.24,119.351 C595.24,121.575 596.229,124.053 598.448,125.741 L600.065,124.137 L599.248,126.281 C600.773,127.195 602.763,127.771 605.277,127.771 C611.706,127.771 614.303,124.765 615.059,121.584 L609.992,120.898 Z" mask="url(#circle-ad-banner-b)"/>
    <path fill="#EB8C3E" fill-rule="nonzero" d="M592.528,108.256 C592.528,108.256 593.258,104.164 591.434,102.411 C589.61,100.658 588.938,100.376 588.938,100.376 C588.938,100.376 586.613,98.3199 588.437,91.4516 C590.261,84.5833 587.404,80.7822 587.404,80.7822 C587.404,80.7822 590.63,80.7822 591.509,83.8494 C592.387,86.9167 595.235,89.4038 595.235,89.4038 C595.235,89.4038 592.532,83.12 594.651,79.4683 C596.769,75.8166 599.691,69.168 596.988,67.0455 C596.988,67.0455 601.299,66.3161 601.809,70.6972 C602.319,75.0783 607.614,80.6328 607.614,80.6328 C607.614,80.6328 606.414,74.8982 609.776,73.1624 C609.776,73.1624 608.752,76.0275 610.505,77.7106 C612.259,79.3892 615.111,84.1394 614.522,88.67 C613.933,93.2005 615.836,95.613 615.836,95.613 C615.836,95.613 615.691,88.8194 618.683,86.6266 C621.68,84.4339 618.683,82.0961 618.683,82.0961 C618.683,82.0961 622.629,82.7816 622.849,87.6241 C623.069,92.4711 626.707,96.4963 621.746,100.768 L614.372,99.4844 C614.372,99.4844 608.748,101.361 610.795,105.795 C610.795,105.795 608.308,100.803 604.582,101.022 C600.855,101.242 598.645,106.3 598.645,106.3 C598.645,106.3 598.887,103.141 597.133,103.725 C595.38,104.309 592.528,108.256 592.528,108.256 Z" mask="url(#circle-ad-banner-b)"/>
    <path fill="#E7C25B" fill-rule="nonzero" d="M610.461,90.4891 C609.876,86.7627 607.099,87.6152 607.099,87.6152 C608.488,88.5424 608.778,92.2424 605.882,91.658 C602.982,91.0735 602.938,89.5399 601.694,85.0093 C600.451,80.4788 596.944,81.428 596.944,81.428 C596.944,81.428 598.992,82.3068 598.333,88.2216 C597.673,94.1364 599.866,92.9719 600.011,95.9644 C600.156,98.9613 598.548,98.8119 596.869,98.3022 C595.191,97.7924 595.116,94.5758 595.116,94.5758 C594.364,99.4755 595.428,102.424 596.201,104.243 C596.531,103.997 596.852,103.804 597.142,103.707 C598.895,103.123 598.653,106.282 598.653,106.282 C598.653,106.282 600.868,101.224 604.594,101.005 C608.321,100.785 610.808,105.777 610.808,105.777 C609.354,102.626 611.775,100.767 613.3,99.9544 C613.388,99.1854 613.471,98.2934 613.533,97.2739 C613.748,93.631 611.045,94.2155 610.461,90.4891 Z" mask="url(#circle-ad-banner-b)"/>
    <path fill="#5A3522" fill-rule="nonzero" d="M605.958,122.814 C605.567,122.814 605.123,122.669 604.539,122.392 C603.075,121.707 602.974,121.465 602.873,119.874 C602.829,119.14 603.506,118.319 604.49,117.919 C605.554,117.484 606.586,117.695 607.259,118.472 C608.7,120.147 608.217,121.113 607.637,121.772 C607.004,122.484 606.542,122.814 605.958,122.814 Z M602.983,119.87 C603.08,121.403 603.146,121.623 604.583,122.295 C606.006,122.959 606.529,122.853 607.549,121.702 C607.905,121.302 608.731,120.362 607.171,118.547 C606.534,117.804 605.545,117.611 604.53,118.024 C603.594,118.406 602.943,119.18 602.983,119.87 Z" mask="url(#circle-ad-banner-b)"/>
    <path fill="#5A3522" fill-rule="nonzero" d="M605.761,121.395 C605.563,121.395 605.335,121.32 605.04,121.184 C604.293,120.837 604.245,120.714 604.192,119.901 C604.17,119.523 604.518,119.101 605.019,118.894 C605.559,118.675 606.091,118.78 606.433,119.18 C607.167,120.032 606.921,120.529 606.622,120.867 C606.302,121.228 606.06,121.395 605.761,121.395 Z M604.302,119.896 C604.351,120.661 604.377,120.757 605.084,121.087 C605.779,121.412 606.038,121.36 606.535,120.797 C606.82,120.476 607.018,120.041 606.346,119.255 C606.034,118.894 605.55,118.798 605.054,119 C604.605,119.184 604.28,119.571 604.302,119.896 Z" mask="url(#circle-ad-banner-b)"/>
    <path fill="#5A3522" fill-rule="nonzero" d="M606.478,124.686 C605.885,124.686 605.234,124.523 604.536,124.198 C603.191,123.57 602.44,123.06 601.947,122.436 C601.403,121.751 601.135,120.894 601.051,119.575 C600.985,118.538 601.71,117.488 602.945,116.838 C604.298,116.122 606.395,115.862 608.209,117.277 C609.805,118.525 610.6,119.76 609.642,122.076 C609.119,123.337 608.407,124.154 607.519,124.497 C607.194,124.62 606.847,124.686 606.478,124.686 Z M605.287,116.363 C604.43,116.363 603.63,116.596 602.998,116.93 C601.802,117.558 601.099,118.569 601.161,119.562 C601.319,122.129 602.198,122.981 604.584,124.093 C605.687,124.607 606.663,124.708 607.48,124.392 C608.337,124.058 609.031,123.262 609.541,122.032 C610.472,119.782 609.695,118.574 608.139,117.361 C607.221,116.64 606.219,116.363 605.287,116.363 Z" mask="url(#circle-ad-banner-b)"/>
    <path fill="#5A3522" fill-rule="nonzero" d="M606.688,125.618 C605.761,125.618 604.741,125.35 603.603,124.818 L603.3,124.677 C600.123,123.196 599.266,122.801 599.046,119.255 C598.941,117.58 600.505,115.695 602.759,114.777 C605.198,113.784 607.575,114.258 609.113,116.042 C612.616,120.112 611.79,121.491 611.183,122.502 L611.166,122.533 C609.922,124.607 608.485,125.618 606.688,125.618 Z M599.152,119.246 C599.371,122.726 600.211,123.122 603.344,124.576 L603.647,124.717 C606.934,126.25 609.223,125.561 611.065,122.471 L611.082,122.441 C611.667,121.461 612.471,120.116 609.021,116.108 C607.514,114.359 605.189,113.898 602.794,114.874 C600.584,115.779 599.05,117.616 599.152,119.246 Z" mask="url(#circle-ad-banner-b)"/>
    <path fill="#5A3522" fill-rule="nonzero" d="M606.504,126.163 C605.264,126.163 603.933,125.89 602.606,125.319 C598.475,123.552 597.939,123.174 597.662,119.14 C597.544,117.431 599.178,115.484 601.635,114.408 C603.019,113.801 604.469,113.551 605.827,113.687 C607.369,113.841 608.736,114.5 609.777,115.599 C611.97,117.914 613.803,120.23 612.19,123.104 C611.069,125.09 608.956,126.163 606.504,126.163 Z M605.115,113.762 C603.893,113.762 602.694,114.061 601.674,114.504 C599.262,115.563 597.654,117.462 597.768,119.127 C598.04,123.095 598.568,123.473 602.645,125.213 C606.552,126.883 610.432,125.991 612.084,123.047 C613.662,120.239 611.852,117.954 609.69,115.669 C608.38,114.285 606.728,113.762 605.115,113.762 Z" mask="url(#circle-ad-banner-b)"/>
    <path fill="#5A3522" fill-rule="nonzero" d="M605.729 127.081C604.472 127.081 603.211 126.852 602.02 126.391 597.455 124.629 596.576 122.928 596.255 118.714 596.132 117.101 597.648 115.313 600.109 114.153 601.704 113.401 603.484 113.028 605.132 113.111 607.03 113.203 608.695 113.889 609.952 115.093 611.108 116.205 612.026 116.978 612.76 117.607 613.894 118.569 614.522 119.101 614.68 119.751 614.839 120.393 614.557 121.109 613.824 122.572 612.923 124.374 611.152 125.828 608.968 126.558 607.922 126.905 606.823 127.081 605.729 127.081zM604.591 113.195C603.246 113.195 601.752 113.498 600.157 114.254 597.736 115.396 596.246 117.145 596.365 118.709 596.677 122.871 597.547 124.55 602.06 126.29 604.261 127.138 606.705 127.195 608.933 126.452 611.09 125.732 612.835 124.299 613.727 122.524 615.115 119.751 614.931 119.597 612.685 117.694 611.947 117.07 611.029 116.288 609.873 115.176 608.752 114.095 606.898 113.195 604.591 113.195zM575.752 110.171C575.691 110.171 575.625 110.154 575.555 110.114 574.913 109.763 574.408 108.519 574.487 107.812 574.531 107.398 574.702 106.867 575.023 106.731 575.124 106.687 575.286 106.669 575.489 106.823 575.981 107.205 576.113 107.398 576.148 108.251 576.187 109.134 576.196 109.943 575.893 110.132 575.849 110.158 575.805 110.171 575.752 110.171zM575.172 106.81C575.137 106.81 575.098 106.818 575.062 106.832 574.838 106.924 574.645 107.333 574.592 107.82 574.517 108.479 575.005 109.688 575.603 110.013 575.7 110.066 575.77 110.07 575.831 110.035 576.104 109.864 576.06 108.857 576.033 108.255 575.998 107.442 575.884 107.275 575.414 106.911 575.335 106.845 575.251 106.81 575.172 106.81z" mask="url(#circle-ad-banner-b)"/>
    <path fill="#5A3522" fill-rule="nonzero" d="M575.902,111.178 C575.814,111.178 575.717,111.152 575.612,111.099 C574.632,110.598 573.863,108.818 573.986,107.808 C574.052,107.232 574.302,106.489 574.772,106.283 C574.996,106.186 575.229,106.226 575.471,106.406 C576.222,106.951 576.416,107.223 576.473,108.445 C576.517,109.389 576.587,110.813 576.108,111.121 C576.051,111.156 575.981,111.178 575.902,111.178 Z M575.014,106.34 C574.948,106.34 574.882,106.353 574.821,106.379 C574.416,106.555 574.17,107.227 574.1,107.816 C573.986,108.774 574.741,110.523 575.669,110.998 C575.831,111.081 575.959,111.086 576.06,111.024 C576.482,110.752 576.416,109.306 576.372,108.445 C576.315,107.263 576.139,107.021 575.414,106.489 C575.273,106.393 575.137,106.34 575.014,106.34 Z" mask="url(#circle-ad-banner-b)"/>
    <path fill="#5A3522" fill-rule="nonzero" d="M576.622,112.092 C576.138,112.092 574.412,111.279 573.845,109.367 C573.269,107.425 573.862,106.406 574.266,105.971 C574.578,105.637 575,105.478 575.396,105.549 C575.717,105.606 576.169,105.839 576.503,106.625 C576.626,106.915 576.74,107.166 576.855,107.412 C577.272,108.313 577.575,108.967 577.514,110.119 C577.448,111.406 577.154,112.07 576.639,112.092 C576.635,112.092 576.631,112.092 576.622,112.092 Z M575.211,105.645 C574.904,105.645 574.592,105.79 574.35,106.045 C573.963,106.463 573.392,107.443 573.95,109.337 C574.499,111.2 576.213,111.982 576.622,111.982 C576.626,111.982 576.631,111.982 576.635,111.982 C577.083,111.96 577.343,111.332 577.404,110.114 C577.461,108.989 577.162,108.348 576.754,107.46 C576.639,107.214 576.521,106.959 576.402,106.669 C576.09,105.927 575.673,105.711 575.378,105.659 C575.321,105.65 575.268,105.645 575.211,105.645 Z" mask="url(#circle-ad-banner-b)"/>
    <path fill="#5A3522" fill-rule="nonzero" d="M576.881,112.558 C576.599,112.558 576.287,112.487 575.975,112.351 C575.356,112.079 574.191,111.31 573.387,109.205 C572.737,107.504 572.877,106.318 573.87,105.114 C574.024,104.933 574.354,104.815 574.78,104.793 C575.259,104.771 575.958,104.872 576.349,105.259 C577.579,106.463 578.208,108.651 578.318,109.75 C578.463,111.178 578.353,112.079 577.39,112.47 C577.241,112.527 577.065,112.558 576.881,112.558 Z M574.916,104.898 C574.872,104.898 574.824,104.898 574.785,104.903 C574.398,104.925 574.086,105.03 573.958,105.184 C572.992,106.353 572.86,107.509 573.493,109.165 C574.284,111.235 575.417,111.986 576.019,112.25 C576.511,112.465 576.995,112.505 577.346,112.364 C578.252,112 578.348,111.165 578.208,109.758 C578.098,108.677 577.478,106.52 576.27,105.333 C575.94,105.013 575.365,104.898 574.916,104.898 Z" mask="url(#circle-ad-banner-b)"/>
    <path fill="#5A3522" fill-rule="nonzero" d="M576.947 113.423C576.705 113.423 576.459 113.388 576.213 113.318 575.009 112.971 573.928 111.837 573.313 110.281 571.964 106.867 572.434 105.549 573.7 104.424 574.447 103.76 575.308 103.747 576.191 104.384 576.987 104.96 578.388 106.124 578.854 107.478 578.968 107.812 579.342 109.007 579.364 110.268 579.386 111.547 579.043 112.452 578.349 112.962 577.931 113.27 577.452 113.423 576.947 113.423zM574.917 104.024C574.517 104.024 574.13 104.186 573.77 104.507 572.148 105.949 572.412 107.698 573.414 110.242 574.016 111.762 575.071 112.874 576.24 113.212 576.973 113.423 577.698 113.305 578.279 112.878 579.724 111.815 579.254 109.007 578.744 107.517 578.292 106.19 576.907 105.043 576.121 104.476 575.708 104.173 575.304 104.024 574.917 104.024zM632.281 109.847C632.342 109.847 632.408 109.829 632.478 109.789 633.12 109.438 633.625 108.194 633.546 107.487 633.502 107.074 633.331 106.542 633.01 106.406 632.909 106.362 632.746 106.344 632.544 106.498 632.052 106.88 631.92 107.074 631.885 107.926 631.845 108.809 631.837 109.618 632.14 109.807 632.184 109.833 632.228 109.847 632.281 109.847zM632.861 106.485C632.896 106.485 632.935 106.494 632.97 106.507 633.195 106.599 633.388 107.008 633.441 107.496 633.515 108.155 633.028 109.363 632.43 109.688 632.333 109.741 632.263 109.745 632.201 109.71 631.929 109.539 631.973 108.533 631.999 107.931 632.034 107.118 632.149 106.951 632.619 106.586 632.698 106.52 632.781 106.485 632.861 106.485z" mask="url(#circle-ad-banner-b)"/>
    <path fill="#5A3522" fill-rule="nonzero" d="M632.13,110.853 C632.218,110.853 632.315,110.826 632.42,110.774 C633.4,110.273 634.169,108.493 634.046,107.482 C633.98,106.907 633.73,106.164 633.259,105.958 C633.035,105.861 632.802,105.9 632.561,106.081 C631.809,106.625 631.616,106.898 631.559,108.12 C631.515,109.064 631.445,110.488 631.924,110.796 C631.981,110.831 632.051,110.853 632.13,110.853 Z M633.018,106.015 C633.084,106.015 633.15,106.028 633.211,106.054 C633.615,106.23 633.861,106.902 633.932,107.491 C634.046,108.449 633.29,110.198 632.363,110.673 C632.2,110.756 632.073,110.761 631.972,110.699 C631.55,110.427 631.616,108.981 631.66,108.12 C631.717,106.937 631.893,106.696 632.618,106.164 C632.758,106.067 632.89,106.015 633.018,106.015 Z" mask="url(#circle-ad-banner-b)"/>
    <path fill="#5A3522" fill-rule="nonzero" d="M631.404,111.767 C631.887,111.767 633.614,110.954 634.181,109.042 C634.757,107.1 634.164,106.08 633.759,105.645 C633.447,105.311 633.025,105.153 632.63,105.223 C632.309,105.281 631.857,105.513 631.523,106.3 C631.4,106.59 631.285,106.841 631.171,107.087 C630.754,107.987 630.45,108.642 630.512,109.794 C630.578,111.081 630.872,111.745 631.386,111.767 C631.395,111.767 631.399,111.767 631.404,111.767 Z M632.819,105.32 C633.126,105.32 633.438,105.465 633.68,105.72 C634.067,106.137 634.638,107.117 634.08,109.011 C633.531,110.875 631.817,111.657 631.408,111.657 C631.404,111.657 631.4,111.657 631.395,111.657 C630.947,111.635 630.688,111.006 630.626,109.789 C630.569,108.664 630.868,108.023 631.276,107.135 C631.391,106.889 631.509,106.634 631.628,106.344 C631.94,105.601 632.357,105.386 632.652,105.333 C632.705,105.325 632.762,105.32 632.819,105.32 Z" mask="url(#circle-ad-banner-b)"/>
    <path fill="#5A3522" fill-rule="nonzero" d="M631.151,112.232 C631.432,112.232 631.744,112.162 632.056,112.026 C632.676,111.753 633.84,110.984 634.644,108.88 C635.295,107.179 635.154,105.993 634.161,104.788 C634.012,104.604 633.682,104.49 633.256,104.468 C632.777,104.446 632.078,104.547 631.687,104.933 C630.457,106.138 629.828,108.326 629.718,109.424 C629.573,110.853 629.683,111.753 630.646,112.145 C630.791,112.202 630.966,112.232 631.151,112.232 Z M633.115,104.573 C633.159,104.573 633.207,104.573 633.247,104.578 C633.634,104.6 633.946,104.705 634.073,104.859 C635.04,106.028 635.172,107.183 634.539,108.84 C633.748,110.91 632.614,111.661 632.012,111.925 C631.52,112.14 631.037,112.18 630.685,112.039 C629.78,111.674 629.683,110.839 629.824,109.433 C629.934,108.352 630.553,106.195 631.762,105.008 C632.091,104.687 632.667,104.573 633.115,104.573 Z" mask="url(#circle-ad-banner-b)"/>
    <path fill="#5A3522" fill-rule="nonzero" d="M631.084,113.098 C631.326,113.098 631.572,113.063 631.818,112.993 C633.022,112.646 634.103,111.512 634.718,109.956 C636.067,106.542 635.597,105.224 634.331,104.099 C633.584,103.435 632.723,103.422 631.84,104.059 C631.044,104.635 629.643,105.799 629.177,107.153 C629.062,107.487 628.689,108.682 628.667,109.943 C628.645,111.222 628.988,112.127 629.682,112.637 C630.1,112.944 630.579,113.098 631.084,113.098 Z M633.11,103.699 C633.51,103.699 633.896,103.861 634.257,104.182 C635.878,105.623 635.614,107.372 634.613,109.917 C634.011,111.437 632.956,112.549 631.787,112.887 C631.053,113.098 630.328,112.979 629.748,112.553 C628.302,111.49 628.772,108.682 629.282,107.192 C629.735,105.865 631.119,104.718 631.906,104.151 C632.323,103.848 632.723,103.699 633.11,103.699 Z" mask="url(#circle-ad-banner-b)"/>
    <ellipse cx="566.5" cy="116" fill="#C4A980" fill-rule="nonzero" mask="url(#circle-ad-banner-b)" rx="2.5" ry="1"/>
    <ellipse cx="631.5" cy="122" fill="#C4A980" fill-rule="nonzero" mask="url(#circle-ad-banner-b)" rx="2.5" ry="1"/>
    <ellipse cx="635" cy="100.5" fill="#C4A980" fill-rule="nonzero" mask="url(#circle-ad-banner-b)" rx="2" ry="1"/>
    <ellipse cx="557" cy="125" fill="#C4A980" fill-rule="nonzero" mask="url(#circle-ad-banner-b)" rx="3" ry="1"/>
    <ellipse cx="594.5" cy="132" fill="#C4A980" fill-rule="nonzero" mask="url(#circle-ad-banner-b)" rx="2.5" ry="1"/>
    <ellipse cx="560.5" cy="117.5" fill="#C4A980" fill-rule="nonzero" mask="url(#circle-ad-banner-b)" rx="1.5" ry="1"/>
    <ellipse cx="566.5" cy="107.5" fill="#C4A980" fill-rule="nonzero" mask="url(#circle-ad-banner-b)" rx="2.5" ry="1"/>
    <ellipse cx="619.5" cy="116.5" fill="#C4A980" fill-rule="nonzero" mask="url(#circle-ad-banner-b)" rx="1.5" ry="1"/>
    <ellipse cx="638.5" cy="101.5" fill="#C4A980" fill-rule="nonzero" mask="url(#circle-ad-banner-b)" rx="1.5" ry="1"/>
    <ellipse cx="574.5" cy="122" fill="#C4A980" fill-rule="nonzero" mask="url(#circle-ad-banner-b)" rx="5.5" ry="2"/>
  </g>
</svg>
