<svg width="343" height="80" viewBox="0 0 343 80" fill="none" xmlns="http://www.w3.org/2000/svg">
<circle cx="110" cy="40" r="16" fill="#C0A46B"/>
<rect x="104.5" y="38.7856" width="11" height="6.71429" rx="1.5" stroke="white"/>
<path d="M106.571 38.2857C106.571 37.956 106.571 37.033 106.571 35.978C106.571 34.6593 107.551 34 110 34C112.449 34 113.428 34.6593 113.428 35.978C113.428 37.033 113.428 37.956 113.428 38.2857" stroke="white"/>
<circle cx="110" cy="41.7143" r="0.857143" fill="white"/>
<circle cx="202" cy="40" r="16" fill="#0D6763"/>
<rect x="196.5" y="38.7856" width="11" height="6.71429" rx="1.5" stroke="white"/>
<path d="M198.571 38.2857C198.571 37.956 198.571 37.033 198.571 35.978C198.571 34.6593 199.551 34 202 34C204.449 34 205.428 34.6593 205.428 35.978" stroke="white"/>
<circle cx="202" cy="41.7143" r="0.857143" fill="white"/>
<circle cx="294" cy="40" r="16" fill="#0D6763"/>
<rect x="288.5" y="38.7856" width="11" height="6.71429" rx="1.5" stroke="white"/>
<path d="M290.571 38.2857C290.571 37.956 290.571 37.033 290.571 35.978C290.571 34.6593 291.551 34 294 34C296.449 34 297.428 34.6593 297.428 35.978" stroke="white"/>
<circle cx="294" cy="41.7143" r="0.857143" fill="white"/>
<rect opacity="0.5" x="81.5" y="12.5" width="164" height="55" rx="27.5" stroke="#0D6763" stroke-dasharray="3 4"/>
<rect x="233" y="27" width="21" height="26" fill="white"/>
<path d="M233 35H264L259 31" stroke="#0D6763"/>
<path d="M141 35H172L167 31" stroke="#DDDDDD"/>
<path d="M264 45L233 45L238 49" stroke="#0D6763"/>
<path d="M172 45L141 45L146 49" stroke="#0D6763"/>
<path d="M151.889 30.2427L160.021 38.3744" stroke="#C85C41"/>
<path d="M160.375 30.2427L152.243 38.3744" stroke="#C85C41"/>
<rect x="32.5" y="30.5" width="67" height="19" rx="9.5" fill="white"/>
<path d="M43.72 35.264C42.856 35.264 42.148 35.552 41.62 36.128C41.092 36.692 40.816 37.46 40.816 38.42H41.8C41.812 37.664 41.992 37.088 42.328 36.704C42.64 36.296 43.096 36.104 43.684 36.104C44.236 36.104 44.68 36.248 44.992 36.536C45.304 36.824 45.46 37.22 45.46 37.748C45.46 38.3 45.232 38.816 44.8 39.284C44.572 39.524 44.128 39.872 43.456 40.352C42.544 40.976 41.932 41.492 41.596 41.876C41.02 42.512 40.744 43.22 40.744 44H46.456V43.124H41.956C42.112 42.548 42.736 41.888 43.828 41.156C44.716 40.556 45.304 40.088 45.604 39.776C46.156 39.176 46.444 38.504 46.444 37.76C46.444 37.016 46.18 36.404 45.676 35.948C45.16 35.492 44.512 35.264 43.72 35.264ZM51.8033 35.432L47.4833 41.12V42.056H51.7913V44H52.7273V42.056H54.1193V41.252H52.7273V35.432H51.8033ZM51.7553 36.716H51.7913V41.252H48.3113L51.7553 36.716ZM55.1346 35.264V44H56.0946V40.46C56.0946 39.884 56.2506 39.392 56.5746 39.008C56.8866 38.624 57.2826 38.432 57.7626 38.432C58.2786 38.432 58.6746 38.588 58.9626 38.9C59.2266 39.212 59.3706 39.656 59.3706 40.232V44H60.3306V40.088C60.3306 39.296 60.1386 38.684 59.7546 38.264C59.3706 37.832 58.8066 37.628 58.0866 37.628C57.6666 37.628 57.2946 37.724 56.9586 37.916C56.5986 38.12 56.3106 38.42 56.0946 38.816V35.264H55.1346ZM64.5266 37.628C64.0946 37.628 63.7226 37.76 63.3986 38.024C63.1346 38.228 62.9186 38.516 62.7506 38.876V37.796H61.8026V44H62.7506V40.712C62.7506 40.136 62.9066 39.644 63.2426 39.236C63.5666 38.804 63.9746 38.6 64.4546 38.6C64.7546 38.6 65.0666 38.636 65.3786 38.732V37.772C65.1506 37.676 64.8626 37.628 64.5266 37.628ZM72.6655 35.432C72.1375 35.432 71.7295 35.576 71.4535 35.876C71.1895 36.164 71.0575 36.56 71.0575 37.088V37.796H69.4975V38.6H71.0575V44H72.0175V38.6H73.7695V37.796H72.0175V37.112C72.0175 36.812 72.0775 36.596 72.1975 36.464C72.3175 36.32 72.5215 36.26 72.7855 36.26H73.8535V35.432H72.6655ZM77.3821 37.628C76.9501 37.628 76.5781 37.76 76.2541 38.024C75.9901 38.228 75.7741 38.516 75.6061 38.876V37.796H74.6581V44H75.6061V40.712C75.6061 40.136 75.7621 39.644 76.0981 39.236C76.4221 38.804 76.8301 38.6 77.3101 38.6C77.6101 38.6 77.9221 38.636 78.2341 38.732V37.772C78.0061 37.676 77.7181 37.628 77.3821 37.628ZM81.5969 37.628C80.6969 37.628 79.9889 37.952 79.4609 38.6C78.9329 39.212 78.6809 39.98 78.6809 40.892C78.6809 41.9 78.9449 42.692 79.4969 43.292C80.0249 43.868 80.7449 44.168 81.6329 44.168C82.4369 44.168 83.0969 43.928 83.6129 43.472C84.0329 43.088 84.3089 42.608 84.4529 42.008H83.4929C83.3369 42.44 83.1329 42.764 82.8689 42.98C82.5569 43.232 82.1369 43.364 81.6329 43.364C81.0449 43.364 80.5769 43.172 80.2409 42.788C79.9049 42.404 79.7249 41.864 79.6769 41.168H84.5729C84.5489 40.088 84.3089 39.236 83.8529 38.636C83.3489 37.964 82.5929 37.628 81.5969 37.628ZM81.6209 38.432C82.7969 38.432 83.4569 39.092 83.5769 40.424H79.7009C79.7609 39.812 79.9529 39.332 80.2889 38.972C80.6249 38.612 81.0689 38.432 81.6209 38.432ZM88.2531 37.628C87.3531 37.628 86.6451 37.952 86.1171 38.6C85.5891 39.212 85.3371 39.98 85.3371 40.892C85.3371 41.9 85.6011 42.692 86.1531 43.292C86.6811 43.868 87.4011 44.168 88.2891 44.168C89.0931 44.168 89.7531 43.928 90.2691 43.472C90.6891 43.088 90.9651 42.608 91.1091 42.008H90.1491C89.9931 42.44 89.7891 42.764 89.5251 42.98C89.2131 43.232 88.7931 43.364 88.2891 43.364C87.7011 43.364 87.2331 43.172 86.8971 42.788C86.5611 42.404 86.3811 41.864 86.3331 41.168H91.2291C91.2051 40.088 90.9651 39.236 90.5091 38.636C90.0051 37.964 89.2491 37.628 88.2531 37.628ZM88.2771 38.432C89.4531 38.432 90.1131 39.092 90.2331 40.424H86.3571C86.4171 39.812 86.6091 39.332 86.9451 38.972C87.2811 38.612 87.7251 38.432 88.2771 38.432Z" fill="#C0A46B"/>
<rect x="32.5" y="30.5" width="67" height="19" rx="9.5" stroke="#C0A46B"/>
</svg>
