<svg width="375" height="308" viewBox="0 0 375 308" fill="none" xmlns="http://www.w3.org/2000/svg">
<path d="M187.003 89.5C90.7162 89.5 22.2149 122.959 0 140.902V308H375V140.902C352.454 122.959 283.289 89.5 187.003 89.5Z" fill="#0D6763"/>
<path d="M251.285 265.618C251.197 265.99 251.109 266.371 251.011 266.743L251.031 266.733C251.031 266.743 251.119 266.342 251.285 265.618Z" fill="black"/>
<path d="M196.696 157.074C196.696 157.074 198.32 159.823 194.524 160.851C190.729 161.878 186.289 161.046 185.418 157.074C184.548 153.102 186.504 149.541 188.675 145.99C190.847 142.429 193.967 137.244 197.048 138.437C200.119 139.621 196.696 157.074 196.696 157.074Z" fill="#EFEFEF"/>
<path d="M197.694 137.537C197.694 137.537 194.417 140.218 191.385 145.354C188.352 150.49 184.665 156.311 189.321 158.463C193.977 160.616 197.234 159.06 198.858 155.646C200.481 152.232 203.523 146.46 204.717 145.354C205.91 144.249 197.694 137.537 197.694 137.537Z" fill="#7D7D7D"/>
<path d="M258.562 134.72C252.058 130.816 247.402 130.992 247.402 130.992L241.122 131.159C239.733 130.004 238.971 129.192 238.971 129.192L204.061 130.992C204.061 130.992 189.34 142.537 197.791 152.779C204.247 160.606 210.497 157.446 215.74 155.763C217.041 155.685 218.782 155.92 222.959 157.172C230.236 159.354 237.2 157.837 246.199 157.837C251.031 157.837 263.433 157.064 264.412 150.882C265.39 144.699 265.067 138.623 258.562 134.72Z" fill="#95AACD"/>
<path d="M221.1 137.489C221.1 137.489 228.69 138.193 230.696 138.956C232.701 139.719 231.234 140.042 235.361 139.876C239.479 139.709 240.946 140.306 241.866 140.277C242.785 140.247 248.155 142.635 248.155 142.635C248.155 142.635 243.597 139.435 241.758 139.113C239.919 138.79 237.474 138.79 235.087 138.085C232.701 137.381 231.781 136.618 228.583 135.483C225.384 134.348 222.949 133.526 222.46 133.419C221.971 133.311 217.256 132.656 217.256 132.656L221.1 137.489Z" fill="#7B92B0"/>
<path d="M196.383 114.234C202.046 96.5265 205.587 91.6741 211.28 89.5609C216.972 87.4478 227.702 86.2542 241.523 90.6469C255.344 95.0395 255.677 108.54 255.843 117.482C256.009 126.424 253.466 131.638 244.252 132.773C235.038 133.908 212.815 128.547 206.301 127.568C200.197 126.659 193.967 121.787 196.383 114.234Z" fill="#5784C0"/>
<path d="M237.19 78.3301L235.4 88.9839C235.4 88.9839 229.043 96.9571 217.99 90.2851V81.177L237.19 78.3301Z" fill="#EDD1C3"/>
<path d="M214.723 66.9913C214.723 66.9913 213.285 63.802 211.828 65.2108C210.37 66.6196 210.39 71.1002 212.209 72.8318C214.019 74.5732 215.173 69.6328 214.723 66.9913Z" fill="#F8E7DD"/>
<path d="M214.821 72.7242C214.821 72.7242 214.684 72.4014 211.348 63.0193C209.803 58.6854 213.715 46.6424 217.452 49.411C221.531 52.434 221.394 52.0035 225.159 51.6905C231.664 51.1524 237.2 50.0665 243.617 59.879C245.857 63.3031 245.573 68.9675 242.267 73.1057C238.54 77.7723 236.515 78.9267 226.323 77.1951C216.131 75.4635 214.821 72.7242 214.821 72.7242Z" fill="#5A3522"/>
<path d="M223.937 89.4925C233.669 90.373 238.247 81.2551 238.902 73.0079C239.557 64.7608 235.645 63.2444 226.764 61.5128C217.872 59.7812 215.153 59.5562 215.153 59.5562C215.153 59.5562 202.252 87.5457 223.937 89.4925Z" fill="#F8E7DD"/>
<path d="M238.873 73.0665C238.873 73.0665 241.788 71.1392 242.267 73.1057C242.746 75.0721 240.34 78.8484 237.885 79.3571C235.42 79.856 237.083 75.0623 238.873 73.0665Z" fill="#F8E7DD"/>
<path d="M217.843 70.7381C217.618 71.3349 217.638 72.1665 218.469 71.8926C219.31 71.6284 219.692 70.474 219.251 69.9653C218.811 69.4663 218.215 69.75 217.843 70.7381Z" fill="#5A3522"/>
<path d="M228.338 73.3309C228.113 73.9276 228.133 74.7592 228.964 74.4853C229.796 74.2113 230.187 73.0667 229.747 72.558C229.307 72.0493 228.71 72.3428 228.338 73.3309Z" fill="#5A3522"/>
<path d="M218 68.1947C218.41 68.0284 220.318 67.9306 221.149 68.1654C221.98 68.4002 220.807 67.099 219.418 67.236C218.019 67.3631 218 68.1947 218 68.1947Z" fill="#5A3522"/>
<path d="M231.625 71.2373C231.312 70.9144 229.61 70.0633 228.759 69.9459C227.908 69.8187 229.502 69.1045 230.725 69.7894C231.938 70.4742 231.625 71.2373 231.625 71.2373Z" fill="#5A3522"/>
<path d="M222.235 73.0959C222.235 73.0959 218.89 77.3223 217.784 78.6723C216.689 80.0322 218.43 81.2257 220.347 81.4018C222.264 81.5681 222.156 82.2921 221.951 82.9084C221.951 82.9084 222.714 83.4856 222.567 82.0769C222.421 80.6681 221.687 81.1083 220.298 80.6779C218.909 80.2376 217.677 80.1985 218.557 78.7799C219.428 77.3712 222.254 73.3601 222.235 73.0959Z" fill="#C67454"/>
<path d="M219.613 83.5444C219.613 83.5444 223.956 85.4619 226.343 84.3858C226.343 84.3858 226.333 86.7533 222.812 86.2739C219.007 85.7456 219.613 83.5444 219.613 83.5444Z" fill="#E4969B"/>
<path d="M239.479 104.793V121.219C239.479 121.219 205.91 123.792 201.107 125.758C196.305 127.725 195.013 134.71 195.013 134.71C195.013 134.71 237.582 134.915 244.233 132.763C250.884 130.611 251.764 122.354 251.764 117.795C251.774 113.256 239.479 104.793 239.479 104.793Z" fill="#5783C0"/>
<path d="M239.479 121.229V107.885L236.633 117.316L201.107 125.759C201.117 125.759 229.796 120.896 239.479 121.229Z" fill="#336399"/>
<path d="M216.581 122.09L209.832 119.761L212.092 105.771L212.806 118.46L225.159 122.09H216.581Z" fill="#336399"/>
<path d="M222.968 180.652C222.968 180.652 219.183 185.7 225.159 187.324C231.136 188.948 234.344 188.243 238.051 183.557C241.758 178.871 239.332 161.301 238.97 159.354C238.609 157.397 236.261 154.687 230.93 159.354C225.599 164.02 222.968 180.652 222.968 180.652Z" fill="#EFEFEF"/>
<path d="M235.684 153.053C236.007 153.161 237.875 159.217 238.051 160.547C238.97 167.699 239.479 178.832 235.684 182.804C231.889 186.776 221.697 187.343 222.352 181.473C223.007 175.604 226.91 164.431 224.191 158.796C221.472 153.161 235.684 153.053 235.684 153.053Z" fill="#7D7D7D"/>
<path d="M237.034 154.139C238.423 152.799 238.384 150.569 236.956 149.267C234.735 147.252 231.625 144.229 230.754 142.507C229.365 139.739 225.189 139.249 222.401 136.647C219.613 134.045 207.416 117.521 202.213 114.312C197.009 111.103 190.661 112.248 188.714 118.91C186.758 125.582 187.091 128.674 191.316 133.389C195.542 138.105 205.626 144.454 208.228 148.025C210.83 151.596 210.654 152.095 213.432 153.885C216.2 155.675 216.464 155.861 217.716 157.886C218.968 159.911 221.844 162.514 223.497 161.535C224.876 160.714 232.427 158.581 237.034 154.139Z" fill="#BBCDEE"/>
<path d="M246.659 132.343C246.659 132.343 253.633 132.47 256.147 133.409L257.966 134.368C257.966 134.368 257.467 131.521 256.821 130.875C256.166 130.22 255.462 129.868 254.572 129.633C253.682 129.388 252.968 128.84 252.968 128.84C252.968 128.84 250.992 131.364 246.659 132.343Z" fill="#EDD1C3"/>
<path d="M92.7403 104.265C90.4026 111.23 91.5177 128.879 90.696 133.565C89.8744 138.251 86.5879 149.825 86.5879 149.825C86.5879 149.825 92.887 154.501 97.9635 150.334C97.9635 150.334 103.148 124.34 103.646 119.487C104.126 114.625 96.8974 91.8501 92.7403 104.265Z" fill="#834322"/>
<path d="M95.127 135.189C95.127 135.189 81.9125 144.327 72.8061 150.51C64.7757 155.959 64.9518 170.986 74.1266 172.6C81.668 173.931 90.8722 169.166 90.8722 169.166C90.8722 169.166 90.3049 180.358 105.505 180.358C114.787 180.358 141.999 162.484 141.999 162.484C141.999 162.484 147.525 152.574 140.043 150.334L138.077 150.559C138.077 150.559 137.216 144.973 132.012 138.614L95.127 135.189Z" fill="#373838"/>
<path d="M90.8525 169.166C90.8525 169.166 97.5233 156.702 106.463 151.693C115.404 146.685 112.86 142.644 112.86 142.644L92.4371 136.755L87.2334 140.59C87.2334 140.59 91.9871 148.749 94.1097 150.568C96.2322 152.388 88.104 169 82.1667 172.082C82.1667 172.072 88.7398 169.851 90.8525 169.166Z" fill="#1F2020"/>
<path d="M104.732 95.5775C104.732 95.5775 116.959 93.435 121.145 95.5775C125.332 97.72 135.23 95.7731 135.24 114.968C135.25 134.162 136.326 140.668 132.648 142.644C128.97 144.62 100.604 146.039 95.2443 140.59C89.8744 135.14 96.2225 135.189 97.6799 127.686C99.1373 120.182 81.0419 101.731 104.732 95.5775Z" fill="#A05623"/>
<path d="M104.732 90.872L105.211 97.6517C105.211 97.6517 108.302 101.986 113.799 101.232C119.297 100.479 121.488 97.1136 121.488 97.1136L122.074 89.8447L104.732 90.872Z" fill="#EDD1C3"/>
<path d="M99.4796 76.1092C98.8047 79.6898 99.1177 92.8775 108.674 96.7223C115.345 99.4126 126.212 94.2765 126.016 83.7205C125.83 73.1547 122.084 66.0033 114.279 63.8901C106.473 61.7769 101.103 67.4805 99.4796 76.1092Z" fill="#F8E7DD"/>
<path d="M107.285 66.0031C107.285 66.0031 110.435 69.4566 110.865 71.3936C111.951 76.3341 112.635 76.9407 118.025 75.62C120.294 75.0623 125.116 76.1091 125.116 76.1091C125.116 76.1091 127.493 86.7434 123.747 90.9403C120.001 95.1373 137.059 93.7579 136.727 90.9403C136.404 88.1228 132.658 83.9552 133.313 77.4201C133.968 70.8849 123.395 52.5024 109.408 57.7071C109.408 57.7071 99.9785 56.2396 95.4204 65.0248C90.8624 73.8101 91.8405 83.5541 87.7813 87.3793C83.722 91.2045 104.449 96.6243 103.5 92.848C102.003 86.9586 100.233 86.2346 100.213 78.4081C100.184 71.648 107.285 66.0031 107.285 66.0031Z" fill="#704A38"/>
<path d="M100.204 78.418C100.204 78.418 96.3008 75.6689 96.4671 80.1007C96.6334 84.5324 101.504 88.749 101.994 86.9684C102.473 85.1781 100.204 78.418 100.204 78.418Z" fill="#F8E7DD"/>
<path d="M119.991 78.8482C120.069 79.4841 119.854 80.2766 119.101 79.8265C118.348 79.3667 118.24 78.1634 118.798 77.7721C119.355 77.3808 119.864 77.8014 119.991 78.8482Z" fill="#5A3522"/>
<path d="M109.183 78.8972C109.261 79.5331 109.046 80.3255 108.293 79.8755C107.539 79.4157 107.432 78.2124 107.989 77.821C108.547 77.4297 109.056 77.8602 109.183 78.8972Z" fill="#5A3522"/>
<path d="M106.473 76.0994C106.855 75.8548 108.713 75.4341 109.564 75.5124C110.415 75.5907 109.036 74.5243 107.696 74.8961C106.356 75.2776 106.473 76.0994 106.473 76.0994Z" fill="#5A3522"/>
<path d="M115.795 78.4766C115.795 78.4766 117.233 82.8985 117.712 84.3269C118.191 85.7552 116.763 86.5085 115.433 86.3128C114.103 86.1074 114.024 86.7824 114.044 87.3694C114.044 87.3694 113.418 87.7412 113.79 86.5085C114.161 85.2758 114.572 85.8041 115.609 85.6672C116.636 85.5302 117.477 85.7161 117.164 84.278C116.851 82.8398 115.736 78.7114 115.795 78.4766Z" fill="#C67454"/>
<path d="M111.11 89.3458C111.11 89.3458 115.58 90.0013 117.125 89.0229C117.125 89.0229 116.392 91.3024 114.934 91.4589C113.467 91.6155 111.755 91.5372 111.11 89.3458Z" fill="#E4969B"/>
<path d="M141.5 108.824C138.253 97.8276 125.116 97.0156 125.116 97.0156C125.116 97.0156 127.18 108.53 126.701 113.843C126.359 117.668 122.456 132.333 120.304 140.247L103.744 145.579C103.744 145.579 103.382 153.278 106.424 155.685C106.424 155.685 129.772 153.415 132.619 146.235C134.399 141.754 135.132 139.142 135.436 137.801C139.133 128.586 143.476 115.516 141.5 108.824Z" fill="#A05623"/>
<path d="M103.744 147.223C103.744 147.223 103.93 152.104 105.231 154.218C105.231 154.218 99.2744 157.446 98.0909 158.855C96.9073 160.254 92.8481 165.82 92.2808 166.75C91.7135 167.679 92.0069 161.105 92.4373 157.769C92.8677 154.433 93.5132 150.588 96.9856 149.062C100.458 147.536 103.744 147.223 103.744 147.223Z" fill="#F8E7DD"/>
<path d="M99.5481 148.132C99.5481 148.132 100.487 153.053 103.891 154.971L105.231 154.218C105.231 154.218 104.263 153.053 103.744 147.223C103.744 147.223 101.201 147.555 99.5481 148.132Z" fill="#EDD1C3"/>
<path d="M108.156 144.16L120.304 140.247L126.466 115.447C126.466 115.447 119.091 135.943 118.455 137.351C117.81 138.76 103.47 143.583 103.47 143.583C103.47 143.583 107.168 144.131 108.156 144.16Z" fill="#834322"/>
<path d="M136.022 146.949C136.022 146.949 136.404 143.544 138.458 141.597C140.522 139.651 145.628 140.629 147.574 141.597C149.521 142.566 147.574 144.268 150.733 144.268C153.893 144.268 153.775 143.662 158.999 144.268C164.232 144.875 169.699 145.481 170.668 148.406C171.636 151.322 170.55 154.012 168.477 155.098C166.413 156.184 162.882 155.939 162.882 155.939L136.022 146.949Z" fill="#1F2020"/>
<path d="M132.012 152.056C132.012 152.056 134.34 144.151 138.468 144.268C142.596 144.386 150.861 147.917 155.849 148.162C160.838 148.406 160.838 147.839 164.114 149.091C167.401 150.353 168.125 151.664 166.912 154.286C165.699 156.908 162.901 156.654 158.402 156.595C153.903 156.546 136.394 159.823 135.054 160.43C133.714 161.036 132.012 152.056 132.012 152.056Z" fill="#583016"/>
<path d="M140.131 153.67C140.131 153.67 146.684 150.921 146.234 149.287C145.784 147.653 144.131 147.516 142.331 148.221C140.532 148.915 136.629 151.517 136.629 151.517L140.131 153.67Z" fill="#1F2020"/>
<path d="M133.743 151.41C133.743 151.41 102.404 156.693 100.252 157.769C98.1005 158.845 91.146 163.541 91.146 171.543C91.146 179.546 99.7339 182.843 111.599 178.969C123.454 175.095 141.999 162.484 141.999 162.484C141.999 162.484 148.816 152.065 133.743 151.41Z" fill="#4C4C4C"/>
<path d="M121.478 97.1038C121.478 97.1038 113.232 119.898 109.828 122.286C106.424 124.673 105.211 97.6516 105.211 97.6516C105.211 97.6516 108.322 101.389 111.98 101.32C115.638 101.242 119.414 99.5789 121.478 97.1038Z" fill="#373838"/>
<path d="M120.999 210.891H124.334L123.444 204.777L120.999 206.518V210.891Z" fill="#5A3522"/>
<path d="M232.28 210.647L226.069 209.023L232.574 202.38L234.628 204.777L232.28 210.647Z" fill="#5A3522"/>
<path d="M168.086 187.48C168.037 187.422 167.988 187.373 167.929 187.314C166.305 185.612 163.889 184.917 161.581 185.357L121.194 193.291L127.953 213.366L165.053 198.819C169.817 197.205 171.47 191.198 168.086 187.48Z" fill="#48291B"/>
<path d="M129.86 198.926L126.388 202.272L129.459 198.066C127.112 193.321 123.571 192.773 121.194 193.301C117.115 194.191 115.169 198.467 118.005 205.775C118.739 207.673 119.786 209.473 120.989 210.891L122.133 208.357L121.576 211.537C123.542 213.552 125.84 214.531 127.943 213.376C131.592 211.361 132.13 206.645 130.692 201.372C130.457 200.472 130.173 199.66 129.86 198.926Z" fill="#826339"/>
<path d="M185.203 187.236C185.252 187.177 185.301 187.128 185.359 187.069C186.983 185.367 189.399 184.672 191.707 185.113L232.094 193.047L225.335 213.122L188.235 198.574C183.472 196.96 181.809 190.953 185.203 187.236Z" fill="#48291B"/>
<path d="M223.418 198.682L226.891 202.028L223.819 197.821C226.167 193.076 229.708 192.528 232.084 193.057C236.163 193.947 238.11 198.222 235.273 205.53C234.54 207.428 233.493 209.228 232.29 210.647L231.145 208.113L231.703 211.292C229.737 213.308 227.438 214.286 225.335 213.132C221.687 211.116 221.149 206.401 222.587 201.128C222.831 200.218 223.115 199.406 223.418 198.682Z" fill="#826339"/>
<path d="M160.71 220.528L167.273 196.696C168.31 192.998 171.313 190.17 175.069 189.398C176.585 189.085 178.277 188.938 180.058 189.114C183.999 189.515 187.325 192.235 188.626 195.972L197.811 222.347L160.71 220.528Z" fill="#5A3522"/>
<path d="M197.341 227.699L196.637 221.486L165.073 227.307L166.217 235.496L167.714 236.503L197.341 227.699Z" fill="#5A3522"/>
<path d="M187.873 226.417L197.732 225.331C197.791 224.725 197.82 224.118 197.82 223.521C197.82 216.34 189.399 210.529 179.021 210.529C168.643 210.529 160.221 216.35 160.221 223.521C160.221 227.689 162.07 232.336 166.227 235.496L169.249 232.483L167.714 236.503C170.57 238.216 174.296 239.292 179.011 239.292C191.062 239.292 195.923 233.657 197.341 227.699L187.873 226.417Z" fill="#826339"/>
<path d="M155.145 202.722C155.145 202.722 156.514 195.052 153.091 191.765C149.667 188.478 148.415 187.95 148.415 187.95C148.415 187.95 144.053 184.095 147.476 171.221C150.9 158.346 145.54 151.224 145.54 151.224C145.54 151.224 151.584 151.224 153.228 156.976C154.871 162.729 160.211 167.386 160.211 167.386C160.211 167.386 155.145 155.607 159.116 148.759C163.087 141.91 168.565 129.447 163.498 125.475C163.498 125.475 171.577 124.105 172.536 132.323C173.494 140.541 183.413 150.95 183.413 150.95C183.413 150.95 181.163 140.198 187.462 136.95C187.462 136.95 185.545 142.321 188.831 145.471C192.118 148.622 197.459 157.524 196.363 166.016C195.268 174.508 198.828 179.028 198.828 179.028C198.828 179.028 198.554 166.29 204.169 162.181C209.783 158.072 204.169 153.689 204.169 153.689C204.169 153.689 211.563 154.971 211.974 164.05C212.385 173.128 219.202 180.681 209.91 188.684L196.099 186.277C196.099 186.277 185.565 189.799 189.389 198.105C189.389 198.105 184.733 188.742 177.749 189.153C170.765 189.564 166.618 199.044 166.618 199.044C166.618 199.044 167.068 193.125 163.782 194.221C160.485 195.326 155.145 202.722 155.145 202.722Z" fill="#EB8C3E"/>
<path d="M188.753 169.421C187.658 162.436 182.454 164.03 182.454 164.03C185.056 165.762 185.604 172.708 180.175 171.612C174.747 170.516 174.659 167.64 172.331 159.148C170.003 150.657 163.43 152.437 163.43 152.437C163.43 152.437 167.264 154.081 166.031 165.175C164.799 176.269 168.907 174.077 169.181 179.693C169.455 185.308 166.442 185.035 163.293 184.076C160.143 183.117 160.006 177.091 160.006 177.091C158.598 186.277 160.593 191.804 162.041 195.209C162.657 194.749 163.263 194.387 163.801 194.201C167.088 193.106 166.638 199.024 166.638 199.024C166.638 199.024 170.785 189.545 177.769 189.134C184.753 188.723 189.409 198.085 189.409 198.085C186.69 192.176 191.228 188.693 194.074 187.177C194.241 185.739 194.397 184.066 194.515 182.158C194.916 175.31 189.849 176.406 188.753 169.421Z" fill="#E7C25B"/>
<path d="M180.312 230.007C179.579 230.007 178.747 229.734 177.652 229.225C174.903 227.943 174.717 227.483 174.531 224.509C174.443 223.13 175.715 221.594 177.564 220.841C179.549 220.029 181.496 220.42 182.748 221.878C185.447 225.008 184.547 226.828 183.452 228.061C182.268 229.401 181.408 230.007 180.312 230.007ZM174.737 224.49C174.913 227.366 175.04 227.777 177.74 229.039C180.4 230.281 181.388 230.086 183.305 227.924C183.97 227.17 185.526 225.409 182.601 222.015C181.408 220.625 179.549 220.254 177.652 221.036C175.871 221.751 174.659 223.208 174.737 224.49Z" fill="#5A3522"/>
<path d="M179.931 227.356C179.559 227.356 179.129 227.219 178.581 226.965C177.182 226.309 177.084 226.084 176.996 224.558C176.947 223.844 177.603 223.052 178.542 222.67C179.559 222.259 180.547 222.455 181.192 223.198C182.572 224.793 182.102 225.722 181.544 226.358C180.948 227.043 180.498 227.356 179.931 227.356ZM177.202 224.539C177.29 225.967 177.348 226.153 178.669 226.769C179.97 227.376 180.459 227.278 181.388 226.221C181.926 225.615 182.298 224.803 181.036 223.335C180.449 222.66 179.549 222.484 178.62 222.856C177.769 223.208 177.162 223.932 177.202 224.539Z" fill="#5A3522"/>
<path d="M181.28 233.52C180.165 233.52 178.952 233.216 177.642 232.6C175.128 231.426 173.719 230.467 172.79 229.293C171.773 228.002 171.264 226.407 171.108 223.932C170.99 221.985 172.35 220.019 174.658 218.806C177.202 217.466 181.124 216.976 184.518 219.628C187.511 221.966 188.998 224.284 187.208 228.628C186.23 230.996 184.89 232.522 183.227 233.167C182.62 233.402 181.975 233.52 181.28 233.52ZM179.05 217.925C177.446 217.925 175.95 218.366 174.756 218.992C172.516 220.175 171.196 222.064 171.313 223.922C171.616 228.736 173.25 230.33 177.73 232.414C179.794 233.383 181.623 233.569 183.158 232.972C184.763 232.346 186.063 230.859 187.022 228.55C188.763 224.333 187.315 222.073 184.401 219.794C182.669 218.444 180.801 217.925 179.05 217.925Z" fill="#5A3522"/>
<path d="M181.672 235.271C179.94 235.271 178.023 234.762 175.891 233.764L175.324 233.5C169.367 230.731 167.763 229.978 167.352 223.335C167.156 220.195 170.081 216.663 174.306 214.941C178.874 213.083 183.325 213.963 186.21 217.319C192.773 224.94 191.228 227.532 190.093 229.43L190.064 229.489C187.736 233.373 185.036 235.271 181.672 235.271ZM167.557 223.326C167.968 229.851 169.543 230.585 175.412 233.324L175.979 233.588C182.141 236.464 186.425 235.163 189.878 229.381L189.907 229.323C191.003 227.483 192.509 224.969 186.044 217.456C183.227 214.178 178.864 213.308 174.375 215.137C170.237 216.82 167.362 220.263 167.557 223.326Z" fill="#5A3522"/>
<path d="M181.329 236.288C179.001 236.288 176.517 235.77 174.023 234.713C166.286 231.407 165.278 230.692 164.76 223.13C164.545 219.921 167.596 216.282 172.203 214.257C174.795 213.122 177.515 212.652 180.058 212.907C182.953 213.19 185.506 214.433 187.462 216.487C191.57 220.831 195.013 225.175 191.981 230.555C189.878 234.283 185.926 236.288 181.329 236.288ZM178.727 213.044C176.439 213.044 174.189 213.601 172.282 214.443C167.763 216.429 164.75 219.99 164.965 223.111C165.474 230.555 166.471 231.26 174.101 234.518C181.417 237.648 188.695 235.975 191.795 230.458C194.759 225.194 191.365 220.909 187.306 216.624C184.841 214.022 181.75 213.044 178.727 213.044Z" fill="#5A3522"/>
<path d="M179.882 238.01C177.524 238.01 175.167 237.579 172.937 236.719C164.378 233.412 162.735 230.232 162.138 222.337C161.914 219.314 164.74 215.959 169.357 213.787C172.35 212.378 175.686 211.684 178.767 211.83C182.317 212.006 185.447 213.288 187.805 215.548C189.966 217.632 191.688 219.089 193.067 220.254C195.199 222.063 196.373 223.052 196.666 224.274C196.96 225.478 196.432 226.818 195.062 229.557C193.37 232.933 190.054 235.662 185.956 237.032C183.99 237.677 181.936 238.01 179.882 238.01ZM177.749 211.987C175.236 211.987 172.428 212.554 169.445 213.973C164.907 216.115 162.119 219.393 162.344 222.318C162.931 230.115 164.554 233.265 173.015 236.533C177.143 238.127 181.721 238.235 185.897 236.836C189.937 235.486 193.214 232.796 194.876 229.469C197.478 224.274 197.136 223.981 192.93 220.41C191.551 219.236 189.829 217.778 187.658 215.695C185.545 213.67 182.073 211.987 177.749 211.987Z" fill="#5A3522"/>
<path d="M123.698 206.313C123.581 206.313 123.453 206.274 123.326 206.205C122.123 205.55 121.174 203.221 121.321 201.891C121.409 201.118 121.722 200.12 122.329 199.866C122.524 199.787 122.827 199.748 123.199 200.042C124.119 200.766 124.363 201.118 124.441 202.722C124.51 204.376 124.529 205.892 123.962 206.244C123.884 206.293 123.796 206.313 123.698 206.313ZM122.612 200.012C122.544 200.012 122.475 200.022 122.407 200.052C121.986 200.228 121.624 200.991 121.527 201.91C121.39 203.153 122.299 205.403 123.424 206.019C123.6 206.117 123.737 206.127 123.855 206.058C124.373 205.736 124.285 203.847 124.236 202.722C124.168 201.196 123.952 200.883 123.082 200.198C122.916 200.081 122.759 200.012 122.612 200.012Z" fill="#5A3522"/>
<path d="M123.982 208.201C123.815 208.201 123.639 208.152 123.444 208.054C121.605 207.115 120.167 203.779 120.392 201.891C120.519 200.815 120.979 199.416 121.869 199.034C122.289 198.858 122.73 198.927 123.18 199.259C124.588 200.286 124.95 200.795 125.058 203.084C125.146 204.855 125.273 207.526 124.373 208.103C124.255 208.162 124.128 208.201 123.982 208.201ZM122.309 199.132C122.182 199.132 122.064 199.161 121.947 199.21C121.194 199.543 120.724 200.805 120.597 201.91C120.382 203.71 121.8 206.978 123.532 207.868C123.835 208.025 124.07 208.035 124.265 207.917C125.058 207.408 124.93 204.699 124.852 203.084C124.745 200.873 124.422 200.414 123.052 199.416C122.798 199.23 122.554 199.132 122.309 199.132Z" fill="#5A3522"/>
<path d="M125.332 209.913C124.422 209.913 121.184 208.387 120.128 204.806C119.052 201.157 120.167 199.259 120.92 198.437C121.507 197.811 122.29 197.518 123.033 197.645C123.63 197.752 124.481 198.193 125.107 199.66C125.332 200.198 125.556 200.678 125.762 201.137C126.544 202.83 127.112 204.053 127.004 206.205C126.887 208.612 126.329 209.864 125.371 209.903C125.361 209.913 125.351 209.913 125.332 209.913ZM122.691 197.831C122.113 197.831 121.536 198.095 121.077 198.584C120.353 199.367 119.277 201.206 120.333 204.747C121.36 208.24 124.569 209.707 125.341 209.707C125.351 209.707 125.361 209.707 125.371 209.707C126.212 209.668 126.701 208.494 126.808 206.205C126.916 204.102 126.359 202.898 125.586 201.235C125.371 200.775 125.155 200.296 124.921 199.758C124.334 198.369 123.551 197.958 123.004 197.86C122.896 197.841 122.788 197.831 122.691 197.831Z" fill="#5A3522"/>
<path d="M125.821 210.793C125.292 210.793 124.715 210.666 124.128 210.412C122.964 209.903 120.793 208.465 119.277 204.513C118.064 201.323 118.318 199.103 120.187 196.843C120.47 196.5 121.086 196.285 121.879 196.236C122.779 196.197 124.089 196.393 124.823 197.107C127.131 199.367 128.305 203.466 128.51 205.52C128.774 208.201 128.579 209.884 126.769 210.617C126.486 210.735 126.163 210.793 125.821 210.793ZM122.143 196.432C122.055 196.432 121.976 196.432 121.898 196.442C121.174 196.481 120.588 196.676 120.353 196.97C118.543 199.161 118.289 201.323 119.482 204.434C120.959 208.318 123.082 209.727 124.216 210.216C125.136 210.617 126.045 210.696 126.701 210.432C128.403 209.747 128.579 208.181 128.315 205.55C128.109 203.525 126.945 199.484 124.686 197.254C124.06 196.647 122.974 196.432 122.143 196.432Z" fill="#5A3522"/>
<path d="M125.938 212.408C125.488 212.408 125.028 212.339 124.559 212.212C122.309 211.566 120.275 209.433 119.13 206.528C116.607 200.13 117.487 197.655 119.854 195.551C121.253 194.309 122.867 194.279 124.52 195.473C126.006 196.549 128.638 198.731 129.508 201.274C129.723 201.9 130.428 204.141 130.467 206.508C130.506 208.905 129.87 210.598 128.569 211.556C127.787 212.124 126.887 212.408 125.938 212.408ZM122.143 194.798C121.39 194.798 120.676 195.101 119.991 195.708C116.949 198.408 117.438 201.695 119.326 206.45C120.451 209.306 122.436 211.38 124.627 212.016C126.006 212.408 127.356 212.192 128.452 211.39C131.161 209.394 130.281 204.131 129.322 201.343C128.471 198.858 125.879 196.706 124.412 195.649C123.62 195.072 122.867 194.798 122.143 194.798Z" fill="#5A3522"/>
<path d="M229.629 205.706C229.747 205.706 229.874 205.667 230.001 205.598C231.204 204.943 232.153 202.615 232.006 201.284C231.918 200.511 231.605 199.513 230.999 199.259C230.803 199.181 230.5 199.142 230.128 199.435C229.209 200.159 228.964 200.511 228.886 202.116C228.818 203.769 228.798 205.285 229.365 205.638C229.453 205.677 229.541 205.706 229.629 205.706ZM230.725 199.406C230.793 199.406 230.862 199.416 230.93 199.445C231.351 199.621 231.713 200.384 231.811 201.304C231.948 202.546 231.038 204.796 229.913 205.413C229.737 205.51 229.6 205.52 229.483 205.452C228.964 205.129 229.052 203.241 229.101 202.116C229.17 200.589 229.385 200.276 230.255 199.592C230.422 199.464 230.578 199.406 230.725 199.406Z" fill="#5A3522"/>
<path d="M229.355 207.594C229.522 207.594 229.698 207.546 229.893 207.448C231.732 206.509 233.17 203.173 232.945 201.284C232.818 200.208 232.358 198.809 231.468 198.428C231.048 198.252 230.607 198.32 230.157 198.653C228.749 199.68 228.387 200.189 228.279 202.478C228.191 204.249 228.064 206.919 228.964 207.497C229.081 207.555 229.209 207.594 229.355 207.594ZM231.018 198.526C231.145 198.526 231.263 198.555 231.38 198.604C232.133 198.936 232.603 200.198 232.73 201.304C232.945 203.104 231.527 206.372 229.796 207.262C229.492 207.418 229.258 207.428 229.062 207.311C228.27 206.802 228.397 204.092 228.475 202.478C228.583 200.267 228.905 199.807 230.275 198.809C230.539 198.623 230.783 198.526 231.018 198.526Z" fill="#5A3522"/>
<path d="M228.006 209.306C228.915 209.306 232.153 207.78 233.209 204.2C234.285 200.551 233.17 198.653 232.417 197.831C231.83 197.205 231.048 196.911 230.304 197.038C229.708 197.146 228.857 197.586 228.231 199.054C228.006 199.592 227.781 200.071 227.575 200.531C226.793 202.223 226.226 203.446 226.333 205.599C226.451 208.005 227.008 209.258 227.967 209.297C227.976 209.306 227.986 209.306 228.006 209.306ZM230.647 197.224C231.224 197.224 231.801 197.488 232.261 197.978C232.984 198.76 234.06 200.599 233.004 204.141C231.977 207.634 228.769 209.101 227.996 209.101C227.986 209.101 227.976 209.101 227.967 209.101C227.125 209.062 226.636 207.888 226.529 205.599C226.421 203.495 226.979 202.292 227.751 200.629C227.967 200.169 228.182 199.69 228.417 199.152C229.003 197.762 229.786 197.351 230.334 197.254C230.441 197.224 230.539 197.224 230.647 197.224Z" fill="#5A3522"/>
<path d="M227.517 210.177C228.045 210.177 228.622 210.05 229.209 209.796C230.373 209.287 232.544 207.849 234.06 203.896C235.273 200.707 235.019 198.486 233.151 196.227C232.867 195.884 232.251 195.669 231.458 195.62C230.559 195.581 229.248 195.777 228.514 196.491C226.206 198.751 225.032 202.85 224.827 204.904C224.563 207.585 224.758 209.267 226.568 210.001C226.851 210.128 227.174 210.177 227.517 210.177ZM231.194 195.825C231.282 195.825 231.361 195.825 231.439 195.835C232.163 195.874 232.75 196.07 232.984 196.363C234.794 198.555 235.048 200.717 233.855 203.828C232.378 207.712 230.255 209.121 229.121 209.61C228.201 210.011 227.292 210.089 226.636 209.825C224.934 209.14 224.758 207.575 225.022 204.943C225.228 202.918 226.392 198.878 228.651 196.647C229.277 196.031 230.363 195.825 231.194 195.825Z" fill="#5A3522"/>
<path d="M227.399 211.801C227.849 211.801 228.309 211.733 228.778 211.605C231.028 210.96 233.063 208.827 234.207 205.921C236.731 199.523 235.85 197.048 233.483 194.945C232.085 193.702 230.471 193.673 228.818 194.867C227.331 195.943 224.7 198.124 223.829 200.668C223.614 201.294 222.91 203.534 222.871 205.902C222.831 208.299 223.467 209.991 224.768 210.95C225.551 211.508 226.451 211.801 227.399 211.801ZM231.194 194.182C231.948 194.182 232.662 194.485 233.346 195.092C236.388 197.792 235.899 201.079 234.011 205.833C232.887 208.69 230.901 210.764 228.71 211.4C227.331 211.791 225.981 211.576 224.886 210.774C222.176 208.778 223.056 203.515 224.015 200.727C224.866 198.242 227.458 196.089 228.925 195.033C229.717 194.465 230.471 194.182 231.194 194.182Z" fill="#5A3522"/>
<path d="M64.9226 159.53C64.9226 159.53 66.0866 154.491 67.5049 151.253C68.9232 148.015 71.1044 144.953 71.8184 143.456C72.5325 141.959 73.9605 143.456 72.7966 146.46C71.6326 149.463 71.2316 150.06 71.8184 150.422C72.4053 150.784 75.4375 145.921 76.6015 144.425C77.7654 142.928 78.5969 142.39 79.9565 140.648C81.3063 138.907 82.3431 138.124 82.0888 139.748C81.8345 141.372 80.9248 142.81 79.9565 144.131C78.9881 145.452 77.6383 146.714 78.2839 147.007C78.9294 147.301 81.1889 144.972 81.6388 144.19C82.0888 143.407 83.8983 140.531 84.7982 139.386C85.6981 138.242 86.4708 138.007 86.4121 139.328C86.3436 140.648 85.6394 141.304 84.9253 142.752C84.2113 144.2 82.0203 147.076 81.5019 148.035C80.9835 148.993 83.8201 147.614 84.8569 146.714C85.8937 145.814 87.175 143.71 88.0162 142.752C88.8574 141.793 90.2757 141.314 89.4345 143.407C88.5933 145.511 87.0479 147.066 86.148 147.966C85.2481 148.866 83.6929 149.649 83.0473 150.666C82.4018 151.684 83.8201 150.911 84.9156 150.304C86.0111 149.698 87.2337 148.025 88.0749 147.78C88.9161 147.536 89.6301 147.722 88.3977 149.522C87.1652 151.322 84.6221 152.457 83.7027 153.181C82.7832 153.904 82.5289 154.824 81.365 155.802C80.201 156.781 78.9783 157.084 77.2959 159.06C75.6233 161.036 73.3639 161.936 71.4957 163.052C69.6274 164.167 63.4946 171.064 63.4946 171.064C63.4946 171.064 57.9486 167.708 58.1442 165.722C58.1442 165.703 64.4238 161.477 64.9226 159.53Z" fill="#F8E7DD"/>
<path d="M31.7836 160.616C31.7836 160.616 24.7215 168.785 24.0662 173.588C23.4108 178.392 30.9033 184.467 42.6604 176.875C54.4175 169.284 36.684 158.503 31.7836 160.616Z" fill="#6FABB0"/>
<path d="M77.012 240.407C77.012 240.407 75.0949 240.368 73.1875 239.673C71.2802 238.979 66.458 236.758 66.458 236.758C66.458 236.758 75.6524 226.476 79.829 226.789C84.0056 227.102 83.0764 230.32 83.0764 230.32L77.012 240.407Z" fill="#939292"/>
<path d="M76.6992 238.04L76.5231 240.172C76.5035 240.446 76.8165 240.593 77.0122 240.407C78.4402 238.959 82.2647 234.929 83.8786 231.837C85.8838 228.002 83.3406 225.429 81.9321 225.077" fill="#B7B7B7"/>
<path d="M60.7849 235.202C60.7849 235.202 60.0024 238.685 60.0807 240.515C60.1589 242.344 61.8218 244.271 65.9201 244.575C69.7739 244.849 72.2877 244.653 74.6352 242.745C74.9287 242.501 75.1145 242.139 75.1439 241.757L75.6231 236.963L60.7849 235.202Z" fill="#B7B7B7"/>
<path d="M88.466 202.458L79.6335 224.48C79.6335 224.48 87.3607 225.312 83.4873 231.015C74.8113 243.812 69.7837 242.716 64.0519 241.581C60.9415 240.965 60.5307 236.983 60.4524 235.535C60.335 233.578 61.9979 233.588 63.3477 229.665C65.6952 222.827 70.7423 203.935 70.7423 203.935L88.466 202.458Z" fill="#7A5237"/>
<path d="M79.6236 224.48C79.6236 224.48 77.6673 228.843 79.6236 229.587C81.5798 230.33 83.9176 226.574 83.9176 226.574C83.9176 226.574 83.3307 225.008 79.6236 224.48Z" fill="#64422A"/>
<path d="M79.6237 209.522C79.6237 209.522 65.0985 230.771 62.9075 236.034C61.8414 238.597 62.9075 240.965 62.9075 240.965C62.9075 240.965 60.6578 240.006 60.3155 236.288C59.9927 232.786 65.8908 224.891 67.6612 218.16C69.4218 211.439 74.3712 209.61 74.3712 209.61C74.3712 209.61 77.6186 209.532 79.6237 209.522Z" fill="#64422A"/>
<path d="M106.18 176.641C106.18 176.641 109.652 169.929 110.083 165.576C110.513 161.222 112.049 158.131 112.939 156.791C113.829 155.45 114.651 154.472 115.012 153.865C115.374 153.259 116.519 153.66 116.313 155.695C116.108 157.73 115.218 157.769 115.012 159.559C114.807 161.35 114.357 162.524 115.052 162.083C115.746 161.633 117.771 160.009 119.072 158.825C120.373 157.642 121.918 153.728 122.857 152.359C123.796 150.989 124.119 148.945 126.593 148.416C129.078 147.888 127.122 149.835 125.987 151.429C124.852 153.014 124.481 155.499 123.708 157.045C122.935 158.591 122.935 158.591 122.935 158.591C122.935 158.591 125.048 155.744 126.192 154.854C127.337 153.963 129.156 151.312 131.034 150.422C132.902 149.532 132.942 149.287 133.959 149.404C134.976 149.522 135.954 150.422 133.959 151.557C131.963 152.691 130.545 154.159 129.645 155.382C128.755 156.605 128.511 156.888 128.511 156.888C128.511 156.888 132.619 154.452 134.321 154.364C136.032 154.286 136.433 154.286 135.983 155.499C135.534 156.722 133.255 157.123 131.914 157.779C130.574 158.434 130.574 158.434 130.574 158.434C130.574 158.434 128.824 160.626 127.894 162.093C126.955 163.561 125.742 166.28 123.424 167.992C121.106 169.704 117.321 173.686 116.392 174.704C115.453 175.721 111.922 181.904 111.922 181.904C111.922 181.904 106.777 179.047 106.18 176.641Z" fill="#F8E7DD"/>
<path d="M130.046 159.109C130.046 159.109 133.352 154.658 133.303 154.169C133.264 153.68 130.946 153.171 129.156 156.703C127.611 159.755 127.083 160.088 127.083 160.088L130.046 159.109Z" fill="#F8E7DD"/>
<path d="M116.959 173.803C116.959 173.803 114.005 168.051 109.77 167.376C109.77 167.376 109.065 170.771 108.733 171.416L115.345 176.191C115.355 176.191 116.079 175.271 116.959 173.803Z" fill="#EDD1C3"/>
<path d="M42.3474 197.772C42.3474 197.772 68.6688 168.922 80.0347 174.244C91.4005 179.566 92.007 197.244 87.4489 205.158C82.8908 213.063 66.7126 210.666 65.8029 207.203C64.8933 203.73 42.3474 197.772 42.3474 197.772Z" fill="#F8E7DD"/>
<path d="M77.7946 193.751C75.1439 200.873 69.4023 204.816 65.4702 206.772C65.568 206.919 65.6561 207.056 65.6854 207.193C66.2527 209.345 72.7279 211.087 78.6358 210.196C79.7411 203.094 77.7946 193.751 77.7946 193.751Z" fill="#EDD1C3"/>
<path d="M22.7457 203.809C22.7457 203.809 12.7981 216.527 17.0627 230.175C21.3274 243.822 41.2225 247.188 51.8058 244.39C62.3892 241.592 72.9334 222.514 75.9656 212.409C79.0076 202.312 79.2423 195.748 79.2423 195.748C79.2423 195.748 61.2937 187.833 53.3121 186.102C45.3306 184.37 28.1156 196.521 22.7457 203.809Z" fill="#FAFAFA"/>
<path opacity="0.48" d="M79.1943 195.698C78.8129 195.532 77.0913 194.779 74.6656 193.761C74.6167 194.064 74.5678 194.377 74.5091 194.71C73.6972 193.976 72.8756 193.311 72.0638 192.675C70.9291 192.206 69.7163 191.716 68.4545 191.217L68.3567 191.178C66.9579 190.621 65.5201 190.073 64.0822 189.525L63.8866 189.447C61.9108 188.703 59.9448 188.009 58.1255 187.422C57.8125 188.42 57.431 189.652 57.0104 191.081C55.3867 191.129 53.0098 191.09 50.3298 190.846C51.0536 189.065 51.7578 187.412 52.4327 185.944C50.7895 185.807 48.8332 186.14 46.7107 186.835C46.2803 187.872 45.8206 188.987 45.3609 190.171C43.9719 189.907 42.6026 189.574 41.2821 189.163C37.5946 191.061 33.7994 193.595 30.5129 196.217C30.4151 196.461 30.3271 196.706 30.2292 196.96C30.1021 196.892 29.9847 196.823 29.8576 196.745C28.2828 198.036 26.8449 199.328 25.6027 200.58C26.5026 201.128 27.4709 201.685 28.4882 202.243C27.8133 204.571 27.2166 207.027 26.7667 209.58C25.0843 208.7 23.5389 207.8 22.1793 206.939C23.3041 204.474 24.517 202.321 25.5636 200.619C24.4583 201.734 23.5095 202.81 22.7857 203.799C22.7857 203.799 12.8381 216.517 17.1028 230.164C21.3674 243.812 41.2625 247.177 51.8459 244.379C52.3447 244.242 52.8533 244.066 53.3522 243.86C53.6065 243.714 53.8706 243.577 54.1249 243.43C54.1836 243.43 54.2423 243.43 54.301 243.44C58.1744 241.532 61.9695 237.697 65.3049 233.177C66.5178 230.555 67.1438 226.945 66.9971 223.375C67.8774 222.621 68.7577 221.751 69.5989 220.772C69.8825 220.449 70.1466 220.107 70.4107 219.765C70.6161 221.565 70.7726 223.032 70.9096 224.265C72.4257 221.438 73.7168 218.649 74.7047 216.135C74.5384 215.215 74.3428 214.315 74.1081 213.464C75.3307 210.803 76.2991 207.966 77.0718 205.266C77.2772 205.569 77.463 205.873 77.6587 206.186C78.2944 203.388 78.6955 201.05 78.9302 199.318C78.8226 199.191 78.715 199.044 78.6074 198.917C78.852 197.723 79.0378 196.657 79.1943 195.698ZM61.6565 192.421C61.9304 192.558 62.2336 192.724 62.5368 192.89C62.0086 194.221 61.3924 195.776 60.7762 197.293C60.6099 197.224 60.4436 197.136 60.2871 197.068C60.7762 195.375 61.2457 193.8 61.6565 192.421ZM58.9177 202.478L57.6559 206.91C58.0179 205.423 58.4091 203.916 58.8004 202.429C58.8395 202.439 58.8786 202.458 58.9177 202.478ZM55.8953 215.186C55.9834 214.668 56.0812 214.13 56.179 213.572C59.0645 214.854 60.9425 217.172 61.7836 220.489C59.8274 221.516 58.1352 221.614 57.0984 220.958C55.3476 219.843 55.6704 216.546 55.8953 215.186ZM48.2757 196.295C51.1318 196.628 53.6652 196.716 55.3671 196.735C55.0248 197.968 54.6727 199.24 54.3205 200.531C51.7676 201.617 49.0973 202.028 46.4173 201.959C47.0041 200.022 47.6301 198.124 48.2757 196.295ZM44.9403 207.526C45.6054 207.575 46.2705 207.604 46.9357 207.604C48.8626 207.604 50.7993 207.379 52.7066 206.9C52.1784 209.15 51.7089 211.332 51.3666 213.318C48.8528 214.237 46.2412 214.599 43.6296 214.54C43.9328 212.241 44.3828 209.884 44.9403 207.526ZM53.0098 224.196C50.408 226.789 47.679 228.618 44.8327 229.685C43.6687 226.975 43.1992 223.717 43.2286 220.176C43.5318 220.185 43.8252 220.195 44.1284 220.195C46.4564 220.195 48.7941 219.911 51.1025 219.256C51.347 221.222 51.9926 222.895 53.0098 224.196ZM36.9881 193.487C38.8563 194.309 41.0082 194.984 43.4144 195.502C42.7688 197.371 42.1428 199.337 41.5657 201.372C39.1791 200.864 36.8512 200.061 34.6699 199.132C35.4231 197.048 36.2252 195.15 36.9881 193.487ZM32.9191 204.405C35.1884 205.383 37.6337 206.225 40.1572 206.802C39.6193 209.189 39.1791 211.615 38.8857 214.022C36.2545 213.513 33.6918 212.691 31.2856 211.703C31.6867 209.179 32.254 206.724 32.9191 204.405ZM20.1741 212.104C21.8956 213.181 23.8714 214.315 26.0331 215.392C25.7494 219.158 25.8375 223.042 26.5026 226.906C23.3921 225.008 20.6534 222.69 18.4819 220.586C18.658 217.661 19.2938 214.795 20.1741 212.104ZM28.0872 239.918C26.3167 239.194 24.6539 238.333 23.1378 237.423C21.7293 235.242 20.3599 232.326 19.2449 228.442C19.2351 228.403 19.2253 228.354 19.2155 228.315C21.8271 230.438 24.8789 232.483 28.2241 233.999C29.0359 236.65 29.926 238.94 30.8553 240.906C29.9456 240.612 29.0164 240.299 28.0872 239.918ZM31.5008 227.572C30.7477 224.226 30.5325 220.802 30.6792 217.436C33.1539 218.395 35.7752 219.187 38.4846 219.667C38.4162 223.6 38.8466 227.376 40.0105 230.741C39.4432 230.78 38.8759 230.8 38.3086 230.79C36.1371 230.732 34.0146 230.272 31.9899 229.558C31.8236 228.912 31.6573 228.266 31.5008 227.572ZM37.2131 242.1C36.1469 240.544 35.0514 238.519 34.0146 235.917C35.3742 236.2 36.7534 236.376 38.1716 236.416C38.3771 236.425 38.5825 236.425 38.7879 236.425C40.1181 236.425 41.419 236.298 42.7102 236.054C44.0306 238 45.4685 239.556 47.0433 240.74C43.8448 241.874 40.5583 242.315 37.2131 242.1ZM60.5219 231.504C58.145 233.989 55.7095 236.034 53.2152 237.658C51.2688 237.267 49.4788 236.171 47.8747 234.39C51.2786 232.815 54.5162 230.321 57.5581 226.926C57.9396 226.985 58.3309 227.024 58.7221 227.024C59.8274 227.024 60.9914 226.769 62.1749 226.329C61.9108 228.873 61.1381 230.859 60.5219 231.504ZM66.2733 216.761C66.1363 216.928 65.9896 217.074 65.8527 217.231C64.5615 213.562 62.2532 210.735 59.1231 208.964C60.0426 207.692 61.099 206.127 62.2042 204.327C64.5713 205.99 67.2025 208.68 68.8653 212.936C68.0926 214.345 67.2318 215.646 66.2733 216.761ZM71.4378 207.037C69.55 203.799 67.1829 201.392 64.8354 199.67C65.5201 198.349 66.1852 196.941 66.8112 195.483C68.8849 196.882 71.1541 198.643 73.2766 200.756C72.7876 202.762 72.1811 204.914 71.4378 207.037Z" fill="#8DC7D0"/>
<path opacity="0.5" d="M52.8526 231.641C49.6052 230.037 47.512 226.309 47.512 222.132C47.512 211.84 53.3906 192.939 55.4446 186.639C55.1219 186.551 54.8088 186.463 54.5056 186.385C52.3733 192.9 46.5632 211.596 46.5632 222.132C46.5632 226.769 48.8912 230.908 52.4907 232.678C53.8209 233.334 55.249 233.657 56.7651 233.657C60.2472 233.657 64.1891 231.954 68.307 228.687C68.8841 227.757 69.4416 226.828 69.9698 225.889C63.5142 231.808 57.4596 233.911 52.8526 231.641Z" fill="#727272"/>
<path opacity="0.5" d="M35.7841 226.76C32.7128 213.415 38.6794 196.481 41.8485 188.87C41.3986 189.095 40.9486 189.32 40.4987 189.564C39.5108 192.02 38.337 195.18 37.2611 198.751C34.9625 206.421 32.6737 217.554 34.8647 227.053C37.085 236.68 41.3594 242.207 44.9296 245.289C45.4578 245.279 45.986 245.25 46.4946 245.22C42.9244 242.481 38.1512 237.052 35.7841 226.76Z" fill="#727272"/>
<path opacity="0.5" d="M26.9124 199.279C26.3353 199.817 25.7974 200.345 25.2887 200.864C23.0293 207.34 20.672 218.18 23.5868 230.947C24.5062 234.958 25.3377 238.196 26.0908 240.838C26.4821 241.063 26.8831 241.278 27.2841 241.493C26.4723 238.754 25.5431 235.222 24.5062 230.653C21.3371 216.742 24.5649 205.168 26.9124 199.279Z" fill="#727272"/>
<path opacity="0.5" d="M55.5422 216.702L55.8846 217.749C56.0117 217.69 68.1992 211.977 71.9063 192.646C71.6129 192.528 71.3097 192.401 70.9967 192.274C67.4363 211.087 55.6694 216.644 55.5422 216.702Z" fill="#727272"/>
<path d="M81.5898 149.453C81.5898 149.453 88.603 149.678 89.8061 161.027C90.7353 169.782 93.8751 183.841 93.8751 183.841C93.8751 183.841 103.793 173.598 107.207 169.685C107.207 169.685 114.523 172.531 116.969 176.885C116.969 176.885 102.815 197.987 96.966 201.891C91.1168 205.794 84.798 209.365 81.355 200.1C79.6238 195.444 77.0121 188.683 75.6036 184.516C71.8281 188.566 71.4759 196.187 70.9771 199.924C70.4783 203.661 63.3673 213.425 55.6988 215.215C48.0302 217.006 24.2715 212.789 21.5034 201.891C28.008 192.841 28.008 193.37 30.4435 185.993C33.818 175.779 31.9107 145.501 35.6471 142.566C39.3836 139.631 48.8127 136.715 81.5898 149.453Z" fill="#8DC7D0"/>
<path d="M65.0889 146.733C65.0889 146.733 75.8972 150.422 81.5899 149.443C81.5899 149.443 78.5283 146.812 71.8771 143.466H63.1326C63.1326 143.466 59.5722 145.589 65.0889 146.733Z" fill="#EDD1C3"/>
<path d="M72.9039 135.189L71.8671 143.466C71.8671 143.466 65.9983 147.183 58.1342 143.466C50.27 139.748 59.1025 131.707 59.1025 131.707L72.9039 135.189Z" fill="#EDD1C3"/>
<path d="M61.636 94.9123C61.636 94.9123 70.5761 93.435 74.4886 98.4734C78.4011 103.512 74.8505 113.148 74.8505 113.148L60.2275 104.842L61.636 94.9123Z" fill="#533B2E"/>
<path d="M76.3177 112.903C76.3177 112.903 80.6899 115.418 82.4799 117.746C83.7319 119.37 80.5432 119.869 80.7095 122.227C80.8464 124.213 80.6116 123.763 81.4333 129.251C81.7756 131.521 80.5725 133.761 78.4989 134.749C73.1681 137.283 67.6221 137.185 63.8563 135.561C59.2982 133.605 47.2868 107.161 62.1348 101.741C68.7861 99.3049 76.3177 112.903 76.3177 112.903Z" fill="#F8E7DD"/>
<path d="M63.0934 94.9123C63.0934 94.9123 70.4098 102.719 67.4852 108.08C64.5606 113.442 56.3052 112.023 58.3299 116.288C60.3546 120.554 64.4236 121.982 61.1665 126.473C57.9093 130.963 65.392 129.77 65.5582 133.536C65.7245 137.303 58.7309 141.646 63.1227 143.466C67.5145 145.276 63.6118 154.717 60.8437 157.153C58.0756 159.589 60.5991 160.89 60.8437 165.067C61.3327 173.304 41.78 174.782 34.131 171.377C26.4821 167.973 24.2519 164.372 28.4774 153.151C32.7029 141.93 27.3428 143.446 28.6437 138.79C29.9446 134.133 33.0355 134.749 32.7127 128.009C32.3899 121.278 29.4164 123.225 32.9866 117.697C36.5665 112.17 34.6005 109.968 35.1189 106.809C37.4077 92.9654 53.8305 87.3597 63.0934 94.9123Z" fill="#533B2E"/>
<path d="M73.9213 113.51C74.1365 114.283 74.0191 115.31 73.0117 114.889C71.9944 114.469 71.6423 112.982 72.2487 112.404C72.8552 111.818 73.5692 112.238 73.9213 113.51Z" fill="#5A3522"/>
<path d="M69.6175 112.903C69.9012 112.414 71.7303 110.878 72.728 110.477C73.7257 110.076 71.5738 109.675 70.2924 110.869C69.0111 112.062 69.6175 112.903 69.6175 112.903Z" fill="#5A3522"/>
<path d="M79.3889 125.162C79.3889 125.162 77.1686 126.913 75.3786 126.825C73.5886 126.737 77.3251 130.024 79.115 128.253C80.9148 126.492 79.3889 125.162 79.3889 125.162Z" fill="#E4969B"/>
<path d="M273.058 146.655C273.058 146.655 278.174 153.415 286.058 141.578C293.941 129.74 298.196 117.081 298.196 117.081C298.196 117.081 285.882 117.893 273.058 146.655Z" fill="#E4CDE3"/>
<path d="M323.696 179.116C323.696 179.116 327.481 173.745 332.46 175.31C337.439 176.885 339.933 179.458 341.234 182.364C342.535 185.259 347.993 182.354 351.543 185.152C355.104 187.94 353.323 191.071 350.242 192.411C347.161 193.751 344.55 192.411 340.872 192.411C337.194 192.411 327.951 191.961 327.951 191.961C327.951 191.961 321.691 184.027 323.696 179.116Z" fill="#C7A0C9"/>
<path d="M324.703 181.141C324.703 181.141 327.99 176.181 332.323 177.629C336.656 179.077 338.818 181.464 339.952 184.134C341.087 186.805 345.831 184.125 348.922 186.707C352.013 189.28 350.467 192.166 347.787 193.409C345.107 194.642 342.838 193.409 339.649 193.409C336.451 193.409 328.41 192.998 328.41 192.998C328.41 192.998 322.962 185.68 324.703 181.141Z" fill="#F4F4F4"/>
<path d="M327.462 176.738C321.984 165.586 283.299 167.523 283.299 167.523C283.299 167.523 256 164.597 249.926 174.743C246.101 181.141 244.047 187.431 253.173 192.597C262.299 197.762 279.416 189.593 279.416 189.593C279.416 189.593 307.126 201.03 315.93 198.887C324.733 196.745 332.949 187.891 327.462 176.738Z" fill="#C7A0C9"/>
<path d="M270.026 175.017C263.844 179.39 254.845 191.941 261.653 199.846C268.461 207.751 283.299 210.353 304.221 208.123C325.134 205.882 335.424 196.804 335.424 196.804C335.424 196.804 339.835 183.342 332.646 182.951C325.456 182.559 291.418 184.037 291.418 184.037L270.026 175.017Z" fill="#C7A0C9"/>
<path d="M259.276 194.26C259.276 194.26 257.663 187.265 261.526 182.246C265.39 177.227 278.996 176.406 278.996 176.406C278.996 176.406 266.779 175.017 261.066 179.213C255.344 183.41 254.621 188.664 255.833 193.692L259.276 194.26Z" fill="#B184B5"/>
<path d="M329.232 183.469C329.232 183.469 329.985 194.769 314.541 198.751C299.096 202.732 291.525 198.888 291.525 198.888C291.525 198.888 283.319 199.122 294.87 200.668C306.422 202.214 315.196 201.744 325.975 195.356C336.754 188.967 335.795 184.712 335.795 184.712C335.795 184.712 336.03 181.679 329.232 183.469Z" fill="#B184B5"/>
<path d="M278.203 168.902C278.203 168.902 278.868 174.596 283.798 174.899C288.728 175.212 288.64 175.662 290.342 176.396C292.053 177.14 294.861 178.069 294.861 178.069C294.861 178.069 291.613 180.789 293.98 184.565C296.347 188.341 298.372 189.672 297.726 189.897C297.081 190.122 290.459 183.792 289.011 182.902C287.564 182.011 284.473 179.311 284.395 180.974C284.316 182.638 284.483 183.636 287.378 184.878C287.378 184.878 277.685 186.512 277.176 187.666C276.667 188.821 280.208 189.212 281.333 189.055C281.333 189.055 276.736 192.225 277.127 193.311C277.518 194.397 281.206 193.311 281.206 193.311C281.206 193.311 279.592 194.651 281.206 195.14C282.82 195.63 285.431 193.849 285.431 193.849C285.431 193.849 283.465 196.089 286.713 196.246C289.96 196.402 291.163 194.368 292.073 194.26C292.983 194.152 298.89 194.847 300.338 193.614C301.786 192.382 303.771 192.157 305.679 191.961C307.586 191.765 313.435 188.596 315.92 186.345C318.404 184.105 317.485 185.22 317.485 185.22C317.485 185.22 322.894 183.557 325.329 181.395C327.765 179.233 328.058 178 327.755 177.365C327.452 176.729 326.268 175.017 326.268 175.017L278.203 168.902Z" fill="#B184B5"/>
<path d="M301.845 187.832C301.845 187.832 299.908 191.706 298.049 192.381C296.191 193.056 291.271 192.646 290.361 192.978C289.452 193.321 286.928 195.59 284.874 195.052C282.82 194.514 284.483 193.389 285.608 192.822C286.732 192.254 288.992 190.953 288.992 190.953C288.992 190.953 288.767 190.483 288.141 190.748C287.515 191.012 286.048 191.188 285.285 191.481C284.522 191.765 282.81 192.959 282.81 192.959C282.81 192.959 281.998 194.24 280.815 194.328C279.631 194.416 278.917 194.064 280.971 192.117C283.025 190.17 283.994 189.593 284.933 189.153L281.881 190.239C281.881 190.239 279.387 192.646 277.959 192.694C276.521 192.743 277.147 191.54 279.426 189.603C281.705 187.656 281.979 187.392 281.979 187.392L285.617 186.6C285.617 186.6 283.974 186.375 283.446 186.6C282.918 186.825 281.079 187.128 280.423 187.353C279.768 187.578 278.585 188.233 278.34 187.304C278.096 186.375 279.24 185.758 281.274 185.181C283.309 184.604 284.581 184.672 286.077 184.594C287.574 184.516 287.632 184.428 288.757 184.966C288.757 184.966 287.016 183.371 286.419 183.107C285.823 182.843 284.581 182.09 284.424 180.984C284.268 179.879 284.297 179.438 286.478 180.7C288.659 181.962 288.914 181.473 290.215 182.442C291.515 183.41 294.45 184.917 295.673 184.076C296.885 183.234 297.296 182.618 297.296 182.618L301.845 187.832Z" fill="#F8E7DD"/>
<path d="M301.845 187.813L297.277 182.598C297.277 182.598 296.876 183.215 295.653 184.056C294.675 184.731 292.601 183.9 291.144 183.039C290.938 184.203 290.899 185.905 291.789 187.51C292.777 189.3 293.247 191.403 295.516 192.734C296.514 192.685 297.433 192.577 298.04 192.362C299.908 191.687 301.845 187.813 301.845 187.813Z" fill="#EDD1C3"/>
<path d="M326.004 80.8148C326.004 80.8148 333.233 77.4298 337.947 82.0964C342.378 86.489 341.635 93.2492 340.158 100.9C338.681 108.54 335.179 110.194 338.544 115.868C341.909 121.542 338.319 127.969 335.424 130.542C335.424 130.542 340.207 124.183 337.204 120.143C334.201 116.093 333.017 112.052 333.418 108.247C333.418 108.247 329.78 113.324 332.783 119.282C335.785 125.25 338.387 128.194 334.22 134.857C334.22 134.857 336.822 131.188 333.115 126.776C329.418 122.364 327.97 116.67 328.273 114.342C328.273 114.342 324.244 121.845 332.137 122.902C332.137 122.902 325.417 123.459 325.916 119.282C326.405 115.105 327.696 107.317 328.831 103.081C328.831 103.081 323.451 107.562 328.185 110.917C328.185 110.917 322.258 110.722 326.307 102.7C330.357 94.6775 330.592 95.0982 331.785 90.9697C332.812 87.4184 331.58 85.589 329.017 86.264C326.444 86.9488 322.796 82.7616 326.004 80.8148Z" fill="#644132"/>
<path d="M321.847 115.447C321.847 115.447 334.494 119.546 334.211 134.857C333.927 150.167 320.321 171.739 316.438 175.193C312.565 178.646 289.461 178.793 286.165 169.724C286.165 169.724 290.841 146.831 290.43 140.56C290.019 134.289 290.518 121.62 300.984 117.13C311.45 112.639 321.847 115.447 321.847 115.447Z" fill="#F4F4F4"/>
<path d="M321.055 122.344C317.7 132.861 304.212 153.318 300.28 161.32C296.347 169.323 292.474 170.321 301.972 179.213C311.46 188.097 322.796 182.08 326.102 179.213C329.408 176.347 324.038 171.279 329.398 160.929C334.759 150.578 336.705 139.191 335.424 130.542C334.142 121.894 326.523 116.601 321.857 115.447C321.847 115.447 322.248 118.607 321.055 122.344Z" fill="#F0DFED"/>
<path d="M305.679 115.564C305.679 115.564 294.753 113.432 289.403 128.909C284.052 144.385 280.335 159.363 278.066 164.764C275.797 170.164 284.043 175.29 286.517 172.209C288.992 169.127 289.403 159.813 290.43 151.791C291.457 143.769 294.548 132.45 297.854 125.944C301.15 119.439 305.679 115.564 305.679 115.564Z" fill="#F0DFED"/>
<path d="M324.273 116.543C324.273 116.543 327.824 125.396 321.906 136.442C315.988 147.487 301.962 179.213 301.962 179.213L300.133 177.423C300.133 177.423 313.973 148.895 318.179 140.56C322.385 132.225 325.633 125.993 322.503 115.633C322.503 115.633 323.432 115.809 324.273 116.543Z" fill="#C7A0C9"/>
<path d="M301.404 115.829C301.404 115.829 296.533 119.546 292.053 132C287.574 144.454 282.996 172.933 282.996 172.933L282.184 172.639C282.184 172.639 284.708 156.575 288.112 142.272C291.515 127.969 296.162 120.348 299.908 116.279L301.404 115.829Z" fill="#C7A0C9"/>
<path d="M301.962 174.899C301.962 174.899 297.981 168.442 297.776 167.327C297.56 166.212 298.167 166.163 298.94 167.327C299.712 168.491 302.96 173.138 302.96 173.138L301.962 174.899Z" fill="#C7A0C9"/>
<path d="M283.309 167.513C283.309 167.513 285.637 168.99 286.175 169.714C286.713 170.438 286.263 170.682 285.275 170.135C284.287 169.587 283.123 169.137 283.123 169.137L283.309 167.513Z" fill="#C7A0C9"/>
<path d="M283.984 163.658C283.984 163.658 286.312 165.135 286.85 165.859C287.388 166.583 286.938 166.828 285.95 166.28C284.962 165.732 283.798 165.282 283.798 165.282L283.984 163.658Z" fill="#C7A0C9"/>
<path d="M284.942 159.804C284.942 159.804 287.27 161.281 287.808 162.005C288.346 162.729 287.896 162.973 286.908 162.426C285.921 161.878 284.757 161.428 284.757 161.428L284.942 159.804Z" fill="#C7A0C9"/>
<path d="M285.617 155.343C285.617 155.343 287.945 156.82 288.483 157.544C289.021 158.268 288.571 158.513 287.583 157.965C286.596 157.417 285.432 156.967 285.432 156.967L285.617 155.343Z" fill="#C7A0C9"/>
<path d="M286.234 151.204C286.234 151.204 288.562 152.682 289.1 153.406C289.638 154.13 289.188 154.374 288.2 153.826C287.212 153.278 286.048 152.828 286.048 152.828L286.234 151.204Z" fill="#C7A0C9"/>
<path d="M287.251 148.201C287.251 148.201 289.579 149.678 290.117 150.402C290.655 151.126 290.205 151.371 289.217 150.823C288.229 150.275 287.065 149.825 287.065 149.825L287.251 148.201Z" fill="#C7A0C9"/>
<path d="M287.564 145.198C287.564 145.198 289.892 146.675 290.43 147.399C290.968 148.123 290.518 148.367 289.53 147.819C288.542 147.272 287.378 146.821 287.378 146.821L287.564 145.198Z" fill="#C7A0C9"/>
<path d="M288.317 142.057C288.317 142.057 290.068 143.534 290.508 144.2C290.948 144.865 290.655 145.031 289.931 144.474C289.197 143.916 288.356 143.417 288.356 143.417L288.317 142.057Z" fill="#C7A0C9"/>
<path d="M289.148 138.829C289.148 138.829 290.899 140.306 291.339 140.971C291.78 141.636 291.486 141.803 290.762 141.245C290.029 140.687 289.188 140.188 289.188 140.188L289.148 138.829Z" fill="#C7A0C9"/>
<path d="M290.019 135.952C290.019 135.952 291.77 137.43 292.21 138.095C292.65 138.76 292.357 138.926 291.633 138.369C290.899 137.811 290.058 137.312 290.058 137.312L290.019 135.952Z" fill="#C7A0C9"/>
<path d="M291.222 133.076C291.222 133.076 292.973 134.553 293.413 135.219C293.853 135.884 293.56 136.05 292.836 135.493C292.102 134.935 291.261 134.436 291.261 134.436L291.222 133.076Z" fill="#C7A0C9"/>
<path d="M292.415 130.063C292.415 130.063 293.794 131.305 294.235 131.971C294.675 132.636 294.381 132.802 293.658 132.245C292.924 131.687 292.083 131.188 292.083 131.188L292.415 130.063Z" fill="#C7A0C9"/>
<path d="M293.834 126.864C293.834 126.864 295.213 128.106 295.653 128.772C296.093 129.437 295.8 129.603 295.076 129.046C294.342 128.488 293.501 127.989 293.501 127.989L293.834 126.864Z" fill="#C7A0C9"/>
<path d="M295.213 123.968C295.213 123.968 296.592 125.211 297.032 125.876C297.472 126.541 297.179 126.708 296.455 126.15C295.722 125.592 294.88 125.093 294.88 125.093L295.213 123.968Z" fill="#C7A0C9"/>
<path d="M296.739 121.082C296.739 121.082 298.118 122.324 298.558 122.99C298.998 123.655 298.705 123.821 297.981 123.264C297.247 122.706 296.406 122.207 296.406 122.207L296.739 121.082Z" fill="#C7A0C9"/>
<path d="M298.529 118.274C298.529 118.274 299.908 119.517 300.348 120.182C300.788 120.847 300.495 121.014 299.771 120.456C299.037 119.898 298.196 119.399 298.196 119.399L298.529 118.274Z" fill="#C7A0C9"/>
<path d="M300.211 116.044C300.211 116.044 301.59 117.286 302.03 117.952C302.47 118.617 302.177 118.783 301.453 118.226C300.72 117.668 299.878 117.169 299.878 117.169L300.211 116.044Z" fill="#C7A0C9"/>
<path d="M303.233 115.516C303.233 115.516 303.351 115.525 303.791 116.191C304.231 116.856 303.938 117.022 303.214 116.465C302.49 115.907 302.011 115.643 302.011 115.643L303.233 115.516Z" fill="#C7A0C9"/>
<path d="M305.679 167.943C305.679 167.943 301.033 163.844 300.984 162.837C300.935 161.829 301.375 162.377 302.47 163.228C303.566 164.079 306.07 166.623 306.07 166.623L305.679 167.943Z" fill="#C7A0C9"/>
<path d="M308.281 163.384C308.281 163.384 304.251 159.5 304.212 158.542C304.172 157.593 304.544 158.101 305.503 158.904C306.451 159.706 308.623 162.122 308.623 162.122L308.281 163.384Z" fill="#C7A0C9"/>
<path d="M310.579 158.023C310.579 158.023 306.549 154.139 306.51 153.181C306.471 152.232 306.843 152.74 307.801 153.543C308.75 154.345 310.921 156.761 310.921 156.761L310.579 158.023Z" fill="#C7A0C9"/>
<path d="M312.584 153.298C312.584 153.298 309.249 150.549 309.092 149.766C308.936 148.984 309.269 149.365 310.041 149.923C310.814 150.48 312.653 152.222 312.653 152.222L312.584 153.298Z" fill="#C7A0C9"/>
<path d="M314.541 149.287C314.541 149.287 311.01 146.802 310.794 146.029C310.579 145.266 310.941 145.618 311.753 146.117C312.565 146.616 314.531 148.211 314.531 148.211L314.541 149.287Z" fill="#C7A0C9"/>
<path d="M316.438 145.706C316.438 145.706 312.907 143.221 312.692 142.448C312.477 141.676 312.839 142.038 313.65 142.536C314.462 143.035 316.428 144.63 316.428 144.63L316.438 145.706Z" fill="#C7A0C9"/>
<path d="M318.346 142.008C318.346 142.008 314.815 139.523 314.599 138.75C314.384 137.987 314.746 138.34 315.558 138.838C316.37 139.337 318.336 140.932 318.336 140.932L318.346 142.008Z" fill="#C7A0C9"/>
<path d="M320.253 138.613C320.253 138.613 316.722 136.129 316.507 135.356C316.291 134.593 316.653 134.945 317.465 135.444C318.277 135.943 320.243 137.537 320.243 137.537L320.253 138.613Z" fill="#C7A0C9"/>
<path d="M322.503 134.651C322.503 134.651 318.532 132.949 318.17 132.235C317.808 131.521 318.228 131.804 319.128 132.118C320.028 132.431 322.278 133.595 322.278 133.595L322.503 134.651Z" fill="#C7A0C9"/>
<path d="M324.322 130.67C324.322 130.67 320.155 129.525 319.695 128.87C319.236 128.214 319.695 128.429 320.625 128.625C321.554 128.821 323.95 129.662 323.95 129.662L324.322 130.67Z" fill="#C7A0C9"/>
<path d="M324.459 127.725C324.459 127.725 321.084 126.688 320.624 126.042C320.165 125.397 320.625 125.602 321.554 125.798C322.483 125.993 324.087 126.717 324.087 126.717L324.459 127.725Z" fill="#C7A0C9"/>
<path d="M324.645 124.203C324.645 124.203 322.248 123.724 321.779 123.078C321.309 122.432 321.779 122.638 322.708 122.833C323.637 123.029 324.273 123.195 324.273 123.195L324.645 124.203Z" fill="#C7A0C9"/>
<path d="M324.958 121.464C324.958 121.464 322.561 120.984 322.092 120.339C321.622 119.693 322.092 119.898 323.021 120.094C323.95 120.29 324.586 120.456 324.586 120.456L324.958 121.464Z" fill="#C7A0C9"/>
<path d="M324.821 118.705C324.821 118.705 322.424 118.225 321.955 117.58C321.485 116.934 321.955 117.14 322.884 117.335C323.813 117.531 324.449 117.697 324.449 117.697L324.821 118.705Z" fill="#C7A0C9"/>
<path d="M305.953 113.51L305.649 118.049C305.649 118.049 303.361 125.886 304.525 128.116C304.525 128.116 310.491 128.488 316.8 123.587C318.659 122.149 320.361 120.789 321.857 115.437L323.305 103.14L305.953 113.51Z" fill="#EDD1C3"/>
<path d="M299.722 90.6369C296.866 96.0078 292.425 110.428 301.972 114.86C311.509 119.292 323.539 110.937 324.791 96.3796C326.024 81.8125 306.158 78.545 299.722 90.6369Z" fill="#F8E7DD"/>
<path d="M310.501 85.7553C310.501 85.7553 307.518 82.2333 302.265 87.9663C297.013 93.6992 296.494 101.741 291.408 103.874C291.408 103.874 295.927 97.1428 296.162 91.6936C296.396 86.2444 303.928 77.919 309.308 79.2788C309.308 79.2788 311.362 74.9449 322.327 78.9266C333.106 82.8399 332.587 94.2079 331.511 98.4538C330.318 103.169 325.897 114.762 321.857 113.686L323.305 103.883C323.305 103.883 325.339 97.8961 324.527 93.8753C323.716 89.8446 320.321 82.4975 310.501 85.7553Z" fill="#704A38"/>
<path d="M322.816 100.919C323.041 100.586 324.831 97.2504 326.699 98.0135C328.567 98.7668 328.46 103.003 326.699 104.598C324.938 106.182 321.084 110.487 320.488 108.305L322.816 100.919Z" fill="#F8E7DD"/>
<path d="M299.429 96.3111C299.213 96.8785 299.233 97.6612 300.025 97.4166C300.817 97.172 301.189 96.0665 300.769 95.5872C300.348 95.1078 299.79 95.3719 299.429 96.3111Z" fill="#5A3522"/>
<path d="M307.195 98.3463C306.98 98.9137 306.999 99.6964 307.792 99.4518C308.584 99.2072 308.956 98.1017 308.535 97.6223C308.114 97.143 307.557 97.4071 307.195 98.3463Z" fill="#5A3522"/>
<path d="M299.575 93.8948C299.869 93.7089 301.199 93.5622 301.776 93.7676C302.343 93.9731 301.561 92.6915 300.593 92.8774C299.624 93.0633 299.575 93.8948 299.575 93.8948Z" fill="#5A3522"/>
<path d="M310.335 96.3602C310.11 96.0374 308.77 95.2743 308.066 95.2254C307.361 95.1765 308.77 94.2373 309.719 94.8634C310.667 95.4895 310.335 96.3602 310.335 96.3602Z" fill="#5A3522"/>
<path d="M302.48 97.6318C302.48 97.6318 300.407 101.428 299.732 102.651C299.057 103.873 300.045 104.881 301.16 104.979C302.275 105.077 302.197 105.713 302.06 106.261C302.06 106.261 302.49 106.74 302.441 105.517C302.392 104.284 301.952 104.695 301.15 104.343C300.348 103.991 299.634 103.991 300.182 102.729C300.72 101.457 302.48 97.8568 302.48 97.6318Z" fill="#C67454"/>
<path d="M299.311 108.384C299.311 108.384 303.908 110.702 305.532 107.376C305.532 107.376 305.61 109 304.603 109.577C303.605 110.154 301.708 109.89 299.311 108.384Z" fill="#E4969B"/>
<path d="M325.271 100.352C325.271 100.352 326.562 101.956 325.114 103.864C323.667 105.781 322.845 106.554 322.845 106.554C322.845 106.554 325.779 104.549 326.405 103.15C327.022 101.76 327.501 99.1581 325.271 100.352Z" fill="#C67454"/>
<path d="M308.887 79.1908C308.887 79.1908 310.892 79.8071 311.147 80.8931C311.147 80.8931 316.35 79.6017 318.981 81.2061C321.613 82.8008 321.554 85.4324 321.554 85.4324C321.554 85.4324 324.351 89.4044 325.017 92.5937C325.682 95.7928 325.779 97.9548 325.779 97.9548C325.779 97.9548 326.562 97.7592 327.159 98.3266C327.159 98.3266 327.325 95.9395 327.433 94.609C327.834 89.3848 324.537 84.0334 320.067 81.4116C314.609 78.2027 312.223 78.6234 309.768 78.6234L308.887 79.1908Z" fill="#C7A0C9"/>
<path d="M320.351 88.2695C320.351 88.2695 322.914 93.9143 322.855 98.6689C322.796 103.424 320.771 105.537 320.899 107.033C320.899 107.033 322.141 103.619 322.679 102.807C323.217 101.995 324.899 97.8961 324.899 97.8961C324.899 97.8961 325.476 93.7089 324.293 91.2827C323.109 88.8564 320.762 86.2639 320.762 86.2639" fill="#704A38"/>
<path d="M310.501 85.7553C310.501 85.7553 315.949 83.7302 317.387 86.8705C318.825 90.0109 315.94 93.1709 316.771 99.6375C317.593 106.094 323.158 111.925 317.182 114.293C311.205 116.66 308.418 115.173 308.418 115.173C308.418 115.173 309.865 117.081 314.169 116.406C318.473 115.741 321.613 113.98 321.309 109.499C321.006 105.018 318.062 101.359 319.04 97.9059C320.018 94.4525 322.542 91.6936 321.769 88.2793C320.996 84.8552 317.681 81.03 310.501 85.7553Z" fill="#704A38"/>
<path d="M282.957 149.326C282.957 149.326 281.881 148.573 281.265 151.116C280.649 153.66 277.186 162.103 278.507 163.658C279.827 165.214 282.595 159.647 282.967 157.172C283.319 154.697 286.195 149.835 282.957 149.326Z" fill="#F1E8F0"/>
<path d="M281.265 151.116C281.265 151.116 283.055 150.95 284.277 152.662C284.277 152.662 285.079 150.911 284.766 149.659C284.453 148.406 280.746 147.751 281.265 151.116Z" fill="#C7A0C9"/>
<path d="M315.167 162.523C315.167 162.523 312.467 173.255 314.541 175.418C316.614 177.58 320.986 175.525 323.129 175.418C325.271 175.31 326.053 174.84 327.051 173.686C328.058 172.532 328.538 164.852 327.471 163.384C326.405 161.917 315.167 162.523 315.167 162.523Z" fill="#F1E8F0"/>
<path d="M315.167 160.704L328.547 162.719L327.912 164.372C327.912 164.372 313.973 163.326 313.748 162.719C313.523 162.122 313.386 160.43 315.167 160.704Z" fill="#C7A0C9"/>
<path d="M330.768 121.082C330.768 121.082 340.363 129.877 337.576 146.821C334.798 163.766 311.822 189.906 307.078 190.288C302.334 190.669 292.23 188.948 293.491 183.469C294.753 177.99 312.721 169.293 319.51 157.945C326.298 146.596 330.768 121.082 330.768 121.082Z" fill="#F0DFED"/>
<path d="M317.612 160.704C317.612 160.704 323.324 151.752 325.965 141.587L315.157 160.704L317.358 161.036L317.612 160.704Z" fill="#E4CDE3"/>
<path d="M314.247 162.925L305.043 172.434C305.043 172.434 313.465 165.615 315.538 163.159L314.247 162.925Z" fill="#E4CDE3"/>
<path d="M328.068 167.757C328.068 167.757 318.932 180.945 315.411 183.743C315.411 183.743 317.279 183.449 317.964 183.264L324.517 175.251C324.517 175.251 323.647 175.506 323.393 175.457L328.009 169.147L328.068 167.757Z" fill="#E4CDE3"/>
<path d="M331.042 179.213C331.042 179.957 332.44 179.341 334.221 180.475C335.991 181.61 336.764 182.579 336.764 182.579C336.764 182.579 337.175 180.534 333.908 179.213C330.631 177.893 331.042 179.213 331.042 179.213Z" fill="#C7A0C9"/>
<path d="M336.744 188.361C336.744 188.361 347.523 189.006 345.156 193.966C345.156 193.966 338.485 193.242 336.275 193.399C336.275 193.389 336.862 190.572 336.744 188.361Z" fill="#DFC2DC"/>
<path d="M343.601 194.318C343.562 194.318 343.532 194.319 343.493 194.309C343.317 194.27 343.18 194.133 343.141 193.947L342.437 190.493L340.774 193.82C340.686 193.996 340.49 194.103 340.285 194.074C340.089 194.045 339.933 193.888 339.894 193.683L339.346 190.122L338.065 193.546C337.986 193.751 337.781 193.878 337.556 193.839C337.341 193.81 337.175 193.624 337.165 193.399L336.901 188.204C336.891 187.95 337.087 187.725 337.341 187.715C337.625 187.676 337.82 187.901 337.83 188.155L337.986 191.119L339.111 188.116C339.19 187.92 339.375 187.793 339.591 187.813C339.806 187.832 339.972 187.999 340.001 188.204L340.588 192.078L342.202 188.86C342.29 188.683 342.476 188.576 342.681 188.605C342.877 188.635 343.034 188.781 343.073 188.977L343.845 192.743L345.195 190.963C345.352 190.757 345.645 190.718 345.851 190.875C346.056 191.031 346.095 191.325 345.939 191.53L343.963 194.123C343.885 194.25 343.748 194.318 343.601 194.318Z" fill="#F4F4F4"/>
<path opacity="0.42" d="M302.94 125.23C304.251 123.87 305.376 120.407 306.197 119.028C307.019 117.648 308.75 114.449 307.987 113.148C306.931 111.358 305.014 115.819 305.327 114.576C306.745 113.177 307.087 112.815 307.987 111.661C309.405 109.841 308.711 109.088 307.987 108.619C307.263 108.149 305.943 110.213 305.063 110.732C304.182 111.25 305.728 109.597 307.019 108.159C308.31 106.711 308.261 105.869 307.078 105.547C305.894 105.224 305.376 105.84 304.182 106.564C302.989 107.288 302.001 109.656 302.001 109.656C302.001 109.656 302.999 107.816 302.999 106.359C302.999 105.077 301.776 104.51 300.456 105.556C299.135 106.603 298.998 108.374 297.492 111.152L300.231 127.187C300.24 127.167 301.541 126.688 302.94 125.23Z" fill="#C4AEA2"/>
<path d="M296.299 128.576C296.299 128.576 300.534 127.666 301.649 126.032C302.764 124.399 303.595 119.527 304.143 118.734C304.691 117.942 307.527 116.063 307.518 113.931C307.508 111.798 306.011 113.138 305.18 114.087C304.349 115.046 302.529 116.905 302.529 116.905C302.529 116.905 302.128 116.562 302.539 116.024C302.95 115.486 303.488 114.107 303.957 113.441C304.427 112.776 306.011 111.416 306.011 111.416C306.011 111.416 307.459 110.947 307.84 109.822C308.222 108.697 308.056 107.914 305.659 109.421C303.263 110.927 302.461 111.72 301.805 112.512L303.615 109.822C303.615 109.822 306.569 108.002 306.97 106.632C307.371 105.253 306.06 105.556 303.605 107.278C301.15 109 300.827 109.205 300.827 109.205L299.155 112.532C299.155 112.532 299.35 110.888 299.693 110.428C300.035 109.968 300.798 108.266 301.17 107.689C301.551 107.112 302.48 106.124 301.649 105.654C300.808 105.184 299.927 106.143 298.861 107.963C297.795 109.783 297.541 111.035 297.091 112.463C296.641 113.891 296.543 113.931 296.778 115.154C296.778 115.154 295.673 113.07 295.565 112.424C295.457 111.778 295.037 110.389 294.01 109.959C292.983 109.528 292.552 109.45 293.217 111.876C293.892 114.302 293.354 114.42 293.971 115.936C294.587 117.443 295.311 120.661 294.196 121.63C293.08 122.598 292.376 122.833 292.376 122.833L296.299 128.576Z" fill="#F8E7DD"/>
<path d="M296.279 128.566L292.366 122.843C292.366 122.843 293.071 122.608 294.186 121.64C295.076 120.867 294.792 118.646 294.323 117.022C295.506 117.12 297.159 117.501 298.49 118.763C299.976 120.172 301.893 121.15 302.617 123.674C302.314 124.633 301.991 125.494 301.629 126.022C300.514 127.656 296.279 128.566 296.279 128.566Z" fill="#EDD1C3"/>
<path d="M273.518 144.738C270.632 149.257 276.002 156.086 280.463 153.043C288.923 147.271 300.338 130.532 300.446 128.096C300.553 125.66 293.98 121.072 291.251 122.491C288.522 123.909 282.673 130.396 273.518 144.738Z" fill="#F1E6F0"/>
<path d="M326.092 196.109C326.092 196.109 310.931 205.217 303.233 208.465C295.536 211.713 276.159 214.795 276.159 214.795C276.159 214.795 272.374 205.96 274.183 201.558C275.993 197.165 295.545 194.504 295.545 194.504L321.681 176.787C321.681 176.797 335.727 186.844 326.092 196.109Z" fill="#515050"/>
<path d="M290.156 228.334C290.156 228.334 244.917 225.487 240.076 231.142C235.224 236.797 231.595 243.048 246.6 251.804C261.604 260.56 264.95 264.043 264.95 264.043C264.95 264.043 275.161 263.505 279.318 254.886L274.203 248.791C274.203 248.791 292.699 259.2 306.784 258.848C320.859 258.496 309.777 230.262 290.156 228.334Z" fill="#B7893E"/>
<path d="M229.091 265.363C229.091 265.363 231.136 267.32 230.275 269.805C229.414 272.29 217.461 271.595 212.962 270.734C208.463 269.873 197.782 271.135 192.304 269.805C186.826 268.484 180.958 267.956 183.286 260.169C185.604 252.371 229.091 265.363 229.091 265.363Z" fill="#B2B2B2"/>
<path d="M236.398 250.014L232.466 255.629C232.466 255.629 220.621 252.078 220.621 246.697L226.842 241.287L236.398 250.014Z" fill="#545454"/>
<path d="M220.611 244.643C220.611 244.643 229.346 252.694 234.021 253.399C234.021 253.399 234.999 259.826 231.997 265.628C228.994 271.429 218.273 269.825 212.444 268.778C206.614 267.731 195.239 268.905 188.695 266.811C182.151 264.728 181.985 258.417 185.76 254.876C189.536 251.334 192.353 253.174 201.097 252.831C209.842 252.489 215.231 250.64 220.611 244.643Z" fill="#444444"/>
<path d="M234.021 253.408C232.349 253.154 230.158 251.951 228.025 250.522C226.265 252.919 223.8 255.668 220.611 257.723C213.617 262.252 201.068 260.58 193.224 260.452C185.379 260.325 183.648 258.134 183.648 258.134C182.523 261.46 183.873 265.275 188.695 266.811C195.238 268.895 206.614 267.721 212.444 268.778C218.273 269.825 228.994 271.419 231.996 265.628C234.99 259.836 234.021 253.408 234.021 253.408Z" fill="#323333"/>
<path d="M238.452 216.203C238.452 216.203 234.334 215.098 236.398 210.197C238.462 205.295 244.233 202.624 245.847 201.529C247.461 200.433 255.912 201.529 255.912 201.529L243.538 217.622L238.452 216.203Z" fill="#F8E7DD"/>
<path d="M333.555 239.184C333.555 239.184 325.232 258.848 308.731 260.462C292.23 262.076 276.824 245.69 271.787 234.918C266.749 224.147 264.999 225.106 265.184 223.58C265.184 223.58 262.661 226.456 259.942 228.755C257.222 231.054 258.005 228.344 254.699 232.385C251.393 236.425 250.063 237.482 248.302 239.927C246.541 242.373 246.355 241.268 244.409 244.692C242.472 248.126 242.13 250.601 240.262 252.049C238.393 253.497 221.364 245.377 220.611 241.307C220.611 241.307 229.933 233.598 230.705 229.137C231.478 224.675 237.112 222.073 239.831 217.045C242.55 212.016 254.679 194.142 264.959 193.868C275.24 193.594 278.937 198.603 285.735 206.058C292.523 213.513 305.62 229.009 305.62 229.009L333.555 239.184Z" fill="#D6A54E"/>
<path d="M342.407 170.565C342.407 170.565 352.11 177.266 353.754 191.765C354.967 202.468 337.967 239.546 333.555 247.186C325.897 260.442 313.122 278.17 302.627 251.422C299.018 242.207 300.084 223.971 300.084 223.971C300.084 223.971 308.104 215.499 309.689 206.146C311.274 196.793 313.963 181.424 319.236 176.963C324.508 172.502 342.407 170.565 342.407 170.565Z" fill="#545454"/>
<path d="M332.998 122.951C332.998 122.951 323.686 121.405 319.627 126.658C315.568 131.912 318.101 143.847 318.101 143.847L334.475 133.291L332.998 122.951Z" fill="#545454"/>
<path d="M343.033 165.116C343.033 165.116 341.684 167.513 342.407 170.565C342.701 171.778 342.222 173.04 341.185 173.725C335.052 177.766 326.092 177.257 323.197 176.249C322.004 175.838 321.27 174.635 321.417 173.383L322.591 163.159L338.368 152.975L334.465 161.31L343.033 165.116Z" fill="#EDD1C3"/>
<path d="M319.725 137.214C319.725 137.214 311.861 144.278 310.061 146.753C308.261 149.228 313.66 148.905 313.504 151.361C313.367 153.435 312.105 154.883 311.254 160.586C310.902 162.954 312.144 165.282 314.306 166.31C319.852 168.951 324.332 165.811 330.553 161.301C334.739 158.268 338.554 134.28 332.499 130.043C326.444 125.807 319.725 137.214 319.725 137.214Z" fill="#F8E7DD"/>
<path d="M320.204 142.312C319.979 143.114 320.096 144.18 321.153 143.74C322.209 143.3 322.581 141.754 321.945 141.147C321.319 140.541 320.576 140.981 320.204 142.312Z" fill="#5A3522"/>
<path d="M324.694 138.682C324.4 138.173 322.493 136.578 321.456 136.158C320.419 135.737 322.659 135.326 323.989 136.559C325.32 137.801 324.694 138.682 324.694 138.682Z" fill="#5A3522"/>
<path d="M334.798 147.545C334.798 147.545 338.573 142.898 340.031 145.285C341.478 147.672 339.512 152.202 337.419 154.208C335.316 156.223 332.078 156.35 332.078 156.35L334.798 147.545Z" fill="#F8E7DD"/>
<path d="M333.487 151.967H332.078C332.078 151.967 333.594 141.45 333.232 138.212C332.871 134.984 329.672 127.245 329.672 127.245V122.726C329.672 122.726 334.944 116.973 345.215 121.239C355.485 125.514 361.491 134.514 358.028 144.904C354.566 155.294 351.944 156.927 351.944 156.927L348.677 156.331L343.033 165.096L334.465 161.291L338.368 152.955C338.368 152.955 340.93 149.287 339.669 146.166C338.397 143.045 334.68 148.24 334.68 148.24L333.487 151.967Z" fill="#545454"/>
<path d="M314.149 155.685C314.149 155.685 316.614 154.09 315.773 157.25C314.942 160.42 312.702 160.146 314.149 155.685Z" fill="#E4969B"/>
<path d="M338.769 145.285L319.177 137.596C319.206 137.244 319.197 136.989 319.118 136.921C318.649 136.461 317.495 137.449 317.162 139.631C316.8 141.969 316.585 145.677 317.162 144.963C317.524 144.503 318.394 141.587 318.874 139.386L337.106 145.784C337.106 145.784 338.045 145.403 338.769 145.285Z" fill="#D6A54E"/>
<path d="M321.417 173.383L342.3 167.415L346.77 174.116L317.319 184.946V175.662L313.68 177.863L316.81 172.512L321.417 173.383Z" fill="#D6A54E"/>
<path d="M334.475 189.525C325.642 191.687 323.627 193.976 310.706 200.257C297.785 206.528 286.703 208.377 286.703 208.377L246.825 204.043C246.825 204.043 240.066 207.898 238.462 215.871C236.858 223.834 274.212 225.546 286.713 226.857C299.213 228.168 337.018 218.101 342.965 212.3C357.617 197.987 348.57 186.081 334.475 189.525Z" fill="#666565"/>
<path d="M234.502 275.607C234.502 275.607 236.996 263.299 246.513 259.337C256.03 255.375 260.637 255.493 263.317 255.493C265.997 255.493 270.467 254.446 272.424 252.695C274.37 250.943 275.104 250.816 277.305 251.247C279.505 251.677 283.076 253.663 284.386 256.481L234.502 275.607Z" fill="#323333"/>
<path d="M267.727 258.339C273.244 254.994 277.049 250.004 283.113 255.179C289.178 260.355 283.544 266.508 278.125 268.739C272.706 270.979 267.199 275.675 260.049 280.087C252.899 284.499 235.645 283.325 234.559 278.346C233.473 273.366 237.806 265.608 248.644 262.067C259.482 258.525 262.455 261.548 267.727 258.339Z" fill="#B2B2B2"/>
<path d="M276.091 251.031C276.091 251.031 262.035 240.27 257.966 238.137L278.927 245.543C278.927 245.543 280.61 249.114 291.75 256.285C291.75 256.285 276.805 250.943 274.213 248.781L276.091 251.031Z" fill="#9A6F30"/>
<path d="M194.173 246.238C194.173 246.238 190.593 240.74 181.995 244.115C173.398 247.49 163.949 249.368 163.949 249.368L166.316 264.424L189.869 258.065L194.173 246.238Z" fill="#666565"/>
<path d="M187.365 263.074C187.365 263.074 200.081 252.323 194.173 246.238C188.265 240.153 178.259 248.38 173.574 255.737C168.889 263.084 187.365 263.074 187.365 263.074Z" fill="#272828"/>
<path d="M163.606 257.596C163.606 257.596 190.114 246.179 194.418 261.401C198.721 276.624 183.668 286.182 166.472 292.874C149.277 299.565 133.275 303.919 115.13 298.157C96.9764 292.394 85.9921 279.97 104.625 260.149C123.259 240.329 163.606 257.596 163.606 257.596Z" fill="#0E232E"/>
<path d="M148.426 147.575C149.414 147.575 150.216 150.422 150.216 153.934C150.216 157.446 149.414 160.293 148.426 160.293C147.438 160.293 146.636 157.446 146.636 153.934C146.626 150.422 147.428 147.575 148.426 147.575ZM148.426 159.148C149.15 159.148 149.727 156.82 149.727 153.944C149.727 151.067 149.14 148.739 148.426 148.739C147.712 148.739 147.125 151.067 147.125 153.944C147.115 156.81 147.702 159.148 148.426 159.148Z" fill="#806248"/>
<path d="M123.102 180.045C123.102 180.045 123.728 184.144 122.486 187.363C121.987 188.644 122.819 188.811 123.856 189.711C129.959 195.023 139.809 195.796 143.105 195.13C144.465 194.857 145.443 193.653 145.472 192.264L145.707 180.925L129.988 167.483L121.978 167.552L123.102 180.045Z" fill="#EDD1C3"/>
<path d="M144.005 151.312C144.005 151.312 150.861 159.853 151.879 162.748C152.896 165.644 146.92 164.705 146.685 167.405C146.489 169.685 146.078 170.086 146.783 173.49C147.321 176.053 148.837 181.209 147.037 182.109C142.401 184.418 137.94 176.885 133.842 171.309C131.084 167.562 130.037 146.166 135.299 142.174C140.542 138.173 144.005 151.312 144.005 151.312Z" fill="#F8E7DD"/>
<path d="M149.042 142.439C149.042 142.439 154.304 137.312 149.042 132.832C143.78 128.351 140.865 128.263 139.877 129.339C139.877 129.339 135.935 124.77 127.073 128.175C118.212 131.579 108.45 135.248 108.176 149.316C107.902 163.384 115.698 163.913 117.4 165.439C119.102 166.965 122.701 175.574 122.701 175.574L136.835 176.142L140.757 164.764C140.757 164.764 138.351 158.571 138.028 156.155C137.706 153.738 138.967 151.439 138.967 151.439C138.967 151.439 141.804 152.369 144.983 152.535C148.553 152.74 152.241 146.401 149.042 142.439Z" fill="#5A3522"/>
<path d="M150.138 152.163L140.317 151.821L138.948 151.439L149.727 150.989L150.138 152.163Z" fill="#806248"/>
<path d="M137.97 153.386C137.97 153.386 137.755 149.277 141.599 151.821C145.453 154.364 142.587 162.993 141.354 162.729C140.132 162.474 137.97 153.386 137.97 153.386Z" fill="#EDD1C3"/>
<path d="M138.39 151.576C138.39 151.576 136.982 151.41 136.688 152.329C136.395 153.249 136.953 162.876 137.334 162.426C137.715 161.976 138.195 162.005 137.96 160.948C137.735 159.892 137.295 153.601 137.49 153.024C137.686 152.437 138.038 152.447 138.038 152.447C138.038 152.447 138.146 151.86 138.39 151.576Z" fill="#806248"/>
<path d="M140.748 164.764C140.748 164.764 142.548 174.811 147.38 176.141C147.38 176.141 148.475 178.245 148.426 180.397C148.387 182.549 145.912 184.095 144.161 182.364L142.411 176.141C142.411 176.141 139.437 166.896 138.958 165.409C138.479 163.922 140.748 164.764 140.748 164.764Z" fill="#5A3522"/>
<path d="M147.115 166.417C147.115 166.417 147.477 168.09 147.898 169.166C148.318 170.242 148.416 171.798 148.416 171.798C148.416 171.798 147.399 172.336 147.115 171.798C146.832 171.26 146.108 171.319 146.108 171.319C146.108 171.319 144.063 165.997 147.115 166.417Z" fill="#5A3522"/>
<path d="M157.875 266.43C157.875 266.43 155.146 278.972 131.553 281.388C107.961 283.805 100.556 268.553 100.556 268.553C100.556 268.553 128.746 258.858 150.216 261.401C171.686 263.945 157.875 266.43 157.875 266.43Z" fill="white"/>
<path d="M153.092 263.739C153.092 263.739 163.206 229.479 159.381 207.809C155.557 186.14 119.532 175.574 105.995 199.611C96.7026 216.105 98.6882 232.727 102.972 246.198C106.376 256.881 100.019 262.125 109.144 269.854C118.28 277.592 151.419 270.92 153.092 263.739Z" fill="#CE919C"/>
<path d="M122.476 187.373C122.476 187.373 108.91 189.691 100.556 195.541C92.1935 201.392 86.7062 248.468 89.8068 256.109C92.9075 263.74 93.6313 267.408 100.556 268.563C107.482 269.717 126.829 268.563 126.829 268.563L122.476 187.373Z" fill="#CE919C"/>
<path d="M139.31 187.333C139.31 187.333 164.321 186.981 167.9 201.353C171.48 215.724 173.055 254.582 166.316 264.424C160.936 272.28 143.31 262.605 143.31 262.605L139.31 187.333Z" fill="#CE919C"/>
<path d="M148.426 188.145L145.697 185.524C145.697 185.524 133.764 180.055 123.249 183.078L119.532 187.695C119.532 187.695 129.656 192.92 148.426 188.145Z" fill="white"/>
<path d="M109.154 269.864C109.154 269.864 100.557 262.967 100.557 251.413C100.557 239.859 102.464 235.633 101.75 226.877C101.036 218.121 102.708 210.627 102.708 210.627C102.708 210.627 96.9766 225.605 96.9766 238.343C96.9766 251.08 103.07 268.563 103.07 268.563C103.07 268.563 104.136 269.062 109.154 269.864Z" fill="#B86B79"/>
<path d="M152.368 265.139C152.368 265.139 149.57 264.327 146.929 244.535C144.289 224.744 148.856 211.214 148.856 211.214C148.856 211.214 144.005 215.528 143.653 240.241C143.301 264.953 145.697 269.062 145.697 269.062C145.697 269.062 148.993 268.455 152.368 265.139Z" fill="#B86B79"/>
<path d="M166.316 264.424C166.316 264.424 175.217 260.775 175.736 254.044C176.254 247.314 173.564 240.867 168.908 242.657C164.252 244.447 159.42 257.879 166.316 264.424Z" fill="#CE919C"/>
<circle cx="225" cy="70" r="24" fill="#DDDDDD"/>
<path d="M216.561 64.4338L218.797 65.5519L218.861 65.4233L218.91 65.2882L216.561 64.4338ZM224.588 74.1512L222.152 73.5891L222.088 73.8665V74.1512H224.588ZM222.088 77.5312C222.088 78.9119 223.207 80.0312 224.588 80.0312C225.969 80.0312 227.088 78.9119 227.088 77.5312H222.088ZM213.638 66.1238C213.638 67.5045 214.757 68.6238 216.138 68.6238C217.519 68.6238 218.638 67.5045 218.638 66.1238H213.638ZM218.91 65.2882C219.154 64.6172 220.682 62.2864 224.588 62.2864V57.2864C218.355 57.2864 215.094 61.1522 214.211 63.5795L218.91 65.2882ZM224.588 62.2864C227.278 62.2864 229.17 63.0927 230.253 64.071C231.297 65.0141 231.666 66.1524 231.432 67.3235L236.334 68.3041C236.945 65.2503 235.835 62.3748 233.605 60.3605C231.413 58.3813 228.235 57.2864 224.588 57.2864V62.2864ZM231.432 67.3235C231.408 67.4431 231.449 67.4349 231.232 67.5318C230.775 67.736 230.167 67.8286 228.952 68.0465C227.936 68.229 226.469 68.5109 225.165 69.2972C223.717 70.1705 222.62 71.5608 222.152 73.5891L227.024 74.7134C227.19 73.9955 227.466 73.7485 227.747 73.5789C228.173 73.3221 228.793 73.1551 229.836 72.9679C230.681 72.8161 232.106 72.6183 233.273 72.0963C234.68 71.4671 235.936 70.2969 236.334 68.3041L231.432 67.3235ZM222.088 74.1512V77.5312H227.088V74.1512H222.088ZM214.325 63.3158C214.097 63.7713 213.638 64.9038 213.638 66.1238H218.638C218.638 66.1239 218.639 66.0944 218.649 66.0335C218.659 65.9745 218.675 65.9047 218.697 65.8288C218.719 65.7535 218.743 65.684 218.765 65.6278C218.789 65.5679 218.802 65.5416 218.797 65.5519L214.325 63.3158Z" fill="#808080"/>
<path d="M225.01 83.8687V84.7136" stroke="#808080" stroke-width="5" stroke-linecap="round" stroke-linejoin="bevel"/>
<path fill-rule="evenodd" clip-rule="evenodd" d="M91 0.000244141C79.9543 0.000244141 71 8.95455 71 20.0002C71 31.0459 79.9543 40.0002 91 40.0002H217.994L223.768 50.0002C224.538 51.3336 226.462 51.3336 227.232 50.0002L233.006 40.0002H285C296.046 40.0002 305 31.0459 305 20.0002C305 8.95455 296.046 0.000244141 285 0.000244141H91Z" fill="#F2FAF7"/>
<path d="M100.825 12.5952L99.925 13.4652C100.555 13.9452 101.065 14.4252 101.47 14.8752H99.16C99.13 14.1852 99.1 13.4502 99.1 12.6702H97.66C97.66 13.4352 97.66 14.1702 97.69 14.8752H91.51V19.8702C91.465 22.3152 90.97 24.2202 90.04 25.5852L91.12 26.5452C92.26 24.8652 92.875 22.6452 92.935 19.8702V19.7802H95.2C95.17 21.3402 95.125 22.3302 95.035 22.7202C94.945 23.0502 94.78 23.2152 94.51 23.2302C94.09 23.2302 93.595 23.2002 92.995 23.1702L93.43 24.4602C93.895 24.5052 94.315 24.5352 94.675 24.5352C95.455 24.5202 95.965 24.2052 96.205 23.5752C96.445 22.8552 96.58 21.1452 96.61 18.4302H92.935V16.2402H97.765C97.87 18.0702 98.08 19.5852 98.41 20.8002C98.575 21.4302 98.755 22.0152 98.965 22.5552C97.975 23.7852 96.76 24.7152 95.32 25.3602L96.13 26.5602C97.45 25.9752 98.62 25.1202 99.625 23.9952C99.82 24.3552 100.03 24.6852 100.27 24.9852C100.99 25.8702 101.68 26.3202 102.34 26.3202C103.06 26.3202 103.615 25.2702 103.99 23.2002L102.7 22.5102C102.505 23.9802 102.31 24.7152 102.115 24.7152C101.875 24.7152 101.515 24.3702 101.065 23.7102C100.9 23.4552 100.735 23.1552 100.57 22.7952C101.5 21.4452 102.25 19.7952 102.85 17.8752L101.545 17.3202C101.125 18.7452 100.6 20.0052 99.97 21.1152C99.895 20.8752 99.82 20.6202 99.76 20.3652C99.505 19.3902 99.325 18.0102 99.22 16.2402H103.69V14.8752H101.89L102.58 14.1852C102.1 13.6452 101.515 13.1202 100.825 12.5952ZM114.91 16.2552L114.55 17.6502H110.92C111.115 17.2002 111.31 16.7352 111.49 16.2552H114.91ZM110.26 18.9102H116.2L115.855 20.4552H109.24C109.6 19.9752 109.945 19.4502 110.26 18.9102ZM117.25 20.4552L117.745 17.6502H115.93L116.485 14.9952H111.895C112.09 14.3352 112.255 13.6302 112.405 12.8802L111.01 12.7002C110.86 13.4952 110.68 14.2602 110.455 14.9952H109.015L109.735 14.4852C109.435 13.9902 109.03 13.4202 108.49 12.7902L107.365 13.4952C107.785 14.0202 108.13 14.5152 108.43 14.9952H106.15V16.2552H110.005C108.97 18.8202 107.35 20.8452 105.13 22.3152L105.835 23.5752C106.675 23.0352 107.44 22.4202 108.13 21.7302H117.175C117.145 23.3052 117.04 24.2802 116.89 24.6402C116.74 25.0152 116.35 25.2102 115.735 25.2402C115.33 25.2102 114.82 25.1802 114.22 25.1352L114.58 26.4852C115.15 26.5152 115.645 26.5452 116.065 26.5452C116.995 26.5452 117.64 26.2452 118.03 25.6752C118.39 25.1052 118.585 23.3652 118.615 20.4552H117.25ZM107.89 22.6002C107.56 23.5602 107.035 24.4752 106.3 25.3302L107.545 26.1102C108.25 25.2102 108.805 24.1302 109.195 22.8852L107.89 22.6002ZM110.995 22.8252L109.78 22.9752C110.02 23.6052 110.185 24.5052 110.26 25.6752L111.625 25.5102C111.52 24.3702 111.31 23.4852 110.995 22.8252ZM113.08 22.5252L111.97 22.8402C112.3 23.6352 112.57 24.4452 112.795 25.2852L114.085 24.8202C113.845 24.1302 113.515 23.3652 113.08 22.5252ZM115.36 22.1202L114.22 22.4802C114.55 23.1702 114.835 23.8752 115.06 24.6102L116.365 24.2802C116.065 23.4552 115.72 22.7352 115.36 22.1202ZM133.12 13.1952H120.88V26.5902H122.215V26.0952H131.785V26.5902H133.12V13.1952ZM122.215 24.9102V14.3802H131.785V24.9102H122.215ZM123.67 15.2052V16.1652H125.47C125.41 16.3752 125.35 16.5852 125.29 16.8252H122.77V17.7852H131.275V16.8252H130.165V15.2052H127C127.03 15.0552 127.045 14.8902 127.075 14.7402L125.785 14.5752C125.755 14.7852 125.71 14.9952 125.68 15.2052H123.67ZM126.655 16.8252C126.715 16.6152 126.76 16.3902 126.82 16.1652H128.815V16.8252H126.655ZM123.655 18.3102V20.6052H126.715V21.1302H123.04V22.1202H123.685L123.37 23.8452H126.715V24.6552H128.05V23.8452H131.035V22.8402H128.05V22.1202H130.84V21.1302H128.05V20.6052H130.375V18.3102H123.655ZM126.715 22.1202V22.8402H124.78L124.93 22.1202H126.715ZM129.19 19.7502H124.84V19.1652H129.19V19.7502ZM139.495 14.8902C139.225 15.3102 138.94 15.7302 138.61 16.1502V12.8202H137.275V18.4452C137.245 21.7152 136.54 24.0852 135.13 25.5702L136.105 26.4252C137.065 25.4352 137.755 24.0852 138.175 22.3752C138.445 22.8252 138.79 23.4252 139.18 24.1752L139.93 23.0502C139.42 22.3302 138.925 21.6852 138.43 21.0852C138.535 20.2752 138.595 19.4052 138.61 18.4452V17.7702C139.3 17.1702 139.855 16.5402 140.305 15.9102L139.495 14.8902ZM146.575 16.0452L144.76 16.2852V15.7152H147.355C147.265 16.1052 147.16 16.4502 147.025 16.7652L148.18 17.0802C148.39 16.4652 148.525 15.8502 148.615 15.2202V14.6952H144.775V14.1402H148.195V13.1652H144.775V12.7002H143.5V14.6952H140.455V18.7152C140.425 21.5502 140.02 23.8902 139.255 25.7502L140.26 26.6202C141.19 24.4302 141.67 21.7902 141.685 18.7002V15.7152H143.59V16.4502L142.105 16.6602L142.225 17.4702L143.59 17.2752V17.5302C143.59 18.0852 143.92 18.3702 144.61 18.3702H148V17.4552H145.105C144.895 17.4552 144.79 17.3352 144.775 17.1102L146.695 16.8552L146.575 16.0452ZM142.36 18.7752V22.4202H147.955V18.7752H142.36ZM146.845 21.6252H145.705V20.9652H146.845V21.6252ZM144.64 21.6252H143.485V20.9652H144.64V21.6252ZM143.485 20.1852V19.5702H144.64V20.1852H143.485ZM145.705 19.5702H146.845V20.1852H145.705V19.5702ZM148.285 22.9152H142.075V25.2702H141.295V26.2602H149.005V25.2702H148.285V22.9152ZM143.185 25.2702V23.7852H143.92V25.2702H143.185ZM144.805 25.2702V23.7852H145.51V25.2702H144.805ZM146.425 25.2702V23.7852H147.175V25.2702H146.425ZM136.15 15.3402L135.04 15.6852C135.385 17.0052 135.67 18.3852 135.91 19.8252L137.02 19.5252C136.75 17.9502 136.465 16.5552 136.15 15.3402ZM150.205 18.7902V20.2002H163.78V18.7902H150.205ZM167.545 13.1652V16.3152H176.47V13.1652H167.545ZM175.105 15.2502H168.91V14.2452H175.105V15.2502ZM166.825 16.9902V23.8752H169.585C168.46 24.5052 167.08 25.0752 165.46 25.5702L166.285 26.6352C168.115 26.0202 169.645 25.3152 170.89 24.5052L170.155 23.8752H173.815L173.17 24.4902C175.015 25.2552 176.44 25.9752 177.445 26.6502L178.435 25.6602C177.355 25.0602 176.065 24.4752 174.535 23.8752H177.22V16.9902H166.825ZM175.855 22.6752H168.19V21.8352H175.855V22.6752ZM168.19 20.7552V19.9752H175.855V20.7552H168.19ZM168.19 18.8952V18.1152H175.855V18.8952H168.19ZM186.97 18.3552C186.61 18.3552 186.325 18.4602 186.115 18.6702C185.89 18.8802 185.785 19.1502 185.785 19.4802C185.785 19.7952 185.89 20.0652 186.1 20.2752C186.31 20.4852 186.565 20.6052 186.88 20.6052C187.03 20.6052 187.15 20.5752 187.24 20.5452C187.24 20.9052 187.105 21.2502 186.865 21.5952C186.595 21.9252 186.25 22.1652 185.845 22.3002V23.2302C186.595 23.0202 187.195 22.6452 187.645 22.0752C188.095 21.5052 188.32 20.8302 188.32 20.0652C188.32 19.5552 188.185 19.1502 187.945 18.8352C187.675 18.5052 187.36 18.3552 186.97 18.3552ZM195.205 18.7902V20.2002H208.78V18.7902H195.205ZM223 13.6002H217.645V22.5702C217.645 23.3952 218.11 23.8152 219.055 23.8152H221.95C222.655 23.7852 223.105 23.4402 223.315 22.8102C223.435 22.4202 223.555 21.7752 223.645 20.8602L222.31 20.4252C222.25 21.3402 222.175 21.8952 222.085 22.0752C221.98 22.3152 221.785 22.4502 221.5 22.4802H219.64C219.235 22.4802 219.04 22.3302 219.04 22.0302V18.7452H223V13.6002ZM219.04 17.4552V14.8752H221.65V17.4552H219.04ZM213.13 12.6402V14.5902H210.76V15.8802H213.13V17.7702H210.505V19.0902H213.475V24.0702C212.995 23.7252 212.575 23.2302 212.185 22.5852C212.305 21.7752 212.38 20.9202 212.41 20.0352L211.15 19.8852C211.06 21.9852 210.685 23.8902 209.995 25.6002L211.09 26.5602C211.405 25.8102 211.66 25.0002 211.87 24.1302C212.38 24.8502 212.98 25.3602 213.655 25.6602C214.525 26.0502 216.715 26.2602 220.225 26.2602H223.705L223.945 24.8952C223.06 24.9552 221.71 24.9852 219.91 24.9852C217.495 24.9852 215.815 24.8802 214.855 24.7002V22.1802H216.85V20.8902H214.855V19.0902H216.94V17.7702H214.54V15.8802H216.745V14.5902H214.54V12.6402H213.13ZM237.355 13.2402C236.995 14.2452 236.56 15.1152 236.035 15.8502L237.175 16.4952C237.715 15.6852 238.18 14.7552 238.54 13.6752L237.355 13.2402ZM237.325 20.0052C236.995 20.9502 236.59 21.7752 236.11 22.4652L237.22 23.0952C237.73 22.3452 238.165 21.4602 238.51 20.4552L237.325 20.0052ZM231.595 13.3752L230.41 13.8552C230.86 14.5752 231.295 15.4152 231.7 16.3752L232.855 15.8802C232.495 14.9952 232.075 14.1552 231.595 13.3752ZM231.625 20.0652L230.47 20.5452C230.89 21.2352 231.295 22.0452 231.655 22.9602L232.795 22.4652C232.465 21.6252 232.075 20.8152 231.625 20.0652ZM234.505 17.2452C235.66 17.8902 236.8 18.7152 237.925 19.7052L238.675 18.5352C237.535 17.6052 236.29 16.8102 234.94 16.1352C235.075 15.5952 235.165 14.9952 235.195 14.3352V12.7002H233.815V14.3352C233.77 15.4302 233.5 16.3152 233.02 16.9902C232.54 17.6502 231.61 18.1752 230.23 18.5952L230.98 19.7652C232.42 19.3152 233.455 18.6852 234.115 17.8752C234.25 17.6802 234.385 17.4702 234.505 17.2452ZM233.845 18.7752V20.0052C233.785 21.3852 233.485 22.5252 232.96 23.3952C232.42 24.2052 231.4 24.8652 229.915 25.3902V21.0852H225.625V26.3202H226.945V25.6002H229.915V25.5552L230.59 26.6202C232.18 26.0652 233.335 25.2852 234.04 24.2952C234.265 23.9502 234.46 23.5752 234.64 23.1552C235.27 24.6852 236.455 25.8252 238.18 26.5752L239.02 25.3602C236.71 24.5202 235.42 22.9602 235.18 20.6652L235.225 20.0052V18.7752H233.845ZM225.16 14.5152V15.8052H230.29V14.5152H228.685C228.52 13.9602 228.28 13.3452 227.965 12.6702L226.63 13.0302C226.885 13.5102 227.11 14.0052 227.305 14.5152H225.16ZM225.7 16.7652V17.9802H229.81V16.7652H225.7ZM225.7 18.8502V20.0652H229.81V18.8502H225.7ZM226.945 24.4002V22.2552H228.64V24.4002H226.945ZM240.64 17.8902V19.2552H245.665C245.425 20.1252 245.14 20.8452 244.795 21.4302C243.865 22.9902 242.305 24.3252 240.115 25.4652L241.015 26.6352C243.415 25.3302 245.125 23.7852 246.13 22.0002C246.46 21.4302 246.73 20.7252 246.97 19.8852C248.08 22.7802 250.09 25.0302 253.015 26.6202L253.9 25.4652C251.065 24.0102 249.13 21.9402 248.08 19.2552H253.405V17.8902H247.405C247.555 16.9602 247.675 15.9252 247.75 14.7852H252.97V13.4202H241.03V14.7852H246.31C246.25 15.9102 246.13 16.9452 245.965 17.8902H240.64ZM259.75 21.0852H255.565V26.3202H256.885V25.6002H259.75V21.0852ZM256.885 24.4002V22.2552H258.46V24.4002H256.885ZM255.145 14.5152V15.8052H260.05V14.5152H258.52C258.34 13.9602 258.1 13.3452 257.8 12.6702L256.45 13.0302C256.705 13.5102 256.93 14.0052 257.14 14.5152H255.145ZM255.685 16.7652V17.9802H259.615V16.8402L260.605 17.7102C260.785 17.5602 260.965 17.3952 261.145 17.2152V21.0852H262.33C262.165 23.0952 261.355 24.5202 259.915 25.3752L260.665 26.5602C262.48 25.4202 263.47 23.5902 263.65 21.0852H264.775V24.9402C264.775 25.8402 265.225 26.3052 266.14 26.3052H267.205C267.67 26.3052 268.015 26.1852 268.255 25.9452C268.51 25.6752 268.69 24.8652 268.78 23.5452L267.565 23.1402C267.52 24.0402 267.445 24.5952 267.355 24.7752C267.28 24.9402 267.145 25.0302 266.965 25.0302H266.545C266.245 25.0302 266.095 24.8952 266.095 24.6552V21.0852H267.31V16.9902C267.52 17.2002 267.76 17.4102 268.03 17.6202L268.975 16.5402C267.61 15.5802 266.68 14.3052 266.17 12.6852L265.03 13.3302C265.39 14.4702 265.96 15.4902 266.71 16.3602H261.895C262.525 15.5502 263.065 14.5602 263.515 13.4052L262.24 12.8952C261.67 14.5152 260.785 15.8202 259.615 16.8102V16.7652H255.685ZM255.685 18.8802V20.0952H259.615V18.8802H255.685ZM266.005 19.8252H262.48V17.6202H266.005V19.8252ZM278.995 12.7002V16.4052L277.42 16.8552V14.2302H276.04V17.2602L275.11 17.5302V18.9102L276.04 18.6402V24.4602C276.04 25.6602 276.595 26.2752 277.705 26.2752H282.085C282.655 26.2752 283.075 26.1252 283.36 25.8402C283.66 25.5402 283.855 24.5952 283.975 23.0202L282.655 22.6002C282.595 23.7402 282.505 24.4152 282.37 24.6252C282.25 24.8352 282.07 24.9402 281.815 24.9402H278.125C277.645 24.9402 277.42 24.6852 277.42 24.1752V18.2352L278.995 17.7852V23.3202H280.345V17.3952L282.1 16.8852C281.935 18.4002 281.71 19.7352 281.425 20.8902L282.745 21.2952C283.195 19.1352 283.435 17.0652 283.465 15.1002L280.345 16.0152V12.7002H278.995ZM270.25 16.5852V17.9802H271.9V22.9602C271.285 23.1402 270.67 23.2902 270.04 23.4102L270.4 24.8502C272.08 24.4002 273.655 23.8302 275.125 23.1702V21.7602C274.525 22.0302 273.925 22.2852 273.31 22.5102V17.9802H274.87V16.5852H273.31V12.7602H271.9V16.5852H270.25Z" fill="#0D6763"/>
</svg>
