<svg width="344" height="180" viewBox="0 0 344 180" fill="none" xmlns="http://www.w3.org/2000/svg">
<g clip-path="url(#clip0)">
<path d="M343.03 0H0.0302734V180H343.03V0Z" fill="#1E6356"/>
<path d="M4.01999 180H334.4C334.4 180 343.12 148.77 334.8 112.04C326.48 75.3 298.66 26.6301 229.37 22.0401C160.08 17.4501 124.54 41.01 110.68 52.03C96.82 63.05 73.32 91.83 51.14 99.18C28.97 106.53 -0.600008 148.77 4.01999 180Z" fill="#144940"/>
<path d="M37.1204 180H305.58C305.58 180 312.66 154.9 305.91 124.98C299.16 95.0601 272.6 56.8301 216.29 53.0901C159.98 49.3501 134.01 64.15 122.75 73.13C111.49 82.11 93.4304 108.53 75.4104 114.52C57.3904 120.51 33.3704 154.58 37.1204 180Z" fill="#0F3D37"/>
<path d="M77.25 180H273.27C273.27 180 277.44 161.76 272.51 139.92C267.58 118.08 250.38 87.88 209.26 85.15C168.14 82.42 145.06 94.63 136.84 101.18C128.62 107.73 117.37 127.91 104.21 132.27C91.05 136.64 74.51 161.44 77.25 180Z" fill="#0C3531"/>
<path d="M110.34 180H236.89C236.89 180 240.23 168.33 237.04 154.23C233.85 140.13 221.47 115.81 194.92 114.05C168.37 112.29 157.22 119.99 151.91 124.22C146.6 128.45 136.87 146.48 128.38 149.3C119.9 152.12 108.57 168.02 110.34 180Z" fill="#062D2A"/>
<path d="M38.26 38.0601C39.3701 38.0601 40.27 37.1646 40.27 36.0601C40.27 34.9555 39.3701 34.0601 38.26 34.0601C37.1499 34.0601 36.25 34.9555 36.25 36.0601C36.25 37.1646 37.1499 38.0601 38.26 38.0601Z" fill="#C0A46B"/>
<path d="M216.3 17.03C217.41 17.03 218.31 16.1346 218.31 15.03C218.31 13.9255 217.41 13.03 216.3 13.03C215.19 13.03 214.29 13.9255 214.29 15.03C214.29 16.1346 215.19 17.03 216.3 17.03Z" fill="#C0A46B"/>
<path d="M58.3801 50.09C58.9379 50.09 59.3901 49.6423 59.3901 49.09C59.3901 48.5377 58.9379 48.09 58.3801 48.09C57.8223 48.09 57.3701 48.5377 57.3701 49.09C57.3701 49.6423 57.8223 50.09 58.3801 50.09Z" fill="#C0A46B"/>
<path d="M194.17 30.05C194.728 30.05 195.18 29.6023 195.18 29.05C195.18 28.4978 194.728 28.05 194.17 28.05C193.612 28.05 193.16 28.4978 193.16 29.05C193.16 29.6023 193.612 30.05 194.17 30.05Z" fill="#C0A46B"/>
<path d="M316.88 26.04C317.438 26.04 317.89 25.5923 317.89 25.04C317.89 24.4878 317.438 24.04 316.88 24.04C316.322 24.04 315.87 24.4878 315.87 25.04C315.87 25.5923 316.322 26.04 316.88 26.04Z" fill="#C0A46B"/>
<path d="M116.72 95.17C117.278 95.17 117.73 94.7223 117.73 94.17C117.73 93.6178 117.278 93.17 116.72 93.17C116.162 93.17 115.71 93.6178 115.71 94.17C115.71 94.7223 116.162 95.17 116.72 95.17Z" fill="#C0A46B"/>
<path d="M291.731 69.12C292.289 69.12 292.741 68.6723 292.741 68.12C292.741 67.5677 292.289 67.12 291.731 67.12C291.173 67.12 290.721 67.5677 290.721 68.12C290.721 68.6723 291.173 69.12 291.731 69.12Z" fill="#C0A46B"/>
<path d="M329.95 55.1C330.508 55.1 330.96 54.6523 330.96 54.1C330.96 53.5477 330.508 53.1 329.95 53.1C329.393 53.1 328.94 53.5477 328.94 54.1C328.94 54.6523 329.393 55.1 329.95 55.1Z" fill="#C0A46B"/>
<path d="M138.85 16.03C139.408 16.03 139.86 15.5823 139.86 15.03C139.86 14.4777 139.408 14.03 138.85 14.03C138.292 14.03 137.84 14.4777 137.84 15.03C137.84 15.5823 138.292 16.03 138.85 16.03Z" fill="#C0A46B"/>
<path d="M30.22 73.13C30.7778 73.13 31.23 72.6823 31.23 72.13C31.23 71.5777 30.7778 71.13 30.22 71.13C29.6622 71.13 29.21 71.5777 29.21 72.13C29.21 72.6823 29.6622 73.13 30.22 73.13Z" fill="#C0A46B"/>
<path d="M166 63.11C167.11 63.11 168.01 62.2146 168.01 61.11C168.01 60.0054 167.11 59.11 166 59.11C164.89 59.11 163.99 60.0054 163.99 61.11C163.99 62.2146 164.89 63.11 166 63.11Z" fill="#C0A46B"/>
<path d="M298.771 105.18C299.881 105.18 300.781 104.285 300.781 103.18C300.781 102.075 299.881 101.18 298.771 101.18C297.661 101.18 296.761 102.075 296.761 103.18C296.761 104.285 297.661 105.18 298.771 105.18Z" fill="#C0A46B"/>
<path d="M282.68 56.1C283.79 56.1 284.69 55.2045 284.69 54.1C284.69 52.9954 283.79 52.1 282.68 52.1C281.57 52.1 280.67 52.9954 280.67 54.1C280.67 55.2045 281.57 56.1 282.68 56.1Z" fill="#C0A46B"/>
<path d="M203.22 103.18C204.33 103.18 205.23 102.285 205.23 101.18C205.23 100.075 204.33 99.1801 203.22 99.1801C202.11 99.1801 201.21 100.075 201.21 101.18C201.21 102.285 202.11 103.18 203.22 103.18Z" fill="#C0A46B"/>
<path opacity="0.18" d="M171.85 0C171.85 0 144.54 22.04 149.47 39.68C154.4 57.32 169.91 60.04 158.28 85.68C146.64 111.32 122.88 152.11 140.09 180H144.95C144.95 180 132.44 138.22 162.33 110.99C192.22 83.76 220.34 78.25 213.06 54C205.79 29.76 274.63 0 274.63 0H171.85Z" fill="white"/>
<path d="M0.0302734 159.37C0.0302734 159.37 16.8703 149.6 70.7803 158.39C124.69 167.19 232.17 179.99 232.17 179.99H0.0302734V159.37Z" fill="#0D6763"/>
<path d="M220.961 170.97C230.896 170.97 238.951 162.889 238.951 152.92C238.951 142.951 230.896 134.87 220.961 134.87C211.025 134.87 202.971 142.951 202.971 152.92C202.971 162.889 211.025 170.97 220.961 170.97Z" fill="#C0A46B"/>
<path d="M284.94 42.6C292.12 42.6 297.94 36.7618 297.94 29.56C297.94 22.3582 292.12 16.52 284.94 16.52C277.761 16.52 271.94 22.3582 271.94 29.56C271.94 36.7618 277.761 42.6 284.94 42.6Z" fill="#2FA89F"/>
<path d="M110.34 180C110.34 180 188.13 141.15 343.03 137.58V180H110.34Z" fill="#29846A"/>
</g>
<defs>
<clipPath id="clip0">
<rect width="343" height="180" fill="white" transform="translate(0.0302734)"/>
</clipPath>
</defs>
</svg>
