<svg width="250" height="250" viewBox="0 0 250 250" fill="none" xmlns="http://www.w3.org/2000/svg">
<g clip-path="url(#clip0_1416_3145)">
<path d="M250 0H0V250H250V0Z" fill="#EAEAEA"/>
<path d="M0 21.7891L130 77.9991L250 62.9991V249.999H0V21.7891Z" fill="#F2F2F2"/>
<path d="M250 108V250H0V142L250 108Z" fill="#EAEAEA"/>
<path d="M75 155C89.3594 155 101 143.359 101 129C101 114.641 89.3594 103 75 103C60.6406 103 49 114.641 49 129C49 143.359 60.6406 155 75 155Z" fill="#E5E5E5"/>
<path d="M88.3299 106.67C90.6599 110.57 91.9999 115.12 91.9999 120C91.9999 134.36 80.3599 146 65.9999 146C61.1299 146 56.5699 144.66 52.6699 142.33C57.2099 149.92 65.5099 155 74.9999 155C89.3599 155 101 143.36 101 129C101 119.51 95.9199 111.21 88.3299 106.67Z" fill="#DDDDDD"/>
<path d="M0 163.73L162 108L250 157.07V250H0V163.73Z" fill="#D8D8D8"/>
<path d="M162 108L85.25 250H250V157L162 108Z" fill="#CECECE"/>
</g>
<defs>
<clipPath id="clip0_1416_3145">
<rect width="250" height="250" fill="white"/>
</clipPath>
</defs>
</svg>
