<svg height="45" viewBox="0 0 152 45" width="152" xmlns="http://www.w3.org/2000/svg"><g fill="none" fill-rule="evenodd"><path d="m146.592 45h-141.267a5.334 5.334 0 0 1 -5.325-5.325v-34.358c0-2.932 2.39-5.317 5.325-5.317h141.267c2.934 0 5.408 2.385 5.408 5.317v34.358c0 2.931-2.474 5.325-5.408 5.325z" fill="#111"/><path d="m150.91 39.676a4.31 4.31 0 0 1 -4.317 4.31h-141.268a4.316 4.316 0 0 1 -4.323-4.31v-34.36a4.321 4.321 0 0 1 4.323-4.316h141.267a4.315 4.315 0 0 1 4.317 4.315l.001 34.36z" fill="#111"/><g fill="#fff"><path d="m33.922 22.257c-.033-3.626 2.971-5.39 3.109-5.472-1.702-2.478-4.339-2.817-5.265-2.844-2.215-.233-4.363 1.324-5.491 1.324-1.151 0-2.888-1.302-4.76-1.263-2.41.037-4.664 1.43-5.9 3.588-2.552 4.414-.65 10.9 1.795 14.467 1.223 1.747 2.652 3.698 4.522 3.63 1.83-.076 2.513-1.166 4.72-1.166 2.189 0 2.83 1.165 4.738 1.121 1.963-.031 3.2-1.755 4.38-3.518 1.413-2.002 1.98-3.974 2.003-4.076-.047-.008-3.814-1.445-3.851-5.791zm-3.603-10.663c.984-1.23 1.657-2.902 1.47-4.6-1.424.063-3.205.984-4.23 2.187-.908 1.06-1.719 2.797-1.51 4.43 1.6.12 3.243-.806 4.27-2.017z"/><g><path d="m60.4 35.442h-2.557l-1.4-4.398h-4.869l-1.334 4.398h-2.49l4.824-14.972h2.98l4.846 14.973zm-4.38-6.243-1.266-3.909c-.134-.4-.385-1.34-.756-2.82h-.045c-.147.636-.385 1.577-.711 2.82l-1.244 3.91h4.022zm16.785.713c0 1.836-.497 3.287-1.49 4.352-.89.948-1.994 1.422-3.312 1.422-1.424 0-2.446-.51-3.069-1.532h-.045v5.687h-2.4v-11.641c0-1.155-.03-2.34-.09-3.555h2.112l.134 1.712h.045c.8-1.29 2.015-1.933 3.646-1.933 1.274 0 2.338.503 3.19 1.51.853 1.008 1.279 2.333 1.279 3.977zm-2.446.087c0-1.05-.236-1.917-.711-2.598-.52-.711-1.216-1.067-2.09-1.067-.592 0-1.13.198-1.611.588a2.729 2.729 0 0 0 -.945 1.545c-.074.297-.112.54-.112.731v1.8c0 .785.241 1.448.723 1.99.482.54 1.108.81 1.878.81.904 0 1.608-.348 2.111-1.044.505-.696.757-1.614.757-2.755zm14.872-.087c0 1.836-.496 3.287-1.49 4.352-.889.948-1.993 1.422-3.312 1.422-1.423 0-2.445-.51-3.067-1.532h-.045v5.687h-2.4v-11.641c0-1.155-.03-2.34-.09-3.555h2.112l.134 1.712h.045c.8-1.29 2.014-1.933 3.646-1.933 1.273 0 2.337.503 3.19 1.51.85 1.008 1.277 2.333 1.277 3.977zm-2.445.087c0-1.05-.238-1.917-.713-2.598-.519-.711-1.214-1.067-2.088-1.067-.594 0-1.13.198-1.613.588a2.727 2.727 0 0 0 -.943 1.545 3.2 3.2 0 0 0 -.112.731v1.8c0 .785.241 1.448.72 1.99.483.54 1.109.81 1.881.81.904 0 1.608-.348 2.111-1.044.505-.696.757-1.614.757-2.755z" fill-rule="nonzero"/><path d="m99.125 31.243c0 1.274-.442 2.31-1.33 3.11-.977.874-2.336 1.31-4.082 1.31-1.612 0-2.905-.31-3.883-.932l.556-2a6.584 6.584 0 0 0 3.47.957c.904 0 1.608-.205 2.113-.612.504-.407.755-.954.755-1.636 0-.607-.207-1.119-.623-1.534-.413-.415-1.103-.801-2.067-1.158-2.623-.977-3.934-2.41-3.934-4.293 0-1.23.46-2.24 1.38-3.025.916-.786 2.138-1.179 3.667-1.179 1.364 0 2.497.237 3.4.711l-.6 1.955c-.844-.459-1.799-.688-2.867-.688-.845 0-1.504.208-1.977.622-.4.37-.6.821-.6 1.356 0 .591.228 1.08.688 1.465.4.356 1.126.74 2.18 1.156 1.289.518 2.236 1.125 2.845 1.82.607.693.91 1.56.91 2.595zm7.937-4.796h-2.646v5.24c0 1.334.466 2 1.4 2 .43 0 .786-.037 1.067-.111l.066 1.821c-.472.177-1.095.266-1.866.266-.948 0-1.69-.29-2.224-.867-.533-.578-.8-1.548-.8-2.91v-5.442h-1.577v-1.8h1.576v-1.976l2.358-.711v2.687h2.646z"/><path d="m119 29.955c0 1.66-.475 3.022-1.423 4.088-.994 1.096-2.314 1.643-3.959 1.643-1.585 0-2.847-.525-3.788-1.576-.942-1.05-1.412-2.377-1.412-3.976 0-1.673.484-3.043 1.455-4.108.97-1.067 2.278-1.6 3.923-1.6 1.586 0 2.861.525 3.824 1.577.92 1.02 1.38 2.338 1.38 3.952zm-2.49.078c0-.996-.213-1.85-.644-2.562-.504-.861-1.223-1.291-2.155-1.291-.965 0-1.698.43-2.202 1.291-.43.714-.644 1.581-.644 2.607 0 .996.213 1.85.644 2.56.52.862 1.245 1.292 2.18 1.292.917 0 1.636-.439 2.155-1.314.443-.726.666-1.588.666-2.583z" fill-rule="nonzero"/><path d="m126.803 26.756a4.171 4.171 0 0 0 -.757-.067c-.844 0-1.497.319-1.957.957-.4.562-.6 1.273-.6 2.132v5.664h-2.399l.022-7.396c0-1.244-.03-2.377-.09-3.398h2.091l.088 2.065h.066c.254-.71.654-1.281 1.2-1.71a2.904 2.904 0 0 1 1.736-.578c.222 0 .422.016.6.044z"/><path d="m137.539 29.534c0 .43-.029.792-.088 1.087h-7.202c.029 1.067.376 1.883 1.045 2.445.607.503 1.392.755 2.356.755 1.066 0 2.039-.17 2.914-.51l.376 1.664c-1.023.446-2.23.667-3.622.667-1.676 0-2.99-.493-3.948-1.477-.955-.984-1.433-2.306-1.433-3.964 0-1.628.444-2.984 1.335-4.065.932-1.154 2.192-1.731 3.778-1.731 1.557 0 2.736.577 3.536 1.731.634.917.953 2.05.953 3.397zm-2.29-.623c.016-.71-.14-1.325-.466-1.844-.415-.667-1.053-1-1.912-1-.785 0-1.424.325-1.911.978-.4.519-.637 1.14-.71 1.865h5v.001z" fill-rule="nonzero"/></g><g><path d="m55.227 11.26c0 1.324-.398 2.321-1.192 2.99-.735.618-1.78.927-3.133.927-.671 0-1.245-.029-1.726-.087v-7.235a12.747 12.747 0 0 1 2.032-.153c1.29 0 2.261.28 2.916.84.734.634 1.103 1.54 1.103 2.718zm-1.244.033c0-.859-.228-1.517-.683-1.976-.455-.458-1.119-.687-1.994-.687-.371 0-.688.025-.95.076v5.5c.145.023.41.033.797.033.903 0 1.6-.25 2.09-.753.492-.501.74-1.233.74-2.193zm7.84 1.124c0 .815-.233 1.484-.699 2.008-.488.539-1.136.807-1.944.807-.78 0-1.4-.257-1.862-.775-.462-.516-.693-1.167-.693-1.953 0-.82.238-1.495.715-2.018s1.12-.785 1.928-.785c.779 0 1.405.257 1.879.774.45.502.676 1.15.676 1.942zm-1.223.038c0-.49-.106-.91-.317-1.259-.248-.423-.6-.634-1.058-.634-.474 0-.834.211-1.082.634-.212.35-.317.776-.317 1.28 0 .49.106.91.317 1.26.255.422.611.634 1.07.634.45 0 .804-.215 1.059-.646.218-.357.328-.78.328-1.27z" fill-rule="nonzero"/><path d="m70.669 9.809-1.661 5.303h-1.08l-.689-2.303a17.224 17.224 0 0 1 -.427-1.713h-.02a12.535 12.535 0 0 1 -.428 1.713l-.73 2.303h-1.094l-1.56-5.302h1.212l.6 2.521c.146.596.265 1.164.36 1.702h.022c.088-.443.233-1.008.438-1.69l.753-2.532h.962l.722 2.477c.174.604.316 1.186.425 1.746h.033c.08-.545.2-1.127.36-1.746l.644-2.477h1.159v-.001zm6.117 5.303h-1.18v-3.037c0-.936-.356-1.404-1.07-1.404-.35 0-.632.128-.852.386a1.369 1.369 0 0 0 -.328.909v3.145h-1.18v-3.787c0-.465-.014-.97-.042-1.517h1.037l.055.829h.032c.138-.258.343-.47.612-.64.32-.198.678-.298 1.07-.298.495 0 .907.16 1.235.48.407.393.61.979.61 1.757v3.177zm3.254 0h-1.18v-7.737h1.179z"/><path d="m86.987 12.417c0 .815-.233 1.484-.7 2.008-.488.539-1.137.807-1.944.807-.78 0-1.4-.257-1.862-.775-.462-.516-.693-1.167-.693-1.953 0-.82.238-1.495.715-2.018.478-.523 1.12-.785 1.927-.785.78 0 1.405.257 1.88.774.45.502.677 1.15.677 1.942zm-1.225.038c0-.49-.106-.91-.317-1.259-.246-.423-.6-.634-1.057-.634-.475 0-.835.211-1.082.634-.212.35-.316.776-.316 1.28 0 .49.106.91.316 1.26.256.422.612.634 1.07.634.451 0 .804-.215 1.058-.646.22-.357.328-.78.328-1.27zm6.935 2.657h-1.059l-.088-.61h-.032c-.363.486-.88.73-1.55.73-.502 0-.907-.16-1.212-.48a1.506 1.506 0 0 1 -.416-1.08c0-.648.27-1.142.814-1.484.543-.342 1.306-.51 2.29-.502v-.099c0-.698-.368-1.047-1.103-1.047a2.47 2.47 0 0 0 -1.384.393l-.24-.774c.493-.305 1.103-.458 1.821-.458 1.387 0 2.083.731 2.083 2.194v1.953c0 .53.026.951.076 1.264zm-1.225-1.822v-.818c-1.301-.023-1.952.334-1.952 1.069 0 .276.074.483.226.622a.826.826 0 0 0 .577.207c.259 0 .5-.083.722-.246a1.004 1.004 0 0 0 .427-.834zm7.93 1.822h-1.047l-.055-.851h-.033c-.334.648-.904.972-1.704.972-.64 0-1.172-.251-1.595-.753-.422-.502-.632-1.153-.632-1.953 0-.858.228-1.554.688-2.085.444-.495.99-.742 1.638-.742.713 0 1.211.24 1.495.72h.023v-3.044h1.18v6.307c0 .517.014.993.042 1.43zm-1.222-2.236v-.885a1.343 1.343 0 0 0 -.46-1.086 1.16 1.16 0 0 0 -.789-.288c-.44 0-.785.174-1.038.524-.251.35-.378.796-.378 1.342 0 .524.12.95.362 1.277.256.349.6.523 1.031.523.388 0 .697-.145.933-.437.227-.268.339-.592.339-.97zm11.314-.459c0 .815-.233 1.484-.7 2.008-.488.539-1.134.807-1.944.807-.778 0-1.398-.257-1.862-.775-.462-.516-.692-1.167-.692-1.953 0-.82.237-1.495.715-2.018.477-.523 1.119-.785 1.928-.785.778 0 1.405.257 1.878.774.45.502.677 1.15.677 1.942zm-1.223.038c0-.49-.106-.91-.316-1.259-.249-.423-.6-.634-1.06-.634-.472 0-.833.211-1.082.634-.211.35-.316.776-.316 1.28 0 .49.106.91.316 1.26.256.422.612.634 1.071.634.45 0 .805-.215 1.06-.646.217-.357.327-.78.327-1.27z" fill-rule="nonzero"/><path d="m115.839 15.112h-1.18v-3.037c0-.936-.355-1.404-1.07-1.404-.35 0-.633.128-.851.386a1.363 1.363 0 0 0 -.328.909v3.145h-1.18v-3.787c0-.465-.014-.97-.043-1.517h1.036l.055.829h.033c.139-.258.344-.47.611-.64a2 2 0 0 1 1.071-.298c.495 0 .907.16 1.234.48.409.393.612.979.612 1.757zm7.941-4.42h-1.3v2.576c0 .655.231.982.688.982.212 0 .388-.018.526-.055l.03.895c-.232.087-.539.131-.916.131-.466 0-.829-.142-1.09-.425-.264-.283-.395-.76-.395-1.43v-2.674h-.776v-.883h.776v-.972l1.156-.349v1.32h1.3v.884zm6.246 4.42h-1.18v-3.015c0-.95-.356-1.426-1.07-1.426-.546 0-.92.275-1.125.826a1.48 1.48 0 0 0 -.055.425v3.189h-1.18v-7.736h1.18v3.197h.022c.372-.582.904-.872 1.595-.872.488 0 .892.16 1.213.48.4.4.6.994.6 1.779z"/><path d="m136.47 12.21c0 .211-.016.389-.044.534h-3.539c.016.524.185.924.513 1.2.3.248.685.372 1.158.372.524 0 1.001-.084 1.431-.251l.185.819c-.503.218-1.096.327-1.781.327-.822 0-1.47-.242-1.938-.726-.47-.483-.704-1.132-.704-1.947 0-.8.218-1.466.656-1.997.457-.567 1.075-.85 1.855-.85.764 0 1.343.283 1.735.85.317.45.473 1.007.473 1.669zm-1.126-.305a1.586 1.586 0 0 0 -.228-.906c-.205-.327-.517-.492-.94-.492-.384 0-.699.16-.938.48-.196.256-.312.561-.35.918z" fill-rule="nonzero"/></g></g></g></svg>