<svg width="201" height="200" viewBox="0 0 201 200" fill="none" xmlns="http://www.w3.org/2000/svg">
<g clip-path="url(#clip0_22276_56879)">
<path d="M151.966 116.83C155.025 112.579 152.612 105.576 146.576 101.19C140.54 96.8042 133.167 96.6952 130.108 100.947C127.048 105.199 129.462 112.201 135.498 116.587C141.534 120.973 148.907 121.082 151.966 116.83Z" fill="#EFDBB4"/>
<path d="M107.451 117.537C107.451 117.537 116.451 112.065 125.274 106.998C134.097 101.931 135.358 93.0646 135.358 81.6643V52.5303H155.525V95.598C155.525 106.998 154.265 115.865 137.879 124.732C121.493 133.599 113.93 137.399 113.93 137.399L107.451 117.537Z" fill="#E5C888"/>
<path d="M87.4611 157.666L83.0495 176.21C82.4193 179.732 85.4696 182.924 89.5409 183C89.6921 183 89.8308 183 89.982 183C90.0577 183 90.1333 183 90.2089 183C94.4189 182.962 97.507 179.517 96.6373 175.919L93.7634 157.666H87.4611Z" fill="#E5C888"/>
<path d="M93.7634 157.666H87.4611L83.6797 173.55C88.3308 172.208 92.6038 168.8 95.1373 166.432L93.7634 157.666Z" fill="#D8B877"/>
<path d="M115.696 152.371H112.23L110.15 161.099C112.709 160.364 115.054 158.489 116.453 157.185L115.696 152.371Z" fill="#D8B877"/>
<path d="M109.595 152.637L111.46 167.42C111.964 170.168 115.078 171.663 118.065 170.586C118.166 170.548 118.279 170.51 118.393 170.46C118.443 170.434 118.506 170.422 118.557 170.396C121.619 169.206 122.93 165.824 121.304 163.429L114.195 150.889L109.582 152.637H109.595Z" fill="#E5C888"/>
<path d="M119.313 159.921L114.195 150.902L109.582 152.65L111.448 167.432C111.536 167.888 111.712 168.294 111.926 168.674C114.309 166.343 117.699 162.023 119.313 159.933V159.921Z" fill="#D8B877"/>
<path d="M70.3323 152.637L68.4668 167.42C67.9627 170.168 64.8493 171.663 61.862 170.586C61.7612 170.548 61.6477 170.51 61.5343 170.46C61.4839 170.434 61.4208 170.422 61.3704 170.396C58.3075 169.206 56.9966 165.824 58.6226 163.429L65.7316 150.889L70.3449 152.637H70.3323Z" fill="#E5C888"/>
<path d="M65.7311 150.889L58.6221 163.429C58.1809 164.075 57.9792 164.797 57.9414 165.532C62.3656 165.912 66.9411 164.823 68.8696 164.278L70.3444 152.637L65.7311 150.889Z" fill="#D8B877"/>
<path d="M125.162 143.492C125.137 142.896 125.074 142.288 124.948 141.68C121.04 122.123 109.797 99.4106 89.9697 99.4106C70.1426 99.4106 58.8992 122.123 54.9918 141.68C54.8657 142.288 54.8153 142.896 54.7775 143.492C54.7145 143.986 54.6641 144.492 54.6641 144.999C54.6641 156.197 70.4703 165.266 89.9571 165.266C109.444 165.266 125.25 156.197 125.25 144.999C125.25 144.492 125.212 143.986 125.137 143.492H125.162Z" fill="#F4E2B3"/>
<path d="M93.1328 141.199C101.834 141.199 108.889 134.11 108.889 125.365C108.889 116.62 101.834 109.531 93.1328 109.531C84.4311 109.531 77.377 116.62 77.377 125.365C77.377 134.11 84.4311 141.199 93.1328 141.199Z" fill="#BFE3DF"/>
<path d="M93.1341 109.531C90.109 109.531 87.2855 110.406 84.8906 111.888C86.6679 111.191 88.5964 110.798 90.6131 110.798C99.3104 110.798 106.369 117.892 106.369 126.632C106.369 132.332 103.356 137.31 98.8566 140.11C104.718 137.804 108.89 132.079 108.89 125.365C108.89 116.625 101.831 109.531 93.1341 109.531Z" fill="#81B7AD"/>
<path d="M81.234 115.004C78.8391 117.778 77.377 121.4 77.377 125.365C77.377 134.105 84.4356 141.199 93.1328 141.199C99.4981 141.199 104.969 137.399 107.452 131.952L81.234 115.016V115.004Z" fill="#9BCFC6"/>
<path d="M92.8184 106.998C82.5456 106.998 74.2266 115.358 74.2266 125.682C74.2266 136.006 82.5456 144.366 92.8184 144.366C103.091 144.366 111.41 136.006 111.41 125.682C111.41 115.358 103.091 106.998 92.8184 106.998ZM94.1167 138.02C86.6169 138.02 80.5415 131.914 80.5415 124.377C80.5415 116.841 86.6169 110.735 94.1167 110.735C101.616 110.735 107.692 116.841 107.692 124.377C107.692 131.914 101.616 138.02 94.1167 138.02Z" fill="#F7EBD0"/>
<path d="M92.8186 144.366C82.5458 144.366 74.2267 136.006 74.2267 125.682C74.2267 118.12 78.7014 111.634 85.1297 108.683C76.735 110.494 70.4453 117.98 70.4453 126.949C70.4453 137.272 78.7644 145.632 89.0372 145.632C91.785 145.632 94.3815 145.024 96.726 143.948C95.4656 144.214 94.1547 144.366 92.8186 144.366Z" fill="#E5C888"/>
<path d="M160.467 51.6814C159.635 47.8813 153.219 44.9299 145.442 44.9299C137.665 44.9299 131.249 47.8813 130.417 51.6814H130.316V58.4329H130.417C131.249 62.233 137.665 65.1844 145.442 65.1844C153.219 65.1844 159.635 62.233 160.467 58.4329H160.568V51.6814H160.467Z" fill="#EFDBB4"/>
<path d="M145.442 60.1303C153.796 60.1303 160.568 56.7276 160.568 52.5301C160.568 48.3326 153.796 44.9299 145.442 44.9299C137.088 44.9299 130.316 48.3326 130.316 52.5301C130.316 56.7276 137.088 60.1303 145.442 60.1303Z" fill="#F7EAD5"/>
<path d="M144.95 102.97C151.164 107.061 154.177 113.458 151.694 117.258L155.261 111.786L155.185 111.736C156.635 108.151 153.484 102.539 147.698 98.7266C141.913 94.9138 135.535 94.2551 132.85 97.0165L132.774 96.9659L129.207 102.438C131.69 98.6379 138.736 98.8659 144.938 102.957L144.95 102.97Z" fill="#F7EAD5"/>
<path d="M151.593 117.436L151.706 117.258C151.706 117.258 151.618 117.372 151.58 117.423H151.593V117.436Z" fill="#F7EAD5"/>
<path d="M129.118 102.628C129.118 102.628 129.181 102.501 129.219 102.438L129.105 102.615H129.118V102.628Z" fill="#F7EAD5"/>
<path d="M145.441 56.3303C151.01 56.3303 155.525 54.2489 155.525 51.6815C155.525 49.114 151.01 47.0327 145.441 47.0327C139.872 47.0327 135.357 49.114 135.357 51.6815C135.357 54.2489 139.872 56.3303 145.441 56.3303Z" fill="#CEAD6A"/>
<path d="M144.812 102.324C138.447 98.3846 131.225 98.5366 128.691 102.679C128.187 103.489 127.922 104.401 127.834 105.364C128.351 105.022 128.805 104.705 129.094 104.465C135.346 99.3853 139.897 103.021 143.842 106.985C146.023 108.683 147.459 110.786 147.8 112.673C148.72 115.232 148.266 117.866 145.065 120.146C148.001 120.096 150.459 119.019 151.732 116.942C154.266 112.8 151.153 106.251 144.787 102.311L144.812 102.324Z" fill="#F7EAD5"/>
<path d="M131.16 123.187C133.353 123.187 135.13 121.043 135.13 118.398C135.13 115.754 133.353 113.61 131.16 113.61C128.967 113.61 127.189 115.754 127.189 118.398C127.189 121.043 128.967 123.187 131.16 123.187Z" fill="#D3B476"/>
<path d="M130.946 122.199C132.686 122.199 134.097 120.497 134.097 118.398C134.097 116.3 132.686 114.598 130.946 114.598C129.206 114.598 127.795 116.3 127.795 118.398C127.795 120.497 129.206 122.199 130.946 122.199Z" fill="#E5C888"/>
<path d="M129.346 119.121L132.837 117.132" stroke="#D3B476" stroke-width="0.25" stroke-miterlimit="10"/>
<path d="M130.945 115.865V120.932" stroke="#D3B476" stroke-width="0.25" stroke-miterlimit="10"/>
<path d="M148.806 83.919C150.999 83.919 152.777 81.7753 152.777 79.1309C152.777 76.4865 150.999 74.3428 148.806 74.3428C146.614 74.3428 144.836 76.4865 144.836 79.1309C144.836 81.7753 146.614 83.919 148.806 83.919Z" fill="#D3B476"/>
<path d="M148.593 82.931C150.333 82.931 151.744 81.2296 151.744 79.1309C151.744 77.0322 150.333 75.3308 148.593 75.3308C146.852 75.3308 145.441 77.0322 145.441 79.1309C145.441 81.2296 146.852 82.931 148.593 82.931Z" fill="#E5C888"/>
<path d="M146.992 79.853L150.484 77.8643" stroke="#D3B476" stroke-width="0.25" stroke-miterlimit="10"/>
<path d="M148.592 76.5974V81.6642" stroke="#D3B476" stroke-width="0.25" stroke-miterlimit="10"/>
<path d="M142.556 39.7999L138.787 35.7084L131.149 33.7451C130.468 33.555 129.951 33.403 129.623 33.2637C129.283 33.1244 129.031 32.9597 128.855 32.7824C128.577 32.4784 128.451 32.111 128.489 31.6803C128.527 31.2497 128.703 30.8696 129.044 30.5656C129.397 30.2363 129.762 30.0843 130.128 30.1096C130.493 30.135 131.149 30.287 132.069 30.553L138.081 32.225L136.896 26.0562C136.821 25.6762 136.758 25.3595 136.707 25.1062C136.657 24.8528 136.619 24.5995 136.606 24.3335C136.606 24.0802 136.632 23.8395 136.695 23.6368C136.77 23.4215 136.909 23.2188 137.123 23.0288C137.451 22.7248 137.816 22.5728 138.232 22.5854C138.648 22.5854 138.989 22.7375 139.241 23.0288C139.455 23.2568 139.606 23.5355 139.707 23.8648C139.808 24.1942 139.909 24.6882 140.01 25.3468L141.371 33.289L145.14 37.3805C145.631 37.9125 145.883 38.4318 145.871 38.9132C145.871 39.4072 145.682 39.8252 145.304 40.1799C144.913 40.5346 144.484 40.6992 144.005 40.6612C143.526 40.6232 143.035 40.3319 142.543 39.7999H142.556Z" fill="#94D3C4"/>
<path d="M147.951 47.0453L147.144 47.1847L147.774 50.8581C147.863 51.3394 147.812 51.7194 147.636 51.9854C147.459 52.2514 147.207 52.4161 146.867 52.4668C146.501 52.5301 146.199 52.4668 145.947 52.2515C145.695 52.0361 145.543 51.7194 145.468 51.2508L143.968 42.4345C143.88 41.9405 143.93 41.5479 144.119 41.2945C144.308 41.0285 144.649 40.8638 145.14 40.7752L148.896 40.1292C149.413 40.0405 149.867 39.9898 150.232 39.9645C150.611 39.9518 150.951 39.9772 151.279 40.0658C151.657 40.1545 152.01 40.3192 152.337 40.5472C152.665 40.7752 152.917 41.0665 153.131 41.4212C153.333 41.7632 153.472 42.1559 153.547 42.5612C153.699 43.4099 153.573 44.1446 153.182 44.7273C152.791 45.3226 152.123 45.804 151.19 46.184C151.632 46.336 152.085 46.5893 152.526 46.9567C152.968 47.324 153.384 47.7167 153.762 48.1473C154.14 48.578 154.442 48.9707 154.669 49.338C154.896 49.6927 155.022 49.9461 155.047 50.0981C155.073 50.2501 155.047 50.4021 154.984 50.5667C154.909 50.7314 154.808 50.8708 154.657 50.9848C154.505 51.0988 154.316 51.1748 154.102 51.2128C153.837 51.2634 153.61 51.2381 153.421 51.1368C153.22 51.0481 153.043 50.9214 152.892 50.7441C152.728 50.5794 152.514 50.3261 152.237 50.0094L151.052 48.616C150.623 48.1093 150.258 47.7293 149.942 47.476C149.627 47.2227 149.325 47.0707 149.048 47.0073C148.77 46.944 148.417 46.944 148.001 47.0073L147.951 47.0453ZM148.455 42.0039L146.325 42.3712L146.867 45.5126L148.934 45.1579C149.489 45.0566 149.942 44.9299 150.308 44.7779C150.674 44.6133 150.926 44.3979 151.09 44.1319C151.253 43.8659 151.291 43.5239 151.228 43.1186C151.178 42.8019 151.052 42.5359 150.85 42.3205C150.648 42.1052 150.396 41.9659 150.094 41.8899C149.804 41.8265 149.262 41.8519 148.468 41.9912L148.455 42.0039Z" fill="#58A596"/>
<path d="M135.786 40.0786L133.983 41.3833L135.962 44.1447C136.24 44.5374 136.366 44.9047 136.328 45.2467C136.29 45.5888 136.126 45.8548 135.849 46.0574C135.559 46.2728 135.244 46.3488 134.916 46.2728C134.588 46.2094 134.286 45.9688 134.009 45.5761L128.626 38.0646C128.311 37.6339 128.198 37.2539 128.261 36.9119C128.324 36.5825 128.576 36.2659 129.005 35.9492L131.525 34.1251C132.269 33.5805 132.887 33.2258 133.366 33.0484C133.845 32.8711 134.311 32.8078 134.79 32.8584C135.256 32.9091 135.71 33.0611 136.126 33.3271C136.542 33.5931 136.92 33.9605 137.248 34.4165C137.966 35.4045 138.193 36.3799 137.954 37.3299C137.714 38.2799 136.983 39.1919 135.786 40.066V40.0786ZM132.105 35.9619L130.782 36.9245L132.912 39.9013L134.235 38.9386C134.702 38.6092 135.055 38.2799 135.294 37.9506C135.534 37.6212 135.66 37.2919 135.66 36.9499C135.66 36.6079 135.534 36.2659 135.282 35.8985C134.967 35.4678 134.601 35.2145 134.147 35.1258C133.656 35.0372 132.975 35.3158 132.093 35.9492L132.105 35.9619Z" fill="#58A596"/>
<path d="M146.136 52.8215C145.871 52.5428 145.569 52.3401 145.216 52.2135C144.863 52.0868 144.447 52.0108 143.981 51.9728C143.514 51.9475 142.998 51.9475 142.443 51.9728C142.002 51.9728 141.674 51.9855 141.472 51.9728C141.271 51.9728 141.069 51.9475 140.867 51.8968C140.666 51.8461 140.489 51.7701 140.351 51.6688C140.212 51.5675 140.111 51.4154 140.061 51.2254C139.972 50.9214 140.061 50.6301 140.288 50.3261C140.527 50.0347 140.893 49.8067 141.372 49.6801C141.901 49.5281 142.304 49.5281 142.594 49.6547C142.884 49.7814 143.161 49.9967 143.426 50.3008C143.628 50.5161 143.792 50.6554 143.943 50.7314C144.082 50.8074 144.258 50.8201 144.472 50.7568C144.712 50.6934 144.876 50.5414 144.989 50.3261C145.09 50.0981 145.115 49.8701 145.052 49.6547C144.989 49.4141 144.85 49.1734 144.649 48.9454C144.447 48.7174 144.182 48.5274 143.842 48.3754C143.502 48.2234 143.111 48.122 142.645 48.0967C142.191 48.0714 141.674 48.1347 141.107 48.2994C140.388 48.502 139.809 48.7807 139.342 49.1481C138.876 49.5154 138.561 49.9334 138.397 50.4021C138.233 50.8834 138.22 51.3774 138.359 51.8841C138.51 52.4161 138.762 52.8341 139.128 53.1255C139.493 53.4168 139.935 53.5942 140.439 53.6828C140.943 53.7715 141.561 53.7968 142.266 53.7588C142.796 53.7335 143.224 53.7335 143.552 53.7588C143.88 53.7715 144.157 53.8602 144.409 53.9995C144.649 54.1388 144.813 54.3669 144.901 54.6709C145.014 55.0635 144.926 55.4309 144.649 55.7982C144.497 55.9882 144.296 56.1529 144.069 56.2922C144.51 56.3176 144.964 56.3429 145.418 56.3429C145.733 56.3429 146.035 56.3429 146.338 56.3176C146.489 56.0896 146.615 55.8489 146.691 55.5956C146.855 55.0635 146.855 54.5189 146.691 53.9488C146.565 53.4802 146.363 53.1002 146.111 52.8341L146.136 52.8215Z" fill="#B4DED6"/>
<path d="M140.577 55.2156C140.4 55.1269 140.224 55.1142 140.022 55.1649C139.833 55.2156 139.695 55.3169 139.594 55.4562C140.123 55.6336 140.69 55.7856 141.283 55.8996C141.22 55.8236 141.157 55.7602 141.094 55.6716C140.93 55.4436 140.753 55.2916 140.59 55.2029L140.577 55.2156Z" fill="#B4DED6"/>
<path d="M159.697 45.7407L159.558 44.246L155.197 43.0299L154.302 44.2713C153.949 44.7526 153.685 45.0693 153.483 45.2213C153.294 45.3733 153.029 45.3987 152.714 45.31C152.437 45.234 152.222 45.0693 152.071 44.8033C151.92 44.55 151.882 44.284 151.945 44.0306C151.983 43.8786 152.046 43.7393 152.147 43.5999C152.248 43.4606 152.386 43.2579 152.563 43.0173L157.239 36.7851C157.378 36.6078 157.529 36.3924 157.718 36.1391C157.907 35.8858 158.084 35.6831 158.26 35.5311C158.437 35.3791 158.638 35.2777 158.878 35.2144C159.117 35.1637 159.382 35.1637 159.672 35.2524C159.974 35.3411 160.214 35.4678 160.378 35.6324C160.542 35.7971 160.668 35.9998 160.743 36.2151C160.819 36.4304 160.869 36.6584 160.894 36.8865C160.92 37.1145 160.958 37.4311 160.995 37.8111L161.878 45.5507C161.953 46.146 161.953 46.5514 161.878 46.792C161.815 47.0454 161.638 47.248 161.373 47.3874C161.109 47.5394 160.831 47.5774 160.542 47.4887C160.365 47.438 160.226 47.3747 160.126 47.2734C160.025 47.172 159.937 47.0707 159.886 46.9314C159.836 46.8047 159.785 46.6147 159.747 46.374C159.71 46.1333 159.684 45.918 159.659 45.728L159.697 45.7407ZM156.218 41.5479L159.42 42.4473L159.029 37.5451L156.206 41.5479H156.218Z" fill="#94D3C4"/>
<path d="M126.799 35.7085C127.253 35.8352 127.732 35.9365 128.249 36.0252C128.766 36.1138 129.119 36.2025 129.308 36.2912C129.497 36.3798 129.635 36.5572 129.724 36.8105C129.787 36.9879 129.761 37.2032 129.661 37.4439C129.56 37.6845 129.383 37.8492 129.144 37.9252C128.955 37.9886 128.69 38.0012 128.375 37.9759C128.06 37.9379 127.669 37.8746 127.228 37.7605C126.774 37.6465 126.283 37.5072 125.728 37.3299C125.047 38.0266 124.102 38.5839 122.917 38.9892C121.947 39.3186 121.026 39.4579 120.157 39.4073C119.287 39.3566 118.493 39.1286 117.774 38.7232C117.056 38.3179 116.438 37.7605 115.896 37.0385C115.354 36.3165 114.938 35.4932 114.623 34.5558C114.308 33.5931 114.144 32.6684 114.157 31.7691C114.157 30.8697 114.333 30.059 114.661 29.3117C114.989 28.5643 115.48 27.931 116.136 27.3736C116.779 26.8163 117.585 26.3856 118.543 26.0689C119.842 25.6383 121.026 25.5243 122.136 25.7396C123.245 25.9549 124.19 26.4616 124.997 27.2723C125.804 28.083 126.421 29.147 126.85 30.4517C127.518 32.4404 127.505 34.2011 126.825 35.7212L126.799 35.7085ZM124.354 34.9865C124.568 34.4671 124.669 33.8971 124.657 33.2891C124.644 32.6811 124.505 32.0097 124.266 31.2877C123.963 30.3757 123.547 29.6284 123.031 29.0583C122.514 28.4883 121.921 28.121 121.253 27.9563C120.598 27.8043 119.905 27.8296 119.199 28.0703C118.695 28.235 118.266 28.4883 117.901 28.8303C117.535 29.1597 117.258 29.565 117.069 30.0337C116.88 30.5024 116.791 31.0471 116.804 31.6804C116.804 32.3011 116.943 32.9724 117.169 33.6818C117.648 35.1258 118.354 36.1138 119.287 36.6712C120.22 37.2285 121.19 37.3299 122.211 36.9879C122.627 36.8485 123.031 36.6079 123.421 36.2912C123.094 36.1772 122.69 36.0885 122.224 36.0252C121.758 35.9618 121.43 35.8985 121.241 35.8352C121.064 35.7845 120.938 35.6452 120.863 35.4552C120.812 35.2905 120.825 35.1132 120.926 34.9358C121.026 34.7585 121.153 34.6445 121.329 34.5811C121.846 34.4038 122.854 34.5431 124.354 34.9991V34.9865Z" fill="#8DCEC1"/>
<path d="M152.375 20.318L150.8 25.3595L158.362 21.192C158.728 20.9894 159.03 20.85 159.257 20.774C159.497 20.698 159.774 20.7107 160.089 20.812C160.505 20.9387 160.808 21.1794 160.984 21.496C161.161 21.8254 161.198 22.1674 161.085 22.5094C160.946 22.9274 160.606 23.2821 160.039 23.5607L155.463 25.8028L157.694 32.9343C157.858 33.4283 157.959 33.8463 158.01 34.201C158.06 34.5557 158.035 34.8724 157.946 35.151C157.846 35.4677 157.631 35.7084 157.316 35.8604C156.989 36.0124 156.61 36.0251 156.182 35.8984C155.778 35.7717 155.476 35.5817 155.274 35.3284C155.073 35.075 154.934 34.771 154.846 34.429C154.758 34.087 154.682 33.7703 154.619 33.4917L152.854 27.1075L149.766 28.6402L148.833 31.6169C148.644 32.2123 148.367 32.6176 148.001 32.8203C147.636 33.023 147.245 33.061 146.804 32.9216C146.552 32.8456 146.338 32.7063 146.149 32.5036C145.959 32.301 145.846 32.073 145.783 31.8069C145.745 31.5916 145.758 31.3636 145.821 31.1229C145.871 30.8696 145.972 30.5276 146.123 30.0589L149.476 19.368C149.665 18.7853 149.93 18.38 150.27 18.1646C150.623 17.9493 151.014 17.9113 151.455 18.0506C151.896 18.19 152.199 18.4433 152.375 18.8233C152.552 19.2033 152.552 19.6847 152.375 20.28V20.318Z" fill="#71BFB2"/>
<path d="M160.908 36.8485L163.341 33.2764L161.286 30.097C161.097 29.793 160.946 29.527 160.858 29.299C160.757 29.071 160.706 28.8683 160.706 28.6656C160.706 28.463 160.795 28.273 160.984 28.0956C161.173 27.931 161.4 27.8423 161.664 27.8423C161.967 27.8423 162.206 27.931 162.383 28.1083C162.559 28.2856 162.786 28.6276 163.089 29.1216L164.727 31.7817L166.479 29.1216C166.618 28.8936 166.744 28.7036 166.845 28.5516C166.946 28.387 167.047 28.2603 167.135 28.159C167.223 28.0576 167.336 27.9816 167.45 27.9183C167.563 27.8676 167.702 27.8423 167.853 27.8423C168.131 27.8423 168.357 27.931 168.534 28.0956C168.71 28.2603 168.799 28.463 168.799 28.691C168.799 29.0203 168.61 29.4763 168.231 30.0463L166.089 33.2764L168.395 36.8485C168.61 37.1652 168.761 37.4185 168.849 37.6339C168.95 37.8365 168.988 38.0392 168.988 38.2165C168.988 38.3939 168.95 38.5459 168.862 38.6979C168.773 38.8372 168.66 38.9512 168.509 39.0399C168.357 39.1286 168.181 39.1666 167.992 39.1666C167.778 39.1666 167.614 39.1159 167.463 39.0399C167.324 38.9512 167.198 38.8499 167.11 38.7105C167.021 38.5839 166.858 38.3305 166.605 37.9505L164.69 34.9231L162.648 38.0392C162.484 38.2925 162.383 38.4572 162.307 38.5585C162.244 38.6599 162.156 38.7612 162.068 38.8499C161.98 38.9512 161.866 39.0146 161.74 39.0779C161.614 39.1286 161.463 39.1539 161.286 39.1539C161.022 39.1539 160.795 39.0779 160.618 38.9006C160.442 38.7359 160.354 38.4952 160.354 38.1912C160.354 37.8239 160.53 37.3678 160.896 36.8358L160.908 36.8485Z" fill="#58A596"/>
<path d="M85.9358 84.3369C85.835 83.7795 85.9862 83.1842 86.3896 82.7915C88.608 80.5621 89.9819 77.484 89.9819 74.0893C89.9819 70.1119 88.1164 66.5778 85.2173 64.323C84.3476 63.639 83.9947 62.4863 84.3602 61.435C84.8014 60.1809 85.0535 58.8256 85.0661 57.4069C85.1165 51.2254 80.415 45.8293 74.3017 45.0439C73.4068 44.9299 72.5371 44.9172 71.6926 44.9932C70.7724 45.0819 69.8775 44.7779 69.1842 44.1572C67.0162 42.1938 64.1424 40.9905 60.9786 40.9905C56.0628 40.9905 51.815 43.9039 49.8613 48.1093C49.2815 49.3507 47.9454 50.098 46.5967 49.9587C45.5253 49.8447 44.4161 49.87 43.2817 50.0347C36.9037 51.0101 32.0509 56.6469 32.0005 63.1197C31.9627 67.5658 34.1055 71.5052 37.4205 73.9499C38.3154 74.6086 38.5171 75.8247 37.8112 76.686C36.3239 78.5101 35.5928 80.9801 36.0844 83.6148C36.7272 87.0096 39.4877 89.695 42.8783 90.2523C44.7438 90.5563 46.5211 90.2523 48.0336 89.4797C49.3445 88.821 50.9201 89.201 51.9032 90.2903C54.1469 92.7731 57.3863 94.3311 60.9912 94.3311C65.7305 94.3311 69.8271 91.633 71.8816 87.6936C72.5119 86.4903 73.8353 85.8822 75.1588 86.1609C75.9781 86.3382 76.8352 86.4269 77.705 86.4269C79.0663 86.4269 80.3772 86.1989 81.5998 85.7936C82.2805 85.5656 83.0241 85.7682 83.5031 86.3129L85.293 88.3776C85.7846 88.9476 86.7047 88.4916 86.566 87.7569L85.9484 84.3495L85.9358 84.3369Z" fill="#B9E3DB"/>
<path d="M47.5424 71.5307C49.1644 71.5307 50.4792 70.2094 50.4792 68.5793C50.4792 66.9493 49.1644 65.6279 47.5424 65.6279C45.9204 65.6279 44.6055 66.9493 44.6055 68.5793C44.6055 70.2094 45.9204 71.5307 47.5424 71.5307Z" fill="#65B7B3"/>
<path d="M61.6205 71.5307C63.2425 71.5307 64.5574 70.2094 64.5574 68.5793C64.5574 66.9493 63.2425 65.6279 61.6205 65.6279C59.9985 65.6279 58.6836 66.9493 58.6836 68.5793C58.6836 70.2094 59.9985 71.5307 61.6205 71.5307Z" fill="#65B7B3"/>
<path d="M75.7006 71.5307C77.3226 71.5307 78.6374 70.2094 78.6374 68.5793C78.6374 66.9493 77.3226 65.6279 75.7006 65.6279C74.0786 65.6279 72.7637 66.9493 72.7637 68.5793C72.7637 70.2094 74.0786 71.5307 75.7006 71.5307Z" fill="#65B7B3"/>
</g>
<defs>
<clipPath id="clip0_22276_56879">
<rect width="137" height="165" fill="white" transform="translate(32 18)"/>
</clipPath>
</defs>
</svg>
