<svg height="80" viewBox="0 0 80 80" width="80" xmlns="http://www.w3.org/2000/svg" xmlns:xlink="http://www.w3.org/1999/xlink"><defs><circle id="a" cx="40" cy="40" r="40"/><linearGradient id="b" x1="50%" x2="50%" y1="0%" y2="100%"><stop offset="0" stop-color="#d7eae1"/><stop offset="1" stop-color="#9acabd"/></linearGradient><path id="c" d="m20 56.667h40l.65 2.603a15.641 15.641 0 0 0 7.128 9.619v11.111h-56.668v-11.111a16.206 16.206 0 0 0 8.475-10.564z"/><linearGradient id="d" x1="15.601%" x2="85.276%" y1="0%" y2="93.096%"><stop offset="0" stop-color="#92c7b8"/><stop offset="1" stop-color="#0d6763"/></linearGradient><circle id="e" cx="20" cy="20" r="20"/><linearGradient id="f" x1="64.458%" x2="64.458%" y1="26.487%" y2="100%"><stop offset="0" stop-color="#c4e1d3"/><stop offset="1" stop-color="#54a295"/></linearGradient><ellipse id="g" cx="2.222" cy="7.222" rx="22.222" ry="28.333"/><mask id="h" fill="#fff"><use fill="#fff" fill-rule="evenodd" xlink:href="#a"/></mask><mask id="i" fill="#fff"><use fill="#fff" fill-rule="evenodd" xlink:href="#e"/></mask></defs><g fill="none" fill-rule="evenodd"><use fill="#359177" xlink:href="#a"/><use fill="#0d6763" xlink:href="#a"/><g mask="url(#h)"><use fill="#92c7b8" xlink:href="#c"/><use fill="url(#b)" xlink:href="#c"/></g><path d="m15.556 31.111h2.222v17.779h-2.222a4.444 4.444 0 0 1 -4.445-4.445v-8.888a4.444 4.444 0 0 1 4.445-4.445zm46.666 0h2.222a4.444 4.444 0 0 1 4.445 4.445v8.888a4.444 4.444 0 0 1 -4.445 4.445h-2.222v-17.779z" fill="#c4e1d3" mask="url(#h)"/><g mask="url(#h)"><path d="m40 13.333c13.5 0 24.444 10.944 24.444 24.445v6.666c0 12.273-9.949 22.223-22.222 22.223h-4.444c-12.273 0-22.222-9.95-22.222-22.223v-6.666c0-13.5 10.944-24.445 24.444-24.445z" fill="#fff"/><g transform="translate(20 20)"><use fill="url(#d)" xlink:href="#e"/><g mask="url(#i)"><use fill="#79b1a6" xlink:href="#g"/><use fill="url(#f)" xlink:href="#g"/></g></g></g></g></svg>