<?xml version="1.0" encoding="UTF-8"?><svg id="_圖層_1" xmlns="http://www.w3.org/2000/svg" viewBox="0 0 1279.9 265"><defs><style>.cls-1{fill:#333;fill-rule:evenodd;}</style></defs><path id="Logo" class="cls-1" d="M1204.2,265c-43.8,0-76.5-29.1-76.5-64.4h46.4c.4,13.1,13.7,22.5,30.8,22.5,18.2,0,29.7-8.7,29.7-21.8,0-16.7-18.2-20.4-36.8-25.1-38.6-9.5-66.1-25.1-66.1-61.8,0-34.5,31.9-61.5,73.9-61.5s73.9,27.3,73.9,62.9l-46.4-.4c0-13.5-13-21.1-27.5-21.1s-27.5,7.3-27.5,19.6c0,14.9,17.8,18.5,36.4,23.3,27.5,6.9,65.4,16,65.4,63.3,.1,35.8-34.1,64.5-75.7,64.5Zm-197.9-6.6V57.4h121.4v42.5h-75.5v158.4h-45.9v.1Zm-192-119.3h121.4c-4.1-25.3-28.2-46.4-60.9-46.4s-57.1,19.6-60.5,46.4Zm60.7,125.9c-62.6,0-111.4-48-111.4-106.9s48.9-105.1,111.4-105.1,111.4,46.2,111.4,106.5c0,3.3-.4,9.1-1.5,14.5h-171.8c5.2,27.6,31.5,48.4,62.6,48.4,24.4,0,44.8-11.3,54.4-31.6h51.1c-14.3,43.3-55.1,74.2-106.2,74.2Zm-469.3-42c36.8,0,62.2-27.6,62.2-64s-25.4-64-62.2-64-61.4,27.2-61.4,64,25,64,61.4,64Zm-7.7,42c-57.6,0-100.1-47.2-100.1-106s42.6-106,100.1-106c35.9,0,63.8,19.2,76.6,45.7h1.5V58.8h44.7v200.7h-44.7v-39.2h-1.5c-17.6,31.6-44,44.7-76.6,44.7ZM0,258.4V0H63.1l70.8,196.8h1.1L205.8,0h63.4V258.4h-45.4V75.8h-1.5c-2.2,8-4.4,16.8-8.5,27.7l-57.8,154.9h-42.4L55.7,103.5c-4.1-10.9-6.6-19.7-8.5-27.7h-1.5v182.6H0ZM646.6,56.8h29.3V0h46.3V56.8h32.6v42.6h-32.6v116.3h31.5v42.6h-77.8V99.5h-61.9v116.3h31.5v42.6h-77.8V99.5h-31.5V56.9h31.5V0h46.3V56.8h32.6Z"/></svg>