<svg xmlns="http://www.w3.org/2000/svg" fill="none" viewBox="0 0 1080 172"><rect width="1080" height="172" rx="4" fill="#F2FAF7"/><mask id="a" maskUnits="userSpaceOnUse" x="0" y="0" width="1080" height="172"><rect width="1080" height="172" rx="4" fill="#FAF7F0"/></mask><g mask="url(#a)" clip-rule="evenodd"><path fill-rule="evenodd" d="M675.843 86.019l-36.767 56.112-19.013-28.82 55.78-27.292z" fill="#F0F0F0"/><path fill-rule="evenodd" d="M622.838 117.595l-2.808-4.308-7.175 7.94 9.983-3.632z" fill="#9E8248"/><path fill-rule="evenodd" d="M595.773 80.7041S622.467 82.4694 675.854 86l-63.093 17.274c-11.325-15.0466-16.988-22.5699-16.988-22.5699z" fill="#fff"/><path fill-rule="evenodd" d="M675.854 86l-63.087 17.27.071 17.948 7.163-7.882L675.854 86z" fill="#BFA267"/><path d="M1024 918c228.09 0 413-184.906 413-413S1252.09 92 1024 92c-228.094 0-413 184.906-413 413s184.906 413 413 413z" stroke="#92C7B8" stroke-width=".5"/><path fill-rule="evenodd" d="M1013 235c60.2 0 109-48.801 109-109s-48.8-109-109-109c-60.199 0-109 48.801-109 109s48.801 109 109 109z" fill="#437D6D"/><path fill-rule="evenodd" d="M1013 235c60.2 0 109-48.801 109-109s-48.8-109-109-109c-60.199 0-109 48.801-109 109s48.801 109 109 109z" fill="#4E8764"/><path fill-rule="evenodd" d="M1013 235c60.2 0 109-48.801 109-109s-48.8-109-109-109c-60.199 0-109 48.801-109 109s48.801 109 109 109z" fill="#3D725E"/><path fill-rule="evenodd" d="M1013 235c60.2 0 109-48.801 109-109s-48.8-109-109-109c-60.199 0-109 48.801-109 109s48.801 109 109 109z" fill="url(#paint0_linear)"/><path fill-rule="evenodd" d="M800 43c30.928 0 56-25.0721 56-56s-25.072-56-56-56-56 25.0721-56 56 25.072 56 56 56z" fill="url(#paint1_linear)"/></g><defs><linearGradient id="paint0_linear" x1="1166.59" y1="145.57" x2="1028.84" y2="-17.3263" gradientUnits="userSpaceOnUse"><stop stop-color="#0D6763"/><stop offset="1" stop-color="#D7EAE1"/></linearGradient><linearGradient id="paint1_linear" x1="755" y1="-1" x2="834.5" y2="7.5" gradientUnits="userSpaceOnUse"><stop stop-color="#79B1A6"/><stop offset="1" stop-color="#D7EAE1"/></linearGradient></defs></svg>
