<svg width="516" height="300" fill="none" xmlns="http://www.w3.org/2000/svg"><path d="M381 106l-9 156-198.5-118.5-110.7061 95.906" stroke="#92C7B8" stroke-width=".68617"/><path fill-rule="evenodd" clip-rule="evenodd" d="M449.973 222.257c5.42 0 9.814-4.389 9.814-9.802 0-5.414-4.394-9.803-9.814-9.803-5.419 0-9.813 4.389-9.813 9.803 0 5.413 4.394 9.802 9.813 9.802z" fill="url(#paint0_linear)"/><path fill-rule="evenodd" clip-rule="evenodd" d="M449.973 222.257c5.42 0 9.814-4.389 9.814-9.802 0-5.414-4.394-9.803-9.814-9.803-5.419 0-9.813 4.389-9.813 9.803 0 5.413 4.394 9.802 9.813 9.802z" fill="url(#paint1_linear)"/><path fill-rule="evenodd" clip-rule="evenodd" d="M62.9604 244.312c3.0486 0 5.52-2.468 5.52-5.513 0-3.046-2.4714-5.514-5.52-5.514-3.0486 0-5.52 2.468-5.52 5.514 0 3.045 2.4714 5.513 5.52 5.513z" fill="url(#paint2_linear)"/><path fill-rule="evenodd" clip-rule="evenodd" d="M371.68 265.352c2.032 0 3.68-1.646 3.68-3.676 0-2.03-1.648-3.676-3.68-3.676s-3.68 1.646-3.68 3.676c0 2.03 1.648 3.676 3.68 3.676z" fill="url(#paint3_linear)"/><path fill-rule="evenodd" clip-rule="evenodd" d="M172.68 147.352c2.032 0 3.68-1.646 3.68-3.676 0-2.03-1.648-3.676-3.68-3.676s-3.68 1.646-3.68 3.676c0 2.03 1.648 3.676 3.68 3.676z" fill="url(#paint4_linear)"/><path fill-rule="evenodd" clip-rule="evenodd" d="M380.68 107.352c2.032 0 3.68-1.646 3.68-3.676 0-2.03-1.648-3.676-3.68-3.676s-3.68 1.646-3.68 3.676c0 2.03 1.648 3.676 3.68 3.676z" fill="url(#paint5_linear)"/><path d="M222.624 209.209l125.979-78.052" stroke="#92C7B8" stroke-width=".688"/><path fill-rule="evenodd" clip-rule="evenodd" d="M281.88 220.628c32.519 0 58.88-26.332 58.88-58.814S314.399 103 281.88 103c-32.519 0-58.88 26.332-58.88 58.814s26.361 58.814 58.88 58.814z" fill="#437D6D"/><path fill-rule="evenodd" clip-rule="evenodd" d="M281.88 220.628c32.519 0 58.88-26.332 58.88-58.814S314.399 103 281.88 103c-32.519 0-58.88 26.332-58.88 58.814s26.361 58.814 58.88 58.814z" fill="#4E8764"/><path fill-rule="evenodd" clip-rule="evenodd" d="M281.88 220.628c32.519 0 58.88-26.332 58.88-58.814S314.399 103 281.88 103c-32.519 0-58.88 26.332-58.88 58.814s26.361 58.814 58.88 58.814z" fill="#3D725E"/><path fill-rule="evenodd" clip-rule="evenodd" d="M281.88 220.628c32.519 0 58.88-26.332 58.88-58.814S314.399 103 281.88 103c-32.519 0-58.88 26.332-58.88 58.814s26.361 58.814 58.88 58.814z" fill="url(#paint6_linear)"/><g filter="url(#filter0_d)" fill="#fff"><path d="M278.661 152.865c-.691 0-1.266-.575-1.266-1.266 0-.375.143-.72.431-.951 3.599-3.167 5.183-5.758 5.471-6.276 1.065-1.843 2.764-2.793 4.52-2.563.691.087 1.181.749 1.094 1.44-.086.691-.72 1.18-1.411 1.094-1.036-.144-1.727.864-1.986 1.296-.317.547-2.102 3.484-5.989 6.91-.23.23-.547.316-.864.316zM257.267 174.431c-.691 0-1.267-.576-1.267-1.267 0-.374.173-.748.461-.979 1.267-1.036 3.8-2.677 4.664-3.138.633-.317 1.382-.029 1.699.605.288.633.057 1.353-.547 1.67-.663.316-3.052 1.871-4.175 2.792-.231.202-.518.317-.835.317z"/><path d="M289.223 162.366c.519.461 1.094.259 1.641-.23 3.686-3.513 7.573-9.012 8.868-11.891.288-.605.835-.95 1.44-.72.72.288.691 1.497.058 2.822-1.699 3.512-4.06 7.37-8.724 12.178-.461.461-.375 1.066.028 1.44.403.374 1.066.346 1.699-.288 2.419-2.476 4.06-4.376 5.442-6.363.345-.518.806-.72 1.209-.633.605.115.72.72.518 1.411-.316 1.151-3.512 5.355-4.779 6.766-3.455 3.858-6.91 5.96-13.561 9.415-2.332 1.209-4.06 2.361-5.096 4.146-.95 1.612-1.238 2.13-1.354 2.332-.374.777-.086 1.785.72 2.159.778.374 1.728.058 2.102-.748 0-.029.029-.058.029-.087 0-.029-.058.029 1.209-2.102.605-1.007 1.9-2.533 3.916-3.455 6.651-3.023 9.357-5.441 13.244-9.299 1.756-1.757 4.204-5.528 4.866-6.651 1.843-3.139.892-5.816-.806-6.277-.115-.029-.173-.144-.144-.259 0-.029 0-.029.029-.058 1.295-2.217 1.9-3.771 2.13-4.952.317-1.612-.115-3.599-2.361-4.06-.115-.028-.173-.144-.173-.259.144-.518.288-1.151.375-1.583.46-2.102-.864-4.002-2.448-4.348-1.122-.23-2.13.029-2.994.634-.115.086-.288.057-.374-.058-.346-.374-.893-.749-1.67-.777-1.382-.029-2.764.403-3.772 2.533-.72 1.526-1.785 3.599-4.923 7.054-2.908 3.311-6.939 6.45-9.444 8.091-.432.288-1.065.23-.979-.374.115-.922 1.123-7.198 1.296-9.041.288-2.994-1.325-4.376-3.139-4.607-1.497-.201-3.743.231-4.981 3.628-.719 1.987-2.245 5.24-3.512 10.509-.893 3.685-1.037 8.004-.231 12.956.058.288 0 .605-.172.864-.979 1.612-2.448 3.772-3.225 5.615-.317.748-.058 1.641.662 2.044.749.403 1.699.144 2.131-.634.029-.028.029-.057.057-.086.49-1.008 1.469-2.908 1.843-3.714.662-1.382 1.123-2.275 1.296-2.851.172-.518.259-1.122-.029-2.504-.518-2.304-.691-6.651.259-10.481 1.238-5.067 3.369-10.739 3.743-11.689.374-.95.921-1.238 1.44-1.181.547.058 1.554.317 1.266 2.217-.518 3.427-1.266 7.774-1.526 9.242-.115.72-.259 2.39 1.066 3.168 1.036.604 2.159.259 3.426-.576 2.822-1.901 7.716-5.73 10.768-9.185 3.225-3.599 4.233-5.758 5.068-7.716.374-.893 1.353-.893 1.698-.777.346.086.749.575.461 1.526-.72 2.36-3.657 7.802-9.3 12.898-.633.576-.547 1.267-.23 1.613.317.345.892.575 1.555 0 5.096-4.348 7.975-9.502 9.299-12.295.663-1.382.893-2.216 1.123-2.85.288-.806.893-1.094 1.325-1.008.604.144 1.036.778.835 1.814-.173.893-.691 2.39-1.382 3.858-1.642 3.455-5.068 8.091-8.782 12.064-.432.576-.518 1.209-.029 1.67zM266.25 145.149c.202-.173.115-.403.058-.576-.288-.864-1.843-4.52-2.246-5.269-.202-.374-.461-.432-.749-.317-.374.144-.835.49-1.526 1.094-.691.605-1.094 1.008-1.266 1.354-.144.259-.116.518.201.777.662.489 4.089 2.534 4.923 2.908.202.086.404.201.605.029zM264.897 147.538c-.058-.259-.288-.317-.461-.346-.892-.23-4.808-.777-5.672-.806-.432-.029-.604.173-.662.461-.057.374-.029.95.144 1.871.173.922.288 1.469.49 1.814.144.259.374.374.777.23.777-.316 4.29-2.188 5.039-2.706.201-.144.403-.259.345-.518zM294.441 177.482c-.259.029-.345.231-.403.403-.317.864-1.296 4.722-1.411 5.528-.057.403.115.605.403.691.375.116.95.116 1.872.058.921-.058 1.468-.144 1.842-.317.26-.115.432-.345.317-.748-.23-.806-1.727-4.492-2.159-5.298-.087-.144-.202-.346-.461-.317zM296.659 175.697c-.116.231.028.403.144.547.575.72 3.339 3.542 4.002 4.089.316.259.575.23.806.029.288-.26.604-.749 1.007-1.555.432-.835.634-1.353.691-1.728.029-.288-.086-.547-.489-.662-.806-.23-4.722-.864-5.643-.921-.144-.029-.403-.058-.518.201z"/></g><path clip-rule="evenodd" d="M242.489 94.8271L221.827 209.47l58.63 17.689 64.251-32.815 3.466-62.934-105.685-36.5829z" stroke="#92C7B8" stroke-width=".688"/><path d="M243.465 95.6221l37.683 132.1409M222.621 209.209l122.305-14.336" stroke="#92C7B8" stroke-width=".688"/><path fill-rule="evenodd" clip-rule="evenodd" d="M281.32 229.987c1.9 0 3.44-1.54 3.44-3.44s-1.54-3.44-3.44-3.44-3.44 1.54-3.44 3.44 1.54 3.44 3.44 3.44zM243.294 98.88c1.899 0 3.44-1.5401 3.44-3.44s-1.541-3.44-3.44-3.44c-1.9 0-3.44 1.5401-3.44 3.44s1.54 3.44 3.44 3.44zM222.44 212.833c1.9 0 3.44-1.541 3.44-3.44 0-1.9-1.54-3.44-3.44-3.44s-3.44 1.54-3.44 3.44c0 1.899 1.54 3.44 3.44 3.44zM347.56 135.639c1.9 0 3.44-1.54 3.44-3.44s-1.54-3.44-3.44-3.44-3.44 1.54-3.44 3.44 1.54 3.44 3.44 3.44zM345.107 198.129c1.9 0 3.44-1.54 3.44-3.44s-1.54-3.44-3.44-3.44-3.44 1.54-3.44 3.44 1.54 3.44 3.44 3.44z" fill="#348D72"/><path d="M61.1201 73.3832l87.8429 3.6758" stroke="#92C7B8" stroke-width=".688"/><path fill-rule="evenodd" clip-rule="evenodd" d="M104.5 85c12.426 0 22.5-9.8497 22.5-22s-10.074-22-22.5-22C92.0736 41 82 50.8497 82 63s10.0736 22 22.5 22z" fill="url(#paint7_linear)" fill-opacity=".8"/><path clip-rule="evenodd" d="M108.87 14.5693L61.1201 73.2549l32.3558 31.3731 55.4871-27.0397-40.093-63.019z" stroke="#92C7B8" stroke-width=".688"/><path fill-rule="evenodd" clip-rule="evenodd" d="M148.827 80.1226c1.694 0 3.067-1.3715 3.067-3.0633 0-1.6917-1.373-3.0632-3.067-3.0632-1.693 0-3.066 1.3715-3.066 3.0632 0 1.6918 1.373 3.0633 3.066 3.0633zM108.347 17.6323c1.694 0 3.067-1.3714 3.067-3.0632 0-1.6918-1.373-3.0632-3.067-3.0632-1.694 0-3.067 1.3714-3.067 3.0632 0 1.6918 1.373 3.0632 3.067 3.0632zM60.5071 76.4468c1.6937 0 3.0667-1.3715 3.0667-3.0632 0-1.6918-1.373-3.0633-3.0667-3.0633s-3.0667 1.3715-3.0667 3.0633c0 1.6917 1.373 3.0632 3.0667 3.0632zM93.6272 107.079c1.6937 0 3.0667-1.371 3.0667-3.063 0-1.692-1.373-3.063-3.0667-3.063s-3.0667 1.371-3.0667 3.063c0 1.692 1.373 3.063 3.0667 3.063z" fill="#9ACABD"/><path d="M108.798 14.8252L93.627 104.629M430.33 15.7461l3.676 87.8429" stroke="#92C7B8" stroke-width=".688"/><path fill-rule="evenodd" clip-rule="evenodd" d="M448 60c0 14.3594-11.641 26-26 26s-26-11.6406-26-26 11.641-26 26-26 26 11.6406 26 26z" fill="url(#paint8_linear)" fill-opacity=".9"/><path clip-rule="evenodd" d="M371.517 63.4956l58.685-47.7495 31.374 32.3557-27.04 55.4872-63.019-40.0934z" stroke="#92C7B8" stroke-width=".688"/><path fill-rule="evenodd" clip-rule="evenodd" d="M437.07 103.452c0 1.694-1.372 3.067-3.063 3.067-1.692 0-3.064-1.373-3.064-3.067 0-1.693 1.372-3.066 3.064-3.066 1.691 0 3.063 1.373 3.063 3.066zM374.58 62.9724c0 1.6937-1.372 3.0667-3.064 3.0667-1.691 0-3.063-1.373-3.063-3.0667 0-1.6936 1.372-3.0666 3.063-3.0666 1.692 0 3.064 1.373 3.064 3.0666zM433.394 15.1326c0 1.6937-1.371 3.0667-3.063 3.0667-1.692 0-3.063-1.373-3.063-3.0667s1.371-3.0667 3.063-3.0667c1.692 0 3.063 1.373 3.063 3.0667zM464.026 48.2527c0 1.6937-1.372 3.0667-3.063 3.0667-1.692 0-3.064-1.373-3.064-3.0667s1.372-3.0667 3.064-3.0667c1.691 0 3.063 1.373 3.063 3.0667z" fill="#9ACABD"/><path d="M371.772 63.4235l89.804-15.1711M116.762 205.352l39.616 60.04" stroke="#92C7B8" stroke-width=".688"/><path d="M116.761 205.352l-10.539 79.739" stroke="#4A7C6E" stroke-opacity=".306669" stroke-width="1.376" stroke-linecap="square"/><path fill-rule="evenodd" clip-rule="evenodd" d="M143.185 238.546c5.099 8.833 2.081 20.123-6.742 25.217-8.823 5.094-20.11 2.063-25.209-6.77-5.1-8.833-2.082-20.122 6.741-25.216 8.824-5.094 20.11-2.063 25.21 6.769z" fill="url(#paint9_linear)"/><path fill-rule="evenodd" clip-rule="evenodd" d="M143.185 238.546c5.099 8.833 2.081 20.123-6.742 25.217-8.823 5.094-20.11 2.063-25.209-6.77-5.1-8.833-2.082-20.122 6.741-25.216 8.824-5.094 20.11-2.063 25.21 6.769z" fill="#FAECCB" fill-opacity=".5"/><path d="M123.036 242.064c-.985.615-1.656 1.372-1.989 2.234-.439 1.039-.33 2.108.31 3.216.68 1.178 1.797 1.711 3.404 1.614l2.126-.397 3.022 5.23c-.854.401-1.628.502-2.331.284-.785-.239-1.567-.873-2.328-1.912l-1.057.611c.919 1.271 1.908 2.062 2.966 2.375 1.013.315 2.107.169 3.29-.422l.88 1.524.71-.411-.87-1.506c1.113-.713 1.863-1.492 2.241-2.358.464-1.076.35-2.234-.351-3.446-.67-1.16-1.804-1.684-3.411-1.587l-2.491.446-2.871-4.97c.706-.338 1.38-.451 2.05-.33.78.15 1.516.626 2.175 1.446l1.039-.6c-.853-1.078-1.789-1.738-2.822-1.927-.961-.184-1.955-.025-2.972.493l-.82-1.42-.71.41.81 1.403zm4.711 6.517l1.205-.234c1.51-.225 2.533.107 3.054 1.008.47.814.57 1.587.311 2.338-.273.688-.835 1.313-1.688 1.876l-2.882-4.988zm-1.45-.872l-.843.141c-1.537.218-2.55-.097-3.041-.946-.48-.831-.563-1.615-.249-2.351.233-.596.705-1.099 1.412-1.554l2.721 4.71z" fill="#C19F57"/><path d="M107.27 284.486l49.638-19.4-11.466-39.466-28.681-20.268v0M107.27 284.486l37.11-58.253" stroke="#92C7B8" stroke-width=".688"/><path fill-rule="evenodd" clip-rule="evenodd" d="M109.558 283.8c.83 1.437.339 3.273-1.096 4.101-1.435.829-3.271.336-4.1-1.101-.829-1.436-.338-3.272 1.096-4.101 1.435-.828 3.271-.335 4.1 1.101zM119.049 204.666c.83 1.437.339 3.273-1.096 4.101-1.435.829-3.27.336-4.1-1.101-.829-1.436-.338-3.272 1.097-4.101 1.435-.828 3.27-.335 4.099 1.101zM147.564 222.198c.829 1.436.339 3.272-1.096 4.101-1.435.828-3.271.335-4.1-1.101-.829-1.437-.339-3.273 1.096-4.101 1.435-.829 3.271-.336 4.1 1.101zM159.928 263.218c.83 1.436.339 3.272-1.096 4.101-1.435.828-3.271.335-4.1-1.101-.829-1.437-.338-3.273 1.097-4.101 1.434-.829 3.27-.336 4.099 1.101z" fill="#9ACABD"/><path d="M420.237 68.3036l.988-3.6901 3.996 1.0707.288-1.0754-3.996-1.0706.522-1.947 3.996 1.0707.288-1.0754-3.452-.9251 7.387-6.8771-1.755-.4701-6.772 6.4838-.057-.0151-2.623-9.0013-1.754-.4701 2.959 9.6493-3.339-.8947-.289 1.0753 3.894 1.0434-.521 1.9469-3.894-1.0433-.288 1.0753 3.894 1.0434-.989 3.6901 1.517.4064z" fill="#9C8046"/><defs><linearGradient id="paint0_linear" x1="465.3" y1="210.558" x2="450.194" y2="198.53" gradientUnits="userSpaceOnUse"><stop stop-color="#438F83"/><stop offset="1" stop-color="#fff"/></linearGradient><linearGradient id="paint1_linear" x1="463.352" y1="210.246" x2="449.76" y2="199.425" gradientUnits="userSpaceOnUse"><stop stop-color="#BC1A24"/><stop offset="1" stop-color="#FFBFB1"/></linearGradient><linearGradient id="paint2_linear" x1="71.238" y1="237.705" x2="63.0427" y2="231.18" gradientUnits="userSpaceOnUse"><stop stop-color="#79B1A6"/><stop offset="1" stop-color="#D7EAE1"/></linearGradient><linearGradient id="paint3_linear" x1="377.198" y1="260.947" x2="371.735" y2="256.597" gradientUnits="userSpaceOnUse"><stop stop-color="#79B1A6"/><stop offset="1" stop-color="#D7EAE1"/></linearGradient><linearGradient id="paint4_linear" x1="178.198" y1="142.947" x2="172.735" y2="138.597" gradientUnits="userSpaceOnUse"><stop stop-color="#79B1A6"/><stop offset="1" stop-color="#D7EAE1"/></linearGradient><linearGradient id="paint5_linear" x1="386.198" y1="102.947" x2="380.735" y2="98.597" gradientUnits="userSpaceOnUse"><stop stop-color="#79B1A6"/><stop offset="1" stop-color="#D7EAE1"/></linearGradient><linearGradient id="paint6_linear" x1="364.846" y1="172.374" x2="290.532" y2="84.3963" gradientUnits="userSpaceOnUse"><stop stop-color="#0D6763"/><stop offset="1" stop-color="#D7EAE1"/></linearGradient><linearGradient id="paint7_linear" x1="138.24" y1="58.6376" x2="105.391" y2="31.9193" gradientUnits="userSpaceOnUse"><stop stop-color="#79B1A6"/><stop offset="1" stop-color="#D7EAE1"/></linearGradient><linearGradient id="paint8_linear" x1="421.121" y1="30.2543" x2="453.349" y2="61.3158" gradientUnits="userSpaceOnUse"><stop stop-color="#EFDAAF"/><stop offset="1" stop-color="#BF9F5E"/></linearGradient><linearGradient id="paint9_linear" x1="116.105" y1="229.784" x2="146.947" y2="237.424" gradientUnits="userSpaceOnUse"><stop stop-color="#EFDAAF"/><stop offset="1" stop-color="#BF9F5E"/></linearGradient><filter id="filter0_d" x="252" y="138" width="56" height="56" filterUnits="userSpaceOnUse" color-interpolation-filters="sRGB"><feFlood flood-opacity="0" result="BackgroundImageFix"/><feColorMatrix in="SourceAlpha" values="0 0 0 0 0 0 0 0 0 0 0 0 0 0 0 0 0 0 127 0"/><feOffset dy="4"/><feGaussianBlur stdDeviation="2"/><feColorMatrix values="0 0 0 0 0 0 0 0 0 0 0 0 0 0 0 0 0 0 0.04 0"/><feBlend in2="BackgroundImageFix" result="effect1_dropShadow"/><feBlend in="SourceGraphic" in2="effect1_dropShadow" result="shape"/></filter></defs></svg>
