<svg width="328" height="246" viewBox="0 0 328 246" fill="none" xmlns="http://www.w3.org/2000/svg">
<g clip-path="url(#clip0)">
<path d="M328 0H0V246H328V0Z" fill="white"/>
<path d="M328 0H0V246H328V0Z" fill="url(#paint0_radial)"/>
<path d="M328 0H0V246H328V0Z" fill="white"/>
<path d="M295.198 22.96H32.7979V175.89H295.198V22.96Z" fill="#F5F5F5"/>
<path d="M89.1469 104.695V95.8647H63.7158V175.89H101.509V104.695H89.1469Z" fill="#E8E8E8"/>
<path d="M163.178 162.36V125.87H156.618V102.91H152.108V86.51H145.958L141.858 53.71L137.348 86.51H131.608V102.91H127.098V125.87H120.538V162.77H114.798V175.89H168.918V162.36H163.178Z" fill="#E8E8E8"/>
<path d="M241.897 123V103.73L227.594 98.0068L213.607 103.73V123H207.867V175.89H247.637V123H241.897Z" fill="#E8E8E8"/>
<path d="M295.198 90.1795V114.767L157.11 23.3044L157.34 22.96H193.707L295.198 90.1795Z" fill="#FAFAFA"/>
<path d="M295.197 123.992L142.349 22.96H127.482L295.197 133.82V123.992Z" fill="#FAFAFA"/>
<path d="M183.087 175.89H160.796L32.7979 91.2047V76.457L183.087 175.89Z" fill="#FAFAFA"/>
<path d="M147.127 175.89H132.236L32.7979 110.265V100.438L147.127 175.89Z" fill="#FAFAFA"/>
<path d="M123.203 20.6235H114.593V178.227H123.203V20.6235Z" fill="white"/>
<path d="M213.403 20.6235H204.793V178.227H213.403V20.6235Z" fill="white"/>
<path d="M327.847 0H-0.15332V246H327.847V0Z" fill="url(#paint1_radial)"/>
<path d="M231.464 156.272L231.309 153.427C231.231 151.992 232.413 150.805 233.848 150.877L279.404 153.124L270.206 159.243L249.403 158.463L231.464 156.272Z" fill="#E0E0E0"/>
<path d="M233.128 186.783L231.396 154.951C231.318 153.516 232.5 152.33 233.935 152.402L275.903 154.5L233.128 186.783Z" fill="#BDBDBD"/>
<path d="M282.161 197.21H232.122C230.787 197.21 229.701 196.124 229.701 194.789V183.489C229.701 182.154 230.787 181.068 232.122 181.068H279.74C281.002 181.068 282.042 182.039 282.151 183.275L284.582 194.789C284.583 196.124 283.496 197.21 282.161 197.21ZM232.93 193.981H281.144L279.069 184.296H232.93V193.981Z" fill="#A8A7A7"/>
<path d="M279.74 163.204L262.99 157.663L272.586 139.751C274.132 136.866 277.139 135.065 280.412 135.065H285.254L279.74 163.204Z" fill="#E0E0E0"/>
<path d="M223.369 158.881L223.214 156.036C223.136 154.601 224.317 153.414 225.752 153.486L271.308 155.733L262.11 161.852L241.308 161.071L223.369 158.881Z" fill="#EEEEEE"/>
<path d="M289.388 136.886L283.584 181.87C283.341 183.757 281.813 185.217 279.917 185.375L227.541 189.74C226.181 189.853 224.996 188.821 224.922 187.458L223.326 158.115C223.248 156.68 224.429 155.494 225.865 155.565L267.833 157.663L277.429 139.751C278.974 136.866 281.981 135.065 285.254 135.065H287.788C288.761 135.065 289.513 135.92 289.388 136.886Z" fill="#BDBDBD"/>
<path d="M96.5359 156.272L96.6909 153.427C96.7688 151.992 95.5876 150.805 94.1522 150.877L48.5967 153.124L57.7942 159.243L78.5968 158.463L96.5359 156.272Z" fill="#E0E0E0"/>
<path d="M94.872 186.783L96.6034 154.951C96.6813 153.516 95.5001 152.33 94.0647 152.402L52.0967 154.5L94.872 186.783Z" fill="#BDBDBD"/>
<path d="M43.418 194.789L45.8489 183.275C45.9583 182.04 46.9981 181.068 48.2605 181.068H95.8779C97.2128 181.068 98.2989 182.154 98.2989 183.489V194.789C98.2989 196.124 97.2128 197.21 95.8779 197.21H45.8394C44.5041 197.21 43.418 196.124 43.418 194.789ZM95.071 184.297H48.9312L46.8558 193.982H95.071V184.297Z" fill="#A8A7A7"/>
<path d="M48.2598 163.204L65.0099 157.663L55.4139 139.751C53.8686 136.866 50.8608 135.065 47.5882 135.065H42.7461L48.2598 163.204Z" fill="#E0E0E0"/>
<path d="M104.632 158.881L104.787 156.036C104.865 154.601 103.683 153.414 102.248 153.486L56.6924 155.733L65.8899 161.852L86.6925 161.071L104.632 158.881Z" fill="#EEEEEE"/>
<path d="M38.6122 136.886L44.4165 181.87C44.6601 183.757 46.1877 185.217 48.0836 185.375L100.46 189.74C101.82 189.853 103.004 188.821 103.079 187.458L104.675 158.115C104.753 156.68 103.571 155.494 102.136 155.565L60.1679 157.663L50.5719 139.751C49.0266 136.866 46.0188 135.065 42.7462 135.065H40.2128C39.2395 135.065 38.4875 135.92 38.6122 136.886Z" fill="#BDBDBD"/>
<path opacity="0.2" d="M291.51 197.21C291.51 201.738 287.834 205.41 283.3 205.41H42.2409C37.7063 205.41 34.0303 201.739 34.0303 197.21H291.51Z" fill="url(#paint2_linear)"/>
<path d="M121.349 197.779C120.832 197.439 119.824 196.835 119.676 196.536C119.392 195.964 119.651 194.955 119.651 193.793C119.651 192.632 119.66 191.862 119.66 191.862L124.025 191.948C124.025 192.197 123.961 192.936 123.961 193.724C123.961 194.749 125.116 196.086 126.092 196.817C126.616 197.211 127.851 198.56 127.604 200.396C127.604 200.396 125.987 200.552 124.643 200.014C123.273 199.465 121.349 197.779 121.349 197.779Z" fill="#212121"/>
<path d="M189.393 196.366C189.357 196.697 189.04 196.937 188.523 197.277C188.25 197.454 187.403 198.081 186.512 198.697C186.02 199.037 185.233 199.391 184.534 199.602C182.381 200.251 181.63 199.824 181.63 199.824C181.596 198.594 182.539 197.22 183.065 196.826C184.777 195.542 185.877 195.087 186.217 194.033C186.474 193.179 187.141 192.84 187.078 191.95L187.882 191.662L189.112 193.726C189.112 193.725 189.521 194.924 189.393 196.366Z" fill="#212121"/>
<path d="M182.291 166.222C181.546 163.327 182.071 161.64 182.466 158.677L184.003 147.157L174.059 144.145C174.059 144.145 174.54 156.571 175.209 161.663C175.387 163.017 175.462 164.383 175.48 165.749C175.523 169.075 177.104 179.58 178.418 190.517C178.514 191.308 178.713 192.668 178.248 193.315C177.613 194.201 176.172 194.529 174.249 195.023C171.587 195.992 172.054 197.167 172.054 197.167C172.054 197.167 176.506 197.005 180.207 197.108C181.653 197.147 181.59 195.57 181.59 195.57L181.446 192.56C181.406 191.706 181.45 190.851 181.568 190.003C182.292 184.803 184.003 172.869 182.291 166.222Z" fill="#FAD6B7"/>
<path d="M176.479 195.633C175.388 195.633 176.258 194.417 174.369 194.921C173.627 195.118 172.874 195.483 172.472 195.861C171.714 196.575 171.842 197.231 171.842 197.231C171.842 197.231 177.041 197.234 180.196 197.21C181.581 197.2 181.541 196.82 181.56 196.356C181.59 195.57 181.544 194.588 181.544 194.588C181.544 194.588 177.425 195.633 176.479 195.633Z" fill="#212121"/>
<path d="M144.828 127.381C144.828 127.381 148.257 126.819 149.542 126.176C150.827 125.534 151.229 126.578 151.551 126.778C151.872 126.979 156.049 127.14 155.888 128.184C155.727 129.228 154.924 130.835 154.041 131.397C153.157 131.959 144.801 130.03 144.801 130.03L144.828 127.381Z" fill="#FFCCBC"/>
<path d="M152.772 126.987C152.661 126.987 152.236 127.061 150.638 127.615C149.737 127.929 150.393 126.858 151.03 126.252C151.261 126.451 151.414 126.691 151.552 126.779C151.654 126.844 152.148 126.904 152.772 126.987Z" fill="#FFCCBC"/>
<path d="M131.848 100.626L136.461 106.763C136.461 106.763 141.578 122.018 139.177 146.727C139.129 147.216 138.72 147.601 138.229 147.603C137.341 147.607 136.22 147.453 135.714 146.853C129.96 140.016 130.347 104.507 130.347 104.507L131.848 100.626Z" fill="#1A3463"/>
<path d="M131.37 103.204C131.37 103.204 138.045 108.504 138.181 127.774C138.211 132.092 137.552 134.955 137.552 134.955C137.552 134.955 134.364 136.41 132.182 134.955C130 133.5 130.41 125.775 130.41 125.775L124.55 102.771L131.37 103.204Z" fill="#E0E0E0"/>
<path d="M132.031 101.983L132.596 102.685C132.937 103.109 133.071 103.663 132.959 104.196C132.959 104.196 139.945 113.867 137.875 133.013C137.848 133.259 137.552 134.956 137.552 134.956C137.552 134.956 136.431 133.419 136.17 132.803C137.897 115.574 131.975 104.553 131.975 104.553L131.21 104.214L132.031 101.983Z" fill="#FBC02D"/>
<path d="M135.827 97.3733C135.393 98.1925 134.281 99.2536 132.598 100.217C132.253 100.414 132.099 101.309 132.031 101.983C131.987 102.424 131.661 102.771 131.661 102.771H124.55C124.55 102.771 125.755 102.048 126.526 100.216C126.96 99.2044 126.767 97.9994 126.092 97.1318C125.224 95.9752 124.116 94.0474 124.116 89.6137C124.116 84.5534 127.779 82.8667 130.863 82.8667C135.201 82.8667 137.273 85.8064 137.273 91.3484C137.273 93.277 136.887 95.3012 135.827 97.3733Z" fill="#FFCCBC"/>
<path d="M123.297 89.6145C123.297 84.5543 126.285 82 130.863 82C133.079 82 135.465 82.829 137.119 84.0311C138.532 85.0578 138.292 87.2353 136.702 87.9569L133.899 89.2287C133.899 89.2287 132.936 89.7105 132.936 90.9155C132.887 91.7346 132.309 91.9273 131.972 92.1204C131.586 90.5301 131.008 90.1926 130.478 90.1926C130.189 90.1926 129.851 90.241 129.562 90.4817C129.177 90.8191 129.08 91.3972 129.08 91.9757C129.08 92.6235 129.524 93.9101 129.839 94.3279C130.127 94.7092 130.106 95.2336 129.763 95.5653C128.696 96.5968 125.834 98.2299 125.834 98.2299C126.172 96.1975 123.297 95.4136 123.297 89.6145Z" fill="#212121"/>
<path d="M126.747 98.8691L132.03 101.984L131.074 105.599L125.446 101.357L126.747 98.8691Z" fill="#EEEEEE"/>
<path d="M138.054 194.596C133.815 193.688 134.125 191.549 134.125 191.549L130.386 191.406L130.178 195.767C130.178 195.767 129.967 197.21 130.841 197.21H140.521C140.521 197.21 140.556 196.981 140.515 196.728C140.412 196.1 139.95 195.03 138.054 194.596Z" fill="#212121"/>
<path d="M138.044 138.773C138.044 138.773 137.772 151.304 137.772 166.833C137.772 177.663 136.076 193.61 136.076 193.61H129.923C129.923 193.61 128.652 179.146 129.768 170.632C129.768 170.632 129.51 155.094 129.101 151.276C128.692 147.46 131.209 135.601 138.044 138.773Z" fill="#1D3B70"/>
<path d="M134.447 138.281C134.177 149.191 131.131 162.905 130.04 167.407C128.949 171.905 124.743 194.237 124.743 194.237C124.743 194.237 124.533 195.28 122.59 195.416C120.387 195.57 118.593 194.237 118.593 194.237C118.593 181.273 120.942 169.646 121.61 166.94C121.143 156.239 121.282 145.419 121.282 145.419L127.002 135.599L134.447 138.281Z" fill="#1F4172"/>
<path d="M131.48 134.144C131.48 134.144 134.734 135.598 137.629 134.509C138.182 136.192 138.045 138.773 138.045 138.773C138.045 138.773 133.232 140.07 129.592 138.773C125.951 137.476 131.48 134.144 131.48 134.144Z" fill="#1D3B70"/>
<path d="M125.829 100.626C125.829 100.626 121.431 106.6 119.959 109.019C116.951 113.962 120.986 125.194 121.082 129.62C121.082 136.787 120.301 147.318 120.301 147.318L135.57 148.392C136.418 148.461 137.155 147.816 137.197 146.966C137.399 142.876 138.23 133.303 138.455 126.54C138.57 123.088 135.213 114.063 133.205 110.413C130.546 105.579 125.829 100.626 125.829 100.626Z" fill="#22477D"/>
<path d="M125.828 100.626C125.828 100.626 125.081 101.669 124.116 103.027C125.059 104.136 125.997 105.599 125.997 105.599L128.739 105.807L127.691 108.605C127.691 108.605 130.456 112.114 131.366 114.341C132.13 116.21 138.181 127.774 138.181 127.774C139.042 122.764 135.714 113.736 133.706 110.086C131.046 105.253 125.828 100.626 125.828 100.626Z" fill="#285394"/>
<path d="M123.832 108.768C121.987 109.518 120.023 112.236 122.854 116.672C124.682 119.538 127.717 125.265 130.427 128.626C132.774 131.538 144.242 131.233 146.757 131.246L146.666 126.718L136.695 123.62C136.695 123.62 135.237 119.906 132.306 114.146C129.901 109.421 127.134 107.426 123.832 108.768Z" fill="#254E8A"/>
<path d="M158.47 129.758C158.47 129.758 156.732 131.385 154.333 131.171C155.38 129.88 155.886 128.17 155.886 128.17C155.968 127.477 154.12 127.177 152.809 126.992C152.804 126.988 152.795 126.988 152.772 126.988C152.661 126.988 152.236 127.061 150.638 127.616C149.737 127.93 150.393 126.858 151.03 126.253C151.234 126.064 151.437 125.92 151.585 125.879C152.78 125.56 154.76 126.329 155.674 126.733C156.041 126.895 156.428 127.009 156.822 127.08L157.989 127.289L158.47 129.758Z" fill="#FAD6B7"/>
<path d="M150.501 130.349C150.501 130.349 150.038 131.134 150.346 131.348C150.655 131.562 153.331 131.87 153.6 131.793C153.869 131.716 154.139 130.965 153.773 130.754C153.408 130.542 151.194 129.964 150.501 130.349Z" fill="#FAD6B7"/>
<path d="M181.404 153.986C181.404 153.986 184.459 164.506 184.332 165.846C183.165 172.139 186.123 190.439 186.01 192.051C185.833 194.587 185.449 195.031 184.002 196.146C184.14 196.038 184.426 195.532 185.064 195.909C185.779 196.33 185.403 197.252 185.833 197.124C188.191 196.424 189.149 194.086 189.113 193.724C188.932 191.914 192.5 173.193 190.504 165.479C191.622 159.277 191.622 155.446 191.622 155.446L181.404 153.986Z" fill="#FAD6B7"/>
<path d="M184.72 83.7288L184.199 105.413H190.086C190.086 105.413 191.879 99.9956 191.858 93.839C191.843 89.7665 191.215 82.856 187.318 82.856C185.311 82.8555 184.72 83.7288 184.72 83.7288Z" fill="#212121"/>
<path d="M187.263 96.2903C188.074 96.2903 188.732 95.4863 188.732 94.4945C188.732 93.5027 188.074 92.6987 187.263 92.6987C186.452 92.6987 185.794 93.5027 185.794 94.4945C185.794 95.4863 186.452 96.2903 187.263 96.2903Z" fill="#FAD6B7"/>
<path d="M188.291 90.5912C188.291 93.3669 186.31 99.881 182.635 99.881C178.718 99.881 177.029 93.3669 177.029 90.5912C177.029 87.8155 179.55 85.5654 182.66 85.5654C185.77 85.5654 188.291 87.8155 188.291 90.5912Z" fill="#FAD6B7"/>
<path d="M188.488 103.008C188.488 103.008 186.148 111.266 183.101 111.699C180.053 111.266 177.714 103.008 177.714 103.008C181.386 103.286 180.516 97.8862 180.516 97.8862H185.687C185.686 97.8866 184.378 101.475 188.488 103.008Z" fill="#FAD6B7"/>
<path d="M182.856 83.5166C178.939 83.5166 176.98 86.5945 176.98 89.6723C176.98 92.9347 177.788 94.8023 177.788 94.8023C177.788 94.0843 176.726 90.141 178.789 89.1594C182.411 87.5416 184.461 94.4943 188.732 94.4943C188.732 94.4943 189.221 93.0704 189.221 89.6723C189.221 88.1332 188.242 83.5166 182.856 83.5166Z" fill="#212121"/>
<path d="M172.104 126.408C171.605 127.476 169.006 129.027 166.532 129.769C161.798 131.189 158.721 131.013 158.721 131.013L157.989 127.289C157.989 127.289 166.307 123.817 166.778 123.776C167.113 122.153 167.463 121.103 168.092 117.913C169.416 111.202 170.092 106.659 172.346 105.575C174.273 104.649 178.176 103.007 178.176 103.007C178.176 103.007 174.657 120.93 172.104 126.408Z" fill="#A31919"/>
<path d="M176.64 128.608C176.64 128.608 174.281 131.426 172.603 137.083C172.363 142.33 172.523 156.816 174.928 166.22H190.508C191.59 158.687 193.061 149.524 192.886 144.586C192.467 132.747 189.559 128.608 189.559 128.608H176.64V128.608Z" fill="#D32F2F"/>
<path d="M191.333 119.185C191.314 124.125 187.356 128.605 187.356 128.605H174.333C174.333 128.605 174.621 124.616 174.579 119.455C174.904 113.877 174.174 108.746 173.462 105.064C175.377 104.175 177.713 103.485 177.713 103.485C179.64 102.76 179.146 102.619 180.033 101.87C180.033 101.87 180.223 106.706 181.796 106.706C183.368 106.706 186.272 101.501 186.272 101.501C186.88 102.187 186.559 102.284 188.486 103.008C188.486 103.008 190.787 104.156 192.696 105.046C191.995 107.494 191.357 113.662 191.333 119.185Z" fill="#F5F5F5"/>
<path d="M180.033 101.872C177.712 106.613 175.204 110.693 175.204 112.278C175.204 113.289 176.784 119.523 177.616 121.21C177.844 123.502 176.992 129.271 176.402 133.513C176.01 136.34 174.365 138.838 171.924 140.317C171.924 140.317 173.48 130.524 173.35 126.495C173.305 125.156 171.82 118.635 171.808 117.345C171.901 114.348 172.297 113.664 172.345 105.576C176.874 103.206 179.58 102.352 180.033 101.872Z" fill="#B71C1C"/>
<path d="M180.033 101.872C177.712 107.672 176.579 113.486 176.579 115.072C176.579 116.082 177.454 119.574 177.616 121.21C177.616 121.21 174.684 118.318 174.357 115.341C174.06 112.639 174.38 107.45 174.38 107.45L177.028 105.413L175.919 104.155C177.545 103.398 178.353 102.369 180.033 101.872Z" fill="#D32F2F"/>
<path d="M202.017 141.592H202.955C203.268 141.592 203.521 141.846 203.521 142.158V146.075H202.017V141.592Z" fill="#424242"/>
<path d="M194.739 141.592H195.678V146.075H194.173V142.158C194.173 141.846 194.426 141.592 194.739 141.592Z" fill="#424242"/>
<path d="M196.143 144.418H193.707V145.736H196.143V144.418Z" fill="#78909C"/>
<path d="M203.988 144.418H201.552V145.736H203.988V144.418Z" fill="#78909C"/>
<path d="M194.718 141.592H202.977C203.278 141.592 203.522 141.836 203.522 142.138V143.042H194.173V142.138C194.173 141.837 194.417 141.592 194.718 141.592Z" fill="#424242"/>
<path d="M196.91 140.008C196.91 140.008 196.354 142.626 196.739 143.988C197.041 145.053 199.332 144.081 200.315 143.607C200.601 143.469 200.793 143.194 200.82 142.878C200.892 142.03 200.913 140.323 200.067 139.392C198.912 138.122 196.91 140.008 196.91 140.008Z" fill="#FAD6B7"/>
<path d="M196.179 140.008C196.179 140.008 195.832 131.885 195.234 128.478C194.782 125.905 192.868 121.245 191.721 117.038C189.989 110.681 188.487 107.343 188.487 107.343C188.487 107.343 191.879 104.748 193.855 105.576C196.006 106.477 197.302 111.777 198.759 118.103C200.238 124.526 200.238 124.526 200.524 127.315C200.819 130.194 201.107 139.777 201.107 139.777L196.179 140.008Z" fill="#B71C1C"/>
<path d="M191.036 126.282C192.747 133.478 193.642 140.455 193.642 140.455L190.763 139.683C187.036 138.685 184.274 135.548 183.749 131.725C183.239 128.013 182.723 123.729 182.792 122.039C183.786 119.621 186.443 108.388 186.443 108.388C186.443 108.388 187.46 102.319 188.487 103.006C188.487 103.006 191.946 104.688 193.855 105.576C192.084 107.642 192.168 112.887 191.832 117.591C191.828 118.819 191.15 123.502 191.036 126.282Z" fill="#B71C1C"/>
<path d="M182.793 122.038C182.885 119.789 184.515 115.054 186.272 101.502C186.829 101.761 188.843 102.912 190.093 104.132L187.548 104.793L190.093 106.829C190.093 106.829 188.487 112.214 182.793 122.038Z" fill="#D32F2F"/>
<path d="M185.785 166.22H187.899V145.434H185.785C184.879 145.434 184.145 146.168 184.145 147.074V164.58C184.145 165.486 184.879 166.22 185.785 166.22Z" fill="#78909C"/>
<path d="M184.145 148.176H188.199V145.434H185.345C184.682 145.434 184.145 145.971 184.145 146.634L184.145 148.176Z" fill="#424242"/>
<path d="M188.532 166.221H187.298C186.595 166.221 186.026 165.652 186.026 164.949V146.707C186.026 146.005 186.595 145.436 187.298 145.436H188.532C187.7 145.436 187.029 146.107 187.029 146.939V164.717C187.029 165.549 187.7 166.221 188.532 166.221Z" fill="#90A4AE"/>
<path d="M187.712 166.222H186.478C186.457 166.222 186.436 166.222 186.415 166.219H187.661C187.676 166.222 187.694 166.222 187.712 166.222Z" fill="#90A4AE"/>
<path d="M191.802 145.435V166.219H188.481C187.674 166.195 187.028 165.531 187.028 164.718V146.939C187.028 146.107 187.701 145.435 188.532 145.435H191.802Z" fill="#78909C"/>
<path d="M190.601 145.435V148.176H187.028V146.939C187.028 146.107 187.701 145.435 188.532 145.435H190.601Z" fill="#424242"/>
<path d="M189.236 164.949L189.237 148.177L189.862 146.977C189.862 146.314 189.992 145.934 190.655 145.934L191.801 145.434H208.827C209.528 145.434 210.098 146.003 210.098 146.705V164.949C210.098 165.652 209.528 166.221 208.826 166.221H190.508C189.805 166.22 189.236 165.651 189.236 164.949Z" fill="#B0BEC5"/>
<path d="M189.236 148.176L189.237 146.634C189.238 145.971 189.775 145.434 190.438 145.434H191.785L191.802 148.176H189.236Z" fill="#616161"/>
<path d="M210.098 148.177L210.097 146.705C210.096 146.003 209.527 145.434 208.825 145.434H207.549L207.532 148.177H210.098V148.177Z" fill="#616161"/>
<path d="M208.822 146.705H190.513V164.949H208.822V146.705Z" fill="#CFD8DC"/>
<path d="M192.132 153.822C192.132 153.461 192.424 153.169 192.785 153.169H206.55C206.91 153.169 207.203 153.462 207.203 153.822C207.203 154.183 206.91 154.475 206.55 154.475H192.785C192.424 154.475 192.132 154.183 192.132 153.822Z" fill="#ECEFF1"/>
<path d="M192.132 157.832C192.132 157.471 192.424 157.179 192.785 157.179H206.55C206.91 157.179 207.203 157.472 207.203 157.832C207.203 158.192 206.91 158.485 206.55 158.485H192.785C192.424 158.485 192.132 158.192 192.132 157.832Z" fill="#ECEFF1"/>
</g>
<defs>
<radialGradient id="paint0_radial" cx="0" cy="0" r="1" gradientUnits="userSpaceOnUse" gradientTransform="translate(163.166 152.523) scale(130.904 125.703)">
<stop offset="0.0031" stop-color="white" stop-opacity="0"/>
<stop offset="0.9506" stop-color="white" stop-opacity="0.8553"/>
<stop offset="1" stop-color="white"/>
</radialGradient>
<radialGradient id="paint1_radial" cx="0" cy="0" r="1" gradientUnits="userSpaceOnUse" gradientTransform="translate(163.013 152.523) scale(130.904 125.703)">
<stop offset="0.0031" stop-color="white" stop-opacity="0"/>
<stop offset="0.8167" stop-color="white" stop-opacity="0.7344"/>
<stop offset="0.9506" stop-color="white" stop-opacity="0.8553"/>
<stop offset="1" stop-color="white"/>
</radialGradient>
<linearGradient id="paint2_linear" x1="162.77" y1="205.41" x2="162.77" y2="197.21" gradientUnits="userSpaceOnUse">
<stop stop-color="white"/>
<stop offset="1" stop-color="#E0E0E0"/>
</linearGradient>
<clipPath id="clip0">
<rect width="328" height="246" fill="white"/>
</clipPath>
</defs>
</svg>
