<svg xmlns="http://www.w3.org/2000/svg" fill="none" height="800" viewBox="0 0 1440 800"><path fill="#F2FAF8" d="M0 0h1440v800H0z"/><mask id="a" maskUnits="userSpaceOnUse" x="0" y="0" width="1440" height="800"><path fill="#fff" d="M0 0h1440v800H0z"/></mask><g mask="url(#a)"><path stroke="#92C7B8" stroke-width=".5" d="M1297.85 304.826l243.66-177.028"/><path fill-rule="evenodd" clip-rule="evenodd" d="M1292.5 319c5.25 0 9.5-4.253 9.5-9.5s-4.25-9.5-9.5-9.5-9.5 4.253-9.5 9.5 4.25 9.5 9.5 9.5z" fill="url(#paint0_linear)"/><path clip-rule="evenodd" d="M273 266c265.097 0 480-214.9033 480-480 0-265.097-214.903-480-480-480-265.09686 0-480 214.903-480 480 0 265.0967 214.90314 480 480 480z" stroke="#C0A46B" stroke-width=".5"/><path fill-rule="evenodd" clip-rule="evenodd" d="M574.5 173c8.008 0 14.5-6.492 14.5-14.5s-6.492-14.5-14.5-14.5-14.5 6.492-14.5 14.5 6.492 14.5 14.5 14.5z" fill="#F2FAF8"/><path fill-rule="evenodd" clip-rule="evenodd" d="M574.5 173c8.008 0 14.5-6.492 14.5-14.5s-6.492-14.5-14.5-14.5-14.5 6.492-14.5 14.5 6.492 14.5 14.5 14.5z" fill="url(#paint1_linear)"/><path clip-rule="evenodd" d="M574.5 173c8.008 0 14.5-6.492 14.5-14.5s-6.492-14.5-14.5-14.5-14.5 6.492-14.5 14.5 6.492 14.5 14.5 14.5z" stroke="#C0A46B" stroke-dasharray="4 4"/><path fill-rule="evenodd" clip-rule="evenodd" d="M259 343c55.228 0 100-44.772 100-100s-44.772-100-100-100c-55.229 0-100 44.772-100 100s44.771 100 100 100z" fill="#F2FAF8"/><path fill-rule="evenodd" clip-rule="evenodd" d="M259 343c55.228 0 100-44.772 100-100s-44.772-100-100-100c-55.229 0-100 44.772-100 100s44.771 100 100 100z" fill="url(#paint2_linear)"/><path clip-rule="evenodd" d="M259 343c55.228 0 100-44.772 100-100s-44.772-100-100-100c-55.229 0-100 44.772-100 100s44.771 100 100 100z" stroke="#C0A46B" stroke-width="2" stroke-dasharray="8 8"/><path clip-rule="evenodd" d="M988 1522c265.1 0 480-214.9 480-480 0-265.097-214.9-480-480-480-265.097 0-480 214.903-480 480 0 265.1 214.903 480 480 480z" stroke="#92C7B8" stroke-width=".5"/><path clip-rule="evenodd" d="M988.5 1385c189.16 0 342.5-153.34 342.5-342.5 0-189.158-153.34-342.5-342.5-342.5C799.342 700 646 853.342 646 1042.5c0 189.16 153.342 342.5 342.5 342.5z" stroke="#92C7B8" stroke-width=".5"/><path fill-rule="evenodd" clip-rule="evenodd" d="M1069 666c55.23 0 100-44.772 100-100s-44.77-100-100-100-100 44.772-100 100 44.77 100 100 100z" fill="#87B9AB"/><path fill-rule="evenodd" clip-rule="evenodd" d="M1069 666c55.23 0 100-44.772 100-100s-44.77-100-100-100-100 44.772-100 100 44.77 100 100 100z" fill="url(#paint3_linear)"/><path fill-rule="evenodd" clip-rule="evenodd" d="M669.5 695c8.008 0 14.5-6.492 14.5-14.5s-6.492-14.5-14.5-14.5-14.5 6.492-14.5 14.5 6.492 14.5 14.5 14.5z" fill="url(#paint4_linear)"/><path fill-rule="evenodd" clip-rule="evenodd" d="M818.987 592.659c.153.382.288 1.006-.606 1.837-3.482 3.238-10.714 7.148-14.774 13.109-.087.129-.449.676-3.55 2.631l-6.899-17.215c3.593-.728 4.232-.582 4.384-.55 7.053 1.508 14.984-.659 19.739-.722 1.22-.016 1.553.528 1.706.91z" fill="#359177"/><path fill-rule="evenodd" clip-rule="evenodd" d="M818.987 592.659c.153.382.288 1.006-.606 1.837-3.482 3.238-10.714 7.148-14.774 13.109-.087.129-.449.676-3.55 2.631l-6.899-17.215c3.593-.728 4.232-.582 4.384-.55 7.053 1.508 14.984-.659 19.739-.722 1.22-.016 1.553.528 1.706.91z" fill="url(#paint5_linear)"/><path fill-rule="evenodd" clip-rule="evenodd" d="M818.987 592.659c.153.382.288 1.006-.606 1.837-3.482 3.238-10.714 7.148-14.774 13.109-.087.129-.449.676-3.55 2.631l-6.899-17.215c3.593-.728 4.232-.582 4.384-.55 7.053 1.508 14.984-.659 19.739-.722 1.22-.016 1.553.528 1.706.91z" fill="url(#paint6_linear)"/><path stroke="#C0A46B" stroke-width=".5" d="M-78.1471 859.952L358.591 542.643"/><path fill-rule="evenodd" clip-rule="evenodd" d="M376.534 528.179c.25.327.548.891-.088 1.932-2.479 4.058-8.389 9.774-10.689 16.609-.05.147-.25.772-2.709 3.491l-11.288-14.715c3.263-1.67 3.918-1.702 4.073-1.712 7.198-.451 14.251-4.677 18.812-6.021 1.17-.344 1.638.089 1.889.416z" fill="url(#paint7_linear)"/></g><defs><linearGradient id="paint0_linear" x1="1306.75" y1="307.616" x2="1292.63" y2="296.389" gradientUnits="userSpaceOnUse"><stop stop-color="#79B1A6"/><stop offset="1" stop-color="#D7EAE1"/></linearGradient><linearGradient id="paint1_linear" x1="558.753" y1="158.308" x2="575.521" y2="175.706" gradientUnits="userSpaceOnUse"><stop stop-color="#F4E2BC" stop-opacity=".2"/><stop offset="1" stop-color="#B17F18" stop-opacity=".2"/></linearGradient><linearGradient id="paint2_linear" x1="150.398" y1="241.675" x2="266.044" y2="361.66" gradientUnits="userSpaceOnUse"><stop stop-color="#F4E2BC" stop-opacity=".2"/><stop offset="1" stop-color="#B17F18" stop-opacity=".2"/></linearGradient><linearGradient id="paint3_linear" x1="946.541" y1="577.531" x2="1095.12" y2="693.402" gradientUnits="userSpaceOnUse"><stop stop-color="#D7EAE1"/><stop offset="1" stop-color="#79B1A6"/></linearGradient><linearGradient id="paint4_linear" x1="691.243" y1="677.625" x2="669.697" y2="660.489" gradientUnits="userSpaceOnUse"><stop stop-color="#79B1A6"/><stop offset="1" stop-color="#D7EAE1"/></linearGradient><linearGradient id="paint5_linear" x1="818.236" y1="592.947" x2="797.355" y2="584.015" gradientUnits="userSpaceOnUse"><stop stop-color="#79B1A6"/><stop offset="1" stop-color="#0D6763"/></linearGradient><linearGradient id="paint6_linear" x1="802.317" y1="590.173" x2="803.379" y2="615.469" gradientUnits="userSpaceOnUse"><stop stop-color="#79B1A6"/><stop offset="1" stop-color="#0D6763"/></linearGradient><linearGradient id="paint7_linear" x1="349.954" y1="535.966" x2="362.23" y2="552.595" gradientUnits="userSpaceOnUse"><stop stop-color="#EFDAAF"/><stop offset="1" stop-color="#BF9F5E"/></linearGradient></defs></svg>
