<svg width="516" height="300" viewBox="0 0 516 300" fill="none" xmlns="http://www.w3.org/2000/svg"><path opacity=".7" clip-rule="evenodd" d="M256 220c109.352 0 198-28.43 198-63.5S365.352 93 256 93 58 121.43 58 156.5 146.648 220 256 220z" stroke="#92C7B8" stroke-width=".688"/><path opacity=".4" clip-rule="evenodd" d="M256 242c140.28 0 254-38.28 254-85.5S396.28 71 256 71 2 109.28 2 156.5 115.72 242 256 242z" stroke="#92C7B8" stroke-width=".688"/><path fill-rule="evenodd" clip-rule="evenodd" d="M255.901 210.446c29.758 0 53.88-24.123 53.88-53.88 0-29.758-24.122-53.88-53.88-53.88-29.757 0-53.88 24.122-53.88 53.88 0 29.757 24.123 53.88 53.88 53.88z" fill="#437D6D"/><path fill-rule="evenodd" clip-rule="evenodd" d="M255.901 210.446c29.758 0 53.88-24.123 53.88-53.88 0-29.758-24.122-53.88-53.88-53.88-29.757 0-53.88 24.122-53.88 53.88 0 29.757 24.123 53.88 53.88 53.88z" fill="#4E8764"/><path fill-rule="evenodd" clip-rule="evenodd" d="M255.901 210.446c29.758 0 53.88-24.123 53.88-53.88 0-29.758-24.122-53.88-53.88-53.88-29.757 0-53.88 24.122-53.88 53.88 0 29.757 24.123 53.88 53.88 53.88z" fill="#3D725E"/><path fill-rule="evenodd" clip-rule="evenodd" d="M255.901 210.446c29.758 0 53.88-24.123 53.88-53.88 0-29.758-24.122-53.88-53.88-53.88-29.757 0-53.88 24.122-53.88 53.88 0 29.757 24.123 53.88 53.88 53.88z" fill="url(#paint0_linear)"/><path opacity=".7" d="M215 118c-53.952 5.041-93 19.764-93 37.141 0 21.539 59.994 39 134 39s134-17.461 134-39c0-17.377-39.048-32.1-93-37.141" stroke="#92C7B8" stroke-width=".688"/><path fill-rule="evenodd" clip-rule="evenodd" d="M444.226 112.847c6.037 0 10.93-4.882 10.93-10.904 0-6.0231-4.893-10.9054-10.93-10.9054s-10.93 4.8823-10.93 10.9054c0 6.022 4.893 10.904 10.93 10.904z" fill="url(#paint1_linear)"/><path fill-rule="evenodd" clip-rule="evenodd" d="M422.037 18c-3.04 0-5.504 2.4642-5.504 5.504v43.5167c0 3.0398 2.464 5.504 5.504 5.504h14.098l7.254 7.2432 7.254-7.2432h15.037c3.04 0 5.504-2.4642 5.504-5.504V23.504c0-3.0398-2.464-5.504-5.504-5.504h-43.643z" fill="url(#paint2_linear)"/><path d="M427.463 35.0395h32.79M427.463 41.8544h32.79M427.463 48.6703h32.79M427.463 54.8044h16.395" stroke="#9ACABD" stroke-width="1.376" stroke-linecap="square"/><path fill-rule="evenodd" clip-rule="evenodd" d="M367.504 75c-3.04 0-5.504 2.4642-5.504 5.504v43.517c0 3.039 2.464 5.504 5.504 5.504h14.099l7.254 7.243 7.253-7.243h15.037c3.04 0 5.504-2.465 5.504-5.504V80.504c0-3.0398-2.464-5.504-5.504-5.504h-43.643z" fill="url(#paint3_linear)"/><path d="M372.931 92.039h32.79M372.931 98.8544h32.79M372.931 105.669h32.79M372.931 111.804h16.395" stroke="#9ACABD" stroke-width="1.376" stroke-linecap="square"/><path fill-rule="evenodd" clip-rule="evenodd" d="M389.603 167.925c5.29 0 9.579-4.288 9.579-9.578 0-5.29-4.289-9.579-9.579-9.579-5.29 0-9.579 4.289-9.579 9.579 0 5.29 4.289 9.578 9.579 9.578z" fill="url(#paint4_linear)"/><path fill-rule="evenodd" clip-rule="evenodd" d="M389.603 167.925c5.29 0 9.579-4.288 9.579-9.578 0-5.29-4.289-9.579-9.579-9.579-5.29 0-9.579 4.289-9.579 9.579 0 5.29 4.289 9.578 9.579 9.578z" fill="url(#paint5_linear)"/><path fill-rule="evenodd" clip-rule="evenodd" d="M105.538 242.365c9.919 0 17.96-8.041 17.96-17.96s-8.041-17.96-17.96-17.96c-9.9189 0-17.9599 8.041-17.9599 17.96s8.041 17.96 17.9599 17.96z" fill="url(#paint6_linear)"/><path fill-rule="evenodd" clip-rule="evenodd" d="M83.504 137c-3.0398 0-5.504 2.464-5.504 5.504v43.132c0 3.04 2.4642 5.504 5.504 5.504h14.2548l7.3072 7.048 7.307-7.048h15.2c3.04 0 5.504-2.464 5.504-5.504v-43.132c0-3.04-2.464-5.504-5.504-5.504H83.504z" fill="url(#paint7_linear)"/><path d="M89.0156 153.918h33.0464M89.0156 160.687h33.0464M89.0156 167.454h33.0464M89.0156 173.544h16.5234" stroke="#9ACABD" stroke-width="1.376" stroke-linecap="square"/><path fill-rule="evenodd" clip-rule="evenodd" d="M232.67 30.8457c-3.04 0-5.504 2.4642-5.504 5.504V79.482c0 3.0398 2.464 5.504 5.504 5.504h14.254l7.308 7.0481 7.308-7.0481h15.199c3.04 0 5.504-2.4642 5.504-5.504V36.3497c0-3.0398-2.464-5.504-5.504-5.504H232.67z" fill="url(#paint8_linear)"/><path d="M238.181 47.7646h33.046M238.181 54.5327h33.046M238.181 61.3003h33.046M238.181 67.3901h16.523" stroke="#9ACABD" stroke-width="1.376" stroke-linecap="square"/><defs><linearGradient id="paint0_linear" x1="331.822" y1="166.239" x2="263.73" y2="85.7176" gradientUnits="userSpaceOnUse"><stop stop-color="#0D6763"/><stop offset="1" stop-color="#D7EAE1"/></linearGradient><linearGradient id="paint1_linear" x1="460.616" y1="99.7802" x2="444.404" y2="86.8565" gradientUnits="userSpaceOnUse"><stop stop-color="#79B1A6"/><stop offset="1" stop-color="#D7EAE1"/></linearGradient><linearGradient id="paint2_linear" x1="468.614" y1="75.584" x2="468.614" y2="19.6262" gradientUnits="userSpaceOnUse"><stop stop-color="#D7EAE1"/><stop offset="1" stop-color="#fff"/></linearGradient><linearGradient id="paint3_linear" x1="414.08" y1="132.584" x2="414.08" y2="76.6262" gradientUnits="userSpaceOnUse"><stop stop-color="#D7EAE1"/><stop offset="1" stop-color="#fff"/></linearGradient><linearGradient id="paint4_linear" x1="404.563" y1="156.493" x2="389.805" y2="144.756" gradientUnits="userSpaceOnUse"><stop stop-color="#438F83"/><stop offset="1" stop-color="#fff"/></linearGradient><linearGradient id="paint5_linear" x1="402.661" y1="156.189" x2="389.383" y2="145.629" gradientUnits="userSpaceOnUse"><stop stop-color="#BC1A24"/><stop offset="1" stop-color="#FFBFB1"/></linearGradient><linearGradient id="paint6_linear" x1="84.9907" y1="223.798" x2="106.447" y2="246.06" gradientUnits="userSpaceOnUse"><stop stop-color="#EFDAAF"/><stop offset="1" stop-color="#BF9F5E"/></linearGradient><linearGradient id="paint7_linear" x1="130.487" y1="194.043" x2="130.487" y2="138.611" gradientUnits="userSpaceOnUse"><stop stop-color="#D7EAE1"/><stop offset="1" stop-color="#fff"/></linearGradient><linearGradient id="paint8_linear" x1="279.653" y1="87.8895" x2="279.653" y2="32.4567" gradientUnits="userSpaceOnUse"><stop stop-color="#D7EAE1"/><stop offset="1" stop-color="#fff"/></linearGradient></defs></svg>
