<svg xmlns="http://www.w3.org/2000/svg" fill="none" viewBox="0 0 1680 800"><path fill="#F2FAF8" d="M0 0h1680v800H0z"/><mask id="a" maskUnits="userSpaceOnUse" x="0" y="0" width="1680" height="800"><path fill="#fff" d="M0 0h1680v800H0z"/></mask><g mask="url(#a)"><path stroke="#92C7B8" stroke-width=".5" d="M1438.85 290.826l243.66-177.029"/><path fill-rule="evenodd" clip-rule="evenodd" d="M1433.5 305c5.25 0 9.5-4.253 9.5-9.5s-4.25-9.5-9.5-9.5-9.5 4.253-9.5 9.5 4.25 9.5 9.5 9.5z" fill="url(#paint0_linear)"/><path clip-rule="evenodd" d="M414 252c265.097 0 480-214.9033 480-480 0-265.097-214.903-480-480-480S-66-493.097-66-228c0 265.0967 214.903 480 480 480z" stroke="#C0A46B" stroke-width=".5"/><path fill-rule="evenodd" clip-rule="evenodd" d="M715.5 159c8.008 0 14.5-6.492 14.5-14.5s-6.492-14.5-14.5-14.5-14.5 6.492-14.5 14.5 6.492 14.5 14.5 14.5z" fill="#F2FAF8"/><path fill-rule="evenodd" clip-rule="evenodd" d="M715.5 159c8.008 0 14.5-6.492 14.5-14.5s-6.492-14.5-14.5-14.5-14.5 6.492-14.5 14.5 6.492 14.5 14.5 14.5z" fill="url(#paint1_linear)"/><path clip-rule="evenodd" d="M715.5 159c8.008 0 14.5-6.492 14.5-14.5s-6.492-14.5-14.5-14.5-14.5 6.492-14.5 14.5 6.492 14.5 14.5 14.5z" stroke="#C0A46B" stroke-dasharray="4 4"/><path fill-rule="evenodd" clip-rule="evenodd" d="M400 329c55.228 0 100-44.772 100-100s-44.772-100-100-100-100 44.772-100 100 44.772 100 100 100z" fill="#F2FAF8"/><path fill-rule="evenodd" clip-rule="evenodd" d="M400 329c55.228 0 100-44.772 100-100s-44.772-100-100-100-100 44.772-100 100 44.772 100 100 100z" fill="url(#paint2_linear)"/><path clip-rule="evenodd" d="M400 329c55.228 0 100-44.772 100-100s-44.772-100-100-100-100 44.772-100 100 44.772 100 100 100z" stroke="#C0A46B" stroke-width="2" stroke-dasharray="8 8"/><path clip-rule="evenodd" d="M1129 1508c265.1 0 480-214.9 480-480 0-265.097-214.9-480-480-480-265.097 0-480 214.903-480 480 0 265.1 214.903 480 480 480z" stroke="#92C7B8" stroke-width=".5"/><path clip-rule="evenodd" d="M1129.5 1371c189.16 0 342.5-153.34 342.5-342.5 0-189.158-153.34-342.5-342.5-342.5C940.343 686 787 839.342 787 1028.5c0 189.16 153.343 342.5 342.5 342.5z" stroke="#92C7B8" stroke-width=".5"/><path fill-rule="evenodd" clip-rule="evenodd" d="M1210 652c55.23 0 100-44.772 100-100s-44.77-100-100-100-100 44.772-100 100 44.77 100 100 100z" fill="#87B9AB"/><path fill-rule="evenodd" clip-rule="evenodd" d="M1210 652c55.23 0 100-44.772 100-100s-44.77-100-100-100-100 44.772-100 100 44.77 100 100 100z" fill="url(#paint3_linear)"/><path fill-rule="evenodd" clip-rule="evenodd" d="M810.5 681c8.008 0 14.5-6.492 14.5-14.5s-6.492-14.5-14.5-14.5-14.5 6.492-14.5 14.5 6.492 14.5 14.5 14.5z" fill="url(#paint4_linear)"/><path fill-rule="evenodd" clip-rule="evenodd" d="M959.987 578.659c.154.382.288 1.006-.605 1.837-3.482 3.238-10.715 7.148-14.774 13.109-.088.129-.45.676-3.551 2.631l-6.899-17.215c3.593-.728 4.233-.582 4.384-.55 7.053 1.508 14.984-.659 19.739-.722 1.22-.016 1.553.528 1.706.91z" fill="#359177"/><path fill-rule="evenodd" clip-rule="evenodd" d="M959.987 578.659c.154.382.288 1.006-.605 1.837-3.482 3.238-10.715 7.148-14.774 13.109-.088.129-.45.676-3.551 2.631l-6.899-17.215c3.593-.728 4.233-.582 4.384-.55 7.053 1.508 14.984-.659 19.739-.722 1.22-.016 1.553.528 1.706.91z" fill="url(#paint5_linear)"/><path fill-rule="evenodd" clip-rule="evenodd" d="M959.987 578.659c.154.382.288 1.006-.605 1.837-3.482 3.238-10.715 7.148-14.774 13.109-.088.129-.45.676-3.551 2.631l-6.899-17.215c3.593-.728 4.233-.582 4.384-.55 7.053 1.508 14.984-.659 19.739-.722 1.22-.016 1.553.528 1.706.91z" fill="url(#paint6_linear)"/><path stroke="#C0A46B" stroke-width=".5" d="M62.8531 845.952L499.591 528.643"/><path fill-rule="evenodd" clip-rule="evenodd" d="M517.534 514.179c.25.327.548.891-.088 1.932-2.479 4.058-8.389 9.774-10.689 16.609-.05.147-.25.772-2.709 3.491l-11.288-14.715c3.263-1.67 3.919-1.702 4.073-1.712 7.198-.451 14.251-4.677 18.812-6.021 1.171-.344 1.638.089 1.889.416z" fill="url(#paint7_linear)"/></g><defs><linearGradient id="paint0_linear" x1="1447.75" y1="293.616" x2="1433.63" y2="282.389" gradientUnits="userSpaceOnUse"><stop stop-color="#79B1A6"/><stop offset="1" stop-color="#D7EAE1"/></linearGradient><linearGradient id="paint1_linear" x1="699.753" y1="144.308" x2="716.521" y2="161.706" gradientUnits="userSpaceOnUse"><stop stop-color="#F4E2BC" stop-opacity=".2"/><stop offset="1" stop-color="#B17F18" stop-opacity=".2"/></linearGradient><linearGradient id="paint2_linear" x1="291.399" y1="227.675" x2="407.044" y2="347.66" gradientUnits="userSpaceOnUse"><stop stop-color="#F4E2BC" stop-opacity=".2"/><stop offset="1" stop-color="#B17F18" stop-opacity=".2"/></linearGradient><linearGradient id="paint3_linear" x1="1087.54" y1="563.531" x2="1236.12" y2="679.402" gradientUnits="userSpaceOnUse"><stop stop-color="#D7EAE1"/><stop offset="1" stop-color="#79B1A6"/></linearGradient><linearGradient id="paint4_linear" x1="832.244" y1="663.625" x2="810.698" y2="646.489" gradientUnits="userSpaceOnUse"><stop stop-color="#79B1A6"/><stop offset="1" stop-color="#D7EAE1"/></linearGradient><linearGradient id="paint5_linear" x1="959.236" y1="578.947" x2="938.355" y2="570.015" gradientUnits="userSpaceOnUse"><stop stop-color="#79B1A6"/><stop offset="1" stop-color="#0D6763"/></linearGradient><linearGradient id="paint6_linear" x1="943.317" y1="576.173" x2="944.379" y2="601.469" gradientUnits="userSpaceOnUse"><stop stop-color="#79B1A6"/><stop offset="1" stop-color="#0D6763"/></linearGradient><linearGradient id="paint7_linear" x1="490.954" y1="521.966" x2="503.23" y2="538.595" gradientUnits="userSpaceOnUse"><stop stop-color="#EFDAAF"/><stop offset="1" stop-color="#BF9F5E"/></linearGradient></defs></svg>
