<svg width="328" height="246" viewBox="0 0 328 246" fill="none" xmlns="http://www.w3.org/2000/svg">
<path d="M328 0H0V246H328V0Z" fill="white"/>
<path d="M328 0H0V246H328V0Z" fill="white"/>
<path d="M328 34.4399H0V237.39H328V34.4399Z" fill="url(#paint0_radial)"/>
<path d="M328 177.571H0V246H328V177.571Z" fill="white"/>
<path d="M164.984 40.1799H51.8652V175.562H164.984V40.1799Z" fill="#D3D3D3"/>
<path d="M167.485 177.571H49.4053V38.1299H167.485V177.571ZM56.3753 171.872H160.515V43.8289H56.3753V171.872Z" fill="#E0E0E0"/>
<path d="M164.984 82.4099H51.8652V88.1089H164.984V82.4099Z" fill="#E0E0E0"/>
<path d="M164.984 126.69H51.8652V132.389H164.984V126.69Z" fill="#E0E0E0"/>
<path d="M154.447 55.5139H117.752V82.4099H154.447V55.5139Z" fill="#F5F5F5"/>
<path d="M153.545 56.1699H118.654V81.7539H153.545V56.1699Z" fill="#F5F5F5"/>
<path d="M123.123 57.8921H117.752V60.2291H123.123V57.8921Z" fill="#EAEAEA"/>
<g opacity="0.64">
<path opacity="0.64" d="M150.716 57.8921H141.45V63.9601H150.716V57.8921Z" fill="#FAFAFA"/>
</g>
<path d="M145.222 76.3831H141.45V79.4581H145.222V76.3831Z" fill="#EAEAEA"/>
<path d="M150.715 76.3831H146.943V79.4581H150.715V76.3831Z" fill="#EAEAEA"/>
<path d="M138.662 55.5139H133.496V63.9599H138.662V55.5139Z" fill="#EAE9E8"/>
<path d="M102.296 144.976H65.6006V171.872H102.296V144.976Z" fill="#F5F5F5"/>
<path d="M101.353 145.632H66.4619V171.216H101.353V145.632Z" fill="#F5F5F5"/>
<path d="M70.9716 147.354H65.6006V149.691H70.9716V147.354Z" fill="#EAEAEA"/>
<g opacity="0.64">
<path opacity="0.64" d="M98.5648 147.354H89.2988V153.422H98.5648V147.354Z" fill="#FAFAFA"/>
</g>
<path d="M98.564 165.845H94.792V168.92H98.564V165.845Z" fill="#EAEAEA"/>
<path d="M86.5107 144.976H81.3447V153.422H86.5107V144.976Z" fill="#EAE9E8"/>
<path d="M153.996 136.202H105.329V171.872H153.996V136.202Z" fill="#F5F5F5"/>
<path d="M152.849 137.062H106.519V171.01H152.849V137.062Z" fill="#F5F5F5"/>
<path d="M112.463 139.359H105.329V142.475H112.463V139.359Z" fill="#EAEAEA"/>
<g opacity="0.64">
<path opacity="0.64" d="M149.076 139.359H136.776V147.395H149.076V139.359Z" fill="#FAFAFA"/>
</g>
<path d="M141.778 163.836H136.776V167.936H141.778V163.836Z" fill="#EAEAEA"/>
<path d="M149.076 163.836H144.074V167.936H149.076V163.836Z" fill="#EAEAEA"/>
<path d="M133.086 136.202H126.239V147.395H133.086V136.202Z" fill="#EAE9E8"/>
<path d="M124.026 99.7939H60.3115V126.69H124.026V99.7939Z" fill="#F5F5F5"/>
<path d="M123.165 100.45H61.2139V126.034H123.165V100.45Z" fill="#F5F5F5"/>
<path d="M65.6825 102.172H60.3115V104.509H65.6825V102.172Z" fill="#EAEAEA"/>
<g opacity="0.64">
<path opacity="0.64" d="M120.335 102.172H111.069V108.24H120.335V102.172Z" fill="#FAFAFA"/>
</g>
<path d="M94.7519 99.7939H89.5859V108.24H94.7519V99.7939Z" fill="#EAE9E8"/>
<path d="M112.587 51.6189H70.5615V82.4099H112.587V51.6189Z" fill="#F5F5F5"/>
<path d="M111.562 52.3569H71.5869V81.6719H111.562V52.3569Z" fill="#F5F5F5"/>
<path d="M76.7115 54.325H70.5615V57.031H76.7115V54.325Z" fill="#EAEAEA"/>
<path d="M102.049 75.4807H97.7441V79.0067H102.049V75.4807Z" fill="#EAEAEA"/>
<path d="M94.5466 51.6189H88.6426V61.2949H94.5466V51.6189Z" fill="#EAE9E8"/>
<path d="M157.276 92.865H127.715V126.69H157.276V92.865Z" fill="#F5F5F5"/>
<path d="M156.579 93.3982H128.453V126.157H156.579V93.3982Z" fill="#F5F5F5"/>
<path d="M132.02 94.792H127.715V96.678H132.02V94.792Z" fill="#EAEAEA"/>
<g opacity="0.64">
<path opacity="0.64" d="M154.282 94.792H146.82V99.671H154.282V94.792Z" fill="#FAFAFA"/>
</g>
<path d="M149.854 121.811H146.82V124.312H149.854V121.811Z" fill="#EAEAEA"/>
<path d="M144.566 92.865H140.425V99.671H144.566V92.865Z" fill="#EAE9E8"/>
<path d="M276.095 40.1799H162.976V175.562H276.095V40.1799Z" fill="#D3D3D3"/>
<path d="M278.596 177.571H160.516V38.1299H278.596V177.571ZM167.486 171.872H271.626V43.8289H167.486V171.872Z" fill="#E0E0E0"/>
<path d="M276.095 82.4099H162.976V88.1089H276.095V82.4099Z" fill="#E0E0E0"/>
<path d="M276.095 126.69H162.976V132.389H276.095V126.69Z" fill="#E0E0E0"/>
<path d="M242.351 140.261H167.403V171.872H242.351V140.261Z" fill="#F5F5F5"/>
<path d="M241.286 141.04H168.429V171.134H241.286V141.04Z" fill="#F5F5F5"/>
<path d="M173.717 143.049H167.403V145.796H173.717V143.049Z" fill="#EAEAEA"/>
<g opacity="0.64">
<path opacity="0.64" d="M237.924 143.049H227.059V150.183H237.924V143.049Z" fill="#FAFAFA"/>
</g>
<path d="M231.487 164.779H227.059V168.387H231.487V164.779Z" fill="#EAEAEA"/>
<path d="M207.871 140.261H201.803V150.183H207.871V140.261Z" fill="#EAE9E8"/>
<path d="M254.16 95.8989H212.135V126.69H254.16V95.8989Z" fill="#F5F5F5"/>
<path d="M253.135 96.637H213.16V125.952H253.135V96.637Z" fill="#F5F5F5"/>
<path d="M218.285 98.605H212.135V101.311H218.285V98.605Z" fill="#EAEAEA"/>
<path d="M249.896 119.761H245.591V123.287H249.896V119.761Z" fill="#EAEAEA"/>
<path d="M236.079 95.8989H230.175V105.575H236.079V95.8989Z" fill="#EAE9E8"/>
<path d="M233.167 48.749H187.247V82.41H233.167V48.749Z" fill="#F5F5F5"/>
<path d="M232.059 49.5691H188.354V81.5901H232.059V49.5691Z" fill="#F5F5F5"/>
<path d="M193.971 51.7422H187.247V54.6942H193.971V51.7422Z" fill="#EAEAEA"/>
<path d="M221.606 74.825H216.891V78.679H221.606V74.825Z" fill="#EAEAEA"/>
<path d="M213.446 48.749H206.968V59.327H213.446V48.749Z" fill="#EAE9E8"/>
<path d="M200.614 109.265H175.727V126.69H200.614V109.265Z" fill="#F5F5F5"/>
<path d="M200.04 109.675H176.342V126.239H200.04V109.675Z" fill="#F5F5F5"/>
<path d="M179.376 110.864H175.727V112.463H179.376V110.864Z" fill="#EAEAEA"/>
<path d="M194.382 122.59H191.84V124.681H194.382V122.59Z" fill="#EAEAEA"/>
<path d="M189.913 109.265H186.428V115.005H189.913V109.265Z" fill="#EAE9E8"/>
<path d="M195.899 92.1267H171.012V109.552H195.899V92.1267Z" fill="#F5F5F5"/>
<path d="M195.325 92.5776H171.627V109.142H195.325V92.5776Z" fill="#F5F5F5"/>
<path d="M174.661 93.7258H171.012V95.3248H174.661V93.7258Z" fill="#EAEAEA"/>
<path d="M189.626 105.452H187.084V107.543H189.626V105.452Z" fill="#EAEAEA"/>
<path d="M193.356 105.452H190.814V107.543H193.356V105.452Z" fill="#EAEAEA"/>
<path d="M185.198 92.1267H181.713V97.8667H185.198V92.1267Z" fill="#EAE9E8"/>
<path d="M328 0H0V191.06H328V0Z" fill="url(#paint1_radial)"/>
<path opacity="0.2" d="M72.5701 208.649H256.906C261.457 208.649 265.106 204.959 265.106 200.449H64.3701C64.3701 205 68.0191 208.649 72.5701 208.649Z" fill="url(#paint2_linear)"/>
<path d="M190.199 103.73H143.992V145.222H190.199V103.73Z" fill="#E0AF73"/>
<path d="M189.092 104.714H145.099V144.197H189.092V104.714Z" fill="#E7B674"/>
<path d="M150.757 107.379H143.992V110.987H150.757V107.379Z" fill="#E8D7C8"/>
<path d="M185.894 106.723H174.25V116.071H185.894V106.723Z" fill="#E8D7C8"/>
<path d="M182.655 112.094H175.275V112.545H182.655V112.094Z" fill="#997B5E"/>
<path d="M183.434 113.283H175.275V113.734H183.434V113.283Z" fill="#997B5E"/>
<path d="M176.505 108.199H175.275V109.429H176.505V108.199Z" fill="#997B5E"/>
<path d="M170.355 103.73H163.836V116.768H170.355V103.73Z" fill="#D39F66"/>
<path d="M141.122 122.918H117.219V145.222H141.122V122.918Z" fill="#E0AF73"/>
<path d="M140.589 123.451H117.834V144.689H140.589V123.451Z" fill="#E7B674"/>
<path d="M120.704 124.804H117.219V126.69H120.704V124.804Z" fill="#E8D7C8"/>
<path d="M138.505 137.173L132.944 134.85L131.08 139.314L136.641 141.637L138.505 137.173Z" fill="#E8D7C8"/>
<path d="M136.878 138.86L132.604 137.075L132.525 137.264L136.799 139.049L136.878 138.86Z" fill="#997B5E"/>
<path d="M135.885 139.113L132.367 137.643L132.288 137.832L135.806 139.302L135.885 139.113Z" fill="#997B5E"/>
<path d="M136.008 139.796L132.111 138.169L132.032 138.358L135.929 139.985L136.008 139.796Z" fill="#997B5E"/>
<path d="M133.755 136.026L133.149 135.773L132.897 136.378L133.502 136.631L133.755 136.026Z" fill="#997B5E"/>
<path d="M134.613 136.393L134.008 136.14L133.755 136.745L134.36 136.998L134.613 136.393Z" fill="#997B5E"/>
<path d="M130.872 122.918H127.51V129.642H130.872V122.918Z" fill="#D39F66"/>
<path d="M167.813 145.181H114.841V200.49H167.813V145.181Z" fill="#E0AF73"/>
<path d="M166.541 146.329H116.111V199.342H166.541V146.329Z" fill="#E7B674"/>
<path d="M122.59 149.363H114.841V153.504H122.59V149.363Z" fill="#E8D7C8"/>
<path d="M163.056 164.164H147.23V176.874H163.056V164.164Z" fill="#E8D7C8"/>
<path d="M160.802 169.822H148.625V170.396H160.802V169.822Z" fill="#997B5E"/>
<path d="M158.629 171.462H148.625V172.036H158.629V171.462Z" fill="#997B5E"/>
<path d="M150.306 166.173H148.625V167.854H150.306V166.173Z" fill="#997B5E"/>
<path d="M152.766 166.173H151.085V167.854H152.766V166.173Z" fill="#997B5E"/>
<path d="M156.525 167.494L142.104 174.013L147.34 185.594L161.76 179.076L156.525 167.494Z" fill="#E8D7C8"/>
<path d="M156.764 173.582L145.668 178.598L145.904 179.121L157 174.105L156.764 173.582Z" fill="#997B5E"/>
<path d="M152.536 179.067L147.007 181.566L147.243 182.089L152.772 179.59L152.536 179.067Z" fill="#997B5E"/>
<path d="M155.469 175.953L146.354 180.073L146.59 180.596L155.706 176.476L155.469 175.953Z" fill="#997B5E"/>
<path d="M145.704 174.602L144.172 175.294L144.864 176.826L146.396 176.133L145.704 174.602Z" fill="#997B5E"/>
<path d="M145.058 145.181H137.596V160.105H145.058V145.181Z" fill="#D39F66"/>
<path d="M167.844 200.477L213.928 200.477L213.928 145.168L167.844 145.168L167.844 200.477Z" fill="#E0AF73"/>
<path d="M168.95 199.493L212.82 199.493L212.82 146.152L168.95 146.152L168.95 199.493Z" fill="#E7B674"/>
<path d="M207.157 152.41L213.922 152.41L213.922 148.802L207.157 148.802L207.157 152.41Z" fill="#E8D7C8"/>
<path d="M184.13 148.83H172.486V158.178H184.13V148.83Z" fill="#E8D7C8"/>
<path d="M182.45 152.971H173.512V153.422H182.45V152.971Z" fill="#997B5E"/>
<path d="M180.892 154.16H173.512V154.611H180.892V154.16Z" fill="#997B5E"/>
<path d="M181.671 155.349H173.512V155.8H181.671V155.349Z" fill="#997B5E"/>
<path d="M174.742 150.265H173.512V151.495H174.742V150.265Z" fill="#997B5E"/>
<path d="M176.545 150.265H175.315V151.495H176.545V150.265Z" fill="#997B5E"/>
<path d="M187.647 158.141L194.125 158.141L194.125 145.144L187.647 145.144L187.647 158.141Z" fill="#D39F66"/>
<path d="M205.928 197.932L210.766 197.932L210.766 193.094L205.928 193.094L205.928 197.932Z" fill="#D39F66"/>
<path d="M237.964 110.413H199.178V145.222H237.964V110.413Z" fill="#E0AF73"/>
<path d="M236.98 111.233H200.08V144.361H236.98V111.233Z" fill="#E7B674"/>
<path d="M204.836 113.447H199.178V116.481H204.836V113.447Z" fill="#E8D7C8"/>
<path d="M210.22 119.503L200.908 122.554L203.36 130.035L212.672 126.984L210.22 119.503Z" fill="#E8D7C8"/>
<path d="M210.011 123.266L202.842 125.615L202.957 125.966L210.126 123.617L210.011 123.266Z" fill="#997B5E"/>
<path d="M209.018 124.634L203.135 126.562L203.25 126.912L209.133 124.984L209.018 124.634Z" fill="#997B5E"/>
<path d="M203.09 123.119L202.116 123.438L202.435 124.412L203.409 124.093L203.09 123.119Z" fill="#997B5E"/>
<path d="M204.533 122.669L203.559 122.989L203.878 123.963L204.852 123.643L204.533 122.669Z" fill="#997B5E"/>
<path d="M221.277 110.413H215.824V121.319H221.277V110.413Z" fill="#D39F66"/>
<path d="M213.819 177.928L248.054 177.928L248.054 145.169L213.819 145.169L213.819 177.928Z" fill="#E0AF73"/>
<path d="M214.638 177.19L247.233 177.19L247.233 145.907L214.638 145.907L214.638 177.19Z" fill="#E7B674"/>
<path d="M243.04 150.545L248.042 150.545L248.042 147.88L243.04 147.88L243.04 150.545Z" fill="#E8D7C8"/>
<path d="M244.645 163.373L236.914 159.489L233.803 165.681L241.533 169.565L244.645 163.373Z" fill="#E8D7C8"/>
<path d="M242.162 165.569L236.227 162.587L236.079 162.88L242.015 165.863L242.162 165.569Z" fill="#997B5E"/>
<path d="M240.704 165.834L235.831 163.386L235.684 163.679L240.557 166.127L240.704 165.834Z" fill="#997B5E"/>
<path d="M240.827 166.908L235.404 164.184L235.257 164.477L240.679 167.201L240.827 166.908Z" fill="#997B5E"/>
<path d="M237.915 161.23L237.109 160.825L236.704 161.631L237.51 162.036L237.915 161.23Z" fill="#997B5E"/>
<path d="M239.118 161.803L238.312 161.398L237.907 162.204L238.713 162.609L239.118 161.803Z" fill="#997B5E"/>
<path d="M228.496 154.797L233.334 154.797L233.334 145.162L228.496 145.162L228.496 154.797Z" fill="#D39F66"/>
<path d="M219.149 200.479L253.384 200.479L253.384 177.97L219.149 177.97L219.149 200.479Z" fill="#E0AF73"/>
<path d="M219.764 199.905L252.728 199.905L252.728 178.544L219.764 178.544L219.764 199.905Z" fill="#E7B674"/>
<path d="M249.498 182.148L253.393 182.148L253.393 180.057L249.498 180.057L249.498 182.148Z" fill="#E8D7C8"/>
<path d="M225.876 193.766L232.559 193.766L232.559 188.395L225.876 188.395L225.876 193.766Z" fill="#E8D7C8"/>
<path d="M226.78 191.004L231.946 191.004L231.946 190.758L226.78 190.758L226.78 191.004Z" fill="#997B5E"/>
<path d="M227.733 191.716L231.956 191.716L231.956 191.47L227.733 191.47L227.733 191.716Z" fill="#997B5E"/>
<path d="M227.277 192.386L231.951 192.386L231.951 192.14L227.277 192.14L227.277 192.386Z" fill="#997B5E"/>
<path d="M231.258 189.925L231.955 189.925L231.955 189.228L231.258 189.228L231.258 189.925Z" fill="#997B5E"/>
<path d="M230.205 189.925L230.902 189.925L230.902 189.228L230.205 189.228L230.205 189.925Z" fill="#997B5E"/>
<path d="M234.423 185.437L238.154 185.437L238.154 177.975L234.423 177.975L234.423 185.437Z" fill="#D39F66"/>
<path d="M157.604 192.536H152.766V197.374H157.604V192.536Z" fill="#D39F66"/>
<path d="M164.655 192.536H159.817V197.374H164.655V192.536Z" fill="#D39F66"/>
<path d="M113.447 99.5479C113.447 99.5479 111.315 99.4659 108.937 97.8259C106.272 95.9399 104.632 94.7509 101.926 95.4889C99.4662 96.1859 99.0152 98.8509 100.409 99.8349C102.5 101.311 106.108 99.5069 107.871 100.245C111.438 99.9169 113.447 99.5479 113.447 99.5479Z" fill="#B71C1C"/>
<path d="M110.291 93.3159C108.938 92.6189 107.585 92.8649 105.33 94.1359C103.772 94.9969 102.747 96.6369 102.665 98.4409C102.419 104.099 103.075 109.142 105.986 109.101C110.086 109.06 111.808 106.477 112.546 105.493C112.956 104.96 114.309 102.459 114.391 99.7119C114.391 97.4159 113.53 94.9149 110.291 93.3159Z" fill="#FFCCBC"/>
<path d="M105.247 108.076C105.247 108.076 106.559 111.602 104.837 112.996C103.935 113.734 105.821 118.531 108.322 118.203C110.577 117.875 114.718 112.422 114.39 112.094C113.242 110.7 112.504 107.953 113.078 104.632C113.365 102.705 106.477 104.222 105.247 108.076Z" fill="#FFCCBC"/>
<path d="M114.882 99.958C114.882 99.958 116.481 92.619 109.839 91.635C106.272 91.102 103.443 92.988 103.074 95.735C106.723 96.555 108.199 98.933 110.413 99.712C112.34 100.368 113.939 99.835 113.939 99.835C114.513 99.917 114.882 99.958 114.882 99.958Z" fill="#C62828"/>
<path d="M115.086 101.656C115.371 100.537 115.033 99.4847 114.331 99.3057C113.629 99.1268 112.829 99.889 112.544 101.008C112.258 102.127 112.597 103.179 113.299 103.358C114.001 103.537 114.801 102.775 115.086 101.656Z" fill="#FFCCBC"/>
<path d="M113.037 99.9578C113.037 99.9578 111.52 99.7528 108.978 97.7848C106.395 95.7758 104.673 94.7098 101.967 95.4478C105.042 95.7758 106.969 99.2198 108.363 100.204C110.454 101.721 113.037 99.9578 113.037 99.9578Z" fill="#E53935"/>
<path d="M128.33 127.838C127.756 129.56 127.223 130.667 127.715 132.184C128.207 133.66 128.535 134.316 128.945 135.095C130.749 138.703 132.143 138.744 132.84 135.751C133.332 133.455 132.922 133.086 132.348 132.43C132.102 132.143 131.815 131.733 131.569 131.405C131.241 130.954 131.2 130.38 131.405 129.888L128.33 127.838Z" fill="#FFCCBC"/>
<path d="M135.546 122.549L132.389 130.913C130.298 128.822 127.387 129.355 127.387 129.355L128.74 123L121.319 123.738L121.073 126.157C121.073 126.157 120.827 131.774 120.54 133.988C120.417 134.89 120.458 137.063 120.54 138.17C120.745 141.204 119.925 141.901 119.925 141.901C119.925 141.901 109.306 146.985 98.6873 141.901C98.7283 141.532 98.1953 141.901 98.3593 139.154C98.4003 138.662 99.8763 126.526 99.8763 126.526L95.6533 119.597C95.9813 117.588 97.6623 115.21 99.6303 114.349L105.616 111.807C105.616 111.807 106.477 114.226 108.773 114.185C112.627 114.103 113.488 110.577 113.488 110.577L120.663 112.463C121.811 112.791 122.918 113.324 123.861 114.021L133.25 117.137C135.587 117.711 136.735 120.417 135.546 122.549Z" fill="#64B5F6"/>
<path d="M121.607 112.709L118.04 130.257L114.842 129.478L118.409 111.848L120.582 112.422C120.951 112.504 121.279 112.586 121.607 112.709Z" fill="#3949AB"/>
<path d="M105.33 129.478L102.132 130.216C99.3847 120.868 99.2617 114.431 99.2617 114.431C99.3847 114.39 99.4667 114.349 99.5897 114.267L102.337 113.119C102.337 113.119 102.829 121.729 105.33 129.478Z" fill="#3949AB"/>
<path d="M118.45 127.1L117.343 142.926C110.291 146.657 102.87 144.812 100.492 142.762C99.0981 136.53 101.558 125.993 101.558 125.993C106.888 126.608 118.45 127.1 118.45 127.1Z" fill="#3949AB"/>
<path d="M114.637 130.298L113.899 139.564C113.899 139.564 107.872 140.425 104.223 139.687C103.649 132.963 105.002 129.97 105.002 129.97L114.637 130.298Z" fill="#4859AF"/>
<path d="M128.699 122.959L121.278 123.697C121.278 123.697 123.082 116.563 123.82 113.98L133.209 117.096C129.56 116.85 128.699 122.959 128.699 122.959Z" fill="#54B0EF"/>
<path d="M119.638 145.14C120.868 152.274 118.08 162.278 116.604 169.863C116.768 174.537 115.292 180.359 112.791 192.331C112.258 194.791 105.985 184.951 105.985 184.951L107.461 168.838L106.887 155.882L107.871 145.017C107.912 144.976 119.228 142.721 119.638 145.14Z" fill="#3949AB"/>
<path d="M115.825 178.35C115.825 178.35 111.971 196.39 111.151 200.449H104.591L107.215 171.872L115.825 178.35Z" fill="#344599"/>
<path d="M84.0092 134.48C85.2392 134.562 79.0482 133.865 78.3102 132.758C77.7362 131.856 76.9982 129.396 78.0232 128.781C78.6792 128.412 81.3442 129.109 82.5742 130.134C82.8612 130.339 83.6402 129.97 83.7632 129.642L84.1322 128.412C84.9932 128.494 85.5262 130.749 85.5262 130.749L84.0092 134.48Z" fill="#FFCCBC"/>
<path d="M95.6528 119.556L91.9218 131.61L85.5668 130.708L84.0088 134.521C84.0088 134.521 94.3818 138.252 96.6368 136.653C98.2768 135.505 100.45 128.33 100.409 125.009C98.9738 120.622 95.6528 119.556 95.6528 119.556Z" fill="#64B5F6"/>
<path d="M83.2304 134.48H79.2124C79.0074 134.48 78.8024 134.316 78.8024 134.111L78.0234 124.517H84.3784L83.5994 134.111C83.6404 134.316 83.4764 134.48 83.2304 134.48Z" fill="#E53935"/>
<path d="M84.1326 128.371L83.9686 129.97H78.5156L78.3926 128.371H84.1326Z" fill="#5D4037"/>
<path d="M84.8703 124.927H77.5723V124.353C77.5723 123.902 77.9413 123.574 78.3513 123.574H84.0503C84.5013 123.574 84.8293 123.943 84.8293 124.353V124.927H84.8703Z" fill="#5D4037"/>
<path d="M82.6152 129.191C82.6152 130.339 81.9592 131.282 81.2212 131.282C80.4832 131.282 79.8682 130.339 79.9092 129.15C79.9092 128.002 80.5652 127.059 81.3032 127.059C82.0412 127.059 82.6152 128.043 82.6152 129.191Z" fill="#FFE6C2"/>
<path d="M104.591 200.449C104.591 198.686 106.026 197.251 107.789 197.251C109.552 197.251 110.987 198.686 110.987 200.449H104.591Z" fill="#212121"/>
<path d="M120.007 192.126C120.499 191.306 120.581 190.281 119.556 189.42C118.285 188.354 115.907 186.919 115.907 186.919L112.75 189.01C112.75 189.01 112.627 189.174 113.447 189.953C115.292 191.716 113.406 197.005 112.791 197.128C110.29 197.743 111.11 200.408 111.11 200.408H114.882C115.866 199.998 118.654 194.34 120.007 192.126Z" fill="#212121"/>
<path d="M95.6945 173.225C105.575 184.787 112.832 192.331 112.832 192.331L117.752 187.37C117.752 187.37 110.905 174.373 105.288 169.904C105.001 169.699 104.919 169.289 105.042 168.961C106.764 164.369 108.281 157.604 108.732 155.964C107.748 152.602 109.265 146.862 109.265 146.862L110.208 145.14L98.3185 145.345C97.9905 146.329 94.6285 159.162 94.7105 170.519C94.7105 171.544 95.0795 172.487 95.6945 173.225Z" fill="#3949AB"/>
<path d="M119.638 145.14C119.679 143.91 119.843 142.762 119.843 141.86C119.843 141.86 109.511 145.878 98.6053 141.86L98.2773 145.386C98.3183 145.386 111.233 148.994 119.638 145.14Z" fill="#2E3F93"/>
<defs>
<radialGradient id="paint0_radial" cx="0" cy="0" r="1" gradientUnits="userSpaceOnUse" gradientTransform="translate(164 146.165) scale(145.131 110.512)">
<stop stop-color="#F2F2F2"/>
<stop offset="0.672" stop-color="#F4F4F4"/>
<stop offset="0.9213" stop-color="#FBFBFB"/>
<stop offset="1" stop-color="white"/>
</radialGradient>
<radialGradient id="paint1_radial" cx="0" cy="0" r="1" gradientUnits="userSpaceOnUse" gradientTransform="translate(163.385 179.539) scale(136.718 154.874)">
<stop stop-color="white" stop-opacity="0"/>
<stop offset="1" stop-color="white"/>
</radialGradient>
<linearGradient id="paint2_linear" x1="164.747" y1="200.467" x2="164.747" y2="208.667" gradientUnits="userSpaceOnUse">
<stop stop-color="#E0E0E0"/>
<stop offset="1" stop-color="white"/>
</linearGradient>
</defs>
</svg>
