<svg xmlns="http://www.w3.org/2000/svg" fill="none" height="800" viewBox="0 0 1024 800"><path fill="#F2FAF8" d="M0 0h1024v800H0z"/><mask id="a" maskUnits="userSpaceOnUse" x="0" y="0" width="1024" height="800"><path fill="#fff" d="M0 0h1024v800H0z"/></mask><g mask="url(#a)"><path stroke="#92C7B8" stroke-width=".5" d="M919.776 250.634l195.074-141.732"/><path fill-rule="evenodd" clip-rule="evenodd" d="M915.52 262.021c4.2 0 7.606-3.405 7.606-7.605 0-4.201-3.406-7.606-7.606-7.606-4.201 0-7.606 3.405-7.606 7.606 0 4.2 3.405 7.605 7.606 7.605z" fill="url(#paint0_linear)"/><path clip-rule="evenodd" d="M174.294 242.589c212.24 0 384.295-172.0546 384.295-384.295C558.589-353.946 386.534-526 174.294-526-37.9455-526-210-353.946-210-141.706c0 212.2404 172.0545 384.295 384.294 384.295z" stroke="#C0A46B" stroke-width=".5"/><path fill-rule="evenodd" clip-rule="evenodd" d="M415.679 168.132c6.412 0 11.609-5.198 11.609-11.609s-5.197-11.609-11.609-11.609c-6.411 0-11.609 5.198-11.609 11.609s5.198 11.609 11.609 11.609z" fill="#F2FAF8"/><path fill-rule="evenodd" clip-rule="evenodd" d="M415.679 168.132c6.412 0 11.609-5.198 11.609-11.609s-5.197-11.609-11.609-11.609c-6.411 0-11.609 5.198-11.609 11.609s5.198 11.609 11.609 11.609z" fill="url(#paint1_linear)"/><path clip-rule="evenodd" d="M415.679 168.132c6.412 0 11.609-5.198 11.609-11.609s-5.197-11.609-11.609-11.609c-6.411 0-11.609 5.198-11.609 11.609s5.198 11.609 11.609 11.609z" stroke="#C0A46B" stroke-dasharray="4 4"/><path fill-rule="evenodd" clip-rule="evenodd" d="M163.086 304.236c44.217 0 80.061-35.845 80.061-80.061 0-44.217-35.844-80.062-80.061-80.062-44.217 0-80.0615 35.845-80.0615 80.062 0 44.216 35.8445 80.061 80.0615 80.061z" fill="#F2FAF8"/><path fill-rule="evenodd" clip-rule="evenodd" d="M163.086 304.236c44.217 0 80.061-35.845 80.061-80.061 0-44.217-35.844-80.062-80.061-80.062-44.217 0-80.0615 35.845-80.0615 80.062 0 44.216 35.8445 80.061 80.0615 80.061z" fill="url(#paint2_linear)"/><path clip-rule="evenodd" d="M163.086 304.236c44.217 0 80.061-35.845 80.061-80.061 0-44.217-35.844-80.062-80.061-80.062-44.217 0-80.0615 35.845-80.0615 80.062 0 44.216 35.8445 80.061 80.0615 80.061z" stroke="#C0A46B" stroke-width="2" stroke-dasharray="8 8"/><path clip-rule="evenodd" d="M723.733 1366.16c212.24 0 384.297-172.06 384.297-384.295 0-212.24-172.057-384.295-384.297-384.295-212.24 0-384.294 172.055-384.294 384.295 0 212.235 172.054 384.295 384.294 384.295z" stroke="#92C7B8" stroke-width=".5"/><path clip-rule="evenodd" d="M724.133 1256.48c151.442 0 274.211-122.77 274.211-274.215 0-151.442-122.769-274.21-274.211-274.21s-274.21 122.768-274.21 274.21c0 151.445 122.768 274.215 274.21 274.215z" stroke="#92C7B8" stroke-width=".5"/><path fill-rule="evenodd" clip-rule="evenodd" d="M788.583 680.834c44.216 0 80.061-35.844 80.061-80.061 0-44.217-35.845-80.061-80.061-80.061-44.217 0-80.062 35.844-80.062 80.061 0 44.217 35.845 80.061 80.062 80.061z" fill="#87B9AB"/><path fill-rule="evenodd" clip-rule="evenodd" d="M788.583 680.834c44.216 0 80.061-35.844 80.061-80.061 0-44.217-35.845-80.061-80.061-80.061-44.217 0-80.062 35.844-80.062 80.061 0 44.217 35.845 80.061 80.062 80.061z" fill="url(#paint3_linear)"/><path fill-rule="evenodd" clip-rule="evenodd" d="M468.738 704.052c6.411 0 11.609-5.197 11.609-11.609 0-6.411-5.198-11.609-11.609-11.609-6.412 0-11.609 5.198-11.609 11.609 0 6.412 5.197 11.609 11.609 11.609z" fill="url(#paint4_linear)"/><path fill-rule="evenodd" clip-rule="evenodd" d="M588.419 622.117c.123.306.231.805-.485 1.47-2.788 2.593-8.578 5.723-11.828 10.496-.07.102-.36.541-2.842 2.106l-5.524-13.783c2.876-.583 3.389-.466 3.51-.44 5.646 1.207 11.996-.527 15.803-.578.977-.013 1.244.423 1.366.729z" fill="#359177"/><path fill-rule="evenodd" clip-rule="evenodd" d="M588.419 622.117c.123.306.231.805-.485 1.47-2.788 2.593-8.578 5.723-11.828 10.496-.07.102-.36.541-2.842 2.106l-5.524-13.783c2.876-.583 3.389-.466 3.51-.44 5.646 1.207 11.996-.527 15.803-.578.977-.013 1.244.423 1.366.729z" fill="url(#paint5_linear)"/><path fill-rule="evenodd" clip-rule="evenodd" d="M588.419 622.117c.123.306.231.805-.485 1.47-2.788 2.593-8.578 5.723-11.828 10.496-.07.102-.36.541-2.842 2.106l-5.524-13.783c2.876-.583 3.389-.466 3.51-.44 5.646 1.207 11.996-.527 15.803-.578.977-.013 1.244.423 1.366.729z" fill="url(#paint6_linear)"/><path stroke="#C0A46B" stroke-width=".5" d="M-129.868 841.075l349.659-254.042"/><path fill-rule="evenodd" clip-rule="evenodd" d="M234.185 575.493c.201.261.439.713-.07 1.547-1.985 3.248-6.716 7.825-8.558 13.297-.04.118-.2.618-2.169 2.795l-9.037-11.781c2.612-1.337 3.137-1.363 3.261-1.371 5.763-.361 11.409-3.744 15.061-4.82.937-.276 1.311.071 1.512.333z" fill="url(#paint7_linear)"/></g><defs><linearGradient id="paint0_linear" x1="926.925" y1="252.907" x2="915.623" y2="243.919" gradientUnits="userSpaceOnUse"><stop stop-color="#79B1A6"/><stop offset="1" stop-color="#D7EAE1"/></linearGradient><linearGradient id="paint1_linear" x1="403.072" y1="156.369" x2="416.497" y2="170.298" gradientUnits="userSpaceOnUse"><stop stop-color="#F4E2BC" stop-opacity=".2"/><stop offset="1" stop-color="#B17F18" stop-opacity=".2"/></linearGradient><linearGradient id="paint2_linear" x1="76.1381" y1="223.114" x2="168.725" y2="319.176" gradientUnits="userSpaceOnUse"><stop stop-color="#F4E2BC" stop-opacity=".2"/><stop offset="1" stop-color="#B17F18" stop-opacity=".2"/></linearGradient><linearGradient id="paint3_linear" x1="690.541" y1="610.005" x2="809.494" y2="702.773" gradientUnits="userSpaceOnUse"><stop stop-color="#D7EAE1"/><stop offset="1" stop-color="#79B1A6"/></linearGradient><linearGradient id="paint4_linear" x1="486.146" y1="690.141" x2="468.896" y2="676.422" gradientUnits="userSpaceOnUse"><stop stop-color="#79B1A6"/><stop offset="1" stop-color="#D7EAE1"/></linearGradient><linearGradient id="paint5_linear" x1="587.818" y1="622.347" x2="571.1" y2="615.196" gradientUnits="userSpaceOnUse"><stop stop-color="#79B1A6"/><stop offset="1" stop-color="#0D6763"/></linearGradient><linearGradient id="paint6_linear" x1="575.072" y1="620.126" x2="575.923" y2="640.378" gradientUnits="userSpaceOnUse"><stop stop-color="#79B1A6"/><stop offset="1" stop-color="#0D6763"/></linearGradient><linearGradient id="paint7_linear" x1="212.905" y1="581.727" x2="222.733" y2="595.04" gradientUnits="userSpaceOnUse"><stop stop-color="#EFDAAF"/><stop offset="1" stop-color="#BF9F5E"/></linearGradient></defs></svg>
