<svg xmlns="http://www.w3.org/2000/svg" fill="none" viewBox="0 0 768 800"><path fill="#F2FAF8" d="M0 0h768v800H0z"/><mask id="a" maskUnits="userSpaceOnUse" x="0" y="0" width="768" height="800"><path fill="#fff" d="M0 0h768v800H0z"/></mask><g mask="url(#a)"><path stroke="#92C7B8" stroke-width=".5" d="M690.902 246.718l161.951-117.664"/><path fill-rule="evenodd" clip-rule="evenodd" d="M687.394 256.206c3.487 0 6.314-2.827 6.314-6.314s-2.827-6.314-6.314-6.314c-3.488 0-6.315 2.827-6.315 6.314s2.827 6.314 6.315 6.314z" fill="url(#paint0_linear)"/><path clip-rule="evenodd" d="M152.037 240.074c176.199 0 319.037-142.8379 319.037-319.0371C471.074-255.162 328.236-398 152.037-398-24.1623-398-167-255.162-167-78.9631-167 97.2361-24.1623 240.074 152.037 240.074z" stroke="#C0A46B" stroke-width=".5"/><path fill-rule="evenodd" clip-rule="evenodd" d="M352.432 178.26c5.323 0 9.638-4.315 9.638-9.637 0-5.323-4.315-9.638-9.638-9.638-5.323 0-9.638 4.315-9.638 9.638 0 5.322 4.315 9.637 9.638 9.637z" fill="#F2FAF8"/><path fill-rule="evenodd" clip-rule="evenodd" d="M352.432 178.26c5.323 0 9.638-4.315 9.638-9.637 0-5.323-4.315-9.638-9.638-9.638-5.323 0-9.638 4.315-9.638 9.638 0 5.322 4.315 9.637 9.638 9.637z" fill="url(#paint1_linear)"/><path clip-rule="evenodd" d="M352.432 178.26c5.323 0 9.638-4.315 9.638-9.637 0-5.323-4.315-9.638-9.638-9.638-5.323 0-9.638 4.315-9.638 9.638 0 5.322 4.315 9.637 9.638 9.637z" stroke="#C0A46B" stroke-dasharray="4 4"/><path fill-rule="evenodd" clip-rule="evenodd" d="M142.732 291.253c36.708 0 66.466-29.758 66.466-66.466s-29.758-66.466-66.466-66.466c-36.709 0-66.4664 29.758-66.4664 66.466s29.7574 66.466 66.4664 66.466z" fill="#F2FAF8"/><path fill-rule="evenodd" clip-rule="evenodd" d="M142.732 291.253c36.708 0 66.466-29.758 66.466-66.466s-29.758-66.466-66.466-66.466c-36.709 0-66.4664 29.758-66.4664 66.466s29.7574 66.466 66.4664 66.466z" fill="url(#paint2_linear)"/><path clip-rule="evenodd" d="M142.732 291.253c36.708 0 66.466-29.758 66.466-66.466s-29.758-66.466-66.466-66.466c-36.709 0-66.4664 29.758-66.4664 66.466s29.7574 66.466 66.4664 66.466z" stroke="#C0A46B" stroke-width="2" stroke-dasharray="8 8"/><path clip-rule="evenodd" d="M555.175 1239.85c176.199 0 319.036-142.84 319.036-319.038 0-176.199-142.837-319.037-319.036-319.037-176.2 0-319.037 142.838-319.037 319.037 0 176.198 142.837 319.038 319.037 319.038z" stroke="#92C7B8" stroke-width=".5"/><path clip-rule="evenodd" d="M555.507 1148.79c125.725 0 227.646-101.92 227.646-227.645 0-125.726-101.921-227.646-227.646-227.646-125.726 0-227.646 101.92-227.646 227.646 0 125.725 101.92 227.645 227.646 227.645z" stroke="#92C7B8" stroke-width=".5"/><path fill-rule="evenodd" clip-rule="evenodd" d="M609.012 670.9c36.708 0 66.466-29.758 66.466-66.466s-29.758-66.466-66.466-66.466-66.466 29.758-66.466 66.466 29.758 66.466 66.466 66.466z" fill="#87B9AB"/><path fill-rule="evenodd" clip-rule="evenodd" d="M609.012 670.9c36.708 0 66.466-29.758 66.466-66.466s-29.758-66.466-66.466-66.466-66.466 29.758-66.466 66.466 29.758 66.466 66.466 66.466z" fill="url(#paint3_linear)"/><path fill-rule="evenodd" clip-rule="evenodd" d="M343.48 690.175c5.323 0 9.638-4.315 9.638-9.637 0-5.323-4.315-9.638-9.638-9.638-5.322 0-9.637 4.315-9.637 9.638 0 5.322 4.315 9.637 9.637 9.637z" fill="url(#paint4_linear)"/><path fill-rule="evenodd" clip-rule="evenodd" d="M442.839 622.153c.101.254.191.669-.403 1.221-2.314 2.152-7.122 4.751-9.82 8.713-.058.086-.298.45-2.359 1.749l-4.586-11.442c2.388-.484 2.813-.387 2.914-.365 4.687 1.002 9.959-.439 13.119-.48.811-.011 1.033.35 1.135.604z" fill="#359177"/><path fill-rule="evenodd" clip-rule="evenodd" d="M442.839 622.153c.101.254.191.669-.403 1.221-2.314 2.152-7.122 4.751-9.82 8.713-.058.086-.298.45-2.359 1.749l-4.586-11.442c2.388-.484 2.813-.387 2.914-.365 4.687 1.002 9.959-.439 13.119-.48.811-.011 1.033.35 1.135.604z" fill="url(#paint5_linear)"/><path fill-rule="evenodd" clip-rule="evenodd" d="M442.839 622.153c.101.254.191.669-.403 1.221-2.314 2.152-7.122 4.751-9.82 8.713-.058.086-.298.45-2.359 1.749l-4.586-11.442c2.388-.484 2.813-.387 2.914-.365 4.687 1.002 9.959-.439 13.119-.48.811-.011 1.033.35 1.135.604z" fill="url(#paint6_linear)"/><path stroke="#C0A46B" stroke-width=".5" d="M-127.5 803.896l290.282-210.903"/><path fill-rule="evenodd" clip-rule="evenodd" d="M174.757 583.447c.167.217.365.592-.058 1.284-1.648 2.697-5.576 6.497-7.105 11.04-.033.097-.166.513-1.8 2.32l-7.503-9.781c2.169-1.11 2.605-1.131 2.708-1.138 4.784-.299 9.471-3.109 12.503-4.001.778-.229 1.089.059 1.255.276z" fill="url(#paint7_linear)"/></g><defs><linearGradient id="paint0_linear" x1="696.862" y1="248.64" x2="687.48" y2="241.178" gradientUnits="userSpaceOnUse"><stop stop-color="#79B1A6"/><stop offset="1" stop-color="#D7EAE1"/></linearGradient><linearGradient id="paint1_linear" x1="341.965" y1="168.495" x2="353.111" y2="180.059" gradientUnits="userSpaceOnUse"><stop stop-color="#F4E2BC" stop-opacity=".2"/><stop offset="1" stop-color="#B17F18" stop-opacity=".2"/></linearGradient><linearGradient id="paint2_linear" x1="70.5486" y1="223.906" x2="147.413" y2="303.655" gradientUnits="userSpaceOnUse"><stop stop-color="#F4E2BC" stop-opacity=".2"/><stop offset="1" stop-color="#B17F18" stop-opacity=".2"/></linearGradient><linearGradient id="paint3_linear" x1="527.619" y1="612.098" x2="626.373" y2="689.113" gradientUnits="userSpaceOnUse"><stop stop-color="#D7EAE1"/><stop offset="1" stop-color="#79B1A6"/></linearGradient><linearGradient id="paint4_linear" x1="357.932" y1="678.627" x2="343.612" y2="667.237" gradientUnits="userSpaceOnUse"><stop stop-color="#79B1A6"/><stop offset="1" stop-color="#D7EAE1"/></linearGradient><linearGradient id="paint5_linear" x1="442.339" y1="622.345" x2="428.461" y2="616.408" gradientUnits="userSpaceOnUse"><stop stop-color="#79B1A6"/><stop offset="1" stop-color="#0D6763"/></linearGradient><linearGradient id="paint6_linear" x1="431.758" y1="620.501" x2="432.464" y2="637.314" gradientUnits="userSpaceOnUse"><stop stop-color="#79B1A6"/><stop offset="1" stop-color="#0D6763"/></linearGradient><linearGradient id="paint7_linear" x1="157.091" y1="588.622" x2="165.25" y2="599.675" gradientUnits="userSpaceOnUse"><stop stop-color="#EFDAAF"/><stop offset="1" stop-color="#BF9F5E"/></linearGradient></defs></svg>
