<svg width="328" height="246" viewBox="0 0 328 246" fill="none" xmlns="http://www.w3.org/2000/svg">
<g clip-path="url(#clip0)">
<path d="M328 0H0V246H328V0Z" fill="white"/>
<path d="M328 23.3701H0V246H328V23.3701Z" fill="url(#paint0_radial)"/>
<path d="M84.4596 159.49C82.4096 166.05 82.8196 173.43 85.2796 179.99C90.6096 194.34 103.32 204.18 118.49 207.46C126.69 209.1 134.48 209.1 142.68 207.05C155.39 203.77 166.05 197.21 174.66 187.78C161.13 204.18 140.22 212.79 118.08 209.1C105.78 207.05 95.5296 200.9 87.3296 191.47C73.3896 175.07 72.9796 149.24 89.3796 134.48C71.7496 144.32 68.4696 168.51 76.2596 185.73C86.0996 207.46 109.88 219.76 133.25 218.53C125.87 218.53 118.49 218.53 111.11 216.48C104.14 214.43 98.3996 211.56 92.2496 207.46C81.1796 199.67 73.7996 189.83 70.5196 176.71C67.2396 163.18 68.4696 149.65 77.0796 137.35C85.2796 125.87 97.5796 119.72 111.11 120.54C104.55 118.49 97.1696 118.9 90.6096 121.36C76.2596 126.69 66.4196 139.4 63.1396 154.57C61.4996 162.77 61.4996 170.56 63.5496 178.76C66.8296 191.47 73.3896 202.13 82.8196 210.74C66.4196 197.21 57.8096 176.3 61.4996 154.16C63.5496 141.86 69.6996 131.61 79.1296 123.41C95.5296 109.47 121.36 109.06 136.12 125.46C126.28 107.83 102.09 104.55 84.8696 112.34C63.1396 122.18 50.8396 145.96 52.0696 169.33C52.0696 161.95 52.0696 154.57 54.1196 147.19C56.1696 140.22 59.0396 134.48 63.1396 128.33C70.9296 117.26 80.7696 109.88 93.8896 106.6C107.42 103.32 120.95 104.55 133.25 113.16C144.73 121.36 150.88 133.66 150.06 147.19C152.11 140.63 151.7 133.25 149.24 126.69C143.91 112.34 131.2 102.5 116.03 99.2202C107.83 97.5802 100.04 97.5802 91.8396 99.6302C79.1296 102.91 68.4696 109.47 59.8596 118.9C73.3896 102.5 94.2996 93.8902 116.44 97.5802C128.74 99.6302 138.99 105.78 147.19 115.21C161.13 131.61 161.54 157.44 145.14 172.2C162.77 162.36 166.05 138.17 158.26 120.95C148.42 99.2202 124.64 86.9202 101.27 88.1502C108.65 88.1502 116.03 88.1502 123.41 90.2002C130.38 92.2502 136.12 95.1202 142.27 99.2202C153.34 107.01 160.72 116.85 164 129.97C167.28 143.5 166.05 157.03 157.44 169.33C149.24 180.81 136.94 186.96 123.41 186.14C129.97 188.19 137.35 187.78 143.91 185.32C158.26 179.99 168.1 167.28 171.38 152.11C173.02 143.91 173.02 136.12 170.97 127.92C167.69 115.21 161.13 104.55 151.7 95.9402C168.1 109.47 176.71 130.38 173.02 152.52C170.97 164.82 164.82 175.07 155.39 183.27C138.99 197.21 113.16 197.62 98.3996 181.22C108.24 198.85 132.43 202.13 149.65 194.34C171.38 184.5 183.68 160.72 182.45 137.35C182.45 144.73 182.45 152.11 180.4 159.49C178.35 166.46 175.48 172.2 171.38 178.35C163.59 189.42 153.75 196.8 140.63 200.08C127.1 203.36 113.57 202.13 101.27 193.52C89.7896 185.32 83.6396 173.02 84.4596 159.49Z" fill="url(#paint1_radial)"/>
<path d="M117.26 182.04C133.11 182.04 145.96 169.191 145.96 153.34C145.96 137.49 133.11 124.64 117.26 124.64C101.409 124.64 88.5596 137.49 88.5596 153.34C88.5596 169.191 101.409 182.04 117.26 182.04Z" fill="#464646"/>
<path d="M204.419 110.652L151.625 83.5461L175.274 59.6702L214.919 99.434L204.419 110.652Z" fill="#EEEEEE"/>
<path d="M195.725 115.416L149.747 91.8258C148.433 91.1518 147.955 89.5085 148.714 88.2752L151.624 83.5459L204.419 110.651L198.346 115.21C197.595 115.774 196.579 115.853 195.725 115.416Z" fill="#C4CED3"/>
<path d="M184.025 67.5227L162.557 89.158L204.42 110.651L206.753 108.159" fill="#FAFAFA"/>
<path d="M158.624 96.3801L158.626 96.3826L195.725 115.417C196.577 115.854 197.593 115.773 198.346 115.211L204.419 110.652L162.554 89.158L158.624 96.3801Z" fill="#CFD8DC"/>
<path d="M206.655 55.5285L205.434 50.9217C205.395 50.7749 205.423 50.6183 205.512 50.4949L206.252 49.4543C206.498 49.1091 206.895 48.9037 207.318 48.9033L210.937 48.8967C211.661 48.8955 212.249 49.4814 212.251 50.2059L212.256 52.9705L212.678 54.9065L209.399 57.0209L206.655 55.5285Z" fill="#64B5F6"/>
<path d="M205.94 82.2807C210.183 78.022 234.207 75.35 225.274 66.4493C216.34 57.5486 233.922 58.7901 225.754 50.6529C219.328 44.2499 202.284 56.9402 199.8 50.9493C194.303 37.6878 222.545 21.6499 243.7 48.8968" stroke="white" stroke-width="2.7387" stroke-miterlimit="10" stroke-linecap="square"/>
<path d="M233.547 132.165L237.122 136.744L239.676 139.797L246.55 137.491C246.55 137.491 251.129 133.916 251.635 131.877C251.635 131.877 248.731 129.147 245.961 130.077C243.19 131.006 241.95 129.857 239.906 126.294C238.167 128.342 233.547 132.165 233.547 132.165Z" fill="#1E88E5"/>
<path d="M238.024 137.823L239.675 139.797L246.55 137.491C246.55 137.491 251.129 133.916 251.635 131.877C251.635 131.877 249.144 129.536 246.575 129.928C246.37 129.959 245.772 130.104 245.009 130.87C243.484 132.402 244.019 135.555 243.236 136.224C241.68 137.55 238.024 137.823 238.024 137.823Z" fill="#3949AB"/>
<path d="M171.359 119.541C171.359 119.541 172.572 124.302 176.687 127.727C177.395 128.316 178.438 127.615 178.165 126.736C178.043 126.345 177.906 125.896 177.754 125.381C177.226 123.599 176.713 121.314 177.222 120.804C177.403 120.622 177.87 120.789 178.123 120.911C178.616 121.146 179.233 121.335 179.535 121.033C180.024 120.544 179.388 119.724 179.005 119.021C178.614 118.303 176.959 116.473 176.959 116.473L173.897 113.931L171.359 119.541Z" fill="#64B5F6"/>
<path d="M170.789 102.758C170.806 102.403 170.857 102.057 170.942 101.715L175.661 82.6705C175.661 82.6705 189.318 71.9248 190.959 70.7014C192.603 69.4804 194.302 69.5156 194.302 69.5156C194.302 69.5156 194.303 69.5173 194.303 69.5177L194.302 69.5136L206.563 67.357C206.92 67.2943 207.174 66.9765 207.158 66.6145L206.656 55.5285L210.36 56.3944L212.612 54.6023L215.922 69.7756C216.187 70.9929 215.641 72.243 214.567 72.8744L204.643 78.7107L215.171 85.527C215.671 85.8115 213.859 93.7302 213.859 93.7302C213.859 93.7302 200.828 104.793 200.027 104.448C200.121 104.456 184.566 96.5867 184.566 96.5867L179.586 105.353C179.352 105.796 179.177 106.273 179.071 106.767L176.959 116.473C173.816 115.187 171.36 119.541 171.36 119.541C170.223 114.862 170.658 105.145 170.789 102.758Z" fill="#64B5F6"/>
<path d="M206.955 62.1541L206.655 55.5285C211.321 55.7343 212.611 54.6023 212.611 54.6023L214.164 61.7195C214.164 61.7195 211.554 63.4153 206.955 62.1541Z" fill="#1E88E5"/>
<path d="M188.086 71.1038C188.086 71.1038 192.274 66.6299 199.335 73.6655C205.869 80.1754 206.733 85.0581 206.733 85.0581" stroke="white" stroke-width="4.5645" stroke-miterlimit="10" stroke-linecap="round"/>
<path d="M195.478 72.8306L215.171 85.5274C215.671 85.812 213.859 93.7307 213.859 93.7307C213.859 93.7307 200.828 104.794 200.027 104.449C200.121 104.456 195.478 72.8306 195.478 72.8306Z" fill="#64B5F6"/>
<path d="M178.39 109.898L176.959 116.473C173.816 115.188 171.36 119.541 171.36 119.541C170.883 117.577 170.682 114.725 170.62 111.9C170.621 111.9 175.37 107.133 178.39 109.898Z" fill="#1E88E5"/>
<path d="M217.923 87.0994L238.148 83.0945C238.585 83.0215 239.031 83.0063 239.472 83.049L256.899 84.7349C256.899 84.7349 261.236 88.0391 256.659 92.6331C256.659 92.6331 249.317 93.8312 240.568 93.4749C239.903 93.4478 239.239 93.5597 238.615 93.7926L216.169 102.644L216.145 89.3958L215.884 86.0842L217.923 87.0994Z" fill="#64B5F6"/>
<path d="M233.342 84.0461L238.147 83.0945C238.585 83.0215 239.031 83.0063 239.472 83.049L244.547 83.5398C244.547 83.5398 244.137 88.479 244.028 90.3162C244.006 90.6967 243.694 90.9944 243.313 90.9944C242.27 90.9935 241.192 90.9739 240.092 90.93C239.422 90.9029 238.751 91.0034 238.122 91.2379L235.823 92.0956C235.408 92.2502 234.953 91.9976 234.865 91.5634L233.342 84.0461Z" fill="#1E88E5"/>
<path d="M222.781 117.502C223.694 118.036 224.478 118.77 225.068 119.648L233.547 132.165C233.547 132.165 239.149 130.626 239.905 126.293L234.367 113.203C234.091 112.536 233.718 111.915 233.251 111.363L223.551 99.8268L215.256 93.3328L202.864 105.893L222.781 117.502Z" fill="#64B5F6"/>
<path d="M224.285 114.263C224.051 114.572 224.098 115.016 224.401 115.259C225.281 115.964 226.369 117.149 226.848 117.862L228.957 120.975C229.17 121.29 229.591 121.384 229.919 121.192L236.187 117.504L234.368 113.204C234.092 112.537 233.719 111.916 233.251 111.364L229.689 107.127L224.285 114.263Z" fill="#1E88E5"/>
<path d="M256.658 92.6333L268.378 92.6116L269.371 78.3428L266.823 78.3473C262.747 78.3547 266.326 84.9721 256.899 84.7347C256.899 84.7351 255.117 85.5026 256.658 92.6333Z" fill="#1E88E5"/>
<path d="M265.32 92.6174L268.377 92.6116L269.37 78.3428L266.823 78.3473C265.168 78.3502 264.775 79.4428 264.261 80.7236C263.997 81.3809 265.234 82.8679 265.813 83.4448C266.579 84.2078 266.407 86.496 266.33 87.5202C266.081 90.8326 265.32 92.6174 265.32 92.6174Z" fill="#3949AB"/>
<path d="M200.026 104.449C200.827 104.794 202.865 105.893 202.865 105.893C203.035 105.778 203.241 105.602 203.308 105.551C205.353 103.917 207.34 102.209 209.227 100.396C211.437 98.2751 213.611 95.9504 215.257 93.3333C216.277 91.7171 217.455 89.1517 218.051 87.078C217.513 86.8951 216.967 86.5532 216.666 86.3806C216.166 86.096 215.671 85.8115 215.171 85.5273C214.956 87.6577 214.109 89.7077 212.979 91.5515C212.524 92.2989 212.021 93.0131 211.495 93.6843C209.367 96.4067 206.822 98.7986 204.209 101.048C203.688 101.495 203.164 101.939 202.629 102.373C201.774 103.083 200.904 103.772 200.026 104.449Z" fill="#3949AB"/>
<path d="M202.527 94.358C203.709 94.358 204.667 93.3998 204.667 92.2178C204.667 91.0358 203.709 90.0776 202.527 90.0776C201.345 90.0776 200.387 91.0358 200.387 92.2178C200.387 93.3998 201.345 94.358 202.527 94.358Z" fill="#3949AB"/>
<path d="M202.646 92.2229C202.646 92.2229 207.332 101.343 203.535 105.194C199.739 109.044 196.414 99.912 196.414 99.912" stroke="#1E88E5" stroke-width="2.4579" stroke-miterlimit="10" stroke-linecap="round"/>
<path d="M206.464 88.9994C207.646 88.9994 208.605 88.0412 208.605 86.8592C208.605 85.6772 207.646 84.719 206.464 84.719C205.282 84.719 204.324 85.6772 204.324 86.8592C204.324 88.0412 205.282 88.9994 206.464 88.9994Z" fill="#3949AB"/>
<path d="M194.751 94.0205C194.751 94.0205 200.827 104.794 200.027 104.449C200.121 104.456 184.565 96.5871 184.565 96.5871" fill="#64B5F6"/>
<path d="M211.495 93.6844L213.565 95.7135C217.796 95.6184 223.552 99.8279 223.552 99.8279C223.552 99.8279 224.331 98.0612 222.526 96.2629C220.132 93.8775 218.068 91.9407 216.542 90.8071L214.027 89.5894C214.026 89.5889 213.187 91.5664 211.495 93.6844Z" fill="#1E88E5"/>
<path d="M196.504 76.9478L204.299 81.6197L197.295 91.4683L188.624 86.8985L196.504 76.9478Z" fill="#1E88E5"/>
<path d="M172.321 88.2022C172.321 88.2022 177.657 82.5827 184.552 89.4535C190.933 95.8109 191.198 101.161 191.198 101.161" stroke="white" stroke-width="4.5645" stroke-miterlimit="10" stroke-linecap="round"/>
<path d="M175.196 84.5466C179.134 82.5134 182.634 82.6651 184.03 82.8308C185.436 81.6766 192.919 75.5197 193.444 71.796C190.011 70.6706 188.137 68.104 188.137 68.104C188.012 70.0859 187.254 71.161 185.777 72.9014C184.568 74.3253 183.545 75.6144 181.319 77.0375C176.724 77.206 173.443 81.6365 173.443 81.6365C174.038 82.543 175.196 84.5466 175.196 84.5466Z" fill="#3949AB"/>
<path d="M173.444 81.6359C173.444 81.6359 173.493 81.6051 173.585 81.5543C173.615 81.5375 173.644 81.5207 173.674 81.5039C173.71 81.4846 173.747 81.4629 173.784 81.4415C173.822 81.4198 173.863 81.3981 173.908 81.3759C174.348 81.1324 174.793 80.9167 175.234 80.7245L175.236 80.7265C176.848 80.0061 179.382 79.1017 182.1 79.0049C182.849 78.526 183.558 78.009 184.213 77.4801C185.505 76.4424 186.591 75.3596 187.393 74.4154C188.472 73.144 188.916 72.0521 189.125 70.7836C189.202 69.6844 189.025 68.5569 188.634 67.4671C188.013 65.7152 186.847 64.0592 185.308 62.7525L184.972 63.354L184.76 63.1736C183.66 62.2404 182.71 61.6845 181.853 61.4253L181.626 59.2462C176.981 56.8022 171.082 57.7718 167.543 61.9403C163.447 66.7652 164.038 73.9939 168.863 78.0898C169.738 78.8331 170.692 79.4219 171.695 79.8585C172.411 80.3747 172.989 81.0106 173.444 81.6359Z" fill="#64B5F6"/>
<path d="M172.155 75.5573C171.381 74.9004 171.898 71.1539 173.575 66.4893C174.253 64.6053 175.569 60.3311 177.548 59.8465C179.733 59.3118 181.337 59.0002 182.953 60.3725C183.396 60.748 183.434 60.7809 183.948 61.2171C187.673 64.379 189.211 69.5848 186.16 73.178C183.25 76.6056 178.116 78.5482 174.698 77.7159C174.698 77.7163 172.691 76.0124 172.155 75.5573Z" fill="#616161"/>
<path d="M172.929 76.2142C172.033 74.3118 172.844 67.0101 176.411 62.8085C179.977 58.6072 182.98 60.3948 182.98 60.3948L181.6 59.2234C181.6 59.2234 178.598 57.4354 175.031 61.6371C171.465 65.8388 170.654 73.1405 171.55 75.0429L172.929 76.2142Z" fill="#3949AB"/>
<path d="M197.445 86.5847C199.072 86.5847 200.392 85.2656 200.392 83.6384C200.392 82.0112 199.072 80.6921 197.445 80.6921C195.818 80.6921 194.499 82.0112 194.499 83.6384C194.499 85.2656 195.818 86.5847 197.445 86.5847Z" fill="#3949AB"/>
<path d="M206.655 55.5285L204.863 51.2005C204.863 51.2005 204.287 49.7368 204.606 49.4174C205.003 49.0185 205.369 49.1612 205.625 49.4154C206.391 50.1784 206.583 51.4363 206.85 51.9397C207.671 53.4879 209.2 53.9947 209.2 53.9947L206.655 55.5285Z" fill="#64B5F6"/>
<path d="M207.684 53.3264L205.434 50.9217C205.395 50.7749 205.423 50.6183 205.512 50.4949L206.252 49.4543C206.498 49.1091 206.895 48.9037 207.318 48.9033L210.937 48.8967C211.384 48.8959 211.862 49.1706 212.099 49.5121C212.205 49.6659 211.002 51.8934 210.535 52.6552C210.345 52.966 210.263 52.4215 209.921 52.5482L207.684 53.3264Z" fill="#64B5F6"/>
<path d="M206.438 86.8454C206.438 86.8454 213.376 88.5998 215.694 86.2727C217.013 84.9496 214.436 83.3276 211.882 83.3506C208.996 83.3768 208.667 84.6076 208.667 84.6076" stroke="#1E88E5" stroke-width="2.7485" stroke-miterlimit="10" stroke-linecap="round"/>
<path d="M214.531 85.1125L204.644 78.7112L207.985 85.8435L214.531 85.1125Z" fill="#64B5F6"/>
<path d="M207.221 85.59C206.383 84.7557 204.115 86.1858 204.949 85.3486C205.783 84.5113 207.138 84.5089 207.975 85.3428C208.161 85.5281 208.306 85.7393 208.41 85.9644C207.73 85.5892 208.058 86.4244 207.221 85.59Z" fill="#303F9F"/>
<path d="M171.538 78.0131C170.693 77.1705 170.69 75.8016 171.533 74.9557C172.041 74.4453 173.235 74.6179 174.081 75.4604C174.927 76.303 175.104 77.4969 174.595 78.0074C173.753 78.8532 172.384 78.8556 171.538 78.0131Z" fill="#1E88E5"/>
<path d="M173.156 83.5664L175.196 84.5463C175.196 84.5463 172.498 85.8456 174.073 89.0797C174.073 89.0797 173.505 90.677 173.539 91.2342C172.644 92.0095 168.828 91.7074 168.828 91.7074L170.57 84.3893L173.156 83.5664Z" fill="#FAFAFA"/>
<path d="M187.524 98.085L194.684 101.715L192.746 103.907L188.581 102.265L187.524 98.085Z" fill="#FAFAFA"/>
<path d="M247.854 57.3717L251.174 54.6025L243.964 46.1225C243.705 45.8179 243.247 45.7822 242.944 46.0438L240.762 47.9265C240.462 48.1852 240.427 48.6374 240.683 48.9388L247.854 57.3717Z" fill="#BDBDBD"/>
<path d="M245.983 55.1444L249.303 52.3753L245.019 47.3528L241.745 50.1765L245.983 55.1444Z" fill="#757575"/>
<path d="M102.743 158.495C103.493 158.644 104.178 158.639 104.178 158.639C104.178 158.639 104.648 158.862 105.301 158.818C107.253 158.686 108.789 155.945 109.199 155.388C109.72 154.677 111.295 152.503 112.719 151.138L113.394 150.457C114.513 150.086 116.305 148.842 116.305 148.842L116.568 148.451C116.568 148.451 118.895 148.257 121.516 147.918C122.718 147.762 123.066 147.034 123.066 147.034L123.792 145.92L116.169 143.42L115.873 142.502L111.207 141.523L109.713 142.137L108.597 143.521C108.597 143.521 104.203 148.618 102.604 152.411C102.604 152.411 102.073 153.472 101.92 154.155C101.605 155.564 101.807 156.108 101.773 156.861C101.72 158.056 102.346 158.415 102.743 158.495Z" fill="#F5F5F5"/>
<path d="M102.689 146.521C103.847 147.508 103.793 147.856 103.672 148.747C103.569 149.507 103.035 151.011 102.618 152.424C104.387 148.994 106.055 147.59 108.597 143.52L109.432 141.772L100.265 142.011L99.9096 143.202C99.9096 143.202 99.7267 143.7 99.9227 144.161C100.256 144.947 101.531 145.535 102.689 146.521Z" fill="#EEEEEE"/>
<path d="M104.178 158.639C104.178 158.639 103.716 158.384 103.481 158.024C103.374 157.861 103.159 157.937 103.13 158.043C103.092 158.186 103.576 158.68 104.178 158.639Z" fill="#F5F5F5"/>
<path d="M106.059 157.996C106.27 157.982 106.434 157.856 106.424 157.715C106.414 157.574 106.236 157.472 106.025 157.486C105.814 157.501 105.65 157.626 105.66 157.767C105.669 157.908 105.848 158.01 106.059 157.996Z" fill="#F5F5F5"/>
<path d="M104.988 157.301C105.199 157.287 105.378 157.389 105.388 157.53C105.397 157.671 105.234 157.796 105.023 157.811C104.812 157.825 104.633 157.723 104.623 157.582C104.614 157.441 104.777 157.315 104.988 157.301Z" fill="#F5F5F5"/>
<path d="M123.409 146.508L115.855 144.247L115.526 145.293L123.065 147.034L123.409 146.508Z" fill="#424242"/>
<path d="M112.326 148.159C112.326 148.159 110.666 149.35 109.335 149.795C108.339 150.129 107.216 149.293 107.72 147.965C108.221 146.646 109.904 144.939 109.904 144.939L112.326 148.159Z" fill="white"/>
<path d="M109.514 146.758C109.581 147.745 110.558 148.478 111.546 148.412C111.819 148.393 112.178 148.305 112.424 148.16C113.26 148.151 113.18 148.293 113.636 148.272C113.959 148.762 114.569 149.23 115.309 149.18C116.329 149.111 117.048 148.398 116.972 147.275C116.918 146.486 116.359 145.781 116.359 145.781L116.203 143.488L116.643 142.434L111.171 141.014L109.712 142.137L109.902 144.94C109.902 144.939 109.426 145.462 109.514 146.758Z" fill="#B6B6B6"/>
<path d="M112.444 147.658C112.749 147.879 113.21 147.811 113.521 147.677C113.961 147.488 114.158 147.295 114.158 147.295L112.907 145.232C112.907 145.232 112.284 145.828 112.107 146.657C112.016 147.083 112.194 147.477 112.444 147.658Z" fill="#E0E0E0"/>
<path d="M114.362 145.736C114.667 145.958 115.127 145.89 115.439 145.756C115.879 145.567 116.076 145.373 116.076 145.373L114.825 143.311C114.825 143.311 114.202 143.906 114.025 144.736C113.934 145.161 114.112 145.555 114.362 145.736Z" fill="#E0E0E0"/>
<path d="M115.582 145.574C116.145 145.536 116.563 144.934 116.515 144.231C116.467 143.527 115.972 142.988 115.409 143.026C114.846 143.064 114.428 143.666 114.476 144.369C114.524 145.073 115.019 145.612 115.582 145.574Z" fill="white"/>
<path d="M113.665 147.496C114.228 147.458 114.646 146.857 114.598 146.153C114.55 145.45 114.055 144.911 113.492 144.949C112.929 144.987 112.511 145.588 112.559 146.292C112.607 146.995 113.102 147.535 113.665 147.496Z" fill="white"/>
<path d="M110.98 144.942C111.285 145.164 111.746 145.096 112.057 144.961C112.497 144.772 112.694 144.579 112.694 144.579L111.443 142.517C111.443 142.517 110.82 143.112 110.643 143.941C110.553 144.367 110.73 144.761 110.98 144.942Z" fill="#E0E0E0"/>
<path d="M112.2 144.78C112.763 144.742 113.181 144.141 113.133 143.437C113.085 142.734 112.59 142.194 112.027 142.232C111.464 142.271 111.047 142.872 111.094 143.576C111.142 144.279 111.637 144.818 112.2 144.78Z" fill="white"/>
<path d="M109.083 142.516L108.596 143.52L99.9092 143.202L100.107 142.539L109.083 142.516Z" fill="#424242"/>
<path d="M110.855 150.328L113.453 154.043C113.545 154.174 113.736 154.193 113.853 154.082L114.485 153.485C114.548 153.425 114.576 153.34 114.562 153.256L113.746 148.51C113.704 148.261 113.483 148.08 113.225 148.082L112.593 148.086C112.444 148.086 112.301 148.15 112.202 148.259L110.896 149.695C110.735 149.872 110.718 150.133 110.855 150.328Z" fill="white"/>
<path d="M125.905 36.1094L126.368 39.2938C126.39 39.4402 126.456 39.5739 126.562 39.6801C126.668 39.7838 126.802 39.8539 126.948 39.8744L130.13 40.3348L126.946 40.7973C126.799 40.8195 126.666 40.8855 126.56 40.9917C126.456 41.0954 126.386 41.2319 126.365 41.3779L125.905 44.5599L125.442 41.3754C125.42 41.229 125.354 41.0954 125.248 40.9892C125.142 40.8855 125.008 40.8154 124.862 40.7949L121.68 40.3344L124.864 39.8719C125.011 39.8498 125.144 39.7838 125.25 39.6776C125.354 39.5739 125.424 39.4373 125.445 39.2914L125.905 36.1094Z" fill="white"/>
<path d="M123.856 68.9094L124.452 73.0205C124.48 73.2091 124.566 73.3817 124.703 73.5186C124.84 73.6527 125.013 73.7437 125.201 73.7692L129.31 74.3637L125.199 74.9602C125.01 74.9885 124.838 75.0738 124.701 75.2107C124.567 75.3448 124.476 75.5211 124.45 75.7089L123.856 79.8179L123.259 75.7068C123.231 75.5182 123.145 75.3456 123.009 75.2087C122.872 75.0746 122.698 74.9836 122.51 74.9582L118.401 74.3637L122.512 73.7671C122.701 73.7388 122.874 73.6535 123.011 73.5166C123.145 73.3825 123.236 73.2062 123.261 73.0184L123.856 68.9094Z" fill="#FAFAFA"/>
<path d="M135.335 161.745L135.688 164.178C135.705 164.29 135.755 164.392 135.837 164.473C135.918 164.552 136.02 164.607 136.131 164.622L138.564 164.974L136.13 165.327C136.019 165.344 135.916 165.394 135.835 165.475C135.756 165.554 135.702 165.659 135.687 165.77L135.335 168.202L134.982 165.769C134.965 165.657 134.915 165.555 134.833 165.474C134.752 165.395 134.65 165.341 134.539 165.326L132.106 164.973L134.54 164.62C134.651 164.603 134.754 164.553 134.835 164.472C134.914 164.392 134.968 164.288 134.983 164.177L135.335 161.745Z" fill="#FAFAFA"/>
<path d="M138.58 60.2701C139.259 60.2701 139.81 59.7194 139.81 59.0401C139.81 58.3607 139.259 57.8101 138.58 57.8101C137.9 57.8101 137.35 58.3607 137.35 59.0401C137.35 59.7194 137.9 60.2701 138.58 60.2701Z" fill="white"/>
<path d="M235.107 162.616L235.348 164.277C235.36 164.354 235.394 164.423 235.449 164.479C235.505 164.533 235.575 164.57 235.651 164.58L237.311 164.82L235.65 165.061C235.574 165.073 235.504 165.107 235.449 165.163C235.394 165.217 235.358 165.288 235.347 165.364L235.107 167.024L234.866 165.363C234.855 165.287 234.82 165.217 234.765 165.162C234.709 165.108 234.639 165.071 234.563 165.06L232.903 164.82L234.564 164.579C234.64 164.568 234.71 164.533 234.766 164.478C234.82 164.424 234.857 164.352 234.867 164.277L235.107 162.616Z" fill="#FAFAFA"/>
<path d="M161.716 208.771L162.201 212.109C162.224 212.263 162.293 212.403 162.404 212.514C162.515 212.623 162.656 212.697 162.809 212.717L166.146 213.2L162.807 213.685C162.654 213.708 162.514 213.777 162.403 213.888C162.294 213.997 162.22 214.14 162.199 214.293L161.716 217.629L161.232 214.291C161.209 214.138 161.139 213.998 161.028 213.887C160.917 213.778 160.776 213.704 160.624 213.683L157.287 213.2L160.625 212.716C160.779 212.693 160.919 212.623 161.03 212.512C161.139 212.404 161.213 212.26 161.233 212.108L161.716 208.771Z" fill="#FAFAFA"/>
<path d="M42.817 168.356L43.0581 170.017C43.0696 170.094 43.104 170.163 43.1594 170.219C43.2147 170.273 43.2848 170.31 43.3607 170.32L45.0208 170.56L43.3599 170.801C43.2836 170.813 43.2139 170.847 43.1586 170.903C43.1044 170.957 43.0675 171.028 43.0573 171.104L42.817 172.764L42.576 171.103C42.5645 171.027 42.53 170.957 42.4747 170.902C42.4193 170.848 42.3492 170.811 42.2734 170.8L40.6133 170.56L42.2742 170.319C42.3505 170.308 42.4202 170.273 42.4755 170.218C42.5296 170.164 42.5665 170.092 42.5768 170.017L42.817 168.356Z" fill="#FAFAFA"/>
<path d="M63.8135 101.235L64.0546 102.896C64.0661 102.972 64.1005 103.042 64.1559 103.097C64.2112 103.151 64.2813 103.188 64.3572 103.198L66.0173 103.439L64.3564 103.68C64.2801 103.691 64.2104 103.726 64.1551 103.781C64.1009 103.835 64.064 103.906 64.0538 103.982L63.8135 105.642L63.5725 103.981C63.561 103.905 63.5265 103.835 63.4712 103.78C63.4158 103.726 63.3457 103.689 63.2699 103.679L61.6094 103.439L63.2703 103.198C63.3465 103.186 63.4162 103.152 63.4716 103.096C63.5257 103.042 63.5626 102.971 63.5729 102.895L63.8135 101.235Z" fill="#FAFAFA"/>
<path d="M71.2214 84.3386L71.5523 86.6178C71.5679 86.7224 71.6154 86.8183 71.6913 86.8942C71.7671 86.9688 71.8631 87.0188 71.9676 87.0331L74.2452 87.3628L71.966 87.6936C71.8614 87.7092 71.7655 87.7568 71.6896 87.8326C71.615 87.9073 71.565 88.0044 71.5507 88.109L71.221 90.3865L70.8901 88.1073C70.8746 88.0028 70.827 87.9069 70.7512 87.831C70.6753 87.7564 70.5794 87.7064 70.4748 87.692L68.1973 87.3624L70.4765 87.0315C70.581 87.0159 70.6769 86.9684 70.7528 86.8925C70.8274 86.8179 70.8774 86.7207 70.8918 86.6162L71.2214 84.3386Z" fill="white"/>
<path d="M204.766 141.033L205.367 145.166C205.395 145.356 205.481 145.53 205.619 145.667C205.757 145.802 205.93 145.893 206.12 145.919L210.251 146.517L206.117 147.117C205.928 147.146 205.754 147.232 205.616 147.369C205.481 147.504 205.39 147.681 205.364 147.871L204.766 152.001L204.166 147.868C204.137 147.678 204.052 147.504 203.914 147.366C203.776 147.231 203.602 147.14 203.413 147.114L199.282 146.517L203.415 145.917C203.605 145.888 203.779 145.802 203.917 145.664C204.052 145.53 204.143 145.353 204.169 145.163L204.766 141.033Z" fill="white"/>
<path d="M77.8999 53.6614C78.5792 53.6614 79.1299 53.1107 79.1299 52.4314C79.1299 51.7521 78.5792 51.2014 77.8999 51.2014C77.2206 51.2014 76.6699 51.7521 76.6699 52.4314C76.6699 53.1107 77.2206 53.6614 77.8999 53.6614Z" fill="#FAFAFA"/>
<path d="M162.556 52.2726C163.009 52.2726 163.376 51.9054 163.376 51.4526C163.376 50.9997 163.009 50.6326 162.556 50.6326C162.103 50.6326 161.736 50.9997 161.736 51.4526C161.736 51.9054 162.103 52.2726 162.556 52.2726Z" fill="white"/>
<path d="M223.601 176.983C224.054 176.983 224.421 176.616 224.421 176.163C224.421 175.71 224.054 175.343 223.601 175.343C223.148 175.343 222.781 175.71 222.781 176.163C222.781 176.616 223.148 176.983 223.601 176.983Z" fill="white"/>
<path d="M262.654 115.704C263.564 115.704 264.302 114.966 264.302 114.056C264.302 113.145 263.564 112.407 262.654 112.407C261.743 112.407 261.005 113.145 261.005 114.056C261.005 114.966 261.743 115.704 262.654 115.704Z" fill="#FAFAFA"/>
<path d="M49.9907 145.358C50.6701 145.358 51.2207 144.808 51.2207 144.128C51.2207 143.449 50.6701 142.898 49.9907 142.898C49.3114 142.898 48.7607 143.449 48.7607 144.128C48.7607 144.808 49.3114 145.358 49.9907 145.358Z" fill="#EEEEEE"/>
<path d="M87.811 60.7107C88.4903 60.7107 89.041 60.16 89.041 59.4807C89.041 58.8014 88.4903 58.2507 87.811 58.2507C87.1317 58.2507 86.5811 58.8014 86.5811 59.4807C86.5811 60.16 87.1317 60.7107 87.811 60.7107Z" fill="#EEEEEE"/>
<path d="M43.987 96.3722C44.4399 96.3722 44.807 96.0051 44.807 95.5522C44.807 95.0993 44.4399 94.7322 43.987 94.7322C43.5341 94.7322 43.167 95.0993 43.167 95.5522C43.167 96.0051 43.5341 96.3722 43.987 96.3722Z" fill="#FAFAFA"/>
</g>
<defs>
<radialGradient id="paint0_radial" cx="0" cy="0" r="1" gradientUnits="userSpaceOnUse" gradientTransform="translate(162.923 134.686) scale(160.761 107.629)">
<stop offset="0.1734" stop-color="#B3B3B3"/>
<stop offset="0.3403" stop-color="#B9B9B9" stop-opacity="0.7981"/>
<stop offset="0.5572" stop-color="#C9C9C9" stop-opacity="0.5358"/>
<stop offset="0.8005" stop-color="#E4E4E4" stop-opacity="0.2414"/>
<stop offset="1" stop-color="white" stop-opacity="0"/>
</radialGradient>
<radialGradient id="paint1_radial" cx="0" cy="0" r="1" gradientUnits="userSpaceOnUse" gradientTransform="translate(117.26 153.34) scale(65.2743)">
<stop stop-color="#424242"/>
<stop offset="0.4625" stop-color="#444444" stop-opacity="0.5375"/>
<stop offset="0.6291" stop-color="#4B4B4B" stop-opacity="0.3709"/>
<stop offset="0.7478" stop-color="#565656" stop-opacity="0.2522"/>
<stop offset="0.8438" stop-color="#676767" stop-opacity="0.1562"/>
<stop offset="0.9251" stop-color="#7D7D7D" stop-opacity="0.0749"/>
<stop offset="0.9967" stop-color="#989898" stop-opacity="0.01"/>
<stop offset="1" stop-color="#999999" stop-opacity="0"/>
</radialGradient>
<clipPath id="clip0">
<rect width="328" height="246" fill="white"/>
</clipPath>
</defs>
</svg>
