<svg xmlns="http://www.w3.org/2000/svg" fill="none" height="800" viewBox="0 0 375 800"><path fill="#F2FAF8" d="M0 0h375v800H0z"/><mask id="a" maskUnits="userSpaceOnUse" x="0" y="0" width="375" height="800"><path fill="#fff" d="M0 0h375v800H0z"/></mask><g mask="url(#a)"><path stroke="#92C7B8" stroke-width=".5" d="M305.917 197.765L453.144 90.7979"/><path fill-rule="evenodd" clip-rule="evenodd" d="M302.74 206.409c3.17 0 5.74-2.57 5.74-5.74 0-3.17-2.57-5.74-5.74-5.74-3.17 0-5.74 2.57-5.74 5.74 0 3.17 2.57 5.74 5.74 5.74z" fill="url(#paint0_linear)"/><path clip-rule="evenodd" d="M.0335482 204.067C160.215 204.067 290.067 74.2147 290.067-85.9665 290.067-246.148 160.215-376 .0335482-376-160.148-376-290-246.148-290-85.9665-290 74.2147-160.148 204.067.0335482 204.067z" stroke="#C0A46B" stroke-width=".5"/><path fill-rule="evenodd" clip-rule="evenodd" d="M182.211 147.873c4.839 0 8.761-3.923 8.761-8.761 0-4.839-3.922-8.762-8.761-8.762-4.839 0-8.762 3.923-8.762 8.762 0 4.838 3.923 8.761 8.762 8.761z" fill="#F2FAF8"/><path fill-rule="evenodd" clip-rule="evenodd" d="M182.211 147.873c4.839 0 8.761-3.923 8.761-8.761 0-4.839-3.922-8.762-8.761-8.762-4.839 0-8.762 3.923-8.762 8.762 0 4.838 3.923 8.761 8.762 8.761z" fill="url(#paint1_linear)"/><path clip-rule="evenodd" d="M182.211 147.873c4.839 0 8.761-3.923 8.761-8.761 0-4.839-3.922-8.762-8.761-8.762-4.839 0-8.762 3.923-8.762 8.762 0 4.838 3.923 8.761 8.762 8.761z" stroke="#C0A46B" stroke-dasharray="4 4"/><path fill-rule="evenodd" clip-rule="evenodd" d="M-8.42577 250.593c33.37107 0 60.42367-27.052 60.42367-60.423s-27.0526-60.424-60.42367-60.424c-33.37103 0-60.42363 27.053-60.42363 60.424 0 33.371 27.0526 60.423 60.42363 60.423z" fill="#F2FAF8"/><path fill-rule="evenodd" clip-rule="evenodd" d="M-8.42577 250.593c33.37107 0 60.42367-27.052 60.42367-60.423s-27.0526-60.424-60.42367-60.424c-33.37103 0-60.42363 27.053-60.42363 60.424 0 33.371 27.0526 60.423 60.42363 60.423z" fill="url(#paint2_linear)"/><path clip-rule="evenodd" d="M-8.42577 250.593c33.37107 0 60.42367-27.052 60.42367-60.423s-27.0526-60.424-60.42367-60.424c-33.37103 0-60.42363 27.053-60.42363 60.424 0 33.371 27.0526 60.423 60.42363 60.423z" stroke="#C0A46B" stroke-width="2" stroke-dasharray="8 8"/><path clip-rule="evenodd" d="M336.704 1186.04c160.181 0 290.034-129.85 290.034-290.029 0-160.181-129.853-290.033-290.034-290.033-160.181 0-290.0333 129.852-290.0333 290.033 0 160.179 129.8523 290.029 290.0333 290.029z" stroke="#92C7B8" stroke-width=".5"/><path clip-rule="evenodd" d="M337.006 1103.26c114.296 0 206.951-92.65 206.951-206.947 0-114.295-92.655-206.951-206.951-206.951-114.296 0-206.951 92.656-206.951 206.951 0 114.297 92.655 206.947 206.951 206.947z" stroke="#92C7B8" stroke-width=".5"/><path fill-rule="evenodd" clip-rule="evenodd" d="M385.647 668.818c33.371 0 60.424-27.052 60.424-60.423s-27.053-60.424-60.424-60.424c-33.371 0-60.423 27.053-60.423 60.424 0 33.371 27.052 60.423 60.423 60.423z" fill="#87B9AB"/><path fill-rule="evenodd" clip-rule="evenodd" d="M385.647 668.818c33.371 0 60.424-27.052 60.424-60.423s-27.053-60.424-60.424-60.424c-33.371 0-60.423 27.053-60.423 60.424 0 33.371 27.052 60.423 60.423 60.423z" fill="url(#paint3_linear)"/><path fill-rule="evenodd" clip-rule="evenodd" d="M144.255 686.341c4.839 0 8.761-3.922 8.761-8.761 0-4.839-3.922-8.762-8.761-8.762-4.839 0-8.762 3.923-8.762 8.762s3.923 8.761 8.762 8.761z" fill="url(#paint4_linear)"/><path fill-rule="evenodd" clip-rule="evenodd" d="M234.581 624.503c.092.231.173.608-.366 1.11-2.104 1.957-6.475 4.319-8.927 7.921-.053.078-.272.409-2.146 1.59l-4.168-10.402c2.17-.44 2.557-.352 2.649-.332 4.261.911 9.054-.399 11.926-.437.738-.009.939.319 1.032.55z" fill="#359177"/><path fill-rule="evenodd" clip-rule="evenodd" d="M234.581 624.503c.092.231.173.608-.366 1.11-2.104 1.957-6.475 4.319-8.927 7.921-.053.078-.272.409-2.146 1.59l-4.168-10.402c2.17-.44 2.557-.352 2.649-.332 4.261.911 9.054-.399 11.926-.437.738-.009.939.319 1.032.55z" fill="url(#paint5_linear)"/><path fill-rule="evenodd" clip-rule="evenodd" d="M234.581 624.503c.092.231.173.608-.366 1.11-2.104 1.957-6.475 4.319-8.927 7.921-.053.078-.272.409-2.146 1.59l-4.168-10.402c2.17-.44 2.557-.352 2.649-.332 4.261.911 9.054-.399 11.926-.437.738-.009.939.319 1.032.55z" fill="url(#paint6_linear)"/><path stroke="#C0A46B" stroke-width=".5" d="M-173.147 776.102l263.8931-191.73"/><path fill-rule="evenodd" clip-rule="evenodd" d="M101.646 575.712c.151.198.331.539-.053 1.168-1.498 2.451-5.0688 5.906-6.4588 10.036-.03.089-.1512.466-1.6368 2.109l-6.8207-8.891c1.9716-1.01 2.3677-1.029 2.4613-1.035 4.3492-.272 8.6106-2.826 11.367-3.638.707-.208.99.054 1.141.251z" fill="url(#paint7_linear)"/></g><defs><linearGradient id="paint0_linear" x1="311.348" y1="199.531" x2="302.818" y2="192.747" gradientUnits="userSpaceOnUse"><stop stop-color="#79B1A6"/><stop offset="1" stop-color="#D7EAE1"/></linearGradient><linearGradient id="paint1_linear" x1="172.696" y1="138.996" x2="182.828" y2="149.508" gradientUnits="userSpaceOnUse"><stop stop-color="#F4E2BC" stop-opacity=".2"/><stop offset="1" stop-color="#B17F18" stop-opacity=".2"/></linearGradient><linearGradient id="paint2_linear" x1="-74.0467" y1="189.369" x2="-4.16971" y2="261.869" gradientUnits="userSpaceOnUse"><stop stop-color="#F4E2BC" stop-opacity=".2"/><stop offset="1" stop-color="#B17F18" stop-opacity=".2"/></linearGradient><linearGradient id="paint3_linear" x1="311.653" y1="615.362" x2="401.43" y2="685.376" gradientUnits="userSpaceOnUse"><stop stop-color="#D7EAE1"/><stop offset="1" stop-color="#79B1A6"/></linearGradient><linearGradient id="paint4_linear" x1="157.393" y1="675.842" x2="144.374" y2="665.488" gradientUnits="userSpaceOnUse"><stop stop-color="#79B1A6"/><stop offset="1" stop-color="#D7EAE1"/></linearGradient><linearGradient id="paint5_linear" x1="234.127" y1="624.677" x2="221.51" y2="619.28" gradientUnits="userSpaceOnUse"><stop stop-color="#79B1A6"/><stop offset="1" stop-color="#0D6763"/></linearGradient><linearGradient id="paint6_linear" x1="224.508" y1="623.001" x2="225.149" y2="638.285" gradientUnits="userSpaceOnUse"><stop stop-color="#79B1A6"/><stop offset="1" stop-color="#0D6763"/></linearGradient><linearGradient id="paint7_linear" x1="85.5853" y1="580.417" x2="93.0032" y2="590.465" gradientUnits="userSpaceOnUse"><stop stop-color="#EFDAAF"/><stop offset="1" stop-color="#BF9F5E"/></linearGradient></defs></svg>
