<svg width="516" height="300" viewBox="0 0 516 300" fill="none" xmlns="http://www.w3.org/2000/svg"><mask id="a" maskUnits="userSpaceOnUse" x="0" y="0" width="516" height="300"><path fill="#fff" d="M0 0h516v300H0z"/></mask><g mask="url(#a)"><path d="M248.394-76.1362c-122.784 0-222.3196 99.511-222.3196 222.2642 0 122.753 99.5356 222.264 222.3196 222.264" stroke="#000" stroke-opacity=".161175" stroke-width=".68617" stroke-linecap="square"/><path d="M-111.159-210.592h356.808V8.89411c0 75.79229-61.441 137.23389-137.234 137.23389h-219.574v-356.72z" stroke="#000" stroke-opacity=".161175" stroke-width=".68617" stroke-linecap="square"/><path clip-rule="evenodd" d="M245.649 255.888c60.633 0 109.787-49.141 109.787-109.76 0-60.6186-49.154-109.7598-109.787-109.7598-60.634 0-109.788 49.1412-109.788 109.7598 0 60.619 49.154 109.76 109.788 109.76z" stroke="#92C7B8" stroke-width=".68617"/><path fill-rule="evenodd" clip-rule="evenodd" d="M327.987 152.99v-13.724h-.508c-.948 0-1.866.301-2.653.83-3 2.016-6.74 2.986-9.861 3.795-1.487.385-2.833.734-3.892 1.142-.842.325-.922.79-.922 1.095 0 .305.08.77.922 1.095 1.059.408 2.405.757 3.892 1.142 3.121.809 6.861 1.779 9.861 3.795.787.529 1.705.83 2.653.83h.508z" fill="#359177"/><path fill-rule="evenodd" clip-rule="evenodd" d="M327.987 152.99v-13.724h-.508c-.948 0-1.866.301-2.653.83-3 2.016-6.74 2.986-9.861 3.795-1.487.385-2.833.734-3.892 1.142-.842.325-.922.79-.922 1.095 0 .305.08.77.922 1.095 1.059.408 2.405.757 3.892 1.142 3.121.809 6.861 1.779 9.861 3.795.787.529 1.705.83 2.653.83h.508z" fill="url(#paint0_linear)"/><path fill-rule="evenodd" clip-rule="evenodd" d="M327.987 152.99v-13.724h-.508c-.948 0-1.866.301-2.653.83-3 2.016-6.74 2.986-9.861 3.795-1.487.385-2.833.734-3.892 1.142-.842.325-.922.79-.922 1.095 0 .305.08.77.922 1.095 1.059.408 2.405.757 3.892 1.142 3.121.809 6.861 1.779 9.861 3.795.787.529 1.705.83 2.653.83h.508z" fill="url(#paint1_linear)"/><path fill-rule="evenodd" clip-rule="evenodd" d="M516.628 3.43994V288.816c-.915-94.394-63.128-141.59-186.639-141.59v-2.196c123.511 0 185.724-47.1965 186.639-141.59006z" fill="#D7EAE1"/><path d="M247.021-76.1362c122.784 0 222.32 99.511 222.32 222.2642 0 122.753-99.536 222.264-222.32 222.264" stroke="#000" stroke-opacity=".161175" stroke-width=".68617" stroke-linecap="square"/><path fill-rule="evenodd" clip-rule="evenodd" d="M245.649 180.428c18.19 0 32.936-14.743 32.936-32.928 0-18.186-14.746-32.928-32.936-32.928-18.19 0-32.936 14.742-32.936 32.928 0 18.185 14.746 32.928 32.936 32.928z" fill="#437D6D"/><path fill-rule="evenodd" clip-rule="evenodd" d="M245.649 180.428c18.19 0 32.936-14.743 32.936-32.928 0-18.186-14.746-32.928-32.936-32.928-18.19 0-32.936 14.742-32.936 32.928 0 18.185 14.746 32.928 32.936 32.928z" fill="#4E8764"/><path fill-rule="evenodd" clip-rule="evenodd" d="M245.649 180.428c18.19 0 32.936-14.743 32.936-32.928 0-18.186-14.746-32.928-32.936-32.928-18.19 0-32.936 14.742-32.936 32.928 0 18.185 14.746 32.928 32.936 32.928z" fill="#3D725E"/><path fill-rule="evenodd" clip-rule="evenodd" d="M245.649 180.428c18.19 0 32.936-14.743 32.936-32.928 0-18.186-14.746-32.928-32.936-32.928-18.19 0-32.936 14.742-32.936 32.928 0 18.185 14.746 32.928 32.936 32.928z" fill="url(#paint2_linear)"/><path fill-rule="evenodd" clip-rule="evenodd" d="M299.17 251.772c5.305 0 9.606-4.3 9.606-9.604 0-5.304-4.301-9.604-9.606-9.604-5.306 0-9.607 4.3-9.607 9.604 0 5.304 4.301 9.604 9.607 9.604z" fill="url(#paint3_linear)"/><path fill-rule="evenodd" clip-rule="evenodd" d="M299.17 251.772c5.305 0 9.606-4.3 9.606-9.604 0-5.304-4.301-9.604-9.606-9.604-5.306 0-9.607 4.3-9.607 9.604 0 5.304 4.301 9.604 9.607 9.604z" fill="url(#paint4_linear)"/><path fill-rule="evenodd" clip-rule="evenodd" d="M82.3406 159.848c7.5792 0 13.7234-6.142 13.7234-13.72 0-7.577-6.1442-13.72-13.7234-13.72s-13.7234 6.143-13.7234 13.72c0 7.578 6.1442 13.72 13.7234 13.72z" fill="url(#paint5_linear)"/><path fill-rule="evenodd" clip-rule="evenodd" d="M459.048 84.3882c2.653 0 4.804-2.1499 4.804-4.802 0-2.6521-2.151-4.802-4.804-4.802-2.652 0-4.803 2.1499-4.803 4.802 0 2.6521 2.151 4.802 4.803 4.802z" fill="url(#paint6_linear)"/></g><defs><linearGradient id="paint0_linear" x1="310.87" y1="139.829" x2="310.87" y2="152.809" gradientUnits="userSpaceOnUse"><stop stop-color="#79B1A6"/><stop offset="1" stop-color="#0D6763"/></linearGradient><linearGradient id="paint1_linear" x1="310.87" y1="139.829" x2="310.87" y2="152.809" gradientUnits="userSpaceOnUse"><stop stop-color="#79B1A6"/><stop offset="1" stop-color="#0D6763"/></linearGradient><linearGradient id="paint2_linear" x1="292.059" y1="153.412" x2="250.447" y2="104.192" gradientUnits="userSpaceOnUse"><stop stop-color="#0D6763"/><stop offset="1" stop-color="#D7EAE1"/></linearGradient><linearGradient id="paint3_linear" x1="314.173" y1="240.31" x2="299.375" y2="228.538" gradientUnits="userSpaceOnUse"><stop stop-color="#438F83"/><stop offset="1" stop-color="#fff"/></linearGradient><linearGradient id="paint4_linear" x1="312.266" y1="240.004" x2="298.952" y2="229.413" gradientUnits="userSpaceOnUse"><stop stop-color="#BC1A24"/><stop offset="1" stop-color="#FFBFB1"/></linearGradient><linearGradient id="paint5_linear" x1="66.6401" y1="145.665" x2="83.0309" y2="162.675" gradientUnits="userSpaceOnUse"><stop stop-color="#EFDAAF"/><stop offset="1" stop-color="#BF9F5E"/></linearGradient><linearGradient id="paint6_linear" x1="466.251" y1="78.634" x2="459.115" y2="72.9574" gradientUnits="userSpaceOnUse"><stop stop-color="#79B1A6"/><stop offset="1" stop-color="#D7EAE1"/></linearGradient></defs></svg>
