<svg width="20" height="20" viewBox="0 0 20 20" fill="none" xmlns="http://www.w3.org/2000/svg">
<path d="M10 20C15.5228 20 20 15.5228 20 10C20 4.47715 15.5228 0 10 0C4.47715 0 0 4.47715 0 10C0 15.5228 4.47715 20 10 20Z" fill="#028CCC"/>
<path d="M10.0083 11.1167C11.775 11.1167 13.225 9.675 13.225 7.9C13.225 6.125 11.7833 4.68333 10.0083 4.68333C8.23333 4.68333 6.79167 6.125 6.79167 7.9C6.79167 9.675 8.23333 11.1167 10.0083 11.1167Z" fill="white"/>
<path d="M15.1917 13.2333C14.9 12.4417 14.4167 11.725 13.8083 11.15C13.5167 10.8667 13.05 10.8917 12.7417 11.15C12.0083 11.7667 11.0583 12.1417 10.0167 12.1417C8.975 12.1417 8.025 11.7667 7.28333 11.1417C6.975 10.875 6.51667 10.8583 6.21667 11.1417C5.6 11.725 5.125 12.4417 4.825 13.2333C4.71667 13.5333 4.65833 13.8583 4.73333 14.1667C4.9 14.8583 5.51667 15.3083 6.18333 15.3083H13.8333C14.5 15.3083 15.1083 14.8667 15.2833 14.1667C15.3583 13.8583 15.3083 13.5333 15.2 13.2333H15.1917Z" fill="white"/>
</svg>
