<svg width="20" height="20" viewBox="0 0 20 20" fill="none" xmlns="http://www.w3.org/2000/svg">
<path d="M10 20C15.5228 20 20 15.5228 20 10C20 4.47715 15.5228 0 10 0C4.47715 0 0 4.47715 0 10C0 15.5228 4.47715 20 10 20Z" fill="#CAB600"/>
<path d="M13.5833 11.3C13.1333 10.075 11.7167 9.25833 9.8 9.11667C8.8 9.04167 8.4 8.475 8.35 8.01667C8.3 7.525 8.61667 7.13333 9.18333 6.975C10.775 6.525 11.5083 7.39167 11.6 7.5C11.9083 7.925 12.5 8.01667 12.925 7.70833C13.3583 7.4 13.4583 6.8 13.15 6.375C13.1083 6.31667 12.4083 5.36667 11.0333 5.04167V4.63333C11.0333 4.1 10.6 3.675 10.075 3.675C9.55 3.675 9.11667 4.1 9.11667 4.63333V5.025C8.96667 5.05 8.825 5.08333 8.66667 5.125C7.19167 5.54167 6.3 6.775 6.44167 8.2C6.575 9.49167 7.61667 10.8667 9.65833 11.0167C10.9167 11.1083 11.65 11.5667 11.7917 11.95C11.9167 12.2833 11.6 12.6667 11.3917 12.8667C10.2667 13.9917 8.44167 12.8667 7.9 12.325C7.525 11.95 6.91667 11.95 6.54167 12.325C6.16667 12.7 6.16667 13.3083 6.54167 13.6833C7.15833 14.3 8.1 14.8667 9.125 15.1167V15.3083C9.1 15.8333 9.50833 16.2833 10.0333 16.3083C10.05 16.3083 10.0583 16.3083 10.075 16.3083C10.5833 16.3083 11.0083 15.9 11.0333 15.3917V15.1667C11.65 15.0333 12.2333 14.7417 12.7417 14.2333C13.6333 13.3417 13.9417 12.2667 13.575 11.2917L13.5833 11.3Z" fill="white"/>
</svg>
