<svg width="20" height="20" viewBox="0 0 20 20" fill="none" xmlns="http://www.w3.org/2000/svg">
<path d="M10 20C15.5228 20 20 15.5228 20 10C20 4.47715 15.5228 0 10 0C4.47715 0 0 4.47715 0 10C0 15.5228 4.47715 20 10 20Z" fill="#E95656"/>
<path d="M14.9667 6.20833C14.3833 5.55 13.5667 5.19167 12.5833 5.19167C11.5417 5.19167 10.5833 5.68333 10 6.49167C9.41667 5.68333 8.45833 5.19167 7.41667 5.19167C6.43333 5.19167 5.61667 5.54167 5.03333 6.20833C4.425 6.90833 4.14167 7.9 4.275 8.875C4.76667 12.425 7.93333 14.625 9.26667 15.4C9.49167 15.5333 9.74167 15.5917 10 15.5917C10.2583 15.5917 10.5 15.525 10.7333 15.4C11.4 15.0083 12.525 14.2667 13.5417 13.175C14.5667 12.0833 15.4833 10.65 15.725 8.875C15.8583 7.90833 15.575 6.90833 14.9667 6.20833Z" fill="white"/>
</svg>
