<svg width="20" height="20" viewBox="0 0 20 20" fill="none" xmlns="http://www.w3.org/2000/svg">
<path d="M10 20C15.5228 20 20 15.5228 20 10C20 4.47715 15.5228 0 10 0C4.47715 0 0 4.47715 0 10C0 15.5228 4.47715 20 10 20Z" fill="#379F03"/>
<path d="M10 4.68333C6.925 4.68333 4.43333 7.06667 4.43333 10C4.43333 10.9333 4.69167 11.85 5.175 12.65L4.64167 13.5417C4.43333 13.8833 4.45 14.3083 4.675 14.6333C4.91667 14.9833 5.33333 15.15 5.74167 15.075L7.53333 14.7667C8.3 15.125 9.15 15.3167 10 15.3167C13.075 15.3167 15.5667 12.9333 15.5667 10C15.5667 7.06667 13.0667 4.68333 10 4.68333ZM10.1917 11.4167H8.275C8.03333 11.4167 7.825 11.2167 7.825 10.9667C7.825 10.7167 8.025 10.5167 8.275 10.5167H10.1917C10.4333 10.5167 10.6417 10.7167 10.6417 10.9667C10.6417 11.2167 10.4417 11.4167 10.1917 11.4167ZM11.725 9.475H8.26667C8.025 9.475 7.81667 9.275 7.81667 9.025C7.81667 8.775 8.01667 8.575 8.26667 8.575H11.725C11.9667 8.575 12.175 8.775 12.175 9.025C12.175 9.275 11.975 9.475 11.725 9.475Z" fill="white"/>
</svg>
