<svg width="20" height="20" viewBox="0 0 20 20" fill="none" xmlns="http://www.w3.org/2000/svg">
<rect width="20" height="20" rx="10" fill="#C58463"/>
<path d="M10.0655 12.6346C9.09591 12.6346 8.31396 11.7949 8.31396 10.7686C8.31396 9.86218 9.52129 8.2427 9.76525 7.9228C9.84032 7.82283 9.95292 7.76952 10.0655 7.76952C10.1844 7.76952 10.297 7.82283 10.3658 7.9228C10.6098 8.2427 11.8171 9.86218 11.8171 10.7686C11.8171 11.8016 11.0289 12.6346 10.0655 12.6346ZM10.0655 8.8625C9.59635 9.54228 9.09591 10.3953 9.09591 10.7619C9.09591 11.335 9.5338 11.7949 10.0655 11.7949C10.5972 11.7949 11.0351 11.3284 11.0351 10.7619C11.0351 10.3953 10.5347 9.53562 10.0655 8.8625Z" fill="white"/>
<path d="M10.003 16.6667C6.78134 16.6667 4.1665 13.8809 4.1665 10.4487C4.1665 7.28301 5.59278 6.20335 6.85641 5.24366C7.73219 4.57721 8.48286 4.00406 8.78313 2.81111C8.8144 2.69781 8.88322 2.59784 8.9833 2.54453C9.08339 2.49121 9.19599 2.48455 9.30234 2.5312C11.2916 3.37759 11.4918 4.2773 11.5293 5.19701C11.5481 5.61688 11.5669 5.73684 11.8296 5.87679C12.036 5.99009 12.1174 5.93677 12.1424 5.92344C12.3551 5.79682 12.4927 5.23033 12.5177 4.88378C12.5302 4.73716 12.6115 4.60387 12.7367 4.54389C12.8618 4.47724 13.0119 4.49057 13.1245 4.57054C14.8948 5.83014 15.8332 7.86282 15.8332 10.4487C15.8332 13.8742 13.2121 16.6667 9.99671 16.6667H10.003ZM9.39617 3.48423C8.95828 4.67051 8.12003 5.30364 7.30681 5.92344C6.09322 6.84315 4.94845 7.7162 4.94845 10.4487C4.94845 13.421 7.21297 15.8336 10.003 15.8336C12.793 15.8336 15.0575 13.421 15.0575 10.4487C15.0575 8.37599 14.4257 6.76317 13.1808 5.6502C13.0745 6.02341 12.8868 6.44328 12.5365 6.64988C12.3238 6.78317 11.9672 6.88314 11.4855 6.62322C10.7974 6.25667 10.7724 5.67019 10.7536 5.237C10.7286 4.69051 10.7036 4.12402 9.39617 3.48423Z" fill="white"/>
</svg>
