<svg width="20" height="20" viewBox="0 0 20 20" fill="none" xmlns="http://www.w3.org/2000/svg">
<path d="M10 20C15.5228 20 20 15.5228 20 10C20 4.47715 15.5228 0 10 0C4.47715 0 0 4.47715 0 10C0 15.5228 4.47715 20 10 20Z" fill="#40BFA5"/>
<path d="M15.1667 10.9667C14.4833 11.425 14.1333 11.85 12.8917 12.5083C12.4 12.725 11.9 12.8 11.8333 12.525C11.7917 12.3583 11.8333 12.2583 12.2833 12.0833C13.8083 11.4917 15.35 10.0167 15.825 9.56667C16.1667 9.23333 16.4 8.69167 16.2417 8.36667C16.0917 8.03333 15.5333 8.00833 15.1833 8.36667C14 9.63333 12.95 10.2417 12.225 10.625C11.9 10.8 11.425 10.9417 11.3083 10.675C11.2083 10.45 11.4917 10.2917 11.9583 10.075C13.5083 9.24167 14.4583 8.36667 14.9417 7.66667C15.2583 7.20833 15.6833 6.51667 15.325 6.16667C14.925 5.76667 14.4167 6.125 14.1083 6.6C13.6833 7.24167 12.5417 8.3 11.3333 8.96667C10.925 9.19167 10.6167 9.225 10.5333 8.93333C10.4833 8.76667 10.825 8.55833 11.1833 8.325C11.9167 7.81667 12.8583 7.075 13.3083 6.5C13.7333 5.95833 13.8 5.69167 13.65 5.38333C13.3083 4.68333 12.4667 5.4 11.575 6.20833C10.5333 7.15833 9.15 7.85833 8.46667 7.98333C8.3 8.00833 8.05833 7.88333 8.375 7.44167C8.98333 6.58333 9.35 6.125 9.425 5.51667C9.5 4.89167 9.20833 4.49167 8.89167 4.43333C8.275 4.31667 8.09167 5.15 6.925 6.60833C5.73333 8.09167 4.76667 8.35833 4.19167 9.725C3.25833 11.925 3.825 13.8 5.25833 14.8C6.34167 15.55 7.55833 15.9333 9.95 15.225C11.9167 14.6417 13.7 13.825 15.1583 12.4833C15.6333 12.0417 16.175 11.4417 16.0417 10.975C15.9417 10.7167 15.675 10.6417 15.175 10.975L15.1667 10.9667Z" fill="white"/>
</svg>
