<svg height="300" viewBox="0 0 516 300" width="516" xmlns="http://www.w3.org/2000/svg" xmlns:xlink="http://www.w3.org/1999/xlink"><defs><linearGradient id="a" x1="95.897%" x2="1.32%" y1="51.32%" y2="51.32%"><stop offset="0" stop-color="#79b1a6"/><stop offset="1" stop-color="#0d6763"/></linearGradient><path id="b" d="m319.07 137.21c.304 0 .77.08 1.094.921 1.266 3.283 1.96 9.325 4.937 13.753.064.095.34.495.83 3.162h-13.724c.49-2.667.766-3.067.83-3.162 2.977-4.428 3.672-10.47 4.937-13.753.325-.842.79-.921 1.095-.921z"/><linearGradient id="c" x1="95.434%" x2="21.137%" y1="77.234%" y2="18.145%"><stop offset="0" stop-color="#79b1a6"/><stop offset="1" stop-color="#d7eae1"/></linearGradient><linearGradient id="d" x1="83.092%" x2="19.903%" y1="90.571%" y2="15.848%"><stop offset="0" stop-color="#0d6763"/><stop offset="1" stop-color="#d7eae1"/></linearGradient><ellipse id="e" cx="245.649" cy="147.5" rx="32.936" ry="32.928"/><linearGradient id="f" x1="97.457%" x2="20.421%" y1="78.844%" y2="17.577%"><stop offset="0" stop-color="#438f83"/><stop offset="1" stop-color="#fff"/></linearGradient><linearGradient id="g" x1="90.602%" x2="21.291%" y1="73.392%" y2="18.268%"><stop offset="0" stop-color="#a13a21"/><stop offset="1" stop-color="#f09a85"/></linearGradient><ellipse id="h" cx="299.17" cy="242.168" rx="9.606" ry="9.604"/><linearGradient id="i" x1="23.784%" x2="83.518%" y1="18.443%" y2="80.419%"><stop offset="0" stop-color="#efdaaf"/><stop offset="1" stop-color="#bf9f5e"/></linearGradient><mask id="j" fill="#fff"><path d="m0 0h516v300h-516z" fill="#fff" fill-rule="evenodd"/></mask></defs><g fill="none" fill-rule="evenodd"><g stroke-width=".686"><path d="m-85.03 34.968c0 122.784 99.511 222.32 222.264 222.32s222.264-99.536 222.264-222.32" mask="url(#j)" stroke="#000" stroke-linecap="square" stroke-opacity=".161" transform="matrix(0 1 -1 0 283.362 8.894)"/><path d="m-111.16-210.592h356.81v219.486c0 75.792-61.442 137.234-137.234 137.234h-219.576z" mask="url(#j)" stroke="#000" stroke-linecap="square" stroke-opacity=".161"/><ellipse cx="245.649" cy="146.128" mask="url(#j)" rx="109.787" ry="109.76" stroke="#92c7b8"/></g><g mask="url(#j)" transform="matrix(0 -1 1 0 172.942 465.198)"><use fill="#359177" xlink:href="#b"/><g fill="url(#a)"><use xlink:href="#b"/><use xlink:href="#b"/></g></g><g fill="#d7eae1" mask="url(#j)"><path d="m516.628 3.44v285.376c-.915-94.394-63.128-141.59-186.639-141.59v-2.196c123.511 0 185.724-47.196 186.639-141.59z"/></g><path d="m135.917 34.968c0 122.784 99.51 222.32 222.264 222.32 122.753 0 222.264-99.536 222.264-222.32" mask="url(#j)" stroke="#000" stroke-linecap="square" stroke-opacity=".161" stroke-width=".686" transform="matrix(0 1 1 0 212.053 -212.053)"/><ellipse cx="90.574" cy="-10.28" fill="url(#c)" mask="url(#j)" rx="10.979" ry="10.976"/><g mask="url(#j)"><use fill="#437d6d" xlink:href="#e"/><use fill="#4e8764" xlink:href="#e"/><use fill="#3d725e" xlink:href="#e"/><use fill="url(#d)" xlink:href="#e"/></g><g mask="url(#j)"><use fill="url(#f)" xlink:href="#h"/><use fill="url(#g)" xlink:href="#h"/></g><ellipse cx="82.34" cy="146.128" fill="url(#i)" mask="url(#j)" rx="13.723" ry="13.72"/><ellipse cx="459.048" cy="79.586" fill="url(#c)" mask="url(#j)" rx="4.803" ry="4.802"/></g></svg>