<svg height="300" viewBox="0 0 516 300" width="516" xmlns="http://www.w3.org/2000/svg" xmlns:xlink="http://www.w3.org/1999/xlink"><defs><linearGradient id="a"><stop offset="0" stop-color="#d7eae1"/><stop offset="1" stop-color="#fff"/></linearGradient><linearGradient id="b" x1="12.37%" x2="67.226%" xlink:href="#a" y1="35.343%" y2="44.672%"/><linearGradient id="c" x1="97.457%" x2="20.421%" y1="78.844%" y2="17.577%"><stop offset="0" stop-color="#438f83"/><stop offset="1" stop-color="#fff"/></linearGradient><linearGradient id="d" x1="90.602%" x2="21.291%" y1="73.392%" y2="18.268%"><stop offset="0" stop-color="#a13a21"/><stop offset="1" stop-color="#f09a85"/></linearGradient><circle id="e" cx="452.704" cy="23.392" r="9.632"/><linearGradient id="f" x1="42.543%" x2="50%" xlink:href="#a" y1="100%" y2="8.94%"/><linearGradient id="g" x1="83.092%" x2="19.903%" y1="90.571%" y2="15.848%"><stop offset="0" stop-color="#0d6763"/><stop offset="1" stop-color="#d7eae1"/></linearGradient><circle id="h" cx="347.44" cy="174.064" r="105.264"/><linearGradient id="i" x1="17.15%" x2="84.77%" y1="78.999%" y2="16.872%"><stop offset="0" stop-color="#bfdcd7"/><stop offset="1" stop-color="#85b4ad"/></linearGradient><circle id="j" cx="310.976" cy="134.848" r="31.648"/><linearGradient id="k" x1="23.784%" x2="83.518%" y1="18.443%" y2="80.419%"><stop offset="0" stop-color="#efdaaf"/><stop offset="1" stop-color="#bf9f5e"/></linearGradient><linearGradient id="l" x1="72.531%" x2="64.817%" y1="100%" y2="0%"><stop offset="0" stop-color="#79b1a6"/><stop offset="1" stop-color="#d7eae1"/></linearGradient><mask id="m" fill="#fff"><path d="m0 0h516v300h-516z" fill="#fff" fill-rule="evenodd"/></mask></defs><g fill="none" fill-rule="evenodd" mask="url(#m)"><g transform="translate(0 -22)"><path d="m401.104 313.728c58.136 0 105.264-47.128 105.264-105.264s-47.128-105.264-105.264-105.264-105.264 47.128-105.264 105.264 47.128 105.264 105.264 105.264z" fill="url(#b)" stroke="#c4e1d3" stroke-dasharray="5.504 11.008" stroke-width="2.752"/><use fill="url(#c)" xlink:href="#e"/><use fill="url(#d)" xlink:href="#e"/><path d="m73.616 401.792c33.817 0 61.232-27.414 61.232-61.232 0-33.817-27.415-61.232-61.232-61.232s-61.232 27.415-61.232 61.232 27.415 61.232 61.232 61.232z" fill="url(#f)" stroke="#c4e1d3" stroke-dasharray="5.504 11.008" stroke-width="2.752"/><use fill="#437d6d" xlink:href="#h"/><use fill="#4e8764" xlink:href="#h"/><use fill="#3d725e" xlink:href="#h"/><use fill="url(#g)" xlink:href="#h"/><g opacity=".7"><use fill="#359177" xlink:href="#j"/><use fill="url(#i)" xlink:href="#j"/></g><circle cx="134.848" cy="174.752" fill="url(#k)" r="27.52"/><circle cx="23.392" cy="53.664" fill="url(#l)" r="49.536"/></g></g></svg>