<svg width="259" height="119" viewBox="0 0 259 119" fill="none" xmlns="http://www.w3.org/2000/svg">
<g clip-path="url(#clip0_5646_978)">
<path d="M69.9946 76.3492C68.183 76.5198 62.3208 74.7256 59.8469 74.2855C56.3274 73.5804 45.3937 74.6158 42.4517 71.6719C40.4715 70.2063 39.4832 68.2333 39.4832 65.7577C39.0779 59.4052 39.4012 56.3913 37.8273 56.1282C34.5036 56.4966 29.0841 58.2363 26.2295 59.9796C25.1265 60.8971 8.31235 66.5654 6.90145 66.3067C4.72818 66.2441 4.06418 66.8431 2.48387 67.1326C2.20788 67.1326 1.72422 66.7196 1.0338 65.8947C-0.513719 64.136 -0.371627 62.6649 1.79345 61.6304C3.25444 60.8218 8.97271 59.1747 11.4575 58.1909C13.3803 57.7217 15.1528 56.8061 17.2559 56.6781C18.5438 56.4957 19.5103 56.2207 20.1551 55.8532C20.0231 55.6463 37.0795 49.6722 36.8609 49.6631C37.6716 48.5523 32.5927 45.3851 32.7193 41.1353C32.7193 38.9346 33.2713 37.8338 34.3761 37.8338C35.7497 37.5071 39.1708 41.0055 41.9689 44.2998C43.6266 46.4097 44.6832 47.4633 45.145 47.4633C50.3632 45.7064 66.2902 40.7914 70.134 38.7976C71.053 37.8819 71.9047 37.2848 72.688 37.0089C73.4686 36.7339 74.8731 36.5061 76.8988 36.321C77.6348 36.2312 79.2907 36.046 81.8684 35.7711C83.2629 35.1385 86.3434 34.8563 87.6668 35.9771C88.9475 36.9436 88.8163 38.4763 88.0812 39.7604C87.5293 40.9538 85.5491 41.8713 82.1444 42.5111C74.6709 44.1074 53.1331 50.7494 47.2145 53.5155C46.1806 56.159 45.7143 63.6922 46.524 66.0327C47.0305 68.0319 54.5795 67.5228 57.5689 67.8214C66.3148 68.5501 74.2146 67.5191 74.6891 72.9106C74.742 75.6958 72.3118 76.2112 69.9946 76.3501V76.3492Z" fill="white"/>
<path d="M187.347 85.5658C185.045 85.5658 183.388 85.2908 182.376 84.7408C179.709 82.7207 183.743 78.1977 186.38 78.8257C191.596 79.9038 205.402 74.0677 210.955 72.7745C214.078 71.8098 215.856 71.0003 212.888 69.748C211.231 69.1073 210.172 67.5945 209.712 65.2087C209.527 64.3837 209.344 63.9018 209.161 63.7648C208.975 63.6269 208.47 63.5579 207.642 63.5579C203.976 63.9599 191.202 68.247 190.799 64.7957C191.019 62.537 192.415 61.4525 195.01 60.1874C199.806 58.0947 200.85 59.4151 206.4 57.0239C212.42 54.7823 210.981 54.8277 212.198 50.3528C212.459 47.8545 214.062 44.9786 209.989 45.1265C206.345 45.3997 201.181 45.8779 197.564 46.3643C197.288 46.4569 196.55 46.5014 195.355 46.5014C194.893 46.5014 194.664 46.456 194.664 46.3643C197.78 44.8397 199.907 44.7971 207.642 42.9249C210.218 42.375 211.806 41.825 212.405 41.2742C214.07 39.5036 213.048 31.376 213.027 30.2698C212.934 29.9948 212.198 29.904 210.817 29.9948C210.035 29.8659 194.326 36.4617 184.585 40.1743C183.497 40.383 167.256 47.4987 173.817 47.4642C176.229 47.6439 184.587 45.4432 186.795 47.4642C184.347 51.2286 174.566 52.3412 169.675 53.3793C167.655 54.02 161.391 54.8332 158.976 53.5853C158.376 53.1724 158.078 52.3257 158.078 51.0407C158.083 44.6973 176.319 39.6597 181.548 36.4599C183.296 35.634 184.586 34.8091 185.414 33.9842C185.53 33.5749 193.091 31.0502 193.422 31.2335C194.065 31.2335 195.307 30.7762 197.149 29.8587C199.91 28.7579 202.348 27.8422 204.467 27.108C210.265 24.999 213.255 23.8065 213.441 23.5307C213.531 23.4408 213.578 22.8909 213.578 21.8799C213.557 20.4052 213.466 17.0048 212.888 15.9648C212.747 14.9656 201.791 19.8907 201.705 19.5413C200.592 19.7827 201.952 19.6239 199.825 20.3862C197.73 21.1376 197.684 20.7011 195.828 20.7011C195.367 20.7011 194.202 20.3671 193.559 20.3671C189.735 20.1593 189.472 15.7243 194.249 15.6907C195.906 15.5083 196.871 15.2778 197.148 15.0028C199.872 13.5445 208.15 11.1323 209.988 10.0506C214.056 8.53144 211.773 6.12837 213.716 3.99846C214.359 3.35776 214.683 2.89857 214.683 2.62359C214.626 1.97836 216.067 -0.126143 216.892 0.00998254C218.294 0.230506 218.677 1.87762 218.687 3.44851C218.687 4.45856 218.778 5.14645 218.963 5.51127C219.315 6.45053 221.385 5.8534 222.138 5.78624C228.324 3.77521 237.763 2.03008 240.362 8.67482C241.093 9.72299 240.757 15.1535 241.19 16.9286C241.678 18.5603 243.743 18.0384 246.437 18.4414C249.133 18.3679 253.362 19.7899 256.102 19.9542C257.594 19.868 259.005 21.3463 259.001 22.7048C258.445 26.6879 249.913 25.3202 245.885 25.5943C243.139 25.7976 239.599 25.185 237.878 27.0382C237.416 27.6362 236.911 28.7579 236.359 30.4086C234.333 36.0034 232.401 39.3493 230.561 40.4501C229.527 41.5754 222.771 42.6427 220.897 43.8887C220.069 44.4386 219.538 45.0122 219.309 45.6084C218.846 46.5849 218.335 50.0806 218.273 51.5916C218.325 53.991 219.668 53.02 221.586 52.3484C222.782 51.8457 223.657 51.3638 224.209 50.9046C225.436 49.6177 228.597 50.1568 228.351 52.1424C227.979 54.5655 226.657 56.0247 224.003 57.7136C221.839 59.044 220.068 59.7083 218.687 59.7083C216.859 59.7391 217.185 63.0697 217.307 64.3855C217.307 66.7714 217.076 68.3296 216.617 69.0628C216.341 69.4304 216.202 69.7979 216.202 70.1636C216.202 70.5293 216.568 70.7136 217.307 70.7136C223.922 69.4639 230.301 67.9856 237.464 68.1009C241.686 68.3087 242.44 67.737 244.437 69.9567C245.349 71.1882 245.495 72.6611 244.574 73.8771C243.439 76.0533 236.553 75.9526 234.979 76.4907V73.1901C220.215 74.7574 213.225 78.4001 196.46 83.3687C194.151 84.1809 190.415 85.6248 187.348 85.5694L187.347 85.5658ZM210.61 115.759C207.149 109.174 211.585 98.6456 219.101 97.258C220.147 97.0439 221.508 97.0774 222.276 97.8089C223.724 99.0495 223.163 100.827 221.585 101.935L218.825 104.412C217.811 105.237 217.075 105.695 216.616 105.787C215.533 106.232 214.939 107.74 214.959 108.95C214.959 110.142 215.235 110.967 215.787 111.427C216.874 112.497 221.26 112.099 222.207 111.77C224.527 110.54 224.825 108.711 227.246 104.411L231.664 96.4322C232.583 95.2416 233.045 94.2315 233.045 93.4057C232.517 91.166 230.839 91.0244 227.522 90.93C219.52 90.8275 208.49 97.2571 203.913 103.447C203.095 104.412 203.806 109.41 202.533 110.807C201.142 112.958 197.39 111.852 196.527 109.706C195.472 106.268 195.73 104.129 195.63 98.7708C195.877 94.1335 195.021 90.4763 197.7 90.3801C198.712 90.3801 199.448 90.7476 199.91 91.48C201.381 94.3241 202.395 95.7443 202.948 95.7443C203.224 95.7443 204.004 95.2869 205.295 94.3695C209.454 91.2694 211.358 89.5034 217.858 87.5605C225.968 84.8543 237.981 83.5457 239.81 92.8566C239.81 95.6999 237.968 100.33 234.288 106.751C232.932 109.158 230.459 114.468 228.765 115.966C225.326 119.045 221.161 118.712 216.202 118.993C213.767 119.114 211.786 117.96 210.611 115.76L210.61 115.759ZM226.693 37.4209C229.454 35.6812 230.962 28.7424 231.526 25.5916C231.722 24.8583 229.828 24.1196 229.593 24.7667C229.658 24.9046 220.02 27.1834 220.205 27.5173C220.112 27.6099 219.974 28.4348 219.791 29.993C219.797 37.6478 216.365 41.56 226.693 37.4209ZM229.455 19.9515C233.242 19.4278 232.973 19.7591 234.287 16.238C236.564 8.33995 232.718 8.33633 225.658 10.5289C218.943 12.9628 220.037 10.5352 219.79 18.4377C219.79 19.2636 219.88 20.0431 220.066 20.7764C220.138 21.5532 221.686 21.3354 221.998 21.1893C222.963 20.9896 228.361 20.1321 229.454 19.9515H229.455Z" fill="white"/>
<path d="M136.264 75.4262C136.264 67.6326 136.739 68.7906 136.871 64.3529C136.725 60.015 137.293 53.3594 137.368 48.9761C137.309 43.4231 137.281 33.4497 136.125 29.3051C134.964 26.8022 134.234 28.3849 132.812 26.6924C132.443 26.1415 131.89 25.8666 131.155 25.8666C123.675 26.4873 116.255 31.0738 110.032 37.2848C108.127 38.7531 107.897 40.5463 107.547 43.8869C107.117 54.7615 107.21 61.1993 107.684 70.16C107.96 74.9289 108.42 77.773 109.065 78.6887C109.555 79.5953 110.811 79.8685 111.964 79.7895C114.054 79.5263 114.144 79.3929 115.278 77.4509C117.175 74.0731 121.827 72.2854 124.754 70.3569C128.429 71.9768 127.65 74.2192 128.587 77.195C129.212 78.8838 129.838 80.0627 130.465 80.7233C131.569 82.1263 134.689 81.8468 135.712 80.6544C136.53 80.0826 136.496 76.135 136.265 75.4271L136.264 75.4262ZM130.741 51.1768C130.698 53.9983 130.298 59.3779 130.225 61.9825C127.92 63.4172 117.543 67.2868 116.107 67.5455C115.369 67.2705 115.002 65.117 115.002 61.0804C115.002 59.9796 115.417 59.2473 116.245 58.8797C116.98 58.3298 117.808 57.5965 118.73 56.679C120.846 54.6635 122.503 53.3784 123.7 52.8276C125.264 52.0943 126.507 51.0389 127.428 49.6631C129.549 46.3988 130.803 46.6466 130.741 51.1759V51.1768ZM113.07 45.8126C112.425 45.3543 112.84 43.9794 114.313 41.6853C116.383 37.803 123.816 32.2227 128.119 31.7817C128.209 31.6909 128.485 31.8742 128.947 32.3316C129.66 32.5104 129.738 41.5201 128.809 41.8223C127.555 42.3886 121.563 47.0132 120.801 48.0124C120.484 48.8355 116.44 50.8438 114.865 51.3139C113.646 51.175 113.762 46.0022 113.069 45.8117L113.07 45.8126ZM126.741 69.8088C127.852 69.3097 128.93 68.8378 129.924 68.394C129.866 69.4431 129.801 70.336 129.73 71.0702C128.992 70.8343 128.022 70.4495 126.741 69.8088Z" fill="white"/>
</g>
<defs>
<clipPath id="clip0_5646_978">
<rect width="259" height="119" fill="white"/>
</clipPath>
</defs>
</svg>
