<svg width="102" height="90" viewBox="0 0 102 90" fill="none" xmlns="http://www.w3.org/2000/svg">
<path d="M96.6839 40.124L77.8203 67.4921C77.8203 67.4921 80.8275 71.4351 84.5787 73.329C90.4005 66.552 94.815 55.6906 97.3741 48.2473C97.1589 43.5559 96.6839 40.124 96.6839 40.124V40.124Z" fill="#C0A46B"/>
<path d="M84.5792 73.3334C87.4609 74.7892 90.7864 75.0356 93.5292 71.3482C97.3879 66.1593 97.7061 55.6402 97.37 48.2471C94.8109 55.6904 90.3965 66.5518 84.5747 73.3288L84.5792 73.3334Z" fill="#C0A46B"/>
<path d="M67.4634 5.02949L37.6734 19.0946C37.6734 19.0946 34.3928 15.3844 33.2275 11.2908C40.8061 6.65414 52.0866 4.15327 59.7324 2.90283C64.2321 3.9479 67.4634 5.02949 67.4634 5.02949V5.02949Z" fill="#C0A46B"/>
<path d="M33.2274 11.2862C32.331 8.1373 32.6806 4.76021 36.7276 2.6655C42.4239 -0.287174 52.6511 1.25533 59.7323 2.90281C52.082 4.14868 40.806 6.64955 33.2274 11.2908V11.2862Z" fill="#C0A46B"/>
<path d="M99.3954 14.3807C97.1769 9.57972 92.8162 5.94251 87.3933 4.85636C74.1812 2.21858 51.8488 2.20033 26.6705 20.8108C23.4975 23.1565 21.4896 26.8166 21.2207 30.8006C20.8353 36.5189 22.2426 45.532 30.2783 57.4659C31.3046 58.9902 32.434 60.5601 33.6889 62.1802C44.7498 76.478 54.4751 80.7816 60.7316 81.8631C64.5993 82.5294 68.5656 81.3976 71.546 78.8055C95.2094 58.2326 100.413 36.1218 100.986 22.4172C101.107 19.5604 100.529 16.8176 99.3998 14.3807H99.3954Z" fill="#C7E3D9"/>
<path d="M99.3956 14.3805C99.1535 13.8512 98.8757 13.3446 98.5844 12.8472C92.5699 28.4822 77.4127 41.5479 58.3475 50.9353C46.713 56.6626 34.9798 54.3945 26.3032 50.8212C27.4012 52.925 28.7144 55.1384 30.2785 57.4658C31.3048 58.9901 32.4342 60.56 33.6891 62.1801C44.75 76.4779 54.4753 80.7814 60.7318 81.863C64.5995 82.5293 68.5658 81.3975 71.5462 78.8054C95.2096 58.2325 100.413 36.1217 100.987 22.4171C101.108 19.5603 100.529 16.8175 99.4 14.3805H99.3956Z" fill="#B4D6C6"/>
<path d="M80.9942 49.7265C85.3931 38.9126 80.35 26.5151 69.7302 22.0358C59.1105 17.5566 46.9355 22.6918 42.5366 33.5057C38.1378 44.3196 43.1808 56.7171 53.8006 61.1963C64.4203 65.6756 76.5954 60.5404 80.9942 49.7265Z" fill="#B4D6C6"/>
<path d="M80.2089 44.4103C83.9693 35.1659 79.6582 24.5677 70.5797 20.7385C61.5012 16.9094 51.0932 21.2993 47.3328 30.5437C43.5724 39.7881 47.8835 50.3864 56.962 54.2155C66.0405 58.0447 76.4485 53.6548 80.2089 44.4103Z" fill="#E8C378"/>
<path d="M63.7748 55.5993C69.3277 55.5993 74.2889 53.0071 77.5516 48.9455C61.7715 45.9335 52.9336 34.675 48.8418 27.6333C47.0356 30.4673 45.9824 33.8444 45.9824 37.4771C45.9824 47.4851 53.9509 55.5947 63.7748 55.5947V55.5993Z" fill="#C0A46B"/>
<path d="M63.8823 58.5336C75.3017 58.5336 84.5609 49.1052 84.5609 37.477C84.5609 25.8489 75.3017 16.4204 63.8823 16.4204C52.4628 16.4204 43.2036 25.8489 43.2036 37.477C43.2036 49.1052 52.4628 58.5336 63.8823 58.5336V58.5336ZM63.8823 23.3206C71.5594 23.3206 77.7801 29.6595 77.7801 37.4725C77.7801 45.2854 71.555 51.6243 63.8823 51.6243C56.2096 51.6243 49.9845 45.2854 49.9845 37.4725C49.9845 29.6595 56.2096 23.3206 63.8823 23.3206Z" fill="#FCF2C0"/>
<path d="M14.1307 62.3672C11.491 64.1744 2.07487 67.4511 0.300112 64.7631C-1.47465 62.0751 5.06418 54.4356 7.70391 52.6284C10.3436 50.8212 13.9245 51.5377 15.6993 54.2257C17.4741 56.9137 16.7704 60.56 14.1307 62.3672Z" fill="#F6F0AF"/>
<path d="M14.1307 83.4785C11.491 85.2857 2.07487 88.5624 0.300112 85.8744C-1.47465 83.1865 5.06418 75.5469 7.70391 73.7397C10.3436 71.9325 13.9245 72.649 15.6993 75.337C17.4741 78.025 16.7704 81.6713 14.1307 83.4785Z" fill="#F6F0AF"/>
<path d="M39.784 86.5821C37.1443 88.3893 27.7282 91.6659 25.9534 88.978C24.1787 86.29 30.7175 78.6505 33.3572 76.8433C35.997 75.0361 39.5779 75.7526 41.3526 78.4405C43.1274 81.1285 42.4237 84.7749 39.784 86.5821Z" fill="#F6F0AF"/>
</svg>
