<svg width="18" height="18" viewBox="0 0 18 18" fill="none" xmlns="http://www.w3.org/2000/svg">
<path fill-rule="evenodd" clip-rule="evenodd" d="M14.1431 6.87683C12.445 5.28084 9.93366 4.96648 7.9007 5.89143C7.40442 5.43198 6.1428 4.53121 5.03663 3.76949C4.47458 3.38258 2.94388 2.34881 2.94388 2.34881L2.89605 2.31859C2.70471 2.19163 2.44162 2.24604 2.31606 2.43949C2.19049 2.63899 2.25029 2.89895 2.44162 3.03195C2.44162 3.03195 4.01417 4.08385 4.57025 4.47076C5.70631 5.25666 6.9201 6.12116 7.35061 6.52015C7.7871 6.9252 8.19369 7.45115 8.391 7.94687C8.58234 8.43051 8.54646 8.79323 8.26544 9.05318C7.99637 9.30709 7.7572 9.43405 7.54195 9.48846C7.32669 9.54286 7.10546 9.53077 6.84835 9.46427C6.59124 9.39777 6.31021 9.27687 5.98135 9.11364C5.81991 9.03505 3.15914 7.55392 3.15914 7.55392C2.96182 7.43301 2.70471 7.50556 2.58512 7.70506C2.46554 7.90456 2.53729 8.16451 2.73461 8.28542C2.73461 8.28542 5.43724 9.78468 5.60466 9.86932C5.94548 10.0386 6.2863 10.1958 6.63908 10.2865C6.86629 10.3469 7.09948 10.3711 7.33267 10.365C7.30875 10.4799 7.28484 10.5948 7.27288 10.7096C7.22504 11.2054 7.32669 11.8039 7.7273 12.2996L7.50607 12.5051C7.33865 12.6623 7.32669 12.9343 7.48215 13.1036C7.63761 13.2729 7.90668 13.285 8.0741 13.1278L8.34915 12.8678C8.58234 13.019 8.83347 13.1278 9.10254 13.1762C9.62871 13.2729 10.1668 13.1459 10.6512 12.7953C10.9143 12.6018 11.0877 12.3721 11.1773 12.1061C11.267 11.8462 11.267 11.5923 11.2252 11.3686C11.1475 10.9333 10.9083 10.5585 10.7767 10.3711C10.7528 10.3348 10.7229 10.2925 10.693 10.2562C10.5734 10.087 10.4359 9.89954 10.3402 9.70609C10.2087 9.44009 10.2446 9.34336 10.2565 9.31918C10.3642 9.15596 10.5914 8.95646 10.8545 8.88391C11.0877 8.81741 11.3866 8.83555 11.7274 9.162C11.9008 9.32523 11.9666 9.46427 11.9905 9.55495C12.0144 9.65168 12.0025 9.73632 11.9726 9.82095C11.9427 9.91163 11.8889 9.99022 11.841 10.0507C11.8171 10.0809 11.7992 10.099 11.7813 10.1172C11.7753 10.1232 11.7693 10.1293 11.7693 10.1293C11.5959 10.2804 11.578 10.5464 11.7274 10.7217C11.8769 10.897 12.14 10.9212 12.3194 10.764L12.3313 10.7519C12.3313 10.7519 12.3553 10.7278 12.3672 10.7157C12.3971 10.6854 12.439 10.6431 12.4808 10.5887C12.5645 10.4799 12.6781 10.3167 12.7499 10.1172C12.8216 9.91163 12.8635 9.65168 12.7918 9.36755C12.7559 9.20432 12.6781 9.04714 12.5765 8.896L12.9412 8.55141C13.1087 8.39423 13.1206 8.12219 12.9652 7.95292C12.8097 7.78365 12.5406 7.77156 12.3732 7.92874L11.9726 8.30355C11.5122 8.00733 11.0398 7.95896 10.6153 8.07383C10.131 8.21287 9.7483 8.55141 9.55098 8.84764C9.258 9.28896 9.4314 9.78468 9.5749 10.087C9.70644 10.359 9.89778 10.6189 10.0174 10.7822C10.0413 10.8124 10.0652 10.8426 10.0831 10.8729C10.1967 11.0361 10.3462 11.2839 10.3881 11.5318C10.412 11.6467 10.406 11.7494 10.3761 11.8341C10.3462 11.9187 10.2864 12.0154 10.1489 12.1122C9.83201 12.3419 9.52109 12.4023 9.24006 12.3479C8.94708 12.2935 8.64213 12.1122 8.36709 11.7797C8.13389 11.4955 8.06214 11.1389 8.09204 10.7943C8.12792 10.4315 8.26544 10.1776 8.33121 10.1172C8.36709 10.0809 8.39698 10.0386 8.4209 9.99023C8.55244 9.89954 8.68399 9.80282 8.80955 9.68191C9.44336 9.08341 9.40748 8.29751 9.14439 7.63856C8.99491 7.25769 8.75574 6.89497 8.49265 6.56247C10.1848 5.91561 12.1878 6.22393 13.5571 7.50556C15.3569 9.19827 15.3569 11.9248 13.5571 13.6175C11.7394 15.3283 8.77966 15.3283 6.96196 13.6175C6.74072 13.4119 6.41784 13.019 6.14877 12.5414C5.87971 12.0578 5.68837 11.5258 5.68837 11.0179C5.68837 10.7822 5.50301 10.5948 5.26982 10.5948C5.03663 10.5948 4.85127 10.7822 4.85127 11.0179C4.85127 11.7253 5.10838 12.4084 5.4193 12.9585C5.73023 13.5087 6.10692 13.9681 6.39392 14.2402C8.53451 16.2533 11.9905 16.2533 14.1311 14.2402C16.2896 12.2149 16.2896 8.91414 14.1311 6.88892L14.1431 6.87683Z" fill="currentColor"/>
</svg>
