<svg width="18" height="18" viewBox="0 0 18 18" fill="none" xmlns="http://www.w3.org/2000/svg">
<path d="M9 3.375C5.93182 3.375 3.31159 5.31875 2.25 8.0625C3.31159 10.8063 5.93182 12.75 9 12.75C9.22091 12.75 9.44182 12.75 9.66273 12.7188C9.63116 12.5224 9.61474 12.3239 9.61364 12.125C9.61364 11.9 9.63818 11.675 9.675 11.45C9.45409 11.475 9.22705 11.5 9 11.5C6.69273 11.5 4.60023 10.1625 3.58773 8.0625C4.0837 7.03106 4.85385 6.16203 5.81061 5.55422C6.76738 4.9464 7.87238 4.62418 9 4.62418C10.1276 4.62418 11.2326 4.9464 12.1894 5.55422C13.1462 6.16203 13.9163 7.03106 14.4123 8.0625C14.3386 8.2125 14.2527 8.34375 14.173 8.4875C14.578 8.5875 14.9645 8.75625 15.3143 9C15.48 8.6875 15.6273 8.375 15.75 8.0625C14.6884 5.31875 12.0682 3.375 9 3.375ZM9 6.1875C8.51176 6.1875 8.04352 6.38504 7.69828 6.73667C7.35304 7.08831 7.15909 7.56522 7.15909 8.0625C7.15909 8.55978 7.35304 9.0367 7.69828 9.38833C8.04352 9.73996 8.51176 9.9375 9 9.9375C9.48824 9.9375 9.95648 9.73996 10.3017 9.38833C10.647 9.0367 10.8409 8.55978 10.8409 8.0625C10.8409 7.56522 10.647 7.08831 10.3017 6.73667C9.95648 6.38504 9.48824 6.1875 9 6.1875ZM12.6818 9.625V11.5H10.8409V12.75H12.6818V14.625H13.9091V12.75H15.75V11.5H13.9091V9.625H12.6818Z" fill="currentColor"/>
</svg>
