<svg viewBox="0 0 33 32" fill="none" xmlns="http://www.w3.org/2000/svg">
<path id="Vector" fill-rule="evenodd" clip-rule="evenodd" d="M11.8751 5C11.4963 5 11.15 5.214 10.9806 5.55279L9.7155 8.08308H5.50048C4.21181 8.08308 3.16714 9.12775 3.16714 10.4164V24.7074C3.16714 25.9961 4.21181 27.0407 5.50048 27.0407H27.4995C28.7881 27.0407 29.8328 25.9961 29.8328 24.7074V10.4164C29.8328 9.12775 28.7882 8.08308 27.4995 8.08308H23.2843L22.0191 5.55279C21.8497 5.214 21.5035 5 21.1247 5H11.8751ZM11.228 9.53029L12.4931 7H20.5067L21.7718 9.53029C21.9412 9.86908 22.2875 10.0831 22.6662 10.0831H27.4995C27.6836 10.0831 27.8328 10.2323 27.8328 10.4164V24.7074C27.8328 24.8915 27.6836 25.0407 27.4995 25.0407H5.50048C5.31638 25.0407 5.16714 24.8915 5.16714 24.7074V10.4164C5.16714 10.2323 5.31638 10.0831 5.50048 10.0831H10.3335C10.7123 10.0831 11.0586 9.86908 11.228 9.53029ZM16.5 11.1665C13.3935 11.1665 10.8752 13.6848 10.8752 16.7913C10.8752 19.8978 13.3935 22.4161 16.5 22.4161C19.6065 22.4161 22.1248 19.8978 22.1248 16.7913C22.1248 13.6848 19.6065 11.1665 16.5 11.1665ZM12.8752 16.7913C12.8752 14.7894 14.4981 13.1665 16.5 13.1665C18.5019 13.1665 20.1248 14.7894 20.1248 16.7913C20.1248 18.7932 18.5019 20.4161 16.5 20.4161C14.4981 20.4161 12.8752 18.7932 12.8752 16.7913Z" fill="currentColor"/>
</svg>
