<svg viewBox="0 0 33 32" fill="none" xmlns="http://www.w3.org/2000/svg">
<path id="Vector" d="M18.6213 16L25.0312 9.59L26.3531 8.26812C26.5481 8.07312 26.5481 7.75625 26.3531 7.56125L24.9387 6.14688C24.7437 5.95188 24.4269 5.95188 24.2319 6.14688L16.5 13.8787L8.76813 6.14625C8.57313 5.95125 8.25625 5.95125 8.06125 6.14625L6.64625 7.56063C6.45125 7.75563 6.45125 8.0725 6.64625 8.2675L14.3787 16L6.64625 23.7319C6.45125 23.9269 6.45125 24.2437 6.64625 24.4387L8.06062 25.8531C8.25563 26.0481 8.5725 26.0481 8.7675 25.8531L16.5 18.1213L22.91 24.5312L24.2319 25.8531C24.4269 26.0481 24.7437 26.0481 24.9387 25.8531L26.3531 24.4387C26.5481 24.2437 26.5481 23.9269 26.3531 23.7319L18.6213 16Z" fill="currentColor"/>
</svg>
