<svg width="32" height="32" viewBox="0 0 32 32" fill="none" xmlns="http://www.w3.org/2000/svg">
<path d="M20.7359 11.6965H11.2598C10.6833 11.6965 10.2115 11.2248 10.2115 10.6482C10.2115 10.0717 10.6833 9.59998 11.2598 9.59998H20.7359C21.3124 9.59998 21.7842 10.0717 21.7842 10.6482C21.7842 11.2248 21.3124 11.6965 20.7359 11.6965Z" fill="currentColor"/>
<path d="M23.8806 17.3151H8.11502C7.53848 17.3151 7.06677 16.8434 7.06677 16.2669C7.06677 15.6903 7.53848 15.2186 8.11502 15.2186H23.8806C24.4571 15.2186 24.9289 15.6903 24.9289 16.2669C24.9289 16.8434 24.4571 17.3151 23.8806 17.3151Z" fill="currentColor"/>
<path d="M20.7359 22.9335H11.2598C10.6833 22.9335 10.2115 22.4618 10.2115 21.8853C10.2115 21.3087 10.6833 20.837 11.2598 20.837H20.7359C21.3124 20.837 21.7842 21.3087 21.7842 21.8853C21.7842 22.4618 21.3124 22.9335 20.7359 22.9335Z" fill="currentColor"/>
<rect x="0.85" y="0.85" width="30.3" height="30.3" rx="15.15" stroke="currentColor" stroke-width="1.7"/>
</svg>
