<svg width="32" height="32" viewBox="0 0 32 32" fill="none" xmlns="http://www.w3.org/2000/svg">
<path d="M20.2762 14.0859C20.8135 14.0859 21.2491 13.6503 21.2491 13.113C21.2491 12.5756 20.8135 12.14 20.2762 12.14C19.7388 12.14 19.3032 12.5756 19.3032 13.113C19.3032 13.6503 19.7388 14.0859 20.2762 14.0859Z" fill="currentColor"/>
<path d="M20.9771 23.6898H11.279C9.10292 23.6898 7.34534 21.9217 7.34534 19.7561V12.6003C7.34534 10.4242 9.11339 8.66663 11.279 8.66663H20.9771C23.1531 8.66663 24.9107 10.4347 24.9107 12.6003V19.7561C24.9107 21.9217 23.1427 23.6898 20.9771 23.6898ZM11.2685 10.5393C10.1386 10.5393 9.218 11.4599 9.218 12.5898V19.7457C9.218 20.8756 10.1386 21.7962 11.2685 21.7962H20.9666C22.0965 21.7962 23.0171 20.8756 23.0171 19.7457V12.6003C23.0171 11.4704 22.0965 10.5498 20.9666 10.5498H11.2685V10.5393Z" fill="currentColor"/>
<path d="M23.9692 19.8398C23.8123 19.8398 23.6554 19.798 23.5089 19.7143L21.9815 18.8564C14.9093 14.86 13.9677 14.3683 12.8379 14.9332C11.4255 15.6342 9.60517 17.8102 9.02977 18.5844C8.71591 19.0029 8.13005 19.0866 7.71158 18.7727C7.2931 18.4589 7.20941 17.873 7.52326 17.4545C7.61742 17.329 9.8981 14.2951 12.0009 13.2489C14.0619 12.2236 15.2441 12.8827 22.9126 17.2244L24.44 18.0822C24.8899 18.3333 25.0573 18.9087 24.7957 19.369C24.6179 19.6724 24.2935 19.8398 23.9692 19.8398Z" fill="currentColor"/>
<rect x="0.85" y="0.85" width="30.3" height="30.3" rx="15.15" stroke="currentColor" stroke-width="1.7"/>
</svg>
