<svg width="32" height="32" viewBox="0 0 32 32" fill="none" xmlns="http://www.w3.org/2000/svg">
<path d="M16.3467 18.7476C13.9222 18.7476 11.9452 16.7705 11.9452 14.346V11.0683C11.9452 8.6438 13.9222 6.66675 16.3467 6.66675C18.7712 6.66675 20.7483 8.6438 20.7483 11.0683V14.346C20.7483 16.7705 18.7712 18.7476 16.3467 18.7476ZM16.3467 8.53974C14.9524 8.53974 13.8182 9.67394 13.8182 11.0683V14.346C13.8182 15.7404 14.9524 16.8746 16.3467 16.8746C17.7411 16.8746 18.8753 15.7404 18.8753 14.346V11.0683C18.8753 9.67394 17.7411 8.53974 16.3467 8.53974Z" fill="currentColor"/>
<path d="M16.3467 22.0671C12.4758 22.0671 9.33337 19.4657 9.33337 16.2816C9.33337 15.7613 9.7496 15.3451 10.2699 15.3451C10.7902 15.3451 11.2064 15.7613 11.2064 16.2816C11.2064 18.4459 13.5164 20.1941 16.3467 20.1941C19.177 20.1941 21.487 18.4355 21.487 16.2816C21.487 15.7613 21.9032 15.3451 22.4235 15.3451C22.9438 15.3451 23.36 15.7613 23.36 16.2816C23.36 19.4657 20.2176 22.0671 16.3467 22.0671Z" fill="currentColor"/>
<path d="M16.3467 25.1781C15.8264 25.1781 15.4102 24.7619 15.4102 24.2416V22.5871C15.4102 22.0669 15.8264 21.6506 16.3467 21.6506C16.8669 21.6506 17.2832 22.0669 17.2832 22.5871V24.2416C17.2832 24.7619 16.8565 25.1781 16.3467 25.1781Z" fill="currentColor"/>
<rect x="0.85" y="0.85" width="30.3" height="30.3" rx="15.15" stroke="currentColor" stroke-width="1.7"/>
</svg>
