<svg width="32" height="32" viewBox="0 0 32 32" fill="none" xmlns="http://www.w3.org/2000/svg">
<path d="M18.028 23.6768H10.2555C8.12269 23.6768 6.40002 22.0161 6.40002 19.982V12.8281C6.40002 10.7842 8.13295 9.1333 10.2555 9.1333H18.028C20.1609 9.1333 21.8835 10.794 21.8835 12.8281V19.9722C21.8835 22.0161 20.1506 23.6768 18.028 23.6768ZM10.2555 10.9021C9.14809 10.9021 8.24573 11.7669 8.24573 12.8281V19.9722C8.24573 21.0335 9.14809 21.8982 10.2555 21.8982H18.028C19.1355 21.8982 20.0378 21.0335 20.0378 19.9722V12.8281C20.0378 11.7669 19.1355 10.9021 18.028 10.9021H10.2555Z" fill="currentColor"/>
<path d="M15.239 16.6309L12.9626 15.265V17.9968L15.239 16.6309Z" fill="currentColor"/>
<path d="M12.9627 18.8814C12.8089 18.8814 12.655 18.8421 12.5115 18.7733C12.2141 18.6161 12.0398 18.3213 12.0398 17.997V15.2652C12.0398 14.9409 12.2244 14.6461 12.5115 14.4889C12.7986 14.3316 13.1677 14.3415 13.4446 14.5085L15.7312 15.8843C15.9978 16.0415 16.1619 16.3265 16.1619 16.6311C16.1619 16.9357 15.9978 17.2207 15.7312 17.3779L13.4446 18.7438C13.301 18.8421 13.1267 18.8814 12.9627 18.8814Z" fill="currentColor"/>
<path d="M25.0623 21.5444C24.9803 21.5444 24.8983 21.5346 24.8162 21.515L20.7146 20.4537C20.2224 20.3259 19.9353 19.8444 20.0686 19.3727C20.2019 18.9011 20.7044 18.6259 21.1966 18.7537L24.1292 19.5201V13.2998L21.1966 14.0663C20.7044 14.1941 20.2019 13.9189 20.0686 13.4472C19.9353 12.9755 20.2224 12.494 20.7146 12.3663L24.8162 11.305C25.0931 11.2362 25.3904 11.2853 25.616 11.4524C25.8416 11.6195 25.9749 11.8749 25.9749 12.1501V20.6699C25.9749 20.945 25.8416 21.2005 25.616 21.3676C25.4622 21.4855 25.2674 21.5444 25.0623 21.5444Z" fill="currentColor"/>
<rect x="0.85" y="0.85" width="30.3" height="30.3" rx="15.15" stroke="currentColor" stroke-width="1.7"/>
</svg>
