<svg width="32" height="32" fill="none" viewBox="0 0 32 32"  xmlns="http://www.w3.org/2000/svg">
<path d="M16 24C20.4183 24 24 20.4183 24 16C24 11.5817 20.4183 8 16 8C11.5817 8 8 11.5817 8 16C8 20.4183 11.5817 24 16 24Z" stroke="currentColor" stroke-width="1.25" stroke-miterlimit="10"/>
<path d="M16.1017 12.5218C16.1017 12.5778 16.0562 12.6233 16.0001 12.6233C15.9441 12.6233 15.8986 12.5778 15.8986 12.5218C15.8986 12.4657 15.9441 12.4202 16.0001 12.4202C16.0562 12.4202 16.1017 12.4657 16.1017 12.5218Z" fill="currentColor" stroke="currentColor" stroke-width="1.7967"/>
<path d="M16 20V15H15" stroke="currentColor" stroke-width="1.25" stroke-miterlimit="10"/>
<path d="M14.6089 19.8261H17.3915" stroke="currentColor" stroke-width="1.25" stroke-miterlimit="10"/>
</svg>
