<svg width="32" height="32" viewBox="0 0 32 32" fill="none" xmlns="http://www.w3.org/2000/svg">
<path d="M7.47483 20.3506C7.2157 20.3506 6.99976 20.1346 6.99976 19.8755C6.99976 19.7351 7.06454 19.5948 7.17251 19.5084C7.64759 19.1197 8.59774 18.5043 8.92166 18.3315C9.15919 18.2127 9.43992 18.3207 9.55869 18.5582C9.66666 18.7958 9.58028 19.0657 9.35354 19.1845C9.10521 19.3032 8.20904 19.8863 7.78795 20.2318C7.70157 20.3074 7.5936 20.3506 7.47483 20.3506Z" fill="#0D6763"/>
<path d="M15.4978 12.2633C15.2386 12.2633 15.0227 12.0474 15.0227 11.7882C15.0227 11.6479 15.0767 11.5183 15.1847 11.4319C16.5343 10.2442 17.1282 9.27247 17.2361 9.07812C17.6356 8.3871 18.2727 8.0308 18.9313 8.11717C19.1904 8.14957 19.374 8.3979 19.3416 8.65703C19.3092 8.91617 19.0717 9.09972 18.8125 9.06733C18.4238 9.01334 18.1647 9.39124 18.0675 9.5532C17.9487 9.75835 17.2793 10.8597 15.8217 12.1445C15.7353 12.2309 15.6166 12.2633 15.4978 12.2633Z" fill="#0D6763"/>
<path d="M19.459 15.8257C19.6533 15.9985 19.8693 15.9229 20.0744 15.7394C21.4565 14.4221 22.9141 12.3598 23.3999 11.2801C23.5079 11.0534 23.7131 10.9238 23.9398 11.0102C24.2097 11.1182 24.1989 11.5717 23.9614 12.0683C23.3244 13.3856 22.439 14.8324 20.6899 16.6355C20.5171 16.8083 20.5495 17.035 20.7007 17.1754C20.8518 17.3158 21.1001 17.305 21.3377 17.0674C22.2447 16.1389 22.8601 15.4262 23.3784 14.6812C23.5079 14.4869 23.6807 14.4113 23.8318 14.4437C24.0586 14.4869 24.1018 14.7136 24.0262 14.9728C23.9074 15.4047 22.7089 16.981 22.2339 17.5101C20.9382 18.9569 19.6425 19.7451 17.1484 21.0408C16.2738 21.4943 15.626 21.9262 15.2373 22.5956C14.881 23.2002 14.773 23.3946 14.7298 23.4702C14.5894 23.7617 14.6974 24.1396 14.9997 24.2799C15.2913 24.4203 15.6476 24.3015 15.7879 23.9992C15.7879 23.9884 15.7987 23.9776 15.7987 23.9668C15.7987 23.956 15.7771 23.9776 16.2522 23.1786C16.4789 22.8007 16.9648 22.2285 17.7206 21.883C20.2148 20.7493 21.2297 19.8423 22.6873 18.3955C23.346 17.7368 24.2637 16.3224 24.5121 15.9013C25.2031 14.7244 24.8468 13.7203 24.2097 13.5475C24.1666 13.5367 24.145 13.4936 24.1558 13.4504C24.1558 13.4396 24.1558 13.4396 24.1666 13.4288C24.6524 12.5974 24.8792 12.0143 24.9655 11.5717C25.0843 10.967 24.9224 10.222 24.0802 10.0492C24.037 10.0385 24.0154 9.99526 24.0154 9.95207C24.0694 9.75772 24.1234 9.52019 24.1558 9.35823C24.3285 8.57003 23.8318 7.85742 23.238 7.72785C22.8169 7.64147 22.439 7.73865 22.1151 7.96539C22.0719 7.99778 22.0071 7.98698 21.9747 7.9438C21.8452 7.80343 21.64 7.66307 21.3485 7.65227C20.8302 7.64147 20.312 7.80343 19.9341 8.60243C19.6641 9.17468 19.2646 9.95207 18.0877 11.2477C16.9972 12.4894 15.4856 13.6663 14.5463 14.2817C14.3843 14.3897 14.1468 14.3681 14.1791 14.1414C14.2223 13.7959 14.6002 11.4421 14.665 10.7511C14.773 9.62816 14.1683 9.10989 13.4881 9.02352C12.9267 8.94793 12.0845 9.10989 11.6202 10.384C11.3503 11.129 10.778 12.3491 10.303 14.3249C9.96824 15.707 9.91426 17.3266 10.2166 19.1837C10.2382 19.2916 10.2166 19.4104 10.1518 19.5076C9.78469 20.1122 9.23403 20.922 8.94251 21.613C8.82374 21.8938 8.92091 22.2285 9.19084 22.3796C9.47157 22.5308 9.82788 22.4336 9.98984 22.1421C10.0006 22.1313 10.0006 22.1205 10.0114 22.1097C10.195 21.7318 10.5621 21.0192 10.7025 20.7169C10.9508 20.1986 11.1235 19.8639 11.1883 19.648C11.2531 19.4536 11.2855 19.2269 11.1775 18.7086C10.9832 17.8448 10.9184 16.2144 11.2747 14.7784C11.739 12.8781 12.538 10.7511 12.6783 10.3948C12.8187 10.0385 13.0238 9.93048 13.2182 9.95207C13.4233 9.97367 13.8012 10.0708 13.6933 10.7835C13.4989 12.0683 13.2182 13.6987 13.121 14.2494C13.0778 14.5193 13.0238 15.1455 13.5205 15.437C13.9092 15.6638 14.3303 15.5342 14.8054 15.2211C15.8635 14.5085 17.699 13.0725 18.8435 11.7768C20.0528 10.4272 20.4307 9.61736 20.7438 8.88315C20.8842 8.54844 21.2513 8.54844 21.3809 8.59163C21.5104 8.62402 21.6616 8.80757 21.5536 9.16388C21.2837 10.0492 20.1824 12.0899 18.0661 14.001C17.8286 14.217 17.861 14.4761 17.9798 14.6057C18.0985 14.7352 18.3145 14.8216 18.5628 14.6057C20.4739 12.9753 21.5536 11.0426 22.0503 9.99526C22.2986 9.477 22.385 9.16388 22.4714 8.92634C22.5794 8.62402 22.8061 8.51605 22.9681 8.54844C23.1948 8.60243 23.3568 8.83996 23.2812 9.22866C23.2164 9.56337 23.022 10.1248 22.7629 10.6755C22.1475 11.9711 20.8626 13.7095 19.4698 15.1995C19.3078 15.4155 19.2754 15.653 19.459 15.8257Z" fill="#0D6763"/>
<path d="M21.4156 21.4948C21.3184 21.5056 21.286 21.5812 21.2644 21.646C21.1456 21.9699 20.7785 23.4167 20.7353 23.719C20.7137 23.8702 20.7785 23.9458 20.8865 23.9782C21.0269 24.0213 21.2428 24.0213 21.5883 23.9997C21.9338 23.9782 22.139 23.9458 22.2793 23.881C22.3765 23.8378 22.4413 23.7514 22.3981 23.6003C22.3117 23.2979 21.7503 21.9159 21.5883 21.6136C21.5559 21.5596 21.5127 21.484 21.4156 21.4948Z" fill="#0D6763"/>
<path d="M22.2471 20.8252C22.2039 20.9116 22.2579 20.9764 22.3011 21.0304C22.517 21.3003 23.5535 22.3584 23.8019 22.5636C23.9206 22.6608 24.0178 22.65 24.1042 22.5744C24.2122 22.4772 24.3309 22.2937 24.4821 21.9913C24.6441 21.6782 24.7196 21.4839 24.7412 21.3435C24.752 21.2355 24.7088 21.1384 24.5577 21.0952C24.2554 21.0088 22.7869 20.7713 22.4414 20.7497C22.3874 20.7389 22.2903 20.7281 22.2471 20.8252Z" fill="#0D6763"/>
<path d="M10.3361 10.265C10.3145 10.1678 10.2281 10.1462 10.1633 10.1354C9.82861 10.049 8.36019 9.84388 8.03627 9.83309C7.87432 9.82229 7.80953 9.89787 7.78794 10.0058C7.76634 10.1462 7.77714 10.3622 7.84193 10.7077C7.90671 11.0532 7.9499 11.2583 8.02548 11.3879C8.07946 11.4851 8.16584 11.5282 8.317 11.4743C8.60853 11.3555 9.92578 10.6537 10.2065 10.4593C10.2821 10.4053 10.3577 10.3622 10.3361 10.265Z" fill="#0D6763"/>
<path d="M10.8438 9.36925C10.9194 9.30447 10.887 9.21809 10.8654 9.15331C10.7575 8.82939 10.1744 7.45815 10.0232 7.17742C9.94767 7.03706 9.85049 7.01546 9.74252 7.05865C9.60216 7.11264 9.4294 7.2422 9.17027 7.46894C8.91114 7.69568 8.75998 7.84685 8.69519 7.97641C8.64121 8.07359 8.652 8.17076 8.77077 8.26794C9.01911 8.45149 10.304 9.21809 10.6171 9.35845C10.6927 9.39084 10.7683 9.43403 10.8438 9.36925Z" fill="#0D6763"/>
</svg>
