<svg width="33" height="32" viewBox="0 0 33 32" fill="none" xmlns="http://www.w3.org/2000/svg">
<path fill-rule="evenodd" clip-rule="evenodd" d="M7.71671 13.6521C7.71671 9.46006 11.1379 6.08695 15.3266 6.08695C19.5153 6.08695 22.9365 9.46006 22.9365 13.6521C22.9365 17.8442 19.5153 21.2173 15.3266 21.2173C11.1379 21.2173 7.71671 17.8442 7.71671 13.6521ZM15.3266 4C9.93141 4 5.58337 8.33536 5.58337 13.6521C5.58337 18.9689 9.93141 23.3043 15.3266 23.3043C17.1549 23.3043 18.863 22.8064 20.3223 21.9412C20.3572 22.0101 20.4005 22.0762 20.4523 22.1382L25.0237 27.6165C25.3962 28.0629 26.0682 28.1294 26.5245 27.7649C26.9809 27.4005 27.0488 26.7432 26.6763 26.2967L22.1049 20.8185C22.0681 20.7745 22.0285 20.7342 21.9865 20.6976C23.8857 18.9342 25.0698 16.4268 25.0698 13.6521C25.0698 8.33536 20.7218 4 15.3266 4Z" fill="currentColor"/>
</svg>
