<svg width="32" height="33" viewBox="0 0 32 33" fill="none" xmlns="http://www.w3.org/2000/svg">
<path fill-rule="evenodd" clip-rule="evenodd" d="M15.9999 4.74219C13.3591 4.74219 11.3683 5.46475 9.90612 6.68704C8.45392 7.90097 7.61498 9.53095 7.13224 11.1835C6.35175 13.8552 6.45615 16.8231 6.51625 18.5317C6.5288 18.8886 6.53942 19.1905 6.53965 19.4233C6.52579 20.3043 6.2398 21.164 5.71447 21.8869L5.7144 21.8868L5.70648 21.8981C5.17963 22.6444 5.24935 23.5318 5.67369 24.1775C6.08406 24.8021 6.80469 25.1931 7.61012 25.1931H11.4234C11.4995 25.5518 11.6275 25.9824 11.8447 26.4202C12.1261 26.9873 12.5643 27.5798 13.2392 28.0274C13.9182 28.4777 14.7784 28.7422 15.8394 28.7422C18.0248 28.7422 19.2899 27.6264 19.9609 26.4824C20.2321 26.02 20.402 25.5636 20.5082 25.1931H24.3897C25.1952 25.1931 25.9158 24.8021 26.3262 24.1775C26.7505 23.5318 26.8202 22.6444 26.2934 21.8981L26.2934 21.898L26.2854 21.8869C25.76 21.164 25.474 20.3043 25.4602 19.4234C25.4604 19.1906 25.471 18.8887 25.4836 18.532L25.4836 18.5317V18.5317C25.5437 16.823 25.6481 13.8552 24.8676 11.1835C24.3848 9.53095 23.5459 7.90097 22.0937 6.68704C20.6315 5.46475 18.6407 4.74219 15.9999 4.74219ZM19.725 23.1878C19.7187 23.1877 19.7124 23.1877 19.7062 23.1878H7.61012C7.42688 23.1878 7.32949 23.1064 7.29662 23.0622C8.05474 22.0086 8.47368 20.7472 8.49201 19.4452L8.49211 19.4308C8.49211 19.1148 8.47993 18.7415 8.46632 18.3241C8.40948 16.5812 8.32756 14.0696 9.00234 11.7597C9.41041 10.3628 10.0774 9.12946 11.1386 8.24237C12.1898 7.36364 13.7199 6.74753 15.9999 6.74753C18.2799 6.74753 19.81 7.36364 20.8612 8.24237C21.9224 9.12946 22.5894 10.3628 22.9975 11.7597C23.6723 14.0696 23.5903 16.5812 23.5335 18.3241C23.5199 18.7415 23.5077 19.1148 23.5077 19.4308L23.5078 19.4452C23.5261 20.7472 23.9451 22.0086 24.7032 23.0622C24.6704 23.1064 24.573 23.1878 24.3897 23.1878H19.725ZM18.4228 25.1931C18.3828 25.2776 18.3382 25.3629 18.2885 25.4476C17.9186 26.0781 17.245 26.7369 15.8394 26.7369C15.1048 26.7369 14.6226 26.5578 14.2982 26.3427C13.9696 26.1248 13.7432 25.83 13.5844 25.5098C13.5322 25.4045 13.4881 25.298 13.4509 25.1931H18.4228Z" fill="currentColor"/>
</svg>
