<svg width="32" height="33" viewBox="0 0 32 33" fill="none" xmlns="http://www.w3.org/2000/svg">
<path fill-rule="evenodd" clip-rule="evenodd" d="M16.5 27.2295C22.299 27.2295 27 22.5285 27 16.7295C27 10.9305 22.299 6.22949 16.5 6.22949C10.701 6.22949 6 10.9305 6 16.7295C6 22.5285 10.701 27.2295 16.5 27.2295ZM16.5 29.2295C23.4036 29.2295 29 23.6331 29 16.7295C29 9.82593 23.4036 4.22949 16.5 4.22949C9.59644 4.22949 4 9.82593 4 16.7295C4 23.6331 9.59644 29.2295 16.5 29.2295ZM12.3333 16.7295C12.3333 17.7157 11.5338 18.5152 10.5476 18.5152C9.56139 18.5152 8.7619 17.7157 8.7619 16.7295C8.7619 15.7433 9.56139 14.9438 10.5476 14.9438C11.5338 14.9438 12.3333 15.7433 12.3333 16.7295ZM18.8809 18.5152C19.8672 18.5152 20.6666 17.7157 20.6666 16.7295C20.6666 15.7433 19.8672 14.9438 18.8809 14.9438C17.8947 14.9438 17.0952 15.7433 17.0952 16.7295C17.0952 17.7157 17.8947 18.5152 18.8809 18.5152Z" fill="currentColor"/>
</svg>
