<svg width="33" height="32" viewBox="0 0 33 32" fill="none" xmlns="http://www.w3.org/2000/svg">
<path fill-rule="evenodd" clip-rule="evenodd" d="M19.5 6H13.5C9.63401 6 6.5 9.13401 6.5 13V19C6.5 22.866 9.63401 26 13.5 26H19.5C23.366 26 26.5 22.866 26.5 19V13C26.5 9.13401 23.366 6 19.5 6ZM13.5 4C8.52944 4 4.5 8.02944 4.5 13V19C4.5 23.9706 8.52944 28 13.5 28H19.5C24.4706 28 28.5 23.9706 28.5 19V13C28.5 8.02944 24.4706 4 19.5 4H13.5ZM11.079 16C11.079 15.4477 11.5267 15 12.079 15H15.5V11.8317C15.5 11.2794 15.9477 10.8317 16.5 10.8317C17.0523 10.8317 17.5 11.2794 17.5 11.8317V15H20.9211C21.4734 15 21.9211 15.4477 21.9211 16C21.9211 16.5523 21.4734 17 20.9211 17H17.5V20.6738C17.5 21.2261 17.0523 21.6738 16.5 21.6738C15.9477 21.6738 15.5 21.2261 15.5 20.6738V17H12.079C11.5267 17 11.079 16.5523 11.079 16Z" fill="currentColor"/>
</svg>
