<svg width="32" height="33" viewBox="0 0 32 33" fill="none" xmlns="http://www.w3.org/2000/svg">
<path fill-rule="evenodd" clip-rule="evenodd" d="M16.0001 4.77344C13.295 4.77344 11.2557 5.49407 9.75794 6.71311C8.27038 7.9238 7.41101 9.54944 6.91652 11.1975C6.11703 13.8622 6.22397 16.8221 6.28553 18.5262C6.29839 18.8821 6.30927 19.1832 6.3095 19.4155C6.2953 20.2941 6.00235 21.1515 5.46424 21.8725L5.46416 21.8724L5.45605 21.8836C4.91636 22.6279 4.98778 23.513 5.42245 24.157C5.84282 24.7798 6.58099 25.1699 7.40603 25.1699H11.3122C11.3902 25.5276 11.5213 25.957 11.7438 26.3937C12.0319 26.9592 12.4808 27.5502 13.1721 27.9965C13.8677 28.4456 14.7489 28.7095 15.8357 28.7095C18.0743 28.7095 19.3702 27.5967 20.0576 26.4557C20.3354 25.9945 20.5093 25.5394 20.6181 25.1699H24.5942C25.4193 25.1699 26.1574 24.7798 26.5778 24.157C27.0125 23.513 27.0839 22.6279 26.5442 21.8836L26.5443 21.8835L26.536 21.8725C25.9979 21.1515 25.7049 20.2941 25.6907 19.4155C25.691 19.1834 25.7018 18.8824 25.7147 18.5266L25.7147 18.5262C25.7763 16.8221 25.8832 13.8622 25.0837 11.1975C24.5892 9.54944 23.7298 7.9238 22.2423 6.71311C20.7445 5.49407 18.7052 4.77344 16.0001 4.77344ZM19.8195 23.1699C19.8107 23.1698 19.8018 23.1698 19.793 23.1699H12.2008C12.1953 23.1698 12.1899 23.1698 12.1844 23.1699H7.40603C7.21834 23.1699 7.11857 23.0887 7.08491 23.0447C7.86149 21.9939 8.29063 20.7358 8.3094 19.4373L8.3095 19.4229C8.3095 19.1078 8.29703 18.7355 8.28309 18.3192C8.22486 16.5809 8.14095 14.076 8.83216 11.7723C9.25016 10.3791 9.93337 9.14901 11.0204 8.26429C12.0972 7.3879 13.6646 6.77344 16.0001 6.77344C18.3357 6.77344 19.903 7.3879 20.9798 8.26429C22.0669 9.14901 22.7501 10.3791 23.1681 11.7723C23.8593 14.076 23.7754 16.5809 23.7171 18.3192V18.3192C23.7032 18.7355 23.6907 19.1078 23.6907 19.4229L23.6908 19.4373C23.7096 20.7358 24.1388 21.9939 24.9153 23.0447C24.8817 23.0887 24.7819 23.1699 24.5942 23.1699H19.8195ZM13.389 25.1699H18.4819C18.441 25.2541 18.3953 25.3391 18.3444 25.4236C17.9656 26.0525 17.2755 26.7095 15.8357 26.7095C15.0832 26.7095 14.5893 26.5309 14.257 26.3163C13.9204 26.099 13.6885 25.805 13.5258 25.4857C13.4723 25.3807 13.4271 25.2745 13.389 25.1699Z" fill="currentColor"/>
</svg>
