<svg width="32" height="33" viewBox="0 0 32 33" fill="none" xmlns="http://www.w3.org/2000/svg">
<path fill-rule="evenodd" clip-rule="evenodd" d="M25.4179 19.5138C25.4279 20.4529 25.7353 21.3717 26.2908 22.1475L26.3206 22.1373C26.8066 22.8315 26.7471 23.6379 26.3503 24.2402C25.9734 24.8221 25.289 25.1998 24.5252 25.1998H7.4746C6.71084 25.1998 6.02643 24.8221 5.64951 24.2402C5.25275 23.6379 5.19324 22.8213 5.67927 22.1373C6.23473 21.3717 6.54222 20.4529 6.55213 19.5138C6.55213 19.3056 6.54497 19.0459 6.53674 18.7471C6.53528 18.6942 6.53379 18.6401 6.5323 18.5848L6.53079 18.5408C6.47102 16.7893 6.37022 13.8359 7.14727 11.1735C7.6333 9.50951 8.46649 7.88638 9.90473 6.68178C11.3529 5.46698 13.3367 4.74219 15.985 4.74219C18.6334 4.74219 20.6172 5.46698 22.0653 6.68178C23.5036 7.89658 24.3368 9.51972 24.8228 11.1735C25.5999 13.8359 25.4991 16.7893 25.4393 18.5408L25.4378 18.5848C25.4363 18.6399 25.4348 18.6939 25.4333 18.7467C25.4251 19.0457 25.4179 19.3055 25.4179 19.5138ZM20.7064 18.2785C21.0635 18.2785 21.4107 18.0744 21.5892 17.7273V17.7171C21.6587 17.5946 22.2042 16.441 22.0554 14.3687C21.9166 12.2964 21.2123 11.2347 21.133 11.1224C20.8156 10.6733 20.2105 10.5712 19.7642 10.8876C19.3178 11.2041 19.2087 11.837 19.5063 12.2964C19.5063 12.2972 19.5093 12.3028 19.515 12.313C19.5794 12.4292 19.9805 13.1522 20.0716 14.5218C20.1708 15.9816 19.8336 16.7677 19.8137 16.8085C19.5757 17.2985 19.7641 17.911 20.2502 18.1662C20.399 18.2377 20.5577 18.2785 20.7064 18.2785ZM15.7967 28.7422C14.4973 28.7422 13.4459 28.3339 12.6722 27.5376C12.4242 27.2824 12.2457 27.0068 12.087 26.7311H19.675C18.9807 27.803 17.7705 28.7422 15.7967 28.7422Z" fill="currentColor"/>
</svg>
