<svg width="32" height="33" viewBox="0 0 32 33" fill="none" xmlns="http://www.w3.org/2000/svg">
<path d="M28.8401 15.6722L18.0901 6.48219C17.5301 6.00219 16.8301 5.74219 16.1001 5.74219C15.3701 5.74219 14.6701 6.00219 14.1101 6.48219L3.35008 15.6722C2.93008 16.0322 2.88008 16.6622 3.24008 17.0822C3.60008 17.5022 4.23008 17.5522 4.65008 17.1922L6.63008 15.5022V24.5722C6.63008 25.0022 6.71008 25.4122 6.87008 25.8222C7.03008 26.2222 7.26008 26.5822 7.56008 26.8822C7.86008 27.1922 8.21008 27.4322 8.60008 27.6022C8.99008 27.7722 9.41008 27.8522 9.83008 27.8522H22.3801C22.8101 27.8522 23.2201 27.7622 23.6101 27.6022C24.0001 27.4322 24.3501 27.1922 24.6501 26.8822C24.9401 26.5722 25.1801 26.2122 25.3401 25.8122C25.5001 25.4122 25.5801 24.9922 25.5801 24.5722V15.5022L27.5601 17.1922C27.9801 17.5522 28.6101 17.5022 28.9701 17.0822C29.3301 16.6622 29.2801 16.0322 28.8601 15.6722H28.8401ZM19.5401 22.5222C19.4201 22.6522 18.2801 23.7722 16.1001 23.7722C13.9201 23.7722 12.7801 22.6522 12.6601 22.5222C12.2801 22.1222 12.2901 21.4922 12.6901 21.1122C13.0801 20.7322 13.7101 20.7422 14.0901 21.1322C14.1301 21.1722 14.7901 21.7822 16.1001 21.7822C17.4101 21.7822 18.0801 21.1622 18.1101 21.1322C18.5001 20.7522 19.1301 20.7522 19.5201 21.1322C19.9101 21.5122 19.9201 22.1322 19.5401 22.5222Z" fill="currentColor"/>
</svg>
