<svg width="32" height="32" viewBox="0 0 32 32" fill="none" xmlns="http://www.w3.org/2000/svg">
<path d="M28.9564 14.9152L18.0196 6.04799C17.4498 5.58485 16.7377 5.33398 15.995 5.33398C15.2523 5.33398 14.5401 5.58485 13.9704 6.04799L3.02341 14.9152C2.59611 15.2625 2.54524 15.8704 2.9115 16.2756C3.27776 16.6809 3.91871 16.7291 4.346 16.3818L6.36042 14.7511V23.5025C6.36042 23.9174 6.44181 24.313 6.60459 24.7086C6.76737 25.0946 7.00136 25.4419 7.30658 25.7314C7.61179 26.0305 7.96787 26.2621 8.36465 26.4261C8.76143 26.5901 9.18873 26.6673 9.61603 26.6673H22.3841C22.8216 26.6673 23.2387 26.5805 23.6355 26.4261C24.0323 26.2621 24.3884 26.0305 24.6936 25.7314C24.9886 25.4323 25.2328 25.0849 25.3956 24.699C25.5584 24.313 25.6397 23.9078 25.6397 23.5025V14.7511L27.6542 16.3818C28.0815 16.7291 28.7224 16.6809 29.0887 16.2756C29.4549 15.8704 29.4041 15.2625 28.9768 14.9152H28.9564ZM19.4948 21.5245C19.3727 21.65 18.2129 22.7306 15.995 22.7306C13.7771 22.7306 12.6173 21.65 12.4952 21.5245C12.1086 21.1386 12.1188 20.5307 12.5257 20.1641C12.9225 19.7974 13.5635 19.8071 13.9501 20.1834C13.9908 20.222 14.6622 20.8105 15.995 20.8105C17.3278 20.8105 18.0094 20.2123 18.0399 20.1834C18.4367 19.8167 19.0777 19.8167 19.4744 20.1834C19.8712 20.55 19.8814 21.1482 19.4948 21.5245Z" fill="currentColor"/>
</svg>
