<svg width="33" height="32" viewBox="0 0 33 32" fill="none" xmlns="http://www.w3.org/2000/svg">
<path fill-rule="evenodd" clip-rule="evenodd" d="M8 13.7373C8 9.71988 11.2074 6.4873 15.1343 6.4873C19.0612 6.4873 22.2686 9.71988 22.2686 13.7373C22.2686 17.7547 19.0612 20.9873 15.1343 20.9873C11.2074 20.9873 8 17.7547 8 13.7373ZM15.1343 4.4873C10.0763 4.4873 6 8.64204 6 13.7373C6 18.8326 10.0763 22.9873 15.1343 22.9873C16.8483 22.9873 18.4497 22.5102 19.8178 21.681C19.8505 21.7469 19.8911 21.8103 19.9396 21.8697L24.2253 27.1197C24.5746 27.5475 25.2045 27.6112 25.6324 27.262C26.0602 26.9127 26.1239 26.2828 25.7746 25.855L21.4889 20.605C21.4545 20.5628 21.4174 20.5242 21.378 20.4891C23.1584 18.7992 24.2686 16.3963 24.2686 13.7373C24.2686 8.64204 20.1923 4.4873 15.1343 4.4873Z" fill="currentColor"/>
</svg>
