<svg width="32" height="33" viewBox="0 0 32 33" fill="none" xmlns="http://www.w3.org/2000/svg">
<path fill-rule="evenodd" clip-rule="evenodd" d="M16 28.7422C22.624 28.7422 28 23.3662 28 16.7422C28 10.1182 22.624 4.74219 16 4.74219C9.376 4.74219 4 10.1182 4 16.7422C4 23.3662 9.376 28.7422 16 28.7422ZM16.0672 12.7102C16.0672 13.6606 15.2992 14.4286 14.3488 14.4286C13.3984 14.4286 12.6304 13.6606 12.6304 12.7102C12.6304 11.7598 13.3984 10.9918 14.3488 10.9918C15.2992 10.9918 16.0672 11.7598 16.0672 12.7102ZM24.064 12.7102C24.064 13.6606 23.296 14.4286 22.3456 14.4286C21.3952 14.4286 20.6272 13.6606 20.6272 12.7102C20.6272 11.7598 21.3952 10.9918 22.3456 10.9918C23.296 10.9918 24.064 11.7598 24.064 12.7102Z" fill="currentColor"/>
</svg>
