<svg width="32" height="33" viewBox="0 0 32 33" fill="none" xmlns="http://www.w3.org/2000/svg">
<mask id="path-1-inside-1_11592_18201" fill="white">
<path fill-rule="evenodd" clip-rule="evenodd" d="M16.5 29.2295C23.4036 29.2295 29 23.6331 29 16.7295C29 9.82593 23.4036 4.22949 16.5 4.22949C9.59644 4.22949 4 9.82593 4 16.7295C4 23.6331 9.59644 29.2295 16.5 29.2295ZM16.5714 12.5279C16.5714 13.5141 15.7719 14.3136 14.7857 14.3136C13.7995 14.3136 13 13.5141 13 12.5279C13 11.5417 13.7995 10.7422 14.7857 10.7422C15.7719 10.7422 16.5714 11.5417 16.5714 12.5279ZM24.9047 12.5279C24.9047 13.5141 24.1052 14.3136 23.119 14.3136C22.1327 14.3136 21.3333 13.5141 21.3333 12.5279C21.3333 11.5417 22.1327 10.7422 23.119 10.7422C24.1052 10.7422 24.9047 11.5417 24.9047 12.5279Z"/>
</mask>
<path fill-rule="evenodd" clip-rule="evenodd" d="M16.5 29.2295C23.4036 29.2295 29 23.6331 29 16.7295C29 9.82593 23.4036 4.22949 16.5 4.22949C9.59644 4.22949 4 9.82593 4 16.7295C4 23.6331 9.59644 29.2295 16.5 29.2295ZM16.5714 12.5279C16.5714 13.5141 15.7719 14.3136 14.7857 14.3136C13.7995 14.3136 13 13.5141 13 12.5279C13 11.5417 13.7995 10.7422 14.7857 10.7422C15.7719 10.7422 16.5714 11.5417 16.5714 12.5279ZM24.9047 12.5279C24.9047 13.5141 24.1052 14.3136 23.119 14.3136C22.1327 14.3136 21.3333 13.5141 21.3333 12.5279C21.3333 11.5417 22.1327 10.7422 23.119 10.7422C24.1052 10.7422 24.9047 11.5417 24.9047 12.5279Z" fill="currentColor"/>
<path d="M27 16.7295C27 22.5285 22.299 27.2295 16.5 27.2295V31.2295C24.5081 31.2295 31 24.7376 31 16.7295H27ZM16.5 6.22949C22.299 6.22949 27 10.9305 27 16.7295H31C31 8.72136 24.5081 2.22949 16.5 2.22949V6.22949ZM6 16.7295C6 10.9305 10.701 6.22949 16.5 6.22949V2.22949C8.49187 2.22949 2 8.72136 2 16.7295H6ZM16.5 27.2295C10.701 27.2295 6 22.5285 6 16.7295H2C2 24.7376 8.49187 31.2295 16.5 31.2295V27.2295ZM14.7857 16.3136C16.8765 16.3136 18.5714 14.6187 18.5714 12.5279H14.5714C14.5714 12.4096 14.6674 12.3136 14.7857 12.3136V16.3136ZM11 12.5279C11 14.6187 12.6949 16.3136 14.7857 16.3136V12.3136C14.9041 12.3136 15 12.4096 15 12.5279H11ZM14.7857 8.74219C12.6949 8.74219 11 10.4371 11 12.5279H15C15 12.6462 14.9041 12.7422 14.7857 12.7422V8.74219ZM18.5714 12.5279C18.5714 10.4371 16.8765 8.74219 14.7857 8.74219V12.7422C14.6674 12.7422 14.5714 12.6462 14.5714 12.5279H18.5714ZM23.119 16.3136C25.2098 16.3136 26.9047 14.6187 26.9047 12.5279H22.9047C22.9047 12.4096 23.0006 12.3136 23.119 12.3136V16.3136ZM19.3333 12.5279C19.3333 14.6187 21.0282 16.3136 23.119 16.3136V12.3136C23.2373 12.3136 23.3333 12.4096 23.3333 12.5279H19.3333ZM23.119 8.74219C21.0282 8.74219 19.3333 10.4371 19.3333 12.5279H23.3333C23.3333 12.6462 23.2373 12.7422 23.119 12.7422V8.74219ZM26.9047 12.5279C26.9047 10.4371 25.2098 8.74219 23.119 8.74219V12.7422C23.0006 12.7422 22.9047 12.6462 22.9047 12.5279H26.9047Z" fill="currentColor" mask="url(#path-1-inside-1_11592_18201)"/>
</svg>
