<svg width="32" height="33" viewBox="0 0 32 33" fill="none" xmlns="http://www.w3.org/2000/svg">
<path fill-rule="evenodd" clip-rule="evenodd" d="M18.0094 6.76419L28.9564 15.648H28.9767C29.404 15.9957 29.4549 16.604 29.0887 17.0096C28.8852 17.2317 28.6003 17.3476 28.3155 17.3476C28.0815 17.3476 27.8475 17.2703 27.6542 17.1158L25.6397 15.4839V24.2422C25.6397 24.6478 25.5584 25.0534 25.3956 25.4396C25.2328 25.8259 24.9886 26.1735 24.6936 26.4728C24.3884 26.7722 24.0323 27.0039 23.6355 27.1681C23.2387 27.3226 22.8216 27.4095 22.3841 27.4095H9.61603C9.18873 27.4095 8.76143 27.3323 8.36465 27.1681C7.96787 27.0039 7.61179 26.7722 7.30658 26.4728C7.00136 26.1831 6.76737 25.8355 6.60459 25.4493C6.44181 25.0534 6.36041 24.6574 6.36041 24.2422V15.4839L4.346 17.1158C3.91871 17.4634 3.27776 17.4152 2.9115 17.0096C2.54524 16.604 2.59611 15.9957 3.02341 15.648L13.9602 6.76419C15.0895 5.84683 16.8699 5.84683 18.0094 6.76419ZM23.4931 24.725C23.5541 24.5705 23.5846 24.4064 23.5846 24.2422L23.5745 24.2326V13.823L16.6868 8.23196C16.2799 7.9133 15.6694 7.9133 15.2727 8.23196L8.385 13.823V24.2326C8.385 24.4064 8.42569 24.5705 8.48674 24.725C8.54778 24.8795 8.64952 25.0147 8.76143 25.1306C8.88351 25.2465 9.01577 25.3334 9.15821 25.3913C9.30064 25.4493 9.48377 25.4782 9.60585 25.4782H22.374C22.5367 25.4686 22.6792 25.4493 22.8216 25.3913C22.9742 25.3334 23.1065 25.2465 23.2184 25.1306C23.3405 25.0147 23.432 24.8795 23.4931 24.725ZM15.995 21.5384C17.3379 21.5384 18.0399 20.9108 18.0399 20.9108C18.4469 20.5438 19.0878 20.5438 19.4744 20.9108C19.861 21.2777 19.8814 21.8764 19.4948 22.253C19.3727 22.3785 18.2027 23.46 15.995 23.46C13.7873 23.46 12.6173 22.3785 12.4952 22.253C12.1086 21.8764 12.1188 21.2584 12.5257 20.8915C12.9225 20.5245 13.5635 20.5342 13.9501 20.9108C13.9908 20.959 14.6521 21.5384 15.995 21.5384Z" fill="currentColor"/>
</svg>
