<svg width="32" height="33" viewBox="0 0 32 33" fill="none" xmlns="http://www.w3.org/2000/svg">
<path fill-rule="evenodd" clip-rule="evenodd" d="M7.27265 10.6822C7.27265 9.20947 8.46655 8.01557 9.93931 8.01557H18.4242C19.8969 8.01557 21.0908 9.20947 21.0908 10.6822V22.8034C21.0908 24.2762 19.8969 25.4701 18.4242 25.4701H9.93931C8.46655 25.4701 7.27265 24.2762 7.27265 22.8034V10.6822ZM9.93931 6.07617C7.39546 6.07617 5.33325 8.13838 5.33325 10.6822V22.8034C5.33325 25.3473 7.39546 27.4095 9.93931 27.4095H18.4242C19.9202 27.4095 21.2497 26.6962 22.0911 25.5912C23.3017 25.5832 24.4609 25.0988 25.3175 24.2422C26.1813 23.3784 26.6666 22.2069 26.6666 20.9853V12.1974C26.6666 10.9758 26.1813 9.80421 25.3175 8.9404C24.4537 8.0766 23.2821 7.59132 22.0605 7.59132C21.9911 7.59132 21.9235 7.59861 21.8582 7.61246C21.0148 6.6696 19.7888 6.07617 18.4242 6.07617H9.93931ZM22.9193 9.67277C22.9919 9.99764 23.0302 10.3355 23.0302 10.6822V22.8034C23.0302 23.0362 23.0129 23.265 22.9796 23.4885C23.3394 23.3564 23.6699 23.1471 23.9461 22.8709C24.4462 22.3708 24.7272 21.6925 24.7272 20.9853V12.1974C24.7272 11.4901 24.4462 10.8119 23.9461 10.3118C23.6546 10.0202 23.3024 9.8031 22.9193 9.67277ZM10.1817 16.7428C10.1817 16.2073 10.6159 15.7731 11.1514 15.7731H13.212V13.7125C13.212 13.177 13.6462 12.7428 14.1817 12.7428C14.7173 12.7428 15.1514 13.177 15.1514 13.7125V15.7731H17.212C17.7476 15.7731 18.1817 16.2073 18.1817 16.7428C18.1817 17.2784 17.7476 17.7125 17.212 17.7125H15.1514V19.7731C15.1514 20.3087 14.7173 20.7428 14.1817 20.7428C13.6462 20.7428 13.212 20.3087 13.212 19.7731V17.7125H11.1514C10.6159 17.7125 10.1817 17.2784 10.1817 16.7428Z" fill="currentColor"/>
</svg>
