<svg width="32" height="33" viewBox="0 0 32 33" fill="none" xmlns="http://www.w3.org/2000/svg">
<path fill-rule="evenodd" clip-rule="evenodd" d="M16 26.7422C21.5228 26.7422 26 22.265 26 16.7422C26 11.2193 21.5228 6.74219 16 6.74219C10.4772 6.74219 6 11.2193 6 16.7422C6 22.265 10.4772 26.7422 16 26.7422ZM16 28.7422C22.6274 28.7422 28 23.3696 28 16.7422C28 10.1148 22.6274 4.74219 16 4.74219C9.37258 4.74219 4 10.1148 4 16.7422C4 23.3696 9.37258 28.7422 16 28.7422ZM12 16.7422C12 17.689 11.2325 18.4565 10.2857 18.4565C9.33892 18.4565 8.57141 17.689 8.57141 16.7422C8.57141 15.7954 9.33892 15.0279 10.2857 15.0279C11.2325 15.0279 12 15.7954 12 16.7422ZM18.2857 18.4565C19.2325 18.4565 20 17.689 20 16.7422C20 15.7954 19.2325 15.0279 18.2857 15.0279C17.3389 15.0279 16.5714 15.7954 16.5714 16.7422C16.5714 17.689 17.3389 18.4565 18.2857 18.4565Z" fill="currentColor"/>
</svg>
