<svg width="33" height="32" viewBox="0 0 33 32" fill="none" xmlns="http://www.w3.org/2000/svg">
<path fill-rule="evenodd" clip-rule="evenodd" d="M25.77 25.8602L21.48 20.6102C21.48 20.6102 21.41 20.5302 21.37 20.4902C23.15 18.8002 24.26 16.4002 24.26 13.7402C24.27 8.64023 20.19 4.49023 15.13 4.49023C10.07 4.49023 6 8.64023 6 13.7402C6 18.8402 10.08 22.9902 15.13 22.9902C16.84 22.9902 18.45 22.5102 19.81 21.6802C19.84 21.7502 19.88 21.8102 19.93 21.8702L24.22 27.1202C24.57 27.5502 25.2 27.6102 25.63 27.2602C26.06 26.9102 26.12 26.2802 25.77 25.8502V25.8602ZM20.6 16.8802C20.55 16.9602 20.5 17.0302 20.46 17.0802C20.44 17.1002 20.42 17.1202 20.41 17.1402L20.39 17.1602V17.1702C20.02 17.5802 19.39 17.6102 18.98 17.2402C18.57 16.8702 18.54 16.2502 18.9 15.8402C18.9 15.8302 18.93 15.8002 18.95 15.7702C19 15.7002 19.07 15.5702 19.15 15.4002C19.3 15.0602 19.45 14.5202 19.39 13.8002C19.34 13.0702 19.11 12.5702 18.92 12.2502C18.82 12.0902 18.73 11.9802 18.67 11.9102C18.64 11.8802 18.62 11.8502 18.61 11.8402C18.2 11.4802 18.14 10.8602 18.49 10.4402C18.84 10.0202 19.47 9.96023 19.9 10.3102V10.3202L19.92 10.3402C19.92 10.3402 19.95 10.3702 19.98 10.3902C20.02 10.4302 20.08 10.4902 20.15 10.5602C20.28 10.7102 20.45 10.9202 20.62 11.1902C20.96 11.7402 21.3 12.5602 21.38 13.6402C21.46 14.7202 21.23 15.5802 20.98 16.1802C20.85 16.4802 20.72 16.7102 20.61 16.8702L20.6 16.8802Z" fill="currentColor"/>
</svg>
