<svg width="32" height="33" viewBox="0 0 32 33" fill="none" xmlns="http://www.w3.org/2000/svg">
<path fill-rule="evenodd" clip-rule="evenodd" d="M18.0801 6.45273L28.8401 15.6527H28.8601C29.2801 16.0127 29.3301 16.6427 28.9701 17.0627C28.7701 17.2927 28.4901 17.4127 28.2101 17.4127C27.9801 17.4127 27.7501 17.3327 27.5601 17.1727L25.5801 15.4827V24.5527C25.5801 24.9727 25.5001 25.3927 25.3401 25.7927C25.1801 26.1927 24.9401 26.5527 24.6501 26.8627C24.3501 27.1727 24.0001 27.4127 23.6101 27.5827C23.2201 27.7427 22.8101 27.8327 22.3801 27.8327H9.83008C9.41008 27.8327 8.99008 27.7527 8.60008 27.5827C8.21008 27.4127 7.86008 27.1727 7.56008 26.8627C7.26008 26.5627 7.03008 26.2027 6.87008 25.8027C6.71008 25.3927 6.63008 24.9827 6.63008 24.5527V15.4827L4.65008 17.1727C4.23008 17.5327 3.60008 17.4827 3.24008 17.0627C2.88008 16.6427 2.93008 16.0127 3.35008 15.6527L14.1001 6.45273C15.2101 5.50273 16.9601 5.50273 18.0801 6.45273ZM23.4701 25.0527C23.5301 24.8927 23.5601 24.7227 23.5601 24.5527L23.5501 24.5427V13.7627L16.7801 7.97273C16.3801 7.64273 15.7801 7.64273 15.3901 7.97273L8.62008 13.7627V24.5427C8.62008 24.7227 8.66008 24.8927 8.72008 25.0527C8.78008 25.2127 8.88008 25.3527 8.99008 25.4727C9.11008 25.5927 9.24008 25.6827 9.38008 25.7427C9.52008 25.8027 9.70008 25.8327 9.82008 25.8327H22.3701C22.5301 25.8227 22.6701 25.8027 22.8101 25.7427C22.9601 25.6827 23.0901 25.5927 23.2001 25.4727C23.3201 25.3527 23.4101 25.2127 23.4701 25.0527ZM16.1001 21.7527C17.4201 21.7527 18.1101 21.1027 18.1101 21.1027C18.5101 20.7227 19.1401 20.7227 19.5201 21.1027C19.9001 21.4827 19.9201 22.1027 19.5401 22.4927C19.4201 22.6227 18.2701 23.7427 16.1001 23.7427C13.9301 23.7427 12.7801 22.6227 12.6601 22.4927C12.2801 22.1027 12.2901 21.4627 12.6901 21.0827C13.0801 20.7027 13.7101 20.7127 14.0901 21.1027C14.1301 21.1527 14.7801 21.7527 16.1001 21.7527Z" fill="currentColor"/>
</svg>
