<svg width="32" height="33" viewBox="0 0 32 33" fill="none" xmlns="http://www.w3.org/2000/svg">
<path fill-rule="evenodd" clip-rule="evenodd" d="M7.25 10.9785C7.25 9.45973 8.48122 8.22852 10 8.22852H18.75C20.2688 8.22852 21.5 9.45973 21.5 10.9785V23.4785C21.5 24.9973 20.2688 26.2285 18.75 26.2285H10C8.48122 26.2285 7.25 24.9973 7.25 23.4785V10.9785ZM10 6.22852C7.37665 6.22852 5.25 8.35516 5.25 10.9785V23.4785C5.25 26.1019 7.37665 28.2285 10 28.2285H18.75C20.2928 28.2285 21.6638 27.493 22.5315 26.3534C23.7799 26.3451 24.9754 25.8456 25.8588 24.9623C26.7496 24.0715 27.25 22.8633 27.25 21.6035V12.541C27.25 11.2812 26.7496 10.0731 25.8588 9.18226C24.968 8.29146 23.7598 7.79102 22.5 7.79102C22.4284 7.79102 22.3587 7.79853 22.2914 7.81281C21.4216 6.84048 20.1573 6.22852 18.75 6.22852H10ZM23.3856 9.93751C23.4605 10.2725 23.5 10.6209 23.5 10.9785V23.4785C23.5 23.7186 23.4822 23.9545 23.4478 24.185C23.8188 24.0488 24.1597 23.8329 24.4445 23.5481C24.9603 23.0323 25.25 22.3329 25.25 21.6035V12.541C25.25 11.8117 24.9603 11.1122 24.4445 10.5965C24.1439 10.2958 23.7807 10.0719 23.3856 9.93751ZM10.25 17.2285C10.25 16.6762 10.6977 16.2285 11.25 16.2285H13.375V14.1035C13.375 13.5512 13.8227 13.1035 14.375 13.1035C14.9273 13.1035 15.375 13.5512 15.375 14.1035V16.2285H17.5C18.0523 16.2285 18.5 16.6762 18.5 17.2285C18.5 17.7808 18.0523 18.2285 17.5 18.2285H15.375V20.3535C15.375 20.9058 14.9273 21.3535 14.375 21.3535C13.8227 21.3535 13.375 20.9058 13.375 20.3535V18.2285H11.25C10.6977 18.2285 10.25 17.7808 10.25 17.2285Z" fill="currentColor"/>
</svg>
