<svg width="32" height="33" viewBox="0 0 32 33" fill="none" xmlns="http://www.w3.org/2000/svg">
<path fill-rule="evenodd" clip-rule="evenodd" d="M25.2488 19.2122C25.2588 20.1322 25.5688 21.0322 26.1288 21.7922L26.1588 21.7822C26.6488 22.4622 26.5888 23.2522 26.1888 23.8422C25.8088 24.4122 25.1188 24.7822 24.3488 24.7822H7.15884C6.38884 24.7822 5.69884 24.4122 5.31884 23.8422C4.91884 23.2522 4.85884 22.4522 5.34884 21.7822C5.90884 21.0322 6.21884 20.1322 6.22884 19.2122C6.22884 19.0083 6.22163 18.7538 6.21332 18.4611C6.21185 18.4093 6.21035 18.3563 6.20884 18.3022L6.20733 18.2591C6.14707 16.5434 6.04545 13.6502 6.82884 11.0422C7.31884 9.41219 8.15884 7.82219 9.60884 6.64219C11.0688 5.45219 13.0688 4.74219 15.7388 4.74219C18.4088 4.74219 20.4088 5.45219 21.8688 6.64219C23.3188 7.83219 24.1588 9.42219 24.6488 11.0422C25.4322 13.6502 25.3306 16.5434 25.2704 18.259L25.2688 18.3022C25.2673 18.3563 25.2658 18.4092 25.2644 18.461C25.2561 18.7538 25.2488 19.0082 25.2488 19.2122ZM20.4988 18.0022C20.8588 18.0022 21.2088 17.8022 21.3888 17.4622V17.4522C21.4588 17.3322 22.0088 16.2022 21.8588 14.1722C21.7188 12.1422 21.0088 11.1022 20.9288 10.9922C20.6088 10.5522 19.9988 10.4522 19.5488 10.7622C19.0988 11.0722 18.9888 11.6922 19.2888 12.1422C19.2888 12.143 19.2919 12.1484 19.2977 12.1584C19.3626 12.2722 19.767 12.9806 19.8588 14.3222C19.9588 15.7522 19.6188 16.5222 19.5988 16.5622C19.3588 17.0422 19.5488 17.6422 20.0388 17.8922C20.1888 17.9622 20.3488 18.0022 20.4988 18.0022ZM15.5489 28.2522C14.2389 28.2522 13.1789 27.8522 12.3989 27.0722C12.1489 26.8222 11.9689 26.5522 11.8089 26.2822H19.4589C18.7589 27.3322 17.5389 28.2522 15.5489 28.2522Z" fill="currentColor"/>
</svg>
