<svg width="32" height="33" viewBox="0 0 32 33" fill="none" xmlns="http://www.w3.org/2000/svg">
<path fill-rule="evenodd" clip-rule="evenodd" d="M10 6.23242H18.75C21.37 6.23242 23.5 8.36242 23.5 10.9824V23.4824C23.5 26.1024 21.37 28.2324 18.75 28.2324H10C7.38 28.2324 5.25 26.1024 5.25 23.4824V10.9824C5.25 8.36242 7.38 6.23242 10 6.23242ZM15.38 18.2324H17.5C18.05 18.2324 18.5 17.7824 18.5 17.2324C18.5 16.6824 18.05 16.2324 17.5 16.2324H15.38V14.1124C15.38 13.5624 14.93 13.1124 14.38 13.1124C13.83 13.1124 13.38 13.5624 13.38 14.1124V16.2324H11.26C10.71 16.2324 10.26 16.6824 10.26 17.2324C10.26 17.7824 10.71 18.2324 11.26 18.2324H13.38V20.3524C13.38 20.9024 13.83 21.3524 14.38 21.3524C14.93 21.3524 15.38 20.9024 15.38 20.3524V18.2324ZM24.33 8.15247C24.9 8.39247 25.42 8.74247 25.86 9.18247C26.75 10.0725 27.25 11.2825 27.25 12.5425V21.6025C27.25 22.8625 26.75 24.0725 25.86 24.9625C25.46 25.3525 25.01 25.6725 24.51 25.9025C24.83 25.1525 25 24.3325 25 23.4725V10.9725C25 9.96247 24.76 9.00247 24.33 8.15247Z" fill="currentColor"/>
</svg>
