<svg xmlns="http://www.w3.org/2000/svg" fill="none" viewBox="0 0 32 32">
  <path fill="currentColor" d="M13.362,12.93182 C13.7762136,12.93182 14.112,13.2676064 14.112,13.68182 C14.112,14.0615158 13.8298461,14.375311 13.4637706,14.4249734 L13.362,14.43182 L11.1249,14.43132 L11.1249,23.36332 L20.8749,23.36332 L20.8749,14.43132 L18.6178,14.43182 C18.2381042,14.43182 17.924309,14.1496661 17.8746466,13.7835906 L17.8678,13.68182 C17.8678,13.3021242 18.1499539,12.988329 18.5160294,12.9386666 L18.6178,12.93182 L21.625,12.93182 C22.0046958,12.93182 22.318491,13.2139739 22.3681534,13.5800494 L22.375,13.68182 L22.375,23.44692 C22.375,24.1832783 21.8131698,24.7884819 21.0948249,24.8571343 L20.9584,24.86362 L11.0417,24.86362 C10.3053108,24.86362 9.70013448,24.3017607 9.63148533,23.5833564 L9.625,23.44692 L9.625,13.68182 C9.625,13.3021242 9.90715388,12.988329 10.2732294,12.9386666 L10.375,12.93182 L13.362,12.93182 Z M16.4533553,7.28876929 C16.4824469,7.31118884 16.507144,7.33286385 16.5303301,7.35604991 L16.5381853,7.36402326 L18.7881853,9.68220326 C19.076675,9.9794348 19.0695883,10.4542557 18.7723567,10.7427453 C18.5021463,11.0050086 18.0851677,11.022994 17.79484,10.8007821 L17.7118147,10.7269167 L16.75,9.73638 L16.75,18.31822 C16.75,18.7324336 16.4142136,19.06822 16,19.06822 C15.6203042,19.06822 15.306509,18.7860661 15.2568466,18.4199906 L15.25,18.31822 L15.25,9.73438 L14.2881853,10.7269167 C14.025922,10.9971272 13.6096659,11.0275486 13.312836,10.8141001 L13.2276433,10.7427453 C12.9574328,10.480482 12.9270114,10.0642259 13.1404599,9.76739603 L13.2118147,9.68220326 L15.4618147,7.36402326 L15.4696699,7.35604991 C15.492856,7.33286385 15.5175531,7.31118884 15.5436009,7.29118526 L15.5466447,7.28876929 L15.6214606,7.23877699 C15.6252921,7.23653259 15.6291452,7.23432123 15.6330196,7.23214329 C15.6409567,7.22759082 15.6488672,7.22333786 15.6568358,7.21923711 C15.6811383,7.206774 15.706552,7.19539146 15.7326656,7.18542623 C15.7385237,7.18319627 15.7441646,7.18112923 15.7498248,7.17913215 C15.7739042,7.17059341 15.7987473,7.16321516 15.8240915,7.15712378 C15.8384965,7.15371656 15.8532463,7.15063694 15.8680602,7.14800443 C15.8850025,7.1449363 15.9023405,7.14247231 15.9198586,7.14061144 C15.9414117,7.13836045 15.962479,7.13701804 15.9835619,7.13655895 C15.9885092,7.13644477 15.994247,7.13638 16,7.13638 L16.0174342,7.1365813 C16.0381846,7.13706054 16.0589189,7.13839551 16.0795793,7.1405862 L16,7.13638 C16.0450845,7.13638 16.0892398,7.14035803 16.1321342,7.14798225 C16.1467537,7.15063694 16.1615035,7.15371656 16.1761674,7.15724331 C16.2012527,7.16321516 16.2260958,7.17059341 16.250365,7.17918554 C16.2558354,7.18112923 16.2614763,7.18319627 16.2670966,7.18533328 C16.293448,7.19539146 16.3188617,7.206774 16.3434814,7.2194798 C16.3511328,7.22333786 16.3590433,7.22759082 16.3668911,7.231996 C16.3708548,7.23432123 16.3747079,7.23653259 16.3785394,7.23877699 L16.4533553,7.28876929 L16.4533553,7.28876929 Z"/>
</svg>
