<svg width="20" height="20" viewBox="0 0 20 20" fill="none" xmlns="http://www.w3.org/2000/svg">
<g id="Plus">
<path id="Vector" d="M10.9375 17.1875L10.9375 10.9375L17.1875 10.9375C17.3602 10.9375 17.5 10.7977 17.5 10.625L17.5 9.375C17.5 9.20234 17.3602 9.0625 17.1875 9.0625L10.9375 9.0625L10.9375 2.8125C10.9375 2.63984 10.7977 2.5 10.625 2.5L9.375 2.5C9.20234 2.5 9.0625 2.63984 9.0625 2.8125L9.0625 9.0625L2.8125 9.0625C2.63984 9.0625 2.5 9.20234 2.5 9.375V10.625C2.5 10.7977 2.63984 10.9375 2.8125 10.9375L9.0625 10.9375L9.0625 17.1875C9.0625 17.3602 9.20234 17.5 9.375 17.5H10.625C10.7977 17.5 10.9375 17.3602 10.9375 17.1875Z" fill="currentColor"/>
</g>
</svg>
