<svg width="20" height="20" viewBox="0 0 20 20" fill="none" xmlns="http://www.w3.org/2000/svg">
<path fill-rule="evenodd" clip-rule="evenodd" d="M2.30768 2.5C1.95365 2.5 1.66666 2.78782 1.66666 3.14286V6.57143C1.66666 6.92647 1.95365 7.21429 2.30768 7.21429H2.55785C2.52918 7.29548 2.51642 7.3838 2.52305 7.4752L3.03587 14.5466L3.03612 14.5499C3.16785 16.2454 4.68205 17.5 6.41025 17.5H13.5897C15.3179 17.5 16.8321 16.2454 16.9639 14.5499L16.9641 14.5466L17.4769 7.4752C17.4836 7.3838 17.4708 7.29548 17.4421 7.21429H17.6923C18.0463 7.21429 18.3333 6.92647 18.3333 6.57143V3.14286C18.3333 2.78782 18.0463 2.5 17.6923 2.5H2.30768ZM16.2331 7.21429H3.76692C3.78551 7.26715 3.79747 7.32334 3.80172 7.38194L4.31429 14.4501L4.31441 14.4516C4.38862 15.3955 5.26726 16.2143 6.41025 16.2143H13.5897C14.7327 16.2143 15.6114 15.3955 15.6856 14.4516L15.6857 14.4501L16.1983 7.38194C16.2025 7.32334 16.2145 7.26715 16.2331 7.21429ZM2.94871 5.92857V3.78571H17.0513V5.92857H2.94871ZM7.83732 9.54543C8.08765 9.29438 8.49353 9.29438 8.74386 9.54543L9.99999 10.8051L11.2561 9.54543C11.5065 9.29438 11.9123 9.29438 12.1627 9.54543C12.413 9.79648 12.413 10.2035 12.1627 10.4546L10.9065 11.7143L12.1627 12.974C12.413 13.2251 12.413 13.6321 12.1627 13.8831C11.9123 14.1342 11.5065 14.1342 11.2561 13.8831L9.99999 12.6234L8.74386 13.8831C8.49353 14.1342 8.08765 14.1342 7.83732 13.8831C7.58698 13.6321 7.58698 13.2251 7.83732 12.974L9.09344 11.7143L7.83732 10.4546C7.58698 10.2035 7.58698 9.79648 7.83732 9.54543Z" fill="currentColor"/>
</svg>
