<svg width="20" height="20" viewBox="0 0 20 20" fill="none" xmlns="http://www.w3.org/2000/svg">
<g id="Arrow-l-top">
<path id="Vector" fill-rule="evenodd" clip-rule="evenodd" d="M9.71204 5.93684C9.701 5.94614 9.69048 5.95597 9.68052 5.96629L7.59746 8.30105C7.44974 8.46526 7.47251 8.71022 7.64832 8.8482C7.72366 8.90732 7.81901 8.93957 7.91742 8.93921H9.37556V16.9163C9.37556 17.3461 9.5403 17.5 10.0005 17.5C10.4607 17.5 10.6254 17.3461 10.6254 16.9163V8.93921H12.0835C12.3136 8.93913 12.5001 8.76485 12.5 8.54994C12.5 8.45899 12.4658 8.37093 12.4035 8.30105L10.3204 5.96629C10.1611 5.80124 9.88875 5.78805 9.71204 5.93684ZM17.5 3.125V3.125C17.5 3.47018 17.2202 3.75 16.875 3.75H3.125V3.75C2.77982 3.75 2.5 3.47018 2.5 3.125C2.5 2.77982 2.77982 2.5 3.125 2.5H16.875V2.5C17.2202 2.5 17.5 2.77982 17.5 3.125V3.125Z" fill="#808080"/>
</g>
</svg>
