<svg width="20" height="20" viewBox="0 0 20 20" fill="none" xmlns="http://www.w3.org/2000/svg">
<g id="Arrow-l-bottom">
<path id="Vector" fill-rule="evenodd" clip-rule="evenodd" d="M10.288 14.0632C10.299 14.0539 10.3095 14.044 10.3195 14.0337L12.4025 11.699C12.5503 11.5347 12.5275 11.2898 12.3517 11.1518C12.2763 11.0927 12.181 11.0604 12.0826 11.0608H10.6244L10.6244 3.08369C10.6244 2.65387 10.4597 2.5 9.99952 2.5C9.53934 2.5 9.3746 2.65387 9.3746 3.08369L9.3746 11.0608H7.91646C7.68637 11.0609 7.49991 11.2351 7.5 11.4501C7.50004 11.541 7.53418 11.6291 7.5965 11.699L9.67956 14.0337C9.83886 14.1988 10.1112 14.2119 10.288 14.0632ZM2.5 16.875V16.875C2.5 16.5298 2.77982 16.25 3.125 16.25H16.875V16.25C17.2202 16.25 17.5 16.5298 17.5 16.875C17.5 17.2202 17.2202 17.5 16.875 17.5L3.125 17.5V17.5C2.77982 17.5 2.5 17.2202 2.5 16.875V16.875Z" fill="#808080"/>
</g>
</svg>
