<svg width="20" height="20" viewBox="0 0 20 20" fill="none" xmlns="http://www.w3.org/2000/svg">
<g id="Book">
<path id="Vector" fill-rule="evenodd" clip-rule="evenodd" d="M5.95424 1.6665C5.28631 1.6665 4.72968 1.78648 4.27875 2.03466C3.8202 2.28704 3.50992 2.65069 3.30671 3.06775C2.92216 3.85694 2.91671 4.86437 2.91671 5.7024L2.91669 14.6545C2.91669 14.7887 2.96374 14.9118 3.04226 15.0084C3.14291 15.4278 3.39942 15.8126 3.79907 16.1044C4.22642 16.4165 4.8002 16.6124 5.50631 16.6698V17.7718C5.50631 17.9882 5.6307 18.1854 5.82601 18.2785C6.02133 18.3716 6.25279 18.3442 6.42094 18.208L7.79476 17.0952L9.16858 18.208C9.33673 18.3442 9.56819 18.3716 9.76351 18.2785C9.95882 18.1854 10.0832 17.9882 10.0832 17.7718V16.6672C10.1309 16.6804 10.1811 16.6874 10.233 16.6874H16.571C16.8178 16.6874 17.0356 16.5263 17.1078 16.2903C17.1799 16.0544 17.0896 15.7989 16.885 15.6609L16.885 15.6609C16.8849 15.6607 16.8829 15.6594 16.8793 15.6563C16.8755 15.653 16.8701 15.6479 16.8634 15.6408C16.8497 15.6262 16.8324 15.6049 16.8124 15.5753C16.7719 15.515 16.7282 15.4315 16.687 15.3255C16.604 15.1123 16.5448 14.8439 16.528 14.5714C16.511 14.296 16.5393 14.0499 16.6028 13.8694C16.6657 13.6908 16.7435 13.6238 16.8013 13.5977C17.0027 13.5071 17.1323 13.3068 17.1323 13.0859V3.09138C17.1323 2.30482 16.4952 1.6665 15.7078 1.6665H5.95424ZM10.0832 15.585C10.1309 15.5718 10.1811 15.5648 10.233 15.5648H15.5806C15.4867 15.2762 15.427 14.9569 15.4075 14.6406C15.3875 14.3158 15.4086 13.9691 15.4969 13.6472H10.0832V15.585ZM8.96057 13.6472H6.62895L6.62895 16.5948L7.44145 15.9367C7.64744 15.7698 7.94208 15.7698 8.14806 15.9367L8.96057 16.5948V13.6472ZM5.50631 13.6472H5.47163C4.49474 13.6472 4.11428 14.2298 4.11656 14.6026C4.11772 14.7921 4.20408 15.0101 4.46108 15.1978C4.67027 15.3505 5.00553 15.4898 5.50631 15.5425L5.50631 13.6472ZM5.47163 12.5246C4.92608 12.5246 4.43642 12.6599 4.03932 12.8906L4.03934 5.7024C4.03934 4.80313 4.06556 4.07328 4.31591 3.5595C4.43014 3.32507 4.58811 3.14583 4.82005 3.01817C5.05962 2.88632 5.41573 2.78914 5.95424 2.78914H15.7078C15.8744 2.78914 16.0097 2.92408 16.0097 3.09138L16.0096 12.5246H5.47163Z" fill="currentColor"/>
</g>
</svg>
