<svg width="20" height="20" viewBox="0 0 20 20" fill="none" xmlns="http://www.w3.org/2000/svg">
<path fill-rule="evenodd" clip-rule="evenodd" d="M5.23826 2.98229C4.97527 2.98229 4.76207 3.17866 4.76207 3.42089V16.572L9.66061 14.1341C9.8725 14.0286 10.1278 14.0286 10.3397 14.1341L15.2383 16.572V3.42089C15.2383 3.17866 15.0251 2.98229 14.7621 2.98229H5.23826ZM3.3335 3.42089C3.3335 2.45197 4.18629 1.6665 5.23826 1.6665H14.7621C15.814 1.6665 16.6668 2.45197 16.6668 3.42089V17.6753C16.6668 17.907 16.5345 18.1217 16.3184 18.2403C16.1023 18.359 15.8343 18.3642 15.613 18.2541L10.0002 15.4607L4.38734 18.2541C4.16599 18.3642 3.89804 18.359 3.68195 18.2403C3.46586 18.1217 3.3335 17.907 3.3335 17.6753V3.42089Z" fill="currentColor"/>
</svg>
