<svg width="20" height="20" viewBox="0 0 20 20" fill="none" xmlns="http://www.w3.org/2000/svg">
<path fill-rule="evenodd" clip-rule="evenodd" d="M1.97916 9.99984C1.97916 5.57005 5.57021 1.979 10 1.979C14.4298 1.979 18.0208 5.57005 18.0208 9.99984C18.0208 14.4296 14.4298 18.0207 10 18.0207C5.57021 18.0207 1.97916 14.4296 1.97916 9.99984ZM13.7173 8.26845C13.9116 8.05641 13.8973 7.72694 13.6853 7.53257C13.4732 7.3382 13.1438 7.35253 12.9494 7.56457L8.76309 12.1315L6.64545 9.66089C6.45825 9.44249 6.12945 9.41719 5.91105 9.60439C5.69265 9.79159 5.66736 10.1204 5.85456 10.3388L8.35456 13.2555C8.45154 13.3686 8.59234 13.4348 8.74133 13.4373C8.89033 13.4398 9.03325 13.3783 9.13394 13.2684L13.7173 8.26845Z" fill="currentColor"/>
</svg>
