<svg width="20" height="20" viewBox="0 0 20 20" fill="none" xmlns="http://www.w3.org/2000/svg">
<g id="Times">
<path id="Vector" d="M11.3258 10L15.332 5.99375L16.1582 5.16758C16.2801 5.0457 16.2801 4.84766 16.1582 4.72578L15.2742 3.8418C15.1523 3.71992 14.9543 3.71992 14.8324 3.8418L10 8.67422L5.16758 3.84141C5.0457 3.71953 4.84766 3.71953 4.72578 3.84141L3.84141 4.72539C3.71953 4.84727 3.71953 5.04531 3.84141 5.16719L8.67422 10L3.84141 14.8324C3.71953 14.9543 3.71953 15.1523 3.84141 15.2742L4.72539 16.1582C4.84727 16.2801 5.04531 16.2801 5.16719 16.1582L10 11.3258L14.0063 15.332L14.8324 16.1582C14.9543 16.2801 15.1523 16.2801 15.2742 16.1582L16.1582 15.2742C16.2801 15.1523 16.2801 14.9543 16.1582 14.8324L11.3258 10Z" fill="currentColor"/>
</g>
</svg>
