<svg width="20" height="20" viewBox="0 0 20 20" fill="none" xmlns="http://www.w3.org/2000/svg">
<path fill-rule="evenodd" clip-rule="evenodd" d="M15.3159 4.60844C14.7606 4.07238 13.8603 4.07238 13.305 4.60844L5.38332 12.2559L4.31939 15.2737L7.38944 14.2017L15.3159 6.54966C15.8712 6.01361 15.8712 5.14449 15.3159 4.60844ZM12.3606 3.69669C13.4375 2.65709 15.1834 2.65709 16.2603 3.69669C17.3372 4.73629 17.3372 6.42181 16.2603 7.46141L8.2287 15.2149L8.12352 15.3165L7.98364 15.3653L3.50296 16.93L3.06286 17.0837L2.76302 16.7367L2.74027 16.7104L2.5 16.4324L2.62084 16.0897L4.16897 11.6984L4.21905 11.5563L4.32896 11.4502L12.3606 3.69669ZM12.2031 16.6102C12.8084 16.6102 13.299 16.1365 13.299 15.5522C13.299 14.9679 12.8084 14.4943 12.2031 14.4943C11.5978 14.4943 11.1072 14.9679 11.1072 15.5522C11.1072 16.1365 11.5978 16.6102 12.2031 16.6102ZM17.5 15.5522C17.5 16.1365 17.0093 16.6102 16.4041 16.6102C15.7988 16.6102 15.3081 16.1365 15.3081 15.5522C15.3081 14.9679 15.7988 14.4943 16.4041 14.4943C17.0093 14.4943 17.5 14.9679 17.5 15.5522Z" fill="currentColor"/>
</svg>
