<svg width="20" height="20" viewBox="0 0 20 20" fill="none" xmlns="http://www.w3.org/2000/svg">
<path fill-rule="evenodd" clip-rule="evenodd" d="M4.375 2.76782C4.26582 2.76782 4.1567 2.7964 4.05925 2.85345C3.86771 2.96558 3.75 3.17088 3.75 3.39282V14.812C3.75 15.0521 3.8876 15.2711 4.10399 15.3752L10.4321 18.4203C10.6258 18.5135 10.8538 18.5006 11.0357 18.3863C11.2177 18.2719 11.3281 18.072 11.3281 17.8571V15.1948H15.625C15.9702 15.1948 16.25 14.9149 16.25 14.5698V3.39282C16.25 3.04764 15.9702 2.76782 15.625 2.76782H4.37513C4.37508 2.76782 4.37504 2.76782 4.375 2.76782ZM6.765 4.01782L11.0091 6.40046C11.2061 6.51109 11.3281 6.71947 11.3281 6.94545V13.9448H15V4.01782H6.765ZM5 14.4192V4.46046L10.0781 7.31133V16.8628L5 14.4192Z" fill="currentColor"/>
</svg>
