<svg width="20" height="20" viewBox="0 0 20 20" fill="none" xmlns="http://www.w3.org/2000/svg">
<g id="Money">
<path id="Vector" d="M10.0001 4.44428V5.8332M10.0001 15.5554V14.1665M7.2223 12.946L8.03607 13.5563C8.57842 13.9631 9.28925 14.1665 10.0001 14.1665M12.2385 6.74857L11.8544 6.44339C11.3423 6.03662 10.6712 5.83322 10.0001 5.8332M10.0001 5.8332C9.32887 5.83317 8.65765 6.03657 8.14554 6.44339C7.12138 7.25698 7.12137 8.57607 8.14554 9.38967C8.65767 9.7965 9.32874 9.99988 9.99998 9.99984C10.7109 9.9998 11.4219 10.2032 11.9643 10.61C13.049 11.4236 13.049 12.7427 11.9643 13.5563C11.4219 13.9631 10.711 14.1665 10.0001 14.1665M18.3334 9.99984C18.3334 14.6022 14.6025 18.3332 10.0001 18.3332C5.39771 18.3332 1.66675 14.6022 1.66675 9.99984C1.66675 5.39746 5.39771 1.6665 10.0001 1.6665C14.6025 1.6665 18.3334 5.39746 18.3334 9.99984Z" stroke="currentColor" stroke-width="1.25" stroke-linecap="round" stroke-linejoin="round"/>
</g>
</svg>
