<svg width="20" height="20" viewBox="0 0 20 20" fill="none" xmlns="http://www.w3.org/2000/svg">
<path fill-rule="evenodd" clip-rule="evenodd" d="M13.7962 15.9813C12.699 16.6792 11.3967 17.0834 10 17.0834C6.088 17.0834 2.91669 13.9121 2.91669 10.0001C2.91669 8.06424 3.69325 6.30977 4.95186 5.03121L13.7962 15.9813ZM14.7881 15.2201L5.90388 4.22052C7.0603 3.39945 8.47379 2.91675 10 2.91675C13.912 2.91675 17.0834 6.08807 17.0834 10.0001C17.0834 12.066 16.199 13.9253 14.7881 15.2201ZM18.3334 10.0001C18.3334 14.6025 14.6024 18.3334 10 18.3334C5.39765 18.3334 1.66669 14.6025 1.66669 10.0001C1.66669 5.39771 5.39765 1.66675 10 1.66675C14.6024 1.66675 18.3334 5.39771 18.3334 10.0001Z" fill="currentColor"/>
</svg>
