<svg width="20" height="20" viewBox="0 0 20 20" fill="none" xmlns="http://www.w3.org/2000/svg">
<g id="Icon">
<path id="Vector" d="M7.12589 13.1396L4.80089 15.4563M13.2259 12.1313L16.7009 8.6563C17.0092 8.34797 17.0092 7.83963 16.7009 7.5313L12.7342 3.56463C12.4259 3.2563 11.9176 3.2563 11.6092 3.56463L8.13422 7.03963C7.77589 7.39796 7.24255 7.5063 6.75089 7.37297C5.70922 7.09797 4.74255 7.3563 4.00922 7.71463C3.27589 8.07297 3.09255 9.1063 3.69255 9.7063L10.5676 16.5813C11.1676 17.1813 12.1842 17.023 12.5592 16.2646C12.9342 15.5063 13.1842 14.5646 12.9009 13.523C12.7676 13.0313 12.8676 12.498 13.2342 12.1396L13.2259 12.1313Z" stroke="currentColor" stroke-width="1.25" stroke-linecap="round" stroke-linejoin="round"/>
</g>
</svg>
