<svg width="20" height="20" viewBox="0 0 20 20" fill="none" xmlns="http://www.w3.org/2000/svg">
<path fill-rule="evenodd" clip-rule="evenodd" d="M12.1014 2.5C11.8027 2.5 11.5162 2.61878 11.305 2.8302L7.17297 6.96588C7.16204 6.96246 7.15091 6.95904 7.13958 6.95561C6.88778 6.87939 6.5317 6.79971 6.10208 6.78041C5.23313 6.74137 4.0837 6.95146 2.9202 7.8908C2.79711 7.99003 2.69624 8.11405 2.62414 8.25482C2.552 8.39568 2.51027 8.55015 2.50167 8.7082C2.49307 8.86625 2.51778 9.02434 2.57421 9.17221C2.63065 9.32008 2.71753 9.4544 2.82921 9.56647L6.23629 12.9766L3.8186 15.3964C3.59866 15.6166 3.59866 15.9735 3.8186 16.1936C4.03853 16.4137 4.39512 16.4137 4.61506 16.1936L7.03276 13.7738L10.4249 17.169C10.5387 17.283 10.6759 17.3716 10.8266 17.4282C10.9775 17.4849 11.1388 17.5084 11.2996 17.4973C11.4604 17.4862 11.6169 17.4407 11.7586 17.3638C11.9003 17.2869 12.0238 17.1805 12.1209 17.0517C12.683 16.304 13.7069 14.6193 13.051 12.8233L17.1701 8.70057C17.3813 8.48914 17.5 8.20239 17.5 7.90339C17.5 7.6044 17.3813 7.31764 17.1701 7.10622L12.8979 2.8302C12.6867 2.61878 12.4002 2.5 12.1014 2.5ZM7.43099 12.578L11.2219 16.3723C11.8018 15.6004 12.5268 14.2429 11.8793 12.9468C11.7709 12.7298 11.8134 12.4677 11.9848 12.2962L16.3736 7.90339L12.1014 3.62738L7.71258 8.02014C7.542 8.19087 7.28184 8.23382 7.06564 8.1273C7.06564 8.1273 7.06241 8.12577 7.05864 8.12405C7.05037 8.12028 7.03532 8.11362 7.0139 8.10489C6.97101 8.0874 6.90307 8.06182 6.81353 8.03472C6.63388 7.98034 6.3712 7.92101 6.05158 7.90665C5.42211 7.87837 4.55125 8.02234 3.62719 8.76844L3.62648 8.76912L3.62651 8.77009L7.43099 12.578Z" fill="currentColor"/>
</svg>
