<svg width="20" height="20" viewBox="0 0 20 20" fill="none" xmlns="http://www.w3.org/2000/svg">
<path d="M3.33352 3.33333L2.70852 3.33333L3.33352 3.33333ZM4.16685 2.5L4.16685 1.875L4.16685 2.5ZM15.8322 3.78683L16.3565 4.12695L16.3565 4.12695L15.8322 3.78683ZM13.7178 7.04651L13.1934 6.70639V6.70639L13.7178 7.04651ZM13.7178 7.95349L14.2421 7.61337V7.61337L13.7178 7.95349ZM15.8322 11.2132L15.3078 11.5533L15.8322 11.2132ZM15.133 12.5V13.125V12.5ZM5.83352 11.875C5.48834 11.875 5.20852 12.1548 5.20852 12.5C5.20852 12.8452 5.48834 13.125 5.83352 13.125V11.875ZM2.7085 17.4998C2.7085 17.845 2.98832 18.1248 3.3335 18.1248C3.67867 18.1248 3.9585 17.845 3.9585 17.4998H2.7085ZM3.95852 12.5L3.95852 3.33333L2.70852 3.33333L2.70852 12.5L3.95852 12.5ZM4.16685 3.125L15.133 3.125V1.875L4.16685 1.875L4.16685 3.125ZM15.3078 3.44671L13.1934 6.70639L14.2421 7.38663L16.3565 4.12695L15.3078 3.44671ZM13.1934 8.29361L15.3078 11.5533L16.3565 10.8731L14.2421 7.61337L13.1934 8.29361ZM15.133 11.875H5.83352V13.125H15.133V11.875ZM15.3078 11.5533C15.3977 11.6919 15.2982 11.875 15.133 11.875V13.125C16.2895 13.125 16.9859 11.8433 16.3565 10.8731L15.3078 11.5533ZM13.1934 6.70639C12.8803 7.18913 12.8803 7.81087 13.1934 8.29361L14.2421 7.61337C14.1974 7.54441 14.1974 7.45559 14.2421 7.38663L13.1934 6.70639ZM15.133 3.125C15.2982 3.125 15.3977 3.3081 15.3078 3.44671L16.3565 4.12695C16.9858 3.15671 16.2895 1.875 15.133 1.875V3.125ZM3.95852 3.33333C3.95852 3.21827 4.05179 3.125 4.16685 3.125L4.16685 1.875C3.36144 1.875 2.70852 2.52792 2.70852 3.33333L3.95852 3.33333ZM3.9585 17.4998V11.5696H2.7085V17.4998H3.9585Z" fill="currentColor"/>
</svg>
