<svg width="24" height="24" viewBox="0 0 24 24" fill="none" xmlns="http://www.w3.org/2000/svg">
<g id="RSS">
<path id="Vector" fill-rule="evenodd" clip-rule="evenodd" d="M5.47759 4.33474C5.69192 4.12041 5.98261 4 6.28571 4C13.8594 4 20 10.1406 20 17.7143C20 18.0174 19.8796 18.3081 19.6653 18.5224C19.4509 18.7367 19.1602 18.8571 18.8571 18.8571C18.554 18.8571 18.2633 18.7367 18.049 18.5224C17.8347 18.3081 17.7143 18.0174 17.7143 17.7143C17.7143 11.4023 12.5977 6.28571 6.28571 6.28571C5.98261 6.28571 5.69192 6.16531 5.47759 5.95098C5.26327 5.73665 5.14286 5.44596 5.14286 5.14286C5.14286 4.83975 5.26327 4.54906 5.47759 4.33474ZM5.47759 10.049C5.26327 10.2633 5.14286 10.554 5.14286 10.8571C5.14286 11.1602 5.26327 11.4509 5.47759 11.6653C5.69192 11.8796 5.98261 12 6.28571 12C7.80124 12 9.25469 12.602 10.3263 13.6737C11.398 14.7453 12 16.1988 12 17.7143C12 18.0174 12.1204 18.3081 12.3347 18.5224C12.5491 18.7367 12.8398 18.8571 13.1429 18.8571C13.446 18.8571 13.7367 18.7367 13.951 18.5224C14.1653 18.3081 14.2857 18.0174 14.2857 17.7143C14.2857 15.5926 13.4429 13.5577 11.9426 12.0574C10.4423 10.5571 8.40745 9.71429 6.28571 9.71429C5.98261 9.71429 5.69192 9.83469 5.47759 10.049ZM4.66947 16.098C4.24082 16.5267 4 17.1081 4 17.7143C4 18.3205 4.24082 18.9019 4.66947 19.3305C5.09812 19.7592 5.67951 20 6.28571 20C6.89192 20 7.4733 19.7592 7.90196 19.3305C8.33061 18.9019 8.57143 18.3205 8.57143 17.7143C8.57143 17.1081 8.33061 16.5267 7.90196 16.098C7.4733 15.6694 6.89192 15.4286 6.28571 15.4286C5.67951 15.4286 5.09812 15.6694 4.66947 16.098Z" fill="currentColor"/>
</g>
</svg>
