<svg width="20" height="20" viewBox="0 0 20 20" fill="none" xmlns="http://www.w3.org/2000/svg">
<path fill-rule="evenodd" clip-rule="evenodd" d="M4.56464 16.3878C4.74325 16.5664 4.98549 16.6667 5.23807 16.6667C11.5495 16.6667 16.6666 11.5496 16.6666 5.23818C16.6666 4.98559 16.5663 4.74335 16.3877 4.56474C16.2091 4.38614 15.9669 4.2858 15.7143 4.2858C15.4617 4.2858 15.2194 4.38614 15.0408 4.56474C14.8622 4.74335 14.7619 4.98559 14.7619 5.23818C14.7619 10.4982 10.4981 14.762 5.23807 14.762C4.98549 14.762 4.74325 14.8623 4.56464 15.0409C4.38603 15.2195 4.28569 15.4618 4.28569 15.7144C4.28569 15.967 4.38603 16.2092 4.56464 16.3878ZM4.56464 11.6259C4.38603 11.4473 4.28569 11.205 4.28569 10.9525C4.28569 10.6999 4.38603 10.4576 4.56464 10.279C4.74325 10.1004 4.98549 10.0001 5.23807 10.0001C6.50101 10.0001 7.71222 9.49838 8.60525 8.60535C9.49828 7.71232 9.99998 6.50111 9.99998 5.23818C9.99998 4.98559 10.1003 4.74335 10.2789 4.56474C10.4575 4.38614 10.6998 4.2858 10.9524 4.2858C11.2049 4.2858 11.4472 4.38614 11.6258 4.56474C11.8044 4.74335 11.9047 4.98559 11.9047 5.23818C11.9047 7.00629 11.2024 8.70198 9.95212 9.95222C8.70188 11.2025 7.00618 11.9048 5.23807 11.9048C4.98549 11.9048 4.74325 11.8045 4.56464 11.6259ZM3.8912 6.58505C3.53399 6.22783 3.33331 5.74335 3.33331 5.23818C3.33331 4.733 3.53399 4.24852 3.8912 3.89131C4.24842 3.53409 4.7329 3.33342 5.23807 3.33342C5.74325 3.33342 6.22773 3.53409 6.58495 3.89131C6.94216 4.24852 7.14284 4.733 7.14284 5.23818C7.14284 5.74335 6.94216 6.22783 6.58495 6.58505C6.22773 6.94226 5.74325 7.14294 5.23807 7.14294C4.7329 7.14294 4.24842 6.94226 3.8912 6.58505Z" fill="currentColor"/>
</svg>
