<svg width="20" height="20" viewBox="0 0 20 20" fill="none" xmlns="http://www.w3.org/2000/svg">
<g id="Search">
<path id="Vector" fill-rule="evenodd" clip-rule="evenodd" d="M4.66668 8.53259C4.66668 5.91254 6.80494 3.80434 9.42286 3.80434C12.0408 3.80434 14.179 5.91254 14.179 8.53259C14.179 11.1526 12.0408 13.2608 9.42286 13.2608C6.80494 13.2608 4.66668 11.1526 4.66668 8.53259ZM9.42286 2.5C6.05087 2.5 3.33334 5.2096 3.33334 8.53259C3.33334 11.8556 6.05087 14.5652 9.42286 14.5652C10.5656 14.5652 11.6331 14.254 12.5452 13.7133C12.567 13.7563 12.594 13.7976 12.6264 13.8364L15.4835 17.2603C15.7164 17.5393 16.1363 17.5809 16.4216 17.3531C16.7068 17.1253 16.7493 16.7145 16.5164 16.4355L13.6593 13.0116C13.6363 12.984 13.6116 12.9588 13.5853 12.936C14.7723 11.8339 15.5124 10.2668 15.5124 8.53259C15.5124 5.2096 12.7949 2.5 9.42286 2.5Z" fill="currentColor"/>
</g>
</svg>
