<svg width="20" height="20" viewBox="0 0 20 20" fill="none" xmlns="http://www.w3.org/2000/svg">
<path fill-rule="evenodd" clip-rule="evenodd" d="M9.35453 3.59271L6.95586 5.38527C6.67269 5.60204 6.27291 5.54368 6.05636 5.26021C5.83981 4.97673 5.89812 4.5682 6.18129 4.35976L9.60439 1.80015C9.71266 1.71677 9.84592 1.66675 9.99584 1.66675C10.1458 1.66675 10.279 1.71677 10.3873 1.80015L13.8104 4.35976C14.0936 4.57653 14.1519 4.97673 13.9353 5.26021C13.7188 5.54368 13.319 5.59371 13.0358 5.38527L10.6372 3.59271V13.4226C10.6372 13.7811 10.3456 14.0646 9.99584 14.0646C9.64603 14.0646 9.35453 13.7728 9.35453 13.4226V3.59271ZM13.1857 6.79433H16.8504H16.8587C17.2085 6.79433 17.5 7.08614 17.5 7.43631V17.1245C17.5 17.7915 16.9503 18.3334 16.284 18.3334H3.71599C3.04137 18.3334 2.5 17.7915 2.5 17.1245V7.43631C2.5 7.0778 2.78318 6.79433 3.14131 6.79433H6.78095C7.13076 6.79433 7.42227 7.0778 7.42227 7.43631C7.42227 7.79483 7.13909 8.0783 6.78095 8.0783H3.78262V17.0578H16.209V8.0783H13.1857C12.8359 8.0783 12.5444 7.79483 12.5444 7.43631C12.5444 7.0778 12.8276 6.79433 13.1857 6.79433Z" fill="currentColor"/>
</svg>
