<svg width="20" height="20" viewBox="0 0 20 20" fill="none" xmlns="http://www.w3.org/2000/svg">
<g id="Squire-check">
<path id="Vector" d="M16.5476 18.3337H3.45237C2.46614 18.3337 1.66666 17.5342 1.66666 16.5479V3.45271C1.66666 2.46647 2.46614 1.66699 3.45237 1.66699H16.5476C17.5338 1.66699 18.3333 2.46647 18.3333 3.45271V16.5479C18.3333 17.5342 17.5338 18.3337 16.5476 18.3337ZM8.9328 14.6856L15.778 7.84039C16.0105 7.60795 16.0105 7.23105 15.778 6.99861L14.9363 6.15684C14.7038 5.9244 14.3269 5.92436 14.0944 6.15684L8.5119 11.7394L5.90553 9.13299C5.67309 8.90055 5.2962 8.90055 5.06372 9.13299L4.22194 9.97477C3.9895 10.2072 3.9895 10.5841 4.22194 10.8165L8.09099 14.6856C8.32347 14.9181 8.70032 14.9181 8.9328 14.6856Z" fill="currentColor"/>
</g>
</svg>
