<svg width="20" height="20" viewBox="0 0 20 20" fill="none" xmlns="http://www.w3.org/2000/svg">
<g id="Squire">
<path id="Vector" d="M16.5476 1.66699H3.45237C2.46651 1.66699 1.66666 2.46684 1.66666 3.45271V16.5479C1.66666 17.5338 2.46651 18.3337 3.45237 18.3337H16.5476C17.5335 18.3337 18.3333 17.5338 18.3333 16.5479V3.45271C18.3333 2.46684 17.5335 1.66699 16.5476 1.66699ZM16.3244 16.5479H3.67559C3.55282 16.5479 3.45237 16.4475 3.45237 16.3247V3.67592C3.45237 3.55315 3.55282 3.45271 3.67559 3.45271H16.3244C16.4472 3.45271 16.5476 3.55315 16.5476 3.67592V16.3247C16.5476 16.4475 16.4472 16.5479 16.3244 16.5479Z" fill="currentColor"/>
</g>
</svg>
