<svg width="20" height="20" viewBox="0 0 20 20" fill="none" xmlns="http://www.w3.org/2000/svg">
<g id="Trash">
<path id="Vector" d="M11.3095 14.6875H12.0238C12.1185 14.6875 12.2094 14.6505 12.2763 14.5845C12.3433 14.5186 12.3809 14.4292 12.3809 14.3359V8.00781C12.3809 7.91457 12.3433 7.82515 12.2763 7.75922C12.2094 7.69329 12.1185 7.65625 12.0238 7.65625H11.3095C11.2148 7.65625 11.124 7.69329 11.057 7.75922C10.99 7.82515 10.9524 7.91457 10.9524 8.00781V14.3359C10.9524 14.4292 10.99 14.5186 11.057 14.5845C11.124 14.6505 11.2148 14.6875 11.3095 14.6875ZM16.1905 4.84375H13.7378L12.7259 3.18262C12.5989 2.97432 12.4193 2.80196 12.2045 2.68233C11.9897 2.5627 11.7471 2.49988 11.5003 2.5H8.4997C8.25301 2.49999 8.01053 2.56285 7.79586 2.68248C7.58118 2.8021 7.40164 2.97441 7.2747 3.18262L6.2622 4.84375H3.80952C3.68323 4.84375 3.5621 4.89314 3.4728 4.98104C3.3835 5.06895 3.33333 5.18818 3.33333 5.3125V5.78125C3.33333 5.90557 3.3835 6.0248 3.4728 6.11271C3.5621 6.20061 3.68323 6.25 3.80952 6.25H4.28571V16.0938C4.28571 16.4667 4.43622 16.8244 4.70413 17.0881C4.97204 17.3518 5.3354 17.5 5.71428 17.5H14.2857C14.6646 17.5 15.028 17.3518 15.2959 17.0881C15.5638 16.8244 15.7143 16.4667 15.7143 16.0938V6.25H16.1905C16.3168 6.25 16.4379 6.20061 16.5272 6.11271C16.6165 6.0248 16.6667 5.90557 16.6667 5.78125V5.3125C16.6667 5.18818 16.6165 5.06895 16.5272 4.98104C16.4379 4.89314 16.3168 4.84375 16.1905 4.84375ZM8.44761 3.9915C8.46353 3.96543 8.48605 3.94386 8.51297 3.92892C8.53988 3.91398 8.57028 3.90616 8.60119 3.90625H11.3988C11.4297 3.90622 11.46 3.91405 11.4869 3.92899C11.5137 3.94393 11.5362 3.96547 11.5521 3.9915L12.0717 4.84375H7.92827L8.44761 3.9915ZM14.2857 16.0938H5.71428V6.25H14.2857V16.0938ZM7.97619 14.6875H8.69047C8.78519 14.6875 8.87603 14.6505 8.94301 14.5845C9.00999 14.5186 9.04761 14.4292 9.04761 14.3359V8.00781C9.04761 7.91457 9.00999 7.82515 8.94301 7.75922C8.87603 7.69329 8.78519 7.65625 8.69047 7.65625H7.97619C7.88147 7.65625 7.79062 7.69329 7.72365 7.75922C7.65667 7.82515 7.61904 7.91457 7.61904 8.00781V14.3359C7.61904 14.4292 7.65667 14.5186 7.72365 14.5845C7.79062 14.6505 7.88147 14.6875 7.97619 14.6875Z" fill="currentColor"/>
</g>
</svg>
