<svg width="20" height="20" viewBox="0 0 20 20" fill="none" xmlns="http://www.w3.org/2000/svg">
<g id="Icon">
<path id="Vector" d="M7.30004 6.925C7.00837 7.04166 6.66671 7.05833 6.34171 6.975C5.30004 6.7 4.33337 6.95833 3.60004 7.31667C2.86671 7.675 2.68337 8.70833 3.28337 9.30833L10.1584 16.1833C10.7584 16.7833 11.775 16.625 12.15 15.8667C12.525 15.1083 12.775 14.1667 12.4917 13.125C12.4084 12.8083 12.4167 12.475 12.5334 12.1833M14.5584 9.99995L16.3584 8.2C16.6417 7.91667 16.6084 7.44166 16.3 7.13333L12.3334 3.16667C12.025 2.85833 11.5417 2.83333 11.2667 3.10833L9.16678 5.20831M6.72504 12.7417L4.40004 15.0667M4.99171 4.475L15.375 14.8667" stroke="currentColor" stroke-width="1.25" stroke-linecap="round" stroke-linejoin="round"/>
</g>
</svg>
