<svg width="20" height="20" viewBox="0 0 20 20" fill="none" xmlns="http://www.w3.org/2000/svg">
<path fill-rule="evenodd" clip-rule="evenodd" d="M12.1014 2.5C11.8027 2.5 11.5162 2.61878 11.305 2.8302L8.63152 5.50603C8.41158 5.72616 8.41158 6.08307 8.63152 6.3032C8.85146 6.52334 9.20805 6.52334 9.42798 6.3032L12.1014 3.62738L16.3736 7.90339L13.4588 10.8208C13.2389 11.0409 13.2389 11.3978 13.4588 11.618C13.6788 11.8381 14.0354 11.8381 14.2553 11.618L17.1701 8.70057C17.3813 8.48914 17.5 8.20239 17.5 7.90339C17.5 7.6044 17.3813 7.31764 17.1701 7.10622L12.8979 2.8302L12.5022 3.22625L12.8979 2.8302C12.6867 2.61878 12.4002 2.5 12.1014 2.5ZM7.84966 7.11928L4.63355 3.5784C4.42432 3.34804 4.06814 3.33107 3.83799 3.54048C3.60784 3.74989 3.59088 4.1064 3.8001 4.33675L6.01691 6.77742C5.15878 6.75572 4.04608 6.98184 2.9202 7.8908C2.79711 7.99003 2.69624 8.11405 2.62414 8.25482C2.552 8.39568 2.51027 8.55015 2.50167 8.7082C2.49307 8.86625 2.51778 9.02434 2.57421 9.17221C2.63065 9.32008 2.71753 9.4544 2.82921 9.56647L2.8297 9.56696L6.23629 12.9766L3.8186 15.3964C3.59866 15.6166 3.59866 15.9735 3.8186 16.1936C4.03853 16.4137 4.39512 16.4137 4.61506 16.1936L7.03275 13.7738L10.4249 17.169L10.4252 17.1692C10.539 17.2833 10.6759 17.3716 10.8266 17.4282C10.9775 17.4849 11.1388 17.5084 11.2996 17.4973C11.4604 17.4862 11.6169 17.4407 11.7586 17.3638C11.9003 17.2869 12.0238 17.1805 12.1209 17.0517L12.1213 17.0512C12.4833 16.5696 13.0273 15.7142 13.2043 14.6906L15.0638 16.7379C15.273 16.9682 15.6292 16.9852 15.8594 16.7758C16.0895 16.5664 16.1065 16.2099 15.8973 15.9795L12.9921 12.781C12.9865 12.7746 12.9809 12.7684 12.9751 12.7623L7.85445 7.12455C7.85287 7.12279 7.85127 7.12103 7.84966 7.11928ZM7.29533 8.18494C7.21719 8.18232 7.13889 8.16339 7.06564 8.1273C7.06476 8.12687 7.06241 8.12577 7.05864 8.12405C7.05037 8.12028 7.03532 8.11362 7.0139 8.10489C6.971 8.0874 6.90307 8.06182 6.81353 8.03472C6.63388 7.98034 6.3712 7.92101 6.05158 7.90665C5.42211 7.87837 4.55125 8.02234 3.62719 8.76844L3.62674 8.7688C3.62663 8.76889 3.62654 8.769 3.62648 8.76912C3.62642 8.76925 3.62638 8.76938 3.62637 8.76952C3.62637 8.76956 3.62637 8.7696 3.62637 8.76964C3.62637 8.76967 3.62638 8.7697 3.62638 8.76973C3.62639 8.7698 3.62641 8.76986 3.62644 8.76993L3.62651 8.77009C3.62655 8.77015 3.6266 8.77021 3.62665 8.77026L3.62666 8.77027L7.43062 12.5776C7.43074 12.5777 7.43086 12.5779 7.43099 12.578C7.43111 12.5781 7.43123 12.5782 7.43135 12.5784L11.2219 16.3723L11.222 16.3724C11.7249 15.703 12.351 14.5691 12.061 13.4318L7.29533 8.18494Z" fill="currentColor"/>
</svg>
