<svg width="20" height="20" viewBox="0 0 20 20" fill="none" xmlns="http://www.w3.org/2000/svg">
<path fill-rule="evenodd" clip-rule="evenodd" d="M16.875 3.75C17.2202 3.75 17.5 3.47018 17.5 3.125C17.5 2.77982 17.2202 2.5 16.875 2.5H3.125C2.77982 2.5 2.5 2.77982 2.5 3.125C2.5 3.47018 2.77982 3.75 3.125 3.75H16.875ZM13.9013 16.4828C14.1441 16.2374 14.1441 15.8396 13.9013 15.5942L10.8819 12.5428L13.9858 9.40589C14.2286 9.16053 14.2286 8.76272 13.9858 8.51735C13.743 8.27199 13.3494 8.27199 13.1066 8.51735L10.0027 11.6542L6.8987 8.51735C6.65591 8.27199 6.26228 8.27199 6.01949 8.51735C5.77671 8.76272 5.77671 9.16053 6.01949 9.40589L9.12344 12.5428L6.10398 15.5942C5.8612 15.8396 5.8612 16.2374 6.10398 16.4828C6.34677 16.7281 6.7404 16.7281 6.98319 16.4828L10.0027 13.4313L13.0221 16.4828C13.2649 16.7281 13.6585 16.7281 13.9013 16.4828Z" fill="currentColor"/>
</svg>
