<svg width="20" height="20" viewBox="0 0 20 20" fill="none" xmlns="http://www.w3.org/2000/svg">
<path fill-rule="evenodd" clip-rule="evenodd" d="M16.7854 2.66282C16.9192 2.78171 16.9955 2.95038 16.9955 3.12728V5.77273H17.6923C18.0463 5.77273 18.3333 6.05357 18.3333 6.4V9.16355V13.3454V14.2545C18.3333 16.041 16.8423 17.5 15.0167 17.5H4.98327C3.15767 17.5 1.66666 16.041 1.66666 14.2545V5.41818L1.66678 5.40567L1.66666 5.38546C1.66666 4.56637 2.29371 3.80709 3.19189 3.74565L16.2927 2.50293C16.4726 2.48586 16.6515 2.54393 16.7854 2.66282ZM17.0513 7.02727V8.53628H13.953C12.3948 8.53628 11.0684 9.72954 11.0684 11.2545C11.0684 12.7794 12.3948 13.9726 13.953 13.9726H17.0513V14.2545C17.0513 15.3481 16.1343 16.2455 15.0167 16.2455H4.98327C3.86572 16.2455 2.94871 15.3481 2.94871 14.2545V6.97556C3.08594 7.00934 3.22978 7.02727 3.37792 7.02727H16.3545H17.0513ZM13.953 9.79082H17.0513V12.7181H13.953C13.0432 12.7181 12.3504 12.0295 12.3504 11.2545C12.3504 10.4794 13.0432 9.79082 13.953 9.79082ZM15.7135 5.77273V3.8183L3.30599 4.99526C3.29871 4.99595 3.29142 4.99652 3.28412 4.99696C3.11861 5.00708 2.94871 5.16099 2.94871 5.38546C2.94871 5.58246 3.11658 5.77273 3.37792 5.77273H15.7135ZM14.7008 11.2545C14.7008 11.7164 14.3182 12.0908 13.8461 12.0908C13.3741 12.0908 12.9914 11.7164 12.9914 11.2545C12.9914 10.7925 13.3741 10.4181 13.8461 10.4181C14.3182 10.4181 14.7008 10.7925 14.7008 11.2545Z" fill="currentColor"/>
</svg>
