<svg width="20" height="20" viewBox="0 0 20 20" fill="none" xmlns="http://www.w3.org/2000/svg">
<g>
<g>
<mask id="path-1-inside-1_1068_35977" fill="currentColor">
<path d="M11.5856 8.87885L17.7902 1.66663H16.3199L10.9326 7.92899L6.62966 1.66663H1.66675L8.17355 11.1363L1.66675 18.6995H3.13716L8.82647 12.0863L13.3706 18.6995H18.3336L11.5856 8.87885ZM3.66689 2.77343H5.92522L16.3206 17.6429H14.0623L3.66689 2.77343Z"/>
</mask>
<path d="M11.5856 8.87885L10.8276 8.22669L10.3253 8.81047L10.7614 9.44516L11.5856 8.87885ZM17.7902 1.66663L18.5483 2.31879L19.9696 0.666626H17.7902V1.66663ZM16.3199 1.66663V0.666626H15.8611L15.5619 1.01447L16.3199 1.66663ZM10.9326 7.92899L10.1084 8.4953L10.8438 9.56557L11.6907 8.58115L10.9326 7.92899ZM6.62966 1.66663L7.45386 1.10032L7.15587 0.666626H6.62966V1.66663ZM1.66675 1.66663V0.666626H-0.233682L0.842559 2.23294L1.66675 1.66663ZM8.17355 11.1363L8.93162 11.7885L9.43386 11.2047L8.99774 10.57L8.17355 11.1363ZM1.66675 18.6995L0.908685 18.0474L-0.512728 19.6995H1.66675V18.6995ZM3.13716 18.6995V19.6995H3.596L3.89524 19.3517L3.13716 18.6995ZM8.82647 12.0863L9.65065 11.52L8.91526 10.4498L8.0684 11.4342L8.82647 12.0863ZM13.3706 18.6995L12.5465 19.2659L12.8444 19.6995H13.3706V18.6995ZM18.3336 18.6995V19.6995H20.234L19.1577 18.1332L18.3336 18.6995ZM3.66689 2.77343V1.77343H1.74763L2.84731 3.34641L3.66689 2.77343ZM5.92522 2.77343L6.74479 2.20046L6.44625 1.77343H5.92522V2.77343ZM16.3206 17.6429V18.6429H18.2399L17.1402 17.0699L16.3206 17.6429ZM14.0623 17.6429L13.2427 18.2159L13.5413 18.6429H14.0623V17.6429ZM12.3437 9.53101L18.5483 2.31879L17.0321 1.01446L10.8276 8.22669L12.3437 9.53101ZM17.7902 0.666626H16.3199V2.66663H17.7902V0.666626ZM15.5619 1.01447L10.1745 7.27683L11.6907 8.58115L17.078 2.31879L15.5619 1.01447ZM11.7568 7.36268L7.45386 1.10032L5.80547 2.23294L10.1084 8.4953L11.7568 7.36268ZM6.62966 0.666626H1.66675V2.66663H6.62966V0.666626ZM0.842559 2.23294L7.34936 11.7027L8.99774 10.57L2.49094 1.10031L0.842559 2.23294ZM7.41549 10.4842L0.908685 18.0474L2.42481 19.3517L8.93162 11.7885L7.41549 10.4842ZM1.66675 19.6995H3.13716V17.6995H1.66675V19.6995ZM3.89524 19.3517L9.58454 12.7385L8.0684 11.4342L2.37909 18.0474L3.89524 19.3517ZM8.00229 12.6527L12.5465 19.2659L14.1948 18.1332L9.65065 11.52L8.00229 12.6527ZM13.3706 19.6995H18.3336V17.6995H13.3706V19.6995ZM19.1577 18.1332L12.4098 8.31254L10.7614 9.44516L17.5094 19.2659L19.1577 18.1332ZM3.66689 3.77343H5.92522V1.77343H3.66689V3.77343ZM16.3206 16.6429H14.0623V18.6429H16.3206V16.6429ZM14.8819 17.0699L4.48646 2.20046L2.84731 3.34641L13.2427 18.2159L14.8819 17.0699ZM5.10565 3.34641L15.5011 18.2159L17.1402 17.0699L6.74479 2.20046L5.10565 3.34641Z" fill="currentColor" fill-opacity="0.6" mask="url(#path-1-inside-1_1068_35977)"/>
</g>
</g>
</svg>
