<svg width="40" height="40" viewBox="0 0 40 40" fill="none" xmlns="http://www.w3.org/2000/svg">
<g clip-path="url(#clip0_7348_44811)">
<path d="M13.75 23.7775C13.94 26.1625 15.825 28.02 19.205 28.24V30H20.705V28.2275C24.205 27.9825 26.25 26.1125 26.25 23.3975C26.25 20.93 24.685 19.6575 21.8875 18.9975L20.705 18.7175V13.925C22.205 14.095 23.16 14.915 23.39 16.05H26.02C25.83 13.7525 23.86 11.955 20.705 11.76V10H19.205V11.7975C16.2175 12.09 14.18 13.8875 14.18 16.43C14.18 18.68 15.695 20.11 18.2125 20.6975L19.205 20.9425V26.0275C17.6675 25.795 16.65 24.9525 16.42 23.7775H13.75V23.7775ZM19.1925 18.3625C17.7175 18.02 16.9175 17.3225 16.9175 16.2725C16.9175 15.0975 17.78 14.2175 19.205 13.96V18.36H19.1925V18.3625ZM20.9225 21.345C22.715 21.76 23.5425 22.4325 23.5425 23.62C23.5425 24.975 22.5125 25.905 20.705 26.075V21.295L20.9225 21.345V21.345Z" fill="#0D6763"/>
<path d="M20 37.5C15.3587 37.5 10.9075 35.6563 7.62563 32.3744C4.34374 29.0925 2.5 24.6413 2.5 20C2.5 15.3587 4.34374 10.9075 7.62563 7.62563C10.9075 4.34374 15.3587 2.5 20 2.5C24.6413 2.5 29.0925 4.34374 32.3744 7.62563C35.6563 10.9075 37.5 15.3587 37.5 20C37.5 24.6413 35.6563 29.0925 32.3744 32.3744C29.0925 35.6563 24.6413 37.5 20 37.5ZM20 40C25.3043 40 30.3914 37.8929 34.1421 34.1421C37.8929 30.3914 40 25.3043 40 20C40 14.6957 37.8929 9.60859 34.1421 5.85786C30.3914 2.10714 25.3043 0 20 0C14.6957 0 9.60859 2.10714 5.85786 5.85786C2.10714 9.60859 0 14.6957 0 20C0 25.3043 2.10714 30.3914 5.85786 34.1421C9.60859 37.8929 14.6957 40 20 40V40Z" fill="#0D6763"/>
<path d="M20 33.75C16.3533 33.75 12.8559 32.3013 10.2773 29.7227C7.69866 27.1441 6.25 23.6467 6.25 20C6.25 16.3533 7.69866 12.8559 10.2773 10.2773C12.8559 7.69866 16.3533 6.25 20 6.25C23.6467 6.25 27.1441 7.69866 29.7227 10.2773C32.3013 12.8559 33.75 16.3533 33.75 20C33.75 23.6467 32.3013 27.1441 29.7227 29.7227C27.1441 32.3013 23.6467 33.75 20 33.75ZM20 35C21.9698 35 23.9204 34.612 25.7403 33.8582C27.5601 33.1044 29.2137 31.9995 30.6066 30.6066C31.9995 29.2137 33.1044 27.5601 33.8582 25.7403C34.612 23.9204 35 21.9698 35 20C35 18.0302 34.612 16.0796 33.8582 14.2597C33.1044 12.4399 31.9995 10.7863 30.6066 9.3934C29.2137 8.00052 27.5601 6.89563 25.7403 6.14181C23.9204 5.38799 21.9698 5 20 5C16.0218 5 12.2064 6.58035 9.3934 9.3934C6.58035 12.2064 5 16.0218 5 20C5 23.9782 6.58035 27.7936 9.3934 30.6066C12.2064 33.4196 16.0218 35 20 35V35Z" fill="#0D6763"/>
</g>
<defs>
<clipPath id="clip0_7348_44811">
<rect width="40" height="40" fill="white"/>
</clipPath>
</defs>
</svg>
