<svg width="40" height="40" viewBox="0 0 40 40" fill="none" xmlns="http://www.w3.org/2000/svg">
<rect width="40" height="40" rx="20" fill="#C0A46B"/>
<path d="M13.3334 23.7775C13.5234 26.1625 15.4084 28.02 18.7884 28.24V30H20.2884V28.2275C23.7884 27.9825 25.8334 26.1125 25.8334 23.3975C25.8334 20.93 24.2684 19.6575 21.4709 18.9975L20.2884 18.7175V13.925C21.7884 14.095 22.7434 14.915 22.9734 16.05H25.6034C25.4134 13.7525 23.4434 11.955 20.2884 11.76V10H18.7884V11.7975C15.8009 12.09 13.7634 13.8875 13.7634 16.43C13.7634 18.68 15.2784 20.11 17.7959 20.6975L18.7884 20.9425V26.0275C17.2509 25.795 16.2334 24.9525 16.0034 23.7775H13.3334ZM18.7759 18.3625C17.3009 18.02 16.5009 17.3225 16.5009 16.2725C16.5009 15.0975 17.3634 14.2175 18.7884 13.96V18.36H18.7759V18.3625ZM20.5059 21.345C22.2984 21.76 23.1259 22.4325 23.1259 23.62C23.1259 24.975 22.0959 25.905 20.2884 26.075V21.295L20.5059 21.345Z" fill="white"/>
</svg>
