<svg width="40" height="40" viewBox="0 0 40 40" fill="none" xmlns="http://www.w3.org/2000/svg">
<rect width="40" height="40" rx="20" fill="#28646E"/>
<path fill-rule="evenodd" clip-rule="evenodd" d="M18.9778 16.4336C18.6991 16.4336 18.4761 16.211 18.473 15.9395C18.473 15.7962 18.535 15.662 18.6434 15.5674C20.0648 14.3322 20.6935 13.3105 20.805 13.1244C21.2231 12.4107 21.8889 12.0356 22.6012 12.1301C22.8768 12.1759 23.0626 12.429 23.0161 12.7005C22.9728 12.9597 22.7312 13.1427 22.4649 13.1122C22.053 13.0573 21.7774 13.4477 21.6783 13.6155C21.5575 13.829 20.8483 14.9727 19.3092 16.3086C19.2163 16.3909 19.0986 16.4336 18.9778 16.4336Z" fill="white"/>
<path fill-rule="evenodd" clip-rule="evenodd" d="M10.5048 24.8333C10.2261 24.8333 10 24.6137 10 24.3392C10 24.1928 10.065 24.0525 10.1827 23.958C10.768 23.5035 11.3874 23.0979 12.0347 22.738C12.2824 22.616 12.5859 22.7136 12.7098 22.9606C12.8336 23.2046 12.7345 23.5035 12.4837 23.6255C11.9046 23.9488 11.3502 24.3148 10.8269 24.7205C10.7371 24.7967 10.6225 24.8394 10.5048 24.8394" fill="white"/>
<path fill-rule="evenodd" clip-rule="evenodd" d="M23.1586 20.1333C23.3599 20.3163 23.5891 20.2401 23.8027 20.0388C25.2614 18.6663 26.8067 16.5222 27.3177 15.4059C27.4261 15.168 27.6491 15.0368 27.8906 15.1283C28.1725 15.2412 28.1663 15.7139 27.9123 16.2324C27.2403 17.5988 26.305 19.1024 24.4562 20.9843C24.3013 21.1276 24.2921 21.3655 24.4376 21.518L24.4655 21.5455C24.6296 21.6919 24.8929 21.6797 25.1406 21.4326C25.9272 20.664 26.6488 19.8344 27.2991 18.953C27.4416 18.7487 27.6119 18.6724 27.7822 18.706C28.0238 18.7548 28.0641 18.9835 27.9897 19.258C27.869 19.7033 26.5961 21.3503 26.0913 21.9023C24.7256 23.406 23.3568 24.2264 20.7244 25.5745C19.8047 26.0442 19.1172 26.4956 18.7022 27.1879C18.3213 27.8162 18.2098 28.0206 18.1726 28.1029C18.0178 28.411 18.1416 28.7831 18.4513 28.9416C18.535 28.9813 18.6279 29.0026 18.7177 28.9996C18.9685 28.9996 19.1946 28.8501 19.2906 28.6245C19.2906 28.6153 19.272 28.6336 19.7737 27.8101C20.1453 27.2215 20.6842 26.7518 21.3221 26.4651C23.9545 25.2786 25.0322 24.3484 26.5621 22.8417C27.2589 22.1555 28.222 20.6823 28.4852 20.2492C29.2223 19.0293 28.8352 17.9831 28.1694 17.8062C28.1229 17.794 28.0981 17.7483 28.1105 17.7056C28.1136 17.6995 28.1136 17.6934 28.1167 17.6873C28.6308 16.818 28.8631 16.2202 28.9622 15.7536C29.0922 15.1222 28.9126 14.3536 28.03 14.1706C27.9835 14.1584 27.9557 14.1158 27.9681 14.07V14.067C28.0238 13.8687 28.0764 13.6156 28.1167 13.4509C28.3025 12.6304 27.773 11.8862 27.1412 11.7551C26.7293 11.6636 26.2957 11.752 25.9551 11.9991C25.9055 12.0296 25.8405 12.0235 25.8033 11.9808C25.6361 11.7947 25.3976 11.688 25.1468 11.6788C24.5956 11.6666 24.0536 11.8344 23.6572 12.6701C23.3723 13.2648 22.9511 14.07 21.7124 15.4211C20.5603 16.6686 18.9592 17.8947 17.9713 18.5321C17.7979 18.645 17.5563 18.6175 17.5842 18.3888C17.6307 18.0319 18.0271 15.5828 18.0952 14.863C18.2036 13.6918 17.5656 13.1611 16.8502 13.0635C16.2618 12.9842 15.3668 13.152 14.8744 14.4756C14.5864 15.2503 13.9887 16.5222 13.4808 18.5748C13.1247 20.0174 13.0659 21.698 13.391 23.6317C13.4127 23.7476 13.3879 23.8665 13.326 23.9671C12.9358 24.6015 12.3598 25.4342 12.0439 26.1631C11.9107 26.4559 12.0253 26.8006 12.3071 26.9592C12.6044 27.1208 12.9791 27.0141 13.1433 26.7213C13.1495 26.7091 13.1557 26.6969 13.1619 26.6816C13.3508 26.2882 13.741 25.547 13.8958 25.239C14.0878 24.8791 14.2613 24.507 14.4099 24.1257C14.4749 23.9214 14.5121 23.6866 14.3944 23.1528C14.1931 22.25 14.125 20.5603 14.4966 19.0689C14.9023 17.5256 15.3978 16.0037 15.98 14.5153C16.1287 14.1493 16.3424 14.0395 16.556 14.0548C16.7697 14.07 17.1754 14.1737 17.0577 14.9179C16.8502 16.2538 16.556 17.9496 16.4538 18.5199C16.4043 18.8005 16.3516 19.4532 16.875 19.7551C17.2838 19.993 17.736 19.8588 18.2315 19.5325C19.3525 18.7975 21.285 17.2969 22.4959 15.9549C23.7718 14.5458 24.1744 13.7071 24.5026 12.9476C24.6513 12.603 25.0353 12.603 25.1685 12.6426C25.3047 12.6792 25.4689 12.8622 25.3543 13.2435C25.0725 14.1676 23.908 16.2904 21.669 18.279C21.4151 18.5047 21.4522 18.77 21.5792 18.9103C21.7093 19.0506 21.9415 19.1329 22.1955 18.9103C23.747 17.5805 25.0012 15.9488 25.8746 14.1158C26.048 13.7559 26.1966 13.3868 26.3174 13.0056C26.4258 12.6914 26.6736 12.5786 26.8439 12.6152C27.0854 12.667 27.2496 12.9141 27.1722 13.3197C27.0483 13.8413 26.8656 14.3475 26.624 14.8264C25.9799 16.1745 24.6172 17.9801 23.1462 19.5294C22.979 19.6819 22.9697 19.9381 23.1276 20.1028C23.1462 20.1181 23.1524 20.1242 23.1586 20.1333Z" fill="white"/>
<path fill-rule="evenodd" clip-rule="evenodd" d="M14.057 13.4144C14.1344 13.3473 14.1034 13.2589 14.0817 13.1918C13.9733 12.8502 13.3571 11.4258 13.1929 11.1391C13.1496 11.0293 13.0257 10.9714 12.9142 11.0141C12.908 11.0171 12.9049 11.0171 12.8987 11.0202C12.7532 11.0751 12.5736 11.2062 12.2948 11.4441C12.0161 11.682 11.8644 11.8406 11.7869 11.9748C11.725 12.0755 11.756 12.2097 11.8582 12.2707C11.8613 12.2737 11.8675 12.2768 11.8706 12.2768C12.1369 12.472 13.4902 13.2619 13.8216 13.4114C13.8866 13.4419 13.9733 13.4815 14.0508 13.4114L14.057 13.4144Z" fill="white"/>
<path fill-rule="evenodd" clip-rule="evenodd" d="M13.5305 14.3475C13.5119 14.2468 13.4221 14.2285 13.3509 14.2102C12.9978 14.1248 11.4401 13.9022 11.1087 13.89C10.9415 13.8839 10.8672 13.9601 10.8486 14.073C10.8207 14.2255 10.8393 14.4451 10.9043 14.8019C10.9322 15.0459 10.9973 15.2808 11.1025 15.5034C11.1583 15.6102 11.2884 15.6529 11.3968 15.598C11.4029 15.5949 11.406 15.5919 11.4122 15.5888C11.7219 15.4699 13.1093 14.7348 13.4097 14.5366C13.4686 14.5 13.546 14.4512 13.5305 14.3475Z" fill="white"/>
<path fill-rule="evenodd" clip-rule="evenodd" d="M25.2181 26.0262C25.1159 26.0323 25.0849 26.1207 25.0601 26.1878C24.9393 26.5233 24.5491 28.0239 24.4996 28.3503C24.4624 28.4631 24.5275 28.5851 24.6451 28.6217C24.6513 28.6217 24.6544 28.6248 24.6606 28.6248C24.9053 28.6705 25.153 28.6766 25.4008 28.6461C25.7631 28.6217 25.9892 28.5912 26.1316 28.5272C26.2431 28.4845 26.302 28.3625 26.2586 28.2496C26.2555 28.2435 26.2555 28.2405 26.2524 28.2344C26.1595 27.9202 25.5711 26.4837 25.4008 26.1665C25.3667 26.1024 25.3265 26.0201 25.2243 26.0262H25.2181Z" fill="white"/>
<path fill-rule="evenodd" clip-rule="evenodd" d="M26.1007 25.3306C26.0511 25.4221 26.1131 25.4923 26.1595 25.5472C26.3856 25.8278 27.485 26.9319 27.742 27.1423C27.8225 27.2308 27.9619 27.2399 28.0517 27.1606C28.0548 27.1576 28.0579 27.1545 28.0641 27.1515C28.2313 26.9715 28.3676 26.7641 28.4667 26.5415C28.637 26.2212 28.7237 26.0169 28.7423 25.8644C28.7578 25.7454 28.7144 25.6539 28.5503 25.6112C28.2313 25.5258 26.6767 25.2757 26.3144 25.2544C26.2431 25.2544 26.1471 25.2391 26.1007 25.3306Z" fill="white"/>
</svg>
