<svg xmlns="http://www.w3.org/2000/svg" width="40" height="40" viewBox="0 0 40 40"><defs><linearGradient id="a" x1="0%" x2="100%" y1="50%" y2="50%"><stop offset="0%" stop-color="#D2F0F0"/><stop offset="100%" stop-color="#F0E6B4"/></linearGradient></defs><g fill="none" fill-rule="nonzero"><path fill="url(#a)" d="M20 40c11.046 0 20-8.954 20-20S31.046 0 20 0 0 8.954 0 20s8.954 20 20 20Z"/><path fill="#28646E" d="M20 38.75C9.661 38.75 1.25 30.339 1.25 20S9.661 1.25 20 1.25 38.75 9.661 38.75 20 30.339 38.75 20 38.75Zm0-35.913c-9.464 0-17.163 7.7-17.163 17.163 0 9.462 7.7 17.163 17.163 17.163 9.462 0 17.163-7.7 17.163-17.163 0-9.463-7.7-17.163-17.162-17.163H20Z"/><path fill="#28646E" d="M18.76 16.575a.533.533 0 0 1-.353-.933c1.506-1.327 2.172-2.423 2.29-2.629.444-.771 1.155-1.17 1.902-1.069a.533.533 0 0 1-.144 1.057c-.436-.058-.727.36-.832.543-.134.232-.88 1.46-2.51 2.898a.536.536 0 0 1-.353.132v.001Zm-8.976 9.038a.534.534 0 0 1-.341-.944 14.943 14.943 0 0 1 1.962-1.31.534.534 0 0 1 .476.953c-.613.349-1.2.742-1.756 1.177a.528.528 0 0 1-.34.124Z"/><path fill="#28646E" d="M23.19 20.554c.212.198.457.112.684-.102 1.545-1.473 3.182-3.785 3.728-4.985.116-.256.352-.399.605-.298.297.121.293.632.024 1.187-.715 1.469-1.705 3.088-3.66 5.113a.408.408 0 0 0 .01.602c.172.155.451.145.713-.121 1.016-1.036 1.7-1.837 2.288-2.669.15-.218.331-.306.51-.266.257.051.297.298.219.595-.127.48-1.477 2.245-2.01 2.844-1.45 1.617-2.9 2.502-5.688 3.952-.974.51-1.702.99-2.143 1.735-.4.677-.521.899-.563.985a.678.678 0 0 0 .298.901.656.656 0 0 0 .89-.341c0-.009-.02.01.504-.875a3.806 3.806 0 0 1 1.643-1.45c2.79-1.271 3.932-2.277 5.55-3.895.74-.74 1.76-2.322 2.041-2.79.78-1.313.37-2.438-.333-2.63a.09.09 0 0 1-.056-.132c.545-.933.792-1.578.895-2.078.14-.68-.053-1.504-.986-1.705a.09.09 0 0 1-.066-.112c.059-.215.117-.486.157-.665.195-.883-.363-1.681-1.033-1.825a1.555 1.555 0 0 0-1.257.262.125.125 0 0 1-.163-.02.974.974 0 0 0-.695-.325c-.585-.01-1.16.169-1.58 1.067-.301.642-.75 1.505-2.061 2.96-1.218 1.35-2.913 2.666-3.958 3.353-.184.12-.44.091-.408-.155.048-.392.468-3.018.54-3.793.116-1.259-.56-1.837-1.32-1.94-.625-.084-1.573.096-2.092 1.518-.306.834-.939 2.203-1.476 4.41-.38 1.552-.441 3.36-.095 5.439a.525.525 0 0 1-.07.363c-.413.682-1.02 1.579-1.358 2.361a.671.671 0 0 0 .279.855.656.656 0 0 0 .909-.295c.204-.425.612-1.225.777-1.552.28-.577.468-.958.545-1.197.068-.219.11-.472-.016-1.047-.213-.969-.287-2.79.108-4.393.43-1.661.956-3.297 1.572-4.898.159-.393.384-.515.612-.495.227.02.656.13.532.93-.22 1.437-.532 3.265-.635 3.877-.05.301-.108 1.005.448 1.327.434.25.911.11 1.439-.241 1.187-.792 3.233-2.405 4.519-3.849 1.349-1.515 1.779-2.417 2.125-3.233.159-.373.565-.37.709-.328.143.042.317.236.195.646-.3.996-1.532 3.277-3.905 5.417-.268.243-.23.53-.093.68.136.15.378.24.654 0 2.133-1.82 3.35-3.992 3.897-5.154.183-.388.34-.787.468-1.194.116-.338.376-.458.558-.42.26.054.431.32.348.759a7.709 7.709 0 0 1-.581 1.62c-.683 1.451-2.127 3.394-3.684 5.06a.438.438 0 0 0-.007.65Zm-9.641-7.226c.082-.073.05-.165.026-.24-.114-.367-.768-1.9-.94-2.207-.086-.155-.196-.177-.313-.132-.154.06-.345.204-.637.457-.291.253-.456.427-.535.572-.06.11-.053.222.09.327.283.21 1.717 1.058 2.066 1.225.07.033.158.076.24 0l.003-.002Zm11.825 13.567c-.109.007-.14.102-.166.173-.131.361-.544 1.977-.594 2.326-.025.175.048.258.168.294.159.046.396.05.784.023.388-.026.622-.06.773-.128.115-.051.176-.144.127-.315-.097-.337-.721-1.884-.9-2.224-.035-.069-.08-.157-.188-.149h-.004Zm.933-.749c-.05.097.013.172.062.233.24.3 1.407 1.49 1.678 1.715.136.113.245.093.339.01.122-.112.248-.313.427-.658.178-.345.271-.563.292-.727.016-.125-.031-.225-.204-.272-.34-.093-1.985-.363-2.37-.387-.076-.005-.174-.014-.225.084v.002ZM12.983 14.327c-.019-.108-.116-.128-.19-.146-.374-.092-2.025-.325-2.377-.338-.177-.006-.252.076-.275.204-.03.162-.006.399.063.781.069.381.127.612.211.755.064.108.163.159.327.093.326-.134 1.794-.92 2.112-1.137.065-.044.15-.096.13-.204v-.008ZM20 35.718a.595.595 0 1 0 .039-1.19.595.595 0 0 0-.039 1.19Zm0-30.243a.595.595 0 1 0 0-1.19.595.595 0 0 0 0 1.19ZM23.914 35.2a.595.595 0 1 0 0-1.19.595.595 0 0 0 0 1.19ZM16.086 5.99a.595.595 0 1 0 0-1.19.595.595 0 0 0 0 1.19ZM27.561 33.69a.595.595 0 1 0 .039-1.19.595.595 0 0 0-.039 1.19ZM12.44 7.499a.595.595 0 1 0 .039-1.19.595.595 0 0 0-.039 1.19Zm18.253 23.789a.595.595 0 1 0 .04-1.19.595.595 0 0 0-.04 1.19ZM9.307 9.902a.595.595 0 1 0 .038-1.19.595.595 0 0 0-.038 1.19Zm25.3 14.606a.595.595 0 1 0 0-1.19.595.595 0 0 0 0 1.19Zm-1.511 3.648a.595.595 0 1 0 0-1.19.595.595 0 0 0 0 1.19ZM6.904 13.034a.595.595 0 1 0 0-1.19.595.595 0 0 0 0 1.19Zm-1.51 3.647a.595.595 0 1 0 0-1.19.595.595 0 0 0 0 1.19Zm29.727 3.914a.595.595 0 1 0 0-1.19.595.595 0 0 0 0 1.19Zm-30.243 0a.595.595 0 1 0 0-1.19.595.595 0 0 0 0 1.19Zm29.728-3.914a.595.595 0 1 0 0-1.19.595.595 0 0 0 0 1.19ZM5.394 24.508a.595.595 0 1 0 0-1.19.595.595 0 0 0 0 1.19Zm27.702-11.474a.595.595 0 1 0 0-1.19.595.595 0 0 0 0 1.19ZM6.904 28.156a.595.595 0 1 0 0-1.19.595.595 0 0 0 0 1.19ZM30.692 9.902a.595.595 0 1 0 .04-1.19.595.595 0 0 0-.04 1.19ZM9.307 31.288a.595.595 0 1 0 .038-1.19.595.595 0 0 0-.038 1.19ZM27.56 7.498A.595.595 0 1 0 27.6 6.31a.595.595 0 0 0-.039 1.19ZM12.44 33.692a.595.595 0 1 0 .039-1.19.595.595 0 0 0-.039 1.19ZM23.914 5.989a.595.595 0 1 0 0-1.19.595.595 0 0 0 0 1.19ZM16.086 35.2a.595.595 0 1 0 0-1.19.595.595 0 0 0 0 1.19Z"/></g></svg>
