<svg width="40" height="40" viewBox="0 0 40 40" fill="none" xmlns="http://www.w3.org/2000/svg">
<path d="M31.9362 26.7889C26.348 26.7889 14.2402 26.7889 10.5147 26.7889C5.85781 26.7889 4.99819 32.6565 11.4461 32.6565M31.9362 26.7889C30.0735 27.6271 30.6945 31.8183 31.9363 32.6565C29.7202 32.6565 23.1687 32.6565 19.7041 32.6565M31.9362 26.7889V6.83301C31.9362 6.28072 31.4908 5.83301 30.9385 5.83301C25.1096 5.83301 14.9612 5.83301 11.4461 5.83301C6.78928 5.83301 6.66704 9.18595 6.66704 12.5389C6.66704 13.8801 6.66699 23.6693 6.66699 29.8163" stroke="currentColor" stroke-width="2" stroke-linecap="round" stroke-linejoin="round"/>
<path d="M18.3311 26.833L18.3311 35.833L14.9977 33.133L11.6644 35.833L11.6644 26.833" stroke="currentColor" stroke-width="2" stroke-linecap="round" stroke-linejoin="round"/>
</svg>
