<svg xmlns="http://www.w3.org/2000/svg" viewBox="0 0 40 40">
  <path d="M20 40C8.954 40 0 31.046 0 20S8.954 0 20 0s20 8.954 20 20-8.954 20-20 20zm3.838-27.334c-.714.174-1.4.404-1.978.888-1.16.964-1.682 2.171-1.505 3.654.037.275-.023.373-.327.35-2.45-.186-4.597-1.091-6.497-2.592-.5-.395-.95-.843-1.378-1.318-.218-.253-.263-.24-.413.053-.792 1.554-.387 3.56.954 4.746.073.062.146.129.219.195-.073.12-.169.076-.25.062a4.679 4.679 0 01-.814-.217c-.15-.054-.332-.222-.464-.111-.155.128-.06.355-.027.532.3 1.625 1.245 2.717 2.841 3.268.064.022.141.022.182.124-.373.08-.741.142-1.123.08-.132-.022-.29-.075-.382.049-.086.12.01.253.068.369.664 1.336 1.755 2.108 3.26 2.335.087.013.178.022.36.044-1.796 1.314-3.742 1.807-5.897 1.643.045.182.177.213.277.262 4.274 2.433 9.688 2.037 13.467-1.07 2.505-2.065 3.855-4.764 4.169-7.951.036-.382.04-.768.059-1.15.004-.134.009-.271.127-.36.741-.537 1.323-1.22 1.9-1.909v-.066c-.545.128-1.054.368-1.609.47-.14.027-.277.084-.427.018-.005-.124.114-.155.182-.218.486-.417.9-.888 1.15-1.478.04-.098.145-.218.064-.302-.096-.098-.2.036-.291.08a9.243 9.243 0 01-1.955.706c-.146.035-.291.07-.414-.049-.623-.613-1.405-.923-2.241-1.137h-1.287z" fill="#00A1F9" fill-rule="evenodd"/>
</svg>
