<svg width="40" height="40" viewBox="0 0 40 40" fill="none" xmlns="http://www.w3.org/2000/svg">
<g clip-path="url(#clip0_7955_46335)">
<path d="M0.00177029 20.032C-0.165178 9.21406 8.7907 0 19.9521 0C31.1229 0 40.0101 9.021 39.999 20.0599C39.9879 30.9809 30.9689 40.0483 19.8752 40C8.84264 39.9517 -0.145701 30.7841 0.00177029 20.032ZM20.4205 8.70078C17.5156 8.70078 14.6107 8.70078 11.7058 8.70078C11.0714 8.70078 11.0658 8.70821 11.064 9.35608C11.0621 10.3149 11.0631 11.2737 11.064 12.2325C11.064 12.9528 11.0723 12.9621 11.7828 12.9621C13.5905 12.963 15.3982 12.9602 17.2068 12.9639C17.7586 12.9648 17.8171 13.027 17.8217 13.5802C17.8263 14.1056 17.8087 14.6319 17.8273 15.1572C17.8412 15.5471 17.7262 15.7605 17.2958 15.7921C16.4963 15.8506 15.6996 15.949 14.9019 16.0334C13.2538 16.2088 11.6316 16.5124 10.0771 17.1027C9.56052 17.2985 9.05039 17.5232 8.63395 17.9186C8.04685 18.4764 8.06818 19.0584 8.72206 19.5512C9.24702 19.9466 9.84989 20.1935 10.4611 20.4089C12.624 21.1681 14.8927 21.3519 17.1483 21.5895C17.8004 21.6582 17.8217 21.6471 17.8226 22.2949C17.8236 24.9857 17.8226 27.6765 17.8236 30.3664C17.8236 30.953 17.8458 30.9753 18.4171 30.9762C19.6841 30.979 20.9511 30.9772 22.218 30.9762C22.683 30.9762 22.9161 30.7467 22.9173 30.2875C22.9173 27.6283 22.9173 24.9681 22.9173 22.3089C22.9173 21.6489 22.9211 21.6647 23.5573 21.5802C24.8883 21.4039 26.2294 21.3111 27.5492 21.0437C28.8097 20.7885 30.0581 20.5026 31.2036 19.8937C31.6961 19.632 32.2461 19.3405 32.2451 18.7001C32.2442 18.042 31.6849 17.7292 31.1804 17.4637C29.9079 16.7927 28.5157 16.4762 27.1133 16.246C25.9122 16.0483 24.7056 15.8506 23.4803 15.8413C23.1056 15.8385 22.9183 15.6492 22.9275 15.2584C22.9396 14.7488 22.9275 14.2383 22.9303 13.7278C22.9331 13.0549 23.0055 12.9806 23.6751 12.9797C25.4522 12.9778 27.2293 12.9797 29.0063 12.9788C29.4633 12.9788 29.6924 12.7433 29.6936 12.2724C29.6945 11.2978 29.6955 10.3242 29.6936 9.34958C29.6927 8.71377 29.6816 8.70171 29.0425 8.70078C26.1682 8.69985 23.2948 8.70078 20.4205 8.70078Z" fill="#00A776"/>
<path d="M20.3483 20.3086C17.1697 20.3736 14.0766 20.2074 11.0223 19.5689C10.5372 19.4677 10.0624 19.3285 9.61347 19.1196C8.94845 18.8105 8.9364 18.6119 9.54947 18.1859C10.0475 17.8396 10.6012 17.6002 11.1661 17.3858C13.0443 16.672 15.0105 16.3629 16.9926 16.1411C17.7541 16.0557 17.8468 16.1411 17.819 16.8901C17.7912 17.6503 17.9414 18.3993 17.9136 19.1577C17.9043 19.4268 18.0305 19.5494 18.3022 19.5549C19.5831 19.5809 20.864 19.6348 22.1439 19.6375C22.8877 19.6394 22.9304 19.5605 22.9313 18.8365C22.9323 18.1255 22.9388 17.4145 22.9313 16.7026C22.9276 16.2924 23.1076 16.0882 23.5249 16.1411C25.7973 16.427 28.0502 16.7936 30.1482 17.7821C30.4542 17.926 30.7594 18.0856 31.0348 18.2815C31.4652 18.5868 31.4457 18.8198 30.9792 19.0574C30.3689 19.3674 29.7095 19.5327 29.0398 19.6598C26.1451 20.2056 23.2226 20.3829 20.3492 20.3086H20.3483Z" fill="#00A776"/>
</g>
<defs>
<clipPath id="clip0_7955_46335">
<rect width="40" height="40" rx="20" fill="white"/>
</clipPath>
</defs>
</svg>
