<svg width="40" height="40" viewBox="0 0 40 40" fill="none" xmlns="http://www.w3.org/2000/svg">
<rect width="40" height="40" rx="20" fill="#B3B3B3"/>
<g clip-path="url(#clip0_11745_46350)">
<path d="M21.6827 16.4461V14.2625H28.428V11.1113H10.4605V14.2625H17.2057V16.4461C12.468 16.6799 8.91474 17.6404 8.88867 18.7879V21.1837C8.91474 22.3349 12.468 23.2917 17.2057 23.5256V28.8855H21.6827V23.5256C26.4204 23.2917 29.9737 22.3349 29.9998 21.1837V18.7879C29.9737 17.6368 26.4204 16.6799 21.6827 16.4461ZM19.4442 21.878C14.3899 21.878 10.1625 21.0686 9.13077 19.9858C10.0061 19.0685 13.1794 18.3455 17.2057 18.1476V20.4355C17.9283 20.4715 18.677 20.4894 19.4442 20.4894C20.2115 20.4894 20.9601 20.4715 21.6827 20.4355V18.1476C25.709 18.3455 28.8824 19.0685 29.7577 19.9858C28.7222 21.0686 24.4985 21.878 19.4442 21.878Z" fill="white"/>
</g>
<defs>
<clipPath id="clip0_11745_46350">
<rect width="21.1111" height="17.7778" fill="white" transform="translate(8.88867 11.1113)"/>
</clipPath>
</defs>
</svg>
