<svg width="40" height="40" viewBox="0 0 40 40" fill="none" xmlns="http://www.w3.org/2000/svg">
<rect width="40" height="40" rx="20" fill="#00A776"/>
<g clip-path="url(#clip0_11483_49409)">
<path d="M21.683 16.4461V14.2625H28.4282V11.1113H10.4607V14.2625H17.206V16.4461C12.4683 16.6799 8.91499 17.6404 8.88892 18.7879V21.1837C8.91499 22.3349 12.4683 23.2917 17.206 23.5256V28.8855H21.683V23.5256C26.4207 23.2917 29.974 22.3349 30 21.1837V18.7879C29.974 17.6368 26.4207 16.6799 21.683 16.4461ZM19.4445 21.878C14.3902 21.878 10.1627 21.0686 9.13102 19.9858C10.0063 19.0685 13.1797 18.3455 17.206 18.1476V20.4355C17.9286 20.4715 18.6772 20.4894 19.4445 20.4894C20.2117 20.4894 20.9604 20.4715 21.683 20.4355V18.1476C25.7093 18.3455 28.8826 19.0685 29.7579 19.9858C28.7225 21.0686 24.4988 21.878 19.4445 21.878Z" fill="white"/>
</g>
<defs>
<clipPath id="clip0_11483_49409">
<rect width="21.1111" height="17.7778" fill="white" transform="translate(8.88892 11.1113)"/>
</clipPath>
</defs>
</svg>
