<svg width="12" height="12" fill="none" viewBox="0 0 12 12"  xmlns="http://www.w3.org/2000/svg">
<path fill-rule="evenodd" clip-rule="evenodd" d="M10.385 1.45825C10.996 2.06925 10.996 3.05987 10.385 3.67087L4.37171 9.68414L1.01703 10.8976L1 10.8772L2.15909 7.47151L8.17235 1.45825C8.78335 0.84725 9.77398 0.84725 10.385 1.45825Z" stroke="currentColor"/>
<path fill-rule="evenodd" clip-rule="evenodd" d="M7.70089 11.1198C8.15405 11.1198 8.52141 10.7524 8.52141 10.2993C8.52141 9.84612 8.15405 9.47876 7.70089 9.47876C7.24773 9.47876 6.88037 9.84612 6.88037 10.2993C6.88037 10.7524 7.24773 11.1198 7.70089 11.1198Z" fill="currentColor"/>
<path fill-rule="evenodd" clip-rule="evenodd" d="M10.8462 11.1198C11.2993 11.1198 11.6667 10.7524 11.6667 10.2993C11.6667 9.84612 11.2993 9.47876 10.8462 9.47876C10.393 9.47876 10.0256 9.84612 10.0256 10.2993C10.0256 10.7524 10.393 11.1198 10.8462 11.1198Z" fill="currentColor"/>
</svg>
