<svg width="12" height="12" fill="none" viewBox="0 0 12 12"  xmlns="http://www.w3.org/2000/svg">
<line x1="1.35355" y1="1.64645" x2="9.83884" y2="10.1317" stroke="currentColor"/>
<path fill-rule="evenodd" clip-rule="evenodd" d="M9.6846 2.31383C9.26287 1.89539 8.57751 1.89539 8.15578 2.31383L5.72821 4.72247L5.01832 4.01811L7.45145 1.60396C8.26306 0.798681 9.57732 0.798681 10.3889 1.60396C11.2027 2.41139 11.2027 3.72213 10.3889 4.52956L7.9535 6.946L7.2436 6.24164L9.6846 3.81969C10.1042 3.40341 10.1042 2.73011 9.6846 2.31383ZM6.53373 6.94598L7.24363 7.65033L4.31988 10.5513L4.24109 10.6294L4.13662 10.6669L0.750816 11.8821L0.423238 11.9997L0.199238 11.7333L0.182048 11.7129L0 11.4964L0.0917743 11.2288L1.26161 7.81837L1.2995 7.70792L1.3824 7.62567L2.80452 6.21464L3.51441 6.919L2.16963 8.25329L1.36492 10.5993L3.69434 9.76322L5.0298 8.43817L5.70993 9.113L6.4198 8.40867L5.73967 7.73384L6.53373 6.94598ZM4.22428 6.21466L5.01834 5.4268L4.30845 4.72244L3.51439 5.51031L4.22428 6.21466Z" fill="currentColor"/>
</svg>
