<svg width="12" height="12" viewBox="0 0 12 12" fill="none" xmlns="http://www.w3.org/2000/svg">
<path d="M6.90003 2.3077C6.90003 3.26524 6.14707 4.0154 5.25002 4.0154C4.35296 4.0154 3.6 3.26524 3.6 2.3077C3.6 1.35015 4.35296 0.6 5.25002 0.6C6.14707 0.6 6.90003 1.35015 6.90003 2.3077Z" stroke="white" stroke-width="1.2"/>
<path d="M9.90009 9.69234C9.90009 10.6499 9.14713 11.4 8.25008 11.4C7.35303 11.4 6.60006 10.6499 6.60006 9.69234C6.60006 8.7348 7.35303 7.98464 8.25008 7.98464C9.14713 7.98464 9.90009 8.7348 9.90009 9.69234Z" stroke="white" stroke-width="1.2"/>
<line y1="9.93149" x2="4.44448" y2="9.93149" stroke="white" stroke-width="1.2"/>
<line x1="7.11114" y1="1.63779" x2="12.0001" y2="1.63779" stroke="white" stroke-width="1.2"/>
<line x1="3.35623e-08" y1="1.63779" x2="1.77779" y2="1.63779" stroke="white" stroke-width="1.2"/>
<line x1="10.2221" y1="9.93149" x2="11.9999" y2="9.93149" stroke="white" stroke-width="1.2"/>
</svg>
