<svg width="12" height="13" viewBox="0 0 12 13" fill="none" xmlns="http://www.w3.org/2000/svg">
<path d="M10.9399 7.32867C12.518 5.44643 12.2726 2.64036 10.3918 1.06146C8.51067 -0.517848 5.70681 -0.27225 4.12915 1.60999C2.88304 3.09658 2.77456 5.15895 3.70985 6.73826L0.0214844 11.1379L0.330271 12.9786L2.19518 12.9632L2.18827 12.9713L4.02758 12.6623L4.01214 10.7959L5.85145 10.4869L5.83601 8.6205L5.86039 8.59122C7.59975 9.29914 9.66821 8.84576 10.9399 7.32867ZM6.26669 5.98154C5.42931 5.2785 5.32001 4.02896 6.0225 3.19092C6.72499 2.35288 7.97354 2.2435 8.81092 2.94654C9.6483 3.64959 9.75759 4.89912 9.05511 5.73717C8.35262 6.57521 7.10406 6.68459 6.26669 5.98154Z" fill="#C0A46B"/>
</svg>
