<svg width="12" height="12" viewBox="0 0 12 12" fill="none" xmlns="http://www.w3.org/2000/svg">
<path d="M1.5 4.34214C2.50186 3.06792 3.51555 1.5 6.00006 1.5C6.89009 1.5 7.76013 1.76392 8.50016 2.2584C9.24019 2.75287 9.81698 3.45568 10.1576 4.27796C10.4982 5.10024 10.5873 6.00505 10.4137 6.87798C10.24 7.75091 9.81143 8.55274 9.18208 9.18208C8.55274 9.81143 7.75091 10.24 6.87798 10.4137C6.00505 10.5873 5.10024 10.4982 4.27796 10.1576C3.45568 9.81698 2.75287 9.24019 2.2584 8.50016C1.76392 7.76013 1.5 6.89009 1.5 6.00006" stroke="currentColor" stroke-miterlimit="10" stroke-linecap="round" stroke-linejoin="round"/>
<path d="M1.5 1.97363V4.34209H3.86845" stroke="currentColor" stroke-miterlimit="10" stroke-linecap="round" stroke-linejoin="round"/>
</svg>
