<svg width="8" height="8" viewBox="0 0 8 8" fill="none" xmlns="http://www.w3.org/2000/svg">
<path d="M2.46967 5.96967C2.17678 6.26256 2.17678 6.73744 2.46967 7.03033C2.76256 7.32322 3.23744 7.32322 3.53033 7.03033L2.46967 5.96967ZM5.5 4L6.03033 4.53033C6.32322 4.23744 6.32322 3.76256 6.03033 3.46967L5.5 4ZM3.53033 0.96967C3.23744 0.676777 2.76256 0.676777 2.46967 0.96967C2.17678 1.26256 2.17678 1.73744 2.46967 2.03033L3.53033 0.96967ZM3.53033 7.03033L6.03033 4.53033L4.96967 3.46967L2.46967 5.96967L3.53033 7.03033ZM6.03033 3.46967L3.53033 0.96967L2.46967 2.03033L4.96967 4.53033L6.03033 3.46967Z" fill="currentColor"/>
</svg>
