<svg width="8" height="8" viewBox="0 0 8 8" fill="none" xmlns="http://www.w3.org/2000/svg">
<path d="M2.03033 2.21967C1.73744 1.92678 1.26256 1.92678 0.96967 2.21967C0.676777 2.51256 0.676777 2.98744 0.96967 3.28033L2.03033 2.21967ZM4 5.25L3.46967 5.78033C3.61032 5.92098 3.80109 6 4 6C4.19891 6 4.38968 5.92098 4.53033 5.78033L4 5.25ZM7.03033 3.28033C7.32322 2.98744 7.32322 2.51256 7.03033 2.21967C6.73744 1.92678 6.26256 1.92678 5.96967 2.21967L7.03033 3.28033ZM0.96967 3.28033L3.46967 5.78033L4.53033 4.71967L2.03033 2.21967L0.96967 3.28033ZM4.53033 5.78033L7.03033 3.28033L5.96967 2.21967L3.46967 4.71967L4.53033 5.78033Z" fill="currentColor"/>
</svg>
