<svg width="375" height="345" viewBox="0 0 375 345" fill="none" xmlns="http://www.w3.org/2000/svg">
<g clip-path="url(#clip0)">
<path d="M0.0200195 77.1962C0.0200195 77.1962 11.4888 35.3974 67.3369 65.3107C123.185 95.224 169.06 118.158 200.973 88.2442C232.887 58.3309 275.281 85.9209 294.479 99.5415C313.677 113.162 375 137.721 375 137.721V344.501H0.518663L0.0200195 77.1962Z" fill="#7FC6C4"/>
<path d="M338.679 145.698C338.679 145.698 336.784 143.923 339.397 142.158L310.884 136.375L310.126 140.104L338.679 145.698Z" fill="#EFE6D8"/>
<path d="M312.311 140.343L339.307 145.817C339.866 145.927 340.225 146.475 340.105 147.024C339.995 147.582 339.447 147.941 338.898 147.822L311.922 142.347L310.386 142.038L310.336 142.028V142.008V142.028L310.246 142.008C309.239 141.749 308.611 140.752 308.82 139.735L309.578 135.996C309.787 134.939 310.825 134.261 311.872 134.47V134.49L311.882 134.47L311.932 134.48L313.467 134.789L340.444 140.263C341.002 140.373 341.362 140.922 341.242 141.47C341.132 142.028 340.584 142.387 340.035 142.268L313.039 136.793C312.839 136.754 311.453 136.534 311.184 137.89L311.034 138.608C310.745 139.964 312.111 140.303 312.311 140.343Z" fill="#F2C679"/>
<path d="M331.558 166.099C331.558 166.099 329.663 164.324 332.276 162.559L303.764 156.776L303.006 160.505L331.558 166.099Z" fill="#EDEDED"/>
<path d="M305.19 160.754L332.186 166.228C332.745 166.338 333.104 166.886 332.984 167.435C332.875 167.993 332.326 168.352 331.778 168.232L304.801 162.758L303.265 162.449L303.215 162.439V162.419V162.439L303.126 162.419C302.118 162.16 301.49 161.163 301.699 160.146L302.457 156.407C302.667 155.35 303.704 154.672 304.751 154.881V154.901L304.761 154.881L304.811 154.891L306.347 155.2L333.323 160.674C333.882 160.784 334.241 161.332 334.121 161.881C334.012 162.439 333.463 162.798 332.915 162.678L305.918 157.204C305.718 157.164 304.332 156.945 304.063 158.301L303.913 159.019C303.624 160.375 304.99 160.704 305.19 160.754Z" fill="#B3E7F2"/>
<path d="M306.048 147.024C306.048 147.024 308.491 146.126 306.766 143.484L335.278 149.267L334.52 152.997L306.048 147.024Z" fill="#E8E6E3"/>
<path d="M332.426 152.368L305.429 146.894C304.871 146.785 304.332 147.143 304.222 147.692C304.113 148.25 304.472 148.789 305.02 148.898L331.997 154.373L333.533 154.682L333.583 154.692L333.593 154.672V154.692L333.692 154.702C334.72 154.861 335.687 154.183 335.896 153.166L336.654 149.427C336.864 148.37 336.186 147.343 335.128 147.134V147.153V147.134L335.079 147.124L333.543 146.814L306.566 141.34C306.008 141.231 305.469 141.59 305.359 142.138C305.25 142.696 305.609 143.235 306.157 143.344L333.154 148.819C333.343 148.859 334.71 149.198 334.44 150.554L334.291 151.272C334.002 152.628 332.615 152.408 332.426 152.368Z" fill="#8EC8DD"/>
<path d="M339.168 155.908L307.932 149.566C307.334 149.447 306.756 149.826 306.636 150.424L305.908 153.994C305.788 154.592 306.167 155.17 306.766 155.29L338.001 161.631C338.599 161.751 339.177 161.372 339.297 160.774L340.025 157.204C340.155 156.606 339.766 156.028 339.168 155.908Z" fill="#E8AFA6"/>
<path d="M345.441 117.789C345.441 117.789 343.546 116.014 346.159 114.249L317.646 108.466L316.888 112.195L345.441 117.789Z" fill="#EFE6D8"/>
<path d="M319.072 112.444L346.069 117.918C346.627 118.028 346.986 118.576 346.867 119.125C346.757 119.683 346.208 120.042 345.66 119.922L318.683 114.448L317.147 114.139L317.098 114.129V114.109V114.129L317.008 114.109C316.001 113.85 315.372 112.853 315.582 111.836L316.34 108.097C316.549 107.04 317.586 106.362 318.633 106.571V106.591L318.643 106.571L318.693 106.581L320.229 106.89L347.206 112.364C347.764 112.474 348.123 113.022 348.004 113.571C347.894 114.129 347.345 114.488 346.797 114.368L319.8 108.894C319.601 108.854 318.215 108.635 317.945 109.991L317.796 110.709C317.516 112.065 318.873 112.404 319.072 112.444Z" fill="#F2C679"/>
<path d="M338.32 138.199C338.32 138.199 336.425 136.425 339.038 134.66L310.525 128.876L309.767 132.606L338.32 138.199Z" fill="#EDEDED"/>
<path d="M311.951 132.845L338.948 138.319C339.507 138.429 339.866 138.977 339.746 139.526C339.636 140.084 339.088 140.443 338.539 140.323L311.563 134.849L310.027 134.54L309.977 134.53V134.51V134.53L309.887 134.51C308.88 134.251 308.252 133.254 308.461 132.237L309.219 128.498C309.428 127.441 310.466 126.763 311.513 126.972V126.992L311.523 126.972L311.573 126.982L313.108 127.291L340.085 132.765C340.644 132.875 341.003 133.423 340.883 133.972C340.773 134.53 340.225 134.889 339.676 134.769L312.68 129.295C312.48 129.255 311.094 129.036 310.825 130.392L310.675 131.11C310.386 132.466 311.752 132.805 311.951 132.845Z" fill="#B3E7F2"/>
<path d="M312.809 119.115C312.809 119.115 315.252 118.217 313.527 115.575L342.04 121.358L341.282 125.087L312.809 119.115Z" fill="#E8E6E3"/>
<path d="M339.187 124.469L312.191 118.995C311.632 118.885 311.094 119.244 310.984 119.793C310.874 120.351 311.233 120.89 311.782 120.999L338.759 126.473L340.294 126.783L340.344 126.792L340.354 126.773V126.792L340.454 126.802C341.481 126.962 342.449 126.284 342.658 125.267L343.416 121.528C343.625 120.471 342.947 119.444 341.89 119.234V119.254V119.234L341.84 119.224L340.304 118.915L313.328 113.441C312.769 113.331 312.231 113.69 312.121 114.239C312.011 114.797 312.37 115.336 312.919 115.445L339.915 120.919C340.105 120.959 341.471 121.298 341.202 122.654L341.052 123.372C340.763 124.728 339.377 124.509 339.187 124.469Z" fill="#8EC8DD"/>
<path d="M345.929 128.009L314.694 121.667C314.096 121.548 313.517 121.927 313.398 122.525L312.67 126.094C312.55 126.693 312.929 127.271 313.527 127.391L344.762 133.732C345.361 133.852 345.939 133.473 346.059 132.875L346.787 129.305C346.916 128.707 346.527 128.129 345.929 128.009Z" fill="#E8AFA6"/>
<path d="M299.306 152.448C299.306 152.448 298.189 162.559 306.576 166.826L289.263 166.368L290.191 151.252L299.306 152.448Z" fill="#F4DBCB"/>
<path d="M299.306 152.448L290.191 151.252L289.483 162.838C292.704 161.871 297.262 160.226 300.124 159.159C298.957 155.619 299.306 152.448 299.306 152.448Z" fill="#EAC9B7"/>
<path d="M252.553 53.455C252.553 53.455 267.662 57.4335 281.036 69.9672C299.585 87.3568 299.944 148.38 299.306 152.438C298.668 156.496 290.719 157.194 288.555 155.39C286.391 153.575 283.27 140.842 276.588 110.4C269.896 79.9582 252.553 53.455 252.553 53.455Z" fill="#7C76B2"/>
<path d="M234.901 160.106C234.901 160.106 212.323 131.06 214.257 118.885C216.192 106.701 223.702 101.037 244.535 110.221C265.368 119.404 282.851 137.99 282.851 137.99L234.901 160.106Z" fill="#3A3944"/>
<path d="M231.73 128.188L291.078 127.151C291.078 127.151 301.839 148.809 293.233 162.998C283.619 178.862 232.208 169.389 220.79 161.871L202.21 163.995C202.21 163.995 181.826 125.746 196.934 115.415C212.043 105.085 231.73 128.188 231.73 128.188Z" fill="#4B4956"/>
<path d="M224.918 161.731C224.918 161.731 208.852 148.39 206.807 136.554L211.325 165.181L224.918 161.731Z" fill="#3A3944"/>
<path d="M217.977 19.4636C217.977 19.4636 216.142 31.8178 221.109 39.5553C226.075 47.2929 226.763 49.1575 232.378 47.1035L232.418 58.7696C232.418 58.7696 247.307 64.8022 252.134 50.374C252.134 50.374 249.242 20.7199 236.437 14.7971C223.632 8.87427 217.977 19.4636 217.977 19.4636Z" fill="#F4DBCB"/>
<path d="M219.553 32.4659C219.553 32.4659 228.609 39.7647 232.109 40.6023C235.61 41.4399 233.236 46.565 232.648 47.8413C232.059 49.1176 232.249 55.4293 232.249 55.4293C232.249 55.4293 233.755 58.0617 237.026 56.8652C239.748 55.868 240.935 54.163 243.578 54.4621C250.23 55.21 252.075 51.7998 252.593 50.0848C253.182 48.1504 249.462 46.3357 246.34 41.7589C242.301 35.8162 217.838 27.7994 217.838 27.7994L219.553 32.4659Z" fill="#EAC9B7"/>
<path d="M219.304 34.6894C219.304 34.6894 217.867 39.4656 219.154 40.0539C220.43 40.6422 222.305 39.9542 222.305 39.9542L219.304 34.6894Z" fill="#F4DBCB"/>
<path d="M232.159 140.333C226.424 137.701 229.596 122.545 228.718 112.614C227.84 102.682 215.324 68.8504 236.826 56.8452C264.501 41.4 273.506 54.0234 286.082 70.5256C299.665 88.3539 301.819 124.19 297.551 132.576C293.282 140.961 289.523 143.873 281.624 144.99C262.835 147.642 246.769 147.054 232.159 140.333Z" fill="#8D84C1"/>
<path d="M239.718 55.4193C239.718 55.4193 227.81 56.6358 220.002 70.3361C212.193 84.0364 209.74 90.2584 209.74 90.2584C209.74 90.2584 198.61 68.1724 190.661 66.916C186.602 66.2679 181.716 67.7037 181.985 70.6851C182.474 76.2988 197.662 112.344 211.485 110.131C225.307 107.917 242.869 91.3552 243.338 85.3127C243.807 79.2503 239.718 55.4193 239.718 55.4193Z" fill="#8D84C1"/>
<path d="M226.973 103.251C226.973 103.251 236.457 98.0358 239.898 91.6643C239.898 91.6643 234.153 106.122 235.031 116.054C235.908 125.985 237.504 142.497 237.504 142.497C237.504 142.497 228.858 142.138 228.778 132.885C228.698 123.632 228.718 112.604 226.973 103.251Z" fill="#7C76B2"/>
<path d="M227.86 60.9433C227.86 60.9433 239.818 56.576 244.874 57.1344C249.93 57.6928 255.625 54.1829 256.532 53.1061C257.44 52.0292 263.164 53.2756 264.64 50.7628C264.64 50.7728 247.108 44.5409 227.86 60.9433Z" fill="#7C76B2"/>
<path d="M202.559 78.1335L209.48 87.277L220.002 70.3361C220.002 70.3361 211.465 87.0975 210.089 94.2269C210.089 94.2269 205.8 82.112 202.559 78.1335Z" fill="#7C76B2"/>
<path d="M217.887 19.2741C217.887 19.2741 214.586 24.7383 216.302 29.4147C218.017 34.0912 218.875 34.5 218.875 34.5C218.875 34.5 216.73 30.5215 218.047 28.3478C218.047 28.3478 216.93 31.2195 222.724 33.9217C228.508 36.6238 235.16 37.3617 235.35 43.6734C235.539 49.9751 228.389 50.4039 232.408 54.2826C236.427 58.1614 237.863 53.3852 243.228 53.5348C248.594 53.6844 250.06 53.6046 252.034 49.4566C254.009 45.3087 259.734 46.4055 262.536 45.3685C265.348 44.3415 266.685 36.4045 261.559 34.0413C256.432 31.6782 254.717 26.9917 251.715 21.727C248.713 16.4523 240.935 9.75172 231.48 10.0409C224.44 10.2403 219.912 13.2117 217.887 19.2741Z" fill="#383027"/>
<path d="M219.184 12.6234C218.835 12.9325 218.506 13.2516 218.197 13.5707L234.103 13.1319L219.184 12.6234Z" fill="#3D3C47"/>
<path d="M246.22 26.9917C245.961 24.0104 240.466 18.4864 238.132 14.6874C235.799 10.8884 236.836 13.5308 236.836 13.5308C236.836 13.5308 244.236 27.1612 243.418 29.2352C242.6 31.3092 238.621 31.6582 232.488 30.1925C226.354 28.7267 225.187 26.8322 227.99 24.5787C230.792 22.3253 235.968 12.8627 235.968 12.8627C235.968 12.8627 235.958 12.753 235.918 12.6832C235.829 12.7032 235.739 12.7231 235.659 12.743C235.529 12.9026 235.33 13.2516 235.061 13.9396C234.243 16.0136 223.283 27.9888 220.041 25.2667C217.847 23.4221 216.78 18.7257 216.312 15.8939C215.833 16.6517 215.494 17.3896 215.324 18.0676C214.337 22.1857 220.141 31.1696 230.284 32.755C240.426 34.3404 246.729 34.151 250.379 29.6241C253.83 25.3465 255.156 25.6357 254.129 22.5147C253.55 22.9933 252.762 23.5517 251.995 24.4691C250.189 26.6428 246.48 29.9731 246.22 26.9917Z" fill="#3D3C47"/>
<path d="M224.928 9.05374C224.39 9.26313 223.861 9.49247 223.353 9.76169C226.993 10.7189 234.881 11.9753 234.881 11.9753C234.881 11.9753 228.01 10.33 224.928 9.05374Z" fill="#3D3C47"/>
<path d="M234.971 12.9624C234.971 12.9624 235.2 12.8627 235.659 12.753C235.799 12.5935 235.868 12.6234 235.918 12.6932C237.215 12.424 239.868 12.1747 244.006 13.1618C246.31 13.7103 248.225 14.5777 249.771 15.5449C248.993 14.6775 248.145 13.8199 247.227 12.9724C239.07 10.001 234.971 12.9624 234.971 12.9624Z" fill="#3D3C47"/>
<path d="M235.878 11.8855C235.878 11.8855 235.699 9.90129 235.619 8.90418C235.579 8.46545 235.928 7.99681 236.337 7.60794C235.709 7.55808 235.081 7.52817 234.432 7.52817C234.472 7.67773 234.522 7.81733 234.532 7.99681C234.712 9.98106 235.878 11.8855 235.878 11.8855Z" fill="#3D3C47"/>
<path d="M235.659 12.7534C235.739 12.7334 235.819 12.7134 235.919 12.6934C235.869 12.6234 235.799 12.5934 235.659 12.7534Z" fill="#4B4956"/>
<path d="M235.061 13.9595C235.33 13.2615 235.529 12.9225 235.659 12.763C235.2 12.8727 234.971 12.9724 234.971 12.9724C234.971 12.9724 239.07 10.011 247.228 12.9923C246.35 12.1747 245.423 11.367 244.445 10.5793C242.112 8.70476 239.319 7.84724 236.337 7.60794C235.938 7.99681 235.579 8.46545 235.619 8.90418C235.709 9.90129 235.878 11.8855 235.878 11.8855C235.878 11.8855 234.712 9.99103 234.532 7.99681C234.512 7.81733 234.472 7.67773 234.432 7.52817C232.198 7.52817 229.905 7.8273 227.651 8.24609C226.723 8.42557 225.816 8.70476 224.928 9.05375C228.01 10.33 234.881 11.9653 234.881 11.9653C234.881 11.9653 226.993 10.7189 223.353 9.75172C221.807 10.5394 220.391 11.5365 219.184 12.6234L234.103 13.1319L218.197 13.5707C217.449 14.3484 216.81 15.1361 216.322 15.9139C216.78 18.7556 217.847 23.442 220.052 25.2867C223.283 28.0088 234.243 16.0335 235.061 13.9595Z" fill="#4B4956"/>
<path d="M249.761 15.5549C248.215 14.5877 246.3 13.7202 243.996 13.1718C239.868 12.1847 237.205 12.4339 235.908 12.7032C235.948 12.773 235.958 12.8826 235.958 12.8826C235.958 12.8826 230.782 22.3452 227.98 24.5987C225.177 26.8521 226.344 28.7467 232.478 30.2124C238.611 31.6782 242.59 31.3292 243.408 29.2552C244.226 27.1812 236.826 13.5507 236.826 13.5507C236.826 13.5507 235.789 10.9084 238.122 14.7073C240.456 18.5063 245.951 24.0303 246.21 27.0117C246.47 29.993 250.179 26.6627 251.994 24.499C252.762 23.5916 253.55 23.0332 254.129 22.5446C254.069 22.3652 254.009 22.1857 253.929 21.9763C253.171 19.8724 251.695 17.6987 249.761 15.5549Z" fill="#4B4956"/>
<path d="M234.592 12.9425C237.185 13.0721 237.863 11.7061 236.786 10.7987C235.709 9.89132 233.714 10.0708 233.804 11.0579C233.894 12.0551 234.213 12.9225 234.592 12.9425Z" fill="#6E6D7A"/>
<path d="M230.104 138.169C230.104 138.169 238.352 153.804 266.256 152.348C294.16 150.893 296.334 145.428 296.334 145.428C296.334 145.428 295.945 140.991 294.808 137.452C294.808 137.462 259.783 155.24 230.104 138.169Z" fill="#3A3944"/>
<path d="M172.551 40.8815C170.666 38.9571 165.869 37.2022 163.216 36.3746C162.309 36.0954 161.351 36.5939 161.052 37.4913L155.198 55.0604C154.899 55.9678 155.377 56.9549 156.285 57.254C159.995 58.4605 164.104 61.4718 166.517 63.4162C168.571 63.815 168.571 63.815 170.606 64.154C173.737 63.0572 178.724 62.8478 181.137 62.8179C181.955 62.8079 182.653 62.2196 182.813 61.422L187.081 40.1038C187.31 38.9371 186.333 37.8902 185.156 38.0298C180.838 38.5283 176.829 40.2433 174.854 41.2105C173.548 40.8815 174.186 40.8516 172.551 40.8815Z" fill="#E58957"/>
<path d="M173.398 44.6506C172.531 42.2675 163.017 39.8844 163.017 39.8844L156.963 56.5461C162.159 57.3438 169.11 63.2068 169.11 63.2068C169.13 63.1868 169.15 63.1769 169.17 63.1669L169.07 62.8977L173.398 44.6506Z" fill="#EAEAEA"/>
<path d="M173.398 44.6506L169.07 62.8977L169.17 63.1669C171.882 61.1428 181.187 61.3123 181.187 61.3123L185.515 41.4698C179.452 41.4698 173.398 44.6506 173.398 44.6506Z" fill="#F4EEEA"/>
<path d="M173.398 43.6535C172.531 41.2704 163.017 38.8873 163.017 38.8873L156.963 55.549C162.159 56.3467 169.11 62.2097 169.11 62.2097C169.13 62.1897 169.15 62.1797 169.17 62.1698C171.882 60.1456 181.187 60.3152 181.187 60.3152L185.515 40.4727C179.452 40.4727 173.398 43.6535 173.398 43.6535Z" fill="#FCFCFC"/>
<path d="M173.398 42.6563C172.531 40.2732 163.017 37.8902 163.017 37.8902L156.963 54.5519C162.159 55.3495 169.11 61.2125 169.11 61.2125C169.13 61.1926 169.15 61.1826 169.17 61.1727L169.07 60.9034L173.398 42.6563Z" fill="#EAEAEA"/>
<path d="M173.398 42.6563L169.07 60.9035L169.17 61.1727C171.882 59.1485 181.187 59.3181 181.187 59.3181L185.515 39.4756C179.452 39.4756 173.398 42.6563 173.398 42.6563Z" fill="#EFEFEF"/>
<path d="M173.398 42.6563L169.07 60.9035L169.17 61.1727C171.882 59.1485 176.201 55.3296 176.201 55.3296L180.529 35.4871C174.465 35.4871 173.398 42.6563 173.398 42.6563Z" fill="#FCFCFC"/>
<path d="M181.237 65.8092C181.237 65.8092 180.429 62.5786 178.814 60.1556C177.198 57.7326 176.39 53.6943 177.198 52.8867C178.006 52.079 179.921 54.5818 180.429 56.1173C181.237 58.5403 183.66 56.925 183.66 56.925L185.276 48.8484C185.276 48.8484 188.507 52.8867 188.507 56.1173C188.507 59.3479 187.699 65.7992 187.699 65.7992H181.237V65.8092Z" fill="#F4DBCB"/>
<path d="M152.884 62.5886C152.884 62.5886 154.988 60.5146 157.332 59.4277C159.676 58.3409 162.159 55.6487 161.92 54.6715C161.68 53.6943 159.077 54.7014 157.98 55.6287C156.245 57.0945 155.158 54.7513 155.158 54.7513L157.671 47.8812C157.671 47.8812 153.353 49.4467 151.867 51.8995C150.371 54.3425 147.997 59.6172 147.997 59.6172L152.884 62.5886Z" fill="#F4DBCB"/>
<path d="M180.529 63.6056C180.529 63.6056 182.524 63.815 184.518 63.815C186.513 63.815 187.859 64.4133 187.859 64.4133L187.51 66.8063H181.526L180.529 63.6056Z" fill="#EAC9B7"/>
<path d="M153.273 50.3241C153.273 50.3241 152.595 51.8497 152.595 52.8468C152.595 53.8439 158.648 58.5104 158.648 58.5104L150.63 53.8639C150.64 53.8738 151.957 50.7928 153.273 50.3241Z" fill="#EAC9B7"/>
<path d="M149.613 15.9538C149.613 15.9538 155.597 26.922 153.602 35.8959C151.608 44.8699 151.608 46.8642 145.624 46.8642L149.613 57.8324C149.613 57.8324 137.715 68.6311 128.211 56.7555C128.211 56.7555 120.692 27.9191 130.665 17.948C140.637 7.97687 149.613 15.9538 149.613 15.9538Z" fill="#F4DBCB"/>
<path d="M151.937 31.7579C151.937 31.7579 150.61 39.8844 147.618 41.8786C144.627 43.8728 141.635 46.8642 142.632 47.8613C143.629 48.8584 147.19 51.1318 147.19 51.1318C147.19 51.1318 140.039 48.4296 137.845 48.1504C135.651 47.8613 151.877 29.1355 151.877 29.1355L151.937 31.7579Z" fill="#EAC9B7"/>
<path d="M75.8139 119.653C75.8139 119.653 66.8383 138.598 77.8084 155.549C88.7786 172.5 137.646 172.5 155.597 160.535C173.548 148.569 201.472 144.581 201.472 129.624C201.472 114.668 195.488 108.685 182.524 110.679C169.559 112.673 75.8139 119.653 75.8139 119.653Z" fill="#293C63"/>
<path d="M144.627 141.59C156.305 137.701 172.71 129.056 170.736 111.975C141.844 114.737 75.8138 119.653 75.8138 119.653C75.8138 119.653 70.7775 130.282 72.8619 142.746C80.6208 142.726 90.7133 142.327 94.7623 140.592C101.743 137.601 132.659 145.578 144.627 141.59Z" fill="#1D2E4C"/>
<path d="M157.591 127.63C162.997 124.389 169.559 117.659 164.572 104.697C159.586 91.7341 175.543 69.7977 153.602 54.841C131.662 39.8844 113.711 50.8526 102.741 66.8063C91.7704 82.7601 74.3079 122.774 104.735 128.627C130.665 133.613 142.632 136.604 157.591 127.63Z" fill="#D6BB4C"/>
<path d="M156.594 57.1244C156.594 57.1244 167.564 60.8237 174.545 78.7717C181.526 96.7196 175.542 82.7601 175.542 82.7601C175.542 82.7601 177.537 71.7919 177.537 68.8006C177.537 65.8092 188.507 61.8208 190.502 67.8035C192.496 73.7861 192.496 99.711 186.513 105.694C180.529 111.676 151.608 102.702 145.624 96.7196C139.64 90.737 156.594 57.1244 156.594 57.1244Z" fill="#D6BB4C"/>
<path d="M111.716 113.671C108.724 101.705 115.705 102.702 126.675 95.7225C137.646 88.7428 136.648 76.7775 133.656 63.815C131.652 55.1302 137.705 50.9224 141.914 49.0977C125.289 44.1022 111.686 53.7941 102.741 66.8064C91.7704 82.7601 74.3079 122.774 104.735 128.627C106.56 128.976 108.305 129.315 109.991 129.644C112.265 126.134 113.631 121.338 111.716 113.671Z" fill="#C1A736"/>
<path d="M164.572 104.697C164.572 104.697 160.583 87.7457 159.586 76.7775C159.586 76.7775 165.57 102.702 171.553 104.697C177.537 106.691 186.413 106.043 189.455 99.8905C189.455 99.8905 188.856 107.1 182.703 107.389C176.54 107.688 167.564 107.688 164.572 104.697Z" fill="#C1A736"/>
<path d="M175.493 81.2245L179.532 91.7341C179.532 91.7341 178.215 71.8417 178.873 66.8263C178.873 66.8263 177.537 66.8063 177.537 68.8006C177.537 71.0341 175.493 81.2245 175.493 81.2245Z" fill="#C1A736"/>
<path d="M142.662 8.71473C137.725 6.13221 132.52 7.18915 129.667 7.97687C125.698 9.06372 120.692 10.9682 113.711 23.9306C106.73 36.8931 87.7812 39.8844 75.8138 39.8844C63.8463 39.8844 50.8816 47.8613 54.8708 65.8092C58.8599 83.7572 52.8762 74.7832 41.906 102.702C30.9359 130.621 63.8463 133.613 80.8002 133.613C97.7541 133.613 104.735 123.642 101.743 111.676C98.7514 99.711 104.735 92.7312 116.703 87.7457C128.67 82.7601 127.673 74.7832 127.673 63.815C127.673 52.8468 128.67 54.841 139.64 46.8642C145.734 42.437 149.982 36.7734 151.528 30.7309L153.602 35.8959C153.602 35.8959 156.594 33.9017 156.594 22.9335C156.594 11.9653 142.662 8.71473 142.662 8.71473Z" fill="#383027"/>
<path d="M198.859 145.508C198.859 145.508 196.645 146.874 198.859 149.118H169.768V145.309L198.859 145.508Z" fill="#EFE6D8"/>
<path d="M171.942 145.508H199.497C200.066 145.508 200.525 145.05 200.525 144.481C200.525 143.913 200.066 143.454 199.497 143.454H171.972H170.407H170.357V143.474V143.454H170.257C169.22 143.504 168.402 144.362 168.402 145.399V149.217C168.402 150.294 169.27 151.162 170.347 151.162V151.142V151.162H170.397H171.962H199.487C200.056 151.162 200.515 150.703 200.515 150.135C200.515 149.566 200.056 149.108 199.487 149.108H171.932C171.733 149.108 170.327 149.048 170.327 147.662V146.934C170.337 145.568 171.743 145.508 171.942 145.508Z" fill="#F2C679"/>
<path d="M195.937 124.09C195.937 124.09 193.723 125.456 195.937 127.7H166.846V123.891L195.937 124.09Z" fill="#EDEDED"/>
<path d="M169.02 124.09H196.575C197.144 124.09 197.603 123.632 197.603 123.063C197.603 122.495 197.144 122.036 196.575 122.036H169.05H167.485H167.435V122.056V122.036H167.335C166.298 122.086 165.48 122.944 165.48 123.981V127.8C165.48 128.876 166.348 129.744 167.425 129.744V129.724V129.744H167.475H169.04H196.565C197.134 129.744 197.593 129.285 197.593 128.717C197.593 128.149 197.134 127.69 196.565 127.69H169.01C168.811 127.69 167.405 127.63 167.405 126.244V125.516C167.425 124.15 168.821 124.1 169.02 124.09Z" fill="#B3E7F2"/>
<path d="M167.135 137.721C167.135 137.721 169.349 139.087 167.135 141.33H196.226V137.521L167.135 137.721Z" fill="#E8E6E3"/>
<path d="M194.052 137.721H166.497C165.929 137.721 165.47 137.262 165.47 136.694C165.47 136.125 165.929 135.667 166.497 135.667H194.022H195.588H195.638V135.687V135.667H195.738C196.775 135.717 197.593 136.574 197.593 137.611V141.43C197.593 142.507 196.725 143.374 195.648 143.374V143.354V143.374H195.598H194.032H166.507C165.939 143.374 165.48 142.916 165.48 142.347C165.48 141.779 165.939 141.32 166.507 141.32H194.062C194.262 141.32 195.668 141.261 195.668 139.875V139.147C195.648 137.781 194.242 137.721 194.052 137.721Z" fill="#8EC8DD"/>
<path d="M201.362 135.597H169.489C168.881 135.597 168.392 135.108 168.392 134.5V130.861C168.392 130.252 168.881 129.764 169.489 129.764H201.362C201.971 129.764 202.459 130.252 202.459 130.861V134.5C202.469 135.108 201.971 135.597 201.362 135.597Z" fill="#E8AFA6"/>
<path d="M0.0200195 177.256C0.0200195 177.256 61.8718 148.41 198.48 150.564C325.136 152.558 375 179.599 375 179.599V344.003H0.0200195V177.256Z" fill="#CCB07F"/>
<path opacity="0.2" d="M198.48 150.564C61.8718 148.41 0.0200195 177.256 0.0200195 177.256V196.201C0.0200195 196.201 61.8718 167.355 198.48 169.509C325.136 171.503 375 198.544 375 198.544V179.599C375 179.599 325.136 152.558 198.48 150.564Z" fill="white"/>
<path opacity="0.2" d="M35.2441 193.3C35.2441 197.388 63.1582 196.042 66.8183 192.382C70.4783 188.723 35.2441 187.347 35.2441 193.3Z" fill="white"/>
<path opacity="0.2" d="M180.23 179.948C180.23 184.037 208.144 182.69 211.804 179.031C215.464 175.372 180.23 174.006 180.23 179.948Z" fill="white"/>
<path opacity="0.2" d="M299.276 190.647C299.276 194.736 327.19 193.389 330.85 189.73C334.51 186.071 299.276 184.695 299.276 190.647Z" fill="white"/>
<path opacity="0.2" d="M242.181 193.878C242.181 197.966 270.095 196.62 273.755 192.961C277.425 189.301 242.181 187.925 242.181 193.878Z" fill="white"/>
<path opacity="0.2" d="M97.7542 208.376C97.7542 214.688 140.837 212.614 146.492 206.96C152.136 201.316 97.7542 199.203 97.7542 208.376Z" fill="white"/>
<path opacity="0.2" d="M271.91 223.602C271.91 229.914 314.993 227.84 320.648 222.186C326.292 216.542 271.91 214.418 271.91 223.602Z" fill="white"/>
<path opacity="0.2" d="M176.171 238.558C176.171 244.87 219.254 242.796 224.908 237.143C230.553 231.499 176.171 229.375 176.171 238.558Z" fill="white"/>
<path opacity="0.2" d="M0.0200195 217.46V227.471C11.9276 227.152 25.0918 225.177 28.0438 222.226C31.285 218.975 14.7101 216.901 0.0200195 217.46Z" fill="white"/>
<path opacity="0.2" d="M375 210.749C370.024 211.756 366.653 213.342 366.653 215.625C366.653 217.39 370.024 218.497 375 219.055V210.749Z" fill="white"/>
</g>
<rect width="374.98" height="345" fill="url(#paint0_linear)"/>
<defs>
<linearGradient id="paint0_linear" x1="187.49" y1="0" x2="187.49" y2="308.107" gradientUnits="userSpaceOnUse">
<stop stop-color="white" stop-opacity="0"/>
<stop offset="0.42254" stop-color="white" stop-opacity="0"/>
<stop offset="1" stop-color="white"/>
</linearGradient>
<clipPath id="clip0">
<rect width="375" height="344.501" fill="white"/>
</clipPath>
</defs>
</svg>
