<svg width="686" height="346" viewBox="0 0 686 346" fill="none" xmlns="http://www.w3.org/2000/svg">
<g clip-path="url(#clip0)">
<path d="M0 77.42C0 77.42 20.98 35.5 123.15 65.5C225.32 95.5 309.25 118.5 367.63 88.5C426.01 58.5 503.58 86.17 538.69 99.83C573.8 113.49 686 138.12 686 138.12V345.5H0.91L0 77.42Z" fill="#7FC6C4"/>
<path d="M494.59 146.12C494.59 146.12 492.69 144.34 495.31 142.57L466.72 136.77L465.96 140.51L494.59 146.12Z" fill="#EFE6D8"/>
<path d="M468.14 140.75L495.21 146.24C495.77 146.35 496.13 146.9 496.01 147.45C495.9 148.01 495.35 148.37 494.8 148.25L467.75 142.76L466.21 142.45L466.16 142.44V142.42V142.44L466.07 142.42C465.06 142.16 464.43 141.16 464.64 140.14L465.4 136.39C465.61 135.33 466.65 134.65 467.7 134.86V134.88L467.71 134.86L467.76 134.87L469.3 135.18L496.35 140.67C496.91 140.78 497.27 141.33 497.15 141.88C497.04 142.44 496.49 142.8 495.94 142.68L468.87 137.19C468.67 137.15 467.28 136.93 467.01 138.29L466.86 139.01C466.58 140.37 467.95 140.71 468.14 140.75Z" fill="#F2C679"/>
<path d="M487.45 166.58C487.45 166.58 485.55 164.8 488.17 163.03L459.58 157.23L458.82 160.97L487.45 166.58Z" fill="#EDEDED"/>
<path d="M461 161.22L488.07 166.71C488.63 166.82 488.99 167.37 488.87 167.92C488.76 168.48 488.21 168.84 487.66 168.72L460.61 163.23L459.07 162.92L459.02 162.91V162.89V162.91L458.93 162.89C457.92 162.63 457.29 161.63 457.5 160.61L458.26 156.86C458.47 155.8 459.51 155.12 460.56 155.33V155.35L460.57 155.33L460.62 155.34L462.16 155.65L489.21 161.14C489.77 161.25 490.13 161.8 490.01 162.35C489.9 162.91 489.35 163.27 488.8 163.15L461.73 157.66C461.53 157.62 460.14 157.4 459.87 158.76L459.72 159.48C459.44 160.84 460.8 161.17 461 161.22Z" fill="#B3E7F2"/>
<path d="M461.86 147.45C461.86 147.45 464.31 146.55 462.58 143.9L491.17 149.7L490.41 153.44L461.86 147.45Z" fill="#E8E6E3"/>
<path d="M488.31 152.81L461.24 147.32C460.68 147.21 460.14 147.57 460.03 148.12C459.92 148.68 460.28 149.22 460.83 149.33L487.88 154.82L489.42 155.13L489.47 155.14L489.48 155.12V155.14L489.58 155.15C490.61 155.31 491.58 154.63 491.79 153.61L492.55 149.86C492.76 148.8 492.08 147.77 491.02 147.56V147.58V147.56L490.97 147.55L489.43 147.24L462.38 141.75C461.82 141.64 461.28 142 461.17 142.55C461.06 143.11 461.42 143.65 461.97 143.76L489.04 149.25C489.23 149.29 490.6 149.63 490.33 150.99L490.18 151.71C489.9 153.07 488.51 152.85 488.31 152.81Z" fill="#8EC8DD"/>
<path d="M495.08 156.36L463.76 150C463.16 149.88 462.58 150.26 462.46 150.86L461.73 154.44C461.61 155.04 461.99 155.62 462.59 155.74L493.91 162.1C494.51 162.22 495.09 161.84 495.21 161.24L495.94 157.66C496.06 157.06 495.67 156.48 495.08 156.36Z" fill="#E8AFA6"/>
<path d="M501.37 118.13C501.37 118.13 499.47 116.35 502.09 114.58L473.5 108.78L472.74 112.52L501.37 118.13Z" fill="#EFE6D8"/>
<path d="M474.92 112.77L501.99 118.26C502.55 118.37 502.91 118.92 502.79 119.47C502.68 120.03 502.13 120.39 501.58 120.27L474.53 114.78L472.99 114.47L472.94 114.46V114.44V114.46L472.85 114.44C471.84 114.18 471.21 113.18 471.42 112.16L472.18 108.41C472.39 107.35 473.43 106.67 474.48 106.88V106.9L474.49 106.88L474.54 106.89L476.08 107.2L503.13 112.69C503.69 112.8 504.05 113.35 503.93 113.9C503.82 114.46 503.27 114.82 502.72 114.7L475.65 109.21C475.45 109.17 474.06 108.95 473.79 110.31L473.64 111.03C473.36 112.39 474.73 112.73 474.92 112.77Z" fill="#F2C679"/>
<path d="M494.23 138.6C494.23 138.6 492.33 136.82 494.95 135.05L466.36 129.25L465.6 132.99L494.23 138.6Z" fill="#EDEDED"/>
<path d="M467.78 133.23L494.85 138.72C495.41 138.83 495.77 139.38 495.65 139.93C495.54 140.49 494.99 140.85 494.44 140.73L467.39 135.24L465.85 134.93L465.8 134.92V134.9V134.92L465.71 134.9C464.7 134.64 464.07 133.64 464.28 132.62L465.04 128.87C465.25 127.81 466.29 127.13 467.34 127.34V127.36L467.35 127.34L467.4 127.35L468.94 127.66L495.99 133.15C496.55 133.26 496.91 133.81 496.79 134.36C496.68 134.92 496.13 135.28 495.58 135.16L468.51 129.67C468.31 129.63 466.92 129.41 466.65 130.77L466.5 131.49C466.22 132.85 467.59 133.19 467.78 133.23Z" fill="#B3E7F2"/>
<path d="M468.64 119.46C468.64 119.46 471.09 118.56 469.36 115.91L497.95 121.71L497.19 125.45L468.64 119.46Z" fill="#E8E6E3"/>
<path d="M495.09 124.83L468.02 119.34C467.46 119.23 466.92 119.59 466.81 120.14C466.7 120.7 467.06 121.24 467.61 121.35L494.66 126.84L496.2 127.15L496.25 127.16L496.26 127.14V127.16L496.36 127.17C497.39 127.33 498.36 126.65 498.57 125.63L499.33 121.88C499.54 120.82 498.86 119.79 497.8 119.58V119.6V119.58L497.75 119.57L496.21 119.26L469.16 113.77C468.6 113.66 468.06 114.02 467.95 114.57C467.84 115.13 468.2 115.67 468.75 115.78L495.82 121.27C496.01 121.31 497.38 121.65 497.11 123.01L496.96 123.73C496.68 125.09 495.29 124.87 495.09 124.83Z" fill="#8EC8DD"/>
<path d="M501.86 128.38L470.54 122.02C469.94 121.9 469.36 122.28 469.24 122.88L468.51 126.46C468.39 127.06 468.77 127.64 469.37 127.76L500.69 134.12C501.29 134.24 501.87 133.86 501.99 133.26L502.72 129.68C502.84 129.08 502.46 128.5 501.86 128.38Z" fill="#E8AFA6"/>
<path d="M455.1 152.89C455.1 152.89 453.98 163.03 462.39 167.31L445.03 166.85L445.96 151.69L455.1 152.89Z" fill="#F4DBCB"/>
<path d="M455.1 152.89L445.96 151.69L445.25 163.31C448.48 162.34 453.05 160.69 455.92 159.62C454.75 156.07 455.1 152.89 455.1 152.89Z" fill="#EAC9B7"/>
<path d="M408.22 53.61C408.22 53.61 423.37 57.6 436.78 70.17C455.38 87.61 455.74 148.81 455.1 152.88C454.45 156.95 446.49 157.65 444.32 155.84C442.15 154.02 439.02 141.25 432.32 110.72C425.62 80.19 408.22 53.61 408.22 53.61Z" fill="#7C76B2"/>
<path d="M390.53 160.57C390.53 160.57 367.89 131.44 369.83 119.23C371.77 107.01 379.3 101.33 400.19 110.54C421.08 119.75 438.61 138.39 438.61 138.39L390.53 160.57Z" fill="#3A3944"/>
<path d="M387.34 128.56L446.85 127.52C446.85 127.52 457.64 149.24 449.01 163.47C439.37 179.38 387.82 169.88 376.37 162.34L357.74 164.47C357.74 164.47 337.3 126.11 352.45 115.75C367.6 105.39 387.34 128.56 387.34 128.56Z" fill="#4B4956"/>
<path d="M380.51 162.2C380.51 162.2 364.4 148.82 362.35 136.95L366.88 165.66L380.51 162.2Z" fill="#3A3944"/>
<path d="M373.55 19.52C373.55 19.52 371.71 31.91 376.69 39.67C381.67 47.43 382.36 49.3 387.99 47.24L388.03 58.94C388.03 58.94 402.96 64.99 407.8 50.52C407.8 50.52 404.9 20.78 392.06 14.84C379.22 8.9 373.55 19.52 373.55 19.52Z" fill="#F4DBCB"/>
<path d="M375.13 32.56C375.13 32.56 384.21 39.88 387.72 40.72C391.23 41.56 388.85 46.7 388.26 47.98C387.67 49.26 387.86 55.59 387.86 55.59C387.86 55.59 389.37 58.23 392.65 57.03C395.38 56.03 396.57 54.32 399.22 54.62C405.89 55.37 407.74 51.95 408.26 50.23C408.85 48.29 405.12 46.47 401.99 41.88C397.94 35.92 373.41 27.88 373.41 27.88L375.13 32.56Z" fill="#EAC9B7"/>
<path d="M374.89 34.79C374.89 34.79 373.45 39.58 374.74 40.17C376.03 40.76 377.9 40.07 377.9 40.07L374.89 34.79Z" fill="#F4DBCB"/>
<path d="M387.78 140.74C382.03 138.1 385.21 122.9 384.33 112.94C383.45 102.98 370.9 69.05 392.46 57.01C420.21 41.52 429.24 54.18 441.85 70.73C455.47 88.61 457.63 124.55 453.35 132.96C449.07 141.37 445.3 144.29 437.38 145.41C418.54 148.07 402.42 147.48 387.78 140.74Z" fill="#8D84C1"/>
<path d="M395.35 55.58C395.35 55.58 383.41 56.8 375.58 70.54C367.75 84.28 365.29 90.52 365.29 90.52C365.29 90.52 354.13 68.37 346.16 67.11C342.09 66.46 337.19 67.9 337.46 70.89C337.95 76.52 353.18 112.67 367.04 110.45C380.9 108.23 398.51 91.62 398.98 85.56C399.45 79.48 395.35 55.58 395.35 55.58Z" fill="#8D84C1"/>
<path d="M382.58 103.55C382.58 103.55 392.09 98.32 395.54 91.93C395.54 91.93 389.78 106.43 390.66 116.39C391.54 126.35 393.14 142.91 393.14 142.91C393.14 142.91 384.47 142.55 384.39 133.27C384.3 123.98 384.33 112.93 382.58 103.55Z" fill="#7C76B2"/>
<path d="M383.46 61.12C383.46 61.12 395.45 56.74 400.52 57.3C405.59 57.86 411.3 54.34 412.21 53.26C413.12 52.18 418.86 53.43 420.34 50.91C420.34 50.92 402.77 44.67 383.46 61.12Z" fill="#7C76B2"/>
<path d="M358.09 78.36L365.03 87.53L375.58 70.54C375.58 70.54 367.02 87.35 365.64 94.5C365.64 94.5 361.34 82.35 358.09 78.36Z" fill="#7C76B2"/>
<path d="M373.47 19.33C373.47 19.33 370.16 24.81 371.88 29.5C373.6 34.19 374.46 34.6 374.46 34.6C374.46 34.6 372.31 30.61 373.63 28.43C373.63 28.43 372.51 31.31 378.32 34.02C384.12 36.73 390.79 37.47 390.98 43.8C391.17 50.13 384 50.55 388.03 54.44C392.06 58.33 393.5 53.54 398.88 53.69C404.26 53.84 405.73 53.76 407.71 49.6C409.7 45.45 415.43 46.54 418.24 45.5C421.06 44.47 422.4 36.51 417.26 34.14C412.13 31.77 410.4 27.07 407.39 21.79C404.38 16.5 396.58 9.78 387.1 10.07C380.04 10.27 375.5 13.25 373.47 19.33Z" fill="#383027"/>
<path d="M374.76 12.66C374.41 12.97 374.08 13.29 373.77 13.61L389.72 13.17L374.76 12.66Z" fill="#3D3C47"/>
<path d="M401.87 27.07C401.61 24.08 396.1 18.54 393.76 14.73C391.42 10.92 392.46 13.57 392.46 13.57C392.46 13.57 399.88 27.24 399.06 29.32C398.24 31.4 394.25 31.75 388.1 30.28C381.95 28.81 380.78 26.91 383.59 24.65C386.4 22.39 391.59 12.9 391.59 12.9C391.59 12.9 391.58 12.79 391.54 12.72C391.45 12.74 391.36 12.76 391.28 12.78C391.15 12.94 390.95 13.29 390.68 13.98C389.86 16.06 378.87 28.07 375.62 25.34C373.42 23.49 372.35 18.78 371.88 15.94C371.4 16.7 371.06 17.44 370.89 18.12C369.9 22.25 375.72 31.26 385.89 32.85C396.06 34.44 402.38 34.25 406.04 29.71C409.5 25.42 410.83 25.71 409.8 22.58C409.22 23.06 408.43 23.62 407.66 24.54C405.86 26.72 402.13 30.06 401.87 27.07Z" fill="#3D3C47"/>
<path d="M380.53 9.08C379.99 9.29 379.46 9.52 378.95 9.79C382.6 10.75 390.51 12.01 390.51 12.01C390.51 12.01 383.61 10.36 380.53 9.08Z" fill="#3D3C47"/>
<path d="M390.6 13C390.6 13 390.83 12.9 391.29 12.79C391.43 12.63 391.5 12.66 391.55 12.73C392.85 12.46 395.51 12.21 399.66 13.2C401.97 13.75 403.89 14.62 405.44 15.59C404.66 14.72 403.81 13.86 402.89 13.01C394.7 10.03 390.6 13 390.6 13Z" fill="#3D3C47"/>
<path d="M391.5 11.92C391.5 11.92 391.32 9.93 391.24 8.93C391.2 8.49 391.55 8.02 391.96 7.63C391.33 7.58 390.7 7.55 390.05 7.55C390.09 7.7 390.14 7.84 390.15 8.02C390.33 10.01 391.5 11.92 391.5 11.92Z" fill="#3D3C47"/>
<path d="M391.28 12.79C391.36 12.77 391.44 12.75 391.54 12.73C391.5 12.66 391.42 12.63 391.28 12.79Z" fill="#4B4956"/>
<path d="M390.68 14C390.95 13.3 391.15 12.96 391.28 12.8C390.83 12.9 390.6 13 390.6 13C390.6 13 394.71 10.03 402.89 13.02C402.01 12.2 401.08 11.39 400.1 10.6C397.76 8.72 394.96 7.86 391.97 7.62C391.57 8.01 391.21 8.48 391.25 8.92C391.34 9.92 391.51 11.91 391.51 11.91C391.51 11.91 390.34 10.01 390.16 8.01C390.14 7.83 390.1 7.69 390.06 7.54C387.82 7.54 385.52 7.84 383.26 8.26C382.33 8.44 381.42 8.72 380.53 9.07C383.62 10.35 390.51 11.99 390.51 11.99C390.51 11.99 382.6 10.74 378.95 9.77C377.4 10.56 375.98 11.56 374.77 12.65L389.73 13.16L373.78 13.6C373.03 14.38 372.39 15.17 371.9 15.95C372.36 18.8 373.43 23.5 375.64 25.35C378.87 28.09 389.86 16.08 390.68 14Z" fill="#4B4956"/>
<path d="M405.43 15.6C403.88 14.63 401.96 13.76 399.65 13.21C395.51 12.22 392.84 12.47 391.54 12.74C391.58 12.81 391.59 12.92 391.59 12.92C391.59 12.92 386.4 22.41 383.59 24.67C380.78 26.93 381.95 28.83 388.1 30.3C394.25 31.77 398.24 31.42 399.06 29.34C399.88 27.26 392.46 13.59 392.46 13.59C392.46 13.59 391.42 10.94 393.76 14.75C396.1 18.56 401.61 24.1 401.87 27.09C402.13 30.08 405.85 26.74 407.67 24.57C408.44 23.66 409.23 23.1 409.81 22.61C409.75 22.43 409.69 22.25 409.61 22.04C408.84 19.93 407.36 17.75 405.43 15.6Z" fill="#4B4956"/>
<path d="M390.22 12.98C392.82 13.11 393.5 11.74 392.42 10.83C391.34 9.92 389.34 10.1 389.43 11.09C389.52 12.08 389.84 12.96 390.22 12.98Z" fill="#6E6D7A"/>
<path d="M385.72 138.57C385.72 138.57 393.99 154.25 421.97 152.79C449.95 151.33 452.13 145.85 452.13 145.85C452.13 145.85 451.74 141.4 450.6 137.85C450.59 137.86 415.47 155.69 385.72 138.57Z" fill="#3A3944"/>
<path d="M328 41C326.11 39.07 321.3 37.31 318.64 36.48C317.73 36.2 316.77 36.7 316.47 37.6L310.6 55.22C310.3 56.13 310.78 57.12 311.69 57.42C315.41 58.63 319.53 61.65 321.95 63.6C324.01 64 324.01 64 326.05 64.34C329.19 63.24 334.19 63.03 336.61 63C337.43 62.99 338.13 62.4 338.29 61.6L342.57 40.22C342.8 39.05 341.82 38 340.64 38.14C336.31 38.64 332.29 40.36 330.31 41.33C329 41 329.65 40.97 328 41Z" fill="#E58957"/>
<path d="M328.85 44.78C327.98 42.39 318.44 40 318.44 40L312.37 56.71C317.58 57.51 324.55 63.39 324.55 63.39C324.57 63.37 324.59 63.36 324.61 63.35L324.51 63.08L328.85 44.78Z" fill="#EAEAEA"/>
<path d="M328.85 44.78L324.51 63.08L324.61 63.35C327.33 61.32 336.66 61.49 336.66 61.49L341 41.59C334.93 41.59 328.85 44.78 328.85 44.78Z" fill="#F4EEEA"/>
<path d="M328.85 43.78C327.98 41.39 318.44 39 318.44 39L312.37 55.71C317.58 56.51 324.55 62.39 324.55 62.39C324.57 62.37 324.59 62.36 324.61 62.35C327.33 60.32 336.66 60.49 336.66 60.49L341 40.59C334.93 40.59 328.85 43.78 328.85 43.78Z" fill="#FCFCFC"/>
<path d="M328.85 42.78C327.98 40.39 318.44 38 318.44 38L312.37 54.71C317.58 55.51 324.55 61.39 324.55 61.39C324.57 61.37 324.59 61.36 324.61 61.35L324.51 61.08L328.85 42.78Z" fill="#EAEAEA"/>
<path d="M328.85 42.78L324.51 61.08L324.61 61.35C327.33 59.32 336.66 59.49 336.66 59.49L341 39.59C334.93 39.59 328.85 42.78 328.85 42.78Z" fill="#EFEFEF"/>
<path d="M328.85 42.78L324.51 61.08L324.61 61.35C327.33 59.32 331.66 55.49 331.66 55.49L336 35.59C329.93 35.59 328.85 42.78 328.85 42.78Z" fill="#FCFCFC"/>
<path d="M336.71 66C336.71 66 335.9 62.76 334.28 60.33C332.66 57.9 331.85 53.85 332.66 53.04C333.47 52.23 335.39 54.74 335.9 56.28C336.71 58.71 339.14 57.09 339.14 57.09L340.76 48.99C340.76 48.99 344 53.04 344 56.28C344 59.52 343.19 65.99 343.19 65.99H336.71V66Z" fill="#F4DBCB"/>
<path d="M308.28 62.77C308.28 62.77 310.39 60.69 312.74 59.6C315.09 58.51 317.58 55.81 317.34 54.83C317.1 53.85 314.49 54.86 313.39 55.79C311.65 57.26 310.56 54.91 310.56 54.91L313.08 48.02C313.08 48.02 308.75 49.59 307.26 52.05C305.76 54.5 303.38 59.79 303.38 59.79L308.28 62.77Z" fill="#F4DBCB"/>
<path d="M336 63.79C336 63.79 338 64 340 64C342 64 343.35 64.6 343.35 64.6L343 67H337L336 63.79Z" fill="#EAC9B7"/>
<path d="M308.68 50.47C308.68 50.47 308 52 308 53C308 54 314.07 58.68 314.07 58.68L306.03 54.02C306.03 54.03 307.35 50.94 308.68 50.47Z" fill="#EAC9B7"/>
<path d="M305 16C305 16 311 27 309 36C307 45 307 47 301 47L305 58C305 58 293.07 68.83 283.54 56.92C283.54 56.92 276 28 286 18C296 8 305 16 305 16Z" fill="#F4DBCB"/>
<path d="M307.33 31.85C307.33 31.85 306 40 303 42C300 44 297 47 298 48C299 49 302.57 51.28 302.57 51.28C302.57 51.28 295.4 48.57 293.2 48.29C291 48 307.26 29.22 307.26 29.22L307.33 31.85Z" fill="#EAC9B7"/>
<path d="M231 120C231 120 222 139 233 156C244 173 293 173 311 161C329 149 357 145 357 130C357 115 351 109 338 111C325 113 231 120 231 120Z" fill="#293C63"/>
<path d="M300 142C311.71 138.1 328.16 129.43 326.18 112.3C297.21 115.07 231 120 231 120C231 120 225.95 130.66 228.04 143.16C235.82 143.14 245.94 142.74 250 141C257 138 288 146 300 142Z" fill="#1D2E4C"/>
<path d="M313 128C318.42 124.75 325 118 320 105C315 92 331 70 309 55C287 40 269 51 258 67C247 83 229.49 123.13 260 129C286 134 298 137 313 128Z" fill="#D6BB4C"/>
<path d="M312 57.29C312 57.29 323 61 330 79C337 97 331 83 331 83C331 83 333 72 333 69C333 66 344 62 346 68C348 74 348 100 342 106C336 112 307 103 301 97C295 91 312 57.29 312 57.29Z" fill="#D6BB4C"/>
<path d="M267 114C264 102 271 103 282 96C293 89 292 77 289 64C286.99 55.29 293.06 51.07 297.28 49.24C280.61 44.22 266.98 53.94 258 67C247 83 229.49 123.13 260 129C261.83 129.35 263.58 129.69 265.27 130.02C267.55 126.5 268.92 121.69 267 114Z" fill="#C1A736"/>
<path d="M320 105C320 105 316 88 315 77C315 77 321 103 327 105C333 107 341.9 106.35 344.95 100.18C344.95 100.18 344.35 107.41 338.18 107.7C332 108 323 108 320 105Z" fill="#C1A736"/>
<path d="M330.95 81.46L335 92C335 92 333.68 72.05 334.34 67.02C334.34 67.02 333 67 333 69C333 71.24 330.95 81.46 330.95 81.46Z" fill="#C1A736"/>
<path d="M298.03 8.74C293.09 6.15 287.86 7.21 285 8C281.02 9.09 276 11 269 24C262 37 243 40 231 40C219 40 206 48 210 66C214 84 208 75 197 103C186 131 219 134 236 134C253 134 260 124 257 112C254 100 260 93 272 88C284 83 283 75 283 64C283 53 284 55 295 47C301.11 42.56 305.37 36.88 306.92 30.82L309 36C309 36 312 34 312 23C312 12 298.03 8.74 298.03 8.74Z" fill="#383027"/>
<path d="M354.38 145.93C354.38 145.93 352.16 147.3 354.38 149.55H325.21V145.73L354.38 145.93Z" fill="#EFE6D8"/>
<path d="M327.39 145.93H355.02C355.59 145.93 356.05 145.47 356.05 144.9C356.05 144.33 355.59 143.87 355.02 143.87H327.42H325.85H325.8V143.89V143.87H325.7C324.66 143.92 323.84 144.78 323.84 145.82V149.65C323.84 150.73 324.71 151.6 325.79 151.6V151.58V151.6H325.84H327.41H355.01C355.58 151.6 356.04 151.14 356.04 150.57C356.04 150 355.58 149.54 355.01 149.54H327.38C327.18 149.54 325.77 149.48 325.77 148.09V147.36C325.79 145.99 327.2 145.93 327.39 145.93Z" fill="#F2C679"/>
<path d="M351.45 124.45C351.45 124.45 349.23 125.82 351.45 128.07H322.28V124.25L351.45 124.45Z" fill="#EDEDED"/>
<path d="M324.47 124.45H352.1C352.67 124.45 353.13 123.99 353.13 123.42C353.13 122.85 352.67 122.39 352.1 122.39H324.5H322.93H322.88V122.41V122.39H322.78C321.74 122.44 320.92 123.3 320.92 124.34V128.17C320.92 129.25 321.79 130.12 322.87 130.12V130.1V130.12H322.92H324.49H352.09C352.66 130.12 353.12 129.66 353.12 129.09C353.12 128.52 352.66 128.06 352.09 128.06H324.46C324.26 128.06 322.85 128 322.85 126.61V125.88C322.86 124.51 324.27 124.46 324.47 124.45Z" fill="#B3E7F2"/>
<path d="M322.57 138.12C322.57 138.12 324.79 139.49 322.57 141.74H351.74V137.92L322.57 138.12Z" fill="#E8E6E3"/>
<path d="M349.56 138.12H321.93C321.36 138.12 320.9 137.66 320.9 137.09C320.9 136.52 321.36 136.06 321.93 136.06H349.53H351.1H351.15V136.08V136.06H351.25C352.29 136.11 353.11 136.97 353.11 138.01V141.84C353.11 142.92 352.24 143.79 351.16 143.79V143.77V143.79H351.11H349.54H321.94C321.37 143.79 320.91 143.33 320.91 142.76C320.91 142.19 321.37 141.73 321.94 141.73H349.57C349.77 141.73 351.18 141.67 351.18 140.28V139.55C351.17 138.18 349.76 138.12 349.56 138.12Z" fill="#8EC8DD"/>
<path d="M356.9 135.99H324.94C324.33 135.99 323.84 135.5 323.84 134.89V131.24C323.84 130.63 324.33 130.14 324.94 130.14H356.9C357.51 130.14 358 130.63 358 131.24V134.89C358 135.5 357.51 135.99 356.9 135.99Z" fill="#E8AFA6"/>
<path d="M0 177.77C0 177.77 113.15 148.84 363.07 151C594.78 153 686 180.12 686 180.12V345H0V177.77Z" fill="#CCB07F"/>
<path opacity="0.2" d="M363.07 151C113.15 148.84 0 177.77 0 177.77V196.77C0 196.77 113.15 167.84 363.07 170C594.78 172 686 199.12 686 199.12V180.12C686 180.12 594.78 153 363.07 151Z" fill="white"/>
<path opacity="0.2" d="M190.32 193.86C190.32 197.96 218.31 196.61 221.98 192.94C225.65 189.27 190.32 187.89 190.32 193.86Z" fill="white"/>
<path opacity="0.2" d="M110.32 200.86C110.32 204.96 138.31 203.61 141.98 199.94C145.65 196.27 110.32 194.89 110.32 200.86Z" fill="white"/>
<path opacity="0.2" d="M335.7 180.47C335.7 184.57 363.69 183.22 367.36 179.55C371.03 175.88 335.7 174.51 335.7 180.47Z" fill="white"/>
<path opacity="0.2" d="M460.07 184.2C460.07 188.3 488.06 186.95 491.73 183.28C495.4 179.61 460.07 178.23 460.07 184.2Z" fill="white"/>
<path opacity="0.2" d="M565.07 208.2C565.07 212.3 593.06 210.95 596.73 207.28C600.4 203.61 565.07 202.23 565.07 208.2Z" fill="white"/>
<path opacity="0.2" d="M397.83 194.44C397.83 198.54 425.82 197.19 429.49 193.52C433.16 189.85 397.83 188.47 397.83 194.44Z" fill="white"/>
<path opacity="0.2" d="M253 208.98C253 215.31 296.2 213.23 301.87 207.56C307.53 201.9 253 199.78 253 208.98Z" fill="white"/>
<path opacity="0.2" d="M147 228.98C147 235.31 190.2 233.23 195.87 227.56C201.53 221.9 147 219.78 147 228.98Z" fill="white"/>
<path opacity="0.2" d="M427.63 224.25C427.63 230.58 470.83 228.5 476.5 222.83C482.16 217.17 427.63 215.04 427.63 224.25Z" fill="white"/>
<path opacity="0.2" d="M572.63 244.25C572.63 250.58 615.83 248.5 621.5 242.83C627.16 237.17 572.63 235.04 572.63 244.25Z" fill="white"/>
<path opacity="0.2" d="M331.63 239.25C331.63 245.58 374.83 243.5 380.5 237.83C386.16 232.17 331.63 230.04 331.63 239.25Z" fill="white"/>
<path opacity="0.2" d="M487.63 259.25C487.63 265.58 530.83 263.5 536.5 257.83C542.16 252.17 487.63 250.04 487.63 259.25Z" fill="white"/>
<path opacity="0.2" d="M298.63 274.25C298.63 280.58 341.83 278.5 347.5 272.83C353.16 267.17 298.63 265.04 298.63 274.25Z" fill="white"/>
<path opacity="0.2" d="M36.63 274.25C36.63 280.58 79.83 278.5 85.5 272.83C91.16 267.17 36.63 265.04 36.63 274.25Z" fill="white"/>
<path opacity="0.2" d="M0 218.09V228.13C11.94 227.81 25.14 225.83 28.1 222.87C31.36 219.61 14.73 217.53 0 218.09Z" fill="white"/>
<path opacity="0.2" d="M686 263.09V273.13C674.06 272.81 660.86 270.83 657.9 267.87C654.64 264.61 671.27 262.53 686 263.09Z" fill="white"/>
<path opacity="0.2" d="M686 211.36C681.01 212.37 677.63 213.96 677.63 216.25C677.63 218.02 681.01 219.13 686 219.69V211.36Z" fill="white"/>
<rect x="-1" y="1" width="687" height="345" fill="url(#paint0_linear)"/>
</g>
<defs>
<linearGradient id="paint0_linear" x1="342.5" y1="1" x2="342.5" y2="309.107" gradientUnits="userSpaceOnUse">
<stop stop-color="white" stop-opacity="0"/>
<stop offset="0.42254" stop-color="white" stop-opacity="0"/>
<stop offset="1" stop-color="white"/>
</linearGradient>
<clipPath id="clip0">
<rect width="686" height="345.5" fill="white"/>
</clipPath>
</defs>
</svg>
