<svg width="16" height="16" fill="none" viewBox="0 0 16 16"  xmlns="http://www.w3.org/2000/svg">
<path d="M3.53033 4.96967C3.23744 4.67678 2.76256 4.67678 2.46967 4.96967C2.17678 5.26256 2.17678 5.73744 2.46967 6.03033L3.53033 4.96967ZM8 10.5L7.46967 11.0303C7.61032 11.171 7.80109 11.25 8 11.25C8.19891 11.25 8.38968 11.171 8.53033 11.0303L8 10.5ZM13.5303 6.03033C13.8232 5.73744 13.8232 5.26256 13.5303 4.96967C13.2374 4.67678 12.7626 4.67678 12.4697 4.96967L13.5303 6.03033ZM2.46967 6.03033L7.46967 11.0303L8.53033 9.96967L3.53033 4.96967L2.46967 6.03033ZM8.53033 11.0303L13.5303 6.03033L12.4697 4.96967L7.46967 9.96967L8.53033 11.0303Z" fill="currentColor"/>
</svg>
