<svg xmlns="http://www.w3.org/2000/svg" viewBox="0 0 88 88">
  <defs>
    <linearGradient x1="90.244%" y1="3.247%" x2="17.532%" y2="105.266%" id="a">
      <stop stop-color="#D2F0F0" offset="0%"/>
      <stop stop-color="#F0E6B4" offset="100%"/>
    </linearGradient>
  </defs>
  <g fill="none" fill-rule="evenodd">
    <path d="M82.5 44c0 21.263-17.237 38.5-38.5 38.5S5.5 65.263 5.5 44 22.737 5.5 44 5.5 82.5 22.737 82.5 44zM80 44c0 19.882-16.118 36-36 36S8 63.882 8 44 24.118 8 44 8s36 16.118 36 36z" fill="url(#a)"/>
    <path d="M2.448 34.864a1.185 1.185 0 01-1.151-1.472 44.13 44.13 0 013.1-8.57 1.185 1.185 0 112.134 1.034 41.788 41.788 0 00-2.934 8.108c-.134.54-.617.9-1.15.9zm10.838 40.025c-.31 0-.62-.12-.852-.361C4.416 66.24 0 55.395 0 43.988a1.186 1.186 0 112.371 0c0 10.788 4.18 21.048 11.767 28.89a1.186 1.186 0 01-.852 2.011zm3.39 3.151a1.18 1.18 0 01-.759-.275c-.29-.242-.577-.488-.86-.737a1.186 1.186 0 111.565-1.78c.269.235.54.468.815.697a1.185 1.185 0 01-.76 2.095zm63.222-9.651a1.187 1.187 0 01-.992-1.834c4.398-6.752 6.723-14.555 6.723-22.567A41.353 41.353 0 0081.957 26.9a1.186 1.186 0 012.162-.975A43.715 43.715 0 0188 43.988c0 8.472-2.458 16.724-7.107 23.862a1.186 1.186 0 01-.995.539zM44 88c-9.09 0-17.842-2.8-25.308-8.097a1.186 1.186 0 011.372-1.935c7.063 5.011 15.34 7.66 23.936 7.66 10.958 0 21.334-4.295 29.215-12.095a1.186 1.186 0 011.668 1.686C66.554 83.461 55.586 88 44 88zm35.53-66.716c-.382 0-.757-.184-.986-.525A41.372 41.372 0 0066.673 9.065a1.187 1.187 0 011.291-1.99 43.742 43.742 0 0112.549 12.362 1.186 1.186 0 01-.983 1.847zm-71.354.461a1.186 1.186 0 01-.99-1.836A44.268 44.268 0 0123.428 5.098C29.721 1.763 36.834 0 44 0c6.967 0 13.631 1.582 19.807 4.702a1.186 1.186 0 01-1.07 2.117C56.897 3.868 50.592 2.372 44 2.372c-6.78 0-13.51 1.667-19.46 4.822A41.887 41.887 0 009.17 21.209a1.185 1.185 0 01-.994.536z" fill="#40BFA5"/>
  </g>
</svg>
