<svg width="16" height="16" viewBox="0 0 16 16" fill="none" xmlns="http://www.w3.org/2000/svg">
<path fill-rule="evenodd" clip-rule="evenodd" d="M12.385 3.45825C12.996 4.06925 12.996 5.05987 12.385 5.67087L6.37171 11.6841L3.01703 12.8976L3 12.8772L4.15909 9.47151L10.1724 3.45825C10.7834 2.84725 11.774 2.84725 12.385 3.45825Z" stroke="currentColor"/>
<path fill-rule="evenodd" clip-rule="evenodd" d="M9.70089 13.1196C10.1541 13.1196 10.5214 12.7522 10.5214 12.299C10.5214 11.8459 10.1541 11.4785 9.70089 11.4785C9.24773 11.4785 8.88037 11.8459 8.88037 12.299C8.88037 12.7522 9.24773 13.1196 9.70089 13.1196Z" fill="currentColor"/>
<path fill-rule="evenodd" clip-rule="evenodd" d="M12.8459 13.1196C13.2991 13.1196 13.6664 12.7522 13.6664 12.299C13.6664 11.8459 13.2991 11.4785 12.8459 11.4785C12.3927 11.4785 12.0254 11.8459 12.0254 12.299C12.0254 12.7522 12.3927 13.1196 12.8459 13.1196Z" fill="currentColor"/>
</svg>
