<svg width="24" height="24" fill="none" viewBox="0 0 24 24"  xmlns="http://www.w3.org/2000/svg">
<path fill-rule="evenodd" clip-rule="evenodd" d="M11.6545 7.12421C11.6412 7.13537 11.6286 7.14716 11.6166 7.15954L9.11695 9.96126C8.93969 10.1583 8.96702 10.4523 9.17798 10.6178C9.26839 10.6888 9.38282 10.7275 9.5009 10.7271H11.2507V20.2996C11.2507 20.8154 11.4484 21 12.0006 21C12.5528 21 12.7505 20.8154 12.7505 20.2996V10.7271H14.5003C14.7764 10.727 15.0001 10.5178 15 10.2599C15 10.1508 14.959 10.0451 14.8842 9.96126L12.3845 7.15954C12.1934 6.96148 11.8665 6.94567 11.6545 7.12421ZM21 3.75C21 4.16421 20.6642 4.5 20.25 4.5H3.75C3.33579 4.5 3 4.16421 3 3.75C3 3.33579 3.33579 3 3.75 3H20.25C20.6642 3 21 3.33579 21 3.75Z" fill="currentColor"/>
</svg>
