<svg xmlns="http://www.w3.org/2000/svg" viewBox="0 0 40 40">
  <path d="M20 40C8.954 40 0 31.046 0 20S8.954 0 20 0s20 8.954 20 20-8.954 20-20 20zm3.594-23.391c-.442.482-.925.933-1.4 1.375-1.399 1.304-2.857 2.558-4.231 3.878a2.85 2.85 0 00-.458.53c-.208.338-.192.644.05.958.175.225.4.402.641.555 1.824 1.19 3.665 2.365 5.481 3.572.317.209.65.37 1.025.458.758.177 1.2-.032 1.55-.7.166-.33.266-.683.332-1.046.708-3.732 1.367-7.48 1.9-11.237.083-.595.174-1.19.2-1.794-.009-.137-.009-.274-.026-.402-.083-.491-.358-.732-.874-.757a2.578 2.578 0 00-.7.065 8.422 8.422 0 00-.908.273c-1.682.588-3.34 1.247-4.981 1.923-3.832 1.577-7.655 3.177-11.487 4.77-.308.12-.608.266-.841.499-.292.282-.259.627.075.86.166.113.341.194.533.258.983.322 1.966.644 2.982.869.483.104.958.209 1.458.137.6-.097 1.116-.37 1.616-.692 2.174-1.416 4.348-2.84 6.547-4.223.375-.242.75-.491 1.141-.692.208-.105.4-.08.492.04.1.129.066.306-.075.475-.009.016-.025.032-.042.048z" fill="#00A1E2" fill-rule="evenodd"/>
</svg>
