<svg width="187" height="188" viewBox="0 0 187 188" fill="none" xmlns="http://www.w3.org/2000/svg">
<g clip-path="url(#clip0_1_2458)">
<path d="M87.6419 57.8904C87.6419 57.8904 84.5279 66.6537 84.5279 73.3708L76.224 75.2722V65.7236L72.072 75.2722L59.616 79.0958L64.4116 63.4708C64.4116 63.4708 57.8099 74.1148 53.3881 87.301C51.3121 93.5014 47.513 104.869 47.513 104.869C47.513 104.869 43.8593 104.869 40.2263 94.8035C38.8561 87.301 38.8561 81.1006 38.8561 81.1006C34.7042 64.5662 45.0841 21.1634 92.8319 31.4974C92.8319 31.4974 110.893 26.9504 123.972 41.8314C138.504 58.3658 138.504 76.967 134.352 88.6444C131.03 85.6062 128.124 88.6444 127.771 91.4553C124.615 98.5238 120.484 104.869 120.484 104.869C120.484 104.869 120.484 98.1724 120.484 88.1071C120.484 88.1071 117.765 79.1165 113.343 78.3311L107.364 63.8428C107.364 63.8428 107.447 71.9447 107.447 75.2929L99.0598 73.3914L94.9286 61.28C94.9286 61.28 96.4649 68.5965 92.8319 75.2929C92.8319 75.2929 91.2956 64.5869 87.6419 57.8904Z" fill="#333333"/>
<path d="M43.8597 97.6144C43.8597 97.6144 52.8488 120.349 56.5025 127.604C60.1563 134.858 71.076 143.683 80.3556 144.82C91.7943 146.205 98.8942 143.27 102.174 140.004C110.478 131.737 113.177 126.653 116.831 119.398C120.485 112.144 124.118 97.6144 124.118 86.7224" stroke="#333333" stroke-width="2.00357" stroke-miterlimit="10" stroke-linecap="round" stroke-linejoin="round"/>
<path d="M39.8944 80.0673C39.8944 80.0673 40.3926 101.231 44.0464 104.869" stroke="#333333" stroke-width="2.00357" stroke-miterlimit="10" stroke-linecap="round" stroke-linejoin="round"/>
<path d="M129.639 85.6062C129.639 85.6062 134.352 83.3328 134.352 90.1739C134.352 97.015 128.912 103.856 128.912 103.856" stroke="#333333" stroke-width="2.00357" stroke-miterlimit="10" stroke-linecap="round" stroke-linejoin="round"/>
<path d="M125.136 103.939L131.239 104.869L128.042 109.499L133.502 113.302L128.395 121.403H123.288L127.087 115.203L120.859 109.003L125.136 103.939Z" stroke="#333333" stroke-width="2.00357" stroke-miterlimit="10" stroke-linecap="round" stroke-linejoin="round"/>
<path d="M51.9772 117.476L49.5068 121.403H44.3999L48.1989 115.203L41.9709 109.003L43.4449 107.246L46.2475 103.939" stroke="#333333" stroke-width="2.00357" stroke-miterlimit="10" stroke-linecap="round" stroke-linejoin="round"/>
<path d="M120.07 112.661C120.07 112.661 123.412 116.05 125.011 113.136" stroke="#333333" stroke-width="2.00357" stroke-miterlimit="10" stroke-linecap="round" stroke-linejoin="round"/>
<path d="M127.045 92.3231C127.045 92.3231 129.951 87.3421 131.632 89.8223C133.314 92.3231 127.086 103.112 127.086 103.112" stroke="#333333" stroke-width="2.00357" stroke-miterlimit="10" stroke-linecap="round" stroke-linejoin="round"/>
<path d="M66.6543 138.868C66.6543 138.868 66.6543 148.726 66.6543 152.633" stroke="#333333" stroke-width="2.00357" stroke-miterlimit="10" stroke-linecap="round" stroke-linejoin="round"/>
<path d="M112.326 128.534C112.326 128.534 112.326 144.882 112.326 151.372" stroke="#333333" stroke-width="2.00357" stroke-miterlimit="10" stroke-linecap="round" stroke-linejoin="round"/>
<path d="M56.503 156.539C56.503 156.539 61.8798 150.338 69.5817 153.439C77.2836 156.539 89.6565 158.771 99.04 154.555C108.423 150.338 106.659 148.602 115.835 152.571C125.011 156.539 125.011 156.539 118.783 162.739C112.555 168.94 99.7251 177.331 85.38 176.235C71.0349 175.14 50.275 162.739 56.503 156.539Z" stroke="#333333" stroke-width="2.00357" stroke-miterlimit="10" stroke-linecap="round" stroke-linejoin="round"/>
<path d="M112.326 147.817C112.326 147.817 116.457 143.228 120.733 145.75C125.01 148.271 129.079 150.338 127.044 154.472C125.01 158.605 122.539 158.667 122.539 158.667" stroke="#333333" stroke-width="2.00357" stroke-miterlimit="10" stroke-linecap="round" stroke-linejoin="round"/>
<path d="M127.106 150.649C127.106 150.649 139.957 150.463 141.825 158.668C143.694 166.873 147.846 179.274 151.998 181.34C151.998 181.34 136.697 180.1 132.94 173.487C129.162 166.873 125.01 157.345 125.01 157.345" stroke="#333333" stroke-width="2.00357" stroke-miterlimit="10" stroke-linecap="round" stroke-linejoin="round"/>
<path d="M124.117 147.817C124.117 147.817 131.653 144.159 143.902 150.338C156.15 156.539 162.378 171.006 162.378 171.006" stroke="#333333" stroke-width="2.00357" stroke-miterlimit="10" stroke-linecap="round" stroke-linejoin="round"/>
<path d="M54.7646 162.163C54.7646 162.163 24.8051 170.228 17.9385 174.488C11.0719 178.749 9.35034 186.205 9.35034 186.205" stroke="#333333" stroke-width="2.00357" stroke-miterlimit="10" stroke-linecap="round" stroke-linejoin="round"/>
<path d="M143.694 164.806C143.694 164.806 163.478 169.932 169.914 174.355C176.349 178.777 177.948 186.507 177.948 186.507" stroke="#333333" stroke-width="2.00357" stroke-miterlimit="10" stroke-linecap="round" stroke-linejoin="round"/>
<path d="M89.6557 90.0083C87.206 94.9066 89.6557 101.603 93.5378 103.546C97.4199 105.489 105.89 105.489 110.395 103.546C114.9 101.603 116.872 93.9559 114.92 90.0497C112.969 86.1434 109.087 84.2006 103.253 84.2006C93.5378 84.2006 91.5863 86.1434 89.6557 90.0083Z" stroke="#333333" stroke-width="2.00357" stroke-miterlimit="10" stroke-linecap="round" stroke-linejoin="round"/>
<path d="M79.4002 90.0083C81.8498 94.9066 79.4002 101.603 75.5181 103.546C71.636 105.489 63.1659 105.489 58.661 103.546C54.1561 101.603 52.1839 93.9559 54.1354 90.0497C56.0868 86.1434 59.9689 84.2006 65.8024 84.2006C75.4973 84.2006 77.4487 86.1434 79.4002 90.0083Z" stroke="#333333" stroke-width="2.00357" stroke-miterlimit="10" stroke-linecap="round" stroke-linejoin="round"/>
<path d="M93.0399 79.0338C93.0399 79.0338 99.8076 75.0035 111.516 78.9511" stroke="#333333" stroke-width="2.00357" stroke-miterlimit="10" stroke-linecap="round" stroke-linejoin="round"/>
<path d="M78.3008 79.0338C78.3008 79.0338 71.533 75.0035 59.8245 78.9511" stroke="#333333" stroke-width="2.00357" stroke-miterlimit="10" stroke-linecap="round" stroke-linejoin="round"/>
<path d="M73 93C73 93 68.2245 88.5613 60 92.9089" stroke="#333333" stroke-width="2.00357" stroke-miterlimit="10" stroke-linecap="round" stroke-linejoin="round"/>
<path d="M80.3767 92.2408C80.3767 92.2408 84.155 88.8513 88.6807 92.2408" stroke="#333333" stroke-width="2.00357" stroke-miterlimit="10" stroke-linecap="round" stroke-linejoin="round"/>
<path d="M47.9491 90.7318L53.3674 91.5792" stroke="#333333" stroke-width="2.00357" stroke-miterlimit="10" stroke-linecap="round" stroke-linejoin="round"/>
<path d="M123.952 90.7318L115.669 91.2898" stroke="#333333" stroke-width="2.00357" stroke-miterlimit="10" stroke-linecap="round" stroke-linejoin="round"/>
<path d="M63.154 92.1429C63.154 92.1429 61.7679 96 67.3123 96C74.1873 96 71.4706 92.1429 71.4706 92.1429C71.4706 92.1429 68.6984 89.5714 63.154 92.1429Z" fill="#333333"/>
<path d="M109 93C109 93 104.224 88.5613 96 92.9089" stroke="#333333" stroke-width="2.00357" stroke-miterlimit="10" stroke-linecap="round" stroke-linejoin="round"/>
<path d="M97.1369 92.1429C97.1369 92.1429 95.9048 96 100.833 96C106.944 96 104.529 92.1429 104.529 92.1429C104.529 92.1429 102.065 89.5714 97.1369 92.1429Z" fill="#333333"/>
<path d="M80.3767 109.333C80.3767 109.333 81.3939 112.806 83.9889 113.488" stroke="#333333" stroke-width="2.00357" stroke-miterlimit="10" stroke-linecap="round" stroke-linejoin="round"/>
<path d="M72.0729 120.37C72.0729 120.37 76.557 123.139 85.0686 123.139C93.5801 123.139 99.0608 120.37 99.0608 120.37C99.0608 120.37 97.9397 130.187 85.5668 130.187C73.1939 130.187 72.0729 120.37 72.0729 120.37Z" stroke="#333333" stroke-width="2.00357" stroke-miterlimit="10" stroke-linecap="round" stroke-linejoin="round"/>
</g>
<defs>
<clipPath id="clip0_1_2458">
<rect width="187" height="187" fill="white" transform="translate(0 0.541016)"/>
</clipPath>
</defs>
</svg>
