<svg xmlns="http://www.w3.org/2000/svg" width="140" height="140" viewBox="0 0 140 140">
  <g fill="none" fill-rule="evenodd">
    <path stroke="#333" stroke-linecap="round" stroke-linejoin="round" stroke-width="2.004" d="M61.081747 74.6293614C61.081747 74.6293614 61.923012 77.5256747 64.0877831 78.0802771M54.1908795 83.7986867C54.1908795 83.7986867 57.9267711 86.1033735 64.9779639 86.1033735 72.0290723 86.1033735 76.6061446 83.7986867 76.6061446 83.7986867 76.6061446 83.7986867 72.8826506 89.5915663 65.0150723 90.0107229 57.5556024 90.4045783 54.1908795 83.7986867 54.1908795 83.7986867z"/>
    <path stroke="#333" stroke-linecap="round" stroke-linejoin="round" stroke-width="2.004" d="M33.1728313,58.2868072 C33.1728313,64.7941928 34.7315542,78.141759 41.4239759,86.4854217 C46.3845301,92.6724096 46.9288434,93.1404819 49.6750361,95.8890361 C53.212988,99.4143373 59.1137349,104.109398 66.1896386,104.109398 C69.7275904,104.109398 73.2655422,105.280843 80.3415301,97.0596386 C85.8714458,90.6263855 87.9242169,88.7287952 90.9553012,82.9606265 C93.9863855,77.1927108 97.103494,65.6568795 95.6689157,57.1159518 C91.5119277,32.2942892 81.5166867,25.3925422 69.7275904,23.0385181 C56.8004458,20.4626867 49.6750361,26.5633976 49.6750361,26.5633976 C49.6750361,26.5633976 40.2364217,28.8433735 36.6983855,36.7064819 C32.4182651,46.2210843 33.1728313,46.5291687 33.1728313,58.2868072 Z"/>
    <path stroke="#333" stroke-linecap="round" stroke-linejoin="round" stroke-width="2.004" d="M74.5031084,64.547759 C74.5031084,64.547759 74.9113012,60.4806747 78.6224819,60.4806747 C83.6946988,60.4806747 83.880241,62.9825422 86.2425301,62.9825422"/>
    <path stroke="#333" stroke-linecap="round" stroke-linejoin="round" stroke-width="2.004" d="M73.2666386,61.7499518 C73.2666386,61.7499518 75.0851205,58.0155783 78.6230723,58.0155783 C82.1610241,58.0155783 82.3341687,59.2480843 84.8079518,60.480506"/>
    <path fill="#333" fill-rule="nonzero" d="M75.8520843,61.5527711 C75.8520843,61.5527711 75.2829759,66.0143012 78.1282651,65.9157108 C81.5176988,65.792494 81.542494,65.6445663 82.3589639,61.8978795 C82.3589639,61.8978795 79.0559759,57.9663253 75.8520843,61.5527711 Z"/>
    <path stroke="#333" stroke-linecap="round" stroke-linejoin="round" stroke-width="2.004" d="M52.842494,64.547759 C52.842494,64.547759 52.4343012,60.4806747 48.7231205,60.4806747 C43.651241,60.4806747 43.4656988,62.9825422 41.1029036,62.9825422"/>
    <path stroke="#333" stroke-linecap="round" stroke-linejoin="round" stroke-width="2.004" d="M54.0801446,61.7499518 C54.0801446,61.7499518 52.2616627,58.0155783 48.7237108,58.0155783 C45.185759,58.0155783 45.0125301,59.2480843 42.538494,60.480506"/>
    <path fill="#333" fill-rule="nonzero" d="M51.4941084,61.5527711 C51.4941084,61.5527711 52.0632169,66.0143012 49.2179277,65.9157108 C45.828494,65.792494 45.8036988,65.6445663 44.9872289,61.8978795 C44.9872289,61.8978795 48.2902169,57.9663253 51.4941084,61.5527711 Z"/>
    <path stroke="#333" stroke-linecap="round" stroke-linejoin="round" stroke-width="2.004" d="M70.6438313 53.0612651C70.6438313 53.0612651 81.0845422 49.2406988 84.3128916 51.114 87.5295181 52.9873012 87.6163855 53.5295904 87.6163855 53.5295904M54.6615663 53.1724217C54.6615663 53.1724217 44.2703614 49.216241 41.0292771 51.0526024 37.7882771 52.8889639 37.6892651 53.4188554 37.6892651 53.4188554"/>
    <path fill="#333" fill-rule="nonzero" d="M45.5568434,9.5186506 C51.989506,4.42857952 68.034012,-8.30270843 91.6122892,9.32146988 C115.190482,26.9456145 110.192651,68.9600361 115.128916,83.5400241 C121.301566,101.755542 125.01241,109.150241 121.301566,121.475301 C117.701205,133.441928 125.01241,139.345542 125.01241,139.345542 L98.7126506,139.345542 C98.7126506,139.345542 103.31494,140.405663 100.085663,126.367711 C96.8572289,112.330602 85.6496386,105.860241 89.1875904,91.7607229 C92.7255422,77.6612048 96.8572289,54.7497831 90.956988,45.3461687 C85.0559036,35.9425542 79.2911928,16.4696506 53.2760723,24.4436627 L49.6762169,26.5388554 C49.6762169,26.5388554 36.6006386,29.743253 33.1121928,53.4064578 C29.6236627,77.0696627 49.7752289,96.6160241 52.0761205,102.113133 C54.377012,107.610241 53.3131807,117.666627 46.1877711,123.212651 C46.1877711,123.212651 53.2760723,112.428434 48.5257711,104.146506 C48.5257711,104.146506 42.6993253,133.503494 34.9800964,139.358193 L14.3956265,139.358193 C14.3956265,139.358193 14.9151446,121.462651 21.1004458,111.602771 C26.964,102.260723 21.855012,87.6686747 21.1004458,64.7697349 C20.6056386,49.7214217 24.3291325,13.0434458 45.5568434,9.5186506 Z"/>
    <path fill="#333" fill-rule="nonzero" d="M87.0715663,89.1479518 C87.0715663,89.1479518 86.8489157,105.206627 90.1642169,105.033735 C93.4795181,104.861687 92.3789157,79.8549036 92.3789157,79.8549036 C92.3789157,79.8549036 89.3233735,85.770241 87.0715663,89.1479518 Z"/>
    <path stroke="#333" stroke-linecap="round" stroke-linejoin="round" stroke-width="2.004" d="M89.3840964,102.82747 C89.3840964,102.82747 78.4242892,113.119157 73.2657952,117.309036 C68.1073012,121.499759 67.8475422,139.382651 67.8475422,139.382651"/>
    <path stroke="#333" stroke-linecap="round" stroke-linejoin="round" stroke-width="2.004" d="M70.6438313 121.401084C70.6438313 121.401084 75.8147229 118.480482 76.6063976 123.989398 77.385759 129.498313 86.2433735 137.509518 86.2433735 137.509518L97.6854217 115.769036M46.9785181 106.870602C46.9785181 106.870602 60.4252651 117.432169 64.581747 117.297229 68.7258313 117.161446 68.5773976 130.26241 68.5773976 130.26241"/>
    <path stroke="#333" stroke-linecap="round" stroke-linejoin="round" stroke-width="2.004" d="M64.5820843,117.297229 C64.5820843,117.297229 60.8585904,119.712651 59.8441807,123.989398 C58.8298554,128.266145 54.6609759,134.736506 54.6609759,134.736506 L41.1029036,124.691928"/>
    <path fill="#333" fill-rule="nonzero" d="M51.5432771,97.6272289 L51.5432771,104.170964 C51.5432771,104.170964 41.5231566,94.1516867 42.7479036,88.4083133 C42.7479036,88.4083133 49.2052771,95.3349398 51.5432771,97.6272289 Z"/>
    <path stroke="#333" stroke-linecap="round" stroke-linejoin="round" stroke-width="2.004" d="M110.167349 111.627229C110.167349 111.627229 132.038554 119.465542 135.328554 126.022771 138.619398 132.579157 139.645783 139.37 139.645783 139.37M29.5488554 111.627229C29.5488554 111.627229 7.67781928 119.465542 4.38730482 126.022771 1.09675663 132.579157.0700084337 139.37.0700084337 139.37"/>
  </g>
</svg>
