<svg xmlns="http://www.w3.org/2000/svg" width="140" height="140" viewBox="0 0 140 140">
  <g fill="none" fill-rule="evenodd" transform="translate(0 4.217)">
    <path stroke="#333" stroke-linecap="round" stroke-linejoin="round" stroke-width="2.004" d="M61.5662651 70C61.5662651 70 62.2742771 72.8312892 64.0963855 73.373494M54.8192771 79.2771084C54.8192771 79.2771084 58.3333614 81.4615301 64.9658193 81.4615301 71.5982771 81.4615301 75.9036145 79.2771084 75.9036145 79.2771084 75.9036145 79.2771084 72.4011687 84.7674699 65.0007349 85.1646988 57.9842892 85.5383133 54.8192771 79.2771084 54.8192771 79.2771084z"/>
    <path stroke="#333" stroke-linecap="round" stroke-linejoin="round" stroke-width="2.004" d="M34.6271446,54.662494 C34.6271446,60.9049759 36.1108072,73.708988 42.4811446,81.7129398 C47.2029398,87.6475904 47.7211084,88.0971084 50.3351446,90.733494 C53.7028193,94.1154217 59.3196024,98.6198795 66.0549518,98.6198795 C69.4226265,98.6198795 72.7903855,99.7424096 79.5257349,91.8568675 C84.7893976,85.6850602 86.743494,83.8647229 89.6286747,78.3316867 C92.5138554,72.7986506 95.4808434,61.732494 94.1154217,53.5393735 C90.1583133,29.7284096 80.6443855,23.1076747 69.4226265,20.8494578 C57.1176386,18.3785422 50.3351446,24.2307952 50.3351446,24.2307952 C50.3351446,24.2307952 41.3507711,26.418 37.983012,33.9608795 C33.9088434,43.0880361 34.6271446,43.3836386 34.6271446,54.662494 Z"/>
    <path stroke="#333" stroke-linecap="round" stroke-linejoin="round" stroke-width="2.004" d="M74.2168675,60.7228916 C74.2168675,60.7228916 74.5981566,56.5060241 78.064,56.5060241 C82.8008072,56.5060241 82.9741205,59.1000723 85.1807229,59.1000723"/>
    <path stroke="#333" stroke-linecap="round" stroke-linejoin="round" stroke-width="2.004" d="M73.373494,57.3493976 C73.373494,57.3493976 75.1008916,53.9759036 78.4617349,53.9759036 C81.8225783,53.9759036 81.9871205,55.089241 84.3373494,56.2026627"/>
    <path fill="#333" fill-rule="nonzero" d="M75.1080602,58.0229157 C75.1080602,58.0229157 74.5221687,62.5071325 77.4515422,62.4080361 C80.9411687,62.2841446 80.9666386,62.1354578 81.8072289,58.3697108 C81.8072289,58.3697108 78.4066627,54.4181687 75.1080602,58.0229157 Z"/>
    <path stroke="#333" stroke-linecap="round" stroke-linejoin="round" stroke-width="2.004" d="M53.1325301,60.7228916 C53.1325301,60.7228916 52.751241,56.5060241 49.2853976,56.5060241 C44.5485904,56.5060241 44.3752771,59.1000723 42.1686747,59.1000723"/>
    <path stroke="#333" stroke-linecap="round" stroke-linejoin="round" stroke-width="2.004" d="M53.9759036,57.3493976 C53.9759036,57.3493976 52.3813373,53.9759036 49.2790723,53.9759036 C46.1767229,53.9759036 46.0248313,55.089241 43.8554217,56.2026627"/>
    <path fill="#333" fill-rule="nonzero" d="M52.2413373,58.0229157 C52.2413373,58.0229157 52.8272289,62.5071325 49.8978554,62.4080361 C46.4082289,62.2841446 46.382759,62.1354578 45.5421687,58.3697108 C45.5421687,58.3697108 48.9427349,54.4181687 52.2413373,58.0229157 Z"/>
    <path stroke="#333" stroke-linecap="round" stroke-linejoin="round" stroke-width="2.004" d="M70 50.0636627C70 50.0636627 80.3761928 45.6685904 83.5850602 47.8235783 86.7814458 49.9785663 86.8674699 50.6024096 86.8674699 50.6024096M54.8192771 49.5404337C54.8192771 49.5404337 45.0085663 46.031494 41.9486386 47.6602169 38.8886265 49.2890241 38.7951807 49.7590361 38.7951807 49.7590361"/>
    <path fill="#333" fill-rule="nonzero" d="M44.2766867,9.27710843 C50.7093494,4.18705422 67.3782048,-8.34697711 90.9561446,9.27719277 C114.534337,26.9013373 108.075783,67.6489277 113.012048,82.2289157 C119.184699,100.44494 122.761446,106.686747 119.337349,118.072289 C115.736988,130.039759 125.01241,135.598434 125.01241,135.598434 L98.7126506,135.598434 C98.7126506,135.598434 103.314096,136.658554 100.085663,122.620602 C96.8572289,108.583494 85.6496386,102.113133 89.1875904,88.0136145 C92.7255422,73.9141807 96.8572289,51.002759 90.9561446,41.5991446 C86.8674699,32.8916506 80.1200602,16.4458675 56.0839157,22.7711687 L50.601988,25.3012892 C50.601988,25.3012892 38.4683735,26.0959157 34.9799277,49.7591205 C34.9799277,78.4338193 48.1039157,88.5542169 52.2887349,92.7710843 C54.5896265,98.2681928 53.3129277,113.919518 46.1876024,119.465542 C46.1876024,119.465542 53.2758193,108.682169 48.5256024,100.399398 C48.5256024,100.399398 42.6990723,129.757229 34.9799277,135.611084 L14.3953735,135.611084 C14.3953735,135.611084 14.9149759,117.715542 21.1001928,107.855663 C26.9638313,98.5144578 23.947,87.4173494 23.1923494,64.5180723 C22.6975422,49.469759 23.0489759,12.8019036 44.2766867,9.27710843 Z"/>
    <path fill="#333" fill-rule="nonzero" d="M86.8708434,82.6662048 C86.8708434,82.6662048 86.6481928,98.7253012 89.963494,98.5524096 C93.2787952,98.3803614 92.1773494,73.373494 92.1773494,73.373494 C92.1773494,73.373494 89.1218072,79.289253 86.8708434,82.6662048 Z"/>
    <path stroke="#333" stroke-linecap="round" stroke-linejoin="round" stroke-width="2.004" d="M89.3840964,99.0803614 C89.3840964,99.0803614 78.4242892,109.372048 73.2657952,113.561928 C68.1073012,117.752651 67.8475422,135.635542 67.8475422,135.635542"/>
    <path stroke="#333" stroke-linecap="round" stroke-linejoin="round" stroke-width="2.004" d="M70.6436627 117.653976C70.6436627 117.653976 75.8144699 114.733373 76.6062289 120.242289 77.3855904 125.751205 86.2425301 133.76241 86.2425301 133.76241L97.6854217 112.021928M46.9785181 103.123494C46.9785181 103.123494 60.4252651 113.685904 64.581747 113.55012 68.7258313 113.414337 68.5773976 126.515301 68.5773976 126.515301"/>
    <path stroke="#333" stroke-linecap="round" stroke-linejoin="round" stroke-width="2.004" d="M64.5820843,113.55012 C64.5820843,113.55012 60.8585904,115.965542 59.8441807,120.242289 C58.8298554,124.519036 54.6609759,130.989398 54.6609759,130.989398 L41.1029036,120.944819"/>
    <path fill="#333" fill-rule="nonzero" d="M51.5431084,93.8801205 L51.5431084,100.423855 C51.5431084,100.423855 41.522988,90.4045783 42.7476506,84.6612048 C42.7476506,84.6612048 49.2050241,91.5878313 51.5431084,93.8801205 Z"/>
    <path stroke="#333" stroke-linecap="round" stroke-linejoin="round" stroke-width="2.004" d="M110.167349 107.88012C110.167349 107.88012 132.038554 115.719277 135.328554 122.275663 138.619398 128.832048 139.645783 135.622892 139.645783 135.622892M29.5488554 107.88012C29.5488554 107.88012 7.67781928 115.719277 4.38730482 122.275663 1.09675663 128.832048.0700084337 135.622892.0700084337 135.622892"/>
  </g>
</svg>
