<svg width="140" height="141" viewBox="0 0 140 141" fill="none" xmlns="http://www.w3.org/2000/svg">
<g clip-path="url(#clip0_423_549)">
<path d="M100.675 57.3517C99.5777 65.6931 100.109 67.0971 98.9406 74.0463C97.7725 80.9955 90.8941 87.874 84.1691 94.776C80.488 98.5514 77.562 100.51 73.1495 100.51C70.972 100.583 68.8127 100.091 66.8817 99.0818C64.9507 98.0729 63.3137 96.5814 62.1299 94.7524C56.3723 86.6941 50.6265 84.3934 49.4703 74.0463C48.7034 67.1797 48.9275 68.8197 47.8303 58.4018C46.4027 44.8691 47.1696 22.7591 74.2349 21.9214C100.097 21.1192 102.952 40.5746 100.675 57.3517Z" stroke="#333333" stroke-width="1.5" stroke-linecap="round" stroke-linejoin="round"/>
<path d="M79.8391 61.2924C79.8391 61.2924 81.9746 58.6496 84.3697 58.2366C85.5618 58.1509 86.7587 58.3167 87.8826 58.7232C89.0066 59.1297 90.0326 59.7678 90.8941 60.5963" stroke="#333333" stroke-width="1.5" stroke-linecap="round" stroke-linejoin="round"/>
<path d="M82.4112 59.1922C82.4112 59.1922 81.4319 61.2098 82.305 61.9413C82.8253 62.4032 83.4969 62.6583 84.1927 62.6583C84.8885 62.6583 85.5601 62.4032 86.0804 61.9413C86.368 61.5185 86.5218 61.019 86.5218 60.5077C86.5218 59.9965 86.368 59.497 86.0804 59.0743C84.8885 58.635 83.5724 58.6773 82.4112 59.1922Z" fill="#333333"/>
<path d="M78.0222 54.7325C77.9121 54.5396 77.8765 54.313 77.9222 54.0956C77.9678 53.8782 78.0915 53.685 78.27 53.5527C80.0515 52.2903 86.8709 50.0958 88.1687 49.7654C90.9295 49.0693 94.0679 53.1751 94.0679 53.1751C92.8395 52.7846 91.5315 52.7155 90.2688 52.9746C88.4283 53.4465 80.7358 54.5201 79.0958 55.169C78.8923 55.2419 78.6684 55.232 78.4721 55.1415C78.2757 55.0511 78.1227 54.8873 78.0458 54.6853L78.0222 54.7325Z" fill="#333333"/>
<path d="M66.2947 61.2924C66.2947 61.2924 64.1474 58.6496 61.7523 58.2366C60.5601 58.1501 59.363 58.3156 58.239 58.7221C57.1149 59.1286 56.0889 59.7672 55.2278 60.5963" stroke="#333333" stroke-width="1.5" stroke-linecap="round" stroke-linejoin="round"/>
<path d="M61.5399 59.1923C61.5399 59.1923 62.5192 61.2098 61.6461 61.9413C61.1239 62.404 60.4503 62.6596 59.7525 62.6596C59.0547 62.6596 58.3811 62.404 57.8589 61.9413C57.5713 61.5185 57.4175 61.019 57.4175 60.5078C57.4175 59.9965 57.5713 59.497 57.8589 59.0743C59.0547 58.6343 60.3748 58.6766 61.5399 59.1923Z" fill="#333333"/>
<path d="M70.5303 54.3549C70.633 54.1561 70.6598 53.9265 70.6055 53.7094C70.5512 53.4922 70.4196 53.3023 70.2353 53.1751C68.383 51.9953 61.481 50.1429 60.1596 49.8716C57.3752 49.3053 54.461 53.5645 54.461 53.5645C55.6658 53.1153 56.9653 52.9813 58.2365 53.1751C60.1006 53.5645 67.8403 54.2606 69.5038 54.8387C69.7119 54.8984 69.935 54.8752 70.1263 54.774C70.3177 54.6728 70.4625 54.5015 70.5303 54.2959V54.3549Z" fill="#333333"/>
<path d="M69.5628 72.3002C69.6041 72.7679 69.738 73.2228 69.9569 73.6383C70.1757 74.0538 70.475 74.4216 70.8373 74.7202C71.1997 75.0189 71.6179 75.2425 72.0675 75.378C72.5171 75.5134 72.9892 75.5581 73.4562 75.5093" stroke="#333333" stroke-width="1.5" stroke-linecap="round" stroke-linejoin="round"/>
<path d="M69.3032 29.0712L75.4973 32.6107L73.468 29.0712L82.0926 32.6107C82.0926 32.6107 77.562 31.2539 78.6593 32.3039C79.7565 33.354 87.685 33.3186 87.685 33.3186L88.794 28.8824L94.2094 33.3422L93.2184 28.5403L97.0528 38.0143L100.05 41.5538V62.3896C100.05 62.3896 101.737 54.4965 105.04 55.5466C105.685 54.2935 106.059 52.9187 106.138 51.5115L107.235 53.4347V46.0371L108.344 48.149C108.837 40.9394 107.708 33.7108 105.04 26.9947C101.737 19.078 82.9538 12.0344 73.6568 14.8424C65.9908 15.398 58.523 17.5351 51.7237 21.1191C40.9165 27.0183 41.1643 39.5599 40.067 41.6718L41.3648 39.5245L41.0817 46.9456L42.1789 45.9428C42.1789 45.9428 44.0548 53.7414 44.4796 55.5466C46.6859 55.5466 48.1724 59.7822 48.1724 59.7822C48.1724 59.7822 48.6798 46.863 49.4703 40.6807C51.5586 24.4934 56.1363 30.9353 54.4373 32.2803L55.6172 32.8584L58.9207 28.6228V30.7348L62.0237 27.7852L66.625 30.7348L65.5278 27.9032L69.3032 29.0712Z" fill="#333333"/>
<path d="M102.881 55.4758C102.881 55.4758 106.869 53.7769 106.185 58.2484C105.5 62.72 102.881 70.3653 99.5777 73.6688" stroke="#333333" stroke-width="1.5" stroke-linecap="round" stroke-linejoin="round"/>
<path d="M46.4971 55.464C46.4971 55.464 43.17 53.5173 43.2054 58.0479C43.2408 62.5784 43.4295 68.159 47.8303 71.4625" stroke="#333333" stroke-width="1.5" stroke-linecap="round" stroke-linejoin="round"/>
<path d="M90.6582 49.5295C90.6582 49.5295 94.1269 50.7093 95.0236 52.951C95.0036 52.4234 94.8689 51.9066 94.629 51.4364C94.389 50.9662 94.0494 50.554 93.634 50.2283C93.2185 49.9027 92.7371 49.6715 92.2231 49.5508C91.7092 49.4301 91.1752 49.4228 90.6582 49.5295Z" fill="#333333"/>
<path d="M93.2773 49.0929C93.2773 49.0929 96.4157 50.9571 96.8168 53.3875C96.9133 52.866 96.8944 52.3297 96.7615 51.8163C96.6287 51.3029 96.3851 50.8247 96.0478 50.4155C95.7105 50.0062 95.2877 49.6758 94.8091 49.4473C94.3305 49.2188 93.8077 49.0979 93.2773 49.0929Z" fill="#333333"/>
<path d="M58.2954 49.5295C58.2954 49.5295 54.8149 50.7093 53.9182 52.951C53.9399 52.423 54.0761 51.906 54.3174 51.4358C54.5587 50.9656 54.8993 50.5536 55.3156 50.2281C55.732 49.9026 56.2141 49.6716 56.7286 49.551C57.2432 49.4303 57.7778 49.423 58.2954 49.5295Z" fill="#333333"/>
<path d="M55.6644 49.0929C55.6644 49.0929 52.5379 50.9571 52.1249 53.3875C52.0285 52.866 52.0474 52.3297 52.1802 51.8163C52.3131 51.3029 52.5567 50.8247 52.894 50.4155C53.2313 50.0062 53.6541 49.6758 54.1327 49.4473C54.6113 49.2188 55.1341 49.0979 55.6644 49.0929Z" fill="#333333"/>
<path d="M26.912 34.0265C23.6085 32.9293 20.305 24.1159 23.6085 24.1159C26.912 24.1159 31.3128 24.1159 32.4218 25.225" stroke="#333333" stroke-width="1.5" stroke-linecap="round" stroke-linejoin="round"/>
<path d="M12.6477 92.4517C13.0253 96.2389 13.568 101.749 18.0985 104.498" stroke="#333333" stroke-width="1.5" stroke-linecap="round" stroke-linejoin="round"/>
<path d="M24.7056 48.3496C24.8236 50.4851 19.2076 51.6414 15.9041 59.3575C14.1698 63.4043 18.0986 64.8555 17.0013 68.159" stroke="#333333" stroke-width="1.5" stroke-linecap="round" stroke-linejoin="round"/>
<path d="M32.7048 25.461C32.7048 25.461 40.126 21.9215 43.4295 24.116" stroke="#333333" stroke-width="1.5" stroke-linecap="round" stroke-linejoin="round"/>
<path d="M42.3206 22.9833C42.3206 22.9833 44.5268 20.777 50.0366 20.777C49.4037 22.653 48.6672 24.4924 47.8304 26.2868" stroke="#333333" stroke-width="1.5" stroke-linecap="round" stroke-linejoin="round"/>
<path d="M43.4296 24.1631C43.4296 24.1631 50.0366 26.3694 47.8303 31.8792" stroke="#333333" stroke-width="1.5" stroke-linecap="round" stroke-linejoin="round"/>
<path d="M25.1895 43.0404C25.1895 43.0404 15.9042 45.0225 14.7952 47.217" stroke="#333333" stroke-width="1.5" stroke-linecap="round" stroke-linejoin="round"/>
<path d="M25.5905 40.5981C25.5905 40.5981 17.426 39.2885 15.9041 40.5981" stroke="#333333" stroke-width="1.5" stroke-linecap="round" stroke-linejoin="round"/>
<path d="M89.6671 89.0538L89.9738 105.571C89.9738 105.571 92.3335 117.37 71.0966 119.729" stroke="#333333" stroke-width="1.5" stroke-linecap="round" stroke-linejoin="round"/>
<path d="M55.7588 87.874C55.7588 87.874 56.1009 99.1059 56.1009 101.253C56.1009 103.401 60.4781 112.65 60.4781 112.65" stroke="#333333" stroke-width="1.5" stroke-linecap="round" stroke-linejoin="round"/>
<path d="M32.4217 113.299C32.4217 113.299 34.6161 131.528 13.6978 140.825" stroke="#333333" stroke-width="1.5" stroke-linecap="round" stroke-linejoin="round"/>
<path d="M39.017 115.506C39.017 115.506 40.1261 132.023 26.912 140.825" stroke="#333333" stroke-width="1.5" stroke-linecap="round" stroke-linejoin="round"/>
<path d="M27.4429 45.9074L24.3989 48.562C23.0303 46.5681 21.355 40.6336 23.5612 38.4391C25.2392 36.5331 26.6593 34.4149 27.785 32.1388" stroke="#333333" stroke-width="1.5" stroke-linecap="round" stroke-linejoin="round"/>
<path d="M28.0092 102.291C28.0092 102.291 23.1719 99.3419 22.5112 97.8907C21.8505 96.4395 19.1841 93.4899 19.1841 89.0538C19.1841 84.6176 22.2398 83.4968 23.5848 86.8593C25.7911 92.3573 26.8884 93.4663 29.0947 95.6608C30.7464 97.3244 35.7017 98.7756 34.5927 96.7698C33.4836 94.7641 30.1919 91.26 28.0328 86.8593C26.5816 83.8861 28.0328 82.4467 29.6846 82.6827C31.3363 82.9187 33.3656 85.6205 35.7017 87.9565C38.1249 90.3233 40.3321 92.9017 42.297 95.6608C43.3352 97.053 44.6566 98.4098 46.7095 96.7698C48.7624 95.1299 47.8068 94.5636 47.6062 93.3012C47.4056 92.0387 45.0578 92.3573 44.5032 89.0538C43.9487 85.7502 44.5032 83.5558 50.013 86.3402C51.8064 87.2604 54.9329 89.7735 54.4138 93.4191C54.0717 95.8378 54.4138 98.9172 51.1103 102.221C49.6473 103.695 58.4488 110.668 59.9236 112.131C68.7252 120.945 69.8224 118.738 95.9556 140.754" stroke="#333333" stroke-width="1.5" stroke-linecap="round" stroke-linejoin="round"/>
<path d="M19.1841 89.0538C19.1841 89.0538 15.8806 90.9415 15.8806 93.3012C15.8806 95.6608 15.8806 97.8671 17.5323 100.073C19.1841 102.28 25.1658 105.383 25.1658 105.383L18.0868 104.474L14.7833 101.914C14.7833 101.914 14.9013 107.082 16.9896 107.813C20.2931 108.91 23.3017 111.907 25.8029 112.214C34.6045 113.311 37.4597 113.972 39.0052 115.517C46.7657 124.614 55.236 133.08 64.3362 140.837" stroke="#333333" stroke-width="1.5" stroke-linecap="round" stroke-linejoin="round"/>
<path d="M114.75 110.291C114.75 110.291 126.147 111.105 131.268 116.603C136.388 122.101 139.22 140.825 139.22 140.825" stroke="#333333" stroke-width="1.5" stroke-linecap="round" stroke-linejoin="round"/>
<path d="M29.9086 69.445C29.9086 68.2652 28.7288 67.1443 26.9118 66.3892C25.0949 65.6341 19.6795 67.569 17.0013 68.159C11.5033 69.445 11.5033 72.8783 11.5033 75.2379C11.5033 75.7925 9.87509 77.1965 9.14359 78.6948C8.4121 80.1932 9.75711 80.9247 9.14359 82.1399C8.4003 83.6265 5.6041 85.5497 7.96376 87.8975C8.31771 88.2515 6.17042 92.3573 7.96376 93.6551C10.3234 95.3186 8.94302 108.993 7.96376 114.361C5.6631 127.021 3.36243 140.825 3.36243 140.825" stroke="#333333" stroke-width="1.5" stroke-linecap="round" stroke-linejoin="round"/>
<path d="M13.804 75.1908C16.0048 73.7506 18.3259 72.5032 20.7414 71.4625C24.0095 70.1293 31.0649 67.1444 31.0649 74.0464" stroke="#333333" stroke-width="1.5" stroke-linecap="round" stroke-linejoin="round"/>
<path d="M12.6477 80.9483C12.6477 80.9483 23.5965 74.9194 27.3248 73.8694C31.0531 72.8193 32.2093 74.0109 32.2093 77.4088V83.485" stroke="#333333" stroke-width="1.5" stroke-linecap="round" stroke-linejoin="round"/>
<path d="M12.6477 92.4517L16.6473 90.1864L19.2076 87.9802" stroke="#333333" stroke-width="1.5" stroke-linecap="round" stroke-linejoin="round"/>
<path d="M23.6084 86.8829C23.6084 86.8829 29.9087 91.3662 29.9087 90.1864" stroke="#333333" stroke-width="1.5" stroke-linecap="round" stroke-linejoin="round"/>
<path d="M24.151 112.013L22.5347 134.489" stroke="#333333" stroke-width="1.5" stroke-linecap="round" stroke-linejoin="round"/>
<path d="M23.0893 80.9483L26.912 79.4028L27.962 83.249C27.962 83.249 26.4636 80.8894 24.7057 80.8894C22.9477 80.8894 12.2349 86.1396 12.2349 86.1396" stroke="#333333" stroke-width="1.5" stroke-linecap="round" stroke-linejoin="round"/>
<path d="M13.804 68.6899C13.804 68.6899 11.1965 57.6467 17.6738 56.0657" stroke="#333333" stroke-width="1.5" stroke-linecap="round" stroke-linejoin="round"/>
<path d="M64.3479 81.9748C65.3471 82.6829 66.5825 82.9748 67.793 82.7889C70.1527 82.6237 69.7751 83.6265 73.4326 83.131C75.0996 82.7743 76.8012 82.6041 78.5059 82.6237C79.5636 82.6769 80.6168 82.4532 81.5616 81.9748" stroke="#333333" stroke-width="1.5" stroke-linecap="round" stroke-linejoin="round"/>
<path d="M67.7931 85.0424C67.7931 85.0424 70.8489 88.0038 76.8424 85.0424" stroke="#333333" stroke-width="1.5" stroke-linecap="round" stroke-linejoin="round"/>
<path d="M7.38574 118.55C7.38574 118.55 4.40077 119.8 3.53949 125.817C2.65683 130.885 1.47493 135.897 0 140.825" stroke="#333333" stroke-width="1.5" stroke-linecap="round" stroke-linejoin="round"/>
<path d="M54.579 37.1412C54.579 37.1412 56.9386 30.0623 69.9168 32.4219C82.8949 34.7816 94.6932 35.9614 92.3335 43.0404C92.3335 43.0404 96.5927 41.6836 95.0472 38.8166C95.6366 39.7956 96.0146 40.8871 96.1568 42.0209C96.2991 43.1548 96.2024 44.3058 95.873 45.4C95.873 45.4 98.7164 45.0815 98.4805 39.9256C98.2445 34.7698 100.592 27.7026 84.0747 25.3429C67.5571 22.9833 48.6798 25.3429 54.579 37.1412Z" fill="#333333"/>
<path d="M54.5789 37.1412C53.5247 37.1776 52.5069 37.5364 51.663 38.1693C50.8191 38.8023 50.1897 39.6788 49.8596 40.6807C47.9601 46.3911 49.8596 47.7597 49.8596 47.7597C49.8596 47.7597 47.4999 47.6771 48.1016 43.5949C48.7033 39.5127 49.8596 26.5228 53.3991 28.8824C56.9386 31.2421 54.5789 37.1412 54.5789 37.1412Z" fill="#333333"/>
<path d="M50.0366 22.181C50.0366 22.181 51.0395 15.9043 59.2983 13.5446C67.5571 11.185 83.8624 11.3266 86.9181 15.3852C89.9739 19.4438 88.794 22.9833 88.794 22.9833C88.794 22.9833 86.4344 17.0841 80.5352 15.9043C74.6361 14.7245 50.0366 22.181 50.0366 22.181Z" fill="#333333"/>
<path d="M54.3312 37.0469C54.3312 37.0469 48.6798 35.9614 47.5 40.6807C46.3202 45.4001 49.8596 50.1194 53.3991 50.1194C53.3991 50.1194 48.6798 47.7597 49.8596 43.0404C51.0395 38.3211 54.3312 37.0469 54.3312 37.0469Z" fill="#333333"/>
<path d="M89.9739 96.1328C89.9739 96.1328 92.3335 93.7731 97.0528 96.1328C101.772 98.4924 105.312 112.65 104.132 117.37C102.952 122.089 100.592 123.269 94.6932 126.808C91.4672 128.829 87.932 130.308 84.2281 131.186" stroke="#333333" stroke-width="1.5" stroke-linecap="round" stroke-linejoin="round"/>
<path d="M68.5128 119.458C68.7369 119.729 87.8502 123.163 95.991 115.01" stroke="#333333" stroke-width="1.5" stroke-linecap="round" stroke-linejoin="round"/>
<path d="M93.5134 94.9529C93.5134 94.9529 105.477 90.5521 108.851 97.3125C111.211 102.032 114.75 116.19 107.671 129.168C103.117 137.521 98.2327 140.966 98.2327 140.966" stroke="#333333" stroke-width="1.5" stroke-linecap="round" stroke-linejoin="round"/>
<path d="M111.081 104.392C111.081 104.392 113.57 104.392 114.75 111.471C115.93 118.55 114.75 130.348 112.391 133.887C110.625 136.407 108.652 138.775 106.492 140.966" stroke="#333333" stroke-width="1.5" stroke-linecap="round" stroke-linejoin="round"/>
<path d="M57.3043 134.501C57.3043 134.501 42.1199 132.566 37.731 125.558" stroke="#333333" stroke-width="1.5" stroke-linecap="round" stroke-linejoin="round"/>
<path d="M40.0906 128.165C40.0906 128.165 46.3201 138.607 51.0394 140.966" stroke="#333333" stroke-width="1.5" stroke-linecap="round" stroke-linejoin="round"/>
<path d="M26.2631 112.65C26.2631 112.65 28.8351 124.307 29.9087 125.558" stroke="#333333" stroke-width="1.5" stroke-linecap="round" stroke-linejoin="round"/>
<path d="M34.7932 132.483C34.7932 132.483 38.0613 139.786 40.421 140.966" stroke="#333333" stroke-width="1.5" stroke-linecap="round" stroke-linejoin="round"/>
<path d="M56.1009 97.8671L53.3636 99.1177" stroke="#333333" stroke-width="1.5" stroke-linecap="round" stroke-linejoin="round"/>
</g>
<defs>
<clipPath id="clip0_423_549">
<rect width="140" height="140" fill="white" transform="translate(0 0.541016)"/>
</clipPath>
</defs>
</svg>
