<svg width="117" height="128" viewBox="0 0 117 128" fill="none" xmlns="http://www.w3.org/2000/svg">
<g clip-path="url(#clip0)">
<path d="M27.1022 49.8886C27.3329 55.3192 28.8929 65.704 33.6279 72.4868C35.8141 75.6233 39.3845 77.9729 44.5808 82.9159C46.767 84.9995 48.9862 86.2408 58.3242 86.7284C64.3445 87.0498 66.5746 84.5008 68.7499 82.8494C74.2538 78.6489 76.451 76.5542 79.7577 72.3649C83.5698 67.5327 87.4149 55.5963 86.0856 44.9123C83.4929 23.9987 71.0679 19.0889 59.4118 17.6925C46.6462 16.163 26.0366 24.6858 27.1022 49.8886Z" stroke="#333333" stroke-width="1.5" stroke-miterlimit="10" stroke-linecap="round" stroke-linejoin="round"/>
<path d="M75.0777 47.4835C75.0777 47.4835 71.3755 42.6291 64.9927 47.3837" stroke="#333333" stroke-width="1.5" stroke-miterlimit="10" stroke-linecap="round" stroke-linejoin="round"/>
<path d="M66.5087 46.0538C66.5087 46.0538 65.7397 48.9132 68.8048 48.9132C72.6059 48.9132 71.1008 46.0538 71.1008 46.0538C71.1008 46.0538 69.5738 44.1475 66.5087 46.0538Z" fill="#333333"/>
<path d="M38.2639 47.4835C38.2639 47.4835 41.9662 42.6291 48.349 47.3837" stroke="#333333" stroke-width="1.5" stroke-miterlimit="10" stroke-linecap="round" stroke-linejoin="round"/>
<path d="M46.8328 46.0538C46.8328 46.0538 47.6019 48.9132 44.5368 48.9132C40.7357 48.9132 42.2407 46.0538 42.2407 46.0538C42.2407 46.0538 43.7678 44.1475 46.8328 46.0538Z" fill="#333333"/>
<path d="M59.3789 46.6744C59.4777 45.4664 59.9501 44.4024 60.6203 43.8372C61.8287 42.8176 64.3884 41.4543 69.398 41.4543C74.1 41.4543 77.3079 42.6513 79.1535 43.6488C80.318 44.2694 81.076 46.1868 80.7904 48.1263C79.6808 55.5187 75.0777 56.6713 69.398 56.6713C65.8715 56.6713 62.422 55.5076 60.1259 52.0275C58.9394 50.221 59.291 47.8049 59.3789 46.6744Z" stroke="#333333" stroke-width="1.5" stroke-miterlimit="10" stroke-linecap="round" stroke-linejoin="round"/>
<path d="M53.1279 46.6744C53.0291 45.4664 52.5567 44.4024 51.8865 43.8372C50.6781 42.8176 48.1184 41.4543 43.1088 41.4543C38.4068 41.4543 35.1989 42.6513 33.3533 43.6488C32.1888 44.2694 31.4307 46.1868 31.7164 48.1263C32.826 55.5187 37.4291 56.6713 43.1088 56.6713C46.6353 56.6713 50.0848 55.5076 52.3809 52.0275C53.5674 50.221 53.2158 47.8049 53.1279 46.6744Z" stroke="#333333" stroke-width="1.5" stroke-miterlimit="10" stroke-linecap="round" stroke-linejoin="round"/>
<path d="M53.2268 45.7104C53.2268 45.7104 55.391 43.7819 59.3569 45.7104" stroke="#333333" stroke-width="1.5" stroke-miterlimit="10" stroke-linecap="round" stroke-linejoin="round"/>
<path d="M85.1959 44.7349L80.8345 44.5354V46.087L85.2069 46.4084L85.1959 44.7349Z" fill="#333333"/>
<path d="M45.8662 69.0623C47.0527 69.4058 52.6995 69.9821 57.3465 69.9821C59.4338 69.9821 62.5648 69.9821 66.7395 69.0623C66.7395 69.0623 64.1578 74.9362 56.3028 74.6038C49.5245 74.3156 45.8662 69.0623 45.8662 69.0623Z" stroke="#333333" stroke-width="1.5" stroke-miterlimit="10" stroke-linecap="round" stroke-linejoin="round"/>
<path d="M60.4225 59.0652C60.4225 59.0652 58.6647 61.4813 56.5444 61.2485" stroke="#333333" stroke-width="1.5" stroke-miterlimit="10" stroke-linecap="round" stroke-linejoin="round"/>
<path d="M64.6301 36.7995C64.6301 36.7995 71.1667 35.1925 76.1104 36.2232C78.2636 36.6776 79.7467 37.9189 79.7467 37.9189" stroke="#333333" stroke-width="1.5" stroke-miterlimit="10" stroke-linecap="round" stroke-linejoin="round"/>
<path d="M49.7113 36.8772C49.7113 36.8772 42.7243 35.126 37.44 36.2454C35.144 36.7331 33.551 38.0852 33.551 38.0852" stroke="#333333" stroke-width="1.5" stroke-miterlimit="10" stroke-linecap="round" stroke-linejoin="round"/>
<path d="M32.7051 44.1585L25.6301 43.9812V45.3333L32.738 45.5993L32.7051 44.1585Z" fill="#333333"/>
<path d="M63.0151 13.9022C63.0151 13.9022 56.3027 32.4994 40.7027 39.0605C25.1027 45.6217 24.5534 70.4143 33.5729 78.4162C33.5729 78.4162 14.1717 59.9631 25.1027 32.3886C36.0337 4.8141 59.4008 8.64882 63.0151 13.9022Z" fill="#333333"/>
<path d="M63.0151 13.9021C63.0151 13.9021 79.5819 19.5877 83.0315 33.4969C88.5025 55.552 79.9664 80.3225 79.9664 80.3225C79.9664 80.3225 88.0301 57.824 88.8101 51.7284C89.5901 45.6327 85.6351 9.74601 63.0151 13.9021Z" fill="#333333"/>
<path d="M87.1403 61.2708C87.1403 61.2708 90.1505 52.4265 88.2279 47.3838C88.2279 47.3838 89.733 43.5269 92.2488 43.7153C91.5786 35.5804 89.6781 27.2571 86.2505 20.4965C78.5383 5.25734 63.0152 7.77318 63.0152 7.77318L59.0493 18.0804C66.7065 16.9721 74.2758 20.6627 81.0212 29.1633C85.4155 34.7048 85.789 51.1853 84.3169 61.304C82.8448 71.4228 72.2324 80.1451 72.2324 80.1451L76.462 84.2347C78.9228 85.066 81.0212 86.7949 84.3169 87.9032C86.5031 85.6977 88.8871 77.7069 90.6778 73.2072C92.062 69.7049 91.9192 61.6698 92.3147 56.361C90.6448 60.0849 88.4806 62.8335 87.1403 61.2708Z" fill="#333333"/>
<path d="M88.228 47.3727C88.228 47.3727 90.3702 41.8644 93.7978 44.3027C97.2364 46.7409 90.1505 64.773 87.1294 61.2707C87.1404 61.2707 90.1505 52.4265 88.228 47.3727Z" stroke="#333333" stroke-width="1.5" stroke-miterlimit="10" stroke-linecap="round" stroke-linejoin="round"/>
<path d="M63.0152 7.77324C63.0152 7.77324 39.8459 -0.738492 29.1895 19.1333C19.1924 37.786 18.9617 63.2547 28.2887 86.7839C34.8803 84.5673 34.6056 84.7446 37.0774 83.459L42.5814 82.0182C42.5814 82.0182 34.9242 75.4016 29.4642 64.3741C25.2126 55.7848 25.8059 42.6736 30.9143 38.0852C36.0228 33.4969 61.1696 14.7555 61.1696 14.7555L63.0152 7.77324Z" fill="#333333"/>
<path d="M66.7393 14.7554C66.7393 14.7554 63.9489 24.3422 59.0492 30.2716C53.5562 36.9214 49.1619 36.9214 49.1619 36.9214C49.1619 36.9214 61.9055 20.5518 59.3458 13.2925L66.7393 14.7554Z" fill="#333333"/>
<path d="M61.8506 13.9021C61.8506 13.9021 73.6495 23.0234 78.5821 31.5241C83.5148 40.0247 84.3168 46.8962 84.3168 46.8962C84.3168 46.8962 90.1503 15.9192 61.8506 13.9021Z" fill="#333333"/>
<path d="M25.0917 32.3995C25.0917 32.3995 20.7962 32.8207 25.0917 20.4631C29.3872 8.10558 43.6689 -5.61516 66.7393 3.46181C89.8098 12.5388 90.8424 19.8646 94.7205 26.1709C98.5985 32.4882 100.477 54.5877 98.4447 60.1624C96.4123 65.7371 88.8979 69.8933 88.8979 69.8933L90.0405 60.6944C90.0405 60.6944 95.2478 51.429 94.7315 46.9404C94.2151 42.4518 90.0405 43.6709 90.0405 43.6709C90.0405 43.6709 87.272 29.4182 79.7576 22.6354C72.2433 15.8526 49.5024 9.2028 38.901 17.515C28.2996 25.8273 25.0917 32.3995 25.0917 32.3995Z" fill="#333333"/>
<path d="M82.1196 13.2925C82.1196 13.2925 82.8117 8.92577 85.2067 10.1781C87.6016 11.4305 84.8112 14.5892 84.8112 14.5892L82.1196 13.2925Z" fill="#333333"/>
<path d="M44.7676 111.177C51.7766 116.83 55.391 119.368 61.2465 122.26C61.2465 122.26 78.8239 111.177 89.2605 97.3237C89.2605 97.3237 72.9904 91.228 73.331 87.9031L73.1552 80.145" stroke="#333333" stroke-width="1.5" stroke-miterlimit="10" stroke-linecap="round" stroke-linejoin="round"/>
<path d="M44.5918 82.927L44.5699 85.9637C44.482 88.535 42.944 90.7073 40.7687 92.0372C39.033 93.1123 34.32 95.9606 32.6831 96.7697" stroke="#333333" stroke-width="1.5" stroke-miterlimit="10" stroke-linecap="round" stroke-linejoin="round"/>
<path d="M14.0071 104.528C14.0071 104.528 9.61271 105.636 6.31693 110.069C3.2189 114.237 0.823975 125.586 0.823975 125.586" stroke="#333333" stroke-width="1.5" stroke-miterlimit="10" stroke-linecap="round" stroke-linejoin="round"/>
<path d="M89.2605 97.3237C89.2605 97.3237 106.289 105.636 111.782 112.286C115.088 116.287 116.176 125.585 116.176 125.585" stroke="#333333" stroke-width="1.5" stroke-miterlimit="10" stroke-linecap="round" stroke-linejoin="round"/>
<path d="M84.1522 95.229C84.1522 95.229 63.9161 117.406 53.2488 117.063" stroke="#333333" stroke-width="1.5" stroke-miterlimit="10" stroke-linecap="round" stroke-linejoin="round"/>
<path d="M45.185 111.455C45.185 111.455 36.0997 114.181 32.749 118.769L11.8098 102.012C11.8098 102.012 23.5538 94.7969 28.6732 95.2291C33.7816 95.6614 45.185 111.455 45.185 111.455Z" stroke="#333333" stroke-width="1.5" stroke-miterlimit="10" stroke-linecap="round" stroke-linejoin="round"/>
<path d="M38.2639 114.38C38.2639 114.38 54.6549 123.369 61.2465 122.26" stroke="#333333" stroke-width="1.5" stroke-miterlimit="10" stroke-linecap="round" stroke-linejoin="round"/>
<path d="M32.1337 108.961C33.6505 108.961 34.8802 107.72 34.8802 106.19C34.8802 104.66 33.6505 103.419 32.1337 103.419C30.6168 103.419 29.3872 104.66 29.3872 106.19C29.3872 107.72 30.6168 108.961 32.1337 108.961Z" stroke="#333333" stroke-width="1.5" stroke-miterlimit="10" stroke-linecap="round" stroke-linejoin="round"/>
<path d="M104.421 106.068V126.605" stroke="#333333" stroke-width="1.5" stroke-miterlimit="10" stroke-linecap="round" stroke-linejoin="round"/>
<path d="M10.6562 106.068L11.8098 126.694" stroke="#333333" stroke-width="1.5" stroke-miterlimit="10" stroke-linecap="round" stroke-linejoin="round"/>
</g>
<defs>
<clipPath id="clip0">
<rect width="117" height="127" fill="white" transform="translate(0 0.524902)"/>
</clipPath>
</defs>
</svg>
