<svg width="125" height="122" viewBox="0 0 125 122" fill="none" xmlns="http://www.w3.org/2000/svg">
<path d="M88.5574 39.409C88.5574 47.9023 88.5252 49.0941 87.5162 54.5272C85.4338 65.7586 81.2689 72.201 78.156 75.4223C70.3307 83.4968 68.7957 84.0122 61.5072 84.0122C54.2187 84.0122 52.147 84.0122 42.776 74.3485C37.3981 68.7973 35.4874 61.4636 34.4248 52.5516C33.7163 46.6245 34.253 43.618 34.457 40.8156C35.4982 26.116 29.2509 7.50807 61.5072 8.48518C87.5162 9.27975 88.5574 21.2198 88.5574 39.409Z" stroke="#333333" stroke-width="1.5" stroke-miterlimit="10" stroke-linecap="round" stroke-linejoin="round"/>
<path d="M88.5573 42.7697C88.5573 42.7697 89.5985 38.8505 92.7222 41.7926C95.8458 44.7346 91.681 54.3446 90.6397 57.2759C89.5985 60.218 87.4624 58.8329 87.4624 58.8329" stroke="#333333" stroke-width="1.5" stroke-miterlimit="10" stroke-linecap="round" stroke-linejoin="round"/>
<path d="M34.446 40.8156C34.446 40.8156 33.2975 38.8614 30.1738 41.7927C27.0501 44.7348 31.215 54.3448 32.2562 57.2761C33.2975 60.2181 35.4336 58.833 35.4336 58.833" stroke="#333333" stroke-width="1.5" stroke-miterlimit="10" stroke-linecap="round" stroke-linejoin="round"/>
<path d="M67.1211 46.3883C67.1211 46.3883 70.3414 44.9387 73.3684 44.9387C75.3864 44.9387 76.1915 45.1105 80.2276 46.3883" stroke="#333333" stroke-width="1.5" stroke-miterlimit="10" stroke-linecap="round" stroke-linejoin="round"/>
<path d="M70.2877 45.3467C70.2877 45.3467 69.4504 47.505 71.4147 47.505C73.3791 47.505 74.4203 47.505 75.3649 47.505C76.3096 47.505 77.2864 46.0017 76.0519 45.1857C76.0412 45.1857 74.0661 44.6917 70.2877 45.3467Z" fill="#333333"/>
<path d="M66.1549 40.096C66.0154 39.6129 66.1978 39.0975 66.595 38.872C68.7097 37.6694 76.3202 36.0266 77.7586 35.8118C80.8179 35.3501 82.3099 39.0545 82.3099 39.0545C82.3099 39.0545 80.3348 38.0989 78.2953 38.4103C76.2558 38.7216 69.0424 40.2249 67.1961 40.7618C66.756 40.8799 66.2945 40.6007 66.1549 40.096Z" fill="#333333"/>
<path d="M56.2474 46.3883C56.2474 46.3883 53.0271 44.9387 50 44.9387C47.982 44.9387 47.1769 45.1105 43.1409 46.3883" stroke="#333333" stroke-width="1.5" stroke-miterlimit="10" stroke-linecap="round" stroke-linejoin="round"/>
<path d="M53.0701 45.3467C53.0701 45.3467 53.9074 47.505 51.943 47.505C49.9787 47.505 48.9374 47.505 47.9928 47.505C47.0482 47.505 46.0714 46.0017 47.3058 45.1857C47.3166 45.1857 49.2917 44.6917 53.0701 45.3467Z" fill="#333333"/>
<path d="M57.1596 40.1069C57.2992 39.6237 57.106 39.1083 56.7195 38.8828C54.6049 37.6802 46.9836 36.0266 45.5452 35.8119C42.486 35.3395 41.0046 39.0439 41.0046 39.0439C41.0046 39.0439 42.9797 38.0882 45.0192 38.3996C47.0587 38.711 54.2829 40.225 56.1292 40.7618C56.5585 40.8907 57.0094 40.6115 57.1596 40.1069Z" fill="#333333"/>
<path d="M57.2886 58.1672C57.2886 58.1672 58.2225 61.8609 63.6754 59.6061" stroke="#333333" stroke-width="1.5" stroke-miterlimit="10" stroke-linecap="round" stroke-linejoin="round"/>
<path d="M50.5903 65.2861C50.5903 65.2861 56.0218 66.7357 61.4856 66.7357C66.9493 66.7357 71.9622 65.2861 71.9622 65.2861C71.9622 65.2861 69.1283 71.1273 61.5714 71.1273C53.8428 71.1273 50.5903 65.2861 50.5903 65.2861Z" stroke="#333333" stroke-width="1.5" stroke-miterlimit="10" stroke-linecap="round" stroke-linejoin="round"/>
<path d="M69.8262 27.1039C69.8262 27.1039 65.6613 32.4726 62.5376 34.6201C62.5376 34.6201 65.6613 27.1039 65.6613 26.0302C65.6613 26.0302 59.3174 31.8069 57.2886 33.2135L58.5016 28.5857C58.5016 28.5857 54.2401 31.4526 50.5905 33.0417L50.0645 27.1146C50.0645 27.1146 47.982 31.4096 46.9408 32.4834L41.0048 33.0417C41.0048 33.0417 43.8172 27.1146 43.8172 23.8934C43.8172 23.8934 38.2676 33.5571 37.3981 34.6308C36.5286 35.7046 33.8665 45.3361 33.8665 45.3361L32.8361 40.2143L30.9039 40.7082C30.9039 40.7082 29.1435 28.983 29.1972 25.9013C29.2508 22.8197 29.7017 19.2012 29.7017 19.2012L27.1684 23.8827C27.1684 23.8827 25.9876 18.1167 29.7017 14.0257C33.4157 9.93477 46.9301 -6.18209 70.8674 3.48159C70.8674 3.48159 78.7141 2.40784 83.1151 5.0922C87.5162 7.77655 92.7223 16.3665 94.794 23.8827L91.6703 21.7352C91.6703 21.7352 91.8421 25.7295 91.2409 30.7117C90.6291 35.6938 90.5003 40.7082 90.5003 40.7082C90.5003 40.7082 88.45 42.4906 88.5037 45.0032L86.432 30.8083L85.5518 35.5435L83.9309 25.1926C83.9309 25.1926 83.4694 28.7897 81.8485 31.1734L81.2152 24.4732L77.8983 28.5857L76.0628 24.8276L73.9803 27.7696L69.8262 27.1039Z" fill="#333333"/>
<path d="M42.1962 74.3485C42.1962 74.3485 42.1962 80.791 42.1962 84.0122C42.1962 87.2334 36.711 87.3086 34.6286 90.4868C32.5354 93.6759 55.2705 111.672 63.7613 111.264C63.7613 111.264 89.2229 93.6866 90.4036 90.9915C91.5736 88.3071 88.3534 87.2334 86.2065 87.2334C84.0597 87.2334 80.8394 87.6951 80.8394 84.7745C80.8394 81.854 80.8394 72.9419 80.8394 72.9419" stroke="#333333" stroke-width="1.5" stroke-miterlimit="10" stroke-linecap="round" stroke-linejoin="round"/>
<path d="M39.738 86.9863C39.738 86.9863 40.0923 105.487 60.4658 105.487C80.8394 105.487 83.0184 87.1581 83.0184 87.1581" stroke="#333333" stroke-width="1.5" stroke-miterlimit="10" stroke-linecap="round" stroke-linejoin="round"/>
<path d="M42.1961 76.2813C42.1961 76.2813 36.0347 74.3593 33.2116 79.1804C30.3885 84.0123 29.3151 80.791 27.1682 86.1597C25.0214 91.5285 26.7711 98.2286 32.3314 103.468C37.8917 108.708 54.9377 120.519 54.9377 120.519" stroke="#333333" stroke-width="1.5" stroke-miterlimit="10" stroke-linecap="round" stroke-linejoin="round"/>
<path d="M29.036 83.0673C29.036 83.0673 25.0214 80.791 21.8012 85.086C18.5809 89.3809 17.5289 92.6451 18.0549 96.3817C18.5809 100.118 43.0549 116.343 47.4559 115.215" stroke="#333333" stroke-width="1.5" stroke-miterlimit="10" stroke-linecap="round" stroke-linejoin="round"/>
<path d="M105.013 93.5684C105.013 93.5684 107.847 98.2928 112.055 98.1318C116.262 97.9707 123.529 114.077 124.195 120.519" stroke="#333333" stroke-width="1.5" stroke-miterlimit="10" stroke-linecap="round" stroke-linejoin="round"/>
<path d="M18.8816 89.9929C18.8816 89.9929 14.9314 94.5241 12.4625 95.7052C9.99366 96.8863 6.74119 98.8083 4.60508 105.369C2.46897 111.929 0.794434 120.519 0.794434 120.519" stroke="#333333" stroke-width="1.5" stroke-miterlimit="10" stroke-linecap="round" stroke-linejoin="round"/>
<path d="M78.9824 107.635C81.1293 108.419 67.3143 116.343 67.3143 116.343L65.1782 115.269C65.1782 115.269 76.0413 106.561 78.9824 107.635Z" stroke="#333333" stroke-width="1.5" stroke-miterlimit="10" stroke-linecap="round" stroke-linejoin="round"/>
<path d="M60.8952 114.71L59.3817 116.224C59.3817 116.224 48.9588 110.716 49.3452 109.718C49.7102 108.708 54.8948 109.986 60.8952 114.71Z" stroke="#333333" stroke-width="1.5" stroke-miterlimit="10" stroke-linecap="round" stroke-linejoin="round"/>
<path d="M60.8954 114.711C60.8954 114.711 62.5592 114.077 62.5806 116.224C62.6021 118.372 62.3337 119.091 61.3891 118.726C60.4445 118.361 59.3818 116.224 59.3818 116.224C59.3818 116.224 56.4836 118.372 56.8593 120.519" stroke="#333333" stroke-width="1.5" stroke-miterlimit="10" stroke-linecap="round" stroke-linejoin="round"/>
<path d="M62.5698 116.224C62.5698 116.224 63.4608 114.313 65.1782 115.269" stroke="#333333" stroke-width="1.5" stroke-miterlimit="10" stroke-linecap="round" stroke-linejoin="round"/>
<path d="M67.3142 116.342C67.3142 116.342 69.7723 117.298 68.8599 120.519C68.8599 120.519 79.7659 117.298 85.133 113.003C90.5001 108.708 107.675 94.7495 105.27 90.9914C102.866 87.2333 101.234 87.2333 98.0141 86.1596C94.7938 85.0859 93.7204 82.9384 89.4267 79.2984C85.133 75.6584 80.8393 76.3241 80.8393 76.3241" stroke="#333333" stroke-width="1.5" stroke-miterlimit="10" stroke-linecap="round" stroke-linejoin="round"/>
<path d="M62.5698 117.298C62.5698 117.298 67.0245 116.225 66.4234 120.519" stroke="#333333" stroke-width="1.5" stroke-miterlimit="10" stroke-linecap="round" stroke-linejoin="round"/>
<path d="M61.3782 118.726L62.5697 121.078" stroke="#333333" stroke-width="1.5" stroke-miterlimit="10"/>
<path d="M62.8489 117.298L64.7166 121.078" stroke="#333333" stroke-width="1.5" stroke-miterlimit="10"/>
<path d="M58.963 120.519C58.963 120.519 58.3512 119.091 60.4766 118.189" stroke="#333333" stroke-width="1.5" stroke-miterlimit="10" stroke-linecap="round" stroke-linejoin="round"/>
</svg>
