<svg xmlns="http://www.w3.org/2000/svg" width="140" height="140" viewBox="0 0 140 140">
  <g fill="none" fill-rule="evenodd" transform="translate(0 8.296)">
    <path stroke="#333" stroke-linecap="round" stroke-linejoin="round" stroke-width="1.5" d="M97.0979852,46.9060148 C97.0979852,55.981437 97.0628296,57.2527407 96.066963,63.0557926 C93.9934074,75.0503704 93.583363,77.687037 86.6829185,85.5029778 C77.6619407,95.6965333 77.404237,94.5665778 70.1523407,94.5665778 C60.7565778,94.5665778 60.7565778,93.4365185 51.7356,84.3729185 C46.1004444,78.7111111 44.226,70.471437 43.1599259,60.9487407 C42.4452,54.6159704 42.9958667,51.4025037 43.1949778,48.4010074 C42.4452,59.8305037 39.4226519,17.6788889 69.7774519,18.6676 C95.6920741,19.5033481 97.0979852,27.4605333 97.0979852,46.9060148 Z"/>
    <path stroke="#333" stroke-linecap="round" stroke-linejoin="round" stroke-width="1.5" d="M97.0979852 52.7562519C97.0979852 52.7562519 98.1290074 48.5657926 101.245304 51.708637 104.349778 54.8514815 100.214281 65.115763 99.1716444 68.2586074 98.1407259 71.4014519 96.0084741 69.9301037 96.0084741 69.9301037M42.7030074 50.3785333C42.7030074 50.3785333 39.047763 44.9756741 35.9431852 48.1185185 32.8385037 51.261363 39.9733185 65.1274815 41.004237 68.2585037 42.0351556 71.4013481 44.1674074 69.93 44.1674074 69.93M62.724563 52.5916741C62.724563 52.5916741 59.8542519 51.0614222 57.171437 51.0614222 55.3790222 51.0614222 54.6642963 51.2380296 51.079363 52.5916741"/>
    <path fill="#333" fill-rule="nonzero" d="M59.9129481,51.4969778 C59.9129481,51.4969778 60.6628296,53.7805333 58.9171852,53.7805333 C57.1715407,53.7805333 56.2460889,53.7805333 55.402563,53.7805333 C54.559037,53.7805333 53.6920741,52.1913778 54.7933037,51.3321926 C54.7933037,51.3321926 56.5506667,50.8024741 59.9129481,51.4969778 Z"/>
    <path stroke="#333" stroke-linecap="round" stroke-linejoin="round" stroke-width="1.5" d="M76.6660741,52.3914222 C76.6660741,52.3914222 79.5948741,50.9671556 82.2777926,51.0613185 C84.0702074,51.1202222 84.7731111,51.3320889 88.2995556,52.803437"/>
    <path fill="#333" fill-rule="nonzero" d="M79.5246667 51.3907852C79.5246667 51.3907852 78.6811407 53.6508 80.4267852 53.7097037 82.1723259 53.7685037 83.0978815 53.8038667 83.9414074 53.8391259 84.7849333 53.8744889 85.7222074 52.3088741 84.6560296 51.4143259 84.6443111 51.4026074 82.9104889 50.8139852 79.5246667 51.3907852zM76.6660741 45.7291852C76.5840444 45.3288889 76.1154074 44.316637 76.5137333 44.1518519 78.5991111 43.292563 83.2385037 42.2803111 84.6091556 42.1743259 87.5146222 41.9624593 89.0962074 44.3518963 89.0962074 44.3518963 89.0962074 44.3518963 87.8895111 45.0934815 85.9564741 45.2347259 84.023437 45.3759704 79.3723259 45.9763111 77.5916296 46.3058815 77.1581481 46.3883259 76.7129481 45.6821037 76.6309185 45.2700889L76.6660741 45.7291852z"/>
    <path stroke="#333" stroke-linecap="round" stroke-linejoin="round" stroke-width="1.5" d="M44.9640593 51.8851407C45.3038963 53.1917037 45.6084741 54.4865481 45.8427407 55.4635407 46.0771111 56.4405333 46.9323556 57.1585778 47.9632741 57.2409185 51.1030074 57.4763259 57.7808 57.8883407 62.2444148 57.5352296 63.9666222 57.3939852 65.3724296 56.1226815 65.630237 54.4511852 65.759037 53.5801778 65.8645037 52.6384444 65.8527852 51.8851407 65.8176296 49.9311556 62.7130519 48.4951704 53.7038963 48.5657926 44.694637 48.6364148 44.9640593 51.8851407 44.9640593 51.8851407zM93.442637 51.8851407C93.1029037 53.1917037 92.7983259 54.4865481 92.5640593 55.4635407 92.3296889 56.4405333 91.4744444 57.1585778 90.4435259 57.2409185 87.3037926 57.4763259 80.626 57.8883407 76.1623852 57.5352296 74.4401778 57.3939852 73.0343704 56.1226815 72.776563 54.4511852 72.6476593 53.5801778 72.5422963 52.6384444 72.5540148 51.8851407 72.5891704 49.9311556 75.6937481 48.4951704 84.7029037 48.5657926 93.712163 48.6364148 93.442637 51.8851407 93.442637 51.8851407zM65.8525778 51.8852444C65.8525778 51.8852444 69.835837 50.625763 72.5539111 51.8852444"/>
    <polygon fill="#333" fill-rule="nonzero" points="46.089 50.237 42.363 49.249 42.035 51.462 46.089 53.745"/>
    <polygon fill="#333" fill-rule="nonzero" points="93.443 50.237 97.168 49.249 97.496 51.462 93.443 53.745"/>
    <path fill="#333" fill-rule="nonzero" d="M86.3900593,41.9036593 C86.3900593,41.9036593 89.3891704,42.9041926 89.9749926,44.6344889 C89.9749926,44.6344889 90.1975407,41.7976741 86.3900593,41.9036593 Z"/>
    <path fill="#333" fill-rule="nonzero" d="M87.3742074 41.7623111C87.3742074 41.7623111 90.3264444 42.8570074 90.830237 44.5990222 90.830237 44.5990222 91.1816889 41.7623111 87.3742074 41.7623111zM74.4284593 46.5530074C74.4284593 46.5530074 74.557363 44.9051556 75.5531259 44.3518963 75.5531259 44.3400741 73.7021185 44.6579259 74.4284593 46.5530074zM75.5415111 46.4352C75.5415111 46.4352 75.6704148 44.7873481 76.6661778 44.2340889 76.6661778 44.2340889 74.8268889 44.5519407 75.5415111 46.4352zM76.6661778 46.3294222C76.6661778 46.3294222 76.7949778 44.6814667 77.7908444 44.1282074 77.7908444 44.1282074 75.9515556 44.4460593 76.6661778 46.3294222zM60.7447556 45.1641037C60.7916296 44.7639111 61.1548 43.7044741 60.7447556 43.5867704 58.5890667 42.9393481 53.8794667 42.3743704 52.4969926 42.4097333 49.5916296 42.4803556 48.2325926 45.011037 48.2325926 45.011037 48.2325926 45.011037 49.5096 45.6349185 51.442637 45.587837 53.3873926 45.5407556 58.0736593 45.682 59.8777926 45.8467852 60.3112741 45.8821481 60.686163 45.140563 60.733037 44.7168296L60.7447556 45.1641037z"/>
    <path fill="#333" fill-rule="nonzero" d="M50.7046815,42.2919259 C50.7046815,42.2919259 47.811037,43.5749481 47.3892741,45.3523259 C47.3892741,45.3641481 46.8972,42.5508741 50.7046815,42.2919259 Z"/>
    <path fill="#333" fill-rule="nonzero" d="M49.7087111 42.2448444C49.7087111 42.2448444 46.8736593 43.6220296 46.5455407 45.4112296 46.5455407 45.4112296 45.9246667 42.6214963 49.7087111 42.2448444zM63.0526815 45.7644444C63.0526815 45.7644444 62.7715407 44.1283111 61.7170815 43.6809333 61.7288 43.6692148 63.5916296 43.8104593 63.0526815 45.7644444zM61.9280148 45.7644444C61.9280148 45.7644444 61.6468741 44.1283111 60.5925185 43.6809333 60.5925185 43.6692148 62.466963 43.8104593 61.9280148 45.7644444zM60.8034519 45.7644444C60.8034519 45.7644444 60.5222074 44.1283111 59.4678519 43.6809333 59.4678519 43.6692148 61.3305778 43.8104593 60.8034519 45.7644444z"/>
    <path stroke="#333" stroke-linecap="round" stroke-linejoin="round" stroke-width="1.5" d="M58.9288 77.569437C58.9288 77.569437 62.7481037 78.9937037 67.7154074 78.9937037 75.0610519 78.9937037 75.0610519 78.8877185 78.7748889 77.569437M62.4902963 80.8418074C62.4902963 80.8418074 64.9036889 82.1012889 68.066963 82.1012889 72.7179704 82.1012889 72.7179704 82.0071259 75.0727704 80.8418074"/>
    <path fill="#333" fill-rule="nonzero" d="M76.5605037,28.2610222 C76.5605037,28.2610222 80.145437,35.5472444 83.4140741,37.8660593 C83.4140741,37.8660593 79.700237,31.0742963 80.9420889,29.9677778 C80.9420889,29.9677778 85.3588296,33.6638815 88.8384,36.3594519 C88.8384,36.3594519 86.3195407,32.2042519 86.5069333,29.9677778 C86.5069333,29.9677778 91.8375111,31.4509481 93.4542519,33.3931111 C95.0709926,35.3353778 97.1798074,49.2485778 97.1798074,49.2485778 L97.3320444,56.1934074 C97.3320444,56.1934074 96.6642963,51.9087852 101.268533,51.7087407 C101.268533,51.7087407 102.322889,46.3294222 102.404919,42.6922222 C102.486948,39.0549185 102.334607,34.4878074 101.362178,29.9913185 C97.9764593,25.4595704 93.4659704,15.2659111 68.6642963,15.2659111 C68.6642963,15.2659111 50.6224444,15.2659111 37.0910815,35.6531259 C35.9664148,50.378637 35.9664148,48.1185185 35.9664148,48.1185185 L43.8626222,48.1185185 L43.3939852,44.6696444 C43.3939852,44.6696444 47.6819259,39.3610519 49.1580444,38.0779259 C49.1580444,38.0779259 50.3295852,40.3262222 47.6702074,43.0924148 C47.6702074,43.0924148 52.8953185,40.1378963 54.5822667,36.771363 C54.5822667,36.771363 53.9145185,43.1041333 51.7119556,45.6113778 C51.7119556,45.6113778 58.2257926,40.1378963 60.6274667,36.771363 C60.6274667,36.771363 59.2685333,41.9741778 58.3312593,43.9163407 C58.3312593,43.9163407 63.661837,39.3727704 64.4702074,35.8179111 C64.4702074,35.8179111 64.1538074,42.3508296 62.4668593,44.6696444 C62.4668593,44.6696444 70.281037,40.1378963 71.722,36.771363 C71.722,36.771363 71.6283556,39.007837 69.788963,41.3267556 C69.788963,41.3267556 75.9513481,38.0662074 76.5487852,34.5348889 C77.1463259,31.0036741 76.5605037,28.2610222 76.5605037,28.2610222 Z"/>
    <path stroke="#333" stroke-linecap="round" stroke-linejoin="round" stroke-width="1.5" d="M30.3078222,41.315037 C32.3814815,33.3579556 35.9429778,2.82414222 64.2827111,0.540586667 C92.3178667,-1.73120267 101.338844,13.006 102.381481,18.6678074 C103.424222,24.3296148 100.729585,29.9326222 100.729585,29.9326222 C100.729585,29.9326222 94.5673037,14.4420889 73.1396296,14.854 C51.7237778,15.2660148 42.7379556,29.1792148 37.0559259,35.6532296 C31.374,42.1272444 16.635837,56.4878222 12.2542519,59.4423407 C7.8844163,62.4085778 8.13044296,73.2613778 24.6726667,83.2313481 C36.4819259,90.3527852 46.0886222,75.1212 46.0886222,75.1212"/>
    <path fill="#333" fill-rule="nonzero" d="M64.4469778 35.8060889C64.4469778 35.8060889 57.9565778 43.0452296 52.5908444 44.4459556 52.5908444 44.4459556 60.7565778 37.0538519 62.4436296 33.5225333 64.1306815 29.9913185 65.8879407 32.5690815 64.4469778 35.8060889zM54.3011259 35.8060889C54.3011259 35.8060889 47.8108296 43.0452296 42.4450963 44.4459556 42.4450963 44.4459556 50.6108296 37.0538519 52.2977778 33.5225333 53.9848296 29.9913185 55.7421926 32.5690815 54.3011259 35.8060889zM86.9406222 30.1444889C86.9406222 30.1444889 93.4309185 37.3835259 98.7966519 38.7843556 98.7966519 38.7843556 90.6309185 31.3921481 88.9439704 27.8609333 87.2569185 24.3296148 85.4995556 26.9074815 86.9406222 30.1444889z"/>
    <path stroke="#333" stroke-linecap="round" stroke-linejoin="round" stroke-width="1.5" d="M67.0007852 60.0071111C67.0007852 60.0071111 65.3255556 65.174563 65.8526815 67.411037 66.3799111 69.6356889 68.1958667 71.1306815 68.1958667 71.1306815M102.62757 22.7876444C102.62757 22.7876444 95.0007852 14.4890667 90.8417481 13.7475852 90.8417481 13.7475852 91.8258963 10.7224444 96.0199852 12.4292 100.214178 14.1359556 102.381481 18.6678074 102.381481 18.6678074M127.406222 115.483407C133.497778 117.401926 131.177926 116.18963 132.537481 117.390519 136.895111 121.227556 139.12163 131.268148 139.12163 131.268148M87.5732148 84.3613037C87.5732148 84.3613037 87.5732148 93.3778222 87.5732148 99.0631704 87.5732148 102.264919 95.4577037 104.689926 107.489926 108.421185"/>
    <path stroke="#333" stroke-linecap="round" stroke-linejoin="round" stroke-width="1.5" d="M48.959037 102.535481C48.959037 102.535481 48.1741037 111.611111 52.7079259 116.41363 60.3933037 124.58237 65.3489926 129.043704 71.933037 128.431852 78.5171852 127.818963 86.6360444 122.428444 93.4310222 103.194519M111.800889 131.280593C111.800889 131.280593 112.796444 116.178222 110.429926 109.362815L106.985926 108.17437C106.985926 108.17437 107.325037 103.735852 111.800889 104.912889 116.275704 106.089926 122.660741 108.326815 125.062519 111.976148 127.464296 115.624444 129.901333 126.713481 128.577037 130.809778M12.5939852 114.836296C6.50197333 116.754815 8.82163852 115.542519 7.46264296 116.743407 3.10448444 120.580444.878544593 130.621037.878544593 130.621037M52.4267852 86.0563407C52.4267852 86.0563407 52.4267852 92.7186815 52.4267852 98.4040296 52.4267852 101.605778 44.5422963 104.03037 32.5104889 107.76163"/>
    <path stroke="#333" stroke-linecap="round" stroke-linejoin="round" stroke-width="1.5" d="M28.1991111,130.621037 C28.1991111,130.621037 27.2032444,115.518667 29.569763,108.703259 L33.0141778,107.514815 C33.0141778,107.514815 32.6743407,103.077333 28.1991111,104.25437 C23.7237778,105.431407 17.3388444,107.667259 14.9371704,111.316593 C12.5354963,114.965926 10.0986459,126.053926 11.4225481,130.150222"/>
  </g>
</svg>
