<svg width="140" height="140" viewBox="0 0 140 140" fill="none" xmlns="http://www.w3.org/2000/svg">
<g clip-path="url(#clip0_425_7373)">
<path d="M43.4555 58.9211C43.2368 61.9722 42.8798 65.8407 43.6512 72.2999C44.8026 81.9944 49.2699 89.9157 54.7849 96.2252C58.2045 100.128 61.624 103.698 69.9714 103.698C81.1511 103.698 84.5707 98.6661 88.9228 94.1067C92.6763 90.1575 96.303 84.0208 97.535 72.8756C98.2028 66.9 98.6518 65.6565 98.6518 56.4226" stroke="#333333" stroke-width="1.5" stroke-linecap="round" stroke-linejoin="round"/>
<path d="M98.6519 63.3309C98.6519 63.3309 100.091 59.1514 103.119 62.3752C105.572 64.9658 103.119 72.2885 102.152 75.2244C100.195 81.0849 96.7751 78.644 96.7751 78.644" stroke="#333333" stroke-width="1.5" stroke-linecap="round" stroke-linejoin="round"/>
<path d="M42.9489 63.0544C42.9489 63.0544 42.6726 59.796 39.6445 63.0199C37.3878 65.4147 40.485 72.8295 41.6018 75.7194C42.7186 78.5978 44.5263 77.6767 44.5263 77.6767" stroke="#333333" stroke-width="1.5" stroke-linecap="round" stroke-linejoin="round"/>
<path d="M77.8698 64.1138C77.8698 64.1138 77.8698 62.5019 81.2548 62.4328C83.1315 62.3983 85.9063 63.0431 88.5889 64.655" stroke="#333333" stroke-width="1.5" stroke-linecap="round" stroke-linejoin="round"/>
<path d="M79.8962 62.9164C79.8962 62.9164 79.3205 64.8046 80.8979 64.7125C82.4752 64.6204 84.0871 64.5974 84.847 64.6549C85.3882 64.1138 85.3882 63.5842 84.847 63.043C84.847 63.043 82.9128 62.1795 79.8962 62.9164Z" fill="#333333"/>
<path d="M64.6174 74.8674C64.6174 74.8674 63.3049 80.1061 69.8561 80.1061" stroke="#333333" stroke-width="1.5" stroke-linecap="round" stroke-linejoin="round"/>
<path d="M51.8374 92.7711V98.7352C51.8374 98.7352 57.2258 118.688 72.3662 132.366C87.0115 115.28 89.9475 102.857 89.9475 102.857V93.059" stroke="#333333" stroke-width="1.5" stroke-linecap="round" stroke-linejoin="round"/>
<path d="M82.8782 57.1365C76.1888 57.1365 72.5389 60.1761 72.5389 65.645C72.5389 69.9051 76.1888 75.3741 81.6577 75.3741C88.3471 75.3741 91.3867 71.7242 91.997 65.645C92.2503 63.1466 95.0366 63.2157 95.0366 63.2157V60.7863C91.997 58.9671 88.3471 57.1365 82.8782 57.1365ZM90.1778 68.6846C89.5676 71.114 87.7484 74.1536 82.2795 74.1536C76.8105 74.1536 73.7709 69.8936 73.7709 65.645C73.7709 63.8259 74.3811 58.3454 82.8897 58.3454C91.3983 58.3454 90.788 66.2437 90.1893 68.6846H90.1778Z" fill="#333333"/>
<path d="M89.8555 56.5837C89.8555 56.5837 91.4674 57.5624 92.7914 62.1333C92.7914 62.1333 93.3786 58.3568 89.8555 56.5837Z" fill="#333333"/>
<path d="M91.6053 57.4705C91.6053 57.4705 93.3324 59.6235 93.7469 62.2026C93.7469 62.2026 93.9887 58.5873 91.6053 57.4705Z" fill="#333333"/>
<path d="M75.6705 59.543C75.6705 59.543 76.2001 56.2846 77.0521 55.5593C77.0521 55.5593 75.659 55.4902 75.6705 59.543Z" fill="#333333"/>
<path d="M76.1542 59.5775C76.1542 59.5775 76.6839 56.3192 77.5359 55.5938C77.5359 55.5938 76.1427 55.5247 76.1542 59.5775Z" fill="#333333"/>
<path d="M76.6378 59.612C76.6378 59.612 77.1674 56.3536 78.0194 55.6282C78.0194 55.6282 76.6263 55.5592 76.6378 59.612Z" fill="#333333"/>
<path d="M74.5653 59.3932C74.5653 59.3932 75.5324 56.1233 76.4305 55.4095C76.4305 55.4095 74.5422 55.3519 74.5653 59.3932Z" fill="#333333"/>
<path d="M73.5866 59.9459C73.5866 59.9459 74.5653 56.0427 75.4634 55.3174C75.4634 55.3174 73.5521 55.8931 73.5866 59.9459Z" fill="#333333"/>
<path d="M77.1213 55.375C76.5686 55.2828 76.1081 55.8931 76.1772 56.6299C76.2808 57.8504 76.5917 59.2896 77.4667 58.9787C78.9289 58.4606 85.1693 58.9672 87.5526 59.7962C87.5526 59.7962 87.6563 55.9852 86.2171 55.87C85.0542 55.7779 79.4586 55.7434 77.1213 55.375Z" fill="#333333"/>
<path d="M86.2172 55.87C86.2172 55.87 89.0725 56.9523 88.9919 59.9113C88.9919 59.9113 87.806 57.3783 86.2172 55.87Z" fill="#333333"/>
<path d="M87.1727 55.9507C87.1727 55.9507 90.0281 57.033 89.9475 59.992C89.9475 59.992 88.7616 57.459 87.1727 55.9507Z" fill="#333333"/>
<path d="M88.278 55.87C88.278 55.87 91.4672 57.5625 91.8472 61.408C91.8472 61.408 90.028 57.8043 88.278 55.87Z" fill="#333333"/>
<path d="M85.2499 55.7894C85.2499 55.7894 88.1053 56.8717 88.0247 59.8307C88.0247 59.8307 86.8388 57.2977 85.2499 55.7894Z" fill="#333333"/>
<path d="M84.778 55.7549C84.778 55.7549 87.6333 56.8372 87.5527 59.7962C87.5527 59.7962 86.3668 57.2632 84.778 55.7549Z" fill="#333333"/>
<path d="M63.2014 64.1138C63.2014 64.1138 63.2014 62.5019 59.8164 62.4328C57.9396 62.3983 55.1649 63.0431 52.4822 64.655" stroke="#333333" stroke-width="1.5" stroke-linecap="round" stroke-linejoin="round"/>
<path d="M60.1043 62.9164C60.1043 62.9164 60.68 64.8046 59.1026 64.7125C57.5252 64.6204 55.9133 64.5974 55.1534 64.6549C54.6123 64.1138 54.6123 63.5842 55.1534 63.043C55.1534 63.043 57.0877 62.1795 60.1043 62.9164Z" fill="#333333"/>
<path d="M57.1221 57.1365C63.8115 57.1365 67.4614 60.1761 67.4614 65.645C67.4614 69.9051 63.8115 75.3741 58.3426 75.3741C51.6532 75.3741 48.6136 71.7242 48.0033 65.645C47.75 63.1466 44.9637 63.2157 44.9637 63.2157V60.7863C48.0033 58.9671 51.6532 57.1365 57.1221 57.1365ZM49.8225 68.6846C50.4327 71.114 52.2519 74.1536 57.7208 74.1536C63.1898 74.1536 66.2294 69.8936 66.2294 65.645C66.2294 63.8259 65.6192 58.3454 57.1106 58.3454C48.602 58.3454 49.2123 66.2437 49.811 68.6846H49.8225Z" fill="#333333"/>
<path d="M51.2272 57.1251C51.2272 57.1251 49.6153 58.1038 48.2912 62.6747C48.2912 62.6747 47.704 58.8982 51.2272 57.1251Z" fill="#333333"/>
<path d="M49.4657 58.0116C49.4657 58.0116 47.7386 60.1646 47.3241 62.7437C47.3241 62.7437 47.0824 59.1284 49.4657 58.0116Z" fill="#333333"/>
<path d="M65.4004 60.0727C65.4004 60.0727 64.8708 56.8143 64.0188 56.0889C64.0188 56.0889 65.4119 56.0199 65.4004 60.0727Z" fill="#333333"/>
<path d="M64.9169 60.1187C64.9169 60.1187 64.3873 56.8603 63.5353 56.135C63.5353 56.135 64.9284 56.0659 64.9169 60.1187Z" fill="#333333"/>
<path d="M64.445 60.1531C64.445 60.1531 63.9154 56.8947 63.0634 56.1694C63.0634 56.1694 64.4565 56.1003 64.445 60.1531Z" fill="#333333"/>
<path d="M66.5173 59.9228C66.5173 59.9228 65.5502 56.653 64.6521 55.9391C64.6521 55.9391 66.5403 55.8816 66.5173 59.9228Z" fill="#333333"/>
<path d="M67.496 60.487C67.496 60.487 66.5173 56.5839 65.6193 55.8585C65.6193 55.8585 67.5305 56.4342 67.496 60.487Z" fill="#333333"/>
<path d="M63.9497 55.9162C64.5024 55.8241 64.9629 56.4343 64.8938 57.1712C64.7902 58.3916 64.4793 59.8308 63.6043 59.52C62.1421 59.0019 55.9017 59.5085 53.5184 60.3374C53.5184 60.3374 53.4147 56.5264 54.8539 56.4113C56.0168 56.3192 61.6124 56.2846 63.9497 55.9162Z" fill="#333333"/>
<path d="M54.8654 56.4113C54.8654 56.4113 52.0101 57.4935 52.0907 60.4525C52.0907 60.4525 53.2766 57.9195 54.8654 56.4113Z" fill="#333333"/>
<path d="M53.8985 56.4803C53.8985 56.4803 51.0431 57.5626 51.1237 60.5216C51.1237 60.5216 52.3096 57.9886 53.8985 56.4803Z" fill="#333333"/>
<path d="M52.8046 56.4113C52.8046 56.4113 49.6153 58.1038 49.2354 61.9493C49.2354 61.9493 51.0545 58.3455 52.8046 56.4113Z" fill="#333333"/>
<path d="M55.8211 56.3306C55.8211 56.3306 52.9658 57.4128 53.0464 60.3718C53.0464 60.3718 54.2323 57.8389 55.8211 56.3306Z" fill="#333333"/>
<path d="M56.3047 56.296C56.3047 56.296 53.4493 57.3783 53.5299 60.3373C53.5299 60.3373 54.7158 57.8043 56.3047 56.296Z" fill="#333333"/>
<path d="M66.0796 62.5248C66.0796 62.5248 67.7261 61.8685 69.9252 61.8685C72.1243 61.8685 73.7707 62.5248 73.7707 62.5248L74.3234 61.2238C74.3234 61.2238 73.2296 60.5675 69.9252 60.5675C66.6208 60.5675 65.527 61.2238 65.527 61.2238L66.0796 62.5248Z" fill="#333333"/>
<path d="M61.6241 86.9452C61.6241 86.9452 64.065 88.4074 69.4419 88.4074C74.8188 88.4074 78.2268 86.9452 78.2268 86.9452" stroke="#333333" stroke-width="1.5" stroke-linecap="round" stroke-linejoin="round"/>
<path d="M66.0222 89.8698C66.0222 89.8698 67.9795 91.332 70.904 90.8484" stroke="#333333" stroke-width="1.5" stroke-linecap="round" stroke-linejoin="round"/>
<path d="M72.3663 29.8032C72.3663 29.8032 61.6241 30.2868 56.2472 43.4814C54.0942 48.7777 53.3228 51.2992 53.3228 51.2992C53.3228 51.2992 52.3441 46.901 53.8063 42.9978C55.2685 39.0947 57.2259 36.6538 57.2259 36.6538C57.2259 36.6538 53.8063 40.557 52.8277 44.9552C51.849 49.3534 50.8703 53.2565 50.8703 53.2565L49.8917 50.8156L49.4081 54.7187L47.4508 52.2778L45.9886 54.7187H40.6117C40.6117 54.7187 37.6872 39.0947 48.913 31.7721C60.1503 24.4494 67.473 22.4921 75.2792 24.933C83.0855 27.3739 72.3548 29.8147 72.3548 29.8147L72.3663 29.8032Z" fill="#333333"/>
<path d="M72.3662 29.8032C72.3662 29.8032 87.5067 29.8032 87.9902 50.804C87.9902 50.804 89.4525 49.3418 89.4525 45.4272C89.4525 45.4272 89.4525 48.8467 88.9689 51.2876L92.872 54.2121V50.309L93.3556 54.7072L96.7751 59.1054L98.7324 62.5249C98.7324 62.5249 101.173 58.6218 103.131 62.5249C103.131 62.5249 104.593 49.8254 103.614 41.0405C102.636 32.2556 86.0329 17.1152 74.3121 21.997L72.3547 29.8147L72.3662 29.8032Z" fill="#333333"/>
<path d="M53.8062 41.524C53.8062 41.524 50.8818 50.3089 52.344 53.2448C52.344 53.2448 50.3867 50.3204 50.8818 44.9435C51.3769 39.5667 53.3227 40.0617 53.8062 41.524Z" fill="#333333"/>
<path d="M52.3439 42.9863C52.3439 42.9863 49.4195 51.7712 50.8817 54.7071C50.8817 54.7071 48.9244 51.7827 49.4195 46.4058C49.9146 41.0289 51.8604 41.524 52.3439 42.9863Z" fill="#333333"/>
<path d="M49.903 42.9863C49.903 42.9863 46.9786 51.7712 48.4408 54.7071C48.4408 54.7071 46.4835 51.7827 46.9786 46.4058C47.4737 41.0289 49.4195 41.524 49.903 42.9863Z" fill="#333333"/>
<path d="M48.9244 43.9649C48.9244 43.9649 45.9999 52.7498 47.4622 55.6858C47.4622 55.6858 45.5048 52.7613 45.9999 47.3844C46.495 42.0076 48.4408 42.5027 48.9244 43.9649Z" fill="#333333"/>
<path d="M51.8604 43.4814C51.8604 43.4814 48.936 52.2663 50.3982 55.2022C50.3982 55.2022 48.4409 52.2778 48.936 46.9009C49.4311 41.5241 51.3769 42.0191 51.8604 43.4814Z" fill="#333333"/>
<path d="M49.4196 43.4814C49.4196 43.4814 46.4952 52.2663 47.9574 55.2022C47.9574 55.2022 46.0001 52.2778 46.4952 46.9009C46.9903 41.5241 48.9361 42.0191 49.4196 43.4814Z" fill="#333333"/>
<path d="M57.7209 40.0618C57.7209 40.0618 54.7964 48.8467 56.2587 51.7827C56.2587 51.7827 54.3014 48.8582 54.7964 43.4814C55.2915 38.1045 57.2373 38.5996 57.7209 40.0618Z" fill="#333333"/>
<path d="M72.1935 29.5384C72.1935 29.5384 65.0435 32.2441 61.1404 38.1045C57.2373 43.965 57.2373 49.8254 57.2373 49.8254C57.2373 49.8254 56.2241 43.539 60.6338 36.6768C65.0435 29.8147 71.0421 28.7785 72.1935 29.5384Z" fill="#333333"/>
<path d="M72.2627 29.5383C72.2627 29.5383 79.4127 32.244 83.3158 38.1044C87.2189 43.9649 87.2189 49.8253 87.2189 49.8253C87.2189 49.8253 88.2321 43.5389 83.8224 36.6768C79.4011 29.8031 73.4141 28.7784 72.2627 29.5383Z" fill="#333333"/>
<path d="M74.3235 21.997C74.3235 21.997 68.9467 17.1152 57.7209 21.5134C46.4836 25.9116 38.1823 33.2343 38.1823 47.8796C38.1823 62.525 39.6445 63.0201 39.6445 63.0201C39.6445 63.0201 42.0854 60.5792 43.064 62.5365C43.064 62.5365 44.0427 58.6334 45.9885 54.7187C45.9885 54.7187 56.7307 24.4379 73.3333 28.8361L74.312 21.997H74.3235Z" fill="#333333"/>
<path d="M95.0365 63.043L98.9857 62.3061V60.7057L95.0365 60.8899V63.043Z" fill="white" stroke="#333333" stroke-linecap="round" stroke-linejoin="round"/>
<path d="M44.9637 63.043L42.8221 62.3061V60.7057L44.9637 60.8899V63.043Z" fill="white" stroke="#333333" stroke-linecap="round" stroke-linejoin="round"/>
<path d="M80.1839 20.0396C80.1839 20.0396 70.4203 13.2005 53.8177 20.0396C37.2151 26.8787 36.9733 42.2609 36.9733 42.2609L38.4355 41.2822L36.9733 43.7231L38.8615 42.0076L36.9733 44.6903L38.6312 43.4813L37.8598 45.2429L37.4568 46.1525L39.4142 44.6903L37.4568 48.1098L39.4142 46.6476C39.4142 46.6476 36.9733 49.572 36.9733 52.0244C36.9733 52.0244 41.3715 45.6804 41.855 45.1853C42.3386 44.6903 51.135 31.0236 60.415 27.1205C69.695 23.2174 80.1954 20.0396 80.1954 20.0396H80.1839Z" fill="#333333"/>
<path d="M72.3662 21.5019C72.3662 21.5019 79.2859 15.1579 92.3884 21.9854C105.491 28.8245 106.067 44.6903 106.067 44.6903L104.915 43.7117L106.067 46.1525L104.581 44.437L106.067 47.1197L104.766 45.9108L105.376 47.6723L105.687 48.5819L104.144 47.1197L105.687 50.5392L104.144 49.077C104.144 49.077 105.099 53.2334 105.099 55.6743C105.099 55.6743 102.613 48.1099 102.221 47.6148C101.83 47.1197 94.8984 33.453 87.5757 29.5499C80.253 25.6468 72.3777 21.4904 72.3777 21.4904L72.3662 21.5019Z" fill="#333333"/>
<path d="M65.5271 33.4414C65.5271 33.4414 69.9253 30.7818 71.3876 31.7604C72.8498 32.7391 72.8498 32.244 72.8498 32.244C72.8498 32.244 74.9683 29.0777 79.5277 32.1289C84.0871 35.18 79.5738 27.2356 73.034 27.3046C66.4943 27.3737 65.5156 33.4529 65.5156 33.4529L65.5271 33.4414Z" fill="#333333"/>
<path d="M89.9474 99.2187C89.9474 99.2187 91.4097 99.1496 95.8079 103.41C100.206 107.67 100.413 116.719 101.185 121.394C102.647 130.386 100.701 132.274 96.7865 129.914C92.6416 127.404 82.6248 124.238 80.6675 126.126C78.7101 128.014 79.6888 128.486 76.7643 131.33C73.8399 134.174 73.8399 133.69 72.3661 135.118C70.8924 136.546 68.463 138.837 68.463 138.837" stroke="#333333" stroke-width="1.5" stroke-linecap="round" stroke-linejoin="round"/>
<path d="M72.3662 131.33L66.0222 138.837" stroke="#333333" stroke-width="1.5" stroke-linecap="round" stroke-linejoin="round"/>
<path d="M51.8374 97.1692C51.8374 97.1692 49.9031 96.2136 47.4622 101.59C45.0213 106.967 42.0854 114.774 39.6445 118.677C37.2036 122.58 38.1822 125.021 41.6018 123.558C45.0213 122.096 49.4195 119.16 50.8818 117.698C52.344 116.236 54.7849 117.698 54.7849 120.139C54.7849 122.58 54.3013 125.516 57.7093 127.462C61.1174 129.407 64.5484 124.572 68.4515 128.463" stroke="#333333" stroke-width="1.5" stroke-linecap="round" stroke-linejoin="round"/>
<path d="M47.4622 101.591C47.4622 101.591 46.4836 102.074 44.0427 103.03C43.064 102.546 41.6018 102.546 40.1396 103.03C38.804 103.467 38.6773 103.513 37.7332 105.079C33.5423 106.507 29.2822 107.831 27.9351 107.831C25.0107 107.831 24.5156 108.787 23.0534 110.226C21.5911 111.665 17.6765 115.983 16.7094 115.983C15.7422 115.983 5.02303 119.713 5 139.447" stroke="#333333" stroke-width="1.5" stroke-linecap="round" stroke-linejoin="round"/>
<path d="M95.808 103.548C95.808 103.548 106.067 109.662 111.432 112.022C116.809 114.371 115.335 110.606 120.712 115.787C126.089 120.968 126.572 120.968 130.475 124.733C134.379 128.498 134.874 138.849 134.874 138.849" stroke="#333333" stroke-width="1.5" stroke-linecap="round" stroke-linejoin="round"/>
<path d="M20.9579 112.379C20.9579 112.379 10.5266 126.08 12.15 140" stroke="#333333" stroke-width="1.5" stroke-linecap="round" stroke-linejoin="round"/>
<path d="M111.432 112.01C111.432 112.01 117.292 121.417 118.755 126.598C120.217 131.779 119.733 138.837 119.733 138.837" stroke="#333333" stroke-width="1.5" stroke-linecap="round" stroke-linejoin="round"/>
<path d="M120.712 116.247C120.712 116.247 124.615 122.361 125.594 128.958C126.572 135.556 126.63 138.837 126.63 138.837" stroke="#333333" stroke-width="1.5" stroke-linecap="round" stroke-linejoin="round"/>
<path d="M50.8817 117.433C50.8817 117.433 48.4408 130.398 53.3226 139.516" stroke="#333333" stroke-width="1.5" stroke-linecap="round" stroke-linejoin="round"/>
<path d="M37.6987 104.953C37.6987 104.953 30.1227 120.185 34.3943 139.459" stroke="#333333" stroke-width="1.5" stroke-linecap="round" stroke-linejoin="round"/>
<path d="M44.0426 103.053C44.0426 103.053 41.7514 112.932 41.9241 114.348" stroke="#333333" stroke-width="1.5" stroke-linecap="round" stroke-linejoin="round"/>
<path d="M41.6019 123.57C41.6019 123.57 41.1183 130.893 42.0854 134.807" stroke="#333333" stroke-width="1.5" stroke-linecap="round" stroke-linejoin="round"/>
<path d="M98.9857 109.236C98.9857 109.236 103.142 117.215 104.109 122.108C105.076 127.001 98.7324 138.227 98.7324 138.227" stroke="#333333" stroke-width="1.5" stroke-linecap="round" stroke-linejoin="round"/>
</g>
<defs>
<clipPath id="clip0_425_7373">
<rect width="140" height="140" fill="white"/>
</clipPath>
</defs>
</svg>
