<svg width="187" height="188" viewBox="0 0 187 188" fill="none" xmlns="http://www.w3.org/2000/svg">
<g clip-path="url(#clip0_1_2493)">
<path d="M83.4473 113.481C83.4473 113.481 84.4048 116.812 86.869 117.45" stroke="#333333" stroke-width="1.5" stroke-linecap="round" stroke-linejoin="round"/>
<path d="M75.6042 124.026C75.6042 124.026 79.6173 126.435 87.6434 126.435C95.6696 126.435 101.119 124.026 101.119 124.026C101.119 124.026 97.9648 130.262 89.0093 130.744C80.5184 131.197 75.6042 124.026 75.6042 124.026Z" stroke="#333333" stroke-width="1.5" stroke-linecap="round" stroke-linejoin="round"/>
<path d="M51.6806 94.6883C51.6806 102.171 53.4548 117.521 61.0726 127.115C66.7191 134.23 67.3387 134.769 70.4646 137.929C74.4918 141.983 80.9409 147.751 88.9952 147.751C93.0223 147.751 98.8519 146.334 105.892 139.247C112.933 132.161 114.003 129.695 117.453 123.062C120.903 116.429 124.451 103.164 122.818 93.3419C118.086 64.7981 106.709 56.8614 93.2899 54.1544C78.5753 51.1923 70.4646 58.2078 70.4646 58.2078C70.4646 58.2078 59.7209 60.8297 55.6937 69.8719C50.8217 80.8274 51.6666 81.1817 51.6666 94.6883H51.6806Z" stroke="#333333" stroke-width="1.5" stroke-linecap="round" stroke-linejoin="round"/>
<path d="M98.7252 100.471C98.7252 100.471 99.1898 95.7937 103.414 95.7937C109.187 95.7937 110.117 98.1464 111.525 99.5637" stroke="#333333" stroke-width="1.5" stroke-linecap="round" stroke-linejoin="round"/>
<path d="M97.4438 98.1464C97.4438 98.1464 99.4151 92.2506 103.344 92.4065C107.272 92.5624 110.173 93.7387 112.862 97.0268C112.862 97.0268 101.668 88.2255 97.4438 98.1464Z" fill="#333333"/>
<path d="M100.26 97.0268C100.26 97.0268 99.6122 102.157 102.851 102.044C106.709 101.902 106.737 101.732 107.667 97.4236C107.667 97.4236 103.907 92.9025 100.26 97.0268Z" fill="#333333"/>
<path d="M74.9847 100.471C74.9847 100.471 74.52 95.7937 70.2957 95.7937C64.5225 95.7937 63.5932 98.1464 62.1851 99.5637" stroke="#333333" stroke-width="1.5" stroke-linecap="round" stroke-linejoin="round"/>
<path d="M76.266 98.1464C76.266 98.1464 74.2947 92.2506 70.3661 92.4065C66.4375 92.5624 63.5368 93.7387 60.8474 97.0268C60.8474 97.0268 72.0417 88.2255 76.266 98.1464Z" fill="#333333"/>
<path d="M73.4498 97.0268C73.4498 97.0268 74.0975 102.157 70.8589 102.044C67.0007 101.902 66.9726 101.732 66.0432 97.4236C66.0432 97.4236 69.8028 92.9025 73.4498 97.0268Z" fill="#333333"/>
<path d="M94.3319 87.2618C94.3319 87.2618 103.316 81.5077 110.117 83.9737C114.116 85.4193 115.749 86.8083 115.749 86.8083" stroke="#333333" stroke-width="1.5" stroke-linecap="round" stroke-linejoin="round"/>
<path d="M76.1956 87.687C76.1956 87.687 65.9024 82.5565 60.4954 86.9925C57.2004 89.6995 57.0314 90.1247 57.0314 90.1247" stroke="#333333" stroke-width="1.5" stroke-linecap="round" stroke-linejoin="round"/>
<path d="M65.7757 38.6069C73.0978 32.7536 91.3608 18.1132 118.199 38.3802C145.051 58.6471 139.349 106.962 144.967 123.728C151.993 144.675 156.218 153.179 151.993 167.352C147.896 181.113 156.218 187.902 156.218 187.902H126.282C126.282 187.902 131.52 189.121 127.845 172.978C124.169 156.836 111.412 149.395 115.439 133.181C119.466 116.968 124.169 90.6207 117.453 79.8069C110.736 68.9932 104.174 46.6003 74.5622 55.7701L70.4646 58.1794C70.4646 58.1794 55.5811 61.8643 51.6102 89.0759C47.6394 116.287 70.5773 138.765 73.1963 145.086C75.8295 151.407 74.6044 162.972 66.4938 169.35C66.4938 169.35 74.5622 156.949 69.1551 147.425C69.1551 147.425 62.523 181.184 53.7364 187.916H30.3057C30.3057 187.916 30.8971 167.338 37.9376 155.999C44.612 145.256 38.7965 128.476 37.9376 102.143C37.3744 84.8099 41.6127 42.6461 65.7757 38.5927V38.6069Z" fill="#333333"/>
<path d="M113.031 130.177C113.031 130.177 112.778 148.644 116.552 148.445C120.325 148.247 119.072 119.491 119.072 119.491C119.072 119.491 115.608 126.293 113.045 130.177H113.031Z" fill="#333333"/>
<path d="M115.665 145.908C115.665 145.908 103.189 157.743 97.3171 162.561C91.4454 167.38 91.1497 187.945 91.1497 187.945" stroke="#333333" stroke-width="1.5" stroke-linecap="round" stroke-linejoin="round"/>
<path d="M94.3319 167.267C94.3319 167.267 100.218 163.908 101.119 170.243C102.006 176.578 112.088 185.79 112.088 185.79L125.113 160.79" stroke="#333333" stroke-width="1.5" stroke-linecap="round" stroke-linejoin="round"/>
<path d="M67.395 150.557C67.395 150.557 82.701 162.703 87.4322 162.547C92.1634 162.391 91.9804 177.457 91.9804 177.457" stroke="#333333" stroke-width="1.5" stroke-linecap="round" stroke-linejoin="round"/>
<path d="M87.4322 162.547C87.4322 162.547 83.1938 165.325 82.0392 170.243C80.8846 175.161 76.1393 182.602 76.1393 182.602L60.7065 171.051" stroke="#333333" stroke-width="1.5" stroke-linecap="round" stroke-linejoin="round"/>
<path d="M72.5909 139.928V147.453C72.5909 147.453 61.1853 135.931 62.5793 129.326C62.5793 129.326 69.9155 137.291 72.5909 139.928Z" fill="#333333"/>
<path d="M139.321 156.028C139.321 156.028 164.216 165.042 167.961 172.581C171.707 180.121 172.876 187.93 172.876 187.93" stroke="#333333" stroke-width="1.5" stroke-linecap="round" stroke-linejoin="round"/>
<path d="M47.5549 156.028C47.5549 156.028 22.6598 165.042 18.9143 172.581C15.1687 180.121 14 187.93 14 187.93" stroke="#333333" stroke-width="1.5" stroke-linecap="round" stroke-linejoin="round"/>
</g>
<defs>
<clipPath id="clip0_1_2493">
<rect width="187" height="187" fill="white" transform="translate(0 0.541016)"/>
</clipPath>
</defs>
</svg>
