<svg width="168" height="166" viewBox="0 0 168 166" fill="none" xmlns="http://www.w3.org/2000/svg">
<path d="M73.4255 88.4891C73.4255 88.4891 74.423 91.9233 76.9898 92.5809" stroke="#333333" stroke-width="2.00357" stroke-miterlimit="10" stroke-linecap="round" stroke-linejoin="round"/>
<path d="M65.2549 99.3613C65.2549 99.3613 69.6846 102.094 78.0453 102.094C86.4059 102.094 91.833 99.3613 91.833 99.3613C91.833 99.3613 87.418 106.23 78.0893 106.727C69.2445 107.194 65.2549 99.3613 65.2549 99.3613Z" stroke="#333333" stroke-width="2.00357" stroke-miterlimit="10" stroke-linecap="round" stroke-linejoin="round"/>
<path d="M40.3335 69.1115C40.3335 76.8274 42.1817 92.6538 50.117 102.547C55.9988 109.883 56.6442 110.438 59.9004 113.697C64.0954 117.877 71.092 123.444 79.482 123.444C83.677 123.444 87.872 124.833 96.2621 115.085C102.819 107.457 105.253 105.207 108.847 98.3676C112.441 91.5285 116.137 77.8503 114.436 67.7232C109.507 38.2918 97.6555 30.1083 83.677 27.3171C68.3491 24.2629 59.9004 31.4966 59.9004 31.4966C59.9004 31.4966 48.7089 34.2 44.5138 43.5234C39.4388 54.805 40.3335 55.1703 40.3335 69.1115Z" stroke="#333333" stroke-width="2.00357" stroke-miterlimit="10" stroke-linecap="round" stroke-linejoin="round"/>
<path d="M89.3394 76.5352C89.3394 76.5352 89.8234 71.7128 94.2238 71.7128C100.238 71.7128 100.458 74.6793 103.259 74.6793" stroke="#333333" stroke-width="2.00357" stroke-miterlimit="10" stroke-linecap="round" stroke-linejoin="round"/>
<path d="M87.8733 73.2178C87.8733 73.2178 90.0295 68.7899 94.2245 68.7899C98.4195 68.7899 98.6248 70.2513 101.558 71.7126" stroke="#333333" stroke-width="2.00357" stroke-miterlimit="10" stroke-linecap="round" stroke-linejoin="round"/>
<path d="M90.9389 72.984C90.9389 72.984 90.2641 78.2741 93.6378 78.1572C97.6567 78.0111 97.6861 77.8357 98.6542 73.3932C98.6542 73.3932 94.7378 68.7315 90.9389 72.984Z" fill="#333333"/>
<path d="M63.6561 76.5352C63.6561 76.5352 63.1721 71.7128 58.7717 71.7128C52.7579 71.7128 52.5379 74.6793 49.7363 74.6793" stroke="#333333" stroke-width="2.00357" stroke-miterlimit="10" stroke-linecap="round" stroke-linejoin="round"/>
<path d="M65.1236 73.2178C65.1236 73.2178 62.9674 68.7899 58.7724 68.7899C54.5774 68.7899 54.372 70.2513 51.4385 71.7126" stroke="#333333" stroke-width="2.00357" stroke-miterlimit="10" stroke-linecap="round" stroke-linejoin="round"/>
<path d="M62.0573 72.984C62.0573 72.984 62.7321 78.2741 59.3584 78.1572C55.3395 78.0111 55.3101 77.8357 54.342 73.3932C54.342 73.3932 58.2584 68.7315 62.0573 72.984Z" fill="#333333"/>
<path d="M84.7634 62.9155C84.7634 62.9155 97.1431 58.3854 100.971 60.6066C104.785 62.8278 104.888 63.4708 104.888 63.4708" stroke="#333333" stroke-width="2.00357" stroke-miterlimit="10" stroke-linecap="round" stroke-linejoin="round"/>
<path d="M65.813 63.0473C65.813 63.0473 53.492 58.3564 49.649 60.5338C45.8061 62.7112 45.6887 63.3395 45.6887 63.3395" stroke="#333333" stroke-width="2.00357" stroke-miterlimit="10" stroke-linecap="round" stroke-linejoin="round"/>
<path d="M55.0174 11.2864C62.6447 5.25103 81.6689 -9.84464 109.626 11.0526C137.583 31.9498 131.657 81.7669 137.51 99.0546C144.829 120.653 149.229 129.421 144.829 144.035C140.56 158.224 149.229 165.224 149.229 165.224H118.045C118.045 165.224 123.502 166.481 119.673 149.836C115.845 133.192 102.556 125.52 106.751 108.802C110.946 92.084 115.845 64.9176 108.849 53.7676C101.852 42.6176 95.0167 19.5283 64.1702 28.9832L59.9018 31.4675C59.9018 31.4675 44.3979 35.267 40.2616 63.3248C36.1252 91.3826 60.0192 114.559 62.7474 121.077C65.4756 127.595 64.2142 139.519 55.7655 146.095C55.7655 146.095 64.1702 133.308 58.5377 123.488C58.5377 123.488 51.6292 158.297 42.4764 165.239H18.0691C18.0691 165.239 18.6851 144.02 26.0191 132.329C32.9716 121.252 26.9138 103.95 26.0191 76.7984C25.4324 58.9554 29.8474 15.4658 55.0174 11.2864Z" fill="#333333"/>
<path d="M104.242 105.704C104.242 105.704 103.978 124.745 107.909 124.54C111.84 124.336 110.535 94.6851 110.535 94.6851C110.535 94.6851 106.912 101.699 104.242 105.704Z" fill="#333333"/>
<path d="M106.984 121.924C106.984 121.924 93.9888 134.127 87.8723 139.095C81.7558 144.064 81.4478 165.268 81.4478 165.268" stroke="#333333" stroke-width="2.00357" stroke-miterlimit="10" stroke-linecap="round" stroke-linejoin="round"/>
<path d="M84.7634 143.947C84.7634 143.947 90.8946 140.484 91.8333 147.016C92.7574 153.548 103.26 163.047 103.26 163.047L116.827 137.269" stroke="#333333" stroke-width="2.00357" stroke-miterlimit="10" stroke-linecap="round" stroke-linejoin="round"/>
<path d="M56.7031 126.718C56.7031 126.718 72.6471 139.241 77.5755 139.081C82.4892 138.92 82.3132 154.454 82.3132 154.454" stroke="#333333" stroke-width="2.00357" stroke-miterlimit="10" stroke-linecap="round" stroke-linejoin="round"/>
<path d="M77.5759 139.081C77.5759 139.081 73.1609 141.945 71.9581 147.016C70.7554 152.087 65.8123 159.759 65.8123 159.759L49.7363 147.849" stroke="#333333" stroke-width="2.00357" stroke-miterlimit="10" stroke-linecap="round" stroke-linejoin="round"/>
<path d="M62.1156 115.758V123.517C62.1156 123.517 50.2346 111.637 51.6868 104.827C51.6868 104.827 59.3434 113.04 62.1156 115.758Z" fill="#333333"/>
<path d="M131.627 132.358C131.627 132.358 157.56 141.652 161.461 149.427C165.363 157.201 166.58 165.253 166.58 165.253" stroke="#333333" stroke-width="2.00357" stroke-miterlimit="10" stroke-linecap="round" stroke-linejoin="round"/>
<path d="M36.0365 132.358C36.0365 132.358 10.1037 141.652 6.20209 149.427C2.30044 157.201 1.08301 165.253 1.08301 165.253" stroke="#333333" stroke-width="2.00357" stroke-miterlimit="10" stroke-linecap="round" stroke-linejoin="round"/>
</svg>
