<svg xmlns="http://www.w3.org/2000/svg" width="140" height="140" viewBox="0 0 140 140">
  <g fill="none" fill-rule="evenodd">
    <path stroke="#333" stroke-linecap="round" stroke-linejoin="round" stroke-width="1.5" d="M74.5400758 72.9946029C74.5400758 72.9946029 74.9273339 76.0250384 73.1412048 77.4275222M37.9072694 56.0767319C37.9072694 62.2878771 36.4459629 75.4863771 43.2029952 83.4631029 48.2114952 89.3736997 48.9234629 89.3235706 51.9459952 91.7028932 59.4399468 97.5884255 63.5366403 101.107167 70.6809306 101.107167 74.2530758 101.107167 79.1616565 101.357587 86.9178823 94.0445061 91.91385 89.3361029 95.09885 86.6187481 98.1588661 81.1089577 101.218882 75.5990545 102.455398 63.1143287 101.006624 54.9622642 96.8100113 31.2699739 86.7180435 24.6831997 74.8151081 22.4417319 61.7631565 19.9747964 54.56885 25.7976674 54.56885 25.7976674 54.56885 25.7976674 45.0390274 27.9765868 41.4668823 35.4774255 37.1453984 44.5687319 37.9072694 44.8567481 37.9072694 56.0767319z"/>
    <path stroke="#333" stroke-linecap="round" stroke-linejoin="round" stroke-width="1.5" d="M78.5369629 62.4129739C78.5369629 62.4129739 79.773479 58.5310222 84.2323661 58.5310222 88.6912532 58.5310222 91.6638823 59.5453448 93.1501403 60.5721997M76.4634952 53.0965384C76.4634952 53.0965384 88.2790435 46.0338771 95.5731565 50.1036997M61.5756242 62.4129739C61.5756242 62.4129739 60.3391081 58.5310222 55.880221 58.5310222 51.421221 58.5310222 48.4485919 59.5453448 46.9623339 60.5721997"/>
    <path fill="#333" fill-rule="nonzero" d="M51.4338661 63.0266029C51.4338661 63.0266029 52.2705919 58.4434093 55.6929145 58.4434093 58.1908984 58.4434093 59.4398339 60.5721997 59.4398339 63.6402319 59.4398339 63.6402319 55.2807048 66.0069093 51.4338661 63.0266029zM81.4096726 63.0266029C81.4096726 63.0266029 82.2465113 58.4434093 85.668721 58.4434093 88.1667048 58.4434093 89.4157532 59.5328126 89.4157532 62.6008448 89.4157532 62.6008448 85.2566242 66.0069093 81.4096726 63.0266029z"/>
    <path stroke="#333" stroke-linecap="round" stroke-linejoin="round" stroke-width="1.5" d="M64.8980274,53.0965384 C64.8980274,53.0965384 53.082479,46.0338771 45.7883661,50.1036997"/>
    <path fill="#333" fill-rule="nonzero" d="M54.4438661,32.1465545 C54.4438661,32.1465545 76.925721,32.497119 85.668721,39.6599255 C94.411721,46.8227319 103.079753,68.2359577 96.2477532,81.68499 C89.4157532,95.1340222 91.4891081,97.3129416 91.4891081,97.3129416 C91.4891081,97.3129416 99.1828984,91.4524739 103.042269,87.9210868 C106.90164,84.3898126 115.99385,65.243119 112.697076,50.3414739 C109.399624,35.4399416 91.9137371,-5.15759711 51.9458823,18.7225868 C51.9458823,18.7225868 41.9538339,16.3307319 35.7089306,28.2771352 C29.4639145,40.2234255 24.4679468,64.0910545 31.9618984,78.4291997 C39.45585,92.7672319 51.3587855,92.2287964 55.6928016,94.7708126 C55.6928016,94.7708126 41.9538339,84.7529093 40.7048984,65.9694255 C39.9805113,55.0249255 46.9373823,39.7100545 54.4438661,32.1465545 Z"/>
    <path fill="#333" fill-rule="nonzero" d="M90.0403339,7.57760451 C63.1868661,-6.35977936 59.4399468,3.19478031 59.4399468,3.19478031 C59.4399468,3.19478031 48.1989629,0.803015797 41.9539468,10.3575755 C35.7089306,19.9121352 26.3290435,35.4272964 27.278221,58.7188932 C28.2275113,82.01049 29.4640274,93.5186029 29.4640274,93.5186029 C29.4640274,93.5186029 45.700979,97.2752319 55.6929145,94.7708126 C53.3072694,93.2305868 55.0309629,94.1196997 51.9458823,91.7027803 C48.92335,89.3361029 48.2113823,89.3736997 43.2029952,83.4631029 C36.44585,75.4989093 37.9071565,62.2877642 37.9071565,56.0767319 C37.9071565,44.8691674 37.1578177,44.568619 41.4793016,35.4774255 C45.0514468,27.9765868 54.5812694,25.7976674 54.5812694,25.7976674 C54.5812694,25.7976674 61.7630435,19.9747964 74.8275274,22.4290868 C86.7304629,24.6706674 96.8223177,31.2574416 101.019044,54.9497319 C102.467818,63.1143287 101.231302,75.5865222 98.1712855,81.0964255 C95.1112694,86.6062158 91.9262694,89.3361029 86.9303016,94.0319739 C84.3198661,96.4989093 85.206721,96.2108932 83.1832694,97.2502803 C87.2924952,97.8763287 95.4609306,94.4451997 100.669269,94.7457481 C104.203931,94.9461513 107.238995,99.679619 109.412269,99.7546997 C111.148382,99.817361 111.910253,101.006909 111.910253,101.006909 C111.910253,101.006909 111.872769,81.6724577 114.408689,67.1965706 C116.943366,52.7206835 116.893689,21.5150222 90.0403339,7.57760451 Z"/>
    <path fill="#333" fill-rule="nonzero" d="M54.5563177,94.0447319 L55.6929145,99.7674577 L51.9459952,97.2629255 C51.9459952,97.2629255 50.6969468,101.019667 50.6969468,103.524087 C50.6969468,103.524087 50.83435,98.5152481 49.4478984,97.2629255 L48.1989629,102.271877 L45.700979,97.2629255 C45.700979,97.2629255 45.9882048,98.5903287 44.4519306,101.019667 L41.9539468,97.2629255 L41.9539468,102.271877 L38.2070274,98.5152481 L36.957979,101.019667 L35.7090435,96.0107158 L30.7129629,102.271877 C30.7129629,102.271877 29.4640274,98.5152481 29.5139306,93.5939093 L54.5563177,94.0447319 Z"/>
    <path stroke="#333" stroke-linecap="round" stroke-linejoin="round" stroke-width="1.5" d="M51.9458003 92.2537481C51.9458003 92.2537481 51.9832532 103.486264 49.4477855 106.02828 46.9123177 108.570409 28.589479 114.330958 19.6591726 117.698861 10.7288661 121.067893-2.00556417e-14 138.649184-2.00556417e-14 138.649184M121.889656 117.310474C128.634495 120.667087 138.126269 138.599506 138.126269 138.599506M42.5283984 110.899603C42.5283984 110.899603 50.9591081 118.5637 73.1786887 118.5637M120.640947 124.811764C120.640947 124.811764 122.901269 132.438377 122.389818 138.649184M22.5445274 117.299184C22.5445274 117.299184 20.0964468 132.763538 20.6085758 138.649184M40.1553984 114.869506C40.1553984 114.869506 50.3721242 123.572087 74.42785 123.572087M61.5755113 83.2127964C61.5755113 83.2127964 66.9836887 84.2521835 71.3302371 84.2521835 75.6766726 84.2521835 81.4095597 82.1735222 81.4095597 82.1735222 81.4095597 82.1735222 78.1746565 88.0089255 71.3302371 88.0089255 65.6847371 87.9963932 61.5755113 83.2127964 61.5755113 83.2127964zM81.8967371 128.12999C82.0841565 127.804829 82.0592048 127.416442 82.1465919 127.066442 82.1964952 126.828216 81.9592855 126.653216 81.7594468 126.540313 81.4970597 126.390151 81.2473177 126.227571 80.9725113 126.089829 80.8226887 126.014184 80.747721 125.888861 80.6352694 125.800796 80.3605758 125.5637 80.2355919 125.249829 80.1232532 124.961925 80.0357532 124.737248 79.9733177 124.486603 79.9733177 124.248377 79.9733177 124.123055 80.0732371 124.036119 80.1482048 123.948055 80.2980274 123.760635 80.3605758 123.547248 80.4354306 123.33499 80.5604145 123.0087 80.8351081 122.796442 81.1348661 122.607893 81.17235 122.583055 81.2347855 122.583055 81.2223661 122.533377 81.2098339 122.49499 81.1599306 122.482571 81.1224468 122.470151 80.9725113 122.420474 80.8975435 122.332409 80.8476403 122.207087 80.7976242 122.094184 80.6852855 121.982409 80.5728339 121.894345 80.3605758 121.706925 80.3230919 121.493538 80.3855274 121.267732 80.4230113 121.12999 80.4354306 120.979829 80.5103984 120.854506 80.5229306 120.829667 80.5229306 120.804829 80.53535 120.792409 80.5604145 120.730313 80.7102371 120.716764 80.6352694 120.617409 80.5604145 120.516925 80.4354306 120.479667 80.3230919 120.428861 79.9608984 120.26628 79.5237371 119.752571 79.6985113 119.439829 79.7984306 119.264829 79.8234952 119.051442 79.9234145 118.876442 80.0482855 118.663055 80.1856887 118.475635 80.4354306 118.337893 80.6727532 118.212571 80.8851242 118.074829 81.047479 117.887409 81.1099145 117.811764 81.17235 117.762087 81.2722694 117.737248 81.6220435 117.624345 81.8343016 117.3737 82.0841565 117.161442 82.1465919 117.098216 82.2215597 117.036119 82.2964145 116.985313 82.5213177 116.822732 82.6461887 116.622893 82.571221 116.33499 82.5462694 116.222087 82.6836726 116.209667 82.7461081 116.158861 82.958479 115.983861 83.0957694 115.99628 83.3956403 116.109184 83.6828661 116.222087 83.9700919 116.347409 84.2323661 116.522409 84.4447371 116.660151 84.5071726 116.472732 84.5946726 116.384667 84.8069306 116.197248 84.8318823 115.959022 84.6571081 115.683538 84.6070919 115.607893 84.6070919 115.520958 84.6445758 115.457732 84.7444952 115.257893 84.7195435 114.956442 85.031721 114.881925 85.2440919 114.844667 85.4688823 114.80628 85.6937855 114.769022 85.9311081 114.719345 86.18085 114.694506 86.4056403 114.6437 86.5306242 114.618861 86.6804468 114.505958 86.7428823 114.368216 86.81785 114.180796 87.0051565 114.067893 87.1301403 113.917732 87.2924952 113.716764 87.5047532 113.529345 87.7171242 113.366764 87.9419145 113.191764 88.1667048 112.9287 88.5914468 113.015635 88.6163984 113.015635 88.6538823 113.015635 88.6663016 113.015635 88.9411081 112.890313 89.1909629 113.028055 89.4532371 113.128538 89.7404629 113.229022 89.9903177 113.404022 90.2400597 113.554184 90.2900758 113.592571 90.339979 113.617409 90.3525113 113.667087 90.3649306 113.942571 90.6022532 114.105151 90.8146242 114.28128 90.8770597 114.330958 90.9270758 114.393055 90.9394952 114.45628 91.0144629 114.731764 91.3766565 114.869506 91.6639952 114.869506 91.9137371 114.869506 92.1010435 114.756603 92.3383661 114.731764 92.4883016 114.719345 92.6381242 114.668538 92.7880597 114.668538 93.10035 114.668538 93.3626242 114.530796 93.6748016 114.518377 93.8247371 114.505958 93.9621403 114.443861 94.1119629 114.518377 94.1494468 114.530796 94.1994629 114.543216 94.2244145 114.518377 94.3867694 114.330958 94.6490435 114.45628 94.8614145 114.443861 95.0736726 114.431442 95.2985758 114.45628 95.4984145 114.569184 95.5732694 114.606442 95.6607694 114.618861 95.7481565 114.594022 95.8356565 114.569184 95.9105113 114.594022 95.985479 114.63128 96.1727855 114.706925 96.2977694 114.857087 96.4601242 114.96999 96.5350919 115.019667 96.5225597 115.107732 96.5100274 115.169829 96.4976081 115.357248 96.5724629 115.432893 96.7848339 115.445313 97.0845919 115.457732 97.3718177 115.520958 97.6591565 115.6587 97.7840274 115.720796 97.9589145 115.671119 98.0338823 115.770474 98.2086565 115.99628 98.4959952 116.021119 98.7207855 116.134022 98.9331565 116.246925 99.1204629 116.134022 99.29535 116.059506 99.6450113 115.895796 100.057221 115.846119 100.469431 115.82128 100.669269 115.808861 100.856576 115.8337 101.056415 115.921764 101.218769 115.99628 101.368705 116.045958 101.393656 116.234506 101.393656 116.284184 101.456092 116.33499 101.518527 116.359829 102.043076 116.622893 102.342834 117.0237 102.542673 117.511442 102.642592 117.749667 102.630173 117.961925 102.692608 118.187732 102.730092 118.313055 102.817479 118.401119 102.929931 118.438377 103.242108 118.576119 103.329608 118.638216 103.292124 118.888861 103.267173 119.089829 103.35456 119.164345 103.554398 119.201603 103.929124 119.252409 104.141382 119.515474 104.403656 119.715313 104.44114 119.752571 104.466205 119.790958 104.54106 119.778538 105.053189 119.740151 105.502882 119.91628 105.865076 120.26628 106.12735 120.516925 106.189785 121.155958 106.002479 121.431442 105.890027 121.594022 105.81506 121.781442 105.939931 121.994829 105.977415 122.056925 105.952463 122.132571 105.964995 122.194667 106.002479 122.332409 106.177253 122.457732 106.364673 122.457732 106.551979 122.470151 106.67685 122.545796 106.739285 122.695958 106.776769 122.796442 106.826785 122.883377 106.901753 122.959022 106.951656 123.0087 106.951656 123.071925 106.939237 123.134022 106.876689 123.421925 106.976608 123.584506 107.301431 123.722248 107.413769 123.773055 107.526221 123.810313 107.638673 123.85999 107.763544 123.910796 107.875882 123.985313 107.938318 124.098216 108.038237 124.260796 108.26314 124.398538 108.225656 124.599506 108.163221 124.899829 108.300624 125.249829 108.100785 125.525313 108.025818 125.638216 108.013285 125.775958 107.963382 125.90128 107.95085 125.952087 107.925898 126.001764 107.888415 126.039022 107.738479 126.214022 107.801027 126.377732 108.03835 126.540313 108.17564 126.628377 108.313044 126.702893 108.475398 126.752571 108.862656 126.903861 109.00006 127.140958 109.025011 127.492087 109.062495 127.868055 108.875076 128.143538 108.762737 128.4687 108.712721 128.63128 108.500463 128.719345 108.425495 128.869506 108.400544 128.931603 108.250608 128.944022 108.300624 129.044506 108.36306 129.169829 108.412963 129.295151 108.562898 129.383216 109.037544 129.6587 109.062495 129.82128 108.875076 130.134022 108.800221 130.259345 108.775156 130.372248 108.887608 130.547248 108.987527 130.722248 108.887608 130.923216 108.825173 131.098216 108.787689 131.1987 108.725253 131.299184 108.700302 131.410958 108.650285 131.574667 108.550366 131.674022 108.375479 131.724829 108.200705 131.786925 108.113205 131.949506 107.938318 132.025151 107.701108 132.112087 107.463785 132.125635 107.213931 132.074829 107.151495 132.062409 107.076527 132.012732 107.014092 132.04999 106.951656 132.099667 107.026624 132.162893 107.051576 132.212571 107.201511 132.488055 107.114011 132.952087 106.889221 133.151925 106.851737 133.176764 106.839205 133.215151 106.814253 133.252409 106.714334 133.427409 106.589463 133.577571 106.302237 133.565151 106.239689 133.565151 106.139769 133.58999 106.114818 133.640796 106.002479 133.778538 105.840011 133.790958 105.665237 133.803377 105.402963 133.828216 105.290511 133.965958 105.340415 134.204184 105.352947 134.26628 105.340415 134.317087 105.327995 134.379184 105.290511 134.516925 105.203124 134.654667 105.228076 134.817248 105.240495 134.942571 105.07814 135.005796 105.053189 135.12999 105.028237 135.267732 104.878302 135.267732 104.753431 135.318538 104.366285 135.45628 103.929124 135.419022 103.529447 135.493538 103.35456 135.530796 103.154721 135.443861 102.954882 135.431442 102.767576 135.431442 102.567737 135.443861 102.367898 135.380635 102.342834 135.368216 102.30535 135.380635 102.292931 135.368216 102.193011 135.318538 102.093092 135.205635 101.993173 135.318538 101.930737 135.380635 101.843237 135.431442 101.768382 135.505958 101.505995 135.781442 101.168866 136.007248 100.756656 136.044506 100.48185 136.056925 100.119656 136.069345 99.84485 135.8187 99.7824145 135.769022 99.7449306 135.769022 99.6950274 135.8187 99.5700435 135.982409 99.4076887 136.120151 99.2453339 136.245474 98.9206242 136.49499 98.3585919 136.383216 98.02135 136.056925 97.8714145 135.919184 97.6841081 135.8187 97.4968016 135.719345 97.3468661 135.6437 97.1595597 135.744184 97.1220758 135.881925 97.1095435 135.906764 97.1220758 135.956442 97.0971242 135.96999 96.6849145 136.169829 96.4101081 136.570635 95.8231242 136.507409 95.685721 136.49499 95.56085 136.408055 95.47335 136.357248 95.2610919 136.219506 94.9988177 136.169829 94.83635 135.944022 94.6240919 135.656119 94.4492048 135.368216 94.4492048 135.055474 94.4492048 134.892893 94.3618177 134.892893 94.2493661 134.905313 94.074479 134.930151 93.9121242 134.979829 93.7372371 134.992248 93.3001887 135.030635 92.9003984 135.155958 92.5132532 135.318538 92.1885435 135.45628 91.8138177 135.518377 91.4390919 135.193216 91.314221 135.080313 91.2767371 134.992248 91.314221 134.868055 91.3891887 134.667087 91.4641565 134.467248 91.5390113 134.253861 91.5515435 134.229022 91.5515435 134.204184 91.5640758 134.191764 91.5890274 134.1037 91.5640758 134.028055 91.4765758 133.978377 91.3766565 133.9287 91.314221 134.003216 91.2643177 134.066442 91.0894306 134.291119 90.8146242 134.354345 90.4899145 134.253861 90.2025758 134.153377 90.0152694 133.91628 90.0152694 133.602409 90.0152694 133.464667 89.9403016 133.365313 89.8154306 133.289667 89.6905597 133.201603 89.5655758 133.23999 89.4781887 133.314506 89.2658177 133.477087 88.9785919 133.503055 88.72885 133.58999 88.5789145 133.640796 88.4664629 133.740151 88.2666242 133.702893 88.0793177 133.665635 87.8669468 133.490635 87.879479 133.339345 87.8920113 133.189184 87.8170435 133.114667 87.6671081 133.063861 87.2924952 132.9137 86.9052371 132.888861 86.5306242 132.826764 86.0934629 132.7387 85.7311565 132.500474 85.6312371 132.099667 85.5688016 131.836603 85.4688823 131.587087 85.4814145 131.311603 85.4814145 131.223538 85.418979 131.135474 85.3190597 131.073377 85.2191403 131.0237 85.1441726 131.048538 85.0817371 131.098216 84.90685 131.235958 84.6571081 131.260796 84.4322048 131.273216 83.8827048 131.299184 83.4704952 130.797893 83.6453823 130.372248 83.6828661 130.296603 83.7953177 130.209667 83.7327694 130.134022 83.63285 130.021119 83.507979 129.921764 83.3831081 129.8337 83.0958823 129.620313 82.7461081 129.607893 82.4338177 129.470151 82.1715435 129.357248 82.0716242 129.194667 81.9467532 129.007248 81.684479 128.694506 81.7343823 128.405474 81.8967371 128.12999zM85.1818823 98.6778287C85.4316242 98.5650384 85.6564145 98.4272964 85.8313016 98.2520706 85.8937371 98.1894093 85.9687048 98.1392803 86.0686242 98.1143287 86.4558823 98.0266029 86.6681403 97.7761835 86.9304145 97.5757803 87.0053823 97.5257642 87.0678177 97.4631029 87.1553177 97.4130868 87.3925274 97.2628126 87.5175113 97.0624093 87.4300113 96.7743932 87.3925274 96.6617158 87.5424629 96.6491835 87.6174306 96.5990545 87.842221 96.4362481 87.9920435 96.4487803 88.3292855 96.5865222 88.6541081 96.7117319 88.9662855 96.8494739 89.2660435 97.0373448 89.5033661 97.1750868 89.5658016 96.9997481 89.6533016 96.9246674 89.8780919 96.7493287 89.9030435 96.5114416 89.6906726 96.2359577 89.6282371 96.1607642 89.6282371 96.0731513 89.665721 96.01049 89.7781726 95.8101997 89.7281565 95.5096513 90.0653984 95.4595222 90.302721 95.4219255 90.5525758 95.4095061 90.7898984 95.3844416 91.0521726 95.3468448 91.3144468 95.3343126 91.5641887 95.2841835 91.7015919 95.2592319 91.8639468 95.1589739 91.9139629 95.0337642 91.9888177 94.8458932 92.1887694 94.7457481 92.3260597 94.5954739 92.5009468 94.3951835 92.7133177 94.2323771 92.9381081 94.0821029 93.1754306 93.9192964 93.4127532 93.6688771 93.8748661 93.7815545 93.8998177 93.7940868 93.9373016 93.7940868 93.9622532 93.7815545 94.2620113 93.6814093 94.5368177 93.8191513 94.8365758 93.9318287 95.1612855 94.0445061 95.4360919 94.2198448 95.7108984 94.3951835 95.7608016 94.4326674 95.82335 94.4702642 95.8357694 94.5203932 95.860721 94.7958771 96.1355274 94.9712158 96.3603177 95.1589739 96.4228661 95.2091029 96.4853016 95.2716513 96.5102532 95.3343126 96.5976403 95.6097964 97.00985 95.7726029 97.3221403 95.7851352 97.5968339 95.7976674 97.7966726 95.6975222 98.0465274 95.68499 98.2088823 95.6724577 98.3712371 95.634861 98.5461242 95.6473932 98.8957855 95.6599255 99.1705919 95.5347158 99.5078339 95.5347158 99.6701887 95.5347158 99.8201242 95.4720545 99.9948984 95.5596674 100.032382 95.5721997 100.094818 95.5972642 100.119882 95.5721997 100.294656 95.3969739 100.581995 95.5347158 100.806785 95.5347158 101.044108 95.5347158 101.281431 95.5721997 101.518753 95.68499 101.593608 95.7224739 101.693527 95.7475384 101.793447 95.7224739 101.880947 95.6975222 101.968334 95.7350061 102.068253 95.7726029 102.280624 95.8476835 102.418027 96.01049 102.605334 96.1356997 102.680302 96.1858287 102.680302 96.2734416 102.680302 96.3486352 102.667769 96.5365061 102.755269 96.6115868 102.992479 96.6366513 103.317302 96.6617158 103.642011 96.7367964 103.954302 96.8870706 104.091705 96.9497319 104.279011 96.9121352 104.378931 97.0122803 104.578769 97.2377481 104.89106 97.2752319 105.140802 97.4130868 105.378124 97.5382964 105.577963 97.4380384 105.765269 97.3629577 106.152527 97.2126835 106.589689 97.187619 107.039269 97.1750868 107.25164 97.1750868 107.476431 97.2001513 107.688802 97.3002964 107.863576 97.37549 108.038463 97.4380384 108.075947 97.6259093 108.088479 97.6760384 108.150915 97.7260545 108.21335 97.751119 108.800334 98.0391352 109.150108 98.452361 109.39985 98.9407803 109.524834 99.1786674 109.524834 99.3916029 109.599689 99.6169577 109.637173 99.7421674 109.749624 99.8298932 109.874495 99.8799093 110.224269 100.030184 110.324189 100.092845 110.286705 100.343264 110.26164 100.531135 110.374092 100.618748 110.586463 100.656345 110.99856 100.731425 111.248415 100.994377 111.548173 101.207313 111.598076 101.244909 111.610608 101.282393 111.697995 101.282393 112.26014 101.269861 112.759173 101.470264 113.172398 101.833474 113.484011 102.096425 113.572076 102.735006 113.372237 102.997958 113.259334 103.160764 113.184818 103.336103 113.321431 103.561458 113.372237 103.624119 113.346269 103.68678 113.358689 103.761861 113.397076 103.899603 113.609334 104.024813 113.809173 104.049877 114.021431 104.062409 114.158044 104.150022 114.233689 104.300296 114.283366 104.400555 114.345463 104.488167 114.433527 104.57578 114.495624 104.638442 114.495624 104.688571 114.483205 104.751119 114.433527 105.039135 114.545302 105.201942 114.907721 105.352216 115.033044 105.402345 115.157237 105.452361 115.28256 105.50249 115.432721 105.565038 115.544495 105.640232 115.62014 105.752909 115.731915 105.928248 115.994979 106.06599 115.956592 106.26628 115.906915 106.566829 116.069495 106.917506 115.857237 107.180458 115.782721 107.280603 115.770302 107.430877 115.731915 107.556087 115.719495 107.606216 115.694656 107.656345 115.657398 107.693829 115.494818 107.856635 115.570463 108.019442 115.844818 108.19478 115.994979 108.294925 116.156431 108.370119 116.331431 108.432667 116.755947 108.595474 116.918527 108.845893 116.981753 109.196571 117.04385 109.5722 116.844011 109.835151 116.743527 110.148232 116.69385 110.311038 116.469173 110.3737 116.394656 110.536506M116.494011 110.824522C116.594495 110.649296 116.69385 110.599167 116.831592 110.599167 116.906108 110.599167 116.980624 110.586635 117.056269 110.624232 117.068689 110.624232 117.081108 110.624232 117.093527 110.624232 117.130785 110.636764 117.143205 110.736909 117.194011 110.674248 117.243689 110.6117 117.256108 110.511555 117.280947 110.423829 117.355463 110.148345 117.618527 109.772716 117.793527 109.847796 117.892882 109.885393 118.005785 109.872861 118.10514 109.92299 118.218044 109.973006 118.329818 110.0482 118.417882 110.198474 118.492398 110.348748 118.579334 110.473958 118.692237 110.561571 118.729495 110.599167 118.766753 110.636764 118.779173 110.699313 118.854818 110.92478 119.004979 111.037458 119.129173 111.1752 119.166431 111.212796 119.204818 111.25028 119.229656 111.300409 119.329011 111.438151 119.441915 111.48828 119.592076 111.400555 119.654173 111.363071 119.666592 111.463216 119.691431 111.500813 119.791915 111.626022 119.791915 111.726167 119.741108 111.939103 119.691431 112.151925 119.641753 112.377732 119.553689 112.577571 119.491592 112.740151 119.592076 112.76499 119.641753 112.815796 119.753527 112.9287 119.87885 112.91628 120.016592 112.752571 120.05385 112.702893 120.103527 112.702893 120.140785 112.715313 120.253689 112.76499 120.416269 112.702893 120.465947 112.902732 120.503205 113.054022 120.515624 113.204184 120.552882 113.341925 120.591269 113.504506 120.616108 113.667087 120.653366 113.817248 120.678205 113.905313 120.740302 113.992248 120.815947 114.005796 120.915302 114.030635 120.990947 114.143538 121.077882 114.218055 121.190785 114.306119 121.30256 114.419022 121.390624 114.543216 121.489979 114.680958 121.64014 114.793861 121.615302 115.094184 121.615302 115.120151 121.615302 115.132571 121.615302 115.14499 121.689818 115.31999 121.627721 115.507409 121.590463 115.708377 121.552076 115.920635 121.46514 116.121603 121.390624 116.309022 121.378205 116.347409 121.364656 116.384667 121.327398 116.397087 121.177237 116.446764 121.102721 116.635313 121.015785 116.797893 120.990947 116.847571 120.964979 116.884829 120.927721 116.910796 120.77756 116.997732 120.715463 117.273216 120.727882 117.474184 120.740302 117.649184 120.803527 117.762087 120.828366 117.924667 120.840785 118.025151 120.878044 118.125635 120.878044 118.237409 120.890463 118.463216 120.978527 118.613377 120.990947 118.826764 121.003366 118.926119 121.040624 119.014184 121.015785 119.139506 121.003366 119.164345 121.003366 119.214022 121.015785 119.227571 121.12756 119.314506 121.065463 119.515474 121.077882 119.653216 121.090302 119.803377 121.090302 119.953538 121.040624 120.116119 121.028205 120.165796 121.015785 120.241442 121.040624 120.291119 121.053044 120.341925 121.040624 120.404022 121.028205 120.467248 120.990947 120.617409 120.915302 120.716764 120.865624 120.842087 120.840785 120.892893 120.791108 120.905313 120.752721 120.905313 120.653366 120.917732 120.616108 120.979829 120.616108 121.12999 120.616108 121.343377 120.603689 121.556764 120.540463 121.769022 120.515624 121.857087 120.540463 121.982409 120.490785 122.044506 120.377882 122.194667 120.377882 122.395635 120.315785 122.570635 120.266108 122.733216 120.328205 122.846119 120.377882 122.959022 120.478366 123.1837 120.528044 123.459184 120.552882 123.734667 120.565302 123.872409 120.565302 124.010151 120.528044 124.160313 120.490785 124.285635 120.478366 124.398538 120.377882 124.435796 120.353044 124.449345 120.328205 124.499022 120.315785 124.53628 120.191592 124.937087 119.991753 125.200151 119.741108 125.413538 119.616915 125.512893 119.504011 125.538861 119.378689 125.613377 119.316592 125.650635 119.266915 125.7387 119.254495 125.814345 119.192398 126.051442 119.166431 126.114667 119.029818 126.127087 118.916915 126.139506 118.879656 126.214022 118.879656 126.351764 118.867237 126.614829 118.741915 126.803377 118.64256 127.015635 118.63014 127.054022 118.605302 127.066442 118.617721 127.116119 118.654979 127.467248 118.579334 127.804829 118.405463 128.105151 118.28014 128.330958 117.94256 128.45628 117.779979 128.368216 117.680624 128.318538 117.58014 128.28128 117.468366 128.405474 117.431108 128.443861 117.39385 128.431442 117.367882 128.45628 117.293366 128.493538 117.243689 128.6437 117.243689 128.769022 117.243689 128.906764 117.206431 128.994829 117.130785 129.069345 117.081108 129.107732 117.031431 129.157409 116.994173 129.219506 116.968205 129.257893 116.930947 129.270313 116.906108 129.270313 116.743527 129.270313 116.669011 129.357248 116.606915 129.607893 116.580947 129.695958 116.568527 129.782893 116.543689 129.858538 116.51885 129.959022 116.481592 130.045958 116.431915 130.109184 116.34385 130.196119 116.281753 130.384667 116.16885 130.384667 116.007398 130.384667 115.819979 130.522409 115.669818 130.421925 115.607721 130.384667 115.532076 130.397087 115.45756 130.384667 115.432721 130.384667 115.407882 130.372248 115.381915 130.359829 115.28256 130.284184 115.195624 130.347409 115.119979 130.534829 115.070302 130.647732 115.045463 130.747087 115.020624 130.85999 114.957398 131.147893 114.833205 131.273216 114.645785 131.348861 114.445947 131.423377 114.283366 131.336442 114.108366 131.311603 114.021431 131.298055 113.970624 131.160313 113.871269 131.135474 113.834011 131.123055 113.821592 131.022571 113.770785 131.073377 113.708689 131.135474 113.634173 131.18628 113.596915 131.298055 113.471592 131.661603 113.383527 131.71128 113.197237 131.624345 113.121592 131.587087 113.059495 131.599506 112.971431 131.686442 112.884495 131.786925 112.771592 131.737248 112.672237 131.724829 112.61014 131.71128 112.559334 131.686442 112.497237 131.674022 112.410302 131.661603 112.347076 131.611925 112.309818 131.499022 112.27256 131.386119 112.172076 131.348861 112.134818 131.235958 112.072721 131.085796 112.060302 130.923216 112.08514 130.734667 112.08514 130.68499 112.109979 130.622893 112.08514 130.596925 112.060302 130.559667 112.023044 130.622893 111.998205 130.647732 111.860237 130.785474 111.597963 130.797893 111.485624 130.660151 111.473092 130.647732 111.44814 130.635313 111.435608 130.622893 111.335689 130.572087 111.248302 130.50999 111.248302 130.309022 111.248302 130.259345 111.22335 130.209667 111.198285 130.1837 111.123431 130.134022 111.110898 130.0087 111.085947 129.895796 111.060995 129.720796 110.986027 129.6587 110.861156 129.733216 110.823673 129.758055 110.798608 129.745635 110.773656 129.745635 110.698689 129.733216 110.623834 129.695958 110.536334 129.745635 110.473898 129.770474 110.423995 129.671119 110.361447 129.671119 110.286592 129.671119 110.27406 129.570635 110.249108 129.482571 110.161608 129.231925 110.161608 128.931603 110.099173 128.656119 110.074221 128.543216 110.111705 128.380635 110.111705 128.255313 110.111705 128.117571 110.086753 127.979829 110.111705 127.842087 110.111705 127.817248 110.111705 127.804829 110.111705 127.77999 110.136656 127.704345 110.186673 127.617409 110.124237 127.554184 110.086753 127.516925 110.061689 127.467248 110.011785 127.428861 109.849431 127.291119 109.712027 127.09128 109.687076 126.803377 109.662011 126.614829 109.649592 126.365313 109.774463 126.139506 109.799415 126.089829 109.799415 126.063861 109.761931 126.039022 109.674544 125.976925 109.587156 125.876442 109.512189 125.788377 109.362253 125.600958 109.399737 125.187732 109.562092 124.912248 109.62464 124.786925 109.674544 124.636764 109.72456 124.499022 109.761931 124.386119 109.699495 124.260796 109.62464 124.260796 109.612108 124.260796 109.587156 124.273216 109.574624 124.260796 109.449753 123.997732 109.224963 123.872409 109.237382 123.446764 109.237382 123.347409 109.274866 123.246925 109.299818 123.1837 109.362253 123.021119 109.387318 122.82128 109.499656 122.683538 109.649592 122.49499 109.786995 122.332409 109.961769 122.282732 110.049269 122.257893 110.049269 122.194667 110.036737 122.120151 110.011785 122.007248 109.986834 121.894345 109.961769 121.781442 109.924398 121.481119 109.836898 121.218055 109.736979 120.979829 109.649592 120.767571 109.599576 120.516925 109.761931 120.216603 109.811947 120.1037 109.86185 120.078861 109.924398 120.09128 110.036737 120.116119 110.149189 120.140958 110.261527 120.153377 110.27406 120.153377 110.286592 120.153377 110.299011 120.153377 110.349027 120.153377 110.386511 120.128538 110.411463 120.066442 110.436415 119.990796 110.386511 119.953538 110.361447 119.9287 110.236576 119.840635 110.186673 119.653216 110.236576 119.41499 110.27406 119.201603 110.398931 119.039022 110.561285 118.989345 110.636253 118.964506 110.686269 118.90128 110.723753 118.814345 110.761124 118.713861 110.736173 118.638216 110.698689 118.576119 110.598769 118.450796 110.573818 118.249829 110.523915 118.087248 110.486431 117.987893 110.436415 117.924667 110.436415 117.786925 110.448947 117.649184 110.536334 117.474184 110.611302 117.474184 110.698689 117.461764 110.723753 117.398538 110.748705 117.285635 110.81114 117.010151 110.81114 116.734667 110.836092 116.459184 110.861044 116.134022 110.986027 115.858538 111.185866 115.733216 111.323269 115.645151 111.46056 115.545796 111.597963 115.520958 111.647979 115.507409 111.685463 115.457732 111.710415 115.369667 111.735366 115.295151 111.710415 115.245474 111.685463 115.207087 111.597963 115.107732 111.585544 114.931603 111.560479 114.781442 111.523108 114.405474 111.77285 114.043055 112.023044 114.105151 112.072721 114.117571 112.122398 114.193216 112.147237 114.12999 112.198044 114.043055 112.247721 113.942571 112.297398 113.842087"/>
    <path stroke="#333" stroke-linecap="round" stroke-linejoin="round" stroke-width="1.5" d="M86.5056726 104.463216C86.4681887 104.513345 86.4432371 104.550942 86.4057532 104.563361 86.2433984 104.626022 86.143479 104.888974 86.1309468 105.089377 86.1184145 105.264716 86.1684306 105.389925 86.1684306 105.552732 86.1684306 105.652877 86.1809629 105.765555 86.1809629 105.8657 86.1558984 106.091167 86.2183339 106.253974 86.2059145 106.466796 86.2059145 106.566942 86.2308661 106.654667 86.1809629 106.779877 86.1684306 106.804942 86.1558984 106.842425 86.1684306 106.86749 86.2558177 106.967748 86.1809629 107.155506 86.1684306 107.30578 86.1558984 107.456055 86.1309468 107.606329 86.055979 107.756603 86.0310274 107.806732 86.0184952 107.86928 86.0310274 107.931942 86.0435597 107.982071 86.0184952 108.044619 85.9935435 108.10728 85.9436403 108.245022 85.843721 108.332635 85.7812855 108.457845 85.7438016 108.507974 85.7063177 108.507974 85.6688339 108.507974 85.5689145 108.507974 85.5188984 108.55799 85.4939468 108.708264 85.4689952 108.9212 85.418979 109.121603 85.3190597 109.321893 85.2815758 109.409619 85.2941081 109.534829 85.2316726 109.584845 85.0942694 109.722587 85.0693177 109.92299 84.9819306 110.085796 84.9069629 110.236071 84.9568661 110.36128 84.99435 110.473958 85.0693177 110.711845 85.0693177 110.987329 85.0567855 111.275345 85.0567855 111.4132 85.0318339 111.550942 84.9693984 111.688684 84.9193823 111.801361 84.8818984 111.914038 84.781979 111.939103 84.7446081 111.951635 84.7195435 111.989119 84.7071242 112.026716 84.5322371 112.402571 84.2949145 112.640796 84.0076887 112.815796 83.8702855 112.903861 83.7454145 112.903861 83.6204306 112.965958 83.5455758 112.990796 83.4955597 113.066442 83.4706081 113.140958 83.3706887 113.366764 83.3332048 113.428861 83.1958016 113.416442 83.0958823 113.404022 83.0334468 113.479667 83.0084952 113.617409 82.958479 113.880474 82.7961242 114.043055 82.6712532 114.242893 82.6463016 114.267732 82.6212371 114.2937 82.6212371 114.343377 82.6088177 114.694506 82.4838339 115.019667 82.2715758 115.295151 82.109221 115.49499 81.7594468 115.570635 81.6220435 115.457732 81.5346565 115.383216 81.4347371 115.344829 81.3098661 115.445313 81.2723823 115.470151 81.2348984 115.457732 81.1974145 115.482571 81.1224468 115.507409 81.0350597 115.645151 81.0225274 115.782893 81.0101081 115.908216 80.9600919 116.0087 80.8727048 116.058377 80.8226887 116.096764 80.7602532 116.134022 80.71035 116.1837 80.6728661 116.222087 80.6479145 116.234506 80.6104306 116.222087 80.4480758 116.196119 80.3605758 116.271764 80.2606565 116.50999 80.2231726 116.584506 80.198221 116.672571 80.1607371 116.748216 80.1232532 116.835151 80.07335 116.923216 80.0109145 116.972893 79.9109952 117.048538 79.8234952 117.223538 79.7111565 117.1987 79.5486887 117.173861 79.3489629 117.285635 79.1990274 117.161442 79.1490113 117.110635 79.0616242 117.110635 78.9991887 117.098216 78.9742371 117.085796 78.9491726 117.085796 78.924221 117.060958 78.8368339 116.960474 78.7369145 117.010151 78.6369952 117.1987 78.5745597 117.299184 78.5370758 117.398538 78.4870597 117.511442 78.3871403 117.786925 78.2373177 117.899829 78.037479 117.937087 77.8251081 117.987893 77.6877048 117.87499 77.5129306 117.811764 77.4254306 117.786925 77.3879468 117.649184 77.3130919 117.599506 77.2756081 117.587087 77.2880274 117.486603 77.2255919 117.523861 77.1506242 117.574667 77.0757694 117.624345 77.0257532 117.724829 76.8508661 118.062409 76.7509468 118.099667 76.5885919 117.987893 76.5261565 117.949506 76.463721 117.937087 76.3512694 118.025151 76.25135 118.112087 76.1514306 118.04999 76.0515113 118.012732 76.0016081 117.987893 75.9515919 117.949506 75.8891565 117.937087 75.8017694 117.912248 75.7517532 117.850151 75.7393339 117.737248 75.7142694 117.611925 75.6268823 117.574667 75.6019306 117.449345 75.5644468 117.299184 75.576979 117.123055 75.6268823 116.948055 75.6394145 116.898377 75.6768984 116.847571 75.6518339 116.810313 75.6268823 116.773055 75.5893984 116.822732 75.5519145 116.847571 75.3895597 116.960474 75.1398177 116.935635 75.0398984 116.785474 75.0273661 116.760635 75.0024145 116.748216 74.9898823 116.734667 74.8899629 116.672571 74.8275274 116.596925 74.852479 116.397087 74.8650113 116.347409 74.8400597 116.284184 74.8275274 116.271764 74.7525597 116.209667 74.7650919 116.084345 74.7650919 115.971442 74.7650919 115.796442 74.7026565 115.720796 74.5652532 115.770474 74.5277694 115.782893 74.5028177 115.782893 74.4653339 115.770474 74.3903661 115.745635 74.3279306 115.708377 74.2280113 115.733216 74.1530435 115.758055 74.1280919 115.645151 74.0656565 115.632732 73.9906887 115.620313 73.9906887 115.520958 73.9782694 115.432893 73.9282532 115.169829 73.9657371 114.869506 73.9532048 114.594022 73.9407855 114.4687 74.003221 114.330958 74.0156403 114.193216 74.0281726 114.055474 74.0281726 113.917732 74.0781887 113.77999 74.0781887 113.767571 74.0781887 113.742732 74.0906081 113.716764 74.1280919 113.642248 74.1905274 113.566603 74.1406242 113.504506 74.1031403 113.467248 74.0906081 113.404022 74.0531242 113.366764 73.915721 113.204184 73.8033823 112.978377 73.8158016 112.690474 73.8283339 112.503055 73.8408661 112.252184 73.9906887 112.039248 74.0281726 111.989119 74.0281726 111.964167 74.003221 111.939103 73.915721 111.863909 73.8532855 111.763764 73.79085 111.651087 73.665979 111.438151 73.7658984 111.037458 73.9657371 110.787038 74.0531242 110.674361 74.1155597 110.536619 74.1781081 110.398877 74.2280113 110.286087 74.1781081 110.160877 74.1155597 110.148345 74.1031403 110.148345 74.0781887 110.148345 74.0656565 110.135813 73.9782694 109.860329 73.7784306 109.697522 73.8408661 109.284296 73.8532855 109.184151 73.915721 109.096538 73.9407855 109.033877 74.0281726 108.883603 74.0781887 108.695845 74.2030597 108.558103 74.3779468 108.395296 74.5403016 108.257555 74.7150758 108.23249 74.8025758 108.219958 74.8149952 108.157296 74.8149952 108.082216 74.8149952 107.957006 74.7900435 107.856748 74.7900435 107.731538 74.7900435 107.43099 74.7525597 107.155506 74.6901242 106.905087 74.640221 106.679732 74.6276887 106.4292 74.8275274 106.153716 74.9024952 106.053571 74.9523984 106.028506 75.0148339 106.053571 75.1272855 106.091167 75.2272048 106.128651 75.3396565 106.166248 75.3520758 106.166248 75.3646081 106.17878 75.3771403 106.17878 75.4270435 106.191313 75.4645274 106.166248 75.5020113 106.1037 75.5394952 106.028506 75.5020113 105.991022 75.4645274 105.965958 75.3520758 105.8657 75.3271242 105.677942 75.4145113 105.439942 75.489479 105.239651 75.6268823 105.089377 75.8017694 105.064313 75.8767371 105.05178 75.9391726 105.001651 75.9890758 104.914038 76.0390919 104.826425 76.0265597 104.7387 76.0016081 104.676151 75.9266403 104.538409 75.9266403 104.338006 75.8891565 104.1752 75.8642048 104.075055 75.826721 103.999861 75.8516726 103.862119 75.8767371 103.724377 75.9890758 103.574103 76.0765758 103.574103 76.1639629 103.574103 76.2014468 103.511555 76.25135 103.411409 76.3638016 103.148345 76.3887532 102.872861 76.4511887 102.597377 76.5261565 102.284296 76.6885113 102.021345 76.9134145 101.933732 77.0632371 101.871071 77.2131726 101.79599 77.3629952 101.783458 77.4130113 101.783458 77.4629145 101.733329 77.5003984 101.658248 77.5378823 101.583055 77.52535 101.533038 77.5003984 101.495442 77.4379629 101.382764 77.4379629 101.207425 77.4503823 101.057151 77.4754468 100.681522 77.7752048 100.355909 77.9999952 100.456055 78.037479 100.468587 78.0873823 100.556313 78.1248661 100.506184 78.1873016 100.43099 78.2497371 100.330845 78.3122855 100.243232 78.4495758 100.030296 78.4746403 99.7924093 78.5745597 99.5669416 78.6494145 99.3791835 78.7493339 99.2914577 78.8617855 99.2038448 79.0490919 99.0410384 79.2115597 99.0535706 79.34885 99.1537158 79.5237371 99.2665061 79.7361081 99.2289093 79.9234145 99.2539739 80.0482855 99.2789255 80.1607371 99.0911674 80.2357048 98.9534255 80.3356242 98.7655545 80.4480758 98.5776835 80.5354629 98.3773932 80.5853661 98.2647158 80.6603339 98.2020545 80.7227694 98.1269739 80.8727048 97.9265706 81.047479 97.8138932 81.2223661 97.7136352 81.34735 97.6385545 81.4971726 97.5884255 81.6345758 97.5634739 81.7095435 97.5509416 81.7470274 97.6260222 81.7843984 97.663619 81.8718984 97.7637642 81.9967694 97.7888287 82.109221 97.8264255 82.2839952 97.9015061 82.3839145 98.0643126 82.4714145 98.2647158 82.4838339 98.2896674 82.4838339 98.3272642 82.5088984 98.3147319 82.53385 98.3021997 82.5463823 98.2647158 82.5463823 98.2396513 82.5837532 98.1269739 82.6337694 98.0768448 82.7087371 98.0267158 82.7711726 97.989119 82.8461403 97.9015061 82.8960435 97.8138932 83.0209145 97.663619 83.1333661 97.61349 83.2582371 97.6385545 83.3332048 97.6510868 83.4081726 97.6510868 83.4830274 97.7011029 83.4955597 97.7136352 83.5080919 97.7136352 83.5205113 97.7136352 83.5579952 97.7261674 83.5455758 97.8389577 83.6080113 97.7762964 83.6704468 97.7136352 83.6953984 97.6260222 83.7328823 97.5384093 83.8453339 97.2753448 84.1575113 96.9498448 84.3198661 97.0374577 84.4073661 97.100119 84.5322371 97.100119 84.6196242 97.1626674 84.7320758 97.237861 84.8319952 97.3254739 84.8818984 97.4882803 84.9319145 97.6385545 85.0068823 97.7762964 85.0942694 97.8889739 85.1317532 97.9265706 85.1567048 97.9641674 85.1692371 98.0392481 85.206721 98.2772481 85.3315919 98.4024577 85.4440435 98.5651513 85.4689952 98.6027481 85.506479 98.6528771 85.5314306 98.7030061 85.6063984 98.8531674 85.7187371 98.9158287 85.8812048 98.8531674 85.9436403 98.8282158 85.9436403 98.928361 85.9685919 98.9659577M68.2952855 139.062409C68.3952048 139.012732 68.3952048 138.961925 68.3078177 138.87499 68.0455435 138.611925 67.8457048 138.310474 67.6333339 138.010151 67.2336565 137.434345 67.4959306 136.770474 68.0580758 136.533377 68.2953984 136.432893 68.4952371 136.244345 68.6575919 136.056925 68.7949952 135.906764 68.6450597 135.594022 68.4202694 135.4687 68.3702532 135.443861 68.2952855 135.417893 68.2828661 135.393055 67.9831081 134.729184 67.3335758 134.116119 67.4959306 133.390151 67.5334145 133.226442 67.68335 133.114667 67.7832694 133.039022 68.0455435 132.864022 68.1454629 132.537732 68.5326081 132.475635 69.0322048 132.387571 69.5193823 132.337893 70.0439306 132.537732 70.3187371 132.638216 70.3311565 132.525313 70.3187371 132.375151 70.2937855 132.136925 70.2188177 131.887409 70.2062855 131.649184 70.1813339 131.048538 70.0064468 130.459184 69.7816565 129.846119 69.5818177 129.332409 69.50685 128.80628 70.0814145 128.530796 70.2812532 128.430313 70.4310758 128.45628 70.6309145 128.581603 70.9681565 128.80628 71.292979 129.032087 71.6301081 129.257893 71.6675919 129.282732 71.7050758 129.307571 71.7425597 129.332409 71.8799629 129.420474 72.0297855 129.432893 72.1047532 129.344829 72.2046726 129.244345 72.0798016 129.120151 71.9798823 129.019667 71.6176887 128.656119 71.542721 128.255313 71.7425597 127.905313 71.9298661 127.591442 72.3546081 127.504506 72.8666242 127.704345 73.1039468 127.792409 73.2663016 127.755151 73.4162371 127.654667 73.5660597 127.541764 73.5161565 127.366764 73.4037048 127.204184 73.1414306 126.828216 73.1414306 126.427409 73.0040274 126.051442 72.9291726 125.826764 72.7792371 125.613377 72.8542048 125.375151 72.9291726 125.150474 73.24135 124.986764 73.5036242 125.112087 73.753479 125.237409 73.87835 125.175313 73.9908016 125.012732 74.2780274 124.624345 74.3404629 124.135474 74.5028177 123.68499 74.6902371 123.17128 75.1273984 122.858538 75.78935 122.983861 76.2265113 123.058377 76.6760919 123.109184 77.1132532 123.296603 77.2631887 123.359829 77.4130113 123.333861 77.5129306 123.234506 77.61285 123.134022 77.5629468 123.021119 77.487979 122.895796 77.2756081 122.570635 77.2506565 122.231925 77.2631887 121.931603 77.2756081 121.205635 78.1499306 120.979829 78.8493661 121.493538 78.9742371 121.581603 79.1116403 121.80628 79.2365113 121.756603 79.4239306 121.693377 79.5988177 121.594022 79.7735919 121.493538M114.108366 137.596925C113.908527 137.409506 113.708689 137.246925 113.496431 137.220958 113.384656 137.208538 113.384656 137.134022 113.384656 137.045958 113.397076 136.908216 113.421915 136.782893 113.434334 136.645151 113.446753 136.295151 113.521269 135.994829 113.609334 135.693377 113.68385 135.443861 113.721108 135.142409 113.496431 134.829667 113.409495 134.716764 113.358689 134.691925 113.271753 134.716764 113.134011 134.755151 112.997398 134.804829 112.872076 134.854506 112.859656 134.854506 112.847237 134.866925 112.822398 134.866925 112.771592 134.879345 112.709495 134.854506 112.672237 134.77999 112.634979 134.691925 112.684656 134.654667 112.721915 134.617409 112.872076 134.492087 112.896915 134.2787 112.822398 134.015635 112.746753 133.777409 112.571753 133.614829 112.371915 133.58999 112.27256 133.577571 112.210463 133.514345 112.147237 133.41499 112.08514 133.314506 112.109979 133.214022 112.147237 133.151925 112.26014 133.001764 112.26014 132.763538 112.309818 132.576119 112.347076 132.463216 112.397882 132.375151 112.371915 132.212571 112.347076 132.062409 112.222882 131.87499 112.109979 131.887409 112.010624 131.887409 111.960269 131.824184 111.910253 131.698861 111.797915 131.398538 111.772963 131.085796 111.710415 130.773055 111.63556 130.409506 111.460673 130.121603 111.185866 130.0087 111.010979 129.933055 110.836205 129.846119 110.648785 129.8337 110.58635 129.8337 110.523915 129.770474 110.486431 129.683538 110.448947 129.595474 110.461479 129.545796 110.498963 129.49499 110.58635 129.357248 110.598882 129.169829 110.598882 128.98128 110.598882 128.543216 110.249108 128.180796 109.961882 128.292571 109.911866 128.318538 109.861963 128.405474 109.811947 128.343377 109.737092 128.255313 109.662124 128.142409 109.599689 128.043055"/>
    <path fill="#333" fill-rule="nonzero" d="M91.6766403 121.594022C93.6750274 120.691925 96.585221 121.793861 97.4844952 123.810313 98.7834468 126.702893 94.1496726 127.541764 92.9255758 127.065313 91.4768016 126.514345 89.6782532 122.49499 91.6766403 121.594022zM90.5774145 114.668538C91.956979 114.668538 93.0753984 113.547409 93.0753984 112.164458 93.0753984 110.78128 91.956979 109.660038 90.5774145 109.660038 89.1977371 109.660038 88.0794306 110.78128 88.0794306 112.164458 88.0794306 113.547409 89.1977371 114.668538 90.5774145 114.668538zM103.654431 119.653216C105.033995 119.653216 106.152415 118.532087 106.152415 117.147893 106.152415 115.764829 105.033995 114.6437 103.654431 114.6437 102.274866 114.6437 101.156447 115.764829 101.156447 117.147893 101.156447 118.532087 102.274866 119.653216 103.654431 119.653216z"/>
    <line x1="48.598" x2="46.375" y1="75.211" y2="77.54" stroke="#333" stroke-linecap="round" stroke-linejoin="round" stroke-width="1.5"/>
    <line x1="53.594" x2="51.371" y1="75.211" y2="77.54" stroke="#333" stroke-linecap="round" stroke-linejoin="round" stroke-width="1.5"/>
    <line x1="58.59" x2="56.367" y1="75.211" y2="77.54" stroke="#333" stroke-linecap="round" stroke-linejoin="round" stroke-width="1.5"/>
    <line x1="86.069" x2="83.845" y1="75.211" y2="77.54" stroke="#333" stroke-linecap="round" stroke-linejoin="round" stroke-width="1.5"/>
    <line x1="91.064" x2="88.841" y1="75.211" y2="77.54" stroke="#333" stroke-linecap="round" stroke-linejoin="round" stroke-width="1.5"/>
    <line x1="96.061" x2="93.837" y1="75.211" y2="77.54" stroke="#333" stroke-linecap="round" stroke-linejoin="round" stroke-width="1.5"/>
  </g>
</svg>
