<svg width="128" height="125" viewBox="0 0 128 125" fill="none" xmlns="http://www.w3.org/2000/svg">
<path d="M71.377 58.9851C71.377 58.9851 69.6109 61.3926 67.4829 61.1617" stroke="#333333" stroke-width="1.5" stroke-miterlimit="10" stroke-linecap="round" stroke-linejoin="round"/>
<path d="M37.0211 47.1128C37.2624 52.8181 39.8183 72.3306 47.9904 77.9589C51.7528 80.5532 54.89 82.2022 58.9596 83.6752C61.658 84.6426 63.3473 85.9618 68.3054 85.9288C70.938 85.9178 72.8576 84.7196 75.4134 83.6752C78.6932 82.3231 82.6312 80.7291 86.3827 76.8267C90.7704 72.2536 97.2751 53.3018 95.9149 42.0561C93.2714 20.0593 80.8542 14.8706 69.2049 13.3756C56.4367 11.7047 35.8803 20.6089 37.0211 47.1128Z" stroke="#333333" stroke-width="1.5" stroke-miterlimit="10" stroke-linecap="round" stroke-linejoin="round"/>
<path d="M73.2197 40.2533C73.2197 40.2533 80.262 37.2083 85.944 37.9668C88.4231 38.2966 90.2659 39.7916 90.2659 39.7916" stroke="#333333" stroke-width="1.5" stroke-miterlimit="10" stroke-linecap="round" stroke-linejoin="round"/>
<path d="M71.4098 44.7163C71.4976 43.8698 71.9583 43.1333 72.5945 42.7376C73.7463 42.023 76.1815 41.0776 80.964 41.0776C85.4395 41.0776 88.4999 41.9131 90.2659 42.6056C91.3738 43.0454 92.032 44.3645 91.8236 45.7166C91.5493 47.4755 91.1325 49.7291 90.6718 50.2457C89.893 51.1142 87.1617 51.6748 80.964 51.6748C74.7664 51.6748 72.3532 51.1142 71.6731 48.1461C71.3221 46.662 71.3221 45.5078 71.4098 44.7163Z" stroke="#333333" stroke-width="1.5" stroke-miterlimit="10" stroke-linecap="round" stroke-linejoin="round"/>
<path d="M86.1195 47.4646C86.1195 47.4646 82.4119 42.3419 76.0059 47.3656" stroke="#333333" stroke-width="1.5" stroke-miterlimit="10" stroke-linecap="round" stroke-linejoin="round"/>
<path d="M77.8488 46.0025C77.8488 46.0025 77.0042 49.2564 80.3937 49.2564C84.6059 49.2564 82.9385 46.0025 82.9385 46.0025C82.9385 46.0025 81.2493 43.8369 77.8488 46.0025Z" fill="#333333"/>
<path d="M63.3475 40.2532C63.3475 40.2532 56.2942 37.2082 50.6232 37.9777C48.1551 38.3184 46.3013 39.8135 46.3013 39.8135" stroke="#333333" stroke-width="1.5" stroke-miterlimit="10" stroke-linecap="round" stroke-linejoin="round"/>
<path d="M65.1573 44.7163C65.0586 43.8698 64.576 43.1333 63.9069 42.7376C62.6893 42.023 60.1225 41.0776 55.0986 41.0776C50.3818 41.0776 47.1568 41.9131 45.2921 42.6056C44.1293 43.0454 43.4273 44.3645 43.6467 45.7166C43.9319 47.4755 44.3816 49.7291 44.8643 50.2457C45.687 51.1142 48.5609 51.6748 55.0986 51.6748C61.6362 51.6748 64.1701 51.1142 64.8941 48.1461C65.2451 46.662 65.2451 45.5078 65.1573 44.7163Z" stroke="#333333" stroke-width="1.5" stroke-miterlimit="10" stroke-linecap="round" stroke-linejoin="round"/>
<path d="M50.4475 47.4646C50.4475 47.4646 54.1551 42.3419 60.5611 47.3656" stroke="#333333" stroke-width="1.5" stroke-miterlimit="10" stroke-linecap="round" stroke-linejoin="round"/>
<path d="M58.7185 46.0025C58.7185 46.0025 59.5631 49.2564 56.1736 49.2564C51.9614 49.2564 53.6288 46.0025 53.6288 46.0025C53.6288 46.0025 55.318 43.8369 58.7185 46.0025Z" fill="#333333"/>
<path d="M65.1792 45.167C65.1792 45.167 67.3621 43.2323 71.3878 45.167" stroke="#333333" stroke-width="1.5" stroke-miterlimit="10" stroke-linecap="round" stroke-linejoin="round"/>
<path d="M37.4709 45.7936L43.6027 44.3096V47.1457L37.438 47.4645L37.4709 45.7936Z" fill="#333333"/>
<path d="M95.1363 45.7936L91.8674 44.3096V47.1457L95.1582 47.4645L95.1363 45.7936Z" fill="#333333"/>
<path d="M57.7202 67.2627C58.9597 67.6695 63.4571 66.2184 68.3384 66.3723C73.2197 66.5262 73.7792 66.9989 77.3442 67.3287C77.3442 67.3287 75.4465 71.8248 67.1976 71.4291C60.0567 71.0993 57.7202 67.2627 57.7202 67.2627Z" stroke="#333333" stroke-width="1.5" stroke-miterlimit="10" stroke-linecap="round" stroke-linejoin="round"/>
<path d="M72.1228 15.1235C72.1228 15.1235 57.8628 16.2667 51.2812 21.9721C44.6997 27.6774 41.3212 43.5072 36.9774 45.8816L37.8439 54.5331C37.8439 54.5331 35.4856 48.5529 31.8657 49.5423C31.8657 49.5423 28.2459 27.6884 37.0212 15.1235C45.4237 3.09724 57.6215 -2.90488 72.1228 2.55859C72.1228 2.55859 78.7702 -0.871196 89.6736 7.13164C100.577 15.1345 102.837 29.9749 102.837 37.9777C102.837 45.9806 97.8895 50.9714 97.8895 50.9714H95.6957C95.6957 50.9714 95.7834 35.955 90.7705 27.6994C85.7576 19.4437 72.1228 15.1235 72.1228 15.1235Z" fill="#333333"/>
<path d="M37.6683 52.8181C37.6683 52.8181 34.2679 45.6837 30.1544 50.9603C26.0409 56.2369 35.0247 68.3841 37.6683 66.8781C40.3119 65.383 40.0816 64.4486 40.0816 64.4486" stroke="#333333" stroke-width="1.5" stroke-miterlimit="10" stroke-linecap="round" stroke-linejoin="round"/>
<path d="M35.2661 49.0146C35.2661 49.0146 35.2332 64.4377 32.831 70.0551C30.4287 75.6724 39.2041 81.3778 39.2041 81.3778C39.2041 81.3778 33.5111 76.398 34.1692 72.6054C34.8164 68.8129 37.8439 50.1029 37.4271 48.6079C37.0212 47.1129 35.2661 49.0146 35.2661 49.0146Z" fill="#333333"/>
<path d="M95.6956 50.9603C95.6956 50.9603 98.4488 47.1017 99.5458 51.6748C100.643 56.2478 94.0611 65.1631 93.5127 64.7014C92.9642 64.2397 92.4048 64.7234 92.4048 64.7234" stroke="#333333" stroke-width="1.5" stroke-miterlimit="10" stroke-linecap="round" stroke-linejoin="round"/>
<path d="M83.2566 80.0366C83.2566 80.0366 83.092 84.7965 84.3535 89.2926C85.615 93.7778 95.6957 96.6359 95.6957 96.6359C95.6957 96.6359 88.5657 109.641 73.6914 114.137L73.2197 123.689" stroke="#333333" stroke-width="1.5" stroke-miterlimit="10" stroke-linecap="round" stroke-linejoin="round"/>
<path d="M43.8551 73.3198C43.8551 73.3198 46.3012 83.884 43.8551 88.9078C41.4089 93.9315 30.4397 98.5046 30.4397 98.5046C30.4397 98.5046 38.0743 110.421 53.3325 114.378L54.8243 123.689" stroke="#333333" stroke-width="1.5" stroke-miterlimit="10" stroke-linecap="round" stroke-linejoin="round"/>
<path d="M97.1545 49.0147C97.1545 49.0147 98.1746 61.6236 98.8547 66.3615C99.5348 71.0995 92.4048 80.1796 92.4048 80.1796C92.4048 80.1796 97.2093 72.4406 97.2751 68.9119C97.3519 65.3831 93.6772 48.6409 97.1545 49.0147Z" fill="#333333"/>
<path d="M42.2207 70.231C42.2207 70.231 38.1182 76.8047 38.1182 82.521C38.1182 88.2373 33.7305 96.9657 33.7305 96.9657C33.7305 96.9657 43.0872 92.1178 44.4474 87.3139C45.8076 82.521 43.6137 73.3749 43.6137 73.3749L42.2207 70.231Z" fill="#333333"/>
<path d="M40.0815 93.0522C40.0815 93.0522 45.9062 104.331 63.9506 104.331C81.995 104.331 87.6441 93.0522 87.6441 93.0522" stroke="#333333" stroke-width="1.5" stroke-miterlimit="10" stroke-linecap="round" stroke-linejoin="round"/>
<path d="M95.6956 96.636C95.6956 96.636 115.484 101.011 119.027 104.331C122.57 107.651 126.289 116.896 127.177 123.701" stroke="#333333" stroke-width="1.5" stroke-miterlimit="10" stroke-linecap="round" stroke-linejoin="round"/>
<path d="M30.4397 98.5156C30.4397 98.5156 13.1412 100.912 9.59814 104.232C6.05508 107.552 1.71126 116.907 0.822754 123.7" stroke="#333333" stroke-width="1.5" stroke-miterlimit="10" stroke-linecap="round" stroke-linejoin="round"/>
<path d="M25.9094 99.2412C25.9094 99.2412 31.6573 117.929 54.0894 119.072" stroke="#333333" stroke-width="1.5" stroke-miterlimit="10" stroke-linecap="round" stroke-linejoin="round"/>
<path d="M73.4939 118.16C73.4939 118.16 87.0628 117.566 100.434 97.7571" stroke="#333333" stroke-width="1.5" stroke-miterlimit="10" stroke-linecap="round" stroke-linejoin="round"/>
<path d="M108.969 100.088C108.969 100.088 110.899 115.753 110.153 123.689" stroke="#333333" stroke-width="1.5" stroke-miterlimit="10"/>
<path d="M18.4174 100.791C18.4174 100.791 16.6404 111.18 17.507 123.689" stroke="#333333" stroke-width="1.5" stroke-miterlimit="10"/>
<path d="M40.5863 73.3198C40.5863 73.3198 36.5496 83.6532 35.1346 89.3695C33.7305 95.0858 29.1015 98.5046 29.1015 98.5046L27.489 98.9663C27.489 98.9663 31.1198 95.6464 32.4252 92.5134C33.7305 89.3695 37.5697 75.5514 40.5863 73.3198Z" fill="#333333"/>
</svg>
