<svg width="124" height="125" viewBox="0 0 124 125" fill="none" xmlns="http://www.w3.org/2000/svg">
<path d="M66.8508 65.1758C66.8508 65.1758 67.1938 67.8599 65.6118 69.1021" stroke="#333333" stroke-width="1.5" stroke-miterlimit="10" stroke-linecap="round" stroke-linejoin="round"/>
<path d="M34.4046 50.1914C34.4046 55.6927 33.1103 67.3828 39.0951 74.4479C43.5312 79.683 44.1618 79.6386 46.8389 81.746C53.4764 86.9589 57.1049 90.0755 63.4327 90.0755C66.5966 90.0755 70.9442 90.2973 77.814 83.82C82.239 79.6497 85.06 77.2429 87.7703 72.3628C90.4806 67.4826 91.5758 56.4247 90.2926 49.2043C86.5756 28.2197 77.637 22.3857 67.0944 20.4004C55.5341 18.2154 49.162 23.3728 49.162 23.3728C49.162 23.3728 40.7213 25.3027 37.5574 31.9463C33.7298 39.9986 34.4046 40.2537 34.4046 50.1914Z" stroke="#333333" stroke-width="1.5" stroke-miterlimit="10" stroke-linecap="round" stroke-linejoin="round"/>
<path d="M70.3909 55.8035C70.3909 55.8035 71.4861 52.3652 75.4354 52.3652C79.3847 52.3652 82.0176 53.2636 83.334 54.1731" stroke="#333333" stroke-width="1.5" stroke-miterlimit="10" stroke-linecap="round" stroke-linejoin="round"/>
<path d="M68.5544 47.5518C68.5544 47.5518 79.0196 41.2963 85.4801 44.901" stroke="#333333" stroke-width="1.5" stroke-miterlimit="10" stroke-linecap="round" stroke-linejoin="round"/>
<path d="M55.368 55.8035C55.368 55.8035 54.2728 52.3652 50.3235 52.3652C46.3741 52.3652 43.7412 53.2636 42.4248 54.1731" stroke="#333333" stroke-width="1.5" stroke-miterlimit="10" stroke-linecap="round" stroke-linejoin="round"/>
<path d="M46.3853 56.347C46.3853 56.347 47.1264 52.2876 50.1576 52.2876C52.3701 52.2876 53.4763 54.1731 53.4763 56.8905C53.4763 56.8905 49.7925 58.9867 46.3853 56.347Z" fill="#333333"/>
<path d="M72.9353 56.347C72.9353 56.347 73.6765 52.2876 76.7076 52.2876C78.9201 52.2876 80.0264 53.2525 80.0264 55.9699C80.0264 55.9699 76.3426 58.9867 72.9353 56.347Z" fill="#333333"/>
<path d="M58.3107 47.5518C58.3107 47.5518 47.8455 41.2963 41.385 44.901" stroke="#333333" stroke-width="1.5" stroke-miterlimit="10" stroke-linecap="round" stroke-linejoin="round"/>
<path d="M49.0513 28.9961C49.0513 28.9961 68.9638 29.3066 76.7076 35.6508C84.4514 41.995 92.1288 60.961 86.0776 72.873C80.0264 84.785 81.8628 86.7149 81.8628 86.7149C81.8628 86.7149 88.6773 81.5242 92.0956 78.3964C95.5139 75.2687 103.567 58.3102 100.647 45.1116C97.7264 31.9131 82.2389 -4.04472 46.8388 17.1063C46.8388 17.1063 37.9887 14.9878 32.4575 25.5689C26.9262 36.1499 22.5012 57.2898 29.1387 69.9893C35.7762 82.6887 46.3188 82.2118 50.1575 84.4633C50.1575 84.4633 37.9887 75.5903 36.8825 58.9535C36.2409 49.2598 42.4027 35.6952 49.0513 28.9961Z" fill="#333333"/>
<path d="M80.5796 7.23503C56.7951 -5.10951 53.4764 3.3531 53.4764 3.3531C53.4764 3.3531 43.5201 1.23468 37.9888 9.69729C32.4575 18.1599 24.1496 31.9019 24.9903 52.5316C25.8311 73.1613 26.9263 83.3542 26.9263 83.3542C26.9263 83.3542 41.3076 86.6815 50.1576 84.4633C48.0446 83.0991 49.5713 83.8866 46.8388 81.7459C44.1617 79.6497 43.5311 79.683 39.0951 74.4479C33.1102 67.3939 34.4045 55.6926 34.4045 50.1914C34.4045 40.2647 33.7408 39.9985 37.5684 31.9463C40.7323 25.3027 49.173 23.3728 49.173 23.3728C49.173 23.3728 55.534 18.2154 67.1054 20.3892C77.648 22.3746 86.5865 28.2086 90.3036 49.1932C91.5868 56.4247 90.4916 67.4715 87.7813 72.3517C85.071 77.2318 82.25 79.6497 77.825 83.8089C75.5129 85.9939 76.2984 85.7388 74.5062 86.6594C78.1458 87.2139 85.3807 84.1749 89.9938 84.4411C93.1245 84.6186 95.8127 88.8111 97.7376 88.8776C99.2753 88.9331 99.9501 89.9867 99.9501 89.9867C99.9501 89.9867 99.9169 72.8619 102.163 60.0404C104.408 47.2189 104.364 19.5796 80.5796 7.23503Z" fill="#333333"/>
<path d="M49.1509 83.8202L50.1576 88.8889L46.8389 86.6706C46.8389 86.6706 45.7326 89.998 45.7326 92.2162C45.7326 92.2162 45.8543 87.7798 44.6263 86.6706L43.5201 91.1071L41.3076 86.6706C41.3076 86.6706 41.562 87.8463 40.2013 89.998L37.9888 86.6706V91.1071L34.6701 87.7798L33.5638 89.998L32.4576 85.5615L28.0325 91.1071C28.0325 91.1071 26.9263 87.7798 26.9705 83.4209L49.1509 83.8202Z" fill="#333333"/>
<path d="M46.8387 82.2339C46.8387 82.2339 46.8719 92.1827 44.6262 94.4342C42.3805 96.6858 26.1517 101.788 18.242 104.771C10.3323 107.755 0.82959 123.327 0.82959 123.327" stroke="#333333" stroke-width="1.5" stroke-miterlimit="10" stroke-linecap="round" stroke-linejoin="round"/>
<path d="M108.789 104.427C114.763 107.4 123.17 123.283 123.17 123.283" stroke="#333333" stroke-width="1.5" stroke-miterlimit="10" stroke-linecap="round" stroke-linejoin="round"/>
<path d="M38.4976 98.7488C38.4976 98.7488 45.9648 105.537 65.645 105.537" stroke="#333333" stroke-width="1.5" stroke-miterlimit="10" stroke-linecap="round" stroke-linejoin="round"/>
<path d="M107.683 111.071C107.683 111.071 109.685 117.826 109.232 123.327" stroke="#333333" stroke-width="1.5" stroke-miterlimit="10" stroke-linecap="round" stroke-linejoin="round"/>
<path d="M20.7976 104.417C20.7976 104.417 18.6293 118.114 19.0829 123.327" stroke="#333333" stroke-width="1.5" stroke-miterlimit="10" stroke-linecap="round" stroke-linejoin="round"/>
<path d="M36.3958 102.265C36.3958 102.265 45.4449 109.973 66.7514 109.973" stroke="#333333" stroke-width="1.5" stroke-miterlimit="10" stroke-linecap="round" stroke-linejoin="round"/>
<path d="M55.3679 74.2262C55.3679 74.2262 60.158 75.1468 64.0078 75.1468C67.8575 75.1468 72.9352 73.3057 72.9352 73.3057C72.9352 73.3057 70.07 78.4742 64.0078 78.4742C59.0075 78.4631 55.3679 74.2262 55.3679 74.2262Z" stroke="#333333" stroke-width="1.5" stroke-miterlimit="10" stroke-linecap="round" stroke-linejoin="round"/>
<path d="M73.3667 114.01C73.5327 113.722 73.5106 113.378 73.588 113.068C73.6322 112.857 73.4221 112.702 73.2451 112.602C73.0127 112.469 72.7915 112.325 72.5481 112.203C72.4154 112.136 72.349 112.025 72.2494 111.947C72.0061 111.737 71.8954 111.459 71.7959 111.204C71.7184 111.005 71.6631 110.783 71.6631 110.572C71.6631 110.461 71.7516 110.384 71.818 110.306C71.9507 110.14 72.0061 109.951 72.0724 109.763C72.1831 109.474 72.4264 109.286 72.6919 109.119C72.7251 109.097 72.7804 109.097 72.7694 109.053C72.7583 109.019 72.7141 109.008 72.6809 108.997C72.5481 108.953 72.4817 108.875 72.4375 108.764C72.3932 108.664 72.2937 108.565 72.1941 108.487C72.0061 108.321 71.9729 108.132 72.0282 107.932C72.0614 107.81 72.0724 107.677 72.1388 107.566C72.1499 107.544 72.1499 107.522 72.1609 107.511C72.1831 107.456 72.3158 107.444 72.2494 107.356C72.1831 107.267 72.0724 107.234 71.9729 107.189C71.6521 107.045 71.2649 106.59 71.4197 106.313C71.5082 106.158 71.5304 105.969 71.6189 105.814C71.7295 105.625 71.8512 105.459 72.0724 105.337C72.2826 105.226 72.4707 105.104 72.6145 104.938C72.6698 104.871 72.7251 104.827 72.8136 104.805C73.1234 104.705 73.3114 104.483 73.5327 104.295C73.588 104.239 73.6544 104.184 73.7207 104.139C73.9199 103.995 74.0305 103.818 73.9641 103.563C73.942 103.463 74.0637 103.452 74.119 103.407C74.3071 103.252 74.4287 103.263 74.6943 103.363C74.9487 103.463 75.2031 103.574 75.4354 103.729C75.6235 103.851 75.6788 103.685 75.7563 103.607C75.9443 103.441 75.9664 103.23 75.8116 102.986C75.7673 102.919 75.7673 102.842 75.8005 102.786C75.889 102.609 75.8669 102.342 76.1434 102.276C76.3315 102.243 76.5306 102.209 76.7298 102.176C76.94 102.132 77.1612 102.11 77.3603 102.065C77.471 102.043 77.6037 101.943 77.659 101.821C77.7254 101.655 77.8913 101.555 78.002 101.422C78.1458 101.244 78.3338 101.078 78.5219 100.934C78.721 100.779 78.9201 100.546 79.2963 100.623C79.3184 100.623 79.3516 100.623 79.3626 100.623C79.606 100.512 79.8273 100.634 80.0596 100.723C80.314 100.812 80.5353 100.967 80.7565 101.1C80.8008 101.134 80.845 101.156 80.8561 101.2C80.8671 101.444 81.0773 101.588 81.2654 101.744C81.3207 101.788 81.365 101.843 81.376 101.899C81.4424 102.143 81.7632 102.265 82.0177 102.265C82.2389 102.265 82.4048 102.165 82.615 102.143C82.7478 102.132 82.8805 102.087 83.0133 102.087C83.2899 102.087 83.5222 101.965 83.7987 101.954C83.9315 101.943 84.0532 101.888 84.1859 101.954C84.2191 101.965 84.2634 101.976 84.2855 101.954C84.4293 101.788 84.6616 101.899 84.8497 101.888C85.0377 101.877 85.2369 101.899 85.4139 101.999C85.4802 102.032 85.5577 102.043 85.6351 102.021C85.7126 101.999 85.7789 102.021 85.8453 102.054C86.0112 102.121 86.1219 102.254 86.2657 102.354C86.3321 102.398 86.321 102.476 86.3099 102.531C86.2989 102.697 86.3652 102.764 86.5533 102.775C86.8188 102.786 87.0732 102.842 87.3277 102.964C87.4383 103.019 87.5932 102.975 87.6596 103.063C87.8144 103.263 88.0689 103.285 88.268 103.385C88.4561 103.485 88.622 103.385 88.7769 103.319C89.0866 103.174 89.4517 103.13 89.8168 103.108C89.9938 103.097 90.1597 103.119 90.3367 103.197C90.4805 103.263 90.6133 103.307 90.6354 103.474C90.6354 103.518 90.6907 103.563 90.746 103.585C91.2106 103.818 91.4761 104.173 91.6531 104.605C91.7416 104.816 91.7306 105.004 91.7859 105.204C91.8191 105.315 91.8965 105.393 91.9961 105.426C92.2726 105.548 92.3501 105.603 92.3169 105.825C92.2948 106.003 92.3722 106.069 92.5492 106.102C92.8811 106.147 93.0691 106.38 93.3014 106.557C93.3346 106.59 93.3568 106.624 93.4231 106.613C93.8767 106.579 94.275 106.735 94.5958 107.045C94.8281 107.267 94.8834 107.833 94.7175 108.077C94.6179 108.221 94.5515 108.387 94.6621 108.576C94.6953 108.631 94.6732 108.698 94.6843 108.753C94.7175 108.875 94.8723 108.986 95.0383 108.986C95.2042 108.997 95.3148 109.064 95.3701 109.197C95.4033 109.286 95.4476 109.363 95.514 109.43C95.5582 109.474 95.5582 109.53 95.5472 109.585C95.4918 109.84 95.5803 109.984 95.868 110.106C95.9675 110.151 96.0671 110.184 96.1667 110.228C96.2773 110.273 96.3768 110.339 96.4321 110.439C96.5206 110.583 96.7198 110.705 96.6866 110.883C96.6313 111.149 96.753 111.459 96.576 111.703C96.5096 111.803 96.4985 111.925 96.4543 112.036C96.4432 112.081 96.4211 112.125 96.3879 112.158C96.2551 112.313 96.3105 112.458 96.5207 112.602C96.6423 112.68 96.764 112.746 96.9078 112.79C97.2508 112.924 97.3725 113.134 97.3946 113.445C97.4278 113.778 97.2618 114.022 97.1623 114.31C97.118 114.454 96.93 114.532 96.8636 114.665C96.8415 114.72 96.7087 114.731 96.753 114.82C96.8083 114.931 96.8525 115.042 96.9853 115.12C97.4057 115.364 97.4278 115.508 97.2618 115.785C97.1955 115.896 97.1733 115.996 97.2729 116.151C97.3614 116.306 97.2729 116.484 97.2176 116.639C97.1844 116.728 97.1291 116.817 97.107 116.916C97.0627 117.061 96.9742 117.149 96.8193 117.194C96.6645 117.249 96.587 117.393 96.4321 117.46C96.222 117.537 96.0118 117.549 95.7905 117.504C95.7352 117.493 95.6688 117.449 95.6135 117.482C95.5582 117.526 95.6246 117.582 95.6467 117.626C95.7795 117.87 95.702 118.281 95.5029 118.458C95.4697 118.48 95.4586 118.514 95.4365 118.547C95.348 118.702 95.2374 118.835 94.983 118.824C94.9276 118.824 94.8391 118.846 94.817 118.891C94.7175 119.013 94.5736 119.024 94.4188 119.035C94.1865 119.057 94.0869 119.179 94.1311 119.39C94.1422 119.445 94.1311 119.49 94.1201 119.545C94.0869 119.667 94.0095 119.789 94.0316 119.933C94.0426 120.044 93.8988 120.1 93.8767 120.21C93.8546 120.332 93.7218 120.332 93.6112 120.377C93.2683 120.499 92.8811 120.466 92.5271 120.532C92.3722 120.565 92.1952 120.488 92.0182 120.477C91.8523 120.477 91.6753 120.488 91.4983 120.432C91.4761 120.421 91.4429 120.432 91.4319 120.421C91.3434 120.377 91.2549 120.277 91.1664 120.377C91.1111 120.432 91.0336 120.477 90.9673 120.543C90.7349 120.787 90.4363 120.987 90.0712 121.02C89.8278 121.031 89.507 121.042 89.2636 120.82C89.2083 120.776 89.1751 120.776 89.1309 120.82C89.0202 120.965 88.8764 121.087 88.7326 121.198C88.445 121.419 87.9472 121.32 87.6485 121.031C87.5157 120.909 87.3498 120.82 87.1839 120.732C87.0511 120.665 86.8852 120.754 86.852 120.876C86.8409 120.898 86.852 120.942 86.8299 120.954C86.4648 121.131 86.2214 121.486 85.7015 121.43C85.5798 121.419 85.4692 121.342 85.3917 121.297C85.2037 121.175 84.9714 121.131 84.8275 120.931C84.6395 120.676 84.4846 120.421 84.4846 120.144C84.4846 120 84.4072 120 84.3076 120.011C84.1527 120.033 84.0089 120.077 83.854 120.088C83.4669 120.122 83.1128 120.233 82.7699 120.377C82.4823 120.499 82.1504 120.554 81.8185 120.266C81.7079 120.166 81.6747 120.088 81.7079 119.978C81.7743 119.8 81.8407 119.623 81.907 119.434C81.9181 119.412 81.9181 119.39 81.9292 119.379C81.9513 119.301 81.9292 119.234 81.8517 119.19C81.7632 119.146 81.7079 119.212 81.6637 119.268C81.5088 119.467 81.2654 119.523 80.9778 119.434C80.7233 119.345 80.5574 119.135 80.5574 118.857C80.5574 118.735 80.491 118.647 80.3804 118.58C80.2698 118.502 80.1591 118.536 80.0817 118.602C79.8936 118.746 79.6392 118.769 79.418 118.846C79.2852 118.891 79.1856 118.979 79.0086 118.946C78.8427 118.913 78.6546 118.758 78.6657 118.624C78.6768 118.491 78.6104 118.425 78.4776 118.38C78.1458 118.247 77.8028 118.225 77.471 118.17C77.0838 118.092 76.7629 117.881 76.6744 117.526C76.6191 117.293 76.5306 117.072 76.5417 116.828C76.5417 116.75 76.4864 116.672 76.3979 116.617C76.3094 116.573 76.243 116.595 76.1877 116.639C76.0328 116.761 75.8116 116.783 75.6124 116.794C75.1257 116.817 74.7606 116.373 74.9155 115.996C74.9487 115.929 75.0483 115.852 74.9929 115.785C74.9044 115.685 74.7938 115.597 74.6832 115.519C74.4288 115.33 74.119 115.319 73.8424 115.197C73.6101 115.097 73.5216 114.953 73.411 114.787C73.1787 114.51 73.2229 114.254 73.3667 114.01Z" stroke="#333333" stroke-width="1.5" stroke-miterlimit="10" stroke-linecap="round" stroke-linejoin="round"/>
<path d="M76.2764 87.9238C76.4976 87.8239 76.6967 87.7019 76.8516 87.5467C76.9069 87.4912 76.9733 87.4468 77.0618 87.4247C77.4048 87.347 77.5928 87.1252 77.8251 86.9477C77.8915 86.9034 77.9468 86.8479 78.0243 86.8036C78.2344 86.6705 78.3451 86.493 78.2676 86.2379C78.2344 86.1381 78.3672 86.127 78.4336 86.0826C78.6327 85.9384 78.7654 85.9495 79.0641 86.0715C79.3518 86.1824 79.6283 86.3044 79.8938 86.4708C80.104 86.5928 80.1593 86.4375 80.2368 86.371C80.4359 86.2157 80.458 86.005 80.2699 85.761C80.2146 85.6944 80.2146 85.6168 80.2478 85.5613C80.3474 85.3839 80.3031 85.1177 80.6018 85.0733C80.812 85.04 81.0333 85.029 81.2435 85.0068C81.4758 84.9735 81.7081 84.9624 81.9293 84.918C82.051 84.8959 82.1948 84.8071 82.2391 84.6962C82.3054 84.5298 82.4825 84.4411 82.6041 84.308C82.759 84.1306 82.9471 83.9864 83.1462 83.8533C83.3564 83.7091 83.5666 83.4873 83.9759 83.5871C83.998 83.5982 84.0312 83.5982 84.0533 83.5871C84.3188 83.4984 84.5622 83.6204 84.8277 83.7202C85.1153 83.82 85.3587 83.9753 85.6021 84.1306C85.6463 84.1638 85.7017 84.1971 85.7127 84.2415C85.7348 84.4855 85.9782 84.6408 86.1773 84.8071C86.2327 84.8515 86.288 84.9069 86.3101 84.9624C86.3875 85.2064 86.7526 85.3506 87.0292 85.3617C87.2725 85.3728 87.4495 85.2841 87.6708 85.273C87.8146 85.2619 87.9584 85.2286 88.1133 85.2397C88.423 85.2508 88.6664 85.1399 88.9651 85.1399C89.1089 85.1399 89.2417 85.0844 89.3965 85.162C89.4297 85.1731 89.485 85.1953 89.5072 85.1731C89.662 85.0179 89.9165 85.1399 90.1156 85.1399C90.3258 85.1399 90.536 85.1731 90.7462 85.273C90.8125 85.3062 90.901 85.3284 90.9895 85.3062C91.067 85.2841 91.1444 85.3173 91.2329 85.3506C91.421 85.4171 91.5427 85.5613 91.7086 85.6722C91.775 85.7166 91.775 85.7942 91.775 85.8608C91.7639 86.0272 91.8414 86.0937 92.0515 86.1159C92.3392 86.1381 92.6268 86.2046 92.9034 86.3377C93.0251 86.3932 93.191 86.3599 93.2795 86.4486C93.4565 86.6483 93.7331 86.6815 93.9543 86.8036C94.1645 86.9145 94.3415 86.8257 94.5074 86.7592C94.8504 86.6261 95.2376 86.6039 95.6358 86.5928C95.8239 86.5928 96.023 86.615 96.2111 86.7037C96.3659 86.7703 96.5208 86.8257 96.554 86.9921C96.5651 87.0365 96.6204 87.0808 96.6757 87.103C97.1956 87.3581 97.5054 87.7241 97.7266 88.1567C97.8373 88.3674 97.8373 88.556 97.9036 88.7556C97.9368 88.8665 98.0364 88.9442 98.147 88.9885C98.4568 89.1216 98.5453 89.1771 98.5121 89.3989C98.4899 89.5653 98.5895 89.6429 98.7776 89.6762C99.1426 89.7427 99.3639 89.9756 99.6294 90.1642C99.6736 90.1975 99.6847 90.2307 99.7621 90.2307C100.26 90.2196 100.702 90.3971 101.068 90.7188C101.344 90.9517 101.422 91.5173 101.245 91.7502C101.145 91.8944 101.079 92.0497 101.2 92.2493C101.245 92.3048 101.222 92.3603 101.233 92.4268C101.267 92.5488 101.455 92.6597 101.632 92.6819C101.82 92.693 101.941 92.7706 102.008 92.9037C102.052 92.9925 102.107 93.0701 102.185 93.1477C102.24 93.2032 102.24 93.2476 102.229 93.303C102.185 93.5581 102.284 93.7023 102.605 93.8354C102.716 93.8798 102.826 93.9241 102.937 93.9685C103.07 94.0239 103.169 94.0905 103.236 94.1903C103.335 94.3456 103.568 94.4676 103.534 94.645C103.49 94.9112 103.634 95.2218 103.446 95.4547C103.38 95.5434 103.369 95.6765 103.335 95.7874C103.324 95.8318 103.302 95.8762 103.269 95.9094C103.125 96.0536 103.192 96.1978 103.435 96.3531C103.568 96.4418 103.711 96.5084 103.866 96.5638C104.242 96.708 104.386 96.9298 104.442 97.2404C104.497 97.5731 104.32 97.806 104.231 98.0833C104.187 98.2275 103.988 98.283 103.922 98.4272" stroke="#333333" stroke-width="1.5" stroke-miterlimit="10" stroke-linecap="round" stroke-linejoin="round"/>
<path d="M104.01 98.6823C104.099 98.5271 104.187 98.4827 104.309 98.4827C104.375 98.4827 104.441 98.4716 104.508 98.5049C104.519 98.5049 104.53 98.5049 104.541 98.5049C104.574 98.516 104.585 98.6047 104.63 98.5492C104.674 98.4938 104.685 98.4051 104.707 98.3274C104.773 98.0834 105.006 97.7507 105.161 97.8172C105.249 97.8505 105.349 97.8394 105.437 97.8838C105.537 97.9281 105.636 97.9947 105.714 98.1278C105.78 98.2609 105.857 98.3718 105.957 98.4494C105.99 98.4827 106.023 98.516 106.034 98.5714C106.101 98.7711 106.234 98.8709 106.344 98.9929C106.377 99.0262 106.411 99.0594 106.433 99.1038C106.521 99.2258 106.621 99.2702 106.754 99.1925C106.809 99.1593 106.82 99.248 106.842 99.2813C106.931 99.3922 106.931 99.4809 106.886 99.6695C106.842 99.858 106.798 100.058 106.72 100.235C106.665 100.379 106.754 100.401 106.798 100.446C106.897 100.546 107.008 100.535 107.13 100.39C107.163 100.346 107.207 100.346 107.24 100.357C107.34 100.401 107.484 100.346 107.528 100.523C107.561 100.657 107.572 100.79 107.605 100.912C107.639 101.056 107.661 101.2 107.694 101.333C107.716 101.411 107.771 101.488 107.838 101.5C107.926 101.522 107.993 101.622 108.07 101.688C108.17 101.766 108.269 101.866 108.347 101.976C108.435 102.098 108.568 102.198 108.546 102.464C108.546 102.487 108.546 102.498 108.546 102.509C108.612 102.664 108.557 102.83 108.524 103.008C108.49 103.196 108.413 103.374 108.347 103.54C108.336 103.574 108.324 103.607 108.291 103.618C108.158 103.662 108.092 103.829 108.015 103.973C107.993 104.017 107.97 104.05 107.937 104.073C107.804 104.15 107.749 104.394 107.76 104.572C107.771 104.727 107.827 104.827 107.849 104.971C107.86 105.06 107.893 105.149 107.893 105.248C107.904 105.448 107.982 105.581 107.993 105.77C108.004 105.858 108.037 105.936 108.015 106.047C108.004 106.069 108.004 106.113 108.015 106.125C108.114 106.202 108.059 106.38 108.07 106.502C108.081 106.635 108.081 106.768 108.037 106.912C108.026 106.956 108.015 107.023 108.037 107.067C108.048 107.112 108.037 107.167 108.026 107.223C107.993 107.356 107.926 107.444 107.882 107.555C107.86 107.6 107.816 107.611 107.782 107.611C107.694 107.622 107.661 107.677 107.661 107.81C107.661 107.999 107.65 108.188 107.594 108.376C107.572 108.454 107.594 108.565 107.55 108.62C107.45 108.753 107.45 108.931 107.395 109.086C107.351 109.23 107.406 109.33 107.45 109.43C107.539 109.629 107.583 109.873 107.605 110.117C107.616 110.239 107.616 110.361 107.583 110.494C107.55 110.605 107.539 110.705 107.45 110.738C107.428 110.75 107.406 110.794 107.395 110.827C107.285 111.182 107.108 111.415 106.886 111.604C106.776 111.692 106.676 111.715 106.565 111.781C106.51 111.814 106.466 111.892 106.455 111.959C106.4 112.169 106.377 112.225 106.256 112.236C106.156 112.247 106.123 112.313 106.123 112.435C106.112 112.668 106.001 112.835 105.913 113.023C105.902 113.057 105.88 113.068 105.891 113.112C105.924 113.423 105.857 113.722 105.703 113.988C105.592 114.188 105.293 114.299 105.149 114.221C105.061 114.177 104.972 114.144 104.873 114.254C104.84 114.288 104.807 114.277 104.784 114.299C104.718 114.332 104.674 114.465 104.674 114.576C104.674 114.698 104.641 114.776 104.574 114.842C104.53 114.876 104.486 114.92 104.453 114.975C104.43 115.009 104.397 115.02 104.375 115.02C104.231 115.02 104.165 115.097 104.11 115.319C104.087 115.397 104.076 115.474 104.054 115.541C104.032 115.63 103.999 115.707 103.955 115.763C103.877 115.84 103.822 116.007 103.722 116.007C103.579 116.007 103.413 116.129 103.28 116.04C103.225 116.007 103.158 116.018 103.092 116.007C103.07 116.007 103.048 115.996 103.025 115.985C102.937 115.918 102.86 115.974 102.793 116.14C102.749 116.24 102.727 116.328 102.705 116.428C102.649 116.683 102.539 116.794 102.373 116.861C102.196 116.927 102.052 116.85 101.897 116.828C101.82 116.816 101.775 116.694 101.687 116.672C101.654 116.661 101.643 116.572 101.598 116.617C101.543 116.672 101.477 116.717 101.444 116.816C101.333 117.138 101.255 117.182 101.09 117.105C101.023 117.072 100.968 117.083 100.89 117.16C100.813 117.249 100.713 117.205 100.625 117.194C100.57 117.182 100.525 117.16 100.47 117.149C100.393 117.138 100.337 117.094 100.304 116.994C100.271 116.894 100.182 116.861 100.149 116.761C100.094 116.628 100.083 116.484 100.105 116.317C100.105 116.273 100.127 116.218 100.105 116.195C100.083 116.162 100.05 116.218 100.028 116.24C99.9058 116.362 99.6735 116.373 99.574 116.251C99.5629 116.24 99.5408 116.229 99.5297 116.218C99.4412 116.173 99.3638 116.118 99.3638 115.94C99.3638 115.896 99.3417 115.852 99.3195 115.829C99.2532 115.785 99.2421 115.674 99.22 115.574C99.1979 115.419 99.1315 115.364 99.0209 115.43C98.9877 115.452 98.9655 115.441 98.9434 115.441C98.877 115.43 98.8107 115.397 98.7332 115.441C98.6779 115.463 98.6337 115.375 98.5783 115.375C98.512 115.375 98.5009 115.286 98.4788 115.208C98.4013 114.986 98.4013 114.72 98.346 114.476C98.3239 114.376 98.3571 114.232 98.3571 114.121C98.3571 113.999 98.335 113.877 98.3571 113.755C98.3571 113.733 98.3571 113.722 98.3571 113.7C98.3792 113.633 98.4235 113.556 98.3682 113.5C98.335 113.467 98.3128 113.423 98.2686 113.389C98.1248 113.267 98.0031 113.09 97.981 112.835C97.9588 112.668 97.9478 112.447 98.0584 112.247C98.0805 112.203 98.0805 112.18 98.0473 112.158C97.9699 112.103 97.8925 112.014 97.8261 111.936C97.6933 111.77 97.7265 111.404 97.8703 111.16C97.9257 111.049 97.9699 110.916 98.0142 110.794C98.0473 110.694 97.992 110.583 97.9257 110.583C97.9146 110.583 97.8925 110.594 97.8814 110.583C97.7708 110.35 97.5717 110.239 97.5827 109.862C97.5827 109.774 97.6159 109.685 97.638 109.629C97.6933 109.485 97.7155 109.308 97.815 109.186C97.9478 109.019 98.0695 108.875 98.2243 108.831C98.3018 108.809 98.3018 108.753 98.2907 108.687C98.2686 108.587 98.2465 108.487 98.2243 108.387C98.1912 108.121 98.1137 107.888 98.0252 107.677C97.9478 107.489 97.9035 107.267 98.0473 107.001C98.0916 106.901 98.1358 106.879 98.1912 106.89C98.2907 106.912 98.3903 106.934 98.4898 106.945C98.5009 106.945 98.512 106.945 98.523 106.945C98.5673 106.945 98.6005 106.923 98.6226 106.868C98.6447 106.801 98.6005 106.768 98.5783 106.746C98.4677 106.668 98.4235 106.502 98.4677 106.291C98.5009 106.102 98.6115 105.958 98.7553 105.914C98.8217 105.892 98.866 105.836 98.8992 105.759C98.9323 105.67 98.9102 105.603 98.877 105.548C98.7885 105.437 98.7664 105.259 98.7222 105.115C98.689 105.027 98.6447 104.971 98.6447 104.849C98.6558 104.727 98.7332 104.572 98.7996 104.572C98.877 104.561 98.8992 104.505 98.9213 104.405C98.9766 104.161 98.9766 103.917 98.9987 103.673C99.0208 103.385 99.1315 103.141 99.3085 103.03C99.4302 102.952 99.5518 102.864 99.6735 102.842C99.7178 102.83 99.751 102.786 99.7731 102.708C99.7952 102.642 99.7731 102.598 99.751 102.564C99.6735 102.476 99.6625 102.32 99.6403 102.187C99.6072 101.854 99.8284 101.533 100.05 101.588C100.094 101.599 100.138 101.666 100.16 101.61C100.205 101.533 100.249 101.444 100.293 101.355" stroke="#333333" stroke-width="1.5" stroke-miterlimit="10" stroke-linecap="round" stroke-linejoin="round"/>
<path d="M77.4489 93.048C77.4157 93.0924 77.3936 93.1257 77.3604 93.1367C77.2166 93.1922 77.1281 93.4251 77.117 93.6026C77.1059 93.7579 77.1502 93.8688 77.1502 94.013C77.1502 94.1017 77.1613 94.2015 77.1613 94.2902C77.1391 94.4899 77.1944 94.6341 77.1834 94.8226C77.1834 94.9113 77.2055 94.989 77.1613 95.0999C77.1502 95.1221 77.1391 95.1553 77.1502 95.1775C77.2276 95.2663 77.1613 95.4326 77.1502 95.5657C77.1391 95.6988 77.117 95.8319 77.0506 95.965C77.0285 96.0094 77.0174 96.0648 77.0285 96.1203C77.0396 96.1647 77.0174 96.2201 76.9953 96.2756C76.9511 96.3976 76.8626 96.4752 76.8073 96.5861C76.7741 96.6305 76.7409 96.6305 76.7077 96.6305C76.6192 96.6305 76.5749 96.6748 76.5528 96.8079C76.5307 96.9965 76.4864 97.174 76.3979 97.3514C76.3647 97.4291 76.3758 97.54 76.3205 97.5843C76.1988 97.7063 76.1767 97.8838 76.0993 98.028C76.0329 98.1611 76.0771 98.272 76.1103 98.3718C76.1767 98.5825 76.1767 98.8265 76.1656 99.0816C76.1656 99.2037 76.1435 99.3257 76.0882 99.4477C76.0439 99.5475 76.0107 99.6473 75.9222 99.6695C75.8891 99.6806 75.8669 99.7138 75.8559 99.7471C75.701 100.08 75.4908 100.291 75.2364 100.446C75.1147 100.524 75.0041 100.524 74.8934 100.579C74.8271 100.601 74.7828 100.668 74.7607 100.734C74.6722 100.934 74.639 100.989 74.5173 100.978C74.4288 100.967 74.3735 101.034 74.3514 101.156C74.3071 101.389 74.1633 101.533 74.0527 101.71C74.0306 101.732 74.0084 101.755 74.0084 101.799C73.9974 102.11 73.8867 102.398 73.6987 102.642C73.5549 102.819 73.2451 102.886 73.1234 102.786C73.046 102.72 72.9575 102.686 72.8469 102.775C72.8137 102.797 72.7805 102.786 72.7473 102.808C72.6809 102.83 72.6035 102.952 72.5924 103.074C72.5814 103.185 72.5371 103.274 72.4597 103.318C72.4154 103.352 72.3601 103.385 72.3159 103.429C72.2827 103.463 72.2606 103.474 72.2274 103.463C72.0836 103.44 72.0061 103.507 71.9176 103.718C71.8844 103.784 71.8623 103.862 71.8291 103.929C71.7959 104.006 71.7517 104.084 71.6964 104.128C71.6079 104.195 71.5304 104.35 71.4309 104.328C71.287 104.306 71.1101 104.405 70.9773 104.295C70.933 104.25 70.8556 104.25 70.8003 104.239C70.7782 104.228 70.756 104.228 70.7339 104.206C70.6565 104.117 70.568 104.161 70.4795 104.328C70.4242 104.417 70.391 104.505 70.3467 104.605C70.2582 104.849 70.1255 104.949 69.9485 104.982C69.7604 105.027 69.6387 104.927 69.4839 104.871C69.4064 104.849 69.3732 104.727 69.3069 104.683C69.2737 104.672 69.2847 104.583 69.2294 104.616C69.163 104.661 69.0967 104.705 69.0524 104.794C68.8975 105.093 68.809 105.126 68.6652 105.027C68.6099 104.993 68.5546 104.982 68.455 105.06C68.3665 105.137 68.278 105.082 68.1895 105.049C68.1453 105.027 68.101 104.993 68.0457 104.982C67.9683 104.96 67.924 104.905 67.913 104.805C67.8908 104.694 67.8134 104.661 67.7913 104.55C67.7581 104.417 67.7692 104.261 67.8134 104.106C67.8245 104.062 67.8577 104.017 67.8355 103.984C67.8134 103.951 67.7802 103.995 67.747 104.017C67.6032 104.117 67.382 104.095 67.2935 103.962C67.2824 103.94 67.2603 103.929 67.2492 103.917C67.1607 103.862 67.1054 103.795 67.1275 103.618C67.1386 103.574 67.1165 103.518 67.1054 103.507C67.039 103.452 67.0501 103.341 67.0501 103.241C67.0501 103.086 66.9948 103.019 66.8731 103.063C66.8399 103.074 66.8178 103.074 66.7846 103.063C66.7182 103.041 66.6629 103.008 66.5744 103.03C66.508 103.052 66.4859 102.952 66.4306 102.941C66.3642 102.93 66.3642 102.842 66.3532 102.764C66.3089 102.531 66.3421 102.265 66.331 102.021C66.32 101.91 66.3753 101.788 66.3863 101.666C66.3974 101.544 66.3974 101.422 66.4417 101.3C66.4417 101.289 66.4417 101.267 66.4527 101.244C66.4859 101.178 66.5412 101.111 66.497 101.056C66.4638 101.023 66.4527 100.967 66.4195 100.934C66.2978 100.79 66.1983 100.59 66.2093 100.335C66.2204 100.169 66.2315 99.9468 66.3642 99.7582C66.3974 99.7138 66.3974 99.6917 66.3753 99.6695C66.2978 99.6029 66.2425 99.5142 66.1872 99.4144C66.0766 99.2258 66.1651 98.8709 66.3421 98.6491C66.4195 98.5493 66.4748 98.4273 66.5302 98.3053C66.5744 98.2054 66.5302 98.0945 66.4748 98.0834C66.4638 98.0834 66.4417 98.0834 66.4306 98.0723C66.3532 97.8283 66.1762 97.6841 66.2315 97.3181C66.2425 97.2294 66.2978 97.1518 66.32 97.0963C66.3974 96.9632 66.4417 96.7969 66.5523 96.6749C66.7072 96.5307 66.851 96.4087 67.0058 96.3865C67.0833 96.3754 67.0943 96.3199 67.0943 96.2534C67.0943 96.1425 67.0722 96.0537 67.0722 95.9428C67.0722 95.6766 67.039 95.4326 66.9837 95.2108C66.9395 95.0112 66.9284 94.7893 67.1054 94.5453C67.1718 94.4566 67.216 94.4344 67.2713 94.4566C67.3709 94.4899 67.4594 94.5231 67.559 94.5564C67.57 94.5564 67.5811 94.5675 67.5922 94.5675C67.6364 94.5786 67.6696 94.5564 67.7028 94.501C67.736 94.4344 67.7028 94.4012 67.6696 94.379C67.57 94.2902 67.5479 94.1239 67.6253 93.9131C67.6917 93.7357 67.8134 93.6026 67.9683 93.5804C68.0347 93.5693 68.09 93.5249 68.1342 93.4473C68.1785 93.3697 68.1674 93.292 68.1453 93.2366C68.0789 93.1146 68.0789 92.9371 68.0457 92.7929C68.0236 92.7042 67.9904 92.6376 68.0125 92.5156C68.0347 92.3936 68.1342 92.2605 68.2117 92.2605C68.2891 92.2605 68.3223 92.2051 68.3665 92.1164C68.4661 91.8834 68.4882 91.6394 68.5435 91.3954C68.6099 91.1181 68.7537 90.8852 68.9529 90.8076C69.0856 90.7521 69.2184 90.6856 69.3511 90.6745C69.3954 90.6745 69.4396 90.6301 69.4728 90.5636C69.506 90.497 69.4949 90.4527 69.4728 90.4194C69.4175 90.3196 69.4175 90.1643 69.4285 90.0312C69.4507 89.6985 69.7162 89.4101 69.9153 89.4988C69.9485 89.5099 69.9927 89.5876 70.0259 89.5432C70.0812 89.4766 70.1365 89.3879 70.1919 89.3103C70.3135 89.1217 70.3357 88.911 70.4242 88.7113C70.4905 88.545 70.579 88.4673 70.6786 88.3897C70.8445 88.2455 70.9884 88.2566 71.11 88.3453C71.2649 88.4452 71.453 88.4119 71.6189 88.4341C71.7295 88.4562 71.8291 88.2899 71.8955 88.1679C71.984 88.0015 72.0836 87.8351 72.161 87.6577C72.2052 87.5579 72.2716 87.5024 72.3269 87.4359C72.4597 87.2584 72.6145 87.1586 72.7694 87.0698C72.8801 87.0033 73.0128 86.9589 73.1345 86.9368C73.2009 86.9257 73.2341 86.9922 73.2672 87.0255C73.3447 87.1142 73.4553 87.1364 73.5549 87.1697C73.7097 87.2362 73.7982 87.3804 73.8757 87.5579C73.8867 87.58 73.8867 87.6133 73.9089 87.6022C73.931 87.5911 73.9421 87.5579 73.9421 87.5357C73.9752 87.4359 74.0195 87.3915 74.0859 87.3471C74.1412 87.3138 74.2076 87.2362 74.2518 87.1586C74.3624 87.0255 74.462 86.9811 74.5726 87.0033C74.639 87.0144 74.7054 87.0144 74.7717 87.0587C74.7828 87.0698 74.7939 87.0698 74.8049 87.0698C74.8381 87.0809 74.8271 87.1808 74.8824 87.1253C74.9377 87.0698 74.9598 86.9922 74.993 86.9146C75.0926 86.6816 75.3691 86.3933 75.5129 86.4709C75.5904 86.5264 75.701 86.5264 75.7784 86.5818C75.878 86.6484 75.9665 86.726 76.0107 86.8702C76.055 87.0033 76.1214 87.1253 76.1988 87.2251C76.232 87.2584 76.2541 87.2917 76.2652 87.3582C76.2984 87.569 76.409 87.6799 76.5086 87.824C76.5307 87.8573 76.5639 87.9017 76.586 87.9461C76.6524 88.0791 76.7519 88.1346 76.8958 88.0791C76.9511 88.057 76.9511 88.1457 76.9732 88.179" stroke="#333333" stroke-width="1.5" stroke-miterlimit="10" stroke-linecap="round" stroke-linejoin="round"/>
<path d="M61.3197 123.693C61.4082 123.649 61.4082 123.604 61.3308 123.527C61.0985 123.294 60.9215 123.027 60.7334 122.761C60.3794 122.251 60.6117 121.663 61.1096 121.453C61.3198 121.364 61.4968 121.197 61.6406 121.031C61.7623 120.898 61.6295 120.621 61.4304 120.51C61.3861 120.488 61.3197 120.465 61.3087 120.443C61.0432 119.855 60.4679 119.312 60.6117 118.669C60.6449 118.524 60.7777 118.425 60.8662 118.358C61.0985 118.203 61.187 117.914 61.5299 117.859C61.9724 117.781 62.4039 117.737 62.8685 117.914C63.1119 118.003 63.1229 117.903 63.1119 117.77C63.0898 117.559 63.0234 117.338 63.0123 117.127C62.9902 116.595 62.8353 116.073 62.6362 115.53C62.4592 115.075 62.3928 114.609 62.9017 114.365C63.0787 114.276 63.2114 114.299 63.3884 114.41C63.6871 114.609 63.9748 114.809 64.2734 115.009C64.3066 115.031 64.3398 115.053 64.373 115.075C64.4947 115.153 64.6274 115.164 64.6938 115.086C64.7823 114.997 64.6717 114.887 64.5832 114.798C64.2624 114.476 64.196 114.121 64.373 113.811C64.5389 113.533 64.9151 113.456 65.3686 113.633C65.5788 113.711 65.7226 113.678 65.8554 113.589C65.9881 113.489 65.9439 113.334 65.8443 113.19C65.612 112.857 65.612 112.502 65.4903 112.169C65.424 111.97 65.2912 111.781 65.3576 111.57C65.424 111.371 65.7005 111.226 65.9328 111.337C66.1541 111.448 66.2647 111.393 66.3643 111.249C66.6187 110.905 66.674 110.472 66.8178 110.073C66.9838 109.618 67.371 109.341 67.9573 109.452C68.3445 109.518 68.7427 109.563 69.1299 109.729C69.2627 109.785 69.3954 109.762 69.4839 109.674C69.5724 109.585 69.5282 109.485 69.4618 109.374C69.2737 109.086 69.2516 108.786 69.2627 108.52C69.2737 107.877 70.0481 107.677 70.6676 108.132C70.7782 108.21 70.8999 108.409 71.0105 108.365C71.1765 108.309 71.3314 108.221 71.4862 108.132" stroke="#333333" stroke-width="1.5" stroke-miterlimit="10" stroke-linecap="round" stroke-linejoin="round"/>
<path d="M101.897 122.395C101.72 122.229 101.543 122.085 101.355 122.062C101.256 122.051 101.256 121.985 101.256 121.907C101.267 121.785 101.289 121.674 101.3 121.552C101.311 121.242 101.377 120.976 101.455 120.709C101.521 120.488 101.554 120.221 101.355 119.944C101.278 119.844 101.233 119.822 101.156 119.844C101.034 119.878 100.913 119.922 100.802 119.966C100.791 119.966 100.78 119.977 100.758 119.977C100.713 119.988 100.658 119.966 100.625 119.9C100.592 119.822 100.636 119.789 100.669 119.756C100.802 119.645 100.824 119.456 100.758 119.223C100.691 119.012 100.536 118.868 100.359 118.846C100.271 118.835 100.216 118.779 100.16 118.691C100.105 118.602 100.127 118.513 100.16 118.458C100.26 118.325 100.26 118.114 100.304 117.948C100.337 117.848 100.382 117.77 100.359 117.626C100.337 117.493 100.227 117.327 100.127 117.338C100.039 117.338 99.9944 117.282 99.9501 117.171C99.8506 116.905 99.8285 116.628 99.7731 116.351C99.7068 116.029 99.5519 115.774 99.3085 115.674C99.1536 115.607 98.9988 115.53 98.8328 115.519C98.7775 115.519 98.7222 115.463 98.689 115.386C98.6558 115.308 98.6669 115.264 98.7001 115.219C98.7775 115.097 98.7886 114.931 98.7886 114.764C98.7886 114.376 98.4788 114.055 98.2244 114.154C98.1801 114.177 98.1359 114.254 98.0916 114.199C98.0253 114.121 97.9589 114.021 97.9036 113.933" stroke="#333333" stroke-width="1.5" stroke-miterlimit="10" stroke-linecap="round" stroke-linejoin="round"/>
<path d="M82.0289 108.221C83.7989 107.422 86.3765 108.398 87.173 110.184C88.3235 112.746 84.2193 113.489 83.1351 113.067C81.8519 112.579 80.2589 109.019 82.0289 108.221Z" fill="#333333"/>
<path d="M81.0553 102.087C82.2772 102.087 83.2678 101.094 83.2678 99.8691C83.2678 98.644 82.2772 97.6509 81.0553 97.6509C79.8333 97.6509 78.8428 98.644 78.8428 99.8691C78.8428 101.094 79.8333 102.087 81.0553 102.087Z" fill="#333333"/>
<path d="M92.6378 106.502C93.8597 106.502 94.8503 105.509 94.8503 104.283C94.8503 103.058 93.8597 102.065 92.6378 102.065C91.4159 102.065 90.4253 103.058 90.4253 104.283C90.4253 105.509 91.4159 106.502 92.6378 106.502Z" fill="#333333"/>
<path d="M43.8739 67.1389L41.9048 69.2019" stroke="#333333" stroke-width="1.5" stroke-miterlimit="10" stroke-linecap="round" stroke-linejoin="round"/>
<path d="M48.299 67.1389L46.3298 69.2019" stroke="#333333" stroke-width="1.5" stroke-miterlimit="10" stroke-linecap="round" stroke-linejoin="round"/>
<path d="M52.724 67.1389L50.7549 69.2019" stroke="#333333" stroke-width="1.5" stroke-miterlimit="10" stroke-linecap="round" stroke-linejoin="round"/>
<path d="M77.0617 67.1389L75.0925 69.2019" stroke="#333333" stroke-width="1.5" stroke-miterlimit="10" stroke-linecap="round" stroke-linejoin="round"/>
<path d="M81.4867 67.1389L79.5176 69.2019" stroke="#333333" stroke-width="1.5" stroke-miterlimit="10" stroke-linecap="round" stroke-linejoin="round"/>
<path d="M85.9118 67.1389L83.9426 69.2019" stroke="#333333" stroke-width="1.5" stroke-miterlimit="10" stroke-linecap="round" stroke-linejoin="round"/>
</svg>
