<svg xmlns="http://www.w3.org/2000/svg" width="140" height="140" viewBox="0 0 140 140">
  <g fill="none" fill-rule="evenodd" transform="translate(0 9.94)">
    <path fill="#333" fill-rule="nonzero" d="M65.1472189,23.4712899 C65.1472189,23.4712899 62.567574,30.7307456 62.567574,36.2952071 L55.6886036,37.8704142 L55.6886036,29.9603314 L52.2490769,37.8704142 L41.9305799,41.0378935 L45.9031834,28.0941065 C45.9031834,28.0941065 40.4343195,36.9116213 36.7712899,47.8351006 C35.0515266,52.9715266 31.9043432,62.3883077 31.9043432,62.3883077 C31.9043432,62.3883077 28.8776095,62.3883077 25.8680237,54.0501893 C24.7330296,47.8351006 24.7330296,42.6986746 24.7330296,42.6986746 C21.293503,29.0015385 29.8922367,-6.95350178 69.4466272,1.60721657 C69.4466272,1.60721657 84.4084024,-2.15949586 95.2430769,10.1678935 C107.28142,23.8651124 107.28142,39.2743905 103.841893,48.9479763 C101.089941,46.4311243 98.6826036,48.9479763 98.3901775,51.2765325 C95.7757396,57.1320118 92.3536095,62.3883077 92.3536095,62.3883077 C92.3536095,62.3883077 92.3536095,56.8409941 92.3536095,48.5027929 C92.3536095,48.5027929 90.1011834,41.0549586 86.4379882,40.4044142 L81.4848876,28.4022722 C81.4848876,28.4022722 81.5537278,35.1138225 81.5537278,37.8875621 L74.6059172,36.312355 L71.1835385,26.2791598 C71.1835385,26.2791598 72.456213,32.3401657 69.4466272,37.8875621 C69.4466272,37.8875621 68.1740355,29.0186036 65.1472189,23.4712899 Z"/>
    <path stroke="#333" stroke-linecap="round" stroke-linejoin="round" stroke-width="2.004" d="M28.8780237 56.3786627C28.8780237 56.3786627 36.3245325 75.2122249 39.3512663 81.2218698 42.3780828 87.2315976 51.4239882 94.5422485 59.1113136 95.484142 68.5871598 96.6314793 74.4687337 94.2001183 77.1858935 91.4945562 84.0646154 84.6461538 86.3004734 80.4342249 89.3274556 74.4246627 92.3544379 68.4150178 95.3640237 56.3786627 95.3640237 47.3556213M25.5929112 41.8426036C25.5929112 41.8426036 26.0056213 59.3749941 29.0324379 62.3883077M99.9376331 46.4311243C99.9376331 46.4311243 103.841065 44.5477515 103.841065 50.2149349 103.841065 55.8821183 99.3353846 61.5493018 99.3353846 61.5493018"/>
    <polygon stroke="#333" stroke-linecap="round" stroke-linejoin="round" stroke-width="2.004" points="96.207 61.618 101.263 62.388 98.615 66.224 103.138 69.374 98.907 76.086 94.676 76.086 97.824 70.949 92.664 65.813"/>
    <polyline stroke="#333" stroke-linecap="round" stroke-linejoin="round" stroke-width="2.004" points="35.602 72.832 33.556 76.086 29.325 76.086 32.472 70.949 27.313 65.813 28.534 64.357 30.856 61.618"/>
    <path stroke="#333" stroke-linecap="round" stroke-linejoin="round" stroke-width="2.004" d="M92.0106509 68.8431361C92.0106509 68.8431361 94.7791716 71.6510888 96.103787 69.2369586M97.787929 51.9954201C97.787929 51.9954201 100.196095 47.8691479 101.588639 49.9237515 102.982012 51.9954201 97.8227219 60.9328047 97.8227219 60.9328047M47.7609586 90.5534911C47.7609586 90.5534911 47.7609586 98.7198817 47.7609586 101.955621M85.595503 81.9922012C85.595503 81.9922012 85.595503 95.535503 85.595503 100.911006M39.3515148 105.192189C39.3515148 105.192189 43.8056686 100.055266 50.1859408 102.624142 56.566213 105.192189 66.8159527 107.041183 74.5892663 103.548639 82.3622485 100.055266 80.9007811 98.6171598 88.5023669 101.90426 96.103787 105.192189 96.103787 105.192189 90.944497 110.328284 85.7852071 115.465207 75.1568047 122.416331 63.2732899 121.508402 51.3897751 120.601302 34.1922249 110.328284 39.3515148 105.192189z"/>
    <path stroke="#333" stroke-linecap="round" stroke-linejoin="round" stroke-width="2.004" d="M85.595503,97.9668639 C85.595503,97.9668639 89.0176331,94.1653254 92.5598817,96.2545562 C96.1029586,98.3429586 99.4737278,100.055266 97.787929,103.479882 C96.1029586,106.903669 94.0568047,106.95503 94.0568047,106.95503"/>
    <path stroke="#333" stroke-linecap="round" stroke-linejoin="round" stroke-width="2.004" d="M97.8392899,100.312071 C97.8392899,100.312071 108.485089,100.157988 110.032544,106.95503 C111.58,113.752899 115.019527,124.025089 118.459053,125.737396 C118.459053,125.737396 105.784497,124.710178 102.672189,119.231124 C99.5424852,113.752899 96.1029586,105.859882 96.1029586,105.859882"/>
    <path stroke="#333" stroke-linecap="round" stroke-linejoin="round" stroke-width="2.004" d="M95.3631953 97.9668639C95.3631953 97.9668639 101.606036 94.9357396 111.753136 100.055266 121.899408 105.192189 127.058698 117.176686 127.058698 117.176686M37.911503 109.850296C37.911503 109.850296 13.0929822 116.531361 7.40466627 120.061183 1.71639172 123.591006.290222485 129.767574.290222485 129.767574"/>
    <path stroke="#333" stroke-linecap="round" stroke-linejoin="round" stroke-width="2.004" d="M111.580828 112.040592C111.580828 112.040592 127.969941 116.286154 133.301538 119.950178 138.632308 123.614201 139.956923 130.017751 139.956923 130.017751M66.8153728 50.0777515C64.7860355 54.1355148 66.8153728 59.6829112 70.0313136 61.2923314 73.2472544 62.9017515 80.2638225 62.9017515 83.995858 61.2923314 87.7278107 59.6829112 89.3614201 53.3479527 87.7443787 50.1120473 86.1281657 46.8760592 82.9123077 45.2666391 78.0797396 45.2666391 70.0313136 45.2666391 68.4146864 46.8760592 66.8153728 50.0777515zM58.3196923 50.0777515C60.3489467 54.1355148 58.3196923 59.6829112 55.1037515 61.2923314 51.8878107 62.9017515 44.8711598 62.9017515 41.1392899 61.2923314 37.4074201 59.6829112 35.773645 53.3479527 37.3902722 50.1120473 39.0068166 46.8760592 42.2227574 45.2666391 47.0552426 45.2666391 55.0865207 45.2666391 56.7030651 46.8760592 58.3196923 50.0777515zM69.6187692 40.9865325C69.6187692 40.9865325 75.2251479 37.6478225 84.924497 40.9181065M57.4089467 40.9865325C57.4089467 40.9865325 51.8024852 37.6478225 42.1031361 40.9181065M52.2489941 52.9715266C52.2489941 52.9715266 49.1534201 49.6328166 43.8222367 52.9030178M59.1286272 51.9273254C59.1286272 51.9273254 62.2585799 49.1194556 66.0076805 51.9273254"/>
    <line x1="32.265" x2="36.754" y1="50.677" y2="51.379" stroke="#333" stroke-linecap="round" stroke-linejoin="round" stroke-width="2.004"/>
    <line x1="95.227" x2="88.365" y1="50.677" y2="51.139" stroke="#333" stroke-linecap="round" stroke-linejoin="round" stroke-width="2.004"/>
    <path fill="#333" fill-rule="nonzero" d="M46.2302367,52.1156213 C46.2302367,52.1156213 45.370355,54.6838343 48.8098817,54.6838343 C53.0748284,54.6838343 51.3895266,52.1156213 51.3895266,52.1156213 C51.3895266,52.1156213 49.6697633,50.4034793 46.2302367,52.1156213 Z"/>
    <path stroke="#333" stroke-linecap="round" stroke-linejoin="round" stroke-width="2.004" d="M81.4851361,52.9715266 C81.4851361,52.9715266 78.389645,49.6328166 73.0583787,52.9030178"/>
    <path fill="#333" fill-rule="nonzero" d="M73.7461183,52.1156213 C73.7461183,52.1156213 72.8862367,54.6838343 76.3257633,54.6838343 C80.5907101,54.6838343 78.9053254,52.1156213 78.9053254,52.1156213 C78.9053254,52.1156213 77.185645,50.4034793 73.7461183,52.1156213 Z"/>
    <path stroke="#333" stroke-linecap="round" stroke-linejoin="round" stroke-width="2.004" d="M59.1286272 66.0867101C59.1286272 66.0867101 59.9712781 68.9631716 62.1209822 69.528142M52.2496568 75.2294556C52.2496568 75.2294556 55.9642959 77.5237988 63.0153254 77.5237988 70.0662722 77.5237988 74.6064142 75.2294556 74.6064142 75.2294556 74.6064142 75.2294556 73.6777751 83.3621302 63.4280355 83.3621302 53.1782959 83.3621302 52.2496568 75.2294556 52.2496568 75.2294556z"/>
  </g>
</svg>
