<svg width="140" height="140" viewBox="0 0 140 140" fill="none" xmlns="http://www.w3.org/2000/svg">
<g clip-path="url(#clip0_305_1129)">
<path d="M96.0672 43.6214C96.5592 47.8603 96.7612 52.1276 96.6718 56.3938C96.6718 65.051 96.6718 66.244 95.5726 71.8039C93.4402 83.252 89.1863 89.8188 85.9877 93.1022C77.9746 101.322 76.3918 101.858 68.9393 101.858C61.4869 101.858 59.3544 101.858 49.7585 92.0077C44.2626 86.3493 42.3061 78.8741 41.2069 69.7901C40.7102 65.8179 40.7102 61.7997 41.2069 57.8276C41.5806 52.5523 42.3061 50.3414 42.8337 45.1208" stroke="#333333" stroke-width="1.5" stroke-linecap="round" stroke-linejoin="round"/>
<path d="M96.6718 59.8195C96.6718 59.8195 97.7709 55.8247 100.937 58.8235C104.102 61.8224 99.8374 71.6069 98.8041 74.6057C97.7709 77.6046 95.5066 76.1927 95.5066 76.1927" stroke="#333333" stroke-width="1.5" stroke-linecap="round" stroke-linejoin="round"/>
<path d="M41.2728 57.8276C41.2728 57.8276 40.0967 55.8247 36.8761 58.8235C33.6555 61.8224 37.9753 71.6069 39.0085 74.6057C40.0417 77.6045 42.2511 76.1927 42.2511 76.1927" stroke="#333333" stroke-width="1.5" stroke-linecap="round" stroke-linejoin="round"/>
<path d="M74.776 63.4969C76.8067 62.63 78.9772 62.1333 81.1842 62.0303C83.2507 62.0303 84.0751 62.1945 88.208 63.4969" stroke="#333333" stroke-width="1.5" stroke-linecap="round" stroke-linejoin="round"/>
<path d="M77.9635 62.4353C77.9635 62.4353 77.1062 64.6242 79.1177 64.6242H83.1627C83.4385 64.6163 83.7046 64.5217 83.9232 64.3541C84.1418 64.1864 84.3015 63.9542 84.3795 63.6908C84.4576 63.4273 84.4499 63.146 84.3577 62.887C84.2655 62.6281 84.0935 62.4049 83.8661 62.2492C81.9043 61.9414 79.9019 62.0046 77.9635 62.4353Z" fill="#333333"/>
<path d="M73.7317 57.0943C73.6593 56.8659 73.6642 56.6201 73.7457 56.3947C73.8271 56.1694 73.9805 55.9768 74.1823 55.8466C76.3807 54.6208 84.1519 52.9463 85.6248 52.7164C88.7465 52.2458 90.2854 55.9998 90.2854 55.9998C88.9977 55.4221 87.579 55.1954 86.1744 55.3431C84.086 55.6605 76.6885 57.1818 74.8089 57.74C74.6926 57.7709 74.5712 57.7779 74.4521 57.7608C74.333 57.7436 74.2187 57.7026 74.1159 57.6402C74.0132 57.5778 73.9242 57.4953 73.8544 57.3977C73.7846 57.3001 73.7353 57.1895 73.7097 57.0724L73.7317 57.0943Z" fill="#333333"/>
<path d="M63.5862 63.4969C61.5596 62.6293 59.3926 62.1325 57.189 62.0303C55.1225 62.0303 54.2981 62.1945 50.1652 63.4969" stroke="#333333" stroke-width="1.5" stroke-linecap="round" stroke-linejoin="round"/>
<path d="M60.3437 62.4353C60.3437 62.4353 61.2011 64.6242 59.1896 64.6242H55.1446C54.8688 64.6163 54.6026 64.5217 54.384 64.3541C54.1655 64.1864 54.0057 63.9542 53.9277 63.6908C53.8496 63.4273 53.8573 63.146 53.9495 62.887C54.0417 62.6281 54.2138 62.4049 54.4411 62.2492C56.4029 61.9414 58.4054 62.0046 60.3437 62.4353Z" fill="#333333"/>
<path d="M64.5205 57.16C64.5955 56.9301 64.592 56.6819 64.5105 56.4542C64.4289 56.2265 64.274 56.0321 64.0699 55.9013C61.8715 54.6865 54.1003 53.001 52.6273 52.7712C49.4947 52.2896 47.9778 56.0546 47.9778 56.0546C49.265 55.4753 50.6841 55.2486 52.0887 55.3979C54.1662 55.7153 61.5637 57.2585 63.4543 57.8166C63.5706 57.8491 63.6924 57.8574 63.8121 57.841C63.9317 57.8246 64.0468 57.7838 64.1499 57.7211C64.253 57.6585 64.3421 57.5754 64.4115 57.4769C64.481 57.3785 64.5293 57.2669 64.5535 57.149L64.5205 57.16Z" fill="#333333"/>
<path d="M64.6635 75.5142C64.6635 75.5142 65.6088 79.2682 71.1926 76.9807" stroke="#333333" stroke-width="1.5" stroke-linecap="round" stroke-linejoin="round"/>
<path d="M57.7936 82.7704C61.4444 83.6817 65.1873 84.1774 68.9503 84.248C72.5704 84.1999 76.1704 83.7036 79.6674 82.7704C78.6051 84.6323 77.053 86.1705 75.1782 87.2196C73.3034 88.2686 71.1768 88.7889 69.0272 88.7243C66.7999 88.7704 64.5978 88.2473 62.6312 87.205C60.6646 86.1627 58.9991 84.6359 57.7936 82.7704V82.7704Z" stroke="#333333" stroke-width="1.5" stroke-linecap="round" stroke-linejoin="round"/>
<path d="M77.4909 43.8512C77.4909 43.8512 73.2371 49.3236 70.0385 51.5125C70.0385 51.5125 73.2371 43.8512 73.2371 42.7568C73.2371 42.7568 66.7409 48.645 64.6634 50.0788L65.8946 45.3507C63.3124 47.0647 60.6044 48.583 57.7935 49.8927L57.2549 43.8512C56.3552 45.7669 55.2847 47.5984 54.0563 49.3236L47.9778 49.8927C47.9778 49.8927 50.8577 43.8512 50.8577 40.5679C50.8577 40.5679 45.1749 50.418 44.2626 51.5125C43.3503 52.607 40.6463 62.4572 40.6463 62.4572L39.6021 57.1599L37.6345 57.6634C37.6345 57.6634 37.4037 47.1675 37.4037 44.0264C39.6021 41.8374 59.9699 35.982 68.1808 36.3651C76.3917 36.7482 94.0886 39.4296 98.958 44.0264C98.5793 48.58 98.4802 53.1524 98.6612 57.7181C98.0454 58.276 97.5474 58.9505 97.1964 59.7021C96.8454 60.4538 96.6483 61.2676 96.6167 62.096L94.4953 47.6272L93.594 52.4537L91.9342 41.9031C91.6336 44.0552 90.9089 46.1269 89.8018 47.9993L89.1533 41.1698L85.7678 45.3507L83.8882 41.52L81.7558 44.5298L77.4909 43.8512Z" fill="#333333"/>
<path d="M49.2089 92.0077V101.858C49.2089 105.141 43.5921 105.218 41.4487 108.425C39.3053 111.631 62.597 130.018 71.2915 129.603C71.2915 129.603 97.3642 111.686 98.5623 108.939C99.7604 106.192 96.4738 105.108 94.2755 105.108C92.0771 105.108 88.7796 105.579 88.7796 102.602V90.563" stroke="#333333" stroke-width="1.5" stroke-linecap="round" stroke-linejoin="round"/>
<path d="M46.6918 104.89C46.6918 104.89 47.0545 123.747 67.917 123.747C88.7795 123.747 90.9999 105.065 90.9999 105.065" stroke="#333333" stroke-width="1.5" stroke-linecap="round" stroke-linejoin="round"/>
<path d="M49.209 93.9778C49.209 93.9778 42.8887 92.0187 39.9978 96.9328C37.107 101.847 36.0188 98.5745 33.8204 104.047C31.622 109.519 33.4027 116.349 39.1075 121.69C44.8123 127.031 62.2563 139.07 62.2563 139.07" stroke="#333333" stroke-width="1.5" stroke-linecap="round" stroke-linejoin="round"/>
<path d="M35.7329 100.939C35.7329 100.939 31.622 98.6292 28.3244 103.007C25.0269 107.385 23.9277 110.668 24.4883 114.521C25.0488 118.373 50.0883 134.867 54.5949 133.707" stroke="#333333" stroke-width="1.5" stroke-linecap="round" stroke-linejoin="round"/>
<path d="M113.533 111.588C113.533 111.588 116.435 116.403 120.744 116.239C125.053 116.075 132.494 132.503 133.165 139.07" stroke="#333333" stroke-width="1.5" stroke-linecap="round" stroke-linejoin="round"/>
<path d="M25.3126 107.954C25.3126 107.954 21.2676 112.573 18.7175 113.777C16.1674 114.981 12.8589 116.951 10.6715 123.627C9.11577 128.706 7.81712 133.861 6.7804 139.07" stroke="#333333" stroke-width="1.5" stroke-linecap="round" stroke-linejoin="round"/>
<path d="M86.8669 125.936C89.0653 126.735 74.9298 134.812 74.9298 134.812L72.7314 133.718C72.7314 133.718 83.8662 124.842 86.8669 125.936Z" stroke="#333333" stroke-width="1.5" stroke-linecap="round" stroke-linejoin="round"/>
<path d="M68.3457 133.149L66.7958 134.692C66.7958 134.692 56.1228 129.077 56.5075 128.048C56.8922 127.02 62.2122 128.3 68.3457 133.149Z" stroke="#333333" stroke-width="1.5" stroke-linecap="round" stroke-linejoin="round"/>
<path d="M68.3457 133.149C68.3457 133.149 70.0494 132.503 70.0714 134.692C70.0934 136.881 69.8076 137.603 68.8513 137.242C67.895 136.881 66.7958 134.692 66.7958 134.692C66.7958 134.692 63.8171 136.881 64.2018 139.07" stroke="#333333" stroke-width="1.5" stroke-linecap="round" stroke-linejoin="round"/>
<path d="M70.0714 134.692C70.17 134.444 70.3199 134.22 70.5114 134.034C70.7029 133.848 70.9317 133.705 71.1827 133.613C71.4338 133.521 71.7015 133.483 71.9684 133.501C72.2352 133.519 72.4952 133.593 72.7315 133.718" stroke="#333333" stroke-width="1.5" stroke-linecap="round" stroke-linejoin="round"/>
<path d="M74.9298 134.867C74.9298 134.867 77.4359 135.841 76.5126 139.124C76.5126 139.124 87.6803 135.841 93.1762 131.463C98.6722 127.085 116.259 112.857 113.797 109.027C111.335 105.196 109.664 105.196 106.366 104.102C103.069 103.007 101.97 100.818 97.573 97.1079C96.3875 96.0395 94.9977 95.2202 93.4867 94.6993C91.9757 94.1784 90.3747 93.9665 88.7795 94.0763" stroke="#333333" stroke-width="1.5" stroke-linecap="round" stroke-linejoin="round"/>
<path d="M70.0714 135.786C70.0714 135.786 74.633 134.692 74.0065 139.07" stroke="#333333" stroke-width="1.5" stroke-linecap="round" stroke-linejoin="round"/>
<path d="M68.8513 137.242L70.0714 139.628" stroke="#333333" stroke-width="1.5" stroke-miterlimit="10"/>
<path d="M70.3572 135.775L72.2698 139.628" stroke="#333333" stroke-width="1.5" stroke-miterlimit="10"/>
<path d="M66.3672 139.07C66.3672 139.07 65.7407 137.614 67.9171 136.695" stroke="#333333" stroke-width="1.5" stroke-linecap="round" stroke-linejoin="round"/>
<path d="M37.4037 44.0264C37.4037 44.0264 52.7922 38.9262 68.1808 38.9262C77.8797 39.0212 87.5108 40.5482 96.7596 43.4573C96.7596 43.4573 98.958 44.5517 100.057 41.1917C100.664 39.7045 100.658 38.0392 100.041 36.5563C99.4235 35.0734 98.2448 33.892 96.7596 33.2678C92.8685 31.2649 82.4702 27.6094 68.1808 27.6094C53.8914 27.6094 42.8996 30.4441 38.5028 32.7096C36.7661 33.5961 34.1061 37.2297 35.2053 40.6335C36.1286 43.4791 37.4037 44.0264 37.4037 44.0264Z" stroke="#333333" stroke-width="1.5" stroke-linecap="round" stroke-linejoin="round"/>
<path d="M39.6021 31.9873C39.6021 31.9873 40.7012 19.6636 68.1808 18.8537C90.3734 18.197 95.6604 32.8191 95.6604 32.8191" stroke="#333333" stroke-width="1.5" stroke-linecap="round" stroke-linejoin="round"/>
<path d="M64.8064 21.0426H36.3046V23.2315H64.8064V21.0426Z" fill="#333333"/>
<path d="M62.2123 23.2315H38.8986V25.4205H62.2123V23.2315Z" fill="#333333"/>
<path d="M59.6292 25.4205H41.4927V27.6094H59.6292V25.4205Z" fill="#333333"/>
<path d="M44.0868 21.0426H41.4927V23.2315H44.0868V21.0426Z" fill="white"/>
<path d="M46.6809 23.2315H44.0868V25.4205H46.6809V23.2315Z" fill="white"/>
<path d="M49.2639 25.4205H46.6698V27.6094H49.2639V25.4205Z" fill="white"/>
<path d="M96.7707 21.0426H68.2688V23.2315H96.7707V21.0426Z" fill="#333333"/>
<path d="M71.7202 21.0426H63.949V23.2315H71.7202V21.0426Z" fill="#333333"/>
<path d="M94.1655 23.2315H70.8518V25.4205H94.1655V23.2315Z" fill="#333333"/>
<path d="M91.5825 25.4205H73.4459V27.6094H91.5825V25.4205Z" fill="#333333"/>
<path d="M76.04 21.0426H73.4459V23.2315H76.04V21.0426Z" fill="white"/>
<path d="M78.6341 23.2315H76.04V25.4205H78.6341V23.2315Z" fill="white"/>
<path d="M81.2171 25.4205H78.623V27.6094H81.2171V25.4205Z" fill="white"/>
<path d="M76.0401 21.0426H73.446H71.7203H68.2688H64.8064H63.9491H44.0868H41.4927H36.3046V23.2315H38.8986V25.4205H41.4927V27.6094H46.6699H49.2639H59.6293V25.4205H62.2233V23.2315H63.9491H64.8064H68.2688H70.8519V25.4205H73.446V27.6094H78.6232H81.2172H91.5825V25.4205H94.1766V23.2315H96.7597V21.0426H76.0401Z" stroke="#333333" stroke-width="1.5" stroke-linecap="round" stroke-linejoin="round"/>
<path d="M36.3046 23.2315L38.5029 33.0817L39.6021 29.7983L38.5029 23.2315H36.3046Z" fill="#333333"/>
<path d="M96.7596 23.2315L94.5612 33.0817L93.462 29.7983L94.5612 23.2315H96.7596Z" fill="#333333"/>
</g>
<defs>
<clipPath id="clip0_305_1129">
<rect width="128" height="122" fill="white" transform="translate(6 18)"/>
</clipPath>
</defs>
</svg>
