<svg width="187" height="188" viewBox="0 0 187 188" fill="none" xmlns="http://www.w3.org/2000/svg">
<g clip-path="url(#clip0_1_2521)">
<path d="M127.519 79.4141C127.519 90.6961 128.017 92.4076 126.141 99.4963C123.383 109.908 122.047 117.339 117.883 122.973C108.246 135.981 101.367 141.515 91.7304 141.515C82.0938 141.515 73.8359 137.407 65.578 124.399C60.049 115.685 58.6988 108.61 55.8988 96.8719C54.0653 89.1699 55.6714 85.0052 55.9414 81.2826C57.3059 61.7566 49.048 37.039 91.7304 38.337C126.155 39.3924 127.519 55.2528 127.519 79.4141Z" stroke="#333333" stroke-width="2.00357" stroke-miterlimit="10" stroke-linecap="round" stroke-linejoin="round"/>
<path d="M95.6391 77.9732C95.2837 77.3313 95.8523 76.5469 96.7761 76.4042C100.742 75.7482 110.293 72.2823 113.747 73.3805C116.376 74.2078 118.096 77.5738 118.096 77.5738L96.9893 78.5865C96.4066 78.615 95.8665 78.3725 95.6391 77.9732Z" fill="#333333"/>
<path d="M84.3673 77.9733C84.7226 77.3315 84.1541 76.547 83.2302 76.4044C79.2647 75.7483 70.6373 72.4535 67.1977 73.5518C64.5682 74.379 61.5692 77.8164 61.5692 77.8164L83.017 78.5866C83.5998 78.6151 84.1399 78.3726 84.3673 77.9733Z" fill="#333333"/>
<path d="M54.5616 91.6943C54.5616 91.6943 57.319 79.143 57.319 73.0527C57.319 69.8578 55.9403 68.5884 55.9403 63.0687C55.9403 53.9547 62.521 45.5111 69.7129 43.5428C76.4216 41.7171 75.2135 44.8407 88.9861 44.8407C101.38 44.8407 105.999 41.275 112.395 43.5428C123.411 47.4508 123.411 56.522 123.411 65.6645C123.411 69.7295 126.168 68.8594 126.168 73.4663C126.168 78.6723 126.168 92.9922 126.168 92.9922C126.168 92.9922 138.463 60.0164 123.325 43.1006C102.276 19.5811 63.516 36.283 56.523 48.8058C49.459 61.4285 51.8042 74.7785 54.5616 91.6943Z" fill="#333333"/>
<path d="M127.519 83.8782C127.519 83.8782 128.898 78.6722 133.02 82.5802C137.156 86.4883 130.263 102.106 128.884 106C127.505 109.894 124.691 108.068 124.691 108.068" stroke="#333333" stroke-width="2.00357" stroke-miterlimit="10" stroke-linecap="round" stroke-linejoin="round"/>
<path d="M55.927 81.2823C55.927 81.2823 54.4062 78.6864 50.2843 82.5802C46.1483 86.4882 53.0417 102.106 54.4204 106C55.7991 109.908 58.6133 108.068 58.6133 108.068" stroke="#333333" stroke-width="2.00357" stroke-miterlimit="10" stroke-linecap="round" stroke-linejoin="round"/>
<path d="M98.0836 86.6168C98.0836 86.6168 99.7181 83.8783 103.968 83.8783C106.796 83.8783 110.833 84.1921 116.49 86.6168" stroke="#333333" stroke-width="2.00357" stroke-miterlimit="10" stroke-linecap="round" stroke-linejoin="round"/>
<path d="M110.634 89.6405C110.634 89.6405 112.41 85.7895 108.246 84.4631C107.322 84.1635 105.375 84.349 104.408 85.8893C103.754 86.9305 103.157 87.7435 103.513 89.3267C103.513 89.3267 106.995 90.6817 110.634 89.6405Z" fill="#333333"/>
<path d="M83.4726 86.6168C83.4726 86.6168 81.8381 83.8783 77.5883 83.8783C74.7599 83.8783 70.7233 84.1921 65.0664 86.6168" stroke="#333333" stroke-width="2.00357" stroke-miterlimit="10" stroke-linecap="round" stroke-linejoin="round"/>
<path d="M73.6791 89.6405C73.6791 89.6405 71.9024 85.7895 76.0669 84.4631C76.9908 84.1635 78.938 84.349 79.9045 85.8893C80.5583 86.9305 81.1553 87.7435 80.7999 89.3267C80.7999 89.3267 77.3177 90.6817 73.6791 89.6405Z" fill="#333333"/>
<path d="M79.4358 116.326C83.4724 119.549 86.315 117.153 90.3516 117.125C94.3881 117.096 97.2308 119.549 101.367 116.326" stroke="#333333" stroke-width="2.00357" stroke-miterlimit="10" stroke-linecap="round" stroke-linejoin="round"/>
<path d="M83.2015 118.038C83.2015 118.038 87.7924 122.188 97.2442 118.337" stroke="#333333" stroke-width="2.00357" stroke-miterlimit="10" stroke-linecap="round" stroke-linejoin="round"/>
<path d="M83.2015 123.886C83.2015 123.886 88.9863 128.25 97.429 123.886" stroke="#333333" stroke-width="2.00357" stroke-miterlimit="10" stroke-linecap="round" stroke-linejoin="round"/>
<path d="M67.8657 127.252C67.8657 127.252 69.287 140.088 66.4444 145.794C63.8433 151.014 77.815 164.778 91.4882 168.614C101.978 161.925 115.04 153.852 116.191 148.646C117.342 143.44 113.391 151.499 114.698 127.252" stroke="#333333" stroke-width="2.00357" stroke-miterlimit="10" stroke-linecap="round" stroke-linejoin="round"/>
<path d="M85.9445 103.561C85.9445 103.561 84.8643 107.098 88.2897 108.51C91.7151 109.922 94.5436 109.195 94.5436 109.195" stroke="#333333" stroke-width="2.00357" stroke-miterlimit="10" stroke-linecap="round" stroke-linejoin="round"/>
<path d="M117.612 185.73C110.505 184.303 109.084 175.746 111.926 168.614C113.419 164.849 118.365 162.41 120.454 158.63C127.561 145.793 143.196 142.941 155.277 154.351C163.037 161.682 163.094 175.746 153.145 185.73" stroke="#333333" stroke-width="2.00357" stroke-miterlimit="10" stroke-linecap="round" stroke-linejoin="round"/>
<path d="M122.744 166.575C122.744 166.575 117.741 169.555 122.204 173.164" stroke="#333333" stroke-width="2.00357" stroke-miterlimit="10" stroke-linecap="round" stroke-linejoin="round"/>
<path d="M131.826 174.319C127.292 173.121 126.297 170.297 126.297 170.297C126.297 170.297 128.642 166.489 130.234 166.831C131.826 167.188 135.578 170.411 135.578 170.411" stroke="#333333" stroke-width="2.00357" stroke-miterlimit="10" stroke-linecap="round" stroke-linejoin="round"/>
<path d="M119.829 161.483C119.829 161.483 120.384 164.492 122.885 165.762" stroke="#333333" stroke-width="2.00357" stroke-miterlimit="10" stroke-linecap="round" stroke-linejoin="round"/>
<path d="M116.404 174.947C116.404 174.947 117.612 178.598 120.455 178.598" stroke="#333333" stroke-width="2.00357" stroke-miterlimit="10" stroke-linecap="round" stroke-linejoin="round"/>
<path d="M124.876 162.395C124.876 162.395 124.719 158.63 120.455 158.63" stroke="#333333" stroke-width="2.00357" stroke-miterlimit="10" stroke-linecap="round" stroke-linejoin="round"/>
<path d="M138.932 181.308C138.932 181.308 142.102 178.784 142.955 181.308C143.808 183.833 142.145 185.73 142.145 185.73" stroke="#333333" stroke-width="2.00357" stroke-miterlimit="10" stroke-linecap="round" stroke-linejoin="round"/>
<path d="M146.934 148.86C146.934 148.86 144.987 145.408 146.934 144.182" stroke="#333333" stroke-width="2.00357" stroke-miterlimit="10" stroke-linecap="round" stroke-linejoin="round"/>
<path d="M153.287 151.713C153.287 151.713 154.766 148.261 153.287 147.034" stroke="#333333" stroke-width="2.00357" stroke-miterlimit="10" stroke-linecap="round" stroke-linejoin="round"/>
<path d="M157.552 155.991C157.552 155.991 159.03 152.54 157.552 151.313" stroke="#333333" stroke-width="2.00357" stroke-miterlimit="10" stroke-linecap="round" stroke-linejoin="round"/>
<path d="M136.018 151.712C136.018 151.712 144.987 149.002 149.777 150.258" stroke="#333333" stroke-width="2.00357" stroke-miterlimit="10" stroke-linecap="round" stroke-linejoin="round"/>
<path d="M128.912 150.286C128.912 150.286 137.881 147.576 142.67 148.831" stroke="#333333" stroke-width="2.00357" stroke-miterlimit="10" stroke-linecap="round" stroke-linejoin="round"/>
<path d="M140.282 154.565C140.282 154.565 149.251 151.855 154.041 153.11" stroke="#333333" stroke-width="2.00357" stroke-miterlimit="10" stroke-linecap="round" stroke-linejoin="round"/>
<path d="M143.197 157.204C143.197 157.204 152.122 156.975 156.884 157.075" stroke="#333333" stroke-width="2.00357" stroke-miterlimit="10" stroke-linecap="round" stroke-linejoin="round"/>
<path d="M144.617 161.482C144.617 161.482 153.543 161.254 158.304 161.354" stroke="#333333" stroke-width="2.00357" stroke-miterlimit="10" stroke-linecap="round" stroke-linejoin="round"/>
<path d="M146.039 165.762C146.039 165.762 154.965 165.533 159.726 165.633" stroke="#333333" stroke-width="2.00357" stroke-miterlimit="10" stroke-linecap="round" stroke-linejoin="round"/>
<path d="M145.954 170.297C145.954 170.297 154.908 170.055 159.641 169.527" stroke="#333333" stroke-width="2.00357" stroke-miterlimit="10" stroke-linecap="round" stroke-linejoin="round"/>
<path d="M145.697 173.948C145.697 173.948 155.163 174.904 159.683 172.708" stroke="#333333" stroke-width="2.00357" stroke-miterlimit="10" stroke-linecap="round" stroke-linejoin="round"/>
<path d="M146.039 178.598C146.039 178.598 154.311 179.155 158.319 177.357" stroke="#333333" stroke-width="2.00357" stroke-miterlimit="10" stroke-linecap="round" stroke-linejoin="round"/>
<path d="M145.797 183.077C145.797 183.077 152.236 183.704 155.306 182.221" stroke="#333333" stroke-width="2.00357" stroke-miterlimit="10" stroke-linecap="round" stroke-linejoin="round"/>
<path d="M160.408 163.622C160.408 163.622 166.051 160.427 167.415 169.513C168.78 178.598 171.608 185.73 171.608 185.73" stroke="#333333" stroke-width="2.00357" stroke-miterlimit="10" stroke-linecap="round" stroke-linejoin="round"/>
<path d="M111.927 168.614C111.927 168.614 93.8475 168.258 91.5165 172.708C89.1855 177.158 82.3916 171.724 77.9713 178.013C73.5509 184.303 64.8524 185.73 64.8524 185.73" stroke="#333333" stroke-width="2.00357" stroke-miterlimit="10" stroke-linecap="round" stroke-linejoin="round"/>
<path d="M77.9721 178.013C77.9721 178.013 34.4653 161.482 31.2673 157.204C28.0693 152.925 22.1992 158.972 19.4561 161.654C16.7129 164.335 37.2084 186.471 37.2084 186.471" stroke="#333333" stroke-width="2.00357" stroke-miterlimit="10" stroke-linecap="round" stroke-linejoin="round"/>
<path d="M91.5169 172.722C91.5169 172.722 42.9928 158.701 41.2161 153.681C39.4395 148.66 50.5401 144.182 50.5401 144.182" stroke="#333333" stroke-width="2.00357" stroke-miterlimit="10" stroke-linecap="round" stroke-linejoin="round"/>
<path d="M92.0283 168.614C92.0283 168.614 58.8829 157.261 54.1357 150.814C49.3885 144.367 50.156 139.917 56.4951 141.515C62.1804 142.941 60.4464 135.196 67.8657 137.236" stroke="#333333" stroke-width="2.00357" stroke-miterlimit="10" stroke-linecap="round" stroke-linejoin="round"/>
<path d="M41.2155 153.667L33.4266 157.204" stroke="#333333" stroke-width="2.00357" stroke-miterlimit="10" stroke-linecap="round" stroke-linejoin="round"/>
<path d="M20.9479 166.46C20.9479 166.46 12.8321 168.657 9.07983 186.457" stroke="#333333" stroke-width="2.00357" stroke-miterlimit="10" stroke-linecap="round" stroke-linejoin="round"/>
<path d="M114.443 135.096C114.443 135.096 118.395 132.957 121.564 137.236C124.734 141.515 130.064 136.252 130.945 139.603C131.826 142.941 134.328 142.641 130.945 148.503" stroke="#333333" stroke-width="2.00357" stroke-miterlimit="10" stroke-linecap="round" stroke-linejoin="round"/>
<path d="M132.494 142.955C132.494 142.955 137.511 148.446 138.932 147.22" stroke="#333333" stroke-width="2.00357" stroke-miterlimit="10" stroke-linecap="round" stroke-linejoin="round"/>
<path d="M167.358 167.188C167.358 167.188 171.622 170.04 174.465 174.319C180.15 182.877 177.108 186.471 177.108 186.471" stroke="#333333" stroke-width="2.00357" stroke-miterlimit="10" stroke-linecap="round" stroke-linejoin="round"/>
</g>
<defs>
<clipPath id="clip0_1_2521">
<rect width="187" height="187" fill="white" transform="translate(0 0.541016)"/>
</clipPath>
</defs>
</svg>
