<svg xmlns="http://www.w3.org/2000/svg" width="140" height="140" viewBox="0 0 140 140">
  <g fill="none" fill-rule="evenodd" transform="translate(5.512)">
    <path stroke="#333" stroke-linecap="round" stroke-linejoin="round" stroke-width="1.5" d="M29.8764409 54.9953071C30.1307559 60.9817953 31.8504409 72.4296063 37.070126 79.9067087 39.4801102 83.3642677 43.4159843 85.954378 49.144189 91.4033543 51.5541732 93.7002362 54.0005354 95.0685984 64.2943937 95.6061102 70.9309449 95.9604094 73.3893228 93.1504882 75.7872913 91.3300472 81.8545827 86.6995748 84.2766929 84.3904567 87.921874 79.7723307 92.124189 74.4454961 96.3628819 61.2872598 94.8975118 49.509622 92.0394173 26.4552598 78.3425669 21.0428819 65.4933228 19.5035433 51.4210079 17.8174803 28.7017638 27.2126929 29.8764409 54.9953071zM82.7628189 52.3440157C82.7628189 52.3440157 78.6816535 46.9927087 71.6454961 52.234"/>
    <path fill="#333" fill-rule="nonzero" d="M73.3166772,50.7679685 C73.3166772,50.7679685 72.4689606,53.920063 75.847811,53.920063 C80.038,53.920063 78.3788346,50.7679685 78.3788346,50.7679685 C78.3788346,50.7679685 76.6955276,48.6665354 73.3166772,50.7679685 Z"/>
    <path stroke="#333" stroke-linecap="round" stroke-linejoin="round" stroke-width="1.5" d="M42.1806772,52.3440157 C42.1806772,52.3440157 46.2619528,46.9927087 53.2981102,52.234"/>
    <path fill="#333" fill-rule="nonzero" d="M51.6267087,50.7679685 C51.6267087,50.7679685 52.4745354,53.920063 49.095685,53.920063 C44.9054961,53.920063 46.5645512,50.7679685 46.5645512,50.7679685 C46.5645512,50.7679685 48.2479685,48.6665354 51.6267087,50.7679685 Z"/>
    <path stroke="#333" stroke-linecap="round" stroke-linejoin="round" stroke-width="1.5" d="M65.4570551 51.4520945C65.5659685 50.1204409 66.0867244 48.9475276 66.8255276 48.3244724 68.157622 47.2005039 70.9793386 45.6976535 76.5017323 45.6976535 81.6850394 45.6976535 85.2213071 47.0171811 87.2558268 48.1167874 88.5395276 48.8009134 89.3751181 50.9145827 89.0602835 53.0526142 87.8371024 61.2017165 82.7628189 62.4722992 76.5017323 62.4722992 72.614252 62.4722992 68.8116535 61.1894803 66.2805197 57.3531496 64.9725669 55.3617323 65.3601575 52.698315 65.4570551 51.4520945zM58.566189 51.4520945C58.4572756 50.1204409 57.9365197 48.9475276 57.1977165 48.3244724 55.865622 47.2005039 53.0439055 45.6976535 47.5215118 45.6976535 42.3382047 45.6976535 38.801937 47.0171811 36.7674173 48.1167874 35.4837165 48.8009134 34.6480157 50.9145827 34.9629606 53.0526142 36.1861417 61.2017165 41.2604252 62.4722992 47.5215118 62.4722992 51.4089921 62.4722992 55.2115906 61.1894803 57.7427244 57.3531496 59.0506772 55.3617323 58.6630866 52.698315 58.566189 51.4520945zM58.6752126 50.3894173C58.6752126 50.3894173 61.0609449 48.2635118 65.4328031 50.3894173"/>
    <polygon fill="#333" fill-rule="nonzero" points="93.917 49.314 89.109 49.094 89.109 50.805 93.929 51.159"/>
    <path stroke="#333" stroke-linecap="round" stroke-linejoin="round" stroke-width="1.5" d="M50.5611654 76.1316693C51.8691181 76.5103307 58.093937 77.145622 63.2166142 77.145622 65.5175748 77.145622 68.9690709 77.145622 73.5711024 76.1316693 73.5711024 76.1316693 70.7251339 82.6068346 62.0660787 82.2404094 54.593937 81.9227087 50.5611654 76.1316693 50.5611654 76.1316693zM66.6074803 65.1112441C66.6074803 65.1112441 64.669748 67.7746614 62.3324094 67.5180315M71.2457795 40.566378C71.2457795 40.566378 78.4514803 38.7948819 83.9012283 39.9310866 86.2748346 40.432 87.909748 41.8003622 87.909748 41.8003622M54.7998583 40.6520315C54.7998583 40.6520315 47.0976535 38.7215748 41.2724409 39.9555591 38.7414173 40.4931811 36.9853543 41.983685 36.9853543 41.983685"/>
    <polygon fill="#333" fill-rule="nonzero" points="36.053 48.679 28.254 48.483 28.254 49.974 36.089 50.267"/>
    <path fill="#333" fill-rule="nonzero" d="M69.4654646 15.3252598C69.4654646 15.3252598 62.0659685 35.8261102 44.8691181 43.0588189 27.6722677 50.2916378 27.0667402 77.622063 37.0094961 86.4430551 37.0094961 86.4430551 15.6223465 66.1010551 27.6722677 35.7039685 39.722189 5.30688189 65.4811969 9.53413228 69.4654646 15.3252598zM69.4654646 15.3251496C69.4654646 15.3251496 87.7280787 21.5927402 91.5307874 36.9257165 97.561811 61.2384252 88.151937 88.5444882 88.151937 88.5444882 88.151937 88.5444882 97.0410551 63.7429921 97.9008976 57.0234331 98.7607402 50.3037638 94.4008976 10.7436331 69.4654646 15.3251496z"/>
    <path fill="#333" fill-rule="nonzero" d="M96.0601732,67.5426142 C96.0601732,67.5426142 99.3785039,57.7929921 97.2591024,52.2341102 C97.2591024,52.2341102 98.9182677,47.9824094 101.691591,48.1900945 C100.952787,39.2224882 98.857748,30.0471969 95.0792913,22.5945669 C86.5776535,5.79549291 69.4655748,8.56885984 69.4655748,8.56885984 L65.0937165,19.9311496 C73.5347244,18.7094016 81.8788346,22.7777795 89.3147087,32.1485197 C94.1588189,38.2572598 94.5705512,56.4247402 92.9477638,67.5792126 C91.3249764,78.7337953 79.6262677,88.3489291 79.6262677,88.3489291 L84.2888189,92.8571496 C87.0015118,93.7735433 89.3147087,95.6794173 92.9477638,96.9011654 C95.357748,94.4699055 97.9857795,85.6611496 99.9597795,80.7008504 C101.485669,76.8400472 101.328252,67.9824567 101.764236,62.1302362 C99.9234016,66.2353228 97.5376693,69.2652756 96.0601732,67.5426142 Z"/>
    <path stroke="#333" stroke-linecap="round" stroke-linejoin="round" stroke-width="1.5" d="M97.2592126,52.221874 C97.2592126,52.221874 99.6206929,46.1497323 103.39915,48.837622 C107.189732,51.5254016 99.3785039,71.4033071 96.0481575,67.5425039 C96.0602835,67.5425039 99.3785039,57.7929921 97.2592126,52.221874 Z"/>
    <path fill="#333" fill-rule="nonzero" d="M69.4655748,8.56892598 C69.4655748,8.56892598 43.9246142,-0.814085669 32.1774016,21.0918268 C21.1569764,41.6538583 20.9026614,69.7295906 31.1843937,95.6672913 C38.4507244,93.2237953 38.1479055,93.4192441 40.8727244,92.0020472 L46.940126,90.4137638 C46.940126,90.4137638 38.4991181,83.119874 32.4802205,70.9635748 C27.7934173,61.4950551 28.4474488,47.0417638 34.0787559,41.983685 C39.7101732,36.9257165 67.4310551,16.2659055 67.4310551,16.2659055 L69.4655748,8.56892598 Z"/>
    <path fill="#333" fill-rule="nonzero" d="M73.5708819,16.2657953 C73.5708819,16.2657953 70.4948504,26.8339213 65.0936063,33.3702677 C59.0383307,40.7007559 54.1942205,40.7007559 54.1942205,40.7007559 C54.1942205,40.7007559 68.2422835,22.6555276 65.4205669,14.6531496 L73.5708819,16.2657953 Z"/>
    <path fill="#333" fill-rule="nonzero" d="M68.1817638,15.3251496 C68.1817638,15.3251496 81.1884252,25.380126 86.625937,34.7509764 C92.0635591,44.1217165 92.9476535,51.6965984 92.9476535,51.6965984 C92.9476535,51.6965984 99.3782835,17.5487244 68.1817638,15.3251496 Z"/>
    <path fill="#333" fill-rule="nonzero" d="M27.6601417,35.7159843 C27.6601417,35.7159843 22.9249449,36.1802992 27.6601417,22.557748 C32.3953386,8.93528504 48.1389449,-6.18994016 73.5708819,3.8161685 C99.0029291,13.8222992 100.141228,21.8979843 104.416299,28.849811 C108.69126,35.8137638 110.762047,60.1754173 108.521717,66.3207559 C106.281276,72.4660945 97.997685,77.0477323 97.997685,77.0477323 L99.2572441,66.9072126 C99.2572441,66.9072126 104.997575,56.6933858 104.428425,51.7453228 C103.859165,46.7972598 99.2572441,48.1411496 99.2572441,48.1411496 C99.2572441,48.1411496 96.2053543,32.4295118 87.9217638,24.9524094 C79.6382835,17.4753071 54.5695748,10.1448189 42.8829921,19.307874 C31.1964094,28.4710394 27.6601417,35.7159843 27.6601417,35.7159843 Z"/>
    <path fill="#333" fill-rule="nonzero" d="M90.5255433,14.6531496 C90.5255433,14.6531496 91.2884882,9.8394315 93.9286457,11.2199528 C96.5686929,12.6005512 93.4926614,16.0825827 93.4926614,16.0825827 L90.5255433,14.6531496 Z"/>
    <path stroke="#333" stroke-linecap="round" stroke-linejoin="round" stroke-width="1.5" d="M49.3501102 122.557323C57.0765669 128.788976 61.0609449 131.586772 67.5158268 134.774803 67.5158268 134.774803 86.8924882 122.557323 98.3974016 107.285969 98.3974016 107.285969 80.4618583 100.566299 80.8373228 96.9010551L80.6435276 88.3488189M49.156315 91.4155906L49.1321732 94.7631339C49.0352756 97.5976378 47.3398425 99.9922992 44.941874 101.458331 43.0285039 102.64348 37.8330709 105.783339 36.0286142 106.67526M15.4408976 115.227717C15.4408976 115.227717 10.5966882 116.449134 6.96354488 121.335906 3.5483937 125.930551.908318898 138.44126.908318898 138.44126M98.3974016 107.285969C98.3974016 107.285969 117.168976 116.449134 123.224252 123.779843 126.868661 128.190394 128.068031 138.440157 128.068031 138.440157M92.7662047 104.97685C92.7662047 104.97685 70.4586929 129.423937 58.6994646 129.045827"/>
    <path stroke="#333" stroke-linecap="round" stroke-linejoin="round" stroke-width="1.5" d="M49.8102362 122.86378C49.8102362 122.86378 39.7949449 125.868819 36.1012598 130.926457L13.0186772 112.454173C13.0186772 112.454173 25.9648189 104.50052 31.608252 104.976961 37.2395591 105.453512 49.8102362 122.86378 49.8102362 122.86378zM42.1806772 126.088189C42.1806772 126.088189 60.2494961 135.997323 67.5158268 134.774803"/>
    <path stroke="#333" stroke-linecap="round" stroke-linejoin="round" stroke-width="1.5" d="M35.4229764,120.114488 C37.0950394,120.114488 38.4506142,118.746457 38.4506142,117.059843 C38.4506142,115.373228 37.0950394,114.005197 35.4229764,114.005197 C33.7508031,114.005197 32.3953386,115.373228 32.3953386,117.059843 C32.3953386,118.746457 33.7508031,120.114488 35.4229764,120.114488 Z"/>
    <line x1="115.11" x2="115.11" y1="116.925" y2="139.565" stroke="#333" stroke-linecap="round" stroke-linejoin="round" stroke-width="1.5"/>
    <line x1="11.747" x2="13.019" y1="116.925" y2="139.663" stroke="#333" stroke-linecap="round" stroke-linejoin="round" stroke-width="1.5"/>
  </g>
</svg>
