<svg width="139" height="140" viewBox="0 0 139 140" fill="none" xmlns="http://www.w3.org/2000/svg">
<g clip-path="url(#clip0_423_202)">
<path d="M91.4391 59.461C91.4391 68.1434 90.313 72.4114 89.3333 77.9632C87.34 89.4384 86.9571 89.6411 80.3243 97.1074C71.6531 106.86 72.4414 105.058 65.5269 105.058C56.5179 105.058 58.59 104.652 49.9189 95.9812C44.5022 90.5646 43.1621 83.5939 39.581 72.8957C37.6441 67.1074 39.581 51.4993 39.7837 48.6839C39.063 59.6186 35.9886 31.4993 65.1666 32.4452C90.0877 33.256 91.4391 40.8686 91.4391 59.461Z" stroke="#333333" stroke-width="1.5" stroke-linecap="round" stroke-linejoin="round"/>
<path d="M91.4392 65.0691C91.4392 65.0691 92.4302 61.0601 95.4257 64.0668C98.4212 67.0736 93.7027 76.0826 92.7117 79.0893C91.7207 82.0961 90.3919 81.488 90.3919 81.488" stroke="#333333" stroke-width="1.5" stroke-linecap="round" stroke-linejoin="round"/>
<path d="M39.1533 62.7943C39.1533 62.7943 38.2636 58.0646 35.2794 61.0713C32.2951 64.0781 37.6668 76.0826 38.6578 79.0894C39.6487 82.0961 40.5609 81.488 40.5609 81.488" stroke="#333333" stroke-width="1.5" stroke-linecap="round" stroke-linejoin="round"/>
<path d="M58.3987 64.9115C56.7403 64.0583 54.9224 63.5597 53.0608 63.4475C51.3378 63.4475 50.651 63.6164 47.205 64.9115" stroke="#333333" stroke-width="1.5" stroke-linecap="round" stroke-linejoin="round"/>
<path d="M55.696 63.8529C55.696 63.8529 56.4054 66.0376 54.7275 66.0376H51.3491C51.1022 65.9865 50.8746 65.8667 50.6927 65.6921C50.5108 65.5174 50.3818 65.295 50.3207 65.0503C50.2595 64.8057 50.2686 64.5487 50.3469 64.309C50.4253 64.0693 50.5697 63.8566 50.7635 63.6953C52.3985 63.3752 54.0847 63.4291 55.696 63.8529Z" fill="#333333"/>
<path d="M71.7996 64.7087C73.4904 63.9165 75.327 63.4832 77.1937 63.4362C78.9167 63.5038 79.5923 63.6952 82.982 65.1141" stroke="#333333" stroke-width="1.5" stroke-linecap="round" stroke-linejoin="round"/>
<path d="M74.5473 63.7515C74.5473 63.7515 73.7365 65.9137 75.4144 66.0038L78.7928 66.1276C79.0428 66.0881 79.2766 65.9785 79.4669 65.8116C79.6573 65.6447 79.7964 65.4273 79.8683 65.1845C79.9402 64.9418 79.9418 64.6836 79.8731 64.44C79.8043 64.1963 79.6679 63.9772 79.4797 63.8078C77.8604 63.4206 76.175 63.4014 74.5473 63.7515Z" fill="#333333"/>
<path d="M70.5158 57.5016C70.5158 57.1074 70.1892 56.0826 70.5833 55.9925C73.2089 55.4763 75.8806 55.231 78.5563 55.2606C79.3983 55.3364 80.2077 55.6227 80.9102 56.0929C81.6126 56.5632 82.1856 57.2025 82.5766 57.952C81.5829 58.3134 80.5209 58.448 79.4685 58.3462C77.6104 58.211 73.0946 58.1209 71.3604 58.1885C70.9437 58.1885 70.6171 57.479 70.5833 57.0624L70.5158 57.5016Z" fill="#333333"/>
<path d="M61.1803 66.702C61.3218 65.8912 61.3971 65.0702 61.4055 64.2471C61.4055 62.3665 58.3875 61.0038 49.7276 61.0602C41.0677 61.1165 41.3154 64.2471 41.3154 64.2471C41.642 65.4858 41.9461 66.7358 42.1713 67.6255" stroke="#333333" stroke-width="1.5" stroke-linecap="round" stroke-linejoin="round"/>
<path d="M68.0608 66.702C67.9193 65.8912 67.844 65.0702 67.8356 64.2471C67.8356 62.3665 70.8537 61.0038 79.5136 61.0602C88.1735 61.1165 87.9257 64.2471 87.9257 64.2471C87.5991 65.4858 87.295 66.7358 87.0698 67.6255" stroke="#333333" stroke-width="1.5" stroke-linecap="round" stroke-linejoin="round"/>
<path d="M61.4054 64.2359C61.4054 64.2359 65.2342 63.0309 67.8355 64.2359" stroke="#333333" stroke-width="1.5" stroke-linecap="round" stroke-linejoin="round"/>
<path d="M42.4076 62.6592L38.8265 61.702L38.5112 63.8191L42.4076 66.0151V62.6592Z" fill="#333333"/>
<path d="M87.9256 62.6592L91.4954 61.702L91.8107 63.8191L87.9256 66.0151V62.6592Z" fill="#333333"/>
<path d="M80.3243 55.238C80.3243 55.238 83.0383 56.6119 83.3536 58.3349C83.3198 58.3349 83.9279 55.666 80.3243 55.238Z" fill="#333333"/>
<path d="M81.2477 55.238C81.2477 55.238 83.8941 56.6907 84.1306 58.4137C84.1306 58.4137 84.8288 55.7786 81.2477 55.238Z" fill="#333333"/>
<path d="M68.2635 57.9633C68.2635 57.9633 68.6127 56.4093 69.6374 56.0264C69.4038 56.0231 69.1728 56.0767 68.9645 56.1825C68.7561 56.2883 68.5766 56.4431 68.4414 56.6338C68.3062 56.8244 68.2194 57.045 68.1884 57.2766C68.1574 57.5082 68.1832 57.7439 68.2635 57.9633Z" fill="#333333"/>
<path d="M69.3446 58.0083C69.3446 58.0083 69.6936 56.4655 70.7297 56.0826C70.4964 56.0781 70.2656 56.1304 70.057 56.2348C69.8484 56.3392 69.6682 56.4927 69.532 56.6821C69.3958 56.8715 69.3075 57.0911 69.2749 57.3221C69.2422 57.5531 69.2661 57.7886 69.3446 58.0083Z" fill="#333333"/>
<path d="M70.6734 57.783C70.6734 57.783 70.7973 56.2065 71.7996 55.6772C71.5639 55.6989 71.3373 55.7787 71.1401 55.9096C70.9428 56.0404 70.7811 56.2182 70.6695 56.4269C70.5579 56.6356 70.4998 56.8688 70.5005 57.1055C70.5012 57.3422 70.5606 57.575 70.6734 57.783Z" fill="#333333"/>
<path d="M58.928 57.7943C58.928 57.4114 59.3109 56.4092 58.928 56.2853C56.3453 55.6439 53.7041 55.2666 51.0451 55.1592C50.1986 55.1995 49.376 55.4529 48.6535 55.8958C47.9311 56.3387 47.3321 56.9569 46.9122 57.693C47.8876 58.1018 48.9412 58.2902 49.9978 58.2448C51.8672 58.2448 56.3717 58.3349 58.1059 58.4925C58.5226 58.4925 58.8829 57.8168 58.928 57.3664V57.7943Z" fill="#333333"/>
<path d="M49.277 55.0578C49.277 55.0578 46.4955 56.2853 46.0901 57.9857C46.0901 57.9857 45.6171 55.2943 49.277 55.0578Z" fill="#333333"/>
<path d="M48.3198 55.0128C48.3198 55.0128 45.5945 56.3191 45.268 58.0308C45.268 58.0308 44.6711 55.3619 48.3198 55.0128Z" fill="#333333"/>
<path d="M61.1802 58.3687C61.1802 58.3687 60.9099 56.8034 59.8964 56.3754C60.1304 56.3805 60.3596 56.4428 60.5639 56.5571C60.7682 56.6714 60.9412 56.8341 61.068 57.0309C61.1947 57.2276 61.2713 57.4525 61.2908 57.6858C61.3104 57.919 61.2724 58.1535 61.1802 58.3687Z" fill="#333333"/>
<path d="M60.054 58.3687C60.054 58.3687 59.7837 56.8034 58.7702 56.3754C59.0042 56.3805 59.2335 56.4428 59.4377 56.5571C59.642 56.6714 59.8151 56.8341 59.9418 57.0309C60.0686 57.2276 60.1451 57.4525 60.1647 57.6858C60.1842 57.919 60.1462 58.1535 60.054 58.3687Z" fill="#333333"/>
<path d="M58.9842 58.3687C58.9842 58.3687 58.7027 56.8034 57.7004 56.3754C57.9334 56.3831 58.1611 56.4472 58.3639 56.5622C58.5667 56.6771 58.7386 56.8396 58.8648 57.0356C58.991 57.2316 59.0678 57.4552 59.0886 57.6874C59.1095 57.9196 59.0736 58.1534 58.9842 58.3687Z" fill="#333333"/>
<path d="M54.75 87.6705C57.4984 88.4666 60.3459 88.8685 63.2072 88.8642C70.268 88.8642 70.268 88.7854 73.8378 87.6705" stroke="#333333" stroke-width="1.5" stroke-linecap="round" stroke-linejoin="round"/>
<path d="M58.1734 90.4182C59.8712 91.1136 61.6878 91.4731 63.5225 91.4768C68.027 91.4768 68.027 91.3979 70.2793 90.4182" stroke="#333333" stroke-width="1.5" stroke-linecap="round" stroke-linejoin="round"/>
<path d="M85.9551 39.675C88.0497 40.8912 91.4956 61.702 91.4956 61.702L91.642 68.3462C91.642 68.3462 89.3898 62.389 93.8943 62.1975C93.8943 62.1975 93.8155 58.9205 93.8943 55.4408C93.9731 51.961 94.829 47.3664 93.8943 43.0534C90.6398 38.7178 87.9821 29.1908 64.1308 29.1908C64.1308 29.1908 49.4911 25.8124 36.4619 45.3056V59.9453L39.8402 62.1975L40.9664 54.3146C40.9664 54.3146 41.8785 46.6232 43.2186 45.3056C55.5497 35.1705 72.4416 31.7921 85.9551 39.675Z" fill="#333333"/>
<path d="M61.1802 66.702C61.1802 66.702 58.4212 76.961 58.9279 79.0894C59.4347 81.2177 64.5586 81.3416 64.5586 81.3416" stroke="#333333" stroke-width="1.5" stroke-linecap="round" stroke-linejoin="round"/>
<path d="M82.2838 95.3057V109.371C82.2838 109.371 80.3244 121.882 73.5676 125.261C73.5676 125.261 78.0721 125.261 78.0721 128.639C78.0721 132.017 88.2073 136.522 88.2073 136.522C88.2073 136.522 89.3334 127.513 88.2073 121.882C87.0811 116.252 82.5766 109.495 82.5766 109.495" stroke="#333333" stroke-width="1.5" stroke-linecap="round" stroke-linejoin="round"/>
<path d="M48.7929 94.8551C48.7929 94.8551 48.5001 103.301 48.5001 108.74C48.5001 108.74 60.0542 118.504 66.8109 118.504C66.8109 118.504 60.0542 119.63 58.9281 124.134C58.2739 127.102 58.2739 130.176 58.9281 133.143C58.9281 133.143 49.9191 124.134 48.7929 108.369" stroke="#333333" stroke-width="1.5" stroke-linecap="round" stroke-linejoin="round"/>
<path d="M78.0721 26.1614C77.0253 23.8937 75.1986 22.0776 72.9248 21.044C70.651 20.0105 68.0815 19.8283 65.6847 20.5308C56.6757 22.783 53.2973 23.9092 53.2973 23.9092C53.2973 23.9092 61.1802 21.6569 63.4324 23.9092C63.4324 23.9092 49.9189 23.9092 42.036 28.4137C34.1532 32.9182 33.027 38.5488 31.9009 41.9272C31.9009 41.9272 35.2793 36.2966 36.4054 36.2966C36.4054 36.2966 31.9009 43.0533 30.7748 46.4317L33.027 43.0533C33.0161 44.985 32.6337 46.8966 31.9009 48.6839L35.2793 44.1794L37.5315 56.5668C37.5315 56.5668 44.2883 32.9182 58.9279 31.7921C73.5676 30.6659 79.1982 31.7921 79.1982 31.7921C79.1982 31.7921 89.3333 38.5488 91.5856 44.1794C93.8378 49.8101 93.8378 62.1975 93.8378 62.1975L92.7117 59.9452L93.8378 45.3056L97.2162 48.6839C97.2162 48.6839 96.0901 44.1794 94.964 40.8011L97.2162 43.0533C97.2162 43.0533 96.0901 38.5488 94.964 35.1704C93.8378 31.7921 89.3333 28.4137 87.0811 28.4137C89.6755 28.659 92.085 29.8637 93.8378 31.7921C93.8378 31.7921 90.4595 23.9092 84.8288 26.1614L85.955 22.783L83.7027 25.0353C83.668 24.029 83.3255 23.0576 82.7214 22.2521C82.1173 21.4467 81.2806 20.8459 80.3243 20.5308L76.946 19.4047C76.946 19.4047 81.4505 22.783 81.4505 26.1614C81.4505 26.1614 78.0721 19.4047 73.5676 19.4047H64.5586C64.5586 19.4047 76.946 18.2785 78.0721 26.1614Z" fill="#333333"/>
<path d="M75.8197 25.0353C75.8197 25.0353 72.4414 17.1524 61.1801 19.4047C49.9188 21.657 47.6666 25.0353 47.6666 25.0353C47.6666 25.0353 56.2139 22.0624 58.7026 24.1119C58.7026 24.1119 47.5877 20.7335 41.4391 30.2268L63.4324 28.4137L75.8197 25.0353Z" fill="#333333"/>
<path d="M78.072 36.2966C78.072 36.2966 70.1891 30.6659 65.6846 37.4227L61.1801 44.1794C62.0342 41.8012 63.1683 39.533 64.5584 37.4227C64.5584 37.4227 60.0539 39.6749 60.0539 41.9272V44.1794C60.0539 44.1794 57.8017 41.9272 60.0539 38.5488C59.3041 39.0236 58.6981 39.694 58.3012 40.4878C57.9043 41.2816 57.7316 42.1686 57.8017 43.0533C57.8017 43.0533 56.6756 41.9272 57.8017 39.6749C57.1693 39.9992 56.6304 40.4799 56.2362 41.0712C55.842 41.6625 55.6056 42.3449 55.5494 43.0533V45.3056C54.8377 43.4962 54.8377 41.4844 55.5494 39.6749C55.5494 39.6749 52.1711 41.9272 52.1711 44.1794V46.4317C52.1711 46.4317 49.5021 45.3957 51.394 41.9272C53.2859 38.4587 64.5584 25.0353 78.072 36.2966Z" fill="#333333"/>
<path d="M69.6711 35.576C69.6711 35.576 61.0901 31.0715 57.5541 38.3913L54.018 45.6998C54.5397 43.2289 55.3524 40.8285 56.4391 38.5489C56.4391 38.5489 52.2837 41.398 52.5878 43.6278L52.8919 45.88C52.8919 45.88 50.3581 43.9543 52.1261 40.2494C51.4503 40.8247 50.9435 41.5728 50.6599 42.4138C50.3763 43.2548 50.3265 44.157 50.5158 45.0241C50.5158 45.0241 49.2432 44.0557 50.054 41.6458C49.469 42.0518 48.9987 42.6021 48.689 43.2434C48.3792 43.8846 48.2404 44.595 48.286 45.3057L48.5901 47.5579C47.6435 45.8702 47.37 43.8871 47.8243 42.0061C47.8243 42.0061 44.7838 44.675 45.0878 46.9048L45.3918 49.157C45.3918 49.157 42.8806 45.576 44.2657 41.9273C45.6508 38.2787 54.7387 26.2742 69.6711 35.576Z" fill="#333333"/>
<path d="M66.8108 118.504C66.8108 118.504 70.1892 120.756 70.1892 126.387V139.9" stroke="#333333" stroke-width="1.5" stroke-linecap="round" stroke-linejoin="round"/>
<path d="M73.5675 125.26L70.5157 131.015" stroke="#333333" stroke-width="1.5" stroke-linecap="round" stroke-linejoin="round"/>
<path d="M58.9279 133.143L63.4324 139.9" stroke="#333333" stroke-width="1.5" stroke-linecap="round" stroke-linejoin="round"/>
<path d="M81.1351 132.513C81.1351 132.513 75.8198 139.168 74.6937 139.9" stroke="#333333" stroke-width="1.5" stroke-linecap="round" stroke-linejoin="round"/>
<path d="M48.6238 100.486C48.6238 100.486 40.9099 106.116 40.9099 113.999V127.513C44.7256 127.724 48.3315 129.327 51.045 132.017C55.5495 136.522 56.6757 139.9 56.6757 139.9" stroke="#333333" stroke-width="1.5" stroke-linecap="round" stroke-linejoin="round"/>
<path d="M82.2837 102.524C87.4727 105.783 91.5127 110.582 93.8378 116.252C97.2161 125.261 99.4684 129.765 99.4684 129.765C99.4684 129.765 92.5878 127.378 88.7026 132.513" stroke="#333333" stroke-width="1.5" stroke-linecap="round" stroke-linejoin="round"/>
<path d="M84.1982 134.472L79.9302 140.294" stroke="#333333" stroke-width="1.5" stroke-linecap="round" stroke-linejoin="round"/>
<path d="M45.2343 103.729C45.2343 103.729 29.6486 111.747 19.5135 117.378C9.37838 123.008 8.25225 124.134 7.12613 129.765C6.45097 133.103 6.07411 136.495 6 139.9" stroke="#333333" stroke-width="1.5" stroke-linecap="round" stroke-linejoin="round"/>
<path d="M85.2793 103.729C85.2793 103.729 99.4685 109.495 107.351 112.873C115.234 116.252 125.369 123.008 126.495 128.639C127.436 132.593 128.954 136.388 131 139.9" stroke="#333333" stroke-width="1.5" stroke-linecap="round" stroke-linejoin="round"/>
<path d="M20.6396 124.134C20.6396 124.134 26.2703 132.017 26.2703 139.9" stroke="#333333" stroke-width="1.5" stroke-linecap="round" stroke-linejoin="round"/>
<path d="M118.613 125.26C118.613 127.513 116.36 135.396 117.486 139.9" stroke="#333333" stroke-width="1.5" stroke-linecap="round" stroke-linejoin="round"/>
</g>
<defs>
<clipPath id="clip0_423_202">
<rect width="140" height="140" fill="white" transform="translate(-1)"/>
</clipPath>
</defs>
</svg>
