<svg width="171" height="157" viewBox="0 0 171 157" fill="none" xmlns="http://www.w3.org/2000/svg">
<path d="M119.52 48.8572C119.52 60.1391 120.017 61.8507 118.141 68.9393C115.384 79.3512 114.047 86.7822 109.883 92.4161C100.246 105.424 93.3671 110.958 83.7306 110.958C74.094 110.958 65.836 106.85 57.5781 93.8424C52.0492 85.1277 50.6989 78.0533 47.8989 66.315C46.0654 58.613 47.6715 54.4482 47.9415 50.7256C49.306 31.1997 41.0481 6.48209 83.7306 7.78002C118.155 8.83547 119.52 24.6958 119.52 48.8572Z" stroke="#333333" stroke-width="2.00357" stroke-miterlimit="10" stroke-linecap="round" stroke-linejoin="round"/>
<path d="M87.6392 47.4161C87.2838 46.7743 87.8524 45.9899 88.7762 45.8472C92.7417 45.1911 102.293 41.7253 105.747 42.8235C108.376 43.6507 110.096 47.0168 110.096 47.0168L88.9894 48.0294C88.4067 48.058 87.8666 47.8155 87.6392 47.4161Z" fill="#333333"/>
<path d="M76.3674 47.4162C76.7228 46.7744 76.1542 45.9899 75.2304 45.8473C71.2649 45.1912 62.6374 41.8965 59.1978 42.9947C56.5683 43.822 53.5693 47.2593 53.5693 47.2593L75.0172 48.0295C75.5999 48.0581 76.14 47.8156 76.3674 47.4162Z" fill="#333333"/>
<path d="M46.5618 61.1374C46.5618 61.1374 49.3192 48.586 49.3192 42.4958C49.3192 39.3009 47.9405 38.0315 47.9405 32.5117C47.9405 23.3977 54.5213 14.9541 61.7132 12.9858C68.4219 11.1602 67.2137 14.2838 80.9864 14.2838C93.3804 14.2838 97.9997 10.718 104.396 12.9858C115.411 16.8939 115.411 25.9651 115.411 35.1076C115.411 39.1725 118.168 38.3025 118.168 42.9094C118.168 48.1153 118.168 62.4353 118.168 62.4353C118.168 62.4353 130.463 29.4595 115.326 12.5437C94.2758 -10.9758 55.5162 5.72602 48.5233 18.2488C41.4593 30.8715 43.8045 44.2216 46.5618 61.1374Z" fill="#333333"/>
<path d="M119.519 53.321C119.519 53.321 120.898 48.1151 125.02 52.0231C129.156 55.9312 122.263 71.549 120.884 75.4428C119.505 79.3366 116.691 77.5109 116.691 77.5109" stroke="#333333" stroke-width="2.00357" stroke-miterlimit="10" stroke-linecap="round" stroke-linejoin="round"/>
<path d="M47.9271 50.7253C47.9271 50.7253 46.4063 48.1295 42.2844 52.0232C38.1484 55.9313 45.0418 71.5491 46.4205 75.4429C47.7992 79.3509 50.6134 77.511 50.6134 77.511" stroke="#333333" stroke-width="2.00357" stroke-miterlimit="10" stroke-linecap="round" stroke-linejoin="round"/>
<path d="M90.0837 56.0598C90.0837 56.0598 91.7183 53.3213 95.968 53.3213C98.7965 53.3213 102.833 53.6351 108.49 56.0598" stroke="#333333" stroke-width="2.00357" stroke-miterlimit="10" stroke-linecap="round" stroke-linejoin="round"/>
<path d="M102.634 59.0834C102.634 59.0834 104.41 55.2325 100.246 53.906C99.3221 53.6065 97.3749 53.7919 96.4084 55.3323C95.7546 56.3735 95.1576 57.1865 95.5129 58.7697C95.5129 58.7697 98.9952 60.1246 102.634 59.0834Z" fill="#333333"/>
<path d="M75.4726 56.0598C75.4726 56.0598 73.8381 53.3213 69.5883 53.3213C66.7599 53.3213 62.7233 53.6351 57.0664 56.0598" stroke="#333333" stroke-width="2.00357" stroke-miterlimit="10" stroke-linecap="round" stroke-linejoin="round"/>
<path d="M65.6791 59.0834C65.6791 59.0834 63.9024 55.2325 68.0669 53.906C68.9908 53.6065 70.938 53.7919 71.9045 55.3323C72.5583 56.3735 73.1553 57.1865 72.7999 58.7697C72.7999 58.7697 69.3177 60.1246 65.6791 59.0834Z" fill="#333333"/>
<path d="M71.4358 85.769C75.4724 88.9925 78.315 86.5963 82.3516 86.5678C86.3881 86.5392 89.2308 88.9925 93.3669 85.769" stroke="#333333" stroke-width="2.00357" stroke-miterlimit="10" stroke-linecap="round" stroke-linejoin="round"/>
<path d="M75.2017 87.4807C75.2017 87.4807 79.7925 91.6312 89.2444 87.7802" stroke="#333333" stroke-width="2.00357" stroke-miterlimit="10" stroke-linecap="round" stroke-linejoin="round"/>
<path d="M75.2017 93.3289C75.2017 93.3289 80.9865 97.6933 89.4291 93.3289" stroke="#333333" stroke-width="2.00357" stroke-miterlimit="10" stroke-linecap="round" stroke-linejoin="round"/>
<path d="M59.8658 96.6948C59.8658 96.6948 61.2871 109.531 58.4445 115.237C55.8435 120.457 69.8151 134.221 83.4883 138.057C93.9777 131.368 107.04 123.295 108.191 118.089C109.342 112.883 105.391 120.942 106.699 96.6948" stroke="#333333" stroke-width="2.00357" stroke-miterlimit="10" stroke-linecap="round" stroke-linejoin="round"/>
<path d="M77.9448 73.0042C77.9448 73.0042 76.8646 76.5414 80.29 77.9534C83.7154 79.3654 86.5438 78.638 86.5438 78.638" stroke="#333333" stroke-width="2.00357" stroke-miterlimit="10" stroke-linecap="round" stroke-linejoin="round"/>
<path d="M109.612 155.173C102.505 153.746 101.084 145.188 103.926 138.057C105.419 134.292 110.365 131.853 112.454 128.073C119.561 115.236 135.196 112.384 147.277 123.794C155.037 131.125 155.094 145.188 145.145 155.173" stroke="#333333" stroke-width="2.00357" stroke-miterlimit="10" stroke-linecap="round" stroke-linejoin="round"/>
<path d="M114.744 136.018C114.744 136.018 109.741 138.999 114.204 142.607" stroke="#333333" stroke-width="2.00357" stroke-miterlimit="10" stroke-linecap="round" stroke-linejoin="round"/>
<path d="M123.826 143.762C119.292 142.564 118.297 139.74 118.297 139.74C118.297 139.74 120.642 135.932 122.234 136.274C123.826 136.631 127.578 139.854 127.578 139.854" stroke="#333333" stroke-width="2.00357" stroke-miterlimit="10" stroke-linecap="round" stroke-linejoin="round"/>
<path d="M111.83 130.926C111.83 130.926 112.384 133.935 114.885 135.205" stroke="#333333" stroke-width="2.00357" stroke-miterlimit="10" stroke-linecap="round" stroke-linejoin="round"/>
<path d="M108.404 144.39C108.404 144.39 109.612 148.041 112.455 148.041" stroke="#333333" stroke-width="2.00357" stroke-miterlimit="10" stroke-linecap="round" stroke-linejoin="round"/>
<path d="M116.876 131.838C116.876 131.838 116.72 128.073 112.456 128.073" stroke="#333333" stroke-width="2.00357" stroke-miterlimit="10" stroke-linecap="round" stroke-linejoin="round"/>
<path d="M130.933 150.751C130.933 150.751 134.102 148.226 134.955 150.751C135.808 153.275 134.145 155.172 134.145 155.172" stroke="#333333" stroke-width="2.00357" stroke-miterlimit="10" stroke-linecap="round" stroke-linejoin="round"/>
<path d="M138.934 118.303C138.934 118.303 136.987 114.851 138.934 113.625" stroke="#333333" stroke-width="2.00357" stroke-miterlimit="10" stroke-linecap="round" stroke-linejoin="round"/>
<path d="M145.288 121.156C145.288 121.156 146.766 117.704 145.288 116.478" stroke="#333333" stroke-width="2.00357" stroke-miterlimit="10" stroke-linecap="round" stroke-linejoin="round"/>
<path d="M149.552 125.434C149.552 125.434 151.03 121.982 149.552 120.756" stroke="#333333" stroke-width="2.00357" stroke-miterlimit="10" stroke-linecap="round" stroke-linejoin="round"/>
<path d="M128.019 121.155C128.019 121.155 136.987 118.445 141.777 119.7" stroke="#333333" stroke-width="2.00357" stroke-miterlimit="10" stroke-linecap="round" stroke-linejoin="round"/>
<path d="M120.912 119.729C120.912 119.729 129.881 117.019 134.671 118.274" stroke="#333333" stroke-width="2.00357" stroke-miterlimit="10" stroke-linecap="round" stroke-linejoin="round"/>
<path d="M132.283 124.008C132.283 124.008 141.251 121.298 146.041 122.553" stroke="#333333" stroke-width="2.00357" stroke-miterlimit="10" stroke-linecap="round" stroke-linejoin="round"/>
<path d="M135.197 126.647C135.197 126.647 144.123 126.418 148.884 126.518" stroke="#333333" stroke-width="2.00357" stroke-miterlimit="10" stroke-linecap="round" stroke-linejoin="round"/>
<path d="M136.617 130.925C136.617 130.925 145.543 130.697 150.305 130.797" stroke="#333333" stroke-width="2.00357" stroke-miterlimit="10" stroke-linecap="round" stroke-linejoin="round"/>
<path d="M138.039 135.204C138.039 135.204 146.965 134.976 151.726 135.076" stroke="#333333" stroke-width="2.00357" stroke-miterlimit="10" stroke-linecap="round" stroke-linejoin="round"/>
<path d="M137.954 139.74C137.954 139.74 146.908 139.498 151.641 138.97" stroke="#333333" stroke-width="2.00357" stroke-miterlimit="10" stroke-linecap="round" stroke-linejoin="round"/>
<path d="M137.697 143.391C137.697 143.391 147.163 144.347 151.683 142.15" stroke="#333333" stroke-width="2.00357" stroke-miterlimit="10" stroke-linecap="round" stroke-linejoin="round"/>
<path d="M138.039 148.041C138.039 148.041 146.311 148.597 150.319 146.8" stroke="#333333" stroke-width="2.00357" stroke-miterlimit="10" stroke-linecap="round" stroke-linejoin="round"/>
<path d="M137.798 152.52C137.798 152.52 144.236 153.147 147.306 151.664" stroke="#333333" stroke-width="2.00357" stroke-miterlimit="10" stroke-linecap="round" stroke-linejoin="round"/>
<path d="M152.408 133.065C152.408 133.065 158.051 129.87 159.415 138.956C160.78 148.041 163.608 155.172 163.608 155.172" stroke="#333333" stroke-width="2.00357" stroke-miterlimit="10" stroke-linecap="round" stroke-linejoin="round"/>
<path d="M103.927 138.057C103.927 138.057 85.8476 137.701 83.5166 142.151C81.1857 146.601 74.3917 141.166 69.9714 147.456C65.5511 153.746 56.8525 155.173 56.8525 155.173" stroke="#333333" stroke-width="2.00357" stroke-miterlimit="10" stroke-linecap="round" stroke-linejoin="round"/>
<path d="M69.9723 147.456C69.9723 147.456 26.4655 130.926 23.2675 126.647C20.0695 122.368 14.1995 128.415 11.4563 131.097C8.71315 133.778 29.2087 155.914 29.2087 155.914" stroke="#333333" stroke-width="2.00357" stroke-miterlimit="10" stroke-linecap="round" stroke-linejoin="round"/>
<path d="M83.517 142.165C83.517 142.165 34.9929 128.144 33.2163 123.124C31.4396 118.103 42.5402 113.625 42.5402 113.625" stroke="#333333" stroke-width="2.00357" stroke-miterlimit="10" stroke-linecap="round" stroke-linejoin="round"/>
<path d="M84.0284 138.057C84.0284 138.057 50.8831 126.704 46.1358 120.257C41.3886 113.81 42.1561 109.36 48.4952 110.958C54.1805 112.384 52.4465 104.639 59.8658 106.679" stroke="#333333" stroke-width="2.00357" stroke-miterlimit="10" stroke-linecap="round" stroke-linejoin="round"/>
<path d="M33.2156 123.11L25.4268 126.647" stroke="#333333" stroke-width="2.00357" stroke-miterlimit="10" stroke-linecap="round" stroke-linejoin="round"/>
<path d="M12.9482 135.903C12.9482 135.903 4.83238 138.1 1.08008 155.9" stroke="#333333" stroke-width="2.00357" stroke-miterlimit="10" stroke-linecap="round" stroke-linejoin="round"/>
<path d="M106.444 104.539C106.444 104.539 110.395 102.4 113.564 106.679C116.734 110.958 122.064 105.695 122.945 109.046C123.826 112.384 126.328 112.084 122.945 117.946" stroke="#333333" stroke-width="2.00357" stroke-miterlimit="10" stroke-linecap="round" stroke-linejoin="round"/>
<path d="M124.494 112.398C124.494 112.398 129.511 117.889 130.932 116.663" stroke="#333333" stroke-width="2.00357" stroke-miterlimit="10" stroke-linecap="round" stroke-linejoin="round"/>
<path d="M159.358 136.631C159.358 136.631 163.622 139.483 166.465 143.762C172.15 152.32 169.108 155.914 169.108 155.914" stroke="#333333" stroke-width="2.00357" stroke-miterlimit="10" stroke-linecap="round" stroke-linejoin="round"/>
</svg>
