<svg width="140" height="140" viewBox="0 0 140 140" fill="none" xmlns="http://www.w3.org/2000/svg">
<path d="M74.6366 82.1985C74.6366 82.1985 73.5563 84.84 71.4714 85.1729" stroke="#333333" stroke-width="1.5" stroke-miterlimit="10" stroke-linecap="round" stroke-linejoin="round"/>
<path d="M41.6995 67.2729C41.9588 73.0606 45.7073 92.5604 53.496 98.3051C59.4698 102.708 60.8417 107.325 71.2122 106.917C79.2818 106.595 82.5334 101.645 88.0319 95.5348C91.9532 91.186 98.6184 73.9948 97.2681 62.602C94.6431 40.3103 82.8034 34.9951 71.7092 33.4059C59.567 31.6771 40.4896 40.4177 41.6995 67.2729Z" stroke="#333333" stroke-width="1.5" stroke-miterlimit="10" stroke-linecap="round" stroke-linejoin="round"/>
<path d="M78.3203 69.7641C78.3203 69.7641 78.666 67.0152 81.9392 67.1119C85.4284 67.2085 86.5087 67.2085 89.7495 70.4298" stroke="#333333" stroke-width="1.5" stroke-miterlimit="10" stroke-linecap="round" stroke-linejoin="round"/>
<path d="M81.075 67.23C81.075 67.23 78.9469 71.5788 83.3867 71.9331C85.1584 72.0727 87.0812 70.4191 86.3358 68.5507C86.325 68.5615 83.808 66.5428 81.075 67.23Z" fill="#333333"/>
<path d="M63.8232 69.7641C63.8232 69.7641 63.4775 67.0152 60.2043 67.1119C56.7151 67.2085 55.6348 67.2085 52.394 70.4298" stroke="#333333" stroke-width="1.5" stroke-miterlimit="10" stroke-linecap="round" stroke-linejoin="round"/>
<path d="M61.0685 67.23C61.0685 67.23 63.1967 71.5788 58.7568 71.9331C56.9852 72.0727 55.0623 70.4191 55.8077 68.5507C55.8185 68.5615 58.3355 66.5428 61.0685 67.23Z" fill="#333333"/>
<path d="M78.6444 59.7565C78.6444 59.7565 86.4331 59.8531 88.7016 61.249C90.9594 62.6449 92.1585 63.8583 92.1585 63.8583" stroke="#333333" stroke-width="1.5" stroke-miterlimit="10" stroke-linecap="round" stroke-linejoin="round"/>
<path d="M63.8772 60.0786C63.8772 60.0786 56.0885 59.8102 53.766 61.0987C51.4434 62.3873 50.1903 63.5469 50.1903 63.5469" stroke="#333333" stroke-width="1.5" stroke-miterlimit="10" stroke-linecap="round" stroke-linejoin="round"/>
<path d="M61.6627 90.8317C61.6627 90.8317 65.3248 92.6464 70.3696 92.6464C75.4144 92.6464 80.0271 90.8317 80.0271 90.8317" stroke="#333333" stroke-width="1.5" stroke-miterlimit="10" stroke-linecap="round" stroke-linejoin="round"/>
<path d="M59.8046 34.834C59.8046 34.834 73.5455 31.7738 77.8665 39.2902C81.5394 45.6899 79.9514 57.6948 90.8297 62.9133C101.708 68.1319 90.7973 91.6262 88.6692 95.1267C88.6692 95.1267 96.2094 96.2327 99.4718 95.1267C102.734 94.0207 109.713 76.0993 109.227 72.7384C109.227 72.7384 107.682 85.9566 105.5 89.2531C105.5 89.2531 109.194 87.5995 110.274 82.2306C111.581 75.7235 112.068 73.7585 109.821 66.0595C107.034 56.4599 103.76 9.10628 58.4219 21.0252C52.8369 22.4963 45.2967 26.2116 40.0574 34.9844C34.8182 43.7571 31.8366 52.5084 33.8351 67.6165C33.8351 67.6165 35.207 65.222 37.6916 67.3588C37.6916 67.3588 38.0049 72.8028 39.096 73.9088C40.1871 75.0148 40.63 75.0578 40.954 79.4388C41.2781 83.8198 48.948 90.7994 46.7442 94.4717C46.7442 94.4717 49.769 90.735 45.5235 85.0761C41.2781 79.4173 41.5482 77.3664 42.4988 73.4364C43.4494 69.5063 46.3229 60.8409 45.6208 58.4894C44.3785 54.3231 50.86 39.2902 59.8046 34.834Z" fill="#333333"/>
<path d="M45.5237 85.0869C45.5237 85.0869 43.2983 85.4627 40.3384 86.7942C37.3785 88.1257 32.4957 71.5036 33.8352 67.6272C35.1748 63.7509 39.7983 67.6272 39.7983 67.6272" stroke="#333333" stroke-width="1.5" stroke-miterlimit="10" stroke-linecap="round" stroke-linejoin="round"/>
<path d="M38.3615 85.6345C38.3615 85.6345 37.897 89.7578 42.218 91.9054C46.539 94.0529 49.499 93.7523 49.499 93.7523L45.4588 84.3889C45.4588 84.3889 42.218 87.6103 38.3615 85.6345Z" fill="#333333"/>
<path d="M54.9435 99.4434C54.9435 99.4434 58.2491 116.033 38.3507 122.218C38.3507 122.218 42.9634 134.953 52.3077 139.195" stroke="#333333" stroke-width="1.5" stroke-miterlimit="10" stroke-linecap="round" stroke-linejoin="round"/>
<path d="M86.4978 97.2743C86.4978 97.2743 82.1876 118.75 99.4718 121.971C99.4718 121.971 93.3251 130.658 87.7509 139.205" stroke="#333333" stroke-width="1.5" stroke-miterlimit="10" stroke-linecap="round" stroke-linejoin="round"/>
<path d="M42.218 120.758C42.218 120.758 55.8617 133.525 65.2492 134.191" stroke="#333333" stroke-width="1.5" stroke-miterlimit="10" stroke-linecap="round" stroke-linejoin="round"/>
<path d="M68.1443 137.004C69.3375 137.004 70.3048 136.043 70.3048 134.857C70.3048 133.67 69.3375 132.709 68.1443 132.709C66.9511 132.709 65.9838 133.67 65.9838 134.857C65.9838 136.043 66.9511 137.004 68.1443 137.004Z" stroke="#333333" stroke-width="1.5" stroke-miterlimit="10" stroke-linecap="round" stroke-linejoin="round"/>
<path d="M96.0474 120.994C96.0474 120.994 84.3482 134.857 70.3048 134.857" stroke="#333333" stroke-width="1.5" stroke-miterlimit="10" stroke-linecap="round" stroke-linejoin="round"/>
<path d="M99.4718 121.971C99.4718 121.971 108.114 124.119 113.515 125.193L115.654 139.205" stroke="#333333" stroke-width="1.5" stroke-miterlimit="10" stroke-linecap="round" stroke-linejoin="round"/>
<path d="M113.515 125.193C113.515 125.193 126.489 124.215 129.19 139.205" stroke="#333333" stroke-width="1.5" stroke-miterlimit="10" stroke-linecap="round" stroke-linejoin="round"/>
<path d="M37.8969 121.971C37.8969 121.971 35.7364 123.045 25.4847 125.193L23.3458 139.205" stroke="#333333" stroke-width="1.5" stroke-miterlimit="10" stroke-linecap="round" stroke-linejoin="round"/>
<path d="M25.4848 125.193C25.4848 125.193 12.5108 124.215 9.81018 139.205" stroke="#333333" stroke-width="1.5" stroke-miterlimit="10" stroke-linecap="round" stroke-linejoin="round"/>
<path d="M63.8232 92.8181C63.8232 92.8181 71.7956 97.2313 76.7864 93.0329" stroke="#333333" stroke-width="1.5" stroke-miterlimit="10" stroke-linecap="round" stroke-linejoin="round"/>
<path d="M62.7106 22.0346C62.7106 22.0346 68.7924 11.8659 84.7263 17.9221C100.66 23.9782 112.932 41.3412 109.572 59.1766C106.213 77.0121 103.393 72.1371 103.393 72.1371C103.393 72.1371 114.099 53.2816 101.956 38.8607C89.8143 24.4399 76.1274 11.2217 62.7106 22.0346Z" fill="#333333"/>
<path d="M57.0392 23.1835C57.0392 23.1835 62.743 14.5074 70.3048 16.6979C70.3048 16.6979 62.1272 19.9729 57.0392 23.1835Z" fill="#333333"/>
<path d="M68.1443 17.6L74.6367 21.4012L76.1382 20.3059L70.3048 16.698L68.1443 17.6Z" fill="#333333"/>
</svg>
