<svg width="140" height="140" viewBox="0 0 140 140" fill="none" xmlns="http://www.w3.org/2000/svg">
<path d="M73.5282 81.4387C73.5282 81.4387 73.8806 84.1698 72.2728 85.4252" stroke="#333333" stroke-width="1.5" stroke-linecap="round" stroke-linejoin="round"/>
<path d="M42.2419 66.2085C42.2419 71.7918 43.5855 86.7467 49.8515 93.9158C54.4437 99.1687 63.595 106.624 70.0373 106.745C77.6028 106.899 83.2082 101.79 89.6945 93.9158C95.9605 86.3062 97.3041 72.7279 97.3041 65.2615C97.3041 42.8732 84.5186 34.6359 73.7705 32.6096C61.9872 30.3961 55.5009 38.9528 55.5009 38.9528C55.5009 38.9528 49.9396 40.5937 46.724 47.3553C42.8256 55.5375 42.2419 56.1102 42.2419 66.2085V66.2085Z" stroke="#333333" stroke-width="1.5" stroke-linecap="round" stroke-linejoin="round"/>
<path d="M62.9893 70.1069C62.9893 70.1069 61.9321 67.4639 58.298 66.9243C55.3467 66.4838 52.9019 66.8913 50.4572 70.162" stroke="#333333" stroke-width="1.5" stroke-linecap="round" stroke-linejoin="round"/>
<path d="M62.3835 92.1207C62.3835 92.1207 64.9274 93.9158 71.3036 93.9158C77.6798 93.9158 78.9462 92.1207 78.9462 92.1207" stroke="#333333" stroke-width="1.5" stroke-linecap="round" stroke-linejoin="round"/>
<path d="M61.5247 67.7063C61.5247 67.7063 56.6022 62.8718 49.6974 68.0477C49.6974 68.0477 56.5471 64.3145 61.5247 67.7063Z" fill="#333333"/>
<path d="M77.812 69.5013C77.812 69.5013 78.8691 66.8693 82.4702 66.3407C85.3995 65.9112 87.8333 66.3076 90.267 69.5563" stroke="#333333" stroke-width="1.5" stroke-linecap="round" stroke-linejoin="round"/>
<path d="M85.3775 67.1887C85.3775 67.1887 85.7849 68.0036 85.7849 69.237C85.7849 70.4704 84.5736 71.2853 84.5736 71.2853C84.5736 71.2853 82.9658 71.6927 81.3469 70.8778C81.3469 70.8778 80.543 70.4704 80.543 69.248C80.543 68.0256 81.2478 67.3648 81.2478 67.3648C81.2478 67.3648 83.7146 66.638 85.3885 67.1997L85.3775 67.1887Z" fill="#333333"/>
<path d="M55.611 67.1887C55.611 67.1887 55.2036 68.0036 55.2036 69.237C55.2036 70.4704 56.4149 71.2853 56.4149 71.2853C56.4149 71.2853 58.0227 71.6927 59.6416 70.8778C59.6416 70.8778 60.4455 70.4704 60.4455 69.248C60.4455 68.0256 59.7407 67.3648 59.7407 67.3648C59.7407 67.3648 57.2739 66.638 55.6 67.1997L55.611 67.1887Z" fill="#333333"/>
<path d="M79.3207 67.4419C79.3207 67.4419 83.3402 62.3652 89.5732 67.1225C89.5732 67.1225 83.4724 63.7968 79.3207 67.4419Z" fill="#333333"/>
<path d="M64.0575 62.1339C64.0575 62.1339 57.7804 60.3059 53.6837 60.6252C49.5871 60.9446 47.693 62.3762 47.693 62.3762" stroke="#333333" stroke-width="1.5" stroke-linecap="round" stroke-linejoin="round"/>
<path d="M77.1182 62.3542C77.1182 62.3542 82.8997 60.3279 86.721 60.6032C90.5423 60.8785 92.3373 62.3872 92.3373 62.3872" stroke="#333333" stroke-width="1.5" stroke-linecap="round" stroke-linejoin="round"/>
<path d="M66.8657 95.6998C66.8657 95.6998 70.0042 97.3847 74.9268 95.6998" stroke="#333333" stroke-width="1.5" stroke-linecap="round" stroke-linejoin="round"/>
<path d="M76.2373 29.9006C76.2373 29.9006 63.507 37.6534 59.4874 46.199C55.4679 54.7557 52.2523 62.8388 52.2523 62.8388C52.2523 62.8388 53.761 54.0288 55.4899 48.5226C55.4899 48.5226 51.2721 60.405 50.1819 62.9599C50.1819 62.9599 50.7656 52.5532 52.9791 48.2583C52.9791 48.2583 50.6885 57.9493 47.9794 61.0217C45.2704 64.0942 44.1912 66.6601 44.1912 66.6601C44.1912 66.6601 45.2704 44.6022 53.9702 37.8296C62.67 31.0569 70.7972 23.7116 76.2263 29.8896L76.2373 29.9006Z" fill="#333333"/>
<path d="M72.8124 32.3673C72.8124 32.3673 78.2746 37.455 81.0167 41.2543C83.7477 45.0536 84.3314 54.3811 86.7211 57.7069C89.1108 61.0326 88.9786 61.8476 88.9786 61.8476C88.9786 61.8476 87.8774 58.3126 87.3818 53.6213C87.3818 53.6213 91.2913 60.5481 90.6856 64.2262C90.6856 64.2262 91.974 64.017 91.5555 58.9183C91.1261 53.8195 90.6415 51.639 90.6415 51.639C90.6415 51.639 93.747 63.4664 93.9012 67.6952C93.9012 67.6952 96.5332 61.8365 95.3438 53.6653C94.1545 45.4941 83.7367 24.5044 72.8014 32.3783L72.8124 32.3673Z" fill="#333333"/>
<path d="M73.7043 23.4693C73.7043 23.4693 69.1452 17.2583 57.1416 22.2249C45.1381 27.1915 30.6457 42.1023 31.8901 57.4206C33.1345 72.7389 35.2049 72.7389 33.9605 81.4277C32.7161 90.1165 29.4013 116.403 26.0976 123.44C22.7829 130.477 35.2049 140.003 45.5565 132.966C45.5565 132.966 32.3086 134.21 33.9605 127.173C35.6123 120.136 37.2862 119.619 40.9974 115.17C45.1381 110.203 50.6883 102.406 49.6862 93.8607C43.4752 86.4053 41.2947 66.7151 45.1271 56.903C48.9594 47.0909 62.2734 32.3343 69.024 32.2572C75.7746 32.1801 77.008 32.1691 77.008 32.1691L73.6933 23.4803L73.7043 23.4693Z" fill="#333333"/>
<path d="M52.6046 32.5986C52.6046 32.5986 40.3698 53.1368 35.0949 56.0331C29.8199 58.9293 26.9016 62.8828 31.2625 67.53C31.2625 67.53 26.5162 65.9663 27.3421 59.7553C28.1681 53.5442 41.416 31.6075 49.6973 26.6299C57.9787 21.6523 52.6046 32.5876 52.6046 32.5876V32.5986Z" fill="#333333"/>
<path d="M34.8527 55.3503C34.8527 55.3503 31.4829 82.6721 27.3422 93.0238C23.2015 103.375 21.5497 121.788 28.9941 121.788C28.9941 121.788 24.0275 115.379 27.3422 103.375C30.6569 91.3719 37.2754 62.3872 37.2754 55.3503C37.2754 48.3134 34.8527 55.3503 34.8527 55.3503Z" fill="#333333"/>
<path d="M34.3791 88.0573C34.3791 88.0573 28.994 117.648 22.783 123.859C16.572 130.07 28.091 142.293 34.9628 135.146C34.9628 135.146 27.7496 137.107 25.6793 132.14C23.609 127.173 24.8534 130.07 31.4718 116.403C38.1013 102.737 40.5791 88.0573 40.5791 88.0573H34.3681H34.3791Z" fill="#333333"/>
<path d="M49.6973 93.8496C49.6973 93.8496 55.0824 107.296 48.8714 115.577C42.6604 123.858 49.6973 131.721 45.9751 135.455C42.2529 139.177 33.9716 138.769 33.9716 132.966C33.9716 132.966 35.216 135.422 40.601 135.433C45.9861 135.444 40.601 128.407 40.601 122.614C40.601 116.822 42.5723 116.943 45.3144 110.258C48.0564 103.574 44.7417 95.094 44.7417 95.094L49.7083 93.8496H49.6973Z" fill="#333333"/>
<path d="M65.5662 23.4693C65.5662 23.4693 70.1253 17.2583 82.1289 22.2249C94.1324 27.1915 108.625 42.1023 107.38 57.4206C106.136 72.7389 104.066 72.7389 105.31 81.4277C106.554 90.1165 109.869 116.403 113.173 123.44C116.488 130.477 104.066 140.003 93.7139 132.966C93.7139 132.966 106.962 134.21 105.31 127.173C103.658 120.136 101.984 119.619 98.2731 115.17C94.1324 110.203 88.5821 102.406 89.5843 93.8607C95.7953 86.4053 97.9757 66.7151 94.1434 56.903C90.3111 47.0909 76.9971 32.3343 70.2465 32.2572C63.4958 32.1801 62.2625 32.1691 62.2625 32.1691L65.5772 23.4803L65.5662 23.4693Z" fill="#333333"/>
<path d="M104.429 55.3503C104.429 55.3503 107.799 82.6721 111.94 93.0238C116.08 103.375 117.732 121.788 110.288 121.788C110.288 121.788 115.254 115.379 111.94 103.375C108.625 91.3719 102.006 62.3872 102.006 55.3503C102.006 48.3134 104.429 55.3503 104.429 55.3503Z" fill="#333333"/>
<path d="M104.903 88.0573C104.903 88.0573 110.288 117.648 116.499 123.859C122.71 130.07 111.191 142.293 104.319 135.146C104.319 135.146 111.532 137.107 113.602 132.14C115.673 127.173 114.428 130.07 107.81 116.403C101.18 102.737 98.7026 88.0573 98.7026 88.0573H104.914H104.903Z" fill="#333333"/>
<path d="M89.5843 93.8496C89.5843 93.8496 84.1992 107.296 90.4102 115.577C96.6212 123.858 89.5843 131.721 93.3065 135.455C97.0287 139.188 105.31 138.769 105.31 132.966C105.31 132.966 104.066 135.422 98.6806 135.433C93.2955 135.444 98.6806 128.407 98.6806 122.614C98.6806 116.822 96.7093 116.943 93.9672 110.258C91.2251 103.574 94.5399 95.094 94.5399 95.094L89.5733 93.8496H89.5843Z" fill="#333333"/>
<path d="M67.9559 24.5375C67.9559 24.5375 73.9467 15.6945 87.9214 22.6984C101.896 29.7023 108.68 37.4331 110.277 52.9165C111.873 68.389 105.035 71.935 104.859 82.8813C104.682 93.8167 105.883 96.4046 105.883 96.4046C105.883 96.4046 101.885 89.4007 103.086 81.2955C104.286 73.1904 109.473 64.3474 108.272 52.1897C107.072 40.032 96.8305 29.0306 86.5779 24.945C76.3253 20.8594 71.1385 21.5972 67.9449 24.5485L67.9559 24.5375Z" fill="#333333"/>
<path d="M39.8742 41.1002C39.8742 41.1002 28.9059 64.799 27.1439 70.5034C25.3929 76.2078 35.9208 90.6892 35.9208 90.6892L37.2753 88.0572C37.2753 88.0572 29.3353 81.0313 29.3353 73.5759C29.3353 66.1204 44.1911 44.6022 44.1911 44.6022L39.8632 41.1002H39.8742Z" fill="#333333"/>
<path d="M87.4589 32.5986C87.4589 32.5986 99.6937 53.1368 104.969 56.0331C110.244 58.9293 113.162 62.8828 108.801 67.53C108.801 67.53 113.547 65.9663 112.721 59.7553C111.895 53.5442 98.6475 31.6075 90.3662 26.6299C82.0849 21.6523 87.4589 32.5876 87.4589 32.5876V32.5986Z" fill="#333333"/>
<path d="M100.2 41.1002C100.2 41.1002 111.169 64.799 112.931 70.5034C114.693 76.2078 104.154 90.6892 104.154 90.6892L102.799 88.0572C102.799 88.0572 110.739 81.0313 110.739 73.5759C110.739 66.1204 95.8834 44.6022 95.8834 44.6022L100.211 41.1002H100.2Z" fill="#333333"/>
<path d="M106.599 90.6891C106.599 90.6891 107.656 109.234 115.453 112.692C123.249 116.139 129.383 124.486 123.679 130.191C117.974 135.895 108.757 136.336 108.757 130.191C108.757 130.191 116.212 133.704 119.725 130.191C123.238 126.678 123.679 122.735 118.404 120.533C113.14 118.341 109.737 111.976 105.299 104.851C100.85 97.715 99.0991 81.4827 99.0991 81.4827L106.588 90.7001L106.599 90.6891Z" fill="#333333"/>
<path d="M44.2572 105.17C44.2572 105.17 35.4803 118.33 37.2312 124.475C38.9822 130.62 45.1271 133.252 49.5211 128.858C49.5211 128.858 40.7442 135.884 35.4803 127.537C30.2163 119.2 40.7442 103.838 40.7442 103.838L44.2572 105.159V105.17Z" fill="#333333"/>
<path d="M35.5684 66.0984C35.5684 66.0984 33.2778 111.756 20.999 119.211C8.72013 126.667 10.9006 114.828 10.9006 114.828C10.9006 114.828 6.94713 126.237 17.9265 124.046C17.9265 124.046 15.735 127.118 11.3411 126.678C11.3411 126.678 15.724 134.133 23.6309 125.356C31.5379 116.579 40.7442 93.7616 40.7442 88.0572C40.7442 82.3527 35.5684 66.0984 35.5684 66.0984Z" fill="#333333"/>
<path d="M53.7609 97.8582V108.232C53.7609 111.745 20.0959 120.379 13.5325 123.517C6.96909 126.656 6 139.65 6 139.65" stroke="#333333" stroke-width="1.5" stroke-miterlimit="10"/>
<path d="M54.9392 139.65C54.9392 139.65 49.5211 128.869 49.5211 112.626" stroke="#333333" stroke-width="1.5" stroke-miterlimit="10"/>
<path d="M39.5879 114.872C39.5879 114.872 37.066 134.629 37.8149 139.639" stroke="#333333" stroke-width="1.5" stroke-miterlimit="10"/>
<path d="M86.8202 97.704V108.078C86.8202 111.591 120.485 120.224 127.049 123.363C133.612 126.501 134.581 139.485 134.581 139.485" stroke="#333333" stroke-width="1.5" stroke-miterlimit="10"/>
<path d="M85.6418 139.496C85.6418 139.496 91.0599 128.715 91.0599 112.472" stroke="#333333" stroke-width="1.5" stroke-miterlimit="10"/>
<path d="M100.993 114.729C100.993 114.729 103.515 134.486 102.766 139.496" stroke="#333333" stroke-width="1.5" stroke-miterlimit="10"/>
<path d="M50.8094 120.191C50.8094 120.191 56.1615 129.937 69.5526 129.937C82.9437 129.937 90.4542 118.727 90.4542 118.727" stroke="#333333" stroke-width="1.5" stroke-miterlimit="10"/>
<path d="M36.6146 115.853C36.6146 115.853 53.9041 110.875 53.9041 108.232V97.7041C51.2722 95.9531 47.605 90.6782 47.605 90.6782L36.6146 115.842V115.853Z" fill="#333333"/>
<path d="M103.68 115.412C103.68 115.412 86.3907 110.434 86.3907 107.791V97.2636C89.0227 95.5126 92.6898 90.2377 92.6898 90.2377L103.68 115.401V115.412Z" fill="#333333"/>
<path d="M62.2513 50.3177C62.2513 50.3177 64.0023 46.3642 69.7067 46.3642C75.4112 46.3642 77.6027 50.3177 77.6027 50.3177C77.6027 50.3177 74.0897 53.3901 69.7067 53.3901C65.3238 53.3901 62.2513 50.3177 62.2513 50.3177Z" stroke="#333333" stroke-width="1.5" stroke-linecap="round" stroke-linejoin="round"/>
<path d="M66.5132 47.047C66.5132 47.047 64.8724 51.5511 69.3875 51.5511C73.9026 51.5511 73.418 48.4676 72.6361 47.047" stroke="#333333" stroke-width="1.5" stroke-linecap="round" stroke-linejoin="round"/>
<path d="M70.7969 46.5844C71.5568 47.0029 71.3586 49.4366 69.3543 49.4366C67.35 49.4366 68.0769 46.5844 68.0769 46.5844C68.0769 46.5844 69.2552 45.7254 70.7969 46.5844Z" fill="#333333"/>
</svg>
