<svg width="140" height="140" viewBox="0 0 140 140" fill="none" xmlns="http://www.w3.org/2000/svg">
<g clip-path="url(#clip0_305_1196)">
<path d="M96.9558 56.6222C96.9558 64.5733 97.5545 64.9724 96.126 69.9721C91.7041 85.5067 87.7863 90.8109 84.3516 93.3842C80.1503 96.5353 77.7975 97.5856 70.6972 97.5856C61.2441 97.5856 61.5382 96.7138 57.3368 93.5628C52.6838 90.0757 47.6106 84.5193 44.197 68.1235C43.0521 62.6407 44.5331 59.4266 44.7327 56.8007" stroke="#333333" stroke-width="1.5" stroke-linecap="round" stroke-linejoin="round"/>
<path d="M76.8838 61.4222C78.4627 60.4096 80.266 59.8001 82.1355 59.6472C84.5164 59.7767 86.7747 60.744 88.5111 62.378" stroke="#333333" stroke-width="1.5" stroke-linecap="round" stroke-linejoin="round"/>
<path d="M79.5201 60.666C79.5201 60.666 78.5852 62.5881 79.4255 63.2918C79.9324 63.7281 80.579 63.968 81.2478 63.968C81.9166 63.968 82.5633 63.7281 83.0702 63.2918C83.3471 62.8903 83.4953 62.4141 83.4953 61.9264C83.4953 61.4387 83.3471 60.9625 83.0702 60.5609C81.9176 60.1364 80.6455 60.174 79.5201 60.666Z" fill="#333333"/>
<path d="M76.0225 52.4838C75.9796 52.2861 76.0051 52.0798 76.0948 51.8985C76.1845 51.7172 76.3331 51.5718 76.5162 51.486C78.4699 50.7402 83.3434 50.4356 84.6248 50.4356C86.6738 51.1572 88.5848 52.2228 90.2757 53.5866C89.2286 52.9471 88.0355 52.5856 86.8096 52.5363C85.003 52.5363 78.5434 52.8934 76.8838 53.114C76.6791 53.1293 76.4761 53.0663 76.3162 52.9375C76.1563 52.8088 76.0513 52.624 76.0225 52.4208V52.4838Z" fill="#333333"/>
<path d="M63.3342 61.4958C61.7479 60.507 59.9463 59.9161 58.0825 59.7732C55.7148 59.8902 53.4613 60.8257 51.7069 62.4201" stroke="#333333" stroke-width="1.5" stroke-linecap="round" stroke-linejoin="round"/>
<path d="M60.698 60.7605C60.698 60.7605 61.6433 62.6301 60.803 63.3129C60.2924 63.7411 59.6472 63.9759 58.9807 63.9759C58.3142 63.9759 57.669 63.7411 57.1583 63.3129C56.8819 62.9249 56.7334 62.4605 56.7334 61.9842C56.7334 61.5079 56.8819 61.0434 57.1583 60.6555C58.3104 60.2505 59.5719 60.288 60.698 60.7605Z" fill="#333333"/>
<path d="M64.1955 52.4838C64.2412 52.2873 64.2182 52.081 64.1303 51.8995C64.0424 51.7179 63.8949 51.5719 63.7124 51.4859C61.2841 50.8307 58.7806 50.4953 56.2654 50.4881C53.5451 50.4881 49.9634 53.6391 49.9634 53.6391C51.0072 53.0009 52.1965 52.6394 53.419 52.5888C55.2361 52.5888 61.6852 52.9459 63.3448 53.1665C63.55 53.1844 63.7543 53.1223 63.9149 52.9931C64.0754 52.8639 64.1797 52.6776 64.206 52.4732L64.1955 52.4838Z" fill="#333333"/>
<path d="M66.769 65.1929C66.769 71.495 60.467 75.6964 69.647 76.4211" stroke="#333333" stroke-width="1.5" stroke-linecap="round" stroke-linejoin="round"/>
<path d="M64.2167 97.302C64.2167 97.302 66.3173 94.5816 68.5125 94.508C70.7078 94.4345 74.6781 94.508 76.9153 97.1024L71.254 100.096L70.7078 97.5751L67.4097 100.789V98.4678L64.2167 97.302Z" fill="#333333"/>
<path d="M61.2441 83.9311H62.9562C64.8043 84.3098 66.6897 84.4755 68.5755 84.4247C74.2999 84.4247 75.2348 82.9963 77.0939 82.9963" stroke="#333333" stroke-width="1.5" stroke-linecap="round" stroke-linejoin="round"/>
<path d="M65.9076 86.725C68.3049 87.6633 70.9678 87.6633 73.3651 86.725" stroke="#333333" stroke-width="1.5" stroke-linecap="round" stroke-linejoin="round"/>
<path d="M51.6965 90.1597C51.6965 90.1597 51.6965 100.737 50.6462 103.888C49.5958 107.039 57.0217 115.231 61.2231 117.962C61.2231 117.962 59.1224 114.391 54.921 122.794C52.3068 128.06 49.9855 133.467 47.9677 138.99C47.9677 138.99 32.4332 110.232 39.46 107.207C43.9345 105.274 43.6614 103.005 45.7621 100.905C48.1148 98.5519 48.9131 100.905 51.0138 101.955" stroke="#333333" stroke-width="1.5" stroke-linecap="round" stroke-linejoin="round"/>
<path d="M61.2441 117.962C61.2441 117.962 67.3362 128.067 65.3405 131.207C63.3449 134.348 64.2166 140.03 64.2166 140.03" stroke="#333333" stroke-width="1.5" stroke-linecap="round" stroke-linejoin="round"/>
<path d="M86.3158 91.6196V102.837C86.3158 105.988 75.949 118.151 73.8483 120.473C76.0865 122.432 77.5722 125.11 78.0496 128.046C79.1 133.297 83.4904 139.599 83.4904 139.599" stroke="#333333" stroke-width="1.5" stroke-linecap="round" stroke-linejoin="round"/>
<path d="M86.4103 101.787C86.4103 101.787 89.2567 97.5855 93.6261 103.888C97.9956 110.19 99.0249 107.868 99.5711 113.225C100.117 118.582 94.8655 123.865 92.2186 131.207C89.5718 138.549 88.5215 140.03 88.5215 140.03" stroke="#333333" stroke-width="1.5" stroke-linecap="round" stroke-linejoin="round"/>
<path d="M98.0061 109.139C98.0061 109.139 113.667 114.99 121.114 119.643C129.516 124.895 130.567 140.03 130.567 140.03" stroke="#333333" stroke-width="1.5" stroke-linecap="round" stroke-linejoin="round"/>
<path d="M37.3593 109.307C37.3593 109.307 17.1612 116.597 13.9891 120.22C10.8171 123.844 9 139.599 9 139.599" stroke="#333333" stroke-width="1.5" stroke-linecap="round" stroke-linejoin="round"/>
<path d="M20.0392 116.387C20.0392 116.387 25.0493 118.592 25.0493 139.599" stroke="#333333" stroke-width="1.5" stroke-linecap="round" stroke-linejoin="round"/>
<path d="M118.236 117.962C118.236 117.962 114.99 125.756 114.99 140.019" stroke="#333333" stroke-width="1.5" stroke-linecap="round" stroke-linejoin="round"/>
<path d="M73.8483 120.473C73.8483 120.473 71.6216 122.573 72.2098 126.901C72.798 131.228 73.9429 136.448 74.4155 139.599" stroke="#333333" stroke-width="1.5" stroke-linecap="round" stroke-linejoin="round"/>
<path d="M64.8467 125.441C64.8467 125.441 67.0209 126.491 71.7474 125.945" stroke="#333333" stroke-width="1.5" stroke-linecap="round" stroke-linejoin="round"/>
<path d="M64.8467 132.793C64.8467 132.793 67.3465 134.012 72.7978 133.371" stroke="#333333" stroke-width="1.5" stroke-linecap="round" stroke-linejoin="round"/>
<path d="M40.5103 57.8405C40.5103 57.8405 55.2151 48.3874 69.92 48.3874C84.6248 48.3874 97.2289 56.7902 97.2289 56.7902C97.2289 56.7902 99.3296 58.8909 100.38 52.5888C101.43 46.2868 100.38 41.035 97.2289 37.884C93.5107 34.1658 83.5744 27.3806 69.92 27.3806C56.2655 27.3806 45.762 32.6323 41.5607 36.8337C39.9011 38.4932 37.3593 45.2364 38.4096 51.5385C39.2919 56.7902 40.5103 57.8405 40.5103 57.8405Z" stroke="#333333" stroke-width="1.5" stroke-linecap="round" stroke-linejoin="round"/>
<path d="M64.143 59.416C64.143 59.416 63.0927 56.265 58.8913 56.265C55.6773 56.265 52.0641 58.8909 52.0641 58.8909" stroke="#333333" stroke-linecap="round" stroke-linejoin="round"/>
<path d="M76.7472 59.416C76.7472 59.416 78.8479 56.265 81.4737 56.265C84.6878 56.265 88.301 58.8909 88.301 58.8909" stroke="#333333" stroke-linecap="round" stroke-linejoin="round"/>
<path d="M41.5607 36.8337C41.5607 36.8337 42.611 21.0785 69.92 20.0282C91.9772 19.1774 97.2289 37.884 97.2289 37.884" stroke="#333333" stroke-width="1.5" stroke-linecap="round" stroke-linejoin="round"/>
<path d="M40.5103 57.8406C40.4188 65.5863 39.7164 73.3128 38.4096 80.9481C36.6766 90.4748 39.46 99.8543 37.3593 107.207C35.2586 114.559 46.8124 129.264 46.8124 129.264C46.8124 129.264 44.7117 122.962 46.8124 117.71C46.8124 117.71 46.8124 125.063 49.9634 129.264C49.9634 129.264 48.9131 121.912 49.9634 117.71C51.0138 113.509 51.2028 100.789 51.2028 100.789C51.2028 100.789 53.3035 89.4769 52.0641 88.3005C50.8247 87.1242 44.7117 71.495 44.7117 66.2433C44.7117 57.7775 45.762 55.7399 45.762 55.7399C45.762 55.7399 43.6614 55.7399 40.5103 57.8406Z" fill="#333333"/>
<path d="M99.3297 56.7902C99.3297 56.7902 97.229 76.7467 99.3297 84.0992C103.531 98.804 102.481 100.905 103.531 110.358C104.371 117.962 91.9773 131.365 91.9773 131.365C91.9773 131.365 99.3297 122.962 97.229 117.71C97.229 117.71 97.229 126.113 91.011 129.264C91.011 129.264 92.0613 121.912 91.011 117.71C89.9606 113.509 89.7716 100.789 89.7716 100.789C89.7716 100.789 87.6709 89.4769 88.9103 88.3005C90.1497 87.1241 95.1283 72.6084 95.1283 64.1426V55.7399C95.1283 55.7399 97.229 58.8909 99.3297 56.7902Z" fill="#333333"/>
<path d="M93.0275 100.905C93.0275 100.905 87.7758 98.804 86.7254 103.005C86.7254 103.005 86.946 94.6026 86.3158 92.5019L88.8261 88.3005L93.0275 100.905Z" fill="#333333"/>
<path d="M58.3661 70.4447C63.0068 70.4447 66.7689 66.6826 66.7689 62.0419C66.7689 57.4012 63.0068 53.6392 58.3661 53.6392C53.7254 53.6392 49.9634 57.4012 49.9634 62.0419C49.9634 66.6826 53.7254 70.4447 58.3661 70.4447Z" stroke="#333333" stroke-width="1.5" stroke-linecap="round" stroke-linejoin="round"/>
<path d="M82.5241 70.4447C87.1648 70.4447 90.9268 66.6826 90.9268 62.0419C90.9268 57.4012 87.1648 53.6392 82.5241 53.6392C77.8834 53.6392 74.1213 57.4012 74.1213 62.0419C74.1213 66.6826 77.8834 70.4447 82.5241 70.4447Z" stroke="#333333" stroke-width="1.5" stroke-linecap="round" stroke-linejoin="round"/>
<path d="M66.7689 62.042C67.8933 61.4166 69.1586 61.0883 70.4451 61.0883C71.7317 61.0883 72.997 61.4166 74.1213 62.042" stroke="#333333" stroke-width="1.5" stroke-linecap="round" stroke-linejoin="round"/>
<path d="M43.0417 58.3132L49.5434 60.4454" stroke="#333333" stroke-width="1.5" stroke-linecap="round" stroke-linejoin="round"/>
<path d="M97.8592 58.3132L91.3575 60.4454" stroke="#333333" stroke-width="1.5" stroke-linecap="round" stroke-linejoin="round"/>
<path d="M45.2264 33.9662C45.2264 33.9662 41.5607 50.6877 45.762 54.6895" stroke="#333333" stroke-width="1.5" stroke-linecap="round" stroke-linejoin="round"/>
<path d="M52.4528 30.9517C52.4528 30.9517 50.5517 45.4045 53.9338 51.0973" stroke="#333333" stroke-width="1.5" stroke-linecap="round" stroke-linejoin="round"/>
<path d="M60.4669 28.4309C60.4669 28.4309 59.4165 43.3248 63.0928 49.0072" stroke="#333333" stroke-width="1.5" stroke-linecap="round" stroke-linejoin="round"/>
<path d="M69.9199 27.3806V48.3874" stroke="#333333" stroke-width="1.5" stroke-linecap="round" stroke-linejoin="round"/>
<path d="M78.0077 28.1893C78.0077 28.1893 80.707 40.1317 76.8838 48.9861" stroke="#333333" stroke-width="1.5" stroke-linecap="round" stroke-linejoin="round"/>
<path d="M85.486 30.9517C85.486 30.9517 89.3513 45.9927 82.7866 50.3411" stroke="#333333" stroke-width="1.5" stroke-linecap="round" stroke-linejoin="round"/>
<path d="M92.2608 33.9662C92.2608 33.9662 97.7646 45.52 89.1097 52.7254" stroke="#333333" stroke-width="1.5" stroke-linecap="round" stroke-linejoin="round"/>
<path d="M98.6573 39.6801C98.6573 39.6801 101.43 49.4378 95.1282 55.7399" stroke="#333333" stroke-width="1.5" stroke-linecap="round" stroke-linejoin="round"/>
<path d="M55.9189 22.3705C55.9189 22.3705 48.5665 27.1811 48.7555 32.0126" stroke="#333333" stroke-width="1.5" stroke-miterlimit="10"/>
<path d="M64.2167 20.5008C64.2167 20.5008 56.1711 25.2484 57.2635 28.9035" stroke="#333333" stroke-width="1.5" stroke-miterlimit="10"/>
<path d="M69.92 20.0281C69.92 20.0281 67.5357 22.2759 67.1471 27.4541" stroke="#333333" stroke-width="1.5" stroke-miterlimit="10"/>
<path d="M75.2242 20.2172C75.2242 20.2172 76.3271 22.3179 75.2242 27.4541" stroke="#333333" stroke-width="1.5" stroke-miterlimit="10"/>
<path d="M79.7512 21.0785C79.7512 21.0785 83.7636 25.4479 83.1439 29.5548" stroke="#333333" stroke-width="1.5" stroke-miterlimit="10"/>
<path d="M90.2757 32.7688C90.2757 32.7688 89.656 27.265 86.6205 24.1665" stroke="#333333" stroke-width="1.5" stroke-miterlimit="10"/>
</g>
<defs>
<clipPath id="clip0_305_1196">
<rect width="140" height="140" fill="white"/>
</clipPath>
</defs>
</svg>
