<svg xmlns="http://www.w3.org/2000/svg" width="140" height="140" viewBox="0 0 140 140">
  <g fill="none" fill-rule="evenodd" transform="translate(0 10.77)">
    <path stroke="#333" stroke-linecap="round" stroke-linejoin="round" stroke-width="2.004" d="M98.1822485,40.4734201 C98.1822485,49.8193728 98.5939645,51.2372663 97.0398817,57.1094793 C94.7559763,65.7347219 93.6484024,71.8905799 90.1989349,76.557716 C82.2156213,87.3334911 76.5171243,91.9178698 68.5342249,91.9178698 C60.5512426,91.9178698 53.7102959,88.5147929 46.869432,77.7392663 C42.2892781,70.5199882 41.1706864,64.6595385 38.8511598,54.935503 C37.332284,48.5551479 38.6627811,45.1050178 38.8864497,42.0212071 C40.0168047,25.8459053 33.1759408,5.3697787 68.5342249,6.44498698 C97.0514793,7.31932426 98.1822485,20.4580592 98.1822485,40.4734201 Z"/>
    <path fill="#333" fill-rule="nonzero" d="M71.7721183 39.2796095C71.4777041 38.7479408 71.9487337 38.098142 72.7140118 37.979929 75.9990414 37.4364142 83.9113609 34.5653373 86.7726627 35.4750888 88.9505325 36.1603432 90.3753846 38.9488284 90.3753846 38.9488284L72.8906272 39.7876686C72.4079172 39.8113609 71.960497 39.6104734 71.7721183 39.2796095zM62.4345325 39.2796923C62.7289467 38.7480237 62.2579172 38.098142 61.4926391 37.9800118 58.2076095 37.436497 51.060568 34.7071598 48.2111953 35.6169112 46.0329112 36.3022485 43.5485325 39.149716 43.5485325 39.149716L61.3160237 39.7877515C61.7987337 39.8114438 62.2461538 39.6105562 62.4345325 39.2796923z"/>
    <path fill="#333" fill-rule="nonzero" d="M37.743503,50.6463669 C37.743503,50.6463669 40.0277396,40.2487574 40.0277396,35.2036213 C40.0277396,32.5569586 38.8856213,31.5053846 38.8856213,26.9327692 C38.8856213,19.3827101 44.3371716,12.3880118 50.2949586,10.7574675 C55.8524615,9.24513609 54.8515858,11.8327337 66.2609231,11.8327337 C76.528142,11.8327337 80.3547811,8.87881657 85.6534911,10.7574675 C94.7783432,13.9949467 94.7783432,21.5095503 94.7783432,29.0832189 C94.7783432,32.4505917 97.0622485,31.7298817 97.0622485,35.5462485 C97.0622485,39.8588284 97.0622485,51.7215503 97.0622485,51.7215503 C97.0622485,51.7215503 107.247456,24.4043195 94.707929,10.3912308 C77.2698935,-9.0923787 45.1613491,4.74344852 39.3684142,15.1173491 C33.5165799,25.5740237 35.4593491,36.6332781 37.743503,50.6463669 Z"/>
    <path stroke="#333" stroke-linecap="round" stroke-linejoin="round" stroke-width="2.004" d="M98.1814201 44.1712426C98.1814201 44.1712426 99.323787 39.8586627 102.738462 43.0960592 106.164734 46.3335385 100.454556 59.2713609 99.3121893 62.4969941 98.1698225 65.7226272 95.8386982 64.210213 95.8386982 64.210213M38.8745207 42.0209586C38.8745207 42.0209586 37.6146864 39.8705917 34.2000947 43.096142 30.7738225 46.3336213 36.4843314 59.2714438 37.6264497 62.4970769 38.768568 65.7344734 41.099858 64.2102959 41.099858 64.2102959M73.7971479 46.440071C73.7971479 46.440071 75.1512544 44.1714911 78.671716 44.1714911 81.0148521 44.1714911 84.3586982 44.4314438 89.0449704 46.440071"/>
    <path fill="#333" fill-rule="nonzero" d="M84.1938462,48.9448284 C84.1938462,48.9448284 85.6650888,45.7547337 82.2156213,44.655858 C81.4502604,44.4077515 79.8371953,44.5613373 79.0365444,45.8374083 C78.4949349,46.6999408 78.0003787,47.373432 78.2947101,48.6849586 C78.2947101,48.6849586 81.1794556,49.8073609 84.1938462,48.9448284 Z"/>
    <path stroke="#333" stroke-linecap="round" stroke-linejoin="round" stroke-width="2.004" d="M61.6932781,46.440071 C61.6932781,46.440071 60.3392544,44.1714911 56.8187101,44.1714911 C54.4756568,44.1714911 51.1317278,44.4314438 46.4455385,46.440071"/>
    <path fill="#333" fill-rule="nonzero" d="M53.5803195,48.9448284 C53.5803195,48.9448284 52.108497,45.7547337 55.5583787,44.655858 C56.3237396,44.4077515 57.9368047,44.5613373 58.7374556,45.8374083 C59.2790651,46.6999408 59.7736213,47.373432 59.4792071,48.6849586 C59.4792071,48.6849586 56.5945444,49.8073609 53.5803195,48.9448284 Z"/>
    <path stroke="#333" stroke-linecap="round" stroke-linejoin="round" stroke-width="2.004" d="M58.3491834 71.0512426C61.6931124 73.7215976 64.047929 71.7365799 67.391858 71.7129704 70.7357041 71.6892781 73.0906036 73.7215976 76.5169586 71.0512426M61.4688639 72.4692189C61.4688639 72.4692189 65.2718935 75.907503 73.1018698 72.7173254M61.4688639 77.3138817C61.4688639 77.3138817 66.2610059 80.9293609 73.2548757 77.3138817M48.764568 80.1022012C48.764568 80.1022012 49.9419763 90.7357396 47.5871598 95.4626036 45.4324852 99.7868639 57.0065917 111.188994 68.333503 114.366746 77.0229467 108.825562 87.843787 102.13787 88.7972781 97.8252071 89.7507692 93.5125444 86.4777515 100.188639 87.5613018 80.1022012M63.7412544 60.4768521C63.7412544 60.4768521 62.8464142 63.4070769 65.6840237 64.5767811 68.5216331 65.7464852 70.8646864 65.1439053 70.8646864 65.1439053M89.9744379 128.54568C84.0869822 127.36355 82.9098225 120.274083 85.264142 114.366746 86.5009467 111.247811 90.5982249 109.227337 92.3287574 106.095976 98.216213 95.4617751 111.168284 93.0991716 121.176213 102.551243 127.604615 108.62426 127.651834 120.274083 119.410059 128.54568M94.2257988 112.677633C94.2257988 112.677633 90.0813018 115.147101 93.7784615 118.135976"/>
    <path stroke="#333" stroke-linecap="round" stroke-linejoin="round" stroke-width="2.004" d="M101.749349 119.092781C97.9933728 118.100355 97.1691124 115.760947 97.1691124 115.760947 97.1691124 115.760947 99.111716 112.606391 100.430533 112.889704 101.749349 113.185444 104.857515 115.855385 104.857515 115.855385M91.8118343 108.459408C91.8118343 108.459408 92.2707692 110.952071 94.3426036 112.004142M88.9737278 119.613018C88.9737278 119.613018 89.9744379 122.637515 92.3295858 122.637515M95.9919527 109.214911C95.9919527 109.214911 95.8627219 106.095976 92.3304142 106.095976M107.636805 124.882485C107.636805 124.882485 110.262012 122.790769 110.968639 124.882485 111.675266 126.973373 110.297633 128.544852 110.297633 128.544852M114.264852 98.0024852C114.264852 98.0024852 112.651953 95.1428402 114.264852 94.1272189M119.528521 100.365917C119.528521 100.365917 120.752899 97.5062722 119.528521 96.4906509M123.060828 103.909822C123.060828 103.909822 124.285207 101.050178 123.060828 100.034556M105.22284 100.365089C105.22284 100.365089 112.651953 98.1201183 116.62 99.1597633M99.3353846 99.183787C99.3353846 99.183787 106.765325 96.9388166 110.733373 97.9784615M108.755148 102.728521C108.755148 102.728521 116.18426 100.48355 120.152308 101.523195M111.169112 104.914675C111.169112 104.914675 118.563432 104.72497 122.507456 104.807811M112.345444 108.45858C112.345444 108.45858 119.739763 108.269704 123.684615 108.352544M113.523432 112.003314C113.523432 112.003314 120.917751 111.814438 124.861775 111.897278M113.453018 115.760947C113.453018 115.760947 120.870533 115.560473 124.791361 115.123077M113.240118 118.785444C113.240118 118.785444 121.081775 119.577396 124.826154 117.757396M113.523432 122.637515C113.523432 122.637515 120.375976 123.098107 123.696213 121.609467M113.323787 126.347929C113.323787 126.347929 118.657041 126.867337 121.200237 125.638817M125.426746 110.231361C125.426746 110.231361 130.10142 107.584615 131.231361 115.111479 132.36213 122.637515 134.704852 128.544852 134.704852 128.544852M85.2649704 114.366746C85.2649704 114.366746 70.2879527 114.071834 68.3569467 117.758225 66.4260237 121.444615 60.797858 116.942249 57.136071 122.152899 53.474284 127.36355 46.2683432 128.54568 46.2683432 128.54568"/>
    <path stroke="#333" stroke-linecap="round" stroke-linejoin="round" stroke-width="2.004" d="M57.1368166 122.152899C57.1368166 122.152899 21.0956805 108.459408 18.4464497 104.914675 15.7972189 101.369941 10.934497 106.37929 8.66202367 108.601065 6.38959172 110.822012 23.3681538 129.159527 23.3681538 129.159527M68.3572781 117.769822C68.3572781 117.769822 28.1597988 106.154793 26.6880592 101.996213 25.2162367 97.8368047 34.412 94.1272189 34.412 94.1272189"/>
    <path stroke="#333" stroke-linecap="round" stroke-linejoin="round" stroke-width="2.004" d="M68.7809231,114.366746 C68.7809231,114.366746 41.3232781,104.961893 37.3906036,99.6211834 C33.4580118,94.2804734 34.0938107,90.5940828 39.3451361,91.9178698 C44.0548521,93.0991716 42.6184024,86.6831953 48.764568,88.3731361"/>
    <line x1="26.687" x2="20.235" y1="101.985" y2="104.915" stroke="#333" stroke-linecap="round" stroke-linejoin="round" stroke-width="2.004"/>
    <path stroke="#333" stroke-linecap="round" stroke-linejoin="round" stroke-width="2.004" d="M9.89791716 112.582367C9.89791716 112.582367 3.17475266 114.402367.0663384615 129.147929M87.3500592 86.600355C87.3500592 86.600355 90.6230769 84.8284024 93.248284 88.3731361 95.8743195 91.9178698 100.289704 87.5579882 101.019527 90.3339645 101.749349 93.0991716 103.822012 92.8506509 101.019527 97.7067456M102.302722 93.1107692C102.302722 93.1107692 106.458817 97.6595266 107.635976 96.6439053M131.184142 113.185444C131.184142 113.185444 134.71645 115.548047 137.071598 119.092781 141.781065 126.182249 139.261065 129.159527 139.261065 129.159527"/>
  </g>
</svg>
