<svg xmlns="http://www.w3.org/2000/svg" width="140" height="140" viewBox="0 0 140 140">
  <g fill="none" fill-rule="evenodd">
    <path stroke="#333" stroke-linecap="round" stroke-linejoin="round" stroke-width="1.5" d="M99.80075,56.2538594 C95.4836094,31.7345 91.4995156,21.9711406 79.2510469,19.6534844 C65.8307344,17.1140156 49.7215469,23.3024531 49.7215469,23.3024531 C49.7215469,23.3024531 42.6290156,27.9622656 38.95325,35.7285469 C34.5127344,45.1344687 35.2774844,45.4426875 35.2774844,57.0551406 C35.2774844,63.47775 37.6210625,73.6725938 44.5778594,81.9196875 C49.7337969,88.0341875 50.9796875,87.96025 53.5699063,90.9064844 C59.9963438,98.2166719 61.2792031,98.6111875 69.5558281,98.4755625 C73.2315938,98.413875 76.5497031,97.2304375 84.3822656,91.2886406 C90.8087031,86.4192656 98.5056406,84.483875 99.7885,70.3688125"/>
    <path stroke="#333" stroke-linecap="round" stroke-linejoin="round" stroke-width="1.5" d="M71.5541094,48.5245469 C71.5541094,48.5245469 75.1188594,45.9604688 80.5461562,45.9604688 C83.9752812,45.9604688 89.5382031,47.2425625 89.5382031,47.2425625"/>
    <path fill="#333" fill-rule="nonzero" d="M54.3594844,95.5786563 L54.3594844,102.383422 C54.3594844,102.383422 43.9489531,91.9544062 45.2318125,85.9755313 C45.2318125,85.9755313 51.9296094,93.1994219 54.3594844,95.5786563 Z"/>
    <path stroke="#333" stroke-linecap="round" stroke-linejoin="round" stroke-width="1.5" d="M114.405156 111.296719C114.405156 111.296719 132.093281 119.136719 135.374531 125.694844 138.655781 132.252969 139.074687 139.045156 139.074687 139.045156M31.5278906 110.1625C31.5278906 110.1625 8.8318125 118.322969 5.41506875 125.152344 1.99833594 131.981719.937538437 139.058281.937538437 139.058281M89.5260625 54.9719844C88.0458906 54.2322812 87.04675 53.6898906 81.0890938 53.6898906 75.1313281 53.6898906 74.0089219 57.1292969 74.0089219 57.1292969"/>
    <path stroke="#333" stroke-linecap="round" stroke-linejoin="round" stroke-width="1.5" d="M86.9604531 53.6897813C84.3948438 52.4077969 83.1119844 52.4077969 81.1014531 52.3708281 75.1436875 52.2598125 74.0089219 55.9827187 74.0089219 55.9827187M61.2793125 49.8066406C61.2793125 49.8066406 56.0247188 45.9604688 51.3744219 45.9604688 48.4264375 45.9604688 45.8731875 47.2425625 45.8731875 47.2425625"/>
    <path fill="#333" fill-rule="nonzero" d="M78.7084375,53.6898906 C78.7084375,53.6898906 77.5119844,57.1292969 78.7084375,58.2757656 C78.7084375,58.2757656 81.0890937,59.422125 83.4696406,58.2757656 C83.4696406,58.2757656 85.8502969,55.9828281 83.4696406,53.6898906 C83.482,53.6898906 81.0890937,53.6898906 78.7084375,53.6898906 Z"/>
    <path stroke="#333" stroke-linecap="round" stroke-linejoin="round" stroke-width="1.5" d="M45.8731875,54.9720937 C47.3162812,52.9626563 50.3137031,52.3093594 53.5947344,52.3093594 C56.8757656,52.3093594 60.0952188,55.8103438 60.0952188,55.8103438"/>
    <path stroke="#333" stroke-linecap="round" stroke-linejoin="round" stroke-width="1.5" d="M59.9964531,54.9720937 C59.9964531,54.9720937 54.8652344,51.1259219 51.0044062,51.1259219 C48.9815156,51.1259219 47.1559375,52.4079062 47.1559375,52.4079062"/>
    <path fill="#333" fill-rule="nonzero" d="M56.76475 53.283125C56.76475 53.283125 57.4184844 54.9719844 56.135625 57.5484219 56.135625 57.5484219 53.5700156 58.8304062 51.3990313 57.0306406 51.3990313 57.0306406 49.7215469 54.9842344 51.3990313 52.3584688 51.3990313 52.3584688 53.5700156 51.1258125 56.76475 53.283125zM103.772813 137.75125L103.32875 137.75125C103.316391 137.75125 103.501453 137.788438 103.772813 137.75125z"/>
    <path fill="#333" fill-rule="nonzero" d="M120.350781,116.079688 C112.640938,101.212453 108.792906,93.7788906 108.792906,83.8799063 C108.792906,68.4212813 115.218906,40.5364531 104.944438,20.713875 C100.454594,12.0599063 97.2351406,4.6141375 88.2430937,4.6141375 C72.8369687,-2.81934844 54.1744219,2.32122188 44.5902187,12.0476563 C29.54175,27.2967188 27.9012344,57.8688906 27.9012344,66.5351094 C27.9012344,89.5505625 30.4668437,101.212453 29.1840937,112.356563 C27.8519062,123.968906 15.8254687,139.423594 15.8254687,139.423594 L49.7461562,139.423594 C57.7514219,133.5425 60.8105312,96.1457656 56.1603437,92.1886875 C38.3858125,77.0628906 43.8995156,63.441 45.8854375,50.4354375 C49.2034375,28.7266875 60.0088125,26.9022031 63.8571719,25.6695469 C66.5832344,24.7942188 76.6977969,23.1916563 76.6977969,23.1916563 C89.5383125,29.3800938 90.8210625,33.103 95.96475,44.247 C97.3832344,47.3166094 99.5295,53.8870938 99.8132188,57.8688906 C103.710906,58.1894688 100.886297,47.9576563 104.944438,47.9576563 C111.371094,47.9576563 103.513594,68.1377813 98.382375,69.3827969 C95.8166563,81.7719219 92.1039219,86.3577969 86.9725938,88.8233281 C85.6898437,107.400781 81.841375,109.878125 92.1039219,123.500781 C99.2210625,132.931094 90.6483594,139.262812 89.5505625,139.423594 L126.328125,139.423594 C126.328125,141.094844 126.160781,127.309219 120.350781,116.079688 Z"/>
    <path stroke="#333" stroke-linecap="round" stroke-linejoin="round" stroke-width="1.5" d="M51.6952188 114.723438C51.6952188 114.723438 56.1357344 129.738438 61.2669531 134.545469M49.7337969 138.922656C49.7337969 138.922656 88.7364844 127.568437 98.7646406 118.865469M63.8450313 63.9587812C63.8450313 63.9587812 62.5621719 70.3813906 62.5621719 71.663375 62.5621719 72.9454687 66.4106406 74.2275625 67.6935 72.9454687"/>
    <path fill="#333" fill-rule="nonzero" d="M98.7646406,54.5405 C98.3700156,54.5898281 98.7646406,60.2111562 99.8008594,61.0987344 C100.836969,61.9863125 102.304781,56.0074375 102.181406,54.0596875 C102.181406,54.0596875 101.194625,59.6687656 100.392906,59.5947187 C99.6034375,59.5207812 98.7646406,54.5405 98.7646406,54.5405 Z"/>
    <path fill="#333" fill-rule="nonzero" d="M101.922406,57.0059219 C102.304781,57.05525 101.922406,62.6765781 100.923266,63.5641563 C99.924125,64.4517344 98.5056406,58.4729687 98.6166563,56.5252188 C98.6166563,56.5252188 99.5664688,62.1341875 100.343578,62.06025 C101.108328,61.9863125 101.922406,57.0059219 101.922406,57.0059219 Z"/>
    <path fill="#333" fill-rule="nonzero" d="M98.7646406,52.0749688 C98.3700156,52.1242969 98.7646406,57.745625 99.8008594,58.6332031 C100.836969,59.5207812 102.304781,53.5420156 102.181406,51.5942656 C102.181406,51.5942656 101.194625,57.2032344 100.392906,57.1292969 C99.6034375,57.0553594 98.7646406,52.0749688 98.7646406,52.0749688 Z"/>
    <path fill="#333" fill-rule="nonzero" d="M99.406125,57.0059219 C99.406125,57.0059219 100.195484,63.2682969 99.3074687,66.3008281 C98.6783438,68.4335313 100.133797,71.6632656 100.133797,71.6632656 L100.836969,71.6632656 C100.836969,71.6632656 99.6157969,68.5320781 99.6157969,67.5582031 C99.6157969,65.9803594 100.207844,65.2160469 100.207844,63.6504531 C100.207844,61.9122656 99.924125,56.9935625 99.924125,56.9935625 L99.406125,56.9935625 L99.406125,57.0059219 Z"/>
    <path fill="#333" fill-rule="nonzero" d="M98.5427187,56.9935625 C98.5427187,56.9935625 99.02375,63.2805469 97.9752812,66.2761094 C97.2475,68.3842031 98.5427187,71.675625 98.5427187,71.675625 L99.2334219,71.7125937 C99.2334219,71.7125937 98.1603437,68.5320781 98.2096719,67.5582031 C98.2837187,65.98025 98.9127344,65.2406563 98.9867812,63.6874219 C99.0730781,61.9492344 99.0361094,57.0305313 99.0361094,57.0305313 L98.5427187,56.9935625 Z"/>
    <path stroke="#333" stroke-linecap="round" stroke-linejoin="round" stroke-width="1.5" d="M56.4317031 79.2448125C56.4317031 79.2448125 61.3656094 80.4775781 66.299625 80.4775781 71.2335312 80.4775781 77.3515313 80.4775781 79.8432031 79.8611406 79.8432031 79.8611406 77.4008594 84.1757656 66.299625 84.1757656 58.8986563 84.1757656 56.4317031 79.2448125 56.4317031 79.2448125zM63.4377187 85.9755313C63.4377187 85.9755313 67.5329375 87.7754063 71.8500781 85.9755313M18.1937656 15.141875C18.1937656 15.141875 18.1937656 23.771125 13.2598594 23.771125 13.2598594 23.771125 18.1937656 26.2366563 18.1937656 32.3386875 18.1937656 32.3386875 18.1937656 23.771125 23.3373438 23.771125 23.3373438 23.771125 18.1937656 22.5383594 18.1937656 15.141875zM126.037188 90.3395937C126.037188 90.3395937 126.037188 97.7360781 121.806562 97.7360781 121.806562 97.7360781 126.037188 99.8440625 126.037188 105.070984 126.037188 105.070984 126.037188 97.7360781 130.440625 97.7360781 130.440625 97.7360781 126.037188 96.6759062 126.037188 90.3395937z"/>
  </g>
</svg>
