<svg width="140" height="140" viewBox="0 0 140 140" fill="none" xmlns="http://www.w3.org/2000/svg">
<path d="M77.3769 74.4603C77.3769 74.4603 75.6108 76.8678 73.4828 76.6369" stroke="#333333" stroke-width="1.5" stroke-miterlimit="10" stroke-linecap="round" stroke-linejoin="round"/>
<path d="M43.0212 62.5879C43.2626 68.2932 45.8184 87.8057 53.9905 93.434C57.7529 96.0283 60.8901 97.6773 64.9597 99.1503C67.6581 100.118 69.3474 101.437 74.3055 101.404C76.9381 101.393 78.8577 100.195 81.4136 99.1503C84.6934 97.7982 88.6313 96.2042 92.3828 92.3018C96.7705 87.7287 103.275 68.7769 101.915 57.5312C99.2715 35.5344 86.8543 30.3457 75.205 28.8507C62.4368 27.1798 41.8804 36.084 43.0212 62.5879Z" stroke="#333333" stroke-width="1.5" stroke-miterlimit="10" stroke-linecap="round" stroke-linejoin="round"/>
<path d="M79.2197 55.7284C79.2197 55.7284 86.262 52.6834 91.944 53.4419C94.4231 53.7717 96.2659 55.2667 96.2659 55.2667" stroke="#333333" stroke-width="1.5" stroke-miterlimit="10" stroke-linecap="round" stroke-linejoin="round"/>
<path d="M77.4098 60.1915C77.4976 59.3451 77.9583 58.6085 78.5945 58.2128C79.7463 57.4982 82.1815 56.5529 86.964 56.5529C91.4395 56.5529 94.4999 57.3883 96.2659 58.0809C97.3738 58.5206 98.032 59.8397 97.8236 61.1919C97.5493 62.9507 97.1325 65.2043 96.6718 65.7209C95.893 66.5894 93.1617 67.15 86.964 67.15C80.7664 67.15 78.3532 66.5894 77.6731 63.6213C77.3221 62.1373 77.3221 60.983 77.4098 60.1915Z" stroke="#333333" stroke-width="1.5" stroke-miterlimit="10" stroke-linecap="round" stroke-linejoin="round"/>
<path d="M92.1195 62.9398C92.1195 62.9398 88.4119 57.8171 82.0059 62.8408" stroke="#333333" stroke-width="1.5" stroke-miterlimit="10" stroke-linecap="round" stroke-linejoin="round"/>
<path d="M83.8487 61.4776C83.8487 61.4776 83.0041 64.7315 86.3936 64.7315C90.6057 64.7315 88.9384 61.4776 88.9384 61.4776C88.9384 61.4776 87.2492 59.312 83.8487 61.4776Z" fill="#333333"/>
<path d="M69.3473 55.7283C69.3473 55.7283 62.2941 52.6833 56.623 53.4528C54.155 53.7935 52.3011 55.2886 52.3011 55.2886" stroke="#333333" stroke-width="1.5" stroke-miterlimit="10" stroke-linecap="round" stroke-linejoin="round"/>
<path d="M71.1573 60.1915C71.0586 59.3451 70.576 58.6085 69.9069 58.2128C68.6893 57.4982 66.1225 56.5529 61.0986 56.5529C56.3818 56.5529 53.1568 57.3883 51.2921 58.0809C50.1293 58.5206 49.4273 59.8397 49.6467 61.1919C49.9319 62.9507 50.3816 65.2043 50.8643 65.7209C51.687 66.5894 54.5609 67.15 61.0986 67.15C67.6362 67.15 70.1701 66.5894 70.8941 63.6213C71.2451 62.1373 71.2451 60.983 71.1573 60.1915Z" stroke="#333333" stroke-width="1.5" stroke-miterlimit="10" stroke-linecap="round" stroke-linejoin="round"/>
<path d="M56.4475 62.9398C56.4475 62.9398 60.1551 57.8171 66.5611 62.8408" stroke="#333333" stroke-width="1.5" stroke-miterlimit="10" stroke-linecap="round" stroke-linejoin="round"/>
<path d="M64.7184 61.4776C64.7184 61.4776 65.563 64.7315 62.1735 64.7315C57.9613 64.7315 59.6286 61.4776 59.6286 61.4776C59.6286 61.4776 61.3179 59.312 64.7184 61.4776Z" fill="#333333"/>
<path d="M71.1792 60.6422C71.1792 60.6422 73.3621 58.7075 77.3878 60.6422" stroke="#333333" stroke-width="1.5" stroke-miterlimit="10" stroke-linecap="round" stroke-linejoin="round"/>
<path d="M43.4709 61.2688L49.6027 59.7848V62.621L43.438 62.9398L43.4709 61.2688Z" fill="#333333"/>
<path d="M101.136 61.2688L97.8674 59.7848V62.621L101.158 62.9398L101.136 61.2688Z" fill="#333333"/>
<path d="M63.7202 82.738C64.9597 83.1447 69.4571 81.6936 74.3384 81.8475C79.2197 82.0014 79.7792 82.4741 83.3442 82.8039C83.3442 82.8039 81.4465 87.3 73.1976 86.9043C66.0567 86.5745 63.7202 82.738 63.7202 82.738Z" stroke="#333333" stroke-width="1.5" stroke-miterlimit="10" stroke-linecap="round" stroke-linejoin="round"/>
<path d="M78.1228 30.5986C78.1228 30.5986 63.8628 31.7418 57.2812 37.4472C50.6997 43.1525 47.3212 58.9823 42.9774 61.3567L43.8439 70.0082C43.8439 70.0082 41.4856 64.028 37.8657 65.0174C37.8657 65.0174 34.2459 43.1635 43.0212 30.5986C51.4237 18.5723 63.6215 12.5702 78.1228 18.0337C78.1228 18.0337 84.7702 14.6039 95.6736 22.6067C106.577 30.6096 108.837 45.45 108.837 53.4528C108.837 61.4557 103.89 66.4465 103.89 66.4465H101.696C101.696 66.4465 101.783 51.4301 96.7705 43.1745C91.7576 34.9188 78.1228 30.5986 78.1228 30.5986Z" fill="#333333"/>
<path d="M43.6685 68.2932C43.6685 68.2932 40.268 61.1588 36.1545 66.4354C32.0411 71.712 41.0249 83.8592 43.6685 82.3532C46.312 80.8581 46.0817 79.9237 46.0817 79.9237" stroke="#333333" stroke-width="1.5" stroke-miterlimit="10" stroke-linecap="round" stroke-linejoin="round"/>
<path d="M41.2661 64.4897C41.2661 64.4897 41.2332 79.9128 38.831 85.5302C36.4287 91.1475 45.2041 96.8529 45.2041 96.8529C45.2041 96.8529 39.5111 91.8731 40.1692 88.0805C40.8164 84.288 43.8439 65.578 43.4271 64.083C43.0212 62.588 41.2661 64.4897 41.2661 64.4897Z" fill="#333333"/>
<path d="M101.696 66.4355C101.696 66.4355 104.449 62.577 105.546 67.15C106.643 71.7231 100.061 80.6383 99.5128 80.1766C98.9643 79.7149 98.4049 80.1986 98.4049 80.1986" stroke="#333333" stroke-width="1.5" stroke-miterlimit="10" stroke-linecap="round" stroke-linejoin="round"/>
<path d="M89.2566 95.5117C89.2566 95.5117 89.092 100.272 90.3535 104.768C91.615 109.253 101.696 112.111 101.696 112.111C101.696 112.111 94.5657 125.116 79.6914 129.612L79.2197 139.165" stroke="#333333" stroke-width="1.5" stroke-miterlimit="10" stroke-linecap="round" stroke-linejoin="round"/>
<path d="M49.8551 88.795C49.8551 88.795 52.3012 99.3592 49.8551 104.383C47.4089 109.407 36.4397 113.98 36.4397 113.98C36.4397 113.98 44.0743 125.896 59.3325 129.854L60.8243 139.165" stroke="#333333" stroke-width="1.5" stroke-miterlimit="10" stroke-linecap="round" stroke-linejoin="round"/>
<path d="M103.155 64.4897C103.155 64.4897 104.175 77.0985 104.855 81.8365C105.535 86.5744 98.4049 95.6546 98.4049 95.6546C98.4049 95.6546 103.209 87.9156 103.275 84.3868C103.352 80.8581 99.6773 64.1159 103.155 64.4897Z" fill="#333333"/>
<path d="M48.2207 85.7061C48.2207 85.7061 44.1182 92.2798 44.1182 97.9961C44.1182 103.712 39.7305 112.441 39.7305 112.441C39.7305 112.441 49.0872 107.593 50.4474 102.789C51.8076 97.9961 49.6137 88.85 49.6137 88.85L48.2207 85.7061Z" fill="#333333"/>
<path d="M46.0817 108.527C46.0817 108.527 51.9063 119.806 69.9507 119.806C87.9951 119.806 93.6443 108.527 93.6443 108.527" stroke="#333333" stroke-width="1.5" stroke-miterlimit="10" stroke-linecap="round" stroke-linejoin="round"/>
<path d="M101.696 112.111C101.696 112.111 121.484 116.486 125.027 119.806C128.57 123.126 132.289 132.371 133.177 139.175" stroke="#333333" stroke-width="1.5" stroke-miterlimit="10" stroke-linecap="round" stroke-linejoin="round"/>
<path d="M36.4397 113.991C36.4397 113.991 19.1412 116.387 15.5981 119.707C12.0551 123.027 7.71126 132.382 6.82275 139.176" stroke="#333333" stroke-width="1.5" stroke-miterlimit="10" stroke-linecap="round" stroke-linejoin="round"/>
<path d="M31.9094 114.716C31.9094 114.716 37.6573 133.404 60.0894 134.548" stroke="#333333" stroke-width="1.5" stroke-miterlimit="10" stroke-linecap="round" stroke-linejoin="round"/>
<path d="M79.4939 133.635C79.4939 133.635 93.0628 133.042 106.434 113.232" stroke="#333333" stroke-width="1.5" stroke-miterlimit="10" stroke-linecap="round" stroke-linejoin="round"/>
<path d="M114.969 115.563C114.969 115.563 116.899 131.228 116.153 139.165" stroke="#333333" stroke-width="1.5" stroke-miterlimit="10"/>
<path d="M24.4174 116.266C24.4174 116.266 22.6404 126.655 23.507 139.165" stroke="#333333" stroke-width="1.5" stroke-miterlimit="10"/>
<path d="M46.5863 88.795C46.5863 88.795 42.5496 99.1284 41.1346 104.845C39.7305 110.561 35.1015 113.98 35.1015 113.98L33.489 114.442C33.489 114.442 37.1198 111.122 38.4252 107.989C39.7305 104.845 43.5697 91.0266 46.5863 88.795Z" fill="#333333"/>
</svg>
