<svg width="140" height="140" viewBox="0 0 140 140" fill="none" xmlns="http://www.w3.org/2000/svg">
<g clip-path="url(#clip0_1_2615)">
<path d="M44.1261 65.3065C43.7426 69.3856 43.803 73.4943 44.3062 77.5604C45.3654 86.4569 47.9919 92.0596 53.5628 97.3551C62.4805 105.828 63.9845 107.247 69.7778 107.247C74.4061 107.247 79.0449 106.188 87.1471 98.446C94.6986 91.2864 94.0949 88.5539 96.3826 78.9901C97.6747 73.6205 97.4417 72.3707 97.4417 63.9084" stroke="#333333" stroke-width="1.5" stroke-linecap="round" stroke-linejoin="round"/>
<path d="M97.4099 69.3523C97.4099 69.3523 98.469 65.8254 101.509 68.4732C104.548 71.121 100.45 79.7527 99.4646 82.3899C98.4796 85.0271 96.2872 83.7985 96.2872 83.7985" stroke="#333333" stroke-width="1.5" stroke-linecap="round" stroke-linejoin="round"/>
<path d="M43.6708 68.1872C43.6708 68.1872 42.6117 64.671 39.572 67.3082C36.5324 69.9453 40.6311 78.5877 41.6161 81.2355C42.6011 83.8832 44.7934 82.6335 44.7934 82.6335" stroke="#333333" stroke-width="1.5" stroke-linecap="round" stroke-linejoin="round"/>
<path d="M76.7256 69.5959C76.7256 69.5959 77.4246 68.272 80.0723 68.1132C81.8411 68.0178 84.5206 68.791 88.1216 69.9031" stroke="#333333" stroke-width="1.5" stroke-linecap="round" stroke-linejoin="round"/>
<path d="M78.7909 68.685C78.7909 68.685 78.2719 70.9621 79.7546 70.8774L82.7625 70.6973C83.4827 70.6973 84.15 69.0451 83.1544 68.2614C81.6876 68.0257 80.1849 68.1716 78.7909 68.685Z" fill="#333333"/>
<path d="M65.1919 74.2772C67.3737 71.0045 66.5582 69.543 66.537 68.8122C66.537 66.8846 63.4444 65.476 54.5373 65.5395C45.6302 65.6031 45.895 68.8122 45.895 68.8122C46.2233 70.0831 45.5137 72.0954 47.706 74.2772" stroke="#333333" stroke-width="1.5" stroke-linecap="round" stroke-linejoin="round"/>
<path d="M73.9189 74.2772C73.2464 72.5387 72.9819 70.669 73.1458 68.8122C73.1458 66.8846 76.2489 65.476 85.156 65.5395C94.0631 65.6031 93.7984 68.8122 93.7984 68.8122C93.4701 70.0831 93.5866 73.1863 92.4957 74.2772" stroke="#333333" stroke-width="1.5" stroke-linecap="round" stroke-linejoin="round"/>
<path d="M66.5264 68.8121C66.5264 68.8121 70.4663 67.5729 73.1458 68.8121" stroke="#333333" stroke-width="1.5" stroke-linecap="round" stroke-linejoin="round"/>
<path d="M45.5031 67.7212L43.3213 66.2067V67.7212L45.5031 69.903V67.7212Z" fill="#333333"/>
<path d="M93.7983 67.1811L97.4734 66.2067L97.8018 67.287L93.7983 69.5429V67.1811Z" fill="#333333"/>
<path d="M73.3575 60.7629C77.2484 59.8168 81.2135 59.2073 85.2089 58.9412C86.2142 58.8709 87.2132 59.1482 88.0384 59.7266C88.8636 60.3051 89.4651 61.1495 89.7419 62.1185C88.4205 62.6679 86.9998 62.9383 85.569 62.9129C83.0271 62.9129 76.9055 63.2412 74.5648 63.4848C73.9929 63.506 72.8385 60.9217 73.3575 60.7629Z" fill="#333333"/>
<path d="M86.1941 58.7824C86.1941 58.7824 88.8207 58.9412 90.6212 62.3516C90.6106 62.3516 90.0704 58.4435 86.1941 58.7824Z" fill="#333333"/>
<path d="M87.4331 58.5176C88.6679 58.753 89.7705 59.4403 90.5257 60.4452C90.2863 59.8339 89.8561 59.3161 89.2989 58.9688C88.7417 58.6215 88.0874 58.4633 87.4331 58.5176Z" fill="#333333"/>
<path d="M72.8491 63.6013C72.8491 63.6013 71.4723 62.4681 71.5359 61.4831C71.5464 61.4407 70.8051 62.9023 72.8491 63.6013Z" fill="#333333"/>
<path d="M73.4106 63.506C73.4106 63.506 72.2244 62.0338 72.4256 61.0806C72.4256 61.0806 71.5465 62.235 73.4106 63.506Z" fill="#333333"/>
<path d="M74.2049 63.3047C74.2049 63.3047 72.8069 61.9808 72.9975 60.8476C72.9975 60.8476 72.0232 62.4045 74.2049 63.3047Z" fill="#333333"/>
<path d="M62.1523 69.5959C62.1523 69.5959 61.4533 68.272 58.795 68.1132C57.0263 68.0178 54.5585 68.791 50.9681 69.9031" stroke="#333333" stroke-width="1.5" stroke-linecap="round" stroke-linejoin="round"/>
<path d="M60.0869 68.6851C60.0869 68.6851 60.6059 70.9622 59.1126 70.8774L56.1047 70.6974C55.3845 70.6974 54.7278 69.0452 55.7128 68.2614C57.1831 68.0258 58.6892 68.1717 60.0869 68.6851Z" fill="#333333"/>
<path d="M65.5096 60.7629C61.6221 59.8176 57.6606 59.2082 53.6688 58.9412C52.6621 58.8704 51.6616 59.1473 50.8346 59.7256C50.0076 60.304 49.4042 61.1487 49.1252 62.1186C50.4501 62.6687 51.8744 62.9392 53.3087 62.9129C55.84 62.9129 61.9616 63.2412 64.3022 63.4848C64.8741 63.506 66.0286 60.9218 65.5096 60.7629Z" fill="#333333"/>
<path d="M52.6732 58.7824C52.6732 58.7824 50.0466 58.9412 48.2461 62.3516C48.2461 62.3516 48.7968 58.4435 52.6732 58.7824Z" fill="#333333"/>
<path d="M51.4235 58.5176C50.1887 58.753 49.0861 59.4403 48.3309 60.4452C48.5703 59.8339 49.0006 59.3161 49.5577 58.9688C50.1149 58.6215 50.7692 58.4633 51.4235 58.5176Z" fill="#333333"/>
<path d="M66.0286 63.6013C66.0286 63.6013 67.3949 62.4681 67.3313 61.4831C67.3101 61.4407 68.0621 62.9023 66.0286 63.6013Z" fill="#333333"/>
<path d="M65.4673 63.506C65.4673 63.506 66.6535 62.0338 66.4416 61.0806C66.4416 61.0806 67.3631 62.235 65.4673 63.506Z" fill="#333333"/>
<path d="M64.6624 63.3047C64.6624 63.3047 66.0604 61.9808 65.8698 60.8476C65.8698 60.8476 66.8441 62.4045 64.6624 63.3047Z" fill="#333333"/>
<path d="M40.8323 47.9265C40.8323 47.9265 25.7824 53.1161 26.9368 54.2811C30.4107 57.7444 41.9868 50.5107 58.2017 50.5107C67.2999 50.2211 76.361 51.7962 84.8277 55.139C96.4037 59.7673 94.2537 56.0393 97.071 53.8469C97.071 53.8469 97.5688 50.5107 85.9927 48.1913C74.4167 45.8718 46.6256 46.7721 40.8323 47.9265Z" stroke="#333333" stroke-width="1.5" stroke-linecap="round" stroke-linejoin="round"/>
<path d="M40.8324 47.9265C40.8324 47.9265 42.9506 26.7444 63.0737 22.5079C91.5319 16.5134 102.197 35.4502 103.32 52.8196C103.32 52.8196 102.165 55.1391 97.537 53.9846" stroke="#333333" stroke-width="1.5" stroke-linecap="round" stroke-linejoin="round"/>
<path d="M94.0737 57.1196C94.0737 57.1196 96.266 62.8388 96.3402 66.5139C96.3214 68.4942 96.6513 70.4624 97.3146 72.3284C97.3146 72.3284 96.7745 66.9482 99.4328 67.9861C102.091 69.024 100.99 69.0452 100.99 69.0452L102.144 64.4063L103.299 66.7257C103.198 64.7487 102.809 62.797 102.144 60.9324L104.464 63.2519C103.768 61.8033 103.371 60.229 103.299 58.6236V57.4585L104.464 59.7674C104.464 59.7674 104.464 53.9847 103.299 52.8196C102.527 53.5129 101.583 53.9867 100.566 54.1916C99.5492 54.3965 98.4959 54.325 97.5158 53.9847L94.0737 57.1196Z" fill="#333333"/>
<path d="M46.6152 51.6652C45.7772 55.4651 45.3897 59.3506 45.4607 63.2412C45.4186 65.9049 45.1171 68.5581 44.5605 71.1634C44.5605 71.1634 45.1006 65.7937 42.4423 66.8316C39.7839 67.8695 40.1016 66.6304 40.1016 66.6304L39.7203 63.2412L38.5659 65.5607C38.6667 63.5837 39.0556 61.632 39.7203 59.7673L37.4115 62.0868C37.4115 62.0868 39.7733 56.6006 39.7733 54.2812C40.9277 51.9617 46.6152 51.6652 46.6152 51.6652Z" fill="#333333"/>
<path d="M64.1328 79.6998C64.1328 79.6998 63.0737 84.074 68.5069 84.074" stroke="#333333" stroke-width="1.5" stroke-linecap="round" stroke-linejoin="round"/>
<path d="M59.1444 90.5132C59.1444 90.5132 60.3942 91.763 69.153 91.763C77.9118 91.763 76.9798 92.2714 80.729 91.0216C80.729 91.0216 78.9709 97.2915 69.153 96.7726C64.673 96.5396 60.3942 94.2731 59.1444 90.5132Z" stroke="#333333" stroke-width="1.5" stroke-linecap="round" stroke-linejoin="round"/>
<path d="M59.388 87.3995C59.388 87.3995 58.1383 88.4586 58.922 89.1258C58.922 89.1258 58.5831 88.967 59.388 87.3995Z" fill="#333333"/>
<path d="M59.8963 87.3677C59.8963 87.3677 58.6466 88.4798 59.4303 89.1047C59.4197 89.1047 59.0808 88.9352 59.8963 87.3677Z" fill="#333333"/>
<path d="M60.3941 87.3466C60.3941 87.3466 59.1444 88.4057 59.9176 89.0729C59.8964 89.0729 59.5892 88.914 60.3941 87.3466Z" fill="#333333"/>
<path d="M61.1461 87.3147C61.1461 87.3147 59.8964 88.3738 60.6695 89.041C60.6695 89.041 60.3412 88.8716 61.1461 87.3147Z" fill="#333333"/>
<path d="M62.8406 86.4675C62.8406 86.4675 61.6438 88.3315 62.4275 88.9564C62.3228 88.5353 62.3053 88.0973 62.3764 87.6692C62.4474 87.2412 62.6054 86.8322 62.8406 86.4675Z" fill="#333333"/>
<path d="M63.815 85.7685C63.815 85.7685 62.5017 88.0456 63.4443 88.9458C63.2929 88.418 63.2478 87.8654 63.3114 87.32C63.375 86.7746 63.5462 86.2473 63.815 85.7685Z" fill="#333333"/>
<path d="M67.8184 85.5673C67.8184 85.5673 66.5157 87.8443 67.4583 88.7446C67.3059 88.2174 67.2593 87.6652 67.3211 87.1199C67.3829 86.5747 67.5519 86.047 67.8184 85.5673Z" fill="#333333"/>
<path d="M64.7999 85.3872C64.7999 85.3872 63.4867 87.6643 64.4293 88.5645C64.2773 88.0368 64.2318 87.4841 64.2954 86.9386C64.359 86.3932 64.5306 85.8658 64.7999 85.3872Z" fill="#333333"/>
<path d="M65.552 85.3554C65.552 85.3554 64.2386 87.6325 65.1812 88.5327C65.0298 88.0049 64.9846 87.4523 65.0483 86.9069C65.1119 86.3615 65.2831 85.8342 65.552 85.3554Z" fill="#333333"/>
<path d="M66.3039 85.313C66.3039 85.313 64.9906 87.5901 65.9332 88.4903C65.6368 87.4235 65.7698 86.283 66.3039 85.313Z" fill="#333333"/>
<path d="M67.0559 85.2812C67.0559 85.2812 65.7425 87.5583 66.6851 88.4586C66.3887 87.3917 66.5218 86.2512 67.0559 85.2812Z" fill="#333333"/>
<path d="M61.898 87.2724C61.898 87.2724 60.6482 88.3315 61.4213 89.0094C61.4213 89.0094 61.093 88.8399 61.898 87.2724Z" fill="#333333"/>
<path d="M68.3691 86.5204C68.1001 86.7989 67.9353 87.1617 67.9025 87.5475C67.8697 87.9333 67.9709 88.3187 68.189 88.6386C68.189 88.6386 67.8289 88.3738 68.3691 86.5204Z" fill="#333333"/>
<path d="M69.1212 86.4886C69.1212 86.4886 68.062 87.6219 68.9411 88.6069C68.9411 88.6386 68.581 88.3421 69.1212 86.4886Z" fill="#333333"/>
<path d="M80.2842 87.9714C80.2842 87.9714 81.4916 89.2317 80.6972 89.7613C80.6972 89.7613 81.0785 89.6342 80.2842 87.9714Z" fill="#333333"/>
<path d="M79.7864 87.8867C79.7864 87.8867 80.9937 89.147 80.1994 89.6766C80.1994 89.6766 80.5383 89.5495 79.7864 87.8867Z" fill="#333333"/>
<path d="M79.2781 87.8019C79.2781 87.8019 80.4961 89.0517 79.7017 89.5918C79.7017 89.5918 80.0195 89.4647 79.2781 87.8019Z" fill="#333333"/>
<path d="M78.5366 87.6749C78.5366 87.6749 79.744 88.9246 78.9497 89.4542C78.9603 89.4542 79.2886 89.3377 78.5366 87.6749Z" fill="#333333"/>
<path d="M76.842 86.6263C76.842 86.6263 77.9753 88.628 77.181 89.1576C77.3026 88.7352 77.3354 88.2921 77.277 87.8564C77.2187 87.4207 77.0706 87.0019 76.842 86.6263Z" fill="#333333"/>
<path d="M75.9207 85.8108C75.9207 85.8108 77.1598 88.2361 76.1854 88.9881C76.5143 87.9349 76.4193 86.795 75.9207 85.8108Z" fill="#333333"/>
<path d="M71.9171 85.1224C71.9171 85.1224 73.1563 87.5584 72.1925 88.2998C72.5181 87.2452 72.4193 86.1052 71.9171 85.1224Z" fill="#333333"/>
<path d="M74.9462 85.313C74.9462 85.313 76.1853 87.7489 75.2109 88.4903C75.5398 87.4371 75.4448 86.2972 74.9462 85.313Z" fill="#333333"/>
<path d="M74.1942 85.1859C74.1942 85.1859 75.4334 87.6219 74.459 88.3632C74.6264 87.8423 74.6892 87.2934 74.6437 86.7482C74.5983 86.2029 74.4455 85.6719 74.1942 85.1859Z" fill="#333333"/>
<path d="M73.4424 85.0588C73.4424 85.0588 74.6815 87.4948 73.7178 88.2362C74.0433 87.1816 73.9445 86.0416 73.4424 85.0588Z" fill="#333333"/>
<path d="M72.701 84.9318C72.701 84.9318 73.9296 87.3571 72.9658 88.1091C73.2947 87.0559 73.1997 85.916 72.701 84.9318Z" fill="#333333"/>
<path d="M77.7847 87.5477C77.7847 87.5477 78.9921 88.7975 78.1977 89.327C78.1977 89.327 78.5366 89.2317 77.7847 87.5477Z" fill="#333333"/>
<path d="M71.3453 86.0544C71.3453 86.0544 72.4044 87.3148 71.4618 88.2256C71.4618 88.1726 71.8219 87.9291 71.3453 86.0544Z" fill="#333333"/>
<path d="M70.858 86.3616C70.858 86.3616 71.8642 87.6219 70.9746 88.4798C70.9746 88.5327 71.3346 88.2786 70.858 86.3616Z" fill="#333333"/>
<path d="M70.1061 86.4039C70.1061 86.4039 71.1652 87.6537 70.2226 88.5751C70.2226 88.5751 70.5827 88.3209 70.1061 86.4039Z" fill="#333333"/>
<path d="M58.6147 86.298C58.6147 86.298 56.433 88.4798 56.433 90.6721" stroke="#333333" stroke-width="1.5" stroke-linecap="round" stroke-linejoin="round"/>
<path d="M80.4747 86.298C80.4747 86.298 82.6565 88.4798 82.6565 90.6721" stroke="#333333" stroke-width="1.5" stroke-linecap="round" stroke-linejoin="round"/>
<path d="M53.1604 97.2281V102.693C53.1604 102.693 56.433 114.703 69.5448 114.703C82.6565 114.703 90.6105 103.784 90.6105 103.784V94.7921" stroke="#333333" stroke-width="1.5" stroke-linecap="round" stroke-linejoin="round"/>
<path d="M93.7877 111.473C93.7877 111.473 96.8697 112.225 97.9606 118.781C97.9606 118.781 100.142 117.722 101.233 120.963C101.233 120.963 102.292 110.372 93.8195 107.194" stroke="#333333" stroke-width="1.5" stroke-linecap="round" stroke-linejoin="round"/>
<path d="M97.9607 118.781C97.9607 118.781 96.9015 117.722 95.7683 122.053C94.6351 126.385 82.6565 132.983 80.4748 135.165C78.293 137.347 76.842 137.887 76.842 140.069H86.374C90.7481 136.786 101.202 132.984 101.202 121.005" stroke="#333333" stroke-width="1.5" stroke-linecap="round" stroke-linejoin="round"/>
<path d="M50.3644 111.473C50.3644 111.473 46.6257 112.225 45.5348 118.781C45.5348 118.781 43.353 117.722 42.2622 120.963C42.2622 120.963 39.4344 111.611 50.3644 107.194" stroke="#333333" stroke-width="1.5" stroke-linecap="round" stroke-linejoin="round"/>
<path d="M45.5348 118.781C45.5348 118.781 46.594 117.722 47.7272 122.053C48.8605 126.385 60.839 132.983 63.0207 135.165C65.2025 137.347 66.1981 137.887 66.1981 140.069H57.7252C53.3511 136.786 42.2092 132.984 42.2092 121.005" stroke="#333333" stroke-width="1.5" stroke-linecap="round" stroke-linejoin="round"/>
<path d="M53.1604 101.708C53.1604 101.708 50.3644 100.882 50.3644 105.118V111.473" stroke="#333333" stroke-width="1.5" stroke-linecap="round" stroke-linejoin="round"/>
<path d="M44.0097 111.473C44.0097 111.473 29.4682 118.686 23.2512 120.719C17.0343 122.753 17.0343 125.813 23.2512 140.069" stroke="#333333" stroke-width="1.5" stroke-linecap="round" stroke-linejoin="round"/>
<path d="M90.6105 101.708C90.6105 101.708 93.4065 100.882 93.4065 105.118C93.4065 109.355 92.3474 108.656 93.4065 111.473" stroke="#333333" stroke-width="1.5" stroke-linecap="round" stroke-linejoin="round"/>
<path d="M99.0833 111.473C99.0833 111.473 113.222 119.109 119.418 121.312C125.614 123.515 123.136 125.729 121.896 140.069" stroke="#333333" stroke-width="1.5" stroke-linecap="round" stroke-linejoin="round"/>
<path d="M17.7968 125.241C17.7968 125.241 11.1773 125.241 8 140.069" stroke="#333333" stroke-width="1.5" stroke-linecap="round" stroke-linejoin="round"/>
<path d="M123.708 125.644C123.708 125.644 132.975 128.419 131.916 140.069" stroke="#333333" stroke-width="1.5" stroke-linecap="round" stroke-linejoin="round"/>
<path d="M69.4282 114.65V133.714H71.5464L71.8324 114.703" stroke="#333333" stroke-width="1.5" stroke-linecap="round" stroke-linejoin="round"/>
</g>
<defs>
<clipPath id="clip0_1_2615">
<rect width="140" height="140" fill="white"/>
</clipPath>
</defs>
</svg>
