<svg xmlns="http://www.w3.org/2000/svg" width="140" height="140" viewBox="0 0 140 140">
  <g fill="none" fill-rule="evenodd" transform="translate(0 3.387)">
    <path stroke="#333" stroke-linecap="round" stroke-linejoin="round" stroke-width="1.5" d="M99.0872197,43.9934623 C99.0872197,53.5826719 99.0508648,54.9282526 97.9116713,61.0623977 C95.5605745,73.7430106 90.8582681,81.0166881 87.3437035,84.6536397 C78.5086874,93.7700106 76.7756229,94.3519139 68.5466713,94.3519139 C60.3177197,94.3519139 57.9787035,94.3519139 47.3985423,83.4412848 C41.3267197,77.173801 39.1694777,68.8938171 37.9697681,58.8318816 C37.1698487,52.1399945 37.7758003,48.745559 38.0061229,45.581559 C39.1816713,28.9852365 32.1282681,7.97628323 68.5466713,9.07947194 C97.9116713,9.9765671 99.0872197,23.4572687 99.0872197,43.9934623 Z"/>
    <path stroke="#333" stroke-linecap="round" stroke-linejoin="round" stroke-width="1.5" d="M99.0871068 47.787801C99.0871068 47.787801 100.262655 43.3628977 103.789413 46.6846235 107.316058 50.0062365 102.613865 60.8562365 101.438204 64.1657687 100.262655 67.4874945 97.8509294 65.9236719 97.8509294 65.9236719M37.9937035 45.581559C37.9937035 45.581559 36.69701 43.3752042 33.1702519 46.6847365 29.6434939 50.0064623 34.3458003 60.8564623 35.5213487 64.1659945 36.69701 67.4876074 39.1087358 65.9237848 39.1087358 65.9237848M74.8849455 51.8733171C74.8849455 51.8733171 78.5207681 50.2366719 81.9383487 50.2366719 84.2167358 50.2366719 85.1257197 50.4306397 89.6826068 51.8733171"/>
    <path fill="#333" fill-rule="nonzero" d="M78.460139 50.6973171C78.460139 50.6973171 77.5148003 53.1341074 79.7325584 53.1341074 81.9504294 53.1341074 83.1259777 53.1341074 84.1924616 53.1341074 85.2590584 53.1341074 86.3618971 51.4368332 84.9681068 50.5155429 84.9560261 50.5155429 82.7260745 49.957801 78.460139 50.6973171zM73.7940745 44.7691074C73.6365745 44.2236719 73.84251 43.6417687 74.2909616 43.3871719 76.6785261 42.0293977 85.2710261 40.1746235 86.8950261 39.9321074 90.3490745 39.4108332 92.0335906 43.5932203 92.0335906 43.5932203 92.0335906 43.5932203 89.803639 42.5143171 87.5009777 42.8658977 85.1983165 43.2173655 77.0541552 44.9146397 74.9696229 45.5208171 74.4727358 45.6541558 73.9516874 45.33893 73.7940745 44.7691074z"/>
    <path stroke="#333" stroke-linecap="round" stroke-linejoin="round" stroke-width="1.5" d="M62.6081874,51.8733171 C62.6081874,51.8733171 58.9723648,50.2366719 55.5546713,50.2366719 C53.2762842,50.2366719 52.3673003,50.4306397 47.8105261,51.8733171"/>
    <path fill="#333" fill-rule="nonzero" d="M59.0209132 50.6973171C59.0209132 50.6973171 59.9662519 53.1341074 57.748381 53.1341074 55.5306229 53.1341074 54.3549616 53.1341074 53.2884777 53.1341074 52.2219939 53.1341074 51.1191552 51.4368332 52.5128326 50.5155429 52.5250261 50.5155429 54.7549777 49.957801 59.0209132 50.6973171zM63.6380906 44.7814139C63.7957035 44.2358655 63.5775745 43.6539623 63.1412035 43.3993655 60.7537519 42.0415913 52.1490584 40.1746235 50.5250584 39.9322203 47.0711229 39.3988655 45.3985745 43.5812526 45.3985745 43.5812526 45.3985745 43.5812526 47.6285261 42.5022365 49.9311874 42.8538171 52.2338487 43.2053977 60.3902035 44.9147526 62.4747358 45.5208171 62.9594294 45.6663494 63.46851 45.3511235 63.6380906 44.7814139z"/>
    <path stroke="#333" stroke-linecap="round" stroke-linejoin="round" stroke-width="1.5" d="M63.7837358 65.1720752C63.7837358 65.1720752 64.838139 69.3423816 70.994639 66.7966397M56.221139 73.2095429C56.221139 73.2095429 62.3534777 74.8461881 68.5222842 74.8461881 74.6909777 74.8461881 80.3507035 73.2095429 80.3507035 73.2095429 80.3507035 73.2095429 77.151139 79.8044461 68.6191552 79.8044461 59.8933165 79.8044461 56.221139 73.2095429 56.221139 73.2095429z"/>
    <path fill="#333" fill-rule="nonzero" d="M77.9390906,30.1006074 C77.9390906,30.1006074 73.2367842,36.1620429 69.7100261,38.5866397 C69.7100261,38.5866397 73.2367842,30.1006074 73.2367842,28.8883655 C73.2367842,28.8883655 66.0743165,35.4104461 63.7837358,36.9985429 L65.1532519,31.7736074 C65.1532519,31.7736074 60.341881,35.01043 56.2213648,36.8045752 L55.6274939,30.1126881 C55.6274939,30.1126881 53.2762842,34.9618816 52.1007358,36.1742365 L45.3988003,36.8045752 C45.3988003,36.8045752 48.5740906,30.1126881 48.5740906,26.4758494 C48.5740906,26.4758494 42.3084132,37.3864784 41.3267197,38.5987203 C40.3450261,39.8110752 37.3394294,50.6853494 37.3394294,50.6853494 L36.1760745,44.9026719 L33.9945584,45.460301 C33.9945584,45.460301 32.00701,32.2221719 32.067639,28.7428332 C32.1281552,25.2636074 32.6372358,21.1782042 32.6372358,21.1782042 L29.7770584,26.4637687 C29.7770584,26.4637687 28.4438971,19.9537687 32.6372358,15.3348977 C36.8304616,10.7161058 52.0886552,-7.48034903 79.114639,3.43025742 C79.114639,3.43025742 87.9738165,2.21795903 92.9426874,5.24868807 C97.9116713,8.27940581 103.789526,17.9777365 106.128542,26.4637687 L102.601784,24.0391719 C102.601784,24.0391719 102.795752,28.5488655 102.116978,34.17393 C101.426236,39.7988816 101.280816,45.460301 101.280816,45.460301 C101.280816,45.460301 98.9659616,47.4726881 99.0265906,50.3094945 L96.6875745,34.2829945 L95.6938003,39.6291881 L93.8637519,27.9426881 C93.8637519,27.9426881 93.3427035,32.00393 91.5126552,34.6952042 L90.797639,27.1304623 L87.0527519,31.7736074 L84.9804132,27.5305913 L82.6292035,30.8522042 L77.9390906,30.1006074 Z"/>
    <path stroke="#333" stroke-linecap="round" stroke-linejoin="round" stroke-width="1.5" d="M46.7439294,83.4412848 C46.7439294,83.4412848 46.7439294,90.7150752 46.7439294,94.3519139 C46.7439294,97.9887526 40.5509616,98.0736558 38.1998648,101.661946 C35.8365745,105.262543 61.5052358,125.58072 71.0916229,125.120075 C71.0916229,125.120075 99.8385906,105.274624 101.171639,102.231769 C102.492607,99.2009945 98.8568971,97.9887526 96.4329777,97.9887526 C94.0091713,97.9887526 90.3733487,98.5100268 90.3733487,95.2125752 C90.3733487,91.9152365 90.3733487,81.8531881 90.3733487,81.8531881"/>
    <path stroke="#333" stroke-linecap="round" stroke-linejoin="round" stroke-width="1.5" d="M43.9685423,97.7097687 C43.9685423,97.7097687 44.3685584,118.597656 67.3708971,118.597656 C90.3733487,118.597656 92.83351,97.9037365 92.83351,97.9037365"/>
    <path stroke="#333" stroke-linecap="round" stroke-linejoin="round" stroke-width="1.5" d="M46.7438165,85.6234784 C46.7438165,85.6234784 39.7873971,83.4534784 36.6000261,88.8966558 C33.4126552,94.3520268 32.2007519,90.7150752 29.7768326,96.7765106 C27.3530261,102.838059 29.3284939,110.402688 35.6062519,116.31814 C41.88401,122.234269 61.1294939,135.569269 61.1294939,135.569269"/>
    <path stroke="#333" stroke-linecap="round" stroke-linejoin="round" stroke-width="1.5" d="M31.885639 93.2850913C31.885639 93.2850913 27.3530261 90.7150752 23.7173165 95.5642687 20.0814939 100.413349 18.8937519 104.098736 19.4876229 108.317478 20.0814939 112.535882 47.7134294 130.85443 52.6823003 129.580882M117.666123 105.141172C117.666123 105.141172 120.8658 110.475172 125.616768 110.293398 130.366607 110.111511 138.571284 128.296043 139.32322 135.569269"/>
    <path stroke="#333" stroke-linecap="round" stroke-linejoin="round" stroke-width="1.5" d="M20.4209939 101.104317C20.4209939 101.104317 15.9610906 106.220188 13.1736229 107.553688 10.3862229 108.887188 6.71407935 111.057188 4.30234226 118.46443 1.89060516 125.870882 1.40389492e-14 135.569269 1.40389492e-14 135.569269M88.2767358 121.022817C90.7006552 121.907978 75.1030745 130.85443 75.1030745 130.85443L72.6913487 129.641849C72.6913487 129.641849 84.956139 119.810236 88.2767358 121.022817zM67.8557035 129.01072L66.1469132 130.720075C66.1469132 130.720075 54.3791229 124.501365 54.815381 123.374591 55.2274777 122.234269 61.0810584 123.677172 67.8557035 129.01072z"/>
    <path stroke="#333" stroke-linecap="round" stroke-linejoin="round" stroke-width="1.5" d="M67.8559294 129.011849C67.8559294 129.011849 69.7344132 128.296043 69.7585745 130.720075 69.7828487 133.145236 69.4798165 133.957011 68.4133326 133.544914 67.3468487 133.132817 66.1470261 130.720075 66.1470261 130.720075 66.1470261 130.720075 62.8748648 133.145236 63.2990423 135.569269M69.746381 130.720075C69.746381 130.720075 70.7523487 128.562495 72.6913487 129.641849M75.1029616 130.853301C75.1029616 130.853301 77.8782358 131.932656 76.8481068 135.569269 76.8481068 135.569269 89.1613326 131.932656 95.2209616 127.083462 101.280591 122.234269 120.671607 106.474672 117.956284 102.231656 115.242091 97.9886397 113.39951 97.9886397 109.764139 96.7763977 106.128316 95.5641558 104.916413 93.139559 100.068687 89.0298816 95.2209616 84.9202042 90.3732358 85.671801 90.3732358 85.671801M69.746381 131.932656C69.746381 131.932656 74.775881 130.721204 74.0972197 135.569269"/>
    <line x1="68.401" x2="69.746" y1="133.545" y2="136.2" stroke="#333" stroke-width="1.5"/>
    <line x1="70.061" x2="72.17" y1="131.933" y2="136.2" stroke="#333" stroke-width="1.5"/>
    <path stroke="#333" stroke-linecap="round" stroke-linejoin="round" stroke-width="1.5" d="M65.6741874,135.569269 C65.6741874,135.569269 64.9834455,133.957011 67.3830906,132.938624"/>
  </g>
</svg>
