<svg width="140" height="140" viewBox="0 0 140 140" fill="none" xmlns="http://www.w3.org/2000/svg">
<path d="M74.066 53.1306C74.066 53.1306 79.5965 49.8452 89.1461 53.0649" stroke="#333333" stroke-width="1.5" stroke-linecap="round" stroke-linejoin="round"/>
<path d="M44.0922 54.0944C44.0922 54.0944 49.1517 50.0971 59.0298 52.0793" stroke="#333333" stroke-width="1.5" stroke-linecap="round" stroke-linejoin="round"/>
<path d="M86.4083 61.2673C85.5701 60.8857 84.7611 60.4428 83.9881 59.9422C82.4482 58.8075 80.5227 58.3263 78.63 58.6031C76.7374 58.8799 75.0304 59.8924 73.88 61.4206" stroke="#333333" stroke-width="1.5" stroke-linecap="round" stroke-linejoin="round"/>
<path d="M85.5649 59.9971C85.5649 59.9971 84.0864 59.3072 83.3746 58.902C81.5019 57.8068 75.8292 56.7117 73.9017 61.7384" stroke="#333333" stroke-linecap="round" stroke-linejoin="round"/>
<path d="M77.0448 59.6905C77.0448 59.6905 76.3549 61.377 77.0448 62.1327C79.1365 62.5926 80.155 63.2278 82.2248 62.3188C82.5346 61.9033 82.687 61.3913 82.655 60.874C82.6229 60.3566 82.4084 59.8674 82.0496 59.4934C82.0496 59.4934 80.6697 57.993 77.0448 59.6905Z" fill="#333333"/>
<path d="M47.8267 61.2673C48.6649 60.8857 49.4738 60.4428 50.2469 59.9422C51.7868 58.8075 53.7122 58.3263 55.6049 58.6031C57.4976 58.8799 59.2046 59.8924 60.355 61.4206" stroke="#333333" stroke-width="1.5" stroke-linecap="round" stroke-linejoin="round"/>
<path d="M48.0017 59.9752C48.0017 59.9752 49.5678 59.4167 50.2906 59.0882C52.2618 58.1682 58.2631 57.314 60.3 61.377" stroke="#333333" stroke-linecap="round" stroke-linejoin="round"/>
<path d="M57.1901 59.6905C57.1901 59.6905 57.88 61.377 57.1901 62.1327C55.0984 62.5926 54.0799 63.2278 52.0101 62.3188C51.7002 61.9033 51.5478 61.3913 51.5799 60.874C51.612 60.3566 51.8265 59.8674 52.1853 59.4934C52.1853 59.4934 53.5652 57.993 57.1901 59.6905Z" fill="#333333"/>
<path d="M63.3776 73.9271C64.0311 74.6455 64.8412 75.2039 65.7452 75.559C66.6491 75.9141 67.6226 76.0565 68.5904 75.975" stroke="#333333" stroke-width="1.5" stroke-linecap="round" stroke-linejoin="round"/>
<path d="M56.8834 82.3597C60.2843 82.9701 63.7245 83.3361 67.1777 83.4549C71.5582 83.4549 76.4973 82.9402 76.4973 82.9402C76.4973 82.9402 75.5883 86.9483 67.5829 87.6164C62.2277 88.0106 58.6794 83.7944 56.8834 82.3597Z" stroke="#333333" stroke-width="1.5" stroke-linecap="round" stroke-linejoin="round"/>
<path d="M50.6521 94.0448V102.061C50.6521 102.061 61.5159 122.869 69.6308 122.869C69.6308 122.869 81.2173 111.282 84.6999 103.156V92.7526" stroke="#333333" stroke-width="1.5" stroke-linecap="round" stroke-linejoin="round"/>
<path d="M84.6667 100.867C84.6667 100.867 88.1821 97.3959 92.8145 102.028C97.4469 106.661 90.4929 121.741 87.0213 125.212C83.5497 128.684 82.3779 135.649 82.3779 135.649C82.3779 135.649 76.5847 121.73 69.6306 122.891C69.6306 122.891 63.8373 126.373 60.3548 126.373C56.8723 126.373 54.5615 135.649 54.5615 135.649C54.5615 135.649 52.2398 127.534 47.6074 122.891C42.975 118.247 40.6533 108.982 42.9641 103.178C43.207 102.416 43.5991 101.711 44.1177 101.102C44.6362 100.493 45.2708 99.9938 45.9844 99.633C46.6979 99.2721 47.4762 99.0569 48.2738 99C49.0714 98.9431 49.8724 99.0456 50.63 99.3014" stroke="#333333" stroke-width="1.5" stroke-linecap="round" stroke-linejoin="round"/>
<path d="M42.4057 105.084C42.4057 105.084 25.6392 110.143 19.4079 115.937C13.1766 121.73 9.48595 132.166 7 137.96" stroke="#333333" stroke-width="1.5" stroke-linecap="round" stroke-linejoin="round"/>
<path d="M95.1364 105.511C95.1364 105.511 112.713 110.143 119.229 115.937C125.745 121.73 129.633 132.166 132.24 137.96" stroke="#333333" stroke-width="1.5" stroke-linecap="round" stroke-linejoin="round"/>
<path d="M39.4924 47.5454C39.5697 53.6719 39.9571 59.7906 40.6533 65.878C41.8141 74.4967 44.7162 81.7903 51.079 90.6718C53.4007 93.9572 62.6765 99.2905 66.148 99.2905C69.6196 99.2905 75.4238 98.1954 81.2171 92.8292C89.9782 84.7252 92.9569 79.0524 95.1362 65.878C97.4469 51.8602 96.297 47.5454 96.297 47.5454" stroke="#333333" stroke-width="1.5" stroke-linecap="round" stroke-linejoin="round"/>
<path d="M57.0477 31.3375C57.0477 31.3375 53.5761 52.1998 57.0477 55.6823C57.0477 55.6823 53.5761 58.004 52.4153 54.5215C51.2544 51.0389 50.0936 34.8091 52.4153 31.3375C54.7369 27.8659 57.0477 31.3375 57.0477 31.3375Z" fill="#333333"/>
<path d="M61.5156 32.4764C61.5156 32.4764 58.044 53.2839 61.5156 56.8212C61.5156 56.8212 58.044 59.1429 56.8831 55.6604C55.7223 52.1779 54.5615 35.948 56.8831 32.4764C59.2048 29.0048 61.5156 32.4764 61.5156 32.4764Z" fill="#333333"/>
<path d="M52.2399 32.4764C52.2399 32.4764 48.7683 53.2839 52.2399 56.8212C52.2399 56.8212 48.7684 59.1429 47.6075 55.6604C46.4467 52.1779 45.2858 35.948 47.6075 32.4764C49.9292 29.0048 52.2399 32.4764 52.2399 32.4764Z" fill="#333333"/>
<path d="M47.6077 32.4764C47.6077 32.4764 44.1252 53.2839 47.6077 56.8212C47.6077 56.8212 44.1252 59.1429 42.9643 55.6604C41.8035 52.1779 40.6536 35.948 42.9643 32.4764C45.2751 29.0048 47.6077 32.4764 47.6077 32.4764Z" fill="#333333"/>
<path d="M42.9642 32.4764C42.9642 32.4764 39.4926 53.2839 42.9642 56.8212C42.9642 56.8212 39.4926 59.1429 38.3318 55.6604C37.1709 52.1779 36.0101 35.948 38.3318 32.4764C40.6534 29.0048 42.9642 32.4764 42.9642 32.4764Z" fill="#333333"/>
<path d="M68.2946 32.4764C68.2946 32.4764 71.7661 53.2839 68.2946 56.8212C68.2946 56.8212 71.7661 59.1429 72.927 55.6604C74.0878 52.1779 75.2486 35.948 72.927 32.4764C70.6053 29.0048 68.2946 32.4764 68.2946 32.4764Z" fill="#333333"/>
<path d="M74.088 32.4764C74.088 32.4764 77.5705 53.2839 74.088 56.8212C74.088 56.8212 77.5705 59.1429 78.7204 55.6604C79.8703 52.1779 81.0421 35.948 78.7204 32.4764C76.3987 29.0048 74.088 32.4764 74.088 32.4764Z" fill="#333333"/>
<path d="M71.821 32.4764C71.821 32.4764 75.3036 53.2839 71.821 56.8212C71.821 56.8212 75.3036 59.1429 76.4644 55.6604C77.6252 52.1779 78.7751 35.948 76.4644 32.4764C74.1537 29.0048 71.821 32.4764 71.821 32.4764Z" fill="#333333"/>
<path d="M82.2028 32.4764C82.2028 32.4764 85.6853 53.2839 82.2028 56.8212C82.2028 56.8212 85.6853 59.1429 86.8352 55.6604C87.9851 52.1779 89.1569 35.948 86.8352 32.4764C84.5135 29.0048 82.2028 32.4764 82.2028 32.4764Z" fill="#333333"/>
<path d="M86.8353 32.4764C86.8353 32.4764 90.3179 53.2839 86.8353 56.8212C86.8353 56.8212 90.3178 59.1429 91.4787 55.6604C92.6395 52.1779 93.7894 35.948 91.4787 32.4764C89.168 29.0048 86.8353 32.4764 86.8353 32.4764Z" fill="#333333"/>
<path d="M91.5333 32.4764C91.5333 32.4764 95.0049 53.2839 91.5333 56.8212C91.5333 56.8212 95.0049 59.1429 96.1657 55.6604C97.3266 52.1779 98.4874 35.948 96.1657 32.4764C93.844 29.0048 91.5333 32.4764 91.5333 32.4764Z" fill="#333333"/>
<path d="M66.1482 32.4764C66.1482 32.4764 63.8375 56.8103 66.1482 56.8103C66.1482 56.8103 71.9524 26.6831 66.1482 32.4764Z" fill="#333333"/>
<path d="M68.4698 33.637C68.4698 33.637 66.1482 57.9819 68.4698 57.9819C68.4698 57.9819 74.2631 27.8438 68.4698 33.637Z" fill="#333333"/>
<path d="M78.9064 33.6371C78.9064 33.6371 83.5389 30.1546 83.5389 34.798C83.5389 39.4413 84.6998 49.867 81.2172 53.3386L77.7456 56.8102C77.7456 56.8102 81.2172 51.0169 81.2172 45.2127C81.0892 41.2533 80.3084 37.3422 78.9064 33.6371V33.6371Z" fill="#333333"/>
<path d="M74.6793 34.6228C74.6793 34.6228 78.129 29.9575 79.4541 34.4038C80.7792 38.85 84.9298 48.5091 82.5424 52.8349L80.2097 57.2154C80.2097 57.2154 81.8853 50.6446 80.2097 45.169C78.9697 41.3688 77.1002 37.8038 74.6793 34.6228V34.6228Z" fill="#333333"/>
<path d="M60.0702 34.6228C60.0702 34.6228 56.6205 29.9575 55.2953 34.4038C53.9702 38.85 49.8197 48.5091 52.2071 52.8349L54.5397 57.2154C54.5397 57.2154 52.8641 50.6446 54.5397 45.169C55.7798 41.3688 57.6493 37.8038 60.0702 34.6228V34.6228Z" fill="#333333"/>
<path d="M63.2133 32.6187C63.2133 32.6187 60.6288 28.9938 60.6288 33.8343C60.6288 38.6748 59.9826 49.5604 61.921 53.1853L63.8594 56.8102C62.6902 52.8979 62.053 48.846 61.9648 44.7637C62.0078 40.6857 62.4257 36.6202 63.2133 32.6187V32.6187Z" fill="#333333"/>
<path d="M65.4911 32.6187C65.4911 32.6187 62.9066 28.9938 62.9066 33.8343C62.9066 38.6748 62.2605 49.5604 64.1989 53.1853L66.1263 56.8102C64.9339 52.9008 64.2709 48.8493 64.1551 44.7637C64.2269 40.683 64.6741 36.6175 65.4911 32.6187V32.6187Z" fill="#333333"/>
<path d="M57.1133 129.702C57.1133 129.702 67.3528 140.27 79.8701 131.159" stroke="#333333" stroke-width="1.5" stroke-linecap="round" stroke-linejoin="round"/>
<path d="M85.4664 127.205C85.4664 127.205 93.7347 121.73 99.068 106.65" stroke="#333333" stroke-width="1.5" stroke-linecap="round" stroke-linejoin="round"/>
<path d="M109.296 99.7065C106.975 86.9591 112.166 71.3316 102.09 39.4741C92.5628 9.33602 69.3021 13.388 69.3021 13.388L67.7361 32.52C67.7361 32.52 74.5149 32.52 87.2623 34.8417C100.01 37.1634 95.1363 67.4219 92.3985 76.5773C88.9159 88.1638 83.2869 90.2336 83.2869 90.2336L84.9625 104.35C84.9625 104.35 91.0843 102.16 93.0774 110.143C96.549 124.051 83.8017 129.856 83.8017 129.856C94.2383 140.292 101.192 127.545 101.192 127.545C103.503 133.338 91.9166 137.97 91.9166 137.97C91.9166 137.97 97.7099 141.453 106.986 137.97C116.261 134.488 111.607 112.465 109.296 99.7065ZM95.8044 77.6724C94.6435 78.8332 92.8146 78.8442 95.1363 74.2118C96.5965 70.9223 97.3823 67.3735 97.4471 63.7751C97.4471 63.7751 98.0384 59.3946 100.36 61.7382C102.682 64.0818 98.1042 75.4274 95.8044 77.6724Z" fill="#333333"/>
<path d="M48.8231 34.798C61.5705 32.4764 68.3494 32.4764 68.3494 32.4764L70.2659 13.3444C70.2659 13.3444 45.3406 8.13151 34.9149 38.2696C23.9636 69.8861 29.1107 86.9593 26.8 99.7066C24.4893 112.454 19.8349 134.488 29.1107 137.96C38.3865 141.431 44.1798 137.96 44.1798 137.96C44.1798 137.96 32.5932 133.327 34.9149 127.534C34.9149 127.534 41.869 140.281 52.2947 129.845C52.2947 129.845 39.5474 124.051 43.0189 110.132C45.0121 102.182 51.1338 104.339 51.1338 104.339L52.6123 92.4569C52.6123 92.4569 46.9833 88.0763 43.5118 76.5226C40.7082 67.3783 36.0101 37.0978 48.8231 34.798ZM41.3433 74.2229C43.665 78.8553 41.5624 77.2783 40.0949 76.5445C37.7294 75.3509 34.3564 64.071 36.6781 61.7493C38.9997 59.4276 38.9669 63.7753 38.9669 63.7753C39.0322 67.3748 39.8218 70.9242 41.2886 74.2119L41.3433 74.2229Z" fill="#333333"/>
</svg>
