<svg width="140" height="141" viewBox="0 0 140 141" fill="none" xmlns="http://www.w3.org/2000/svg">
<g clip-path="url(#clip0)">
<path d="M97.1083 55.3604C97.1083 63.4464 97.7162 63.863 96.2659 68.9367C91.7765 84.7348 87.7989 90.1183 84.3119 92.746C80.0464 95.9504 77.6684 97.0079 70.4277 97.0079C60.8517 97.0186 58.719 95.9504 54.4535 92.746C49.7295 89.1997 46.9889 83.72 43.5232 67.0568C42.3609 61.481 43.3526 58.5542 43.5552 55.8731C44.5896 41.8802 38.3833 24.1595 70.4277 25.0888C96.2766 25.8365 97.1083 38.0349 97.1083 55.3604Z" stroke="#333333" stroke-width="1.5" stroke-miterlimit="10" stroke-linecap="round" stroke-linejoin="round"/>
<path d="M76.7407 60.2417C76.7407 60.2417 79.4813 58.4258 82.0939 58.4258C83.8321 58.4258 86.722 59.3551 88.5668 61.203" stroke="#333333" stroke-width="1.5" stroke-miterlimit="10" stroke-linecap="round" stroke-linejoin="round"/>
<path d="M78.9268 56.8771C78.9268 56.8771 81.0062 55.6167 82.3605 55.7662C83.4482 55.8837 84.5039 56.3751 85.5596 56.8664" stroke="#333333" stroke-width="1.5" stroke-miterlimit="10" stroke-linecap="round" stroke-linejoin="round"/>
<path d="M54 56.8771C54 56.8771 56.0794 55.6167 57.4337 55.7662C58.5214 55.8837 59.5771 56.3751 60.6328 56.8664" stroke="#333333" stroke-width="1.5" stroke-miterlimit="10" stroke-linecap="round" stroke-linejoin="round"/>
<path d="M79.4173 59.4726C79.4173 59.4726 78.4575 61.4273 79.3106 62.143C80.4197 63.0723 81.8806 63.0723 83.0109 62.143C83.4268 61.8012 83.7147 60.3698 83.0109 59.3658C83.0109 59.3551 81.5607 58.6608 79.4173 59.4726Z" fill="#333333"/>
<path d="M75.8664 51.1409C75.7811 50.703 75.9943 50.2757 76.3676 50.1368C78.351 49.3784 85.2718 48.9512 86.5727 48.9512C89.3346 48.9512 90.337 52.3693 90.337 52.3693C90.337 52.3693 88.6628 51.2691 86.818 51.2798C84.9838 51.2798 78.4257 51.6322 76.7408 51.8566C76.3249 51.91 75.9517 51.6002 75.8664 51.1409Z" fill="#333333"/>
<path d="M62.9845 60.3167C62.9845 60.3167 60.2439 58.5542 57.6313 58.5542C55.8931 58.5542 53.0033 59.4515 51.1584 61.2566" stroke="#333333" stroke-width="1.5" stroke-miterlimit="10" stroke-linecap="round" stroke-linejoin="round"/>
<path d="M60.2971 59.5688C60.2971 59.5688 61.2569 61.4702 60.4038 62.1538C59.2948 63.051 57.8338 63.051 56.7035 62.1538C56.2876 61.8227 55.9997 60.4341 56.7035 59.4514C56.7035 59.462 58.1644 58.7784 60.2971 59.5688Z" fill="#333333"/>
<path d="M63.8588 51.1409C63.9441 50.703 63.7309 50.2757 63.3576 50.1368C61.3742 49.3784 54.4534 48.9512 53.1525 48.9512C50.3906 48.9512 49.3882 52.3693 49.3882 52.3693C49.3882 52.3693 51.0624 51.2691 52.9072 51.2798C54.7414 51.2798 61.2995 51.6322 62.9844 51.8566C63.3896 51.91 63.7735 51.6002 63.8588 51.1409Z" fill="#333333"/>
<path d="M57.6525 70.3147C62.3641 70.3147 66.1835 66.4888 66.1835 61.7694C66.1835 57.05 62.3641 53.2241 57.6525 53.2241C52.941 53.2241 49.1216 57.05 49.1216 61.7694C49.1216 66.4888 52.941 70.3147 57.6525 70.3147Z" stroke="#333333" stroke-width="1.5" stroke-miterlimit="10" stroke-linecap="round" stroke-linejoin="round"/>
<path d="M82.1792 70.3147C86.8907 70.3147 90.7101 66.4888 90.7101 61.7694C90.7101 57.05 86.8907 53.2241 82.1792 53.2241C77.4676 53.2241 73.6482 57.05 73.6482 61.7694C73.6482 66.4888 77.4676 70.3147 82.1792 70.3147Z" stroke="#333333" stroke-width="1.5" stroke-miterlimit="10" stroke-linecap="round" stroke-linejoin="round"/>
<path d="M66.1836 61.7693C66.1836 61.7693 69.3827 59.633 73.6482 61.7693" stroke="#333333" stroke-width="1.5" stroke-miterlimit="10" stroke-linecap="round" stroke-linejoin="round"/>
<path d="M42.0942 57.9773L48.6951 60.1457" stroke="#333333" stroke-width="1.5" stroke-miterlimit="10" stroke-linecap="round" stroke-linejoin="round"/>
<path d="M97.748 57.9773L91.1472 60.1457" stroke="#333333" stroke-width="1.5" stroke-miterlimit="10" stroke-linecap="round" stroke-linejoin="round"/>
<path d="M67.25 71.0303C67.25 71.0303 66.1836 74.2775 69.3827 75.5059" stroke="#333333" stroke-width="1.5" stroke-miterlimit="10" stroke-linecap="round" stroke-linejoin="round"/>
<path d="M76.8473 31.8608C76.8473 31.8608 70.5877 50.6817 65.725 55.6914C65.725 55.6914 70.4491 39.3379 69.3827 35.0653C69.3827 35.0653 61.8221 52.4976 57.0661 54.463C57.0661 54.463 64.0508 36.6995 64.584 31.6151C65.1172 26.5307 64.584 31.9783 64.584 31.9783C64.584 31.9783 58.623 43.6319 52.8006 47.3598C46.9783 51.0876 45.8052 52.1558 43.7791 55.3603C43.7791 55.3603 42.958 64.9951 43.7791 68.1782C44.6002 71.3613 47.8527 87.2555 51.1478 89.4666C51.1478 89.4666 52.3101 98.0866 50.1774 101.291L45.9119 95.9503L43.7791 87.405L42.7128 77.7916L40.58 83.1324C40.58 83.1324 40.58 76.7234 39.5137 72.4508C39.5137 74.5871 38.4473 76.7234 38.4473 76.7234L37.3809 72.4508L35.2482 74.5871C35.2482 74.5871 35.2482 67.11 34.1818 62.8374C33.1687 58.7891 30.9827 48.9513 40.58 28.6563C46.4237 16.2977 70.4384 10.4976 81.1021 19.0429C81.1021 19.0429 91.7658 21.1792 98.164 33.9971C104.562 46.815 105.586 65.5291 104.008 69.5241L102.44 68.1782C102.44 68.1782 102.44 70.3145 101.374 73.519L100.307 71.3827C100.307 71.3827 99.2411 75.6553 98.1747 78.8598L97.2363 75.6553C97.2363 75.6553 97.1083 75.6553 94.9756 82.0642C94.9756 82.0642 94.9756 80.9961 93.9092 78.8598C88.5774 93.814 87.511 97.0078 87.511 97.0078L86.402 101.291L86.306 90.9513C86.306 90.9513 88.5774 86.3369 91.7765 77.7916C93.7066 72.6324 97.1083 66.0419 94.9756 59.6329C93.3227 54.666 93.9092 52.1558 88.5774 41.4742C86.3593 37.0307 82.1792 32.9289 82.1792 32.9289C82.1792 32.9289 85.3783 46.815 92.8429 55.3603C92.8429 55.3603 84.3119 59.6329 76.8473 31.8608Z" fill="#333333"/>
<path d="M63.8696 96.7301C63.8696 96.7301 66.013 93.9635 68.2311 93.8888C70.4491 93.814 74.4907 93.9101 76.7407 96.5271L70.9823 99.5714L70.4278 97.0078L67.0794 100.276V97.905L63.8696 96.7301Z" fill="#333333"/>
<path d="M60.8518 83.1323C60.8518 83.1323 61.481 83.1323 62.59 83.1323C63.699 83.1323 63.4111 83.645 68.3057 83.645C74.1175 83.645 75.0665 82.1816 76.954 82.1816" stroke="#333333" stroke-width="1.5" stroke-miterlimit="10" stroke-linecap="round" stroke-linejoin="round"/>
<path d="M65.5864 85.9736C65.5864 85.9736 67.4846 86.6893 69.372 86.6893C71.2595 86.6893 73.1577 85.9736 73.1577 85.9736" stroke="#333333" stroke-width="1.5" stroke-miterlimit="10" stroke-linecap="round" stroke-linejoin="round"/>
<path d="M51.1584 89.4666C51.1584 89.4666 51.1157 100.223 50.1134 103.427C49.1216 106.632 56.5862 114.963 60.8517 117.741C60.8517 117.741 58.719 114.109 54.4535 122.654C50.188 131.2 47.3941 139.125 47.3941 139.125C47.3941 139.125 34.1924 115.177 36.3252 107.7C38.4579 100.223 39.3323 99.2722 42.0942 100.287C44.8561 101.302 46.9889 96.9116 49.1216 98.0332" stroke="#333333" stroke-width="1.5" stroke-miterlimit="10" stroke-linecap="round" stroke-linejoin="round"/>
<path d="M60.8518 117.741C60.8518 117.741 67.0368 128.027 65.0107 131.21C62.9846 134.404 63.8696 140.183 63.8696 140.183" stroke="#333333" stroke-width="1.5" stroke-miterlimit="10" stroke-linecap="round" stroke-linejoin="round"/>
<path d="M86.306 90.9407C86.306 90.9407 86.306 99.1441 86.306 102.349C86.306 105.553 75.7809 117.922 73.6482 120.283C73.6482 120.283 76.8473 122.644 77.9137 127.984C78.98 133.325 83.4375 139.734 83.4375 139.734" stroke="#333333" stroke-width="1.5" stroke-miterlimit="10" stroke-linecap="round" stroke-linejoin="round"/>
<path d="M86.4019 101.291C86.4019 101.291 89.2917 97.0185 93.7278 103.427C98.1639 109.836 99.209 107.476 99.7528 112.923C100.297 118.371 94.9755 123.744 92.3096 131.21C89.6436 138.677 88.5559 140.183 88.5559 140.183" stroke="#333333" stroke-width="1.5" stroke-miterlimit="10" stroke-linecap="round" stroke-linejoin="round"/>
<path d="M98.1748 108.768C98.1748 108.768 114.074 114.718 121.635 119.45C130.166 124.79 131.2 140.183 131.2 140.183" stroke="#333333" stroke-width="1.5" stroke-miterlimit="10" stroke-linecap="round" stroke-linejoin="round"/>
<path d="M36.0906 108.8C36.0906 108.8 16.0962 116.352 12.8864 120.037C9.66595 123.722 7.7998 139.745 7.7998 139.745" stroke="#333333" stroke-width="1.5" stroke-miterlimit="10" stroke-linecap="round" stroke-linejoin="round"/>
<path d="M19.0181 116.128C19.0181 116.128 24.1047 118.371 24.1047 139.734" stroke="#333333" stroke-width="1.5" stroke-miterlimit="10" stroke-linecap="round" stroke-linejoin="round"/>
<path d="M118.66 117.741C118.66 117.741 115.365 125.666 115.365 140.183" stroke="#333333" stroke-width="1.5" stroke-miterlimit="10" stroke-linecap="round" stroke-linejoin="round"/>
<path d="M73.6483 120.283C73.6483 120.283 71.3875 122.462 71.9847 126.831C72.5819 131.2 73.7442 136.54 74.2348 139.745" stroke="#333333" stroke-width="1.5" stroke-miterlimit="10" stroke-linecap="round" stroke-linejoin="round"/>
<path d="M64.5093 125.346C64.5093 125.346 66.7167 126.414 71.5153 125.859" stroke="#333333" stroke-width="1.5" stroke-miterlimit="10" stroke-linecap="round" stroke-linejoin="round"/>
<path d="M64.5093 132.823C64.5093 132.823 67.0472 134.062 72.5817 133.411" stroke="#333333" stroke-width="1.5" stroke-miterlimit="10" stroke-linecap="round" stroke-linejoin="round"/>
</g>
<defs>
<clipPath id="clip0">
<rect width="140" height="140" fill="white" transform="translate(0 0.983887)"/>
</clipPath>
</defs>
</svg>
