<svg width="140" height="140" viewBox="0 0 140 140" fill="none" xmlns="http://www.w3.org/2000/svg">
<g clip-path="url(#clip0_1_2701)">
<path d="M95.5751 60.5826C94.9563 38.4942 87.7881 27.3799 74.6541 25.9323C60.2593 24.3445 34.8086 37.0348 39.1282 63.1393C41.6382 78.328 46.6583 87.7495 51.6784 93.832C55.2859 98.2099 59.8273 101.981 69.8675 101.981C78.6468 101.981 83.3284 98.8871 86.8074 93.832C93.0767 84.7141 96.0654 77.6276 95.5867 60.5826H95.5751Z" stroke="#333333" stroke-width="1.5" stroke-linecap="round" stroke-linejoin="round"/>
<path d="M59.5121 129.685C59.5121 129.685 58.3447 124.828 52.7876 124.139C49.472 123.731 37.2369 122.061 37.2369 122.061" stroke="#333333" stroke-width="1.5" stroke-linecap="round" stroke-linejoin="round"/>
<path d="M75.0394 61.6567C76.7323 57.7808 84.7761 57.9675 88.045 62.5674" stroke="#333333" stroke-width="1.5" stroke-linecap="round" stroke-linejoin="round"/>
<path d="M82.7797 62.6257C83.7954 61.6567 83.6086 59.5786 83.6086 59.5786C83.6086 59.5786 81.0052 58.6213 77.7479 59.5669C77.7479 59.5669 77.0241 61.4349 78.2149 62.4622C80.5148 61.9719 80.4915 62.544 82.7797 62.6374V62.6257Z" fill="#333333"/>
<path d="M75.4128 60.501C75.4128 60.501 81.2385 55.3174 87.9748 61.1898C87.9748 61.1898 86.9357 58.2127 81.7755 57.9559C77.7127 57.7458 75.4128 60.501 75.4128 60.501Z" fill="#333333"/>
<path d="M57.8778 85.8116C57.8311 85.5898 58.1113 85.403 58.4498 85.4263C60.096 85.5197 64.2405 85.0177 68.5834 85.0177C72.9264 85.0177 76.1719 85.2862 78.0165 85.0877C78.3901 85.0527 78.7053 85.2629 78.6236 85.4964C78.2384 86.6638 75.1446 89.6175 68.5834 89.5591C61.4269 89.4891 58.0996 86.874 57.8778 85.8232V85.8116Z" stroke="#333333" stroke-width="1.5" stroke-linecap="round" stroke-linejoin="round"/>
<path d="M64.4037 91.6721C64.4037 91.6721 67.3807 93.7152 72.7511 91.6721" stroke="#333333" stroke-width="1.5" stroke-linecap="round" stroke-linejoin="round"/>
<path d="M60.8663 85.4963V88.0764C60.8663 88.0764 58.1345 87.1774 57.9944 86.1034C57.8543 85.0293 60.8663 85.4963 60.8663 85.4963Z" fill="#333333"/>
<path d="M75.6465 85.076L75.8566 87.6444C75.8566 87.6444 78.5068 86.5937 78.5651 85.508C78.6235 84.4222 75.6465 85.076 75.6465 85.076Z" fill="#333333"/>
<path d="M85.0096 62.3689C85.0096 62.3689 86.8542 62.1821 87.9983 62.2171C87.9983 62.2171 86.2121 60.8629 85.3716 60.6877C85.3716 60.6877 86.0253 61.7151 85.0096 62.3689Z" fill="#333333"/>
<path d="M61.1466 62.007C59.6639 58.1544 52.0053 58.0726 48.7598 62.474" stroke="#333333" stroke-width="1.5" stroke-linecap="round" stroke-linejoin="round"/>
<path d="M53.7799 62.6724C52.8459 61.6918 53.0911 59.6604 53.0911 59.6604C53.0911 59.6604 55.5894 58.8081 58.6599 59.8355C58.6599 59.8355 59.2903 61.6801 58.1228 62.6491C55.9514 62.0887 55.9514 62.6491 53.7799 62.6608V62.6724Z" fill="#333333"/>
<path d="M60.8198 60.8628C60.8198 60.8628 55.4495 55.5975 48.865 61.1196C48.865 61.1196 49.9507 58.2477 54.8541 58.1543C58.7301 58.0842 60.8198 60.8628 60.8198 60.8628Z" fill="#333333"/>
<path d="M51.6436 62.3687C51.6436 62.3687 49.8924 62.1236 48.8066 62.1236C48.8066 62.1236 50.5462 60.8627 51.3517 60.7109C51.3517 60.7109 50.6979 61.6916 51.6436 62.3687Z" fill="#333333"/>
<path d="M75.4947 28.5941C75.4947 28.5941 49.7755 53.0525 45.3858 57.4421C36.0344 66.7935 39.7353 86.9206 39.7353 86.9206C39.7353 86.9206 26.5663 44.8919 47.8842 31.0925C69.2137 17.2931 80.5031 24.8232 80.5031 24.8232L75.483 28.5824L75.4947 28.5941Z" fill="#333333"/>
<path d="M74.8759 26.084C74.8759 26.084 85.5348 41.1326 93.6954 51.8032C101.856 62.4738 94.9446 80.0325 94.9446 80.0325C94.9446 80.0325 104.354 54.3132 99.3342 43.0239C94.3141 31.7345 83.0248 19.8147 74.8759 26.084Z" fill="#333333"/>
<path d="M74.8761 17.3047C74.8761 17.3047 60.4462 11.0354 47.2772 22.9553C37.4122 31.8864 31.8784 44.2965 32.8474 65.6027C33.4778 79.4021 40.3775 95.7116 44.7672 101.35C49.1568 106.989 43.518 114.519 43.518 114.519C43.518 114.519 51.0481 111.379 52.2973 107.62C53.5465 103.86 52.9277 94.4507 52.9277 94.4507C52.9277 94.4507 39.7588 79.4021 42.8876 66.8519C48.398 44.8102 76.277 24.9166 76.277 24.9166C76.277 24.9166 86.7842 41.1443 92.4347 55.5625C98.0852 69.9924 94.6996 78.0595 91.8043 84.4105C88.909 90.7615 85.535 95.0695 85.535 95.0695V107.62C86.7842 112.009 99.3344 117.029 108.114 120.789C108.114 120.789 102.463 98.8404 104.355 88.8002C106.246 78.76 108.114 51.7916 103.105 39.8718C98.0969 27.952 89.9363 15.4134 74.8761 17.2931V17.3047Z" fill="#333333"/>
<path d="M74.6424 25.9323C74.6424 25.9323 90.5549 48.0441 93.0533 57.4538C95.5634 66.8636 98.0734 75.6429 94.9329 85.0527C94.9329 85.0527 98.6922 73.1329 95.5634 60.5943C92.4229 48.0441 76.1134 24.8466 76.1134 24.8466L74.6307 25.944L74.6424 25.9323Z" fill="#333333"/>
<path d="M77.1525 25.9323C77.1525 25.9323 93.0651 48.0441 95.5635 57.4538C98.0735 66.8636 100.584 75.6429 97.4431 85.0527C97.4431 85.0527 101.202 73.1329 98.0735 60.5943C94.933 48.0441 78.6235 24.8466 78.6235 24.8466L77.1409 25.944L77.1525 25.9323Z" fill="#333333"/>
<path d="M76.5336 27.1932C76.5336 27.1932 92.4462 49.3049 94.9446 58.7147C97.4546 68.1244 99.9647 76.9038 96.8242 86.3135C96.8242 86.3135 100.583 74.3937 97.4546 61.8552C94.3258 49.3166 78.0047 26.1074 78.0047 26.1074L76.522 27.2048L76.5336 27.1932Z" fill="#333333"/>
<path d="M76.6973 62.9526C76.6973 62.9526 79.1022 65.9297 84.1924 64.3886C84.1924 64.3886 77.9114 64.1551 76.6973 62.9526Z" fill="#333333"/>
<path d="M59.8507 63.116C59.8507 63.116 57.3991 66.2097 52.4607 64.3768C52.4607 64.3768 58.6249 64.3535 59.8507 63.116Z" fill="#333333"/>
<path d="M66.0967 68.1128C66.0967 68.1128 64.9526 73.4481 65.2094 75.7947C65.4663 78.1413 69.9027 77.6159 69.9027 77.6159" stroke="#333333" stroke-width="1.5" stroke-linecap="round" stroke-linejoin="round"/>
<path d="M74.8759 54.3134C74.8759 54.3134 77.491 52.1886 81.8573 52.4221C86.2353 52.6439 89.294 53.9281 89.294 53.9281" stroke="#333333" stroke-width="1.5" stroke-linecap="round" stroke-linejoin="round"/>
<path d="M61.0649 54.3134C61.0649 54.3134 58.4498 52.1886 54.0835 52.4221C49.7055 52.6439 46.6467 53.9281 46.6467 53.9281" stroke="#333333" stroke-width="1.5" stroke-linecap="round" stroke-linejoin="round"/>
<path d="M60.6096 87.5627C60.6096 87.5627 70.1478 89.057 77.0592 87.0607C77.0592 87.0607 74.0355 89.559 69.3306 89.559C64.6257 89.559 60.6096 87.5627 60.6096 87.5627Z" fill="#333333"/>
<path d="M52.2972 96.342V107.48C52.2972 111.157 38.6145 118.395 24.0679 122.68C15.1018 125.33 11.471 134.25 10 140.694" stroke="#333333" stroke-width="1.5" stroke-linecap="round" stroke-linejoin="round"/>
<path d="M37.0618 117.94C37.0618 117.94 33.8396 132.533 34.4117 139.702" stroke="#333333" stroke-width="1.5" stroke-linecap="round" stroke-linejoin="round"/>
<path d="M33.4311 119.633C33.4311 119.633 31.5165 127.864 31.283 139.702" stroke="#333333" stroke-width="1.5" stroke-linecap="round" stroke-linejoin="round"/>
<path d="M34.9604 132.592C34.9604 132.592 35.6142 135.709 37.3538 139.538" stroke="#333333" stroke-width="1.5" stroke-linecap="round" stroke-linejoin="round"/>
<path d="M25.6791 140.706C25.6791 140.706 25.1187 128.681 24.7568 123.229" stroke="#333333" stroke-width="1.5" stroke-linecap="round" stroke-linejoin="round"/>
<path d="M32.2168 126.241L31.0027 120.695" stroke="#333333" stroke-width="1.5" stroke-linecap="round" stroke-linejoin="round"/>
<path d="M78.3199 129.685C78.3199 129.685 79.4874 125.225 85.0445 124.595C88.3601 124.209 100.595 122.68 100.595 122.68" stroke="#333333" stroke-width="1.5" stroke-linecap="round" stroke-linejoin="round"/>
<path d="M85.5348 96.342V107.48C85.5348 111.157 103.21 120.333 117.757 124.63C126.746 127.28 129.572 134.098 130.412 139.807" stroke="#333333" stroke-width="1.5" stroke-linecap="round" stroke-linejoin="round"/>
<path d="M100.759 117.94C100.759 117.94 104.658 132.907 103.409 139.807" stroke="#333333" stroke-width="1.5" stroke-linecap="round" stroke-linejoin="round"/>
<path d="M104.39 119.633C104.39 119.633 107.483 126.007 106.222 139.807" stroke="#333333" stroke-width="1.5" stroke-linecap="round" stroke-linejoin="round"/>
<path d="M102.872 132.592C102.872 132.592 101.179 135.534 99.2292 139.538" stroke="#333333" stroke-width="1.5" stroke-linecap="round" stroke-linejoin="round"/>
<path d="M110.308 139.807C110.308 139.807 112.702 128.681 113.075 123.229" stroke="#333333" stroke-width="1.5" stroke-linecap="round" stroke-linejoin="round"/>
<path d="M106.234 125.529L106.829 120.695" stroke="#333333" stroke-width="1.5" stroke-linecap="round" stroke-linejoin="round"/>
<path d="M43.6115 59.5669C43.6115 59.5669 31.5866 80.663 31.5866 87.5627C31.5866 87.5627 30.9562 67.494 45.386 54.3133C59.8159 41.1443 43.6115 59.5669 43.6115 59.5669Z" fill="#333333"/>
<path d="M32.8472 65.6027C32.8472 65.6027 32.8939 112.301 48.8648 111.531L49.1566 110.13C49.1566 110.13 42.2569 112.64 37.8673 96.3304C34.7034 84.574 34.7268 65.5911 34.7268 65.5911H32.8472V65.6027Z" fill="#333333"/>
<path d="M35.3574 63.723C35.3574 63.723 35.3924 110.422 48.9117 109.651L48.5264 108.881C48.5264 108.881 42.8292 111.391 39.1167 95.0811C36.4432 83.3247 36.9452 63.723 36.9452 63.723H35.3574Z" fill="#333333"/>
<path d="M43.6812 99.821C43.6812 99.821 47.6039 111.11 41.4747 115.955L42.4321 115.698C42.4321 115.698 46.0045 112.021 45.3857 105.121C44.767 98.2216 44.1365 98.2216 44.1365 98.2216L43.6812 99.821Z" fill="#333333"/>
<path d="M89.4577 90.1544C89.4577 90.1544 85.535 103.242 83.0249 109.511C80.5149 115.78 92.4347 116.411 94.9447 113.901C94.9447 113.901 94.5011 113.153 94.3143 113.27C90.5551 115.78 81.7641 113.27 85.535 107.62C88.6521 102.95 91.1855 90.061 91.1855 90.061L89.4577 90.1428V90.1544Z" fill="#333333"/>
<path d="M96.2639 106.686C94.5011 106.686 92.5631 105.589 92.4814 103.195C92.3413 98.8756 95.4817 94.6611 95.6218 94.4859C95.7269 94.3458 95.8787 94.2641 96.0421 94.2524H96.0888C96.2406 94.2524 96.3924 94.3108 96.4974 94.4159C96.6609 94.5793 100.455 98.3853 100.455 102.752C100.455 103.942 99.9881 104.958 99.1009 105.694C98.342 106.324 97.3147 106.674 96.2639 106.674V106.686Z" fill="white"/>
<path d="M96.0888 94.8361C96.0888 94.8361 99.8714 98.5837 99.8714 102.752C99.8714 104.935 98.0384 106.09 96.2639 106.09C94.6645 106.09 93.1234 105.145 93.065 103.16C92.9249 98.9923 96.0888 94.8244 96.0888 94.8244V94.8361ZM96.0888 93.657C96.0888 93.657 96.0304 93.657 96.007 93.657C95.6685 93.6803 95.3649 93.8438 95.1548 94.1123C95.0147 94.2991 91.7458 98.6654 91.8976 103.195C91.9793 105.577 93.7772 107.246 96.2639 107.246C98.5755 107.246 101.039 105.67 101.039 102.74C101.039 98.1401 97.0811 94.159 96.906 93.9955C96.6842 93.7737 96.3923 93.657 96.0888 93.657Z" fill="#333333"/>
<path d="M95.9137 96.2603C95.0147 96.2603 94.2909 95.5365 94.2909 94.6375C94.2909 93.7386 95.0147 93.0148 95.9137 93.0148C96.8126 93.0148 97.5365 93.7386 97.5365 94.6375C97.5365 95.5365 96.8126 96.2603 95.9137 96.2603Z" fill="white"/>
<path d="M95.9135 93.5869C96.4856 93.5869 96.9526 94.0539 96.9526 94.6259C96.9526 95.198 96.4856 95.665 95.9135 95.665C95.3415 95.665 94.8745 95.198 94.8745 94.6259C94.8745 94.0539 95.3415 93.5869 95.9135 93.5869ZM95.9135 92.4194C94.6994 92.4194 93.707 93.4118 93.707 94.6259C93.707 95.8401 94.6994 96.8324 95.9135 96.8324C97.1277 96.8324 98.1201 95.8401 98.1201 94.6259C98.1201 93.4118 97.1277 92.4194 95.9135 92.4194Z" fill="#333333"/>
<path d="M95.9137 94.5909C95.0147 94.5909 94.2909 93.9138 94.2909 93.0849V90.3296C94.2909 89.5007 95.0147 88.8236 95.9137 88.8236C96.8126 88.8236 97.5365 89.5007 97.5365 90.3296V93.0849C97.5365 93.9138 96.8126 94.5909 95.9137 94.5909Z" fill="white"/>
<path d="M95.9135 89.4191C96.4856 89.4191 96.9526 89.8277 96.9526 90.3413V93.0966C96.9526 93.5986 96.4856 94.0189 95.9135 94.0189C95.3415 94.0189 94.8745 93.6102 94.8745 93.0966V90.3413C94.8745 89.8393 95.3415 89.4191 95.9135 89.4191ZM95.9135 88.2516C94.6994 88.2516 93.707 89.1856 93.707 90.3413V93.0966C93.707 94.2407 94.6994 95.1863 95.9135 95.1863C97.1277 95.1863 98.1201 94.2524 98.1201 93.0966V90.3413C98.1201 89.1972 97.1277 88.2516 95.9135 88.2516Z" fill="#333333"/>
<path d="M95.9137 90.423C95.0147 90.423 94.2909 89.6992 94.2909 88.8003C94.2909 87.9013 95.0147 87.1775 95.9137 87.1775C96.8126 87.1775 97.5365 87.9013 97.5365 88.8003C97.5365 89.6992 96.8126 90.423 95.9137 90.423Z" fill="white"/>
<path d="M95.9135 87.7612C96.4856 87.7612 96.9526 88.2282 96.9526 88.8003C96.9526 89.3723 96.4856 89.8393 95.9135 89.8393C95.3415 89.8393 94.8745 89.3723 94.8745 88.8003C94.8745 88.2282 95.3415 87.7612 95.9135 87.7612ZM95.9135 86.5938C94.6994 86.5938 93.707 87.5861 93.707 88.8003C93.707 90.0144 94.6994 91.0068 95.9135 91.0068C97.1277 91.0068 98.1201 90.0144 98.1201 88.8003C98.1201 87.5861 97.1277 86.5938 95.9135 86.5938Z" fill="#333333"/>
<path d="M95.9137 88.7536C95.0147 88.7536 94.2909 88.0298 94.2909 87.1308C94.2909 86.2319 95.0147 85.5081 95.9137 85.5081C96.8126 85.5081 97.5365 86.2319 97.5365 87.1308C97.5365 88.0298 96.8126 88.7536 95.9137 88.7536Z" fill="white"/>
<path d="M95.9135 86.0918C96.4856 86.0918 96.9526 86.5588 96.9526 87.1308C96.9526 87.7029 96.4856 88.1699 95.9135 88.1699C95.3415 88.1699 94.8745 87.7029 94.8745 87.1308C94.8745 86.5588 95.3415 86.0918 95.9135 86.0918ZM95.9135 84.9243C94.6994 84.9243 93.707 85.9167 93.707 87.1308C93.707 88.345 94.6994 89.3373 95.9135 89.3373C97.1277 89.3373 98.1201 88.345 98.1201 87.1308C98.1201 85.9167 97.1277 84.9243 95.9135 84.9243Z" fill="#333333"/>
<path d="M95.9137 87.0958C95.0147 87.0958 94.2909 86.3719 94.2909 85.473C94.2909 84.574 95.0147 83.8502 95.9137 83.8502C96.8126 83.8502 97.5365 84.574 97.5365 85.473C97.5365 86.3719 96.8126 87.0958 95.9137 87.0958Z" fill="white"/>
<path d="M95.9135 84.4222C96.4856 84.4222 96.9526 84.8892 96.9526 85.4613C96.9526 86.0333 96.4856 86.5003 95.9135 86.5003C95.3415 86.5003 94.8745 86.0333 94.8745 85.4613C94.8745 84.8892 95.3415 84.4222 95.9135 84.4222ZM95.9135 83.2548C94.6994 83.2548 93.707 84.2471 93.707 85.4613C93.707 86.6754 94.6994 87.6678 95.9135 87.6678C97.1277 87.6678 98.1201 86.6754 98.1201 85.4613C98.1201 84.2471 97.1277 83.2548 95.9135 83.2548Z" fill="#333333"/>
<path d="M96.4623 103.884C95.8903 103.884 95.3766 103.522 95.0497 102.88C94.2908 101.362 95.5634 99.3776 95.7151 99.1558C95.8085 99.0157 95.972 98.9106 96.1471 98.8989C96.1705 98.8989 96.1821 98.8989 96.2055 98.8989C96.3572 98.8989 96.509 98.9573 96.6141 99.074C96.7542 99.2141 98.0384 100.545 98.0384 101.993C98.0384 102.483 97.8866 102.95 97.6064 103.3C97.3146 103.674 96.8943 103.884 96.4623 103.884Z" fill="white"/>
<path d="M96.1938 99.4826C96.1938 99.4826 97.443 100.732 97.443 101.993C97.443 102.763 96.9643 103.3 96.4506 103.3C96.1354 103.3 95.7969 103.09 95.5634 102.611C94.9329 101.362 96.1938 99.4709 96.1938 99.4709V99.4826ZM96.1938 98.3035C96.1938 98.3035 96.1121 98.3035 96.0771 98.3035C95.7268 98.3385 95.4116 98.5253 95.2248 98.8172C95.0614 99.0623 93.6254 101.316 94.5243 103.125C94.9446 103.966 95.6568 104.456 96.4623 104.456C97.6765 104.456 98.6221 103.37 98.6221 101.981C98.6221 100.288 97.1861 98.8055 97.0227 98.642C96.8009 98.4202 96.509 98.3035 96.1938 98.3035Z" fill="#333333"/>
<path d="M44.8955 106.686C43.1327 106.686 41.1947 105.589 41.1129 103.195C40.9729 98.8756 44.1133 94.6611 44.2534 94.4859C44.3585 94.3458 44.5103 94.2641 44.6737 94.2524H44.7204C44.8722 94.2524 45.024 94.3108 45.129 94.4159C45.2925 94.5793 49.0867 98.3853 49.0867 102.752C49.0867 103.942 48.6197 104.958 47.7325 105.694C46.9736 106.324 45.9462 106.674 44.8955 106.674V106.686Z" fill="white"/>
<path d="M44.7204 94.8361C44.7204 94.8361 48.503 98.5837 48.503 102.752C48.503 104.935 46.67 106.09 44.8955 106.09C43.2961 106.09 41.755 105.145 41.6966 103.16C41.5565 98.9923 44.7204 94.8244 44.7204 94.8244V94.8361ZM44.7204 93.657C44.7204 93.657 44.662 93.657 44.6386 93.657C44.3001 93.6803 43.9965 93.8438 43.7864 94.1123C43.6463 94.2991 40.3774 98.6654 40.5292 103.195C40.6109 105.577 42.4088 107.246 44.8955 107.246C47.2071 107.246 49.6704 105.67 49.6704 102.74C49.6704 98.1401 45.7127 94.159 45.5376 93.9955C45.3158 93.7737 45.0239 93.657 44.7204 93.657Z" fill="#333333"/>
<path d="M44.5454 96.2603C43.6464 96.2603 42.9226 95.5365 42.9226 94.6375C42.9226 93.7386 43.6464 93.0148 44.5454 93.0148C45.4443 93.0148 46.1682 93.7386 46.1682 94.6375C46.1682 95.5365 45.4443 96.2603 44.5454 96.2603Z" fill="white"/>
<path d="M44.5454 93.5869C45.1174 93.5869 45.5844 94.0539 45.5844 94.6259C45.5844 95.198 45.1174 95.665 44.5454 95.665C43.9733 95.665 43.5063 95.198 43.5063 94.6259C43.5063 94.0539 43.9733 93.5869 44.5454 93.5869ZM44.5454 92.4194C43.3312 92.4194 42.3389 93.4118 42.3389 94.6259C42.3389 95.8401 43.3312 96.8324 44.5454 96.8324C45.7595 96.8324 46.7519 95.8401 46.7519 94.6259C46.7519 93.4118 45.7595 92.4194 44.5454 92.4194Z" fill="#333333"/>
<path d="M44.5454 94.5909C43.6464 94.5909 42.9226 93.9138 42.9226 93.0849V90.3296C42.9226 89.5007 43.6464 88.8236 44.5454 88.8236C45.4443 88.8236 46.1682 89.5007 46.1682 90.3296V93.0849C46.1682 93.9138 45.4443 94.5909 44.5454 94.5909Z" fill="white"/>
<path d="M44.5454 89.4191C45.1174 89.4191 45.5844 89.8277 45.5844 90.3413V93.0966C45.5844 93.5986 45.1174 94.0189 44.5454 94.0189C43.9733 94.0189 43.5063 93.6102 43.5063 93.0966V90.3413C43.5063 89.8393 43.9733 89.4191 44.5454 89.4191ZM44.5454 88.2516C43.3312 88.2516 42.3389 89.1856 42.3389 90.3413V93.0966C42.3389 94.2407 43.3312 95.1863 44.5454 95.1863C45.7595 95.1863 46.7519 94.2524 46.7519 93.0966V90.3413C46.7519 89.1972 45.7595 88.2516 44.5454 88.2516Z" fill="#333333"/>
<path d="M44.5454 90.423C43.6464 90.423 42.9226 89.6992 42.9226 88.8003C42.9226 87.9013 43.6464 87.1775 44.5454 87.1775C45.4443 87.1775 46.1682 87.9013 46.1682 88.8003C46.1682 89.6992 45.4443 90.423 44.5454 90.423Z" fill="white"/>
<path d="M44.5454 87.7612C45.1174 87.7612 45.5844 88.2282 45.5844 88.8003C45.5844 89.3723 45.1174 89.8393 44.5454 89.8393C43.9733 89.8393 43.5063 89.3723 43.5063 88.8003C43.5063 88.2282 43.9733 87.7612 44.5454 87.7612ZM44.5454 86.5938C43.3312 86.5938 42.3389 87.5861 42.3389 88.8003C42.3389 90.0144 43.3312 91.0068 44.5454 91.0068C45.7595 91.0068 46.7519 90.0144 46.7519 88.8003C46.7519 87.5861 45.7595 86.5938 44.5454 86.5938Z" fill="#333333"/>
<path d="M44.5454 88.7536C43.6464 88.7536 42.9226 88.0298 42.9226 87.1308C42.9226 86.2319 43.6464 85.5081 44.5454 85.5081C45.4443 85.5081 46.1682 86.2319 46.1682 87.1308C46.1682 88.0298 45.4443 88.7536 44.5454 88.7536Z" fill="white"/>
<path d="M44.5454 86.0918C45.1174 86.0918 45.5844 86.5588 45.5844 87.1308C45.5844 87.7029 45.1174 88.1699 44.5454 88.1699C43.9733 88.1699 43.5063 87.7029 43.5063 87.1308C43.5063 86.5588 43.9733 86.0918 44.5454 86.0918ZM44.5454 84.9243C43.3312 84.9243 42.3389 85.9167 42.3389 87.1308C42.3389 88.345 43.3312 89.3373 44.5454 89.3373C45.7595 89.3373 46.7519 88.345 46.7519 87.1308C46.7519 85.9167 45.7595 84.9243 44.5454 84.9243Z" fill="#333333"/>
<path d="M44.5454 87.0958C43.6464 87.0958 42.9226 86.3719 42.9226 85.473C42.9226 84.574 43.6464 83.8502 44.5454 83.8502C45.4443 83.8502 46.1682 84.574 46.1682 85.473C46.1682 86.3719 45.4443 87.0958 44.5454 87.0958Z" fill="white"/>
<path d="M44.5454 84.4222C45.1174 84.4222 45.5844 84.8892 45.5844 85.4613C45.5844 86.0333 45.1174 86.5003 44.5454 86.5003C43.9733 86.5003 43.5063 86.0333 43.5063 85.4613C43.5063 84.8892 43.9733 84.4222 44.5454 84.4222ZM44.5454 83.2548C43.3312 83.2548 42.3389 84.2471 42.3389 85.4613C42.3389 86.6754 43.3312 87.6678 44.5454 87.6678C45.7595 87.6678 46.7519 86.6754 46.7519 85.4613C46.7519 84.2471 45.7595 83.2548 44.5454 83.2548Z" fill="#333333"/>
<path d="M45.094 103.884C44.522 103.884 44.0083 103.522 43.6814 102.88C42.9225 101.362 44.1951 99.3776 44.3468 99.1558C44.4402 99.0157 44.6037 98.9106 44.7788 98.8989C44.8022 98.8989 44.8138 98.8989 44.8372 98.8989C44.989 98.8989 45.1407 98.9573 45.2458 99.074C45.3859 99.2141 46.6701 100.545 46.6701 101.993C46.6701 102.483 46.5183 102.95 46.2381 103.3C45.9463 103.674 45.526 103.884 45.094 103.884Z" fill="white"/>
<path d="M44.8255 99.4826C44.8255 99.4826 46.0747 100.732 46.0747 101.993C46.0747 102.763 45.596 103.3 45.0824 103.3C44.7671 103.3 44.4286 103.09 44.1951 102.611C43.5647 101.362 44.8255 99.4709 44.8255 99.4709V99.4826ZM44.8255 98.3035C44.8255 98.3035 44.7438 98.3035 44.7088 98.3035C44.3585 98.3385 44.0433 98.5253 43.8565 98.8172C43.6931 99.0623 42.2571 101.316 43.156 103.125C43.5763 103.966 44.2885 104.456 45.094 104.456C46.3082 104.456 47.2538 103.37 47.2538 101.981C47.2538 100.288 45.8179 98.8055 45.6544 98.642C45.4326 98.4202 45.1407 98.3035 44.8255 98.3035Z" fill="#333333"/>
<path d="M57.504 25.5003C56.9203 25.5003 56.1965 24.9866 55.9513 23.5273C55.566 21.2624 56.43 18.2387 60.0491 16.5575C63.4114 15.0048 66.1316 13.4287 66.1549 13.417C66.2483 13.3587 66.3534 13.3353 66.4468 13.3353C66.5986 13.3353 66.7503 13.3937 66.8554 13.5104C67.0422 13.6972 67.0772 13.9891 66.9488 14.2109C66.8904 14.316 65.4545 16.756 61.5785 18.7991C58.6715 20.3284 58.7065 21.1924 58.7882 22.6167C58.7999 22.8735 58.8116 23.142 58.8116 23.4339C58.8116 24.9633 58.1111 25.5003 57.504 25.5003Z" fill="white"/>
<path d="M66.4468 13.9308C66.4468 13.9308 65.0809 16.3124 61.31 18.2854C57.5507 20.2701 58.2279 21.4492 58.2279 23.4339C58.2279 24.4263 57.8893 24.9166 57.504 24.9166C57.1188 24.9166 56.6868 24.4263 56.5234 23.4339C56.1848 21.4492 56.8619 18.6823 60.2826 17.0946C63.7033 15.5068 66.4468 13.9308 66.4468 13.9308ZM66.4468 12.7633C66.2483 12.7633 66.0499 12.81 65.8631 12.9151C65.8397 12.9268 63.1312 14.4912 59.8039 16.0322C55.8929 17.8418 54.9473 21.1457 55.3793 23.6324C55.6945 25.442 56.6868 26.0841 57.5157 26.0841C58.4614 26.0841 59.407 25.2668 59.407 23.4339C59.407 23.1421 59.3953 22.8619 59.3837 22.5934C59.3136 21.2741 59.2903 20.6787 61.8704 19.3245C65.8864 17.2113 67.4041 14.6196 67.4742 14.5145C67.7427 14.0592 67.661 13.4755 67.2874 13.1019C67.0656 12.8801 66.762 12.7633 66.4585 12.7633H66.4468Z" fill="#333333"/>
<path d="M43.5762 47.0517C41.9417 47.0517 38.8363 44.9619 37.412 42.3585C35.4156 38.7043 35.3105 36.3927 35.3105 36.2993C35.3105 36.0308 35.474 35.7857 35.7425 35.7156C35.7892 35.7039 35.8476 35.6923 35.8943 35.6923C36.1044 35.6923 36.3029 35.809 36.408 35.9958C36.4196 36.0192 37.6922 38.3191 39.9104 39.9302C42.3854 41.7281 44.2767 43.7244 44.7203 44.9969C44.9538 45.6507 44.9304 46.1878 44.6619 46.5614C44.4985 46.7832 44.1833 47.0517 43.5879 47.0517H43.5762Z" fill="white"/>
<path d="M35.8943 36.276C35.8943 36.276 37.2018 38.681 39.5601 40.3971C41.9184 42.1133 43.763 44.0279 44.1599 45.1837C44.4751 46.0827 44.1833 46.4679 43.5762 46.4679C42.2219 46.4679 39.2799 44.5533 37.9257 42.0783C35.9643 38.5058 35.8943 36.276 35.8943 36.276ZM35.8943 35.1085C35.7892 35.1085 35.6841 35.1202 35.5791 35.1552C35.0537 35.2953 34.7035 35.7857 34.7268 36.3227C34.7268 36.4278 34.8436 38.8678 36.91 42.6503C38.451 45.4639 41.7666 47.6471 43.5879 47.6471C44.4868 47.6471 44.9421 47.1801 45.1406 46.9116C45.5258 46.3629 45.5725 45.6624 45.269 44.8101C44.6853 43.1407 42.292 40.9575 40.2489 39.4632C38.1475 37.9338 36.9333 35.739 36.9216 35.7273C36.7115 35.342 36.3146 35.1202 35.8943 35.1202V35.1085Z" fill="#333333"/>
<path d="M44.1948 58.4461C44.008 58.4461 43.8329 58.3644 43.7279 58.2126C43.506 57.9091 41.533 55.2122 41.7782 53.5778C41.9883 52.1768 42.0934 51.4063 41.4163 50.5074C40.4823 49.2582 40.062 48.546 40.4239 46.0126C40.6808 44.2731 41.5914 44.0863 41.9767 44.0863C43.0507 44.0863 43.973 45.3822 44.3233 47.3786C44.5684 48.7445 44.8836 49.5967 45.1405 50.2855C45.444 51.1028 45.6775 51.7449 45.5491 52.6555L44.7786 57.9441C44.7435 58.1776 44.5684 58.3644 44.3466 58.4228C44.2999 58.4344 44.2532 58.4461 44.2065 58.4461H44.1948Z" fill="white"/>
<path d="M41.9766 44.67C42.6421 44.67 43.4243 45.674 43.7512 47.4836C44.2882 50.5073 45.1872 51.1377 44.9653 52.5737C44.7435 54.0097 44.1948 57.8623 44.1948 57.8623C44.1948 57.8623 42.1401 55.1071 42.3502 53.6595C42.5604 52.2118 42.7005 51.2545 41.8832 50.1454C41.066 49.0363 40.6457 48.4876 41.0076 46.0826C41.1477 45.1136 41.533 44.6583 41.9766 44.6583V44.67ZM41.9766 43.4908C41.5563 43.4908 40.1787 43.666 39.8519 45.9075C39.4549 48.6627 39.9803 49.5266 40.9493 50.8342C41.463 51.5113 41.4163 52.0133 41.1944 53.4727C40.9376 55.2589 42.7005 57.804 43.2608 58.5395C43.4827 58.843 43.8329 59.0064 44.1948 59.0064C44.2882 59.0064 44.3816 59.0064 44.475 58.9714C44.9303 58.8547 45.2806 58.4811 45.3389 58.0141L46.1095 52.7255C46.2612 51.6631 45.9927 50.9276 45.6658 50.0637C45.4207 49.3982 45.1171 48.581 44.8836 47.2618C44.475 44.9735 43.3309 43.4908 41.965 43.4908H41.9766Z" fill="#333333"/>
<path d="M81.332 30.0884C81.1802 30.0884 81.0284 30.0184 80.9234 29.9133C80.8416 29.8316 80.1645 29.0844 80.0127 27.6017C79.931 26.6911 80.83 26.1307 81.8807 25.477C83.1532 24.6831 84.741 23.7024 85.2546 21.9045C86.0952 18.9859 88.3718 16.7794 89.3174 15.9621C89.5042 15.787 89.6326 15.7053 89.6326 15.7053C89.7377 15.6352 89.8428 15.6002 89.9595 15.6002C90.1463 15.6002 90.3214 15.6819 90.4382 15.8454C90.625 16.1022 90.5783 16.4525 90.3214 16.6509C90.3214 16.6509 90.228 16.721 90.0996 16.8377C89.5626 17.3281 88.3251 18.764 88.2901 21.4726C88.2317 25.6287 84.1806 30.0768 81.3787 30.0768H81.3436L81.332 30.0884Z" fill="white"/>
<path d="M89.9713 16.2073C89.9713 16.2073 89.8779 16.2774 89.7145 16.4174C89.8662 16.2774 89.9713 16.2073 89.9713 16.2073ZM89.7145 16.4174C89.1307 16.9545 87.7531 18.5306 87.7064 21.4842C87.6481 25.2201 83.8772 29.5164 81.3788 29.5164H81.3438C81.3438 29.5164 80.725 28.886 80.5966 27.5551C80.4682 26.2358 84.8345 25.5003 85.8151 22.0796C86.6324 19.2427 88.9323 17.0829 89.7028 16.4174H89.7145ZM89.948 15.0515C89.7261 15.0515 89.4927 15.1216 89.2942 15.25C89.2942 15.25 89.1541 15.3434 88.9323 15.5535C87.9399 16.4058 85.5817 18.7057 84.6944 21.7644C84.2391 23.3405 82.7564 24.2628 81.5656 24.9983C80.4565 25.6871 79.3007 26.3993 79.4291 27.6718C79.5926 29.3529 80.3981 30.2402 80.4915 30.3336C80.7017 30.5554 81.0052 30.6839 81.3087 30.6839C84.6594 30.6839 88.7922 25.6287 88.8622 21.5076C88.8972 19.0326 89.9947 17.7484 90.485 17.293C90.6017 17.1996 90.6718 17.1413 90.6835 17.1296C91.1738 16.7443 91.2672 16.0439 90.9053 15.5302C90.6835 15.215 90.3215 15.0515 89.9596 15.0515H89.948Z" fill="#333333"/>
<path d="M62.9093 26.411C62.7575 26.411 62.6057 26.3409 62.5007 26.2358C62.419 26.1541 61.7418 25.4069 61.6017 23.9243C61.52 23.0136 62.4189 22.4533 63.4697 21.7995C64.7422 21.0056 66.33 20.0249 66.8436 18.227C67.6842 15.3084 69.9608 13.1019 70.9064 12.2846C71.0932 12.1095 71.21 12.0278 71.21 12.0278C71.315 11.9578 71.4201 11.9227 71.5368 11.9227C71.7236 11.9227 71.8988 12.0045 72.0155 12.1679C72.2023 12.4247 72.1556 12.775 71.8988 12.9734C71.8988 12.9734 71.8054 13.0435 71.6769 13.1602C71.1399 13.6506 69.9024 15.0866 69.8674 17.7951C69.809 21.9512 65.7579 26.3993 62.956 26.3993H62.921L62.9093 26.411Z" fill="white"/>
<path d="M71.5486 12.5181C71.5486 12.5181 71.4552 12.5881 71.2917 12.7282C71.4435 12.5881 71.5486 12.5181 71.5486 12.5181ZM71.2917 12.7282C70.708 13.2653 69.3304 14.8413 69.2837 17.795C69.2253 21.5309 65.4544 25.8272 62.9561 25.8272H62.921C62.921 25.8272 62.3023 25.1968 62.1739 23.8658C62.0454 22.5466 66.4117 21.8111 67.3924 18.3904C68.2096 15.5535 70.5095 13.3937 71.2801 12.7282H71.2917ZM71.5252 11.3623C71.3034 11.3623 71.0699 11.4324 70.8715 11.5608C70.8715 11.5608 70.7314 11.6542 70.5095 11.8643C69.5172 12.7166 67.1589 15.0165 66.2717 18.0752C65.8163 19.6513 64.3337 20.5736 63.1428 21.3091C62.0338 21.9979 60.878 22.7101 61.0064 23.9826C61.1698 25.6637 61.9754 26.551 62.0688 26.6444C62.2789 26.8662 62.5825 26.9946 62.886 26.9946C66.2366 26.9946 70.3694 21.9395 70.4395 17.8184C70.4745 15.3434 71.5719 14.0591 72.0623 13.6038C72.179 13.5104 72.2491 13.4521 72.2607 13.4404C72.7511 13.0551 72.8445 12.3546 72.4826 11.841C72.2607 11.5257 71.8988 11.3623 71.5369 11.3623H71.5252Z" fill="#333333"/>
<path d="M45.6191 24.076C44.8719 24.076 44.3699 23.7024 44.2648 23.0603C44.008 21.4609 46.8799 18.1103 49.9037 17.1063C52.2036 16.3357 53.9197 16.184 54.9471 16.184C55.6242 16.184 55.9978 16.254 56.0328 16.2657C56.2897 16.3124 56.4882 16.5342 56.4998 16.8027C56.5115 17.0712 56.3481 17.3047 56.1029 17.3981C56.0795 17.3981 53.6862 18.2153 51.7482 20.165C49.5651 22.3482 47.3236 23.8775 46.0277 24.0643C45.8876 24.0877 45.7475 24.0994 45.6307 24.0994L45.6191 24.076Z" fill="white"/>
<path d="M54.9471 16.756C55.5892 16.756 55.9161 16.826 55.9161 16.826C55.9161 16.826 53.4061 17.6549 51.328 19.733C49.2499 21.8111 47.1018 23.3054 45.9343 23.4689C45.8176 23.4806 45.7125 23.4922 45.6191 23.4922C43.2958 23.4922 46.4947 18.8574 50.0788 17.6549C52.3203 16.9077 53.9781 16.756 54.9355 16.756H54.9471ZM54.9355 15.5885C53.8614 15.5885 52.0752 15.7519 49.7052 16.5458C46.5647 17.5965 43.3542 21.1106 43.6811 23.1537C43.7979 23.8425 44.3699 24.6597 45.6074 24.6597C45.7592 24.6597 45.911 24.6597 46.0861 24.6247C47.8023 24.3795 50.3356 22.3598 52.1335 20.5619C53.9781 18.7173 56.243 17.9468 56.2664 17.9351C56.7684 17.7717 57.0953 17.2813 57.0602 16.756C57.0252 16.2306 56.64 15.787 56.1263 15.6819C56.0562 15.6702 55.6476 15.5885 54.9238 15.5885H54.9355Z" fill="#333333"/>
<path d="M34.6801 29.1895C33.9679 29.1895 33.2558 28.5474 33.2558 27.1231C33.2558 26.8312 33.2674 26.5627 33.2908 26.3059C33.3725 24.8932 33.4192 24.041 30.0336 22.4999C25.5738 20.4686 23.916 18.0402 23.846 17.9352C23.6942 17.7133 23.7176 17.4215 23.8927 17.223C24.0094 17.0946 24.1729 17.0245 24.3363 17.0245C24.4297 17.0245 24.5115 17.0479 24.5932 17.0829C24.6282 17.0946 27.792 18.6707 31.6797 20.2351C35.8592 21.9045 36.8515 24.9399 36.3962 27.2282C36.1627 28.419 35.4856 29.1778 34.6801 29.1778V29.1895Z" fill="white"/>
<path d="M24.3363 17.6083C24.3363 17.6083 27.5001 19.196 31.4695 20.7721C35.4272 22.3598 36.221 25.1267 35.8241 27.1114C35.6256 28.1038 35.1353 28.5941 34.68 28.5941C34.2247 28.5941 33.8394 28.1038 33.8394 27.1114C33.8394 25.1267 34.6333 23.9476 30.2787 21.9629C25.924 19.9782 24.3363 17.6083 24.3363 17.6083ZM24.3363 16.4408C24.0094 16.4408 23.6825 16.5809 23.4607 16.8377C23.1104 17.2347 23.0754 17.8184 23.3673 18.262C23.4373 18.3671 25.1885 20.9355 29.8 23.037C32.8237 24.4146 32.7887 24.9983 32.7187 26.2708C32.707 26.5394 32.6836 26.8195 32.6836 27.1231C32.6836 28.9443 33.7227 29.7732 34.6917 29.7732C35.5206 29.7732 36.618 29.1428 36.9799 27.3449C37.4819 24.8232 36.4195 21.4959 31.9131 19.698C28.0488 18.157 24.8967 16.5809 24.8733 16.5692C24.7099 16.4875 24.5231 16.4408 24.3479 16.4408H24.3363Z" fill="#333333"/>
<path d="M105.394 44.9853C105.3 44.9853 105.218 44.962 105.137 44.927C105.102 44.9153 101.938 43.3392 98.0502 41.7748C93.8823 40.1053 92.8783 37.0699 93.3336 34.7817C93.5671 33.5909 94.2442 32.832 95.0498 32.832C95.7619 32.832 96.4741 33.4741 96.4741 34.8984C96.4741 35.1903 96.4624 35.4588 96.4391 35.7157C96.3573 37.1283 96.3106 37.9805 99.6963 39.5216C104.156 41.553 105.814 43.9813 105.884 44.0864C106.036 44.3082 106.012 44.6001 105.837 44.7985C105.72 44.927 105.557 44.997 105.394 44.997V44.9853Z" fill="white"/>
<path d="M95.0382 33.404C95.4819 33.404 95.8788 33.8944 95.8788 34.8867C95.8788 36.8714 95.0849 38.0505 99.4396 40.0352C103.794 42.0199 105.382 44.3899 105.382 44.3899C105.382 44.3899 102.218 42.8021 98.2487 41.226C94.291 39.6383 93.4972 36.8714 93.8941 34.8867C94.0926 33.8944 94.5829 33.404 95.0382 33.404ZM95.0382 32.2366C94.2093 32.2366 93.1119 32.867 92.75 34.6649C92.248 37.1866 93.3104 40.5139 97.8168 42.3118C101.681 43.8528 104.833 45.4289 104.857 45.4406C105.02 45.5223 105.207 45.569 105.382 45.569C105.709 45.569 106.036 45.4289 106.258 45.1721C106.608 44.7751 106.643 44.1914 106.351 43.7478C106.281 43.6427 104.53 41.0743 99.9182 38.9728C96.8945 37.5952 96.9295 37.0115 96.9996 35.739C97.0112 35.4704 97.0346 35.1903 97.0346 34.8867C97.0346 33.0655 95.9955 32.2366 95.0265 32.2366H95.0382Z" fill="#333333"/>
<path d="M67.3458 35.844C67.089 35.844 66.8205 35.7506 66.552 35.5755C66.4352 35.5055 63.2247 33.6258 62.3141 30.964C62.1857 30.5904 62.0222 30.1585 61.8471 29.6915C60.808 26.9012 59.3721 23.0836 61.0299 21.3908C61.1466 21.2741 61.2984 21.2157 61.4501 21.2157C61.5085 21.2157 61.5786 21.2157 61.6369 21.2507C61.8471 21.3208 61.9989 21.5076 62.0222 21.7411C62.0222 21.7878 62.5826 26.3409 65.3611 28.4656C67.7661 30.2986 68.8168 33.6842 68.3499 35.0735C68.1864 35.5638 67.8128 35.8557 67.3458 35.8557V35.844Z" fill="white"/>
<path d="M61.4384 21.7995C61.4384 21.7995 61.9871 26.6211 65.0108 28.921C67.7193 30.9874 68.5249 35.2604 67.3574 35.2604C67.229 35.2604 67.0655 35.202 66.8787 35.0852C66.8787 35.0852 63.7266 33.264 62.8743 30.7656C62.0221 28.2789 59.8039 23.469 61.45 21.7878L61.4384 21.7995ZM61.45 20.6204C61.1465 20.6204 60.8429 20.7371 60.6211 20.9706C58.7065 22.9203 60.1541 26.7846 61.3099 29.8783C61.485 30.3337 61.6368 30.7656 61.7652 31.1392C62.7576 34.0112 66.1432 35.9959 66.295 36.0776C66.6219 36.2877 66.9955 36.4045 67.3574 36.4045C68.0695 36.4045 68.665 35.9492 68.9101 35.2253C69.4938 33.4858 68.2096 29.8667 65.7229 27.9754C63.1428 26.014 62.6175 21.6944 62.6058 21.6477C62.5591 21.2041 62.2439 20.8188 61.8236 20.6787C61.6952 20.632 61.5668 20.6204 61.45 20.6204Z" fill="#333333"/>
<path d="M73.8835 35.0735C73.5917 35.0735 73.2531 35.0385 72.9029 34.9801C72.8211 34.9684 72.7394 34.9334 72.6694 34.8867C72.3658 34.6766 65.2676 29.5747 66.1783 24.6013C66.225 24.3562 66.4234 24.1577 66.6803 24.1227C66.7036 24.1227 66.727 24.1227 66.7503 24.1227C66.9721 24.1227 67.1823 24.2511 67.2757 24.4612C67.299 24.5196 69.8908 30.0884 72.6344 31.0808C74.5607 31.7696 75.7865 32.9837 75.5997 34.0228C75.5413 34.338 75.2611 35.0852 73.8835 35.0852V35.0735Z" fill="white"/>
<path d="M66.7506 24.6948C66.7506 24.6948 69.4357 30.5321 72.4478 31.6178C75.133 32.5868 75.9502 34.4898 73.8954 34.4898C73.6503 34.4898 73.3467 34.4664 73.0198 34.3964C73.0198 34.3964 65.91 29.3529 66.7622 24.6948H66.7506ZM66.7622 23.5273C66.7622 23.5273 66.6688 23.5273 66.6105 23.5273C66.1085 23.5857 65.6998 23.9709 65.6064 24.4729C64.6375 29.8083 72.0158 35.1085 72.331 35.342C72.4711 35.4354 72.6346 35.5055 72.798 35.5405C73.195 35.6105 73.5569 35.6456 73.8838 35.6456C75.7634 35.6456 76.1136 34.4664 76.1837 34.1045C76.4172 32.7619 75.0746 31.3143 72.833 30.5087C70.9768 29.8433 68.7703 26.2825 67.8013 24.1928C67.6145 23.7725 67.1942 23.5156 66.7389 23.5156L66.7622 23.5273Z" fill="#333333"/>
<path d="M85.1847 44.6933C84.9979 44.6933 84.8228 44.5999 84.7061 44.4482C84.5543 44.238 84.566 43.9578 84.7061 43.7594C84.7411 43.7127 88.4069 38.7743 87.975 35.8907C87.7415 34.3613 87.975 32.9837 88.5587 32.2949C88.8972 31.9096 89.2592 31.8279 89.5043 31.8279C90.018 31.8279 90.7418 32.1664 91.2789 33.8126C91.3022 33.8943 91.3139 33.976 91.3022 34.0694C91.2555 34.443 90.1581 43.1056 85.3598 44.6817C85.3015 44.705 85.2431 44.705 85.173 44.705L85.1847 44.6933Z" fill="white"/>
<path d="M89.5043 32.4C89.9129 32.4 90.3682 32.8787 90.7301 33.9761C90.7301 33.9761 89.6911 42.627 85.1846 44.098C85.1846 44.098 89.0373 38.9612 88.5586 35.7973C88.2551 33.801 88.8155 32.4 89.5043 32.4ZM89.5043 31.2325C88.9789 31.2325 88.4886 31.4777 88.115 31.9097C87.4028 32.7386 87.1343 34.2563 87.4028 35.9724C87.7414 38.1556 85.173 42.1717 84.2507 43.3975C83.9471 43.8061 83.9355 44.3665 84.239 44.7751C84.4608 45.0903 84.8227 45.2655 85.1846 45.2655C85.3014 45.2655 85.4298 45.2421 85.5466 45.2071C90.6951 43.5259 91.8392 34.5014 91.8859 34.1162C91.9092 33.9411 91.8859 33.7776 91.8392 33.6142C91.1971 31.6412 90.2164 31.2325 89.5043 31.2325Z" fill="#333333"/>
<path d="M83.5735 22.6984C83.0014 22.6984 82.5461 22.4533 82.3477 22.0213C82.0441 21.4025 82.301 20.5736 83.1065 19.5813C83.1649 19.5112 83.2233 19.4645 83.305 19.4179C83.4801 19.3361 87.5429 17.3514 91.3021 17.3514C93.0183 17.3514 94.4076 17.7717 95.4466 18.6006C95.6451 18.7641 95.7151 19.0326 95.6217 19.2661C95.5283 19.4879 95.3182 19.6397 95.073 19.6397H95.038C95.038 19.6397 94.536 19.6046 93.7888 19.6046C90.4032 19.6046 87.8114 20.1884 86.6673 21.2041C85.6166 22.138 84.4724 22.6984 83.5852 22.6984H83.5735Z" fill="white"/>
<path d="M91.2905 17.9352C92.6915 17.9352 94.0341 18.227 95.0614 19.0559C95.0614 19.0559 94.5594 19.0209 93.7656 19.0209C91.7692 19.0209 87.9749 19.231 86.2588 20.7721C85.2314 21.6827 84.2274 22.1147 83.5619 22.1147C82.6863 22.1147 82.4178 21.3442 83.5386 19.9432C83.5386 19.9432 87.613 17.9352 91.2789 17.9352H91.2905ZM91.2789 16.7677C87.3912 16.7677 83.2 18.8108 83.0249 18.9042C82.8731 18.9742 82.733 19.091 82.6279 19.2194C81.6706 20.4102 81.3904 21.4376 81.799 22.2781C82.1026 22.9202 82.7447 23.2821 83.5619 23.2821C84.601 23.2821 85.8618 22.6867 87.0293 21.636C88.045 20.7254 90.5667 20.1884 93.7539 20.1884C94.4777 20.1884 94.968 20.2234 94.968 20.2234C94.9914 20.2234 95.0147 20.2234 95.0381 20.2234C95.5167 20.2234 95.9487 19.9315 96.1238 19.4762C96.3106 18.9976 96.1588 18.4605 95.7619 18.1453C94.6178 17.2347 93.1118 16.7677 91.2555 16.7677H91.2789Z" fill="#333333"/>
<path d="M91.4421 31.3143C91.267 31.3143 91.0802 31.2326 90.9752 31.0808C90.9635 31.0574 89.3991 28.956 87.6596 28.6875C87.5895 28.6875 87.5195 28.6758 87.4377 28.6758C86.6555 28.6758 85.3013 29.0844 83.8653 29.5047C82.1024 30.0301 80.0944 30.6255 78.5767 30.6255C77.9112 30.6255 77.3859 30.5204 76.9539 30.2986C76.7671 30.2052 76.6504 30.0184 76.6387 29.8083C76.627 29.5981 76.7321 29.3996 76.8955 29.2946C77.1057 29.1545 82.1024 25.8739 85.9434 25.6171C86.0485 25.6171 86.1535 25.6171 86.2586 25.6171C90.1696 25.6171 91.9208 30.3453 91.9909 30.5554C92.0842 30.824 91.9675 31.1275 91.7107 31.2676C91.6289 31.3143 91.5239 31.3376 91.4305 31.3376L91.4421 31.3143Z" fill="white"/>
<path d="M86.2587 26.1774C89.8078 26.1774 91.4422 30.7305 91.4422 30.7305C91.4422 30.7305 89.7494 28.419 87.7413 28.1037C87.6479 28.0921 87.5429 28.0804 87.4261 28.0804C85.5348 28.0804 81.2035 30.0301 78.5651 30.0301C78.0397 30.0301 77.5727 29.9483 77.2108 29.7615C77.2108 29.7615 82.2426 26.4343 85.9785 26.1891C86.0719 26.1891 86.1653 26.1891 86.2587 26.1891V26.1774ZM86.2587 25.0216C86.1419 25.0216 86.0252 25.0216 85.9084 25.0216C81.904 25.2902 76.7905 28.6525 76.5687 28.7925C76.2185 29.026 76.02 29.4113 76.0434 29.8316C76.0667 30.2519 76.3119 30.6138 76.6738 30.8006C77.1875 31.0691 77.8062 31.1975 78.5534 31.1975C80.1528 31.1975 82.1142 30.6138 84.0055 30.0534C85.3364 29.6565 86.714 29.2479 87.4145 29.2479C87.4612 29.2479 87.5079 29.2479 87.5429 29.2479C88.7804 29.4347 90.088 30.8706 90.4849 31.4077C90.7067 31.7112 91.0686 31.8863 91.4305 31.8863C91.6173 31.8863 91.8041 31.8396 91.9792 31.7462C92.4929 31.4777 92.7264 30.8706 92.528 30.3219C92.4462 30.1001 90.5549 24.9983 86.247 24.9983L86.2587 25.0216Z" fill="#333333"/>
<path d="M59.0101 40.9108C58.8233 40.9108 58.6365 40.8174 58.5314 40.654C58.403 40.4555 58.3913 40.1986 58.5314 40.0002C58.7415 39.685 60.5745 36.9064 62.1972 36.5562C63.5748 36.2643 64.3337 36.1008 64.9525 35.1435C65.8047 33.836 66.3184 33.1822 68.8168 32.6452C69.1086 32.5868 69.3771 32.5518 69.6223 32.5518C70.4395 32.5518 71.0233 32.9137 71.1867 33.5324C71.4552 34.5248 70.5563 35.7973 68.8868 36.778C67.6843 37.4785 66.9955 38.0739 66.4468 38.5525C65.793 39.1246 65.2677 39.5682 64.3687 39.7667L59.1385 40.8874C59.1385 40.8874 59.0568 40.8991 59.0217 40.8991L59.0101 40.9108Z" fill="white"/>
<path d="M69.6224 33.1472C71.2685 33.1472 70.965 34.8867 68.595 36.2877C65.9449 37.8521 65.6764 38.9028 64.2521 39.2063C62.8277 39.5099 59.0218 40.3271 59.0218 40.3271C59.0218 40.3271 60.8898 37.4435 62.3141 37.1399C63.7384 36.8364 64.6957 36.6262 65.4429 35.4821C66.19 34.3263 66.5636 33.7543 68.9453 33.2406C69.2021 33.1822 69.4356 33.1589 69.6341 33.1589L69.6224 33.1472ZM69.6341 31.9914C69.3422 31.9914 69.0387 32.0264 68.7001 32.0965C65.9799 32.6802 65.3495 33.4741 64.4622 34.84C63.9952 35.5522 63.5165 35.6806 62.0689 35.9958C60.306 36.3694 58.5432 38.9261 58.0411 39.6967C57.7843 40.0936 57.796 40.6073 58.0645 40.9926C58.2863 41.3078 58.6482 41.4946 59.0218 41.4946C59.1035 41.4946 59.1853 41.4946 59.267 41.4712L64.4972 40.3505C65.5479 40.1286 66.1433 39.6149 66.8438 39.0079C67.3809 38.5409 68.0463 37.9688 69.2021 37.2917C71.1284 36.1593 72.1091 34.6649 71.7705 33.3924C71.5837 32.7036 70.9299 31.9797 69.6341 31.9797V31.9914Z" fill="#333333"/>
<path d="M53.6746 27.7301C52.1219 27.7301 51.0712 27.4966 50.4641 27.018C49.4835 26.2475 48.888 25.7805 47.9774 25.7805C47.8607 25.7805 47.7439 25.7805 47.6155 25.8038C47.2069 25.8505 46.8567 25.8972 46.5181 25.8972C45.4791 25.8972 44.5918 25.5003 43.2258 24.4262C42.0467 23.5039 42.1051 22.7217 42.2335 22.3365C42.4553 21.6827 43.1791 21.3091 44.2065 21.3091C44.8369 21.3091 45.5841 21.4492 46.343 21.7294C47.6505 22.1964 48.5495 22.3481 49.2733 22.4649C50.1372 22.605 50.8144 22.7217 51.5382 23.2938L55.7411 26.5977C55.9279 26.7378 56.0096 26.983 55.9395 27.2165C55.8812 27.4383 55.6827 27.6134 55.4492 27.6367C55.4142 27.6367 54.632 27.7301 53.6746 27.7301Z" fill="white"/>
<path d="M44.2066 21.8928C44.7437 21.8928 45.3974 22.0096 46.1446 22.2781C49.0399 23.3171 50.0206 22.8502 51.1647 23.7491L55.3676 27.053C55.3676 27.053 54.5971 27.1464 53.6631 27.1464C52.6357 27.1464 51.4099 27.0297 50.8145 26.5627C49.7988 25.7571 49.075 25.1968 47.9659 25.1968C47.8258 25.1968 47.6857 25.1968 47.5339 25.2201C47.1486 25.2668 46.8218 25.3018 46.5065 25.3018C45.6893 25.3018 44.9538 25.045 43.5762 23.9593C42.1636 22.8502 42.6656 21.8812 44.195 21.8812L44.2066 21.8928ZM44.195 20.7137C42.9224 20.7137 41.9768 21.2391 41.6616 22.138C41.5098 22.57 41.3347 23.6907 42.8407 24.8815C44.3117 26.0373 45.304 26.4693 46.4949 26.4693C46.8801 26.4693 47.2654 26.4226 47.6623 26.3759C47.7674 26.3642 47.8608 26.3526 47.9542 26.3526C48.6313 26.3526 49.0866 26.6911 50.079 27.4733C50.7911 28.0337 51.9586 28.3022 53.6514 28.3022C54.6438 28.3022 55.461 28.2088 55.496 28.1971C55.963 28.1388 56.3483 27.8119 56.4767 27.3566C56.6051 26.9013 56.4417 26.4109 56.0681 26.1191L51.8652 22.8151C51.0246 22.1497 50.2424 22.0213 49.3435 21.8695C48.643 21.7527 47.7791 21.6126 46.5182 21.1573C45.6776 20.8538 44.8954 20.702 44.1833 20.702L44.195 20.7137Z" fill="#333333"/>
<path d="M74.4556 36.9765C73.6034 36.9765 72.8912 36.6146 72.5993 36.0426C72.4476 35.7274 72.2725 35.0736 72.9379 34.198C72.9846 34.1163 74.7592 31.3727 77.1525 31.3727C77.2575 31.3727 77.3626 31.3727 77.4677 31.3844C78.2382 31.4661 78.8453 31.5245 79.3239 31.5245C80.1178 31.5245 80.5614 31.361 81.2269 30.824C82.5695 29.7266 85.815 29.6682 86.1886 29.6682C86.3988 29.6682 86.5972 29.785 86.7023 29.9718C86.8074 30.1585 86.7957 30.392 86.679 30.5672C86.5622 30.754 83.8187 35.0152 80.5498 35.4822C79.5458 35.6223 78.8336 35.6807 78.2849 35.7157C77.1875 35.7974 76.919 35.8207 76.2418 36.3811C75.7748 36.7664 75.1211 36.9882 74.4439 36.9882L74.4556 36.9765Z" fill="white"/>
<path d="M86.1887 30.2519C86.1887 30.2519 83.5152 34.4665 80.4681 34.8984C77.4327 35.3304 77.0941 34.9218 75.8683 35.9258C75.4713 36.241 74.946 36.3928 74.444 36.3928C73.3933 36.3928 72.506 35.7157 73.3933 34.5482C73.3933 34.5482 75.0394 31.9564 77.1408 31.9564C77.2225 31.9564 77.3159 31.9564 77.3977 31.9681C78.1915 32.0498 78.7986 32.1082 79.3123 32.1082C80.2112 32.1082 80.8067 31.9097 81.5889 31.2676C82.8147 30.2753 86.1887 30.2402 86.1887 30.2402V30.2519ZM86.1887 29.0728C85.5582 29.0728 82.336 29.1662 80.865 30.357C80.2696 30.8473 79.9427 30.9291 79.324 30.9291C78.8803 30.9291 78.2849 30.8707 77.5261 30.789C77.3977 30.7773 77.2692 30.7656 77.1525 30.7656C74.5724 30.7656 72.7395 33.4041 72.4476 33.8594C71.6304 34.9685 71.8756 35.8558 72.0857 36.276C72.4826 37.0699 73.3699 37.5369 74.4673 37.5369C75.2612 37.5369 76.0551 37.2684 76.6271 36.8014C77.1758 36.3578 77.2809 36.3461 78.355 36.2644C78.892 36.2293 79.6275 36.171 80.6549 36.0192C84.1223 35.5172 86.8891 31.3143 87.1927 30.8357C87.4262 30.4737 87.4379 30.0184 87.2277 29.6448C87.0176 29.2713 86.6323 29.0494 86.212 29.0494L86.1887 29.0728Z" fill="#333333"/>
<path d="M58.5432 21.8228C58.5432 21.8228 41.6967 21.2974 37.4821 25.512C33.2676 29.7265 30.6408 34.9918 38.0075 38.1439C45.3742 41.2961 58.4848 33.7776 66.6687 33.8593C74.8526 33.9411 81.1686 27.6134 92.7498 32.3533C104.331 37.0932 105.907 36.0425 105.907 32.3533C105.907 28.6641 84.1923 20.5035 81.6239 21.6944" stroke="#333333" stroke-linecap="round" stroke-linejoin="round"/>
<path d="M91.2786 12.845C94.3724 12.845 97.3378 13.1719 99.6027 13.3937C104.868 13.9191 103.292 18.1336 102.229 22.3365C101.179 26.5511 84.8576 24.9633 78.5416 27.0764C72.2256 29.1779 43.2725 42.8722 39.6417 44.3199C38.6611 44.7051 37.5169 44.9386 36.3611 44.9386C33.2557 44.9386 30.1035 43.2691 30.1035 38.6577C30.1035 32.3417 48.0008 28.1271 48.0008 28.1271C51.6783 27.0764 73.8017 19.1844 79.5923 15.4952C82.8846 13.4054 87.1925 12.8334 91.267 12.8334L91.2786 12.845ZM91.267 11.6659C85.99 11.6659 81.9623 12.5999 78.9619 14.5028C73.5098 17.9702 51.7016 25.8506 47.6855 26.9947C45.8176 27.4383 28.9478 31.6062 28.9478 38.646C28.9478 42.0783 30.8974 46.0944 36.3728 46.0944C37.6454 46.0944 38.9296 45.8492 40.0854 45.3939C41.3579 44.8802 45.5724 42.9539 50.9077 40.5139C61.0063 35.8791 74.8408 29.5398 78.9269 28.1855C81.2501 27.415 85.2312 27.1465 89.0838 26.9013C96.2987 26.4343 102.521 26.0257 103.374 22.6284C103.455 22.2898 103.549 21.9396 103.642 21.601C104.378 18.7757 105.066 16.1139 103.724 14.1759C102.942 13.0552 101.634 12.4247 99.7311 12.2263L99.1824 12.1679C96.9642 11.9461 94.1973 11.6659 91.2786 11.6659H91.267Z" fill="#333333"/>
<path d="M109.141 24.8583C110.11 24.8583 110.46 26.6095 108.907 28.9911C108.907 28.9911 106.549 26.8196 108.149 25.3486C108.511 25.01 108.861 24.8583 109.141 24.8583ZM109.141 23.6908C108.721 23.6908 108.067 23.8309 107.355 24.4963C106.748 25.0567 106.421 25.7689 106.432 26.5628C106.432 28.2556 107.95 29.6916 108.125 29.855C108.347 30.0535 108.627 30.1585 108.919 30.1585C108.966 30.1585 109.013 30.1585 109.059 30.1585C109.398 30.1118 109.701 29.9251 109.888 29.6332C111.126 27.7536 111.476 25.909 110.834 24.7298C110.484 24.0877 109.853 23.7025 109.141 23.7025V23.6908Z" fill="#333333"/>
<path d="M113.928 24.3796C114.009 24.3796 114.091 24.3796 114.173 24.3913C116.333 24.6598 115.539 26.8779 111.885 27.3216C111.885 27.3216 112.013 24.3679 113.928 24.3679V24.3796ZM113.928 23.2004C111.838 23.2004 110.799 25.3135 110.717 27.2632C110.705 27.6018 110.834 27.9403 111.091 28.1738C111.312 28.3723 111.593 28.489 111.885 28.489C111.931 28.489 111.978 28.489 112.025 28.489C115.13 28.1038 116.531 26.6094 116.531 25.3019C116.531 24.473 115.947 23.4456 114.325 23.2471C114.184 23.2355 114.056 23.2238 113.939 23.2238L113.928 23.2004Z" fill="#333333"/>
<path d="M109.993 30.7657C110.507 30.7657 111.009 30.9642 111.394 31.5245C112.071 32.5286 111.674 33.2407 110.729 33.2407C109.982 33.2407 108.873 32.7971 107.67 31.6997C107.67 31.6997 108.861 30.7657 109.993 30.7657ZM109.993 29.5982C108.499 29.5982 107.11 30.6606 106.946 30.789C106.678 30.9992 106.514 31.3261 106.503 31.6646C106.491 32.0032 106.631 32.3418 106.888 32.5636C108.195 33.7544 109.561 34.4082 110.729 34.4082C111.604 34.4082 112.317 34.0229 112.667 33.3575C112.889 32.9372 113.145 32.0616 112.363 30.8708C111.815 30.0419 110.974 29.5865 109.993 29.5865V29.5982Z" fill="#333333"/>
<path d="M112.2 27.2632L107.81 31.2559L105.744 33.5441" stroke="#333333" stroke-linecap="round" stroke-linejoin="round"/>
<path d="M109.094 28.9093L108.452 30.6371" stroke="#333333" stroke-linecap="round" stroke-linejoin="round"/>
<path d="M37.2369 50.9393C37.1202 50.9393 36.9917 50.9043 36.8867 50.8226C36.6648 50.6591 36.5831 50.3556 36.7115 50.0987C36.7816 49.947 38.5328 46.3629 40.786 44.3081L41.5215 43.6427C43.2143 42.1133 44.0549 41.3544 44.5335 40.0469C44.9305 38.9495 45.7127 38.786 46.1446 38.786C46.8685 38.786 47.4872 39.2296 47.5573 39.2763C47.709 39.3931 47.8024 39.5799 47.7908 39.7784C47.7908 39.9885 47.5106 44.8685 43.4828 46.9349C39.8287 48.8028 37.6572 50.7642 37.6338 50.7875C37.5288 50.8926 37.377 50.9393 37.2369 50.9393Z" fill="white"/>
<path d="M46.1446 39.3698C46.6933 39.3698 47.2069 39.7434 47.2069 39.7434C47.2069 39.7434 46.9851 44.4716 43.2142 46.4096C39.4433 48.3476 37.2368 50.3556 37.2368 50.3556C37.2368 50.3556 38.988 46.7481 41.1828 44.7401C43.3777 42.7321 44.4868 41.8798 45.0822 40.257C45.3273 39.5682 45.7476 39.3698 46.1446 39.3698ZM46.1446 38.2023C45.1522 38.2023 44.37 38.8094 43.9847 39.8484C43.5528 41.0159 42.7939 41.7047 41.1361 43.199L40.4006 43.8645C38.0657 46.001 36.2678 49.6785 36.1861 49.8302C35.9409 50.3323 36.0927 50.9393 36.5363 51.2779C36.7465 51.4297 36.9916 51.5114 37.2368 51.5114C37.517 51.5114 37.7972 51.4063 38.019 51.2079C38.0424 51.1845 40.1671 49.2699 43.7396 47.4369C48.0709 45.2188 48.3627 40.0002 48.3627 39.7784C48.3861 39.3931 48.1993 39.0195 47.8841 38.786C47.744 38.681 47.0202 38.179 46.1329 38.179L46.1446 38.2023Z" fill="#333333"/>
<path d="M21.9199 44.7051C21.3828 44.7051 21.091 44.6467 21.056 44.6467C20.7991 44.6 20.6006 44.3782 20.589 44.1097C20.5773 43.8412 20.7407 43.6077 20.9859 43.5143C21.0093 43.5143 22.8071 42.8955 24.2782 41.4245C25.6207 40.0819 27.512 38.5759 28.7495 38.4008C28.8663 38.3891 28.9714 38.3774 29.0764 38.3774C29.8353 38.3774 30.1738 38.8328 30.2439 39.2647C30.4774 40.6773 28.0841 43.2341 25.8309 43.9813C24.0447 44.5767 22.7254 44.7051 21.9199 44.7051Z" fill="white"/>
<path d="M29.0646 38.9612C30.8392 38.9612 28.3875 42.5219 25.644 43.4326C23.9278 44.0046 22.6553 44.1214 21.9198 44.1214C21.4294 44.1214 21.1726 44.0747 21.1726 44.0747C21.1726 44.0747 23.0989 43.4326 24.6867 41.8448C26.2744 40.257 27.9322 39.1129 28.8195 38.9845C28.9129 38.9728 28.9946 38.9612 29.0646 38.9612ZM29.0646 37.7937C28.9362 37.7937 28.8078 37.7937 28.656 37.8287C26.9165 38.0739 24.5466 40.3388 23.8578 41.0276C22.4918 42.3935 20.8107 42.9656 20.799 42.9772C20.297 43.1524 19.9701 43.631 20.0051 44.1564C20.0402 44.6817 20.4254 45.1254 20.9391 45.2304C20.9975 45.2421 21.336 45.3005 21.9081 45.3005C22.7487 45.3005 24.1496 45.1721 26.0059 44.5533C28.3525 43.7711 31.1077 41.0276 30.8042 39.183C30.6641 38.3424 29.9869 37.8054 29.053 37.8054L29.0646 37.7937Z" fill="#333333"/>
<path d="M30.6173 40.9226C30.5239 40.9226 30.4189 40.9226 30.3138 40.8992C29.3098 40.7942 27.5819 39.8835 25.8891 38.5993C24.4181 37.4786 22.5968 37.0116 22.5852 36.9999C22.3167 36.9298 22.1299 36.6847 22.1532 36.4045C22.1649 36.1243 22.375 35.9025 22.6435 35.8558C22.6435 35.8558 22.9354 35.8091 23.4724 35.8091C24.2663 35.8091 25.5739 35.9025 27.3484 36.3461C29.4382 36.8715 31.9716 38.7744 31.8081 40.0587C31.7848 40.2571 31.6213 40.9109 30.629 40.9109L30.6173 40.9226Z" fill="white"/>
<path d="M23.4609 36.4044C24.1964 36.4044 25.4689 36.4862 27.1851 36.9298C29.9286 37.6303 32.392 40.3388 30.6058 40.3388C30.5357 40.3388 30.454 40.3388 30.3606 40.3271C29.4733 40.2337 27.8155 39.3581 26.2278 38.144C24.64 36.9298 22.7137 36.4511 22.7137 36.4511C22.7137 36.4511 22.9705 36.4161 23.4609 36.4161V36.4044ZM23.4609 35.2487C22.9122 35.2487 22.5969 35.2954 22.5386 35.2954C21.9899 35.3771 21.5696 35.8324 21.5462 36.3928C21.5229 36.9532 21.8848 37.4435 22.4218 37.5836C22.4335 37.5836 24.1497 38.0389 25.5156 39.0779C26.9166 40.152 28.9013 41.3428 30.2322 41.4946C30.3723 41.5063 30.489 41.5179 30.6058 41.5179C31.7732 41.5179 32.2869 40.7824 32.3686 40.152C32.5788 38.4825 29.8586 36.4161 27.4769 35.809C25.6557 35.3421 24.2898 35.2487 23.4609 35.2487Z" fill="#333333"/>
<path d="M31.4345 44.8335C31.236 44.8335 31.0376 44.7634 30.8274 44.635C30.769 44.6 28.7493 43.4209 28.1656 41.728C28.0839 41.5062 27.9905 41.2377 27.8854 40.9575C27.1966 39.1129 26.3327 36.8247 27.4418 35.7039C27.5585 35.5872 27.7103 35.5288 27.8621 35.5288C27.9204 35.5288 27.9905 35.5288 28.0488 35.5638C28.259 35.6339 28.4108 35.8207 28.4341 36.0542C28.4341 36.0775 28.761 38.7393 30.3604 39.9652C31.8898 41.1326 32.5553 43.3158 32.2517 44.2147C32.1233 44.6 31.8081 44.8452 31.4228 44.8452L31.4345 44.8335Z" fill="white"/>
<path d="M27.8621 36.1125C27.8621 36.1125 28.189 39.0312 30.0219 40.4205C31.6564 41.6697 32.1467 44.2498 31.4346 44.2498C31.3529 44.2498 31.2595 44.2147 31.1427 44.1447C31.1427 44.1447 29.2397 43.0356 28.7144 41.5412C28.189 40.0469 26.8581 37.1282 27.8505 36.1125H27.8621ZM27.8505 34.9451C27.5469 34.9451 27.2434 35.0618 27.0216 35.2953C25.6556 36.6846 26.5896 39.1713 27.3368 41.1677C27.4418 41.4362 27.5352 41.693 27.617 41.9148C28.2591 43.7711 30.3255 45.0203 30.559 45.1487C30.8158 45.3121 31.1194 45.4172 31.4346 45.4172C32.065 45.4172 32.602 45.0086 32.8122 44.3899C33.2208 43.1757 32.4036 40.7707 30.7224 39.4865C29.5666 38.5992 29.0996 36.6496 29.0179 35.9724C28.9595 35.5288 28.656 35.1435 28.2357 35.0034C28.1073 34.9567 27.9789 34.9451 27.8621 34.9451H27.8505Z" fill="#333333"/>
<path d="M88.6636 35.0385C88.1266 35.0385 87.7764 35.0035 87.7764 35.0035C86.8774 34.9568 86.5505 34.3381 86.5622 33.8244C86.5739 32.4351 88.8621 30.2519 91.6523 30.1585C94.6644 30.0651 96.7658 26.9714 96.7892 26.948C96.8942 26.7846 97.081 26.6912 97.2795 26.6912C97.3029 26.6912 97.3262 26.6912 97.3496 26.6912C97.5714 26.7145 97.7582 26.8663 97.8282 27.0764C98.5987 29.3063 95.9486 31.4661 94.0106 33.0538C93.6954 33.3107 93.4035 33.5558 93.1584 33.766C91.9559 34.8167 90.0529 35.0385 88.6753 35.0385H88.6636Z" fill="white"/>
<path d="M97.2794 27.2632C98.0266 29.4464 94.4074 31.8981 92.773 33.3224C91.6522 34.3031 89.7493 34.4548 88.6635 34.4548C88.1615 34.4548 87.8346 34.4198 87.8346 34.4198C85.8966 34.3264 88.3016 30.8474 91.6639 30.7423C95.0262 30.6372 97.2677 27.2632 97.2677 27.2632H97.2794ZM97.2677 26.0958C96.8825 26.0958 96.5205 26.2826 96.2987 26.6095C96.2987 26.6095 94.3374 29.4814 91.6289 29.5631C88.6518 29.6565 85.99 32.0148 85.9667 33.801C85.9667 34.7817 86.6905 35.5055 87.7412 35.5756C87.8463 35.5756 88.1849 35.6106 88.6518 35.6106C90.1345 35.6106 92.1776 35.3654 93.5202 34.1863C93.7653 33.9762 94.0455 33.7427 94.3607 33.4858C96.4272 31.793 99.2641 29.4814 98.3651 26.8663C98.225 26.446 97.8515 26.1425 97.4078 26.0841C97.3611 26.0841 97.3027 26.0841 97.256 26.0841L97.2677 26.0958Z" fill="#333333"/>
<path d="M39.8519 24.578C39.6651 24.578 39.2098 24.5079 38.9413 23.9125C38.4276 22.8034 38.6844 19.9782 40.2722 18.0869C42.0934 15.9271 41.7782 12.1912 41.7782 12.1561C41.7549 11.9343 41.8716 11.7125 42.0584 11.5958C42.1518 11.5374 42.2569 11.514 42.3503 11.514C42.467 11.514 42.5838 11.5491 42.6772 11.6191C44.3233 12.7282 43.8446 15.9504 43.4594 18.5538C43.401 18.9625 43.3426 19.336 43.3076 19.6629C43.0157 21.9979 40.7742 24.111 40.6691 24.1927C40.424 24.4379 40.1438 24.578 39.8519 24.578Z" fill="white"/>
<path d="M42.362 12.1095C43.9498 13.1719 42.9925 17.4331 42.7356 19.5929C42.4671 21.7411 40.2839 23.7608 40.2839 23.7608C40.1322 23.9242 39.9804 23.9943 39.8637 23.9943C38.9997 23.9943 38.9764 20.5502 40.7276 18.4722C42.7356 16.0905 42.362 12.1095 42.362 12.1095ZM42.362 10.942C42.1519 10.942 41.9534 11.0004 41.7666 11.1055C41.3814 11.339 41.1595 11.7709 41.1946 12.2146C41.1946 12.2963 41.4748 15.7636 39.8286 17.7133C38.1942 19.6513 37.7389 22.7101 38.4043 24.1577C38.6962 24.7881 39.2332 25.1617 39.852 25.1617C40.1672 25.1617 40.6342 25.0567 41.1128 24.578C41.323 24.3795 43.5879 22.2314 43.8914 19.733C43.9264 19.4061 43.9848 19.0442 44.0432 18.6473C44.4518 15.8921 44.9655 12.4597 43.0158 11.1522C42.8173 11.0237 42.5955 10.9537 42.362 10.9537V10.942Z" fill="#333333"/>
<path d="M29.4031 50.2856C29.2163 50.2856 29.0295 50.1922 28.9245 50.0287C28.7961 49.8302 28.7844 49.5734 28.9245 49.3749C29.2047 48.943 30.664 46.7832 32.0066 46.4913C33.1507 46.2461 33.7344 46.1177 34.2131 45.3705C34.9252 44.2731 35.3572 43.7244 37.4703 43.2691C37.7155 43.2107 37.949 43.1874 38.1591 43.1874C38.8829 43.1874 39.3966 43.5143 39.5484 44.0747C39.7819 44.9386 39.023 46.0243 37.6104 46.8649C36.6297 47.4369 36.0694 47.9273 35.614 48.3242C35.0537 48.8029 34.6217 49.1765 33.8512 49.3399L29.5432 50.2622C29.5432 50.2622 29.4615 50.2739 29.4265 50.2739L29.4031 50.2856Z" fill="white"/>
<path d="M38.1475 43.7945C39.5018 43.7945 39.2449 45.2304 37.3069 46.3862C35.1238 47.6704 34.902 48.546 33.7228 48.7912L29.4149 49.7135C29.4149 49.7135 30.9559 47.3319 32.1351 47.0867C33.3142 46.8415 34.0964 46.6664 34.7152 45.7208C35.3339 44.7635 35.6375 44.2965 37.5988 43.8762C37.8089 43.8295 37.9957 43.8061 38.1592 43.8061L38.1475 43.7945ZM38.1592 42.6387C37.914 42.6387 37.6338 42.6737 37.3536 42.7321C35.0304 43.2224 34.4933 43.9112 33.7345 45.0903C33.3959 45.6157 33.0457 45.7091 31.8899 45.9543C30.3605 46.2812 28.8545 48.441 28.4342 49.0947C28.1774 49.4917 28.189 50.0054 28.4576 50.3906C28.6794 50.7058 29.0413 50.8926 29.4149 50.8926C29.4966 50.8926 29.5783 50.8926 29.66 50.8693L33.968 49.947C34.8786 49.7485 35.4156 49.2932 35.9877 48.8029C36.4197 48.4293 36.9684 47.9623 37.9023 47.4136C39.5718 46.4329 40.4241 45.1137 40.1088 43.9696C39.9337 43.3391 39.3266 42.6503 38.1475 42.6503L38.1592 42.6387Z" fill="#333333"/>
<path d="M52.0519 48.3942C51.9818 48.3942 51.9118 48.3826 51.8418 48.3592C51.5849 48.2541 51.4331 47.9856 51.4798 47.7171C51.5149 47.5537 52.227 43.631 53.8381 41.0392L54.3635 40.1986C55.5776 38.2723 56.1847 37.3033 56.2898 35.9257C56.3715 34.84 57.0253 34.1979 58.0527 34.1979C58.543 34.1979 58.9399 34.3496 58.9866 34.3613C59.1734 34.4314 59.3018 34.5831 59.3485 34.7699C59.3952 34.9684 60.4576 39.755 57.1304 42.8254C54.1183 45.6157 52.5539 48.0907 52.5422 48.114C52.4372 48.2892 52.2387 48.3942 52.0519 48.3942Z" fill="white"/>
<path d="M58.0644 34.7816C58.4613 34.7816 58.7999 34.91 58.7999 34.91C58.7999 34.91 59.8739 39.5215 56.7568 42.4051C53.6397 45.2888 52.0636 47.8105 52.0636 47.8105C52.0636 47.8105 52.7758 43.8645 54.3518 41.3427C55.9279 38.821 56.7568 37.7003 56.8969 35.9724C56.9669 34.9917 57.574 34.7816 58.076 34.7816H58.0644ZM58.076 33.6141C56.7568 33.6141 55.8345 34.5014 55.7294 35.879C55.636 37.1165 55.0873 37.9804 53.8848 39.8834L53.3595 40.724C51.6783 43.4092 50.9428 47.4369 50.9195 47.612C50.8261 48.1607 51.1296 48.7094 51.655 48.9079C51.7951 48.9663 51.9352 48.9896 52.0753 48.9896C52.4722 48.9896 52.8458 48.7912 53.0676 48.4409C53.0793 48.4176 54.6087 46.0009 57.5624 43.2691C61.1348 39.9651 60.0024 34.8633 59.9557 34.6532C59.8623 34.2679 59.5937 33.9644 59.2318 33.8243C59.1384 33.7893 58.6714 33.6258 58.0877 33.6258L58.076 33.6141Z" fill="#333333"/>
<path d="M80.7249 30.8823C80.5848 30.8823 80.433 30.824 80.328 30.7306C80.1995 30.6138 77.2925 27.8936 75.9967 25.1267L75.5764 24.2161C74.6191 22.1614 74.1404 21.1223 73.0313 20.2934C72.3542 19.7798 72.2141 19.2311 72.2258 18.8458C72.2258 17.9118 73.0897 17.2464 73.1831 17.1763C73.2881 17.1063 73.4049 17.0596 73.5333 17.0596C73.6034 17.0596 73.6617 17.0596 73.7318 17.0946C73.9302 17.1646 78.5184 18.8575 79.3006 23.3172C80.0127 27.3566 81.2502 30.0184 81.2619 30.0418C81.3787 30.2986 81.3086 30.6021 81.0751 30.7656C80.9701 30.8356 80.8533 30.8823 80.7366 30.8823H80.7249Z" fill="white"/>
<path d="M73.5215 17.6433C73.5215 17.6433 77.9813 19.2427 78.7168 23.4222C79.4523 27.6018 80.7248 30.2986 80.7248 30.2986C80.7248 30.2986 77.7945 27.5667 76.5219 24.8699C75.2494 22.1731 74.7591 20.8772 73.3814 19.8265C72.0038 18.7757 73.5215 17.6433 73.5215 17.6433ZM73.5215 16.4758C73.2764 16.4758 73.0312 16.5576 72.8211 16.7093C72.6226 16.8611 71.6302 17.655 71.6302 18.8458C71.6302 19.3595 71.8054 20.095 72.6693 20.7604C73.6616 21.5076 74.0936 22.4416 75.0392 24.473L75.4595 25.3719C76.8138 28.2322 79.8025 31.0341 79.9309 31.1508C80.1527 31.361 80.4446 31.4661 80.7248 31.4661C80.97 31.4661 81.2034 31.396 81.4136 31.2442C81.8689 30.9174 82.0207 30.3103 81.7755 29.8083C81.7755 29.7849 80.5613 27.1815 79.8609 23.2354C79.0203 18.4488 74.1169 16.6393 73.9068 16.5576C73.7784 16.5109 73.65 16.4875 73.5099 16.4875L73.5215 16.4758Z" fill="#333333"/>
<path d="M51.0479 39.8134C50.616 39.8134 50.0089 39.6383 49.5302 38.8211C48.8181 37.6069 47.8491 36.9998 45.9111 35.7973L45.0705 35.272C42.4787 33.6375 40.0971 30.392 40.0037 30.2636C39.8403 30.0417 39.8636 29.7265 40.0504 29.5164C40.1672 29.3996 40.3189 29.3296 40.4824 29.3296C40.5874 29.3296 40.6925 29.3646 40.7976 29.423C40.8209 29.4347 43.3193 30.9991 47.2537 32.1899C51.5966 33.5091 52.7524 38.3074 52.7991 38.5175C52.8458 38.7043 52.7991 38.9028 52.659 39.0429C52.589 39.1246 51.9118 39.8134 51.0596 39.8134H51.0479Z" fill="white"/>
<path d="M40.4708 29.9134C40.4708 29.9134 43.0042 31.5128 47.067 32.7503C51.1414 33.9878 52.2155 38.646 52.2155 38.646C52.2155 38.646 51.6668 39.2297 51.048 39.2297C50.7094 39.2297 50.3475 39.0546 50.0323 38.5292C49.145 37.0232 47.9075 36.3694 45.3741 34.7817C42.8407 33.1823 40.4708 29.925 40.4708 29.925V29.9134ZM40.4708 28.7576C40.1556 28.7576 39.8404 28.886 39.6185 29.1312C39.2333 29.5398 39.1983 30.1585 39.5251 30.6138C39.6302 30.7539 42.0702 34.0812 44.7554 35.774L45.6076 36.3111C47.5223 37.5019 48.3979 38.0506 49.0283 39.1363C49.6821 40.2454 50.5693 40.4205 51.048 40.4205C52.1221 40.4205 52.9276 39.6267 53.0677 39.4632C53.3362 39.183 53.4413 38.7861 53.3479 38.4008C53.3012 38.179 52.0637 33.0655 47.4055 31.6529C43.5529 30.4854 41.1129 28.9677 41.0895 28.9444C40.9027 28.8276 40.6809 28.7692 40.4708 28.7692V28.7576Z" fill="#333333"/>
<path d="M37.9956 33.9761C37.8672 33.9761 37.7388 33.9294 37.6337 33.8477C37.6104 33.8243 36.6764 33.1472 34.6917 33.1472C33.5359 33.1472 32.2517 33.369 30.8624 33.8243C30.804 33.8477 30.7457 33.8477 30.6873 33.8477C30.5122 33.8477 30.3487 33.7776 30.2437 33.6375C30.0919 33.4507 30.0685 33.1939 30.1853 32.9837C30.4188 32.5635 32.5085 28.8743 34.8084 28.8743C35.0069 28.8743 35.2054 28.8976 35.3922 28.956C37.8555 29.6565 38.556 33.1355 38.5793 33.2873C38.626 33.5324 38.521 33.7776 38.3108 33.8944C38.2174 33.9527 38.1124 33.9761 38.0073 33.9761H37.9956Z" fill="white"/>
<path d="M34.7969 29.458C34.937 29.458 35.0771 29.4813 35.2172 29.5164C37.3653 30.1234 37.9958 33.3923 37.9958 33.3923C37.9958 33.3923 36.9684 32.5634 34.6919 32.5634C33.6295 32.5634 32.3102 32.7386 30.6875 33.2639C30.6875 33.2639 32.7772 29.458 34.7969 29.458ZM34.7969 28.2905C32.2052 28.2905 30.057 31.968 29.6601 32.7035C29.4266 33.1238 29.485 33.6375 29.7885 34.0111C30.0103 34.2796 30.3489 34.4314 30.6875 34.4314C30.8042 34.4314 30.9326 34.408 31.0494 34.373C32.3686 33.9411 33.6061 33.7309 34.6919 33.7309C36.4664 33.7309 37.2486 34.2913 37.2836 34.3146C37.4938 34.4664 37.7389 34.5481 37.9958 34.5481C38.2059 34.5481 38.4277 34.4898 38.6145 34.373C39.0231 34.1162 39.2333 33.6492 39.1516 33.1705C39.0698 32.7619 38.311 29.1661 35.5441 28.3956C35.3106 28.3256 35.0538 28.2905 34.8086 28.2905H34.7969Z" fill="#333333"/>
<path d="M38.1826 38.7744C38.0309 38.7744 37.8791 38.716 37.7624 38.5993C37.5872 38.4125 37.5405 38.1439 37.669 37.9221C37.669 37.9221 37.7507 37.7587 37.8558 37.5135C37.8207 35.9258 35.5792 31.431 34.7036 29.8083C34.5635 29.5631 34.6336 29.2479 34.8554 29.0728C34.9604 28.991 35.0889 28.9443 35.2173 28.9443C35.3574 28.9443 35.4975 28.991 35.6025 29.0961L38.171 31.396C40.3775 33.3807 39.5252 36.4395 39.0115 37.7587C38.9648 38.3424 38.673 38.5993 38.4395 38.716C38.3578 38.7627 38.2644 38.7744 38.1826 38.7744Z" fill="white"/>
<path d="M35.2172 29.5164L37.7857 31.8163C39.7587 33.5909 38.9298 36.4161 38.4394 37.6186C38.5095 35.6339 35.2172 29.5164 35.2172 29.5164ZM38.4394 37.6186C38.4394 37.8988 38.346 38.109 38.1826 38.1907C38.1826 38.1907 38.2993 37.9805 38.4394 37.6186ZM35.2172 28.349C34.9604 28.349 34.7035 28.4307 34.4934 28.5941C34.0498 28.9444 33.9213 29.5631 34.1899 30.0651C35.4274 32.3767 37.1436 36.0542 37.2603 37.3851C37.2019 37.5252 37.1552 37.6186 37.1435 37.6303C36.9101 38.0739 36.9918 38.6343 37.342 38.9962C37.5638 39.2297 37.8674 39.3465 38.1709 39.3465C38.346 39.3465 38.5328 39.3114 38.6963 39.218C38.9881 39.0663 39.4785 38.7044 39.5835 37.8755C40.1439 36.4045 40.9962 33.1356 38.5562 30.9407L35.9878 28.6408C35.7659 28.4424 35.4858 28.3373 35.2056 28.3373L35.2172 28.349Z" fill="#333333"/>
<path d="M102.463 35.7856C102.358 35.7856 101.424 35.7623 100.362 34.8984C99.6845 34.3613 99.8947 33.404 100.14 32.2949C100.432 30.9757 100.782 29.3296 99.9531 27.8819C98.5754 25.4769 98.5871 22.5933 98.6572 21.4608C98.6572 21.2274 98.6922 21.0873 98.6922 21.0873C98.7389 20.8071 98.9841 20.5969 99.2642 20.5969C99.2876 20.5969 99.3226 20.5969 99.346 20.5969C99.6612 20.6436 99.883 20.9238 99.848 21.239C99.848 21.239 99.848 21.3441 99.8246 21.4959C99.813 22.1497 99.953 23.8425 101.681 25.5586C104.343 28.2205 104.67 33.8126 102.883 35.5988C102.778 35.7039 102.627 35.774 102.475 35.774L102.463 35.7856Z" fill="white"/>
<path d="M99.2643 21.1923C99.2643 21.1923 99.2527 21.2974 99.241 21.4958C99.241 21.309 99.2643 21.1923 99.2643 21.1923ZM99.241 21.4958C99.2176 22.208 99.3694 24.1109 101.261 26.0022C103.666 28.4072 104.063 33.6141 102.463 35.2135C102.463 35.2135 101.658 35.2135 100.724 34.4547C99.778 33.6958 102.066 30.4036 100.467 27.6017C99.1359 25.2784 99.1826 22.4181 99.241 21.4958ZM99.2643 20.0365C98.7039 20.0365 98.2136 20.4334 98.1085 21.0055C98.1085 21.0055 98.0852 21.1573 98.0735 21.4491C98.0035 22.6399 98.0035 25.652 99.4511 28.1854C100.163 29.4346 99.8481 30.8939 99.5679 32.1781C99.311 33.3689 99.0425 34.6064 99.9882 35.3653C101.191 36.3226 102.253 36.381 102.463 36.381C102.778 36.381 103.07 36.2526 103.292 36.0424C104.319 35.0151 104.775 33.0537 104.53 30.7888C104.273 28.524 103.385 26.4809 102.09 25.185C100.537 23.6323 100.397 22.1379 100.408 21.5542C100.408 21.4258 100.42 21.3441 100.42 21.3324C100.49 20.7136 100.047 20.1532 99.4278 20.0598C99.3694 20.0598 99.311 20.0482 99.2643 20.0482V20.0365Z" fill="#333333"/>
<path d="M53.2778 32.937C53.1494 32.937 53.0327 32.902 52.9276 32.8203C52.7875 32.7152 49.5303 30.2285 49.5303 26.9479C49.5303 24.0993 48.0242 21.0639 48.0126 21.0289C47.8841 20.772 47.9659 20.4685 48.1877 20.2934C48.2928 20.2117 48.4095 20.1766 48.5379 20.1766C48.678 20.1766 48.8298 20.235 48.9465 20.3401C49.0399 20.4218 51.1063 22.4182 52.7291 25.4302C54.1884 28.1271 55.3326 30.4737 54.7021 31.898C54.5504 32.2599 54.2001 32.7269 53.4179 32.9137C53.3712 32.9253 53.3245 32.937 53.2778 32.937Z" fill="white"/>
<path d="M48.5496 20.7721C48.5496 20.7721 50.6277 22.7568 52.2154 25.7104C53.8148 28.6641 55.3909 31.828 53.2895 32.3533C53.2895 32.3533 50.1257 29.9717 50.1257 26.948C50.1257 23.9242 48.5496 20.7721 48.5496 20.7721ZM48.5496 19.6046C48.3044 19.6046 48.0593 19.6747 47.8608 19.8381C47.4055 20.1767 47.2537 20.7954 47.5105 21.2974C47.5105 21.2974 48.9699 24.2511 48.9699 26.9596C48.9699 30.5204 52.4489 33.1822 52.589 33.299C52.7992 33.4507 53.0443 33.5325 53.2895 33.5325C53.3829 33.5325 53.4763 33.5325 53.5697 33.4974C54.5737 33.2523 55.029 32.6218 55.2392 32.1549C55.9747 30.4854 54.7722 28.0104 53.2428 25.1734C51.585 22.0913 49.4485 20.0249 49.3551 19.9432C49.1333 19.733 48.8415 19.6163 48.5496 19.6163V19.6046Z" fill="#333333"/>
<path d="M81.3905 16.3007C80.9819 16.3007 80.4099 16.1606 79.9545 15.4834C79.8611 15.3317 79.8261 15.1566 79.8845 14.9814C79.9312 14.8297 81.0987 11.2689 83.9239 10.2766C86.3522 9.42431 88.5004 7.22947 88.5121 7.20613C88.6288 7.08938 88.7806 7.03101 88.9323 7.03101C89.0491 7.03101 89.1658 7.06603 89.2592 7.13608C89.4927 7.29952 89.5744 7.60306 89.4577 7.85991C89.411 7.96498 88.3253 10.3466 86.2355 12.6465C84.4143 14.6545 82.7915 16.3123 81.3788 16.3123L81.3905 16.3007Z" fill="white"/>
<path d="M88.9438 7.61477C88.9438 7.61477 87.8697 9.98472 85.815 12.2496C84.2506 13.9775 82.5811 15.7286 81.3903 15.7286C81.0284 15.7286 80.7015 15.5652 80.4447 15.1683C80.4447 15.1683 81.5304 11.7476 84.1222 10.837C86.7139 9.92635 88.9438 7.62645 88.9438 7.62645V7.61477ZM88.9438 6.45898C88.6403 6.45898 88.3367 6.57573 88.1032 6.80922C88.1032 6.80922 86.0251 8.93401 83.7369 9.73956C80.6314 10.8253 79.3823 14.6546 79.3356 14.818C79.2305 15.1566 79.2772 15.5185 79.4757 15.8104C79.931 16.5108 80.6198 16.8961 81.3903 16.8961C83.0364 16.8961 84.7643 15.1449 86.6789 13.0435C88.827 10.6735 89.9595 8.21018 90.0062 8.10511C90.2397 7.59142 90.0646 6.97267 89.5976 6.65745C89.3991 6.51736 89.1656 6.45898 88.9438 6.45898Z" fill="#333333"/>
<path d="M56.7919 34.4548C56.0797 34.4548 55.3676 33.8127 55.3676 32.3884C55.3676 32.0965 55.3792 31.828 55.4026 31.5711C55.4843 30.1585 55.531 29.3063 52.1454 27.7652C47.6857 25.7338 46.0279 23.3055 45.9578 23.2004C45.806 22.9786 45.8294 22.6867 46.0045 22.4883C46.1213 22.3598 46.2847 22.2898 46.4482 22.2898C46.5415 22.2898 46.6233 22.3131 46.705 22.3482C46.74 22.3598 49.9038 23.9359 53.7915 25.5003C57.9593 27.1698 58.9634 30.2052 58.5081 32.4934C58.2746 33.6842 57.5974 34.4431 56.7919 34.4431V34.4548Z" fill="white"/>
<path d="M46.4366 22.8735C46.4366 22.8735 49.6004 24.4613 53.5698 26.0373C57.5275 27.6251 58.3214 30.392 57.9245 32.3767C57.726 33.369 57.2357 33.8594 56.7803 33.8594C56.325 33.8594 55.9398 33.369 55.9398 32.3767C55.9398 30.392 56.7336 29.2128 52.379 27.2282C48.0244 25.2435 46.4366 22.8735 46.4366 22.8735ZM46.4366 21.7061C46.1097 21.7061 45.7828 21.8462 45.561 22.103C45.2108 22.4999 45.1757 23.0837 45.4676 23.5273C45.5377 23.6324 47.2889 26.2008 51.9003 28.3022C54.9241 29.6798 54.889 30.2636 54.819 31.5361C54.8073 31.8046 54.784 32.0848 54.784 32.3883C54.784 34.2096 55.823 35.0385 56.792 35.0385C57.6209 35.0385 58.7183 34.4081 59.0802 32.6102C59.5823 30.0884 58.5199 26.7612 54.0135 24.9633C50.1491 23.4222 46.997 21.8462 46.9736 21.8345C46.8102 21.7528 46.6234 21.7061 46.4483 21.7061H46.4366Z" fill="#333333"/>
<path d="M111.418 18.4839C111.231 18.4839 111.044 18.3905 110.939 18.227C110.904 18.1803 109.421 16.1839 104.67 16.1839H104.483C104.249 16.1839 104.028 16.0439 103.946 15.822C103.852 15.6002 103.911 15.3434 104.086 15.1799C104.366 14.9114 106.899 12.5298 109.001 12.5298C109.48 12.5298 109.9 12.6465 110.262 12.88C112.41 14.281 112.036 17.8184 112.013 17.9585C111.99 18.2037 111.803 18.4021 111.569 18.4605C111.523 18.4605 111.476 18.4722 111.429 18.4722L111.418 18.4839Z" fill="white"/>
<path d="M108.977 13.1135C109.316 13.1135 109.643 13.1952 109.923 13.3704C111.791 14.5845 111.417 17.9001 111.417 17.9001C111.417 17.9001 109.876 15.6002 104.658 15.6002C104.599 15.6002 104.529 15.6002 104.471 15.6002C104.471 15.6002 107.051 13.1135 108.977 13.1135ZM108.977 11.946C106.654 11.946 103.957 14.4678 103.665 14.7596C103.315 15.0865 103.21 15.6002 103.397 16.0438C103.572 16.4875 104.004 16.7677 104.483 16.7677H104.669C109.082 16.7677 110.46 18.5539 110.472 18.5772C110.694 18.8808 111.055 19.0559 111.429 19.0559C111.522 19.0559 111.628 19.0442 111.721 19.0209C112.188 18.8925 112.538 18.5189 112.585 18.0402C112.632 17.6316 112.982 13.9658 110.565 12.4014C110.11 12.0978 109.573 11.946 108.989 11.946H108.977Z" fill="#333333"/>
<path d="M110.168 23.1187C109.946 23.1187 109.748 23.002 109.643 22.8035C109.526 22.5817 109.573 22.3015 109.748 22.1264C109.748 22.1264 109.876 21.998 110.051 21.7878C110.483 20.2584 109.689 15.3084 109.339 13.4871C109.281 13.207 109.444 12.9268 109.701 12.8334C109.771 12.81 109.841 12.7983 109.911 12.7983C110.11 12.7983 110.308 12.9034 110.413 13.0785L112.176 16.0439C113.694 18.6006 111.966 21.2625 111.079 22.3715C110.857 22.9086 110.507 23.072 110.25 23.1187C110.215 23.1187 110.191 23.1187 110.156 23.1187H110.168Z" fill="white"/>
<path d="M109.923 13.3821L111.686 16.3474C113.04 18.6356 111.406 21.0757 110.577 22.0797C111.242 20.2001 109.923 13.3821 109.923 13.3821ZM110.577 22.0797C110.483 22.3482 110.343 22.5116 110.156 22.5467C110.156 22.5467 110.332 22.3715 110.577 22.0797ZM109.923 12.2146C109.783 12.2146 109.643 12.2379 109.503 12.2963C108.977 12.4948 108.662 13.0552 108.767 13.6039C109.269 16.184 109.795 20.2001 109.514 21.5076C109.409 21.6244 109.339 21.6944 109.328 21.7061C108.966 22.068 108.884 22.6167 109.117 23.072C109.316 23.4689 109.725 23.7024 110.156 23.7024C110.215 23.7024 110.285 23.7024 110.343 23.6908C110.67 23.6324 111.242 23.4339 111.581 22.6751C112.561 21.4376 114.348 18.5656 112.678 15.752L110.915 12.7867C110.705 12.4247 110.308 12.2146 109.911 12.2146H109.923Z" fill="#333333"/>
<path d="M86.9241 13.8606C86.352 13.8606 85.8967 13.6154 85.6983 13.1835C85.3947 12.5647 85.6516 11.7358 86.4571 10.7435C86.5038 10.6734 86.5739 10.6267 86.6556 10.58C86.8307 10.4983 90.8935 8.50195 94.6527 8.50195C96.3689 8.50195 97.7582 8.92224 98.7972 9.75114C98.9957 9.91458 99.0657 10.1831 98.9723 10.4166C98.8789 10.6384 98.6688 10.7902 98.4236 10.7902H98.3886C98.3886 10.7902 97.8866 10.7552 97.1394 10.7552C93.7538 10.7552 91.162 11.3389 90.0179 12.3546C88.9672 13.2886 87.823 13.8489 86.9358 13.8489L86.9241 13.8606Z" fill="white"/>
<path d="M94.6409 9.0974C96.0419 9.0974 97.3845 9.38926 98.4118 10.2182C98.4118 10.2182 97.9098 10.1831 97.1276 10.1831C95.1312 10.1831 91.337 10.3933 89.6208 11.9343C88.5935 12.845 87.5894 13.2769 86.924 13.2769C86.0484 13.2769 85.7799 12.5064 86.9006 11.1054C86.9006 11.1054 90.9751 9.0974 94.6409 9.0974ZM94.6409 7.92993C90.7533 7.92993 86.5621 9.97299 86.3869 10.0664C86.2352 10.1364 86.0951 10.2532 85.99 10.3816C85.0327 11.5724 84.7525 12.5998 85.1611 13.4404C85.4646 14.0825 86.1068 14.4444 86.924 14.4444C87.963 14.4444 89.2239 13.849 90.3913 12.7983C91.407 11.8876 93.9288 11.3506 97.1159 11.3506C97.8398 11.3506 98.3301 11.3856 98.3301 11.3856C98.3535 11.3856 98.3768 11.3856 98.4002 11.3856C98.8788 11.3856 99.3108 11.0938 99.4859 10.6384C99.6727 10.1598 99.5209 9.62275 99.124 9.30754C97.9799 8.39692 96.4738 7.92993 94.6176 7.92993H94.6409Z" fill="#333333"/>
</g>
<defs>
<clipPath id="clip0_1_2701">
<rect width="140" height="140" fill="white"/>
</clipPath>
</defs>
</svg>
