<svg xmlns="http://www.w3.org/2000/svg" width="140" height="140" viewBox="0 0 140 140">
  <g fill="none" fill-rule="evenodd" transform="translate(1.111)">
    <path stroke="#333" stroke-linecap="round" stroke-linejoin="round" stroke-width="1.5" d="M99.2316667,44.8565528 C99.2316667,53.8409972 99.9071111,54.3038861 98.2956667,59.9413306 C93.3074444,77.494775 88.8878889,83.4764417 85.0134444,86.3961084 C80.274,89.9565528 77.6317778,91.1316411 69.5865556,91.1316411 C58.9465556,91.1434417 56.5768889,89.9565528 51.8374444,86.3961084 C46.5885556,82.455775 43.5434444,76.3672195 39.6926667,57.8525528 C38.4012222,51.6572195 39.5031111,48.4052195 39.7282222,45.4262195 C40.8775556,29.8785528 33.9816667,10.1888861 69.5865556,11.2214417 C98.3075556,12.0522195 99.2316667,25.6059972 99.2316667,44.8565528 Z"/>
    <path stroke="#333" stroke-linecap="round" stroke-linejoin="round" stroke-width="1.5" d="M76.601 50.2802195C76.601 50.2802195 79.6461111 48.2625528 82.549 48.2625528 84.4803333 48.2625528 87.6913333 49.2951084 89.7411111 51.3483306M79.03 46.541775C79.03 46.541775 81.3404444 45.1413306 82.8452222 45.3074417 84.0537778 45.4379972 85.2267778 45.9839972 86.3997778 46.5298861M51.3335556 46.541775C51.3335556 46.541775 53.644 45.1413306 55.1487778 45.3074417 56.3573333 45.4379972 57.5303333 45.9839972 58.7033333 46.5298861"/>
    <path fill="#333" fill-rule="nonzero" d="M79.575 49.4256639C79.575 49.4256639 78.5085556 51.5975528 79.4564444 52.392775 80.6887778 53.4253306 82.312 53.4253306 83.5678889 52.392775 84.03 52.0129972 84.3498889 50.4225528 83.5678889 49.3069972 83.5678889 49.2951084 81.9565556 48.5236639 79.575 49.4256639zM75.6295556 40.1682195C75.5347778 39.6816639 75.7716667 39.2068861 76.1864444 39.0525528 78.3902222 38.2098861 86.08 37.7352195 87.5254444 37.7352195 90.5942222 37.7352195 91.708 41.5331084 91.708 41.5331084 91.708 41.5331084 89.8477778 40.3106639 87.798 40.3225528 85.76 40.3225528 78.4732222 40.7141084 76.6011111 40.9634417 76.139 41.022775 75.7243333 40.6785528 75.6295556 40.1682195z"/>
    <path stroke="#333" stroke-linecap="round" stroke-linejoin="round" stroke-width="1.5" d="M61.3163333,50.3635528 C61.3163333,50.3635528 58.2712222,48.4052195 55.3683333,48.4052195 C53.437,48.4052195 50.2261111,49.4022195 48.1762222,51.4078861"/>
    <path fill="#333" fill-rule="nonzero" d="M58.3303333 49.5325528C58.3303333 49.5325528 59.3967778 51.6452195 58.4488889 52.404775 57.2166667 53.4016639 55.5933333 53.4016639 54.3374444 52.404775 53.8753333 52.0368861 53.5554444 50.4939972 54.3374444 49.4021084 54.3374444 49.4138861 55.9606667 48.6543306 58.3303333 49.5325528zM62.2877778 40.1682195C62.3825556 39.6816639 62.1456667 39.2068861 61.7308889 39.0525528 59.5271111 38.2098861 51.8373333 37.7352195 50.3918889 37.7352195 47.3231111 37.7352195 46.2093333 41.5331084 46.2093333 41.5331084 46.2093333 41.5331084 48.0695556 40.3106639 50.1193333 40.3225528 52.1573333 40.3225528 59.4441111 40.7141084 61.3162222 40.9634417 61.7664444 41.022775 62.193 40.6785528 62.2877778 40.1682195z"/>
    <path stroke="#333" stroke-linecap="round" stroke-linejoin="round" stroke-width="1.5" d="M55.3918889 61.4724417C60.627 61.4724417 64.8707778 57.2214417 64.8707778 51.9776639 64.8707778 46.7338861 60.627 42.4828861 55.3918889 42.4828861 50.1568889 42.4828861 45.9131111 46.7338861 45.9131111 51.9776639 45.9131111 57.2214417 50.1568889 61.4724417 55.3918889 61.4724417zM82.6437778 61.4724417C87.8787778 61.4724417 92.1225556 57.2214417 92.1225556 51.9776639 92.1225556 46.7338861 87.8787778 42.4828861 82.6437778 42.4828861 77.4086667 42.4828861 73.1648889 46.7338861 73.1648889 51.9776639 73.1648889 57.2214417 77.4086667 61.4724417 82.6437778 61.4724417zM64.8708889 51.9775528C64.8708889 51.9775528 68.4254444 49.6038861 73.1648889 51.9775528"/>
    <line x1="38.105" x2="45.439" y1="47.764" y2="50.174" stroke="#333" stroke-linecap="round" stroke-linejoin="round" stroke-width="1.5"/>
    <line x1="99.942" x2="92.608" y1="47.764" y2="50.174" stroke="#333" stroke-linecap="round" stroke-linejoin="round" stroke-width="1.5"/>
    <path stroke="#333" stroke-linecap="round" stroke-linejoin="round" stroke-width="1.5" d="M66.0557778,62.2675528 C66.0557778,62.2675528 64.8708889,65.8755528 68.4254444,67.2404417"/>
    <path fill="#333" fill-rule="nonzero" d="M76.7194444,18.7458861 C76.7194444,18.7458861 69.7643333,39.6579972 64.3613333,45.2243306 C64.3613333,45.2243306 69.6103333,27.053775 68.4254444,22.3064417 C68.4254444,22.3064417 60.0247778,41.6756639 54.7403333,43.8594417 C54.7403333,43.8594417 62.5011111,24.1222195 63.0935556,18.4728861 C63.686,12.8235528 63.0935556,18.8764417 63.0935556,18.8764417 C63.0935556,18.8764417 56.4702222,31.8248861 50.0008889,35.9669972 C43.5316667,40.1089972 42.2282222,41.2958861 39.977,44.8564417 C39.977,44.8564417 39.0646667,55.561775 39.977,59.0985528 C40.8893333,62.6353306 44.5032222,80.2955528 48.1644444,82.7523306 C48.1644444,82.7523306 49.4558889,92.3301084 47.0862222,95.8905528 L42.3467778,89.9564417 L39.977,80.4616639 L38.7922222,69.7801084 L36.4224444,75.7143306 C36.4224444,75.7143306 36.4224444,68.5932195 35.2376667,63.8458861 C35.2376667,66.2195528 34.0527778,68.5932195 34.0527778,68.5932195 L32.8678889,63.8458861 L30.4982222,66.2195528 C30.4982222,66.2195528 30.4982222,57.9116639 29.3133333,53.1643306 C28.1876667,48.6662195 25.7587778,37.7353306 36.4224444,15.1853306 C42.9154444,1.4535528 69.5984444,-4.99100276 81.447,4.50377502 C81.447,4.50377502 93.2955556,6.87744168 100.404667,21.1195528 C107.513556,35.3616639 108.651333,56.1551084 106.898,60.5939972 L105.155778,59.0985528 C105.155778,59.0985528 105.155778,61.4722195 103.971333,65.032775 L102.785778,62.6591084 C102.785778,62.6591084 101.601444,67.4064417 100.416556,70.9669972 L99.3738889,67.4064417 C99.3738889,67.4064417 99.2316667,67.4064417 96.862,74.5274417 C96.862,74.5274417 96.862,73.3406639 95.6771111,70.9669972 C89.7528889,87.582775 88.568,91.1314417 88.568,91.1314417 L87.3357778,95.8905528 L87.2291111,84.4019972 C87.2291111,84.4019972 89.7528889,79.2748861 93.3074444,69.7801084 C95.452,64.0476639 99.2316667,56.7248861 96.862,49.603775 C95.0254444,44.0849972 95.6771111,41.2958861 89.7528889,29.4274417 C87.2883333,24.4902195 82.6437778,19.9326639 82.6437778,19.9326639 C82.6437778,19.9326639 86.1983333,35.3616639 94.4923333,44.8564417 C94.4923333,44.8564417 85.0134444,49.603775 76.7194444,18.7458861 Z"/>
    <path fill="#333" fill-rule="nonzero" d="M62.2997778,90.8228861 C62.2997778,90.8228861 64.6813333,87.7488861 67.1458889,87.6658861 C69.6103333,87.582775 74.101,87.6895528 76.601,90.5973306 L70.2027778,93.9798861 L69.5866667,91.1314417 L65.8662222,94.762775 L65.8662222,92.1283306 L62.2997778,90.8228861 Z"/>
    <path stroke="#333" stroke-linecap="round" stroke-linejoin="round" stroke-width="1.5" d="M58.9466667 75.7142195C58.9466667 75.7142195 59.6457778 75.7142195 60.878 75.7142195 62.1102222 75.7142195 61.7903333 76.2838861 67.2287778 76.2838861 73.6863333 76.2838861 74.7407778 74.6578861 76.838 74.6578861M64.2073333 78.8712195C64.2073333 78.8712195 66.3164444 79.6664417 68.4135556 79.6664417 70.5107778 79.6664417 72.6198889 78.8712195 72.6198889 78.8712195M48.1762222 82.7523306C48.1762222 82.7523306 48.1287778 94.7038861 47.0151111 98.2638861 45.9131111 101.824997 54.2071111 111.081664 58.9465556 114.168331 58.9465556 114.168331 56.5768889 110.132775 51.8374444 119.627219 47.098 129.122775 43.9936667 137.928331 43.9936667 137.928331 43.9936667 137.928331 29.3251111 111.319442 31.6948889 103.011664 34.0645556 94.7038861 35.0361111 93.6474417 38.1048889 94.7749972 41.1736667 95.902775 43.5434444 91.0245528 45.9131111 92.270775M58.9466667 114.168331C58.9466667 114.168331 65.8188889 125.597219 63.5676667 129.133886 61.3164444 132.682775 62.2997778 139.103886 62.2997778 139.103886M87.2291111 84.3902195C87.2291111 84.3902195 87.2291111 93.5051084 87.2291111 97.0661084 87.2291111 100.626108 75.5345556 114.369442 73.1648889 116.992775 73.1648889 116.992775 76.7194444 119.616108 77.9043333 125.549442 79.0891111 131.483886 84.0418889 138.604997 84.0418889 138.604997M87.3356667 95.8905528C87.3356667 95.8905528 90.5465556 91.1433306 95.4755556 98.2638861 100.404556 105.384997 101.565778 102.762775 102.17 108.814997 102.774667 114.868331 96.8618889 120.838331 93.8997778 129.133886 90.9375556 137.430553 89.729 139.103886 89.729 139.103886"/>
    <path stroke="#333" stroke-linecap="round" stroke-linejoin="round" stroke-width="1.5" d="M100.416667 104.198331C100.416667 104.198331 118.082444 110.809442 126.483556 116.067219 135.962444 122.000553 137.111333 139.103886 137.111333 139.103886M31.4342222 104.233886C31.4342222 104.233886 9.21822222 112.624997 5.65177778 116.719442 2.0735 120.813886-5.92118946e-15 138.617219-5.92118946e-15 138.617219M12.4647778 112.376108C12.4647778 112.376108 18.1165556 114.868331 18.1165556 138.604997M123.178 114.168331C123.178 114.168331 119.516889 122.973886 119.516889 139.103886M73.165 116.992775C73.165 116.992775 70.653 119.413886 71.3165556 124.268331 71.9801111 129.122775 73.2715556 135.056108 73.8166667 138.617219M63.0105556 122.618331C63.0105556 122.618331 65.4632222 123.804997 70.795 123.188331M63.0105556 130.926108C63.0105556 130.926108 65.8304444 132.302775 71.9798889 131.579442"/>
  </g>
</svg>
