<svg xmlns="http://www.w3.org/2000/svg" width="140" height="140" viewBox="0 0 140 140">
  <g fill="none" fill-rule="evenodd" transform="translate(1.694)">
    <path stroke="#333" stroke-linecap="round" stroke-linejoin="round" stroke-width="1.5" d="M74.1060645 75.332871C74.1060645 75.332871 72.8864839 78.3152097 70.5325645 78.6910645M36.9189032 58.4815C37.2116613 65.016 41.4438387 87.0319032 50.2375323 93.5178548 56.9821452 98.4884194 58.5311774 103.7015 70.2398065 103.240742 79.3505323 102.877081 83.0216935 97.2882581 89.2296774 90.3900968 93.6570645 85.4801613 101.18229 66.0707419 99.6576452 53.2079032 96.6939355 28.0398548 83.3266452 22.0388226 70.8008226 20.2445645 57.0918871 18.2926935 35.5528871 28.1611129 36.9189032 58.4815z"/>
    <path stroke="#333" stroke-linecap="round" stroke-linejoin="round" stroke-width="1.5" d="M78.2648548,61.2940323 C78.2648548,61.2940323 78.6551613,58.1904355 82.3507097,58.2996129 C86.290129,58.4086774 87.5098226,58.4086774 91.1687903,62.045629"/>
    <path fill="#333" fill-rule="nonzero" d="M81.375,58.4330645 C81.375,58.4330645 78.9723065,63.343 83.9849839,63.743129 C85.9852903,63.9007419 88.1561935,62.0336613 87.3146129,59.9242903 C87.3024194,59.936371 84.4606452,57.6571935 81.375,58.4330645 Z"/>
    <path stroke="#333" stroke-linecap="round" stroke-linejoin="round" stroke-width="1.5" d="M61.8973871,61.2940323 C61.8973871,61.2940323 61.5071935,58.1904355 57.8116452,58.2996129 C53.8721129,58.4086774 52.6525323,58.4086774 48.9935645,62.045629"/>
    <path fill="#333" fill-rule="nonzero" d="M58.7873548,58.4330645 C58.7873548,58.4330645 61.1900484,63.343 56.1772581,63.743129 C54.1770645,63.9007419 52.0060484,62.0336613 52.847629,59.9242903 C52.8598226,59.936371 55.7015968,57.6571935 58.7873548,58.4330645 Z"/>
    <path stroke="#333" stroke-linecap="round" stroke-linejoin="round" stroke-width="1.5" d="M78.6308871 49.9952419C78.6308871 49.9952419 87.4245806 50.1043065 89.9859032 51.6803226 92.5349194 53.2564516 93.8887419 54.6263065 93.8887419 54.6263065M61.9582419 50.3587903C61.9582419 50.3587903 53.1646613 50.0557581 50.542371 51.5105161 47.9200806 52.9653871 46.5052903 54.2746129 46.5052903 54.2746129M59.458 85.0798065C59.458 85.0798065 63.592629 87.1286613 69.288371 87.1286613 74.9842258 87.1286613 80.1921129 85.0798065 80.1921129 85.0798065"/>
    <path fill="#333" fill-rule="nonzero" d="M57.3601452,21.8569355 C57.3601452,21.8569355 72.8740645,18.401871 77.7527258,26.888129 C81.8995484,34.1137097 80.1066452,47.6675161 92.3884839,53.5594839 C104.670323,59.4513387 92.3519032,85.9771613 89.9492097,89.9293387 C89.9492097,89.9293387 98.4623387,91.1780484 102.145694,89.9293387 C105.829048,88.680629 113.708226,68.4469032 113.159516,64.6522258 C113.159516,64.6522258 111.415048,79.5761129 108.951274,83.2979677 C108.951274,83.2979677 113.122258,81.4308871 114.341613,75.3692258 C115.818387,68.0225 116.367097,65.8039516 113.830161,57.1115323 C110.68321,46.2733871 106.987661,-7.19046774 55.7990323,6.26641129 C49.4933871,7.92729677 40.9802581,12.1219677 35.0649194,22.0267419 C29.1496935,31.9315161 25.7834839,41.8119032 28.0397419,58.8694355 C28.0397419,58.8694355 29.5887742,56.1659677 32.3939677,58.5784839 C32.3939677,58.5784839 32.7475806,64.7250484 33.9794677,65.9737581 C35.2113548,67.2224677 35.7114032,67.2709032 36.0773226,72.2171935 C36.443129,77.1634839 45.1026935,85.0436774 42.6146452,89.1898226 C42.6146452,89.1898226 46.029629,84.9709677 41.2364355,78.582 C36.443129,72.1929194 36.7480806,69.8773871 37.8213387,65.4402903 C38.8947097,61.0031935 42.1389839,51.2196774 41.3461774,48.5646452 C39.9435806,43.8607581 47.2614032,26.888129 57.3601452,21.8569355 Z"/>
    <path stroke="#333" stroke-linecap="round" stroke-linejoin="round" stroke-width="1.5" d="M41.2365484,78.5940806 C41.2365484,78.5940806 38.724,79.018371 35.3821774,80.5216774 C32.0403548,82.0249839 26.5275161,63.2580968 28.0399677,58.881629 C29.5523065,54.5050484 34.7723871,58.881629 34.7723871,58.881629"/>
    <path fill="#333" fill-rule="nonzero" d="M33.1503065,79.2122258 C33.1503065,79.2122258 32.625871,83.8675645 37.5044194,86.2922742 C42.3830806,88.716871 45.7249032,88.3774839 45.7249032,88.3774839 L41.1633871,77.8059032 C41.1633871,77.8059032 37.5044194,81.4429677 33.1503065,79.2122258 Z"/>
    <path stroke="#333" stroke-linecap="round" stroke-linejoin="round" stroke-width="1.5" d="M51.8718065 94.8029194C51.8718065 94.8029194 55.6039355 113.533226 33.138 120.51629 33.138 120.51629 38.3458871 134.894516 48.8959032 139.683871M87.4978548 92.3540484C87.4978548 92.3540484 82.6313871 116.600806 102.145806 120.237419 102.145806 120.237419 95.2059839 130.045323 88.9126452 139.695161M37.5041935 118.867903C37.5041935 118.867903 52.908371 133.282258 63.5071613 134.034194M66.7759355 137.210161C68.1230968 137.210161 69.2152097 136.125161 69.2152097 134.785 69.2152097 133.445968 68.1230968 132.360968 66.7759355 132.360968 65.4287742 132.360968 64.3366613 133.445968 64.3366613 134.785 64.3366613 136.125161 65.4287742 137.210161 66.7759355 137.210161zM98.2794355 119.134355C98.2794355 119.134355 85.0706613 134.786129 69.2152097 134.786129"/>
    <path stroke="#333" stroke-linecap="round" stroke-linejoin="round" stroke-width="1.5" d="M102.145694 120.237419C102.145694 120.237419 111.902903 122.662581 118.000806 123.874032L120.415806 139.695161M118.000806 123.875161C118.000806 123.875161 132.648871 122.770968 135.698387 139.695161M32.6257581 120.237419C32.6257581 120.237419 30.186371 121.45 18.6119839 123.874032L16.1969839 139.695161M18.6119839 123.875161C18.6119839 123.875161 3.96397581 122.770968.914858226 139.695161M61.8971613 87.3227419C61.8971613 87.3227419 70.8982581 92.3055 76.5330323 87.5652581"/>
    <path fill="#333" fill-rule="nonzero" d="M60.6411129,7.40592097 C60.6411129,7.40592097 67.5077742,-4.07485806 85.4975484,2.76268548 C103.487435,9.60024032 117.342581,29.2036613 113.549032,49.3404032 C109.756387,69.4772581 106.573081,63.9733387 106.573081,63.9733387 C106.573081,63.9733387 118.660161,42.6847581 104.951,26.4030968 C91.2420645,10.1215371 75.7891129,-4.80225968 60.6411129,7.40592097 Z"/>
    <path fill="#333" fill-rule="nonzero" d="M54.2379194,8.70322419 C54.2379194,8.70322419 60.6776935,-1.09241435 69.2152097,1.38073871 C69.2152097,1.38073871 59.9824355,5.07835323 54.2379194,8.70322419 Z"/>
    <polygon fill="#333" fill-rule="nonzero" points="66.776 2.399 74.106 6.691 75.801 5.454 69.215 1.381"/>
  </g>
</svg>
