<svg width="140" height="140" viewBox="0 0 140 140" fill="none" xmlns="http://www.w3.org/2000/svg">
<path d="M97.2466 63.4483C93.2994 41.0306 89.6568 32.1041 78.4582 29.9852C66.1882 27.6634 51.4598 33.3214 51.4598 33.3214C51.4598 33.3214 44.9752 37.5817 41.6145 44.6824C37.5546 53.282 38.2538 53.5638 38.2538 64.181C38.2538 70.0531 40.3965 79.3741 46.757 86.9143C51.471 92.5046 52.6101 92.437 54.9784 95.1307C60.854 101.814 62.0268 102.175 69.594 102.051C72.9548 101.995 75.9884 100.913 83.1496 95.4801C89.0252 91.0281 96.0624 89.2586 97.2353 76.3535" stroke="#333333" stroke-width="1.5" stroke-miterlimit="10" stroke-linecap="round" stroke-linejoin="round"/>
<path d="M71.421 56.3816C71.421 56.3816 74.6802 54.0372 79.6423 54.0372C82.7774 54.0372 87.8636 55.2094 87.8636 55.2094" stroke="#333333" stroke-width="1.5" stroke-miterlimit="10" stroke-linecap="round" stroke-linejoin="round"/>
<path d="M55.7001 99.4024V105.624C55.7001 105.624 46.1818 96.0888 47.3547 90.6224C47.3547 90.6224 53.4784 97.2272 55.7001 99.4024Z" fill="#333333"/>
<path d="M110.599 113.773C110.599 113.773 126.771 120.941 129.771 126.937C132.771 132.933 133.154 139.143 133.154 139.143" stroke="#333333" stroke-width="1.5" stroke-miterlimit="10" stroke-linecap="round" stroke-linejoin="round"/>
<path d="M34.8254 112.736C34.8254 112.736 14.0747 120.197 10.9509 126.441C7.82698 132.685 6.85712 139.155 6.85712 139.155" stroke="#333333" stroke-width="1.5" stroke-miterlimit="10" stroke-linecap="round" stroke-linejoin="round"/>
<path d="M87.8524 62.2762C86.4991 61.5999 85.5856 61.104 80.1385 61.104C74.6915 61.104 73.6652 64.2486 73.6652 64.2486" stroke="#333333" stroke-width="1.5" stroke-miterlimit="10" stroke-linecap="round" stroke-linejoin="round"/>
<path d="M85.5066 61.104C83.1609 59.9318 81.988 59.9318 80.1498 59.898C74.7028 59.7965 73.6652 63.2003 73.6652 63.2003" stroke="#333333" stroke-width="1.5" stroke-miterlimit="10" stroke-linecap="round" stroke-linejoin="round"/>
<path d="M62.0268 57.5537C62.0268 57.5537 57.2226 54.0372 52.9709 54.0372C50.2756 54.0372 47.9412 55.2094 47.9412 55.2094" stroke="#333333" stroke-width="1.5" stroke-miterlimit="10" stroke-linecap="round" stroke-linejoin="round"/>
<path d="M77.962 61.104C77.962 61.104 76.868 64.2486 77.962 65.2968C77.962 65.2968 80.1385 66.345 82.3151 65.2968C82.3151 65.2968 84.4917 63.2004 82.3151 61.104C82.3264 61.104 80.1385 61.104 77.962 61.104Z" fill="#333333"/>
<path d="M47.9412 62.2762C49.2606 60.439 52.0011 59.8417 55.0009 59.8417C58.0007 59.8417 60.9442 63.0426 60.9442 63.0426" stroke="#333333" stroke-width="1.5" stroke-miterlimit="10" stroke-linecap="round" stroke-linejoin="round"/>
<path d="M60.8539 62.2762C60.8539 62.2762 56.1625 58.7596 52.6326 58.7596C50.7831 58.7596 49.114 59.9318 49.114 59.9318" stroke="#333333" stroke-width="1.5" stroke-miterlimit="10" stroke-linecap="round" stroke-linejoin="round"/>
<path d="M57.8992 60.7321C57.8992 60.7321 58.4969 62.2762 57.3241 64.6318C57.3241 64.6318 54.9783 65.8039 52.9935 64.1584C52.9935 64.1584 51.4597 62.2874 52.9935 59.8868C52.9935 59.8868 54.9783 58.7597 57.8992 60.7321Z" fill="#333333"/>
<path d="M100.878 137.96H100.472C100.461 137.96 100.63 137.994 100.878 137.96Z" fill="#333333"/>
<path d="M116.035 118.146C108.987 104.553 105.468 97.7569 105.468 88.7064C105.468 74.5727 111.344 49.078 101.949 30.9545C97.8443 23.0424 94.9009 16.2348 86.6796 16.2348C72.5939 9.43843 55.531 14.1384 46.7683 23.0311C33.0097 36.9731 31.5098 64.9248 31.5098 72.8483C31.5098 93.8909 33.8556 104.553 32.6827 114.742C31.4647 125.359 20.4691 139.489 20.4691 139.489H51.4823C58.8015 134.113 61.5983 99.9209 57.3467 96.3029C41.0958 82.4736 46.1368 70.0193 47.9525 58.1285C50.9861 38.2805 60.8653 36.6125 64.3839 35.4854C66.8762 34.6851 76.1238 33.2199 76.1238 33.2199C87.8637 38.8779 89.0366 42.2817 93.7393 52.4706C95.0362 55.277 96.9985 61.2844 97.2579 64.9249C100.822 65.2179 98.239 55.8631 101.949 55.8631C107.825 55.8631 100.641 74.3135 95.9497 75.4518C93.604 86.779 90.2094 90.9718 85.518 93.226C84.3451 110.211 80.8265 112.477 90.2094 124.931C96.7165 133.553 88.8786 139.342 87.8749 139.489H121.5C121.5 141.017 121.347 128.414 116.035 118.146Z" fill="#333333"/>
<path d="M53.2642 116.906C53.2642 116.906 57.3241 130.634 62.0155 135.03" stroke="#333333" stroke-width="1.5" stroke-miterlimit="10" stroke-linecap="round" stroke-linejoin="round"/>
<path d="M51.471 139.031C51.471 139.031 87.1306 128.65 96.2992 120.693" stroke="#333333" stroke-width="1.5" stroke-miterlimit="10" stroke-linecap="round" stroke-linejoin="round"/>
<path d="M64.3725 70.4927C64.3725 70.4927 63.1996 76.3648 63.1996 77.537C63.1996 78.7091 66.7182 79.8813 67.8911 78.7091" stroke="#333333" stroke-width="1.5" stroke-miterlimit="10" stroke-linecap="round" stroke-linejoin="round"/>
<path d="M96.2992 61.8817C95.9383 61.9268 96.2992 67.0663 97.2465 67.8778C98.1938 68.6893 99.5358 63.2229 99.4231 61.4421C99.4231 61.4421 98.5209 66.5704 97.7878 66.5028C97.0661 66.4351 96.2992 61.8817 96.2992 61.8817Z" fill="#333333"/>
<path d="M99.1863 64.1359C99.5359 64.1809 99.1863 69.3204 98.2728 70.1319C97.3593 70.9434 96.0624 65.4771 96.1639 63.6963C96.1639 63.6963 97.0322 68.8245 97.7427 68.7569C98.4419 68.6893 99.1863 64.1359 99.1863 64.1359Z" fill="#333333"/>
<path d="M96.2992 59.6276C95.9383 59.6726 96.2992 64.8121 97.2465 65.6236C98.1938 66.4351 99.5358 60.9688 99.4231 59.188C99.4231 59.188 98.5209 64.3162 97.7878 64.2486C97.0661 64.181 96.2992 59.6276 96.2992 59.6276Z" fill="#333333"/>
<path d="M96.8856 64.1359C96.8856 64.1359 97.6074 69.8615 96.7954 72.6341C96.2203 74.584 97.551 77.537 97.551 77.537H98.1938C98.1938 77.537 97.0773 74.6742 97.0773 73.7838C97.0773 72.3411 97.6187 71.6423 97.6187 70.2109C97.6187 68.6217 97.3593 64.1246 97.3593 64.1246H96.8856V64.1359Z" fill="#333333"/>
<path d="M96.0962 64.1246C96.0962 64.1246 96.536 69.8728 95.5774 72.6116C94.912 74.5389 96.0962 77.5482 96.0962 77.5482L96.7277 77.582C96.7277 77.582 95.7466 74.6741 95.7917 73.7838C95.8594 72.3411 96.4345 71.6648 96.5022 70.2447C96.5811 68.6555 96.5473 64.1584 96.5473 64.1584L96.0962 64.1246Z" fill="#333333"/>
<path d="M57.5947 84.4685C57.5947 84.4685 62.1057 85.5956 66.6168 85.5956C71.1278 85.5956 76.7214 85.5956 78.9995 85.032C78.9995 85.032 76.7665 88.9769 66.6168 88.9769C59.8502 88.9769 57.5947 84.4685 57.5947 84.4685Z" stroke="#333333" stroke-width="1.5" stroke-miterlimit="10" stroke-linecap="round" stroke-linejoin="round"/>
<path d="M64.0004 90.6224C64.0004 90.6224 67.7445 92.268 71.6916 90.6224" stroke="#333333" stroke-width="1.5" stroke-miterlimit="10" stroke-linecap="round" stroke-linejoin="round"/>
<path d="M22.6344 25.86C22.6344 25.86 22.6344 33.7496 18.1234 33.7496C18.1234 33.7496 22.6344 36.0038 22.6344 41.5828C22.6344 41.5828 22.6344 33.7496 27.3371 33.7496C27.3371 33.7496 22.6344 32.6225 22.6344 25.86Z" stroke="#333333" stroke-width="1.5" stroke-miterlimit="10" stroke-linecap="round" stroke-linejoin="round"/>
<path d="M121.234 94.6123C121.234 94.6123 121.234 101.375 117.366 101.375C117.366 101.375 121.234 103.302 121.234 108.081C121.234 108.081 121.234 101.375 125.26 101.375C125.26 101.375 121.234 100.406 121.234 94.6123Z" stroke="#333333" stroke-width="1.5" stroke-miterlimit="10" stroke-linecap="round" stroke-linejoin="round"/>
</svg>
