<svg width="135" height="128" viewBox="0 0 135 128" fill="none" xmlns="http://www.w3.org/2000/svg">
<g clip-path="url(#clip0_423_202)">
<path d="M90.4391 47.461C90.4391 56.1434 89.313 60.4114 88.3333 65.9632C86.34 77.4384 85.9571 77.6411 79.3243 85.1074C70.6531 94.8596 71.4414 93.0578 64.5269 93.0578C55.5179 93.0578 57.59 92.6524 48.9189 83.9812C43.5022 78.5646 42.1621 71.5939 38.581 60.8957C36.6441 55.1074 38.581 39.4993 38.7837 36.6839C38.063 47.6186 34.9886 19.4993 64.1666 20.4452C89.0877 21.256 90.4391 28.8686 90.4391 47.461Z" stroke="#333333" stroke-width="1.5" stroke-linecap="round" stroke-linejoin="round"/>
<path d="M90.4392 53.0691C90.4392 53.0691 91.4302 49.0601 94.4257 52.0668C97.4212 55.0736 92.7027 64.0826 91.7117 67.0893C90.7207 70.0961 89.3919 69.488 89.3919 69.488" stroke="#333333" stroke-width="1.5" stroke-linecap="round" stroke-linejoin="round"/>
<path d="M38.1533 50.7943C38.1533 50.7943 37.2636 46.0646 34.2794 49.0713C31.2951 52.0781 36.6668 64.0826 37.6578 67.0894C38.6487 70.0961 39.5609 69.488 39.5609 69.488" stroke="#333333" stroke-width="1.5" stroke-linecap="round" stroke-linejoin="round"/>
<path d="M57.3987 52.9115C55.7403 52.0583 53.9224 51.5597 52.0608 51.4475C50.3378 51.4475 49.651 51.6164 46.205 52.9115" stroke="#333333" stroke-width="1.5" stroke-linecap="round" stroke-linejoin="round"/>
<path d="M54.696 51.8529C54.696 51.8529 55.4054 54.0376 53.7275 54.0376H50.3491C50.1022 53.9865 49.8746 53.8667 49.6927 53.6921C49.5108 53.5174 49.3818 53.295 49.3207 53.0503C49.2595 52.8057 49.2686 52.5487 49.3469 52.309C49.4253 52.0693 49.5697 51.8566 49.7635 51.6953C51.3985 51.3752 53.0847 51.4291 54.696 51.8529Z" fill="#333333"/>
<path d="M70.7996 52.7087C72.4904 51.9165 74.327 51.4832 76.1937 51.4362C77.9167 51.5038 78.5923 51.6952 81.982 53.1141" stroke="#333333" stroke-width="1.5" stroke-linecap="round" stroke-linejoin="round"/>
<path d="M73.5473 51.7515C73.5473 51.7515 72.7365 53.9137 74.4144 54.0038L77.7928 54.1276C78.0428 54.0881 78.2766 53.9785 78.4669 53.8116C78.6573 53.6447 78.7964 53.4273 78.8683 53.1845C78.9402 52.9418 78.9418 52.6836 78.8731 52.44C78.8043 52.1963 78.6679 51.9772 78.4797 51.8078C76.8604 51.4206 75.175 51.4014 73.5473 51.7515Z" fill="#333333"/>
<path d="M69.5158 45.5016C69.5158 45.1074 69.1892 44.0826 69.5833 43.9925C72.2089 43.4763 74.8806 43.231 77.5563 43.2606C78.3983 43.3364 79.2077 43.6227 79.9102 44.0929C80.6126 44.5632 81.1856 45.2025 81.5766 45.952C80.5829 46.3134 79.5209 46.448 78.4685 46.3462C76.6104 46.211 72.0946 46.1209 70.3604 46.1885C69.9437 46.1885 69.6171 45.479 69.5833 45.0624L69.5158 45.5016Z" fill="#333333"/>
<path d="M60.1803 54.702C60.3218 53.8912 60.3971 53.0702 60.4055 52.2471C60.4055 50.3665 57.3875 49.0038 48.7276 49.0602C40.0677 49.1165 40.3154 52.2471 40.3154 52.2471C40.642 53.4858 40.9461 54.7358 41.1713 55.6255" stroke="#333333" stroke-width="1.5" stroke-linecap="round" stroke-linejoin="round"/>
<path d="M67.0608 54.702C66.9193 53.8912 66.844 53.0702 66.8356 52.2471C66.8356 50.3665 69.8537 49.0038 78.5136 49.0602C87.1735 49.1165 86.9257 52.2471 86.9257 52.2471C86.5991 53.4858 86.295 54.7358 86.0698 55.6255" stroke="#333333" stroke-width="1.5" stroke-linecap="round" stroke-linejoin="round"/>
<path d="M60.4054 52.2359C60.4054 52.2359 64.2342 51.0309 66.8355 52.2359" stroke="#333333" stroke-width="1.5" stroke-linecap="round" stroke-linejoin="round"/>
<path d="M41.4076 50.6592L37.8265 49.702L37.5112 51.8191L41.4076 54.0151V50.6592Z" fill="#333333"/>
<path d="M86.9256 50.6592L90.4954 49.702L90.8107 51.8191L86.9256 54.0151V50.6592Z" fill="#333333"/>
<path d="M79.3243 43.238C79.3243 43.238 82.0383 44.6119 82.3536 46.3349C82.3198 46.3349 82.9279 43.666 79.3243 43.238Z" fill="#333333"/>
<path d="M80.2477 43.238C80.2477 43.238 82.8941 44.6907 83.1306 46.4137C83.1306 46.4137 83.8288 43.7786 80.2477 43.238Z" fill="#333333"/>
<path d="M67.2635 45.9633C67.2635 45.9633 67.6127 44.4093 68.6374 44.0264C68.4038 44.0231 68.1728 44.0767 67.9645 44.1825C67.7561 44.2883 67.5766 44.4431 67.4414 44.6338C67.3062 44.8244 67.2194 45.045 67.1884 45.2766C67.1574 45.5082 67.1832 45.7439 67.2635 45.9633Z" fill="#333333"/>
<path d="M68.3446 46.0083C68.3446 46.0083 68.6936 44.4655 69.7297 44.0826C69.4964 44.0781 69.2656 44.1304 69.057 44.2348C68.8484 44.3392 68.6682 44.4927 68.532 44.6821C68.3958 44.8715 68.3075 45.0911 68.2749 45.3221C68.2422 45.5531 68.2661 45.7886 68.3446 46.0083Z" fill="#333333"/>
<path d="M69.6734 45.783C69.6734 45.783 69.7973 44.2065 70.7996 43.6772C70.5639 43.6989 70.3373 43.7787 70.1401 43.9096C69.9428 44.0404 69.7811 44.2182 69.6695 44.4269C69.5579 44.6356 69.4998 44.8688 69.5005 45.1055C69.5012 45.3422 69.5606 45.575 69.6734 45.783Z" fill="#333333"/>
<path d="M57.928 45.7943C57.928 45.4114 58.3109 44.4092 57.928 44.2853C55.3453 43.6439 52.7041 43.2666 50.0451 43.1592C49.1986 43.1995 48.376 43.4529 47.6535 43.8958C46.9311 44.3387 46.3321 44.9569 45.9122 45.693C46.8876 46.1018 47.9412 46.2902 48.9978 46.2448C50.8672 46.2448 55.3717 46.3349 57.1059 46.4925C57.5226 46.4925 57.8829 45.8168 57.928 45.3664V45.7943Z" fill="#333333"/>
<path d="M48.277 43.0578C48.277 43.0578 45.4955 44.2853 45.0901 45.9857C45.0901 45.9857 44.6171 43.2943 48.277 43.0578Z" fill="#333333"/>
<path d="M47.3198 43.0128C47.3198 43.0128 44.5945 44.3191 44.268 46.0308C44.268 46.0308 43.6711 43.3619 47.3198 43.0128Z" fill="#333333"/>
<path d="M60.1802 46.3687C60.1802 46.3687 59.9099 44.8034 58.8964 44.3754C59.1304 44.3805 59.3596 44.4428 59.5639 44.5571C59.7682 44.6714 59.9412 44.8341 60.068 45.0309C60.1947 45.2276 60.2713 45.4525 60.2908 45.6858C60.3104 45.919 60.2724 46.1535 60.1802 46.3687Z" fill="#333333"/>
<path d="M59.054 46.3687C59.054 46.3687 58.7837 44.8034 57.7702 44.3754C58.0042 44.3805 58.2335 44.4428 58.4377 44.5571C58.642 44.6714 58.8151 44.8341 58.9418 45.0309C59.0686 45.2276 59.1451 45.4525 59.1647 45.6858C59.1842 45.919 59.1462 46.1535 59.054 46.3687Z" fill="#333333"/>
<path d="M57.9842 46.3687C57.9842 46.3687 57.7027 44.8034 56.7004 44.3754C56.9334 44.3831 57.1611 44.4472 57.3639 44.5622C57.5667 44.6771 57.7386 44.8396 57.8648 45.0356C57.991 45.2316 58.0678 45.4552 58.0886 45.6874C58.1095 45.9196 58.0736 46.1534 57.9842 46.3687Z" fill="#333333"/>
<path d="M53.75 75.6705C56.4984 76.4666 59.3459 76.8685 62.2072 76.8642C69.268 76.8642 69.268 76.7854 72.8378 75.6705" stroke="#333333" stroke-width="1.5" stroke-linecap="round" stroke-linejoin="round"/>
<path d="M57.1734 78.4182C58.8712 79.1136 60.6878 79.4731 62.5225 79.4768C67.027 79.4768 67.027 79.3979 69.2793 78.4182" stroke="#333333" stroke-width="1.5" stroke-linecap="round" stroke-linejoin="round"/>
<path d="M84.9551 27.675C87.0497 28.8912 90.4956 49.702 90.4956 49.702L90.642 56.3462C90.642 56.3462 88.3898 50.389 92.8943 50.1975C92.8943 50.1975 92.8155 46.9205 92.8943 43.4408C92.9731 39.961 93.829 35.3664 92.8943 31.0534C89.6398 26.7178 86.9821 17.1908 63.1308 17.1908C63.1308 17.1908 48.4911 13.8124 35.4619 33.3056V47.9453L38.8402 50.1975L39.9664 42.3146C39.9664 42.3146 40.8785 34.6232 42.2186 33.3056C54.5497 23.1705 71.4416 19.7921 84.9551 27.675Z" fill="#333333"/>
<path d="M60.1802 54.702C60.1802 54.702 57.4212 64.961 57.9279 67.0894C58.4347 69.2177 63.5586 69.3416 63.5586 69.3416" stroke="#333333" stroke-width="1.5" stroke-linecap="round" stroke-linejoin="round"/>
<path d="M81.2838 83.3057V97.371C81.2838 97.371 79.3244 109.882 72.5676 113.261C72.5676 113.261 77.0721 113.261 77.0721 116.639C77.0721 120.017 87.2073 124.522 87.2073 124.522C87.2073 124.522 88.3334 115.513 87.2073 109.882C86.0811 104.252 81.5766 97.4948 81.5766 97.4948" stroke="#333333" stroke-width="1.5" stroke-linecap="round" stroke-linejoin="round"/>
<path d="M47.7929 82.8551C47.7929 82.8551 47.5001 91.3011 47.5001 96.7402C47.5001 96.7402 59.0542 106.504 65.8109 106.504C65.8109 106.504 59.0542 107.63 57.9281 112.134C57.2739 115.102 57.2739 118.176 57.9281 121.143C57.9281 121.143 48.9191 112.134 47.7929 96.3686" stroke="#333333" stroke-width="1.5" stroke-linecap="round" stroke-linejoin="round"/>
<path d="M77.0721 14.1614C76.0253 11.8937 74.1986 10.0776 71.9248 9.04402C69.651 8.01047 67.0815 7.82834 64.6847 8.5308C55.6757 10.783 52.2973 11.9092 52.2973 11.9092C52.2973 11.9092 60.1802 9.65692 62.4324 11.9092C62.4324 11.9092 48.9189 11.9092 41.036 16.4137C33.1532 20.9182 32.027 26.5488 30.9009 29.9272C30.9009 29.9272 34.2793 24.2966 35.4054 24.2966C35.4054 24.2966 30.9009 31.0533 29.7748 34.4317L32.027 31.0533C32.0161 32.985 31.6337 34.8966 30.9009 36.6839L34.2793 32.1794L36.5315 44.5668C36.5315 44.5668 43.2883 20.9182 57.9279 19.7921C72.5676 18.6659 78.1982 19.7921 78.1982 19.7921C78.1982 19.7921 88.3333 26.5488 90.5856 32.1794C92.8378 37.8101 92.8378 50.1975 92.8378 50.1975L91.7117 47.9452L92.8378 33.3056L96.2162 36.6839C96.2162 36.6839 95.0901 32.1794 93.964 28.8011L96.2162 31.0533C96.2162 31.0533 95.0901 26.5488 93.964 23.1704C92.8378 19.7921 88.3333 16.4137 86.0811 16.4137C88.6755 16.659 91.085 17.8637 92.8378 19.7921C92.8378 19.7921 89.4595 11.9092 83.8288 14.1614L84.955 10.783L82.7027 13.0353C82.668 12.029 82.3255 11.0576 81.7214 10.2521C81.1173 9.44665 80.2806 8.84585 79.3243 8.5308L75.946 7.40467C75.946 7.40467 80.4505 10.783 80.4505 14.1614C80.4505 14.1614 77.0721 7.40467 72.5676 7.40467H63.5586C63.5586 7.40467 75.946 6.27855 77.0721 14.1614Z" fill="#333333"/>
<path d="M74.8197 13.0353C74.8197 13.0353 71.4414 5.15245 60.1801 7.4047C48.9188 9.65695 46.6666 13.0353 46.6666 13.0353C46.6666 13.0353 55.2139 10.0624 57.7026 12.1119C57.7026 12.1119 46.5877 8.73353 40.4391 18.2268L62.4324 16.4137L74.8197 13.0353Z" fill="#333333"/>
<path d="M77.072 24.2966C77.072 24.2966 69.1891 18.6659 64.6846 25.4227L60.1801 32.1794C61.0342 29.8012 62.1683 27.533 63.5584 25.4227C63.5584 25.4227 59.0539 27.6749 59.0539 29.9272V32.1794C59.0539 32.1794 56.8017 29.9272 59.0539 26.5488C58.3041 27.0236 57.6981 27.694 57.3012 28.4878C56.9043 29.2816 56.7316 30.1686 56.8017 31.0533C56.8017 31.0533 55.6756 29.9272 56.8017 27.6749C56.1693 27.9992 55.6304 28.4799 55.2362 29.0712C54.842 29.6625 54.6056 30.3449 54.5494 31.0533V33.3056C53.8377 31.4962 53.8377 29.4844 54.5494 27.6749C54.5494 27.6749 51.1711 29.9272 51.1711 32.1794V34.4317C51.1711 34.4317 48.5021 33.3957 50.394 29.9272C52.2859 26.4587 63.5584 13.0353 77.072 24.2966Z" fill="#333333"/>
<path d="M68.6711 23.576C68.6711 23.576 60.0901 19.0715 56.5541 26.3913L53.018 33.6998C53.5397 31.2289 54.3524 28.8285 55.4391 26.5489C55.4391 26.5489 51.2837 29.398 51.5878 31.6278L51.8919 33.88C51.8919 33.88 49.3581 31.9543 51.1261 28.2494C50.4503 28.8247 49.9435 29.5728 49.6599 30.4138C49.3763 31.2548 49.3265 32.157 49.5158 33.0241C49.5158 33.0241 48.2432 32.0557 49.054 29.6458C48.469 30.0518 47.9987 30.6021 47.689 31.2434C47.3792 31.8846 47.2404 32.595 47.286 33.3057L47.5901 35.5579C46.6435 33.8702 46.37 31.8871 46.8243 30.0061C46.8243 30.0061 43.7838 32.675 44.0878 34.9048L44.3918 37.157C44.3918 37.157 41.8806 33.576 43.2657 29.9273C44.6508 26.2787 53.7387 14.2742 68.6711 23.576Z" fill="#333333"/>
<path d="M65.8108 106.504C65.8108 106.504 69.1892 108.756 69.1892 114.387V127.9" stroke="#333333" stroke-width="1.5" stroke-linecap="round" stroke-linejoin="round"/>
<path d="M72.5675 113.26L69.5157 119.015" stroke="#333333" stroke-width="1.5" stroke-linecap="round" stroke-linejoin="round"/>
<path d="M57.9279 121.143L62.4324 127.9" stroke="#333333" stroke-width="1.5" stroke-linecap="round" stroke-linejoin="round"/>
<path d="M80.1351 120.513C80.1351 120.513 74.8198 127.168 73.6937 127.9" stroke="#333333" stroke-width="1.5" stroke-linecap="round" stroke-linejoin="round"/>
<path d="M47.6238 88.4858C47.6238 88.4858 39.9099 94.1164 39.9099 101.999V115.513C43.7256 115.724 47.3315 117.327 50.045 120.017C54.5495 124.522 55.6757 127.9 55.6757 127.9" stroke="#333333" stroke-width="1.5" stroke-linecap="round" stroke-linejoin="round"/>
<path d="M81.2837 90.524C86.4727 93.7826 90.5127 98.5825 92.8378 104.252C96.2161 113.261 98.4684 117.765 98.4684 117.765C98.4684 117.765 91.5878 115.378 87.7026 120.513" stroke="#333333" stroke-width="1.5" stroke-linecap="round" stroke-linejoin="round"/>
<path d="M83.1982 122.472L78.9302 128.294" stroke="#333333" stroke-width="1.5" stroke-linecap="round" stroke-linejoin="round"/>
<path d="M44.2343 91.7291C44.2343 91.7291 28.6486 99.7471 18.5135 105.378C8.37838 111.008 7.25225 112.134 6.12613 117.765C5.45097 121.103 5.07411 124.495 5 127.9" stroke="#333333" stroke-width="1.5" stroke-linecap="round" stroke-linejoin="round"/>
<path d="M84.2793 91.7291C84.2793 91.7291 98.4685 97.4948 106.351 100.873C114.234 104.252 124.369 111.008 125.495 116.639C126.436 120.593 127.954 124.388 130 127.9" stroke="#333333" stroke-width="1.5" stroke-linecap="round" stroke-linejoin="round"/>
<path d="M19.6396 112.134C19.6396 112.134 25.2703 120.017 25.2703 127.9" stroke="#333333" stroke-width="1.5" stroke-linecap="round" stroke-linejoin="round"/>
<path d="M117.613 113.26C117.613 115.513 115.36 123.396 116.486 127.9" stroke="#333333" stroke-width="1.5" stroke-linecap="round" stroke-linejoin="round"/>
</g>
<defs>
<clipPath id="clip0_423_202">
<rect width="135" height="128" fill="white"/>
</clipPath>
</defs>
</svg>
