<svg width="121" height="125" viewBox="0 0 121 125" fill="none" xmlns="http://www.w3.org/2000/svg">
<path d="M65.6368 66.7234C65.6368 66.7234 64.5566 69.3649 62.4717 69.6978" stroke="#333333" stroke-width="1.5" stroke-miterlimit="10" stroke-linecap="round" stroke-linejoin="round"/>
<path d="M32.6996 51.7979C32.9589 57.5856 36.7074 77.0854 44.4961 82.8301C50.4699 87.2326 51.8419 91.8499 62.2124 91.4418C70.2819 91.1197 73.5335 86.1696 79.032 80.0598C82.9534 75.711 89.6186 58.5198 88.2682 47.127C85.6432 24.8353 73.8036 19.5201 62.7093 17.9309C50.5671 16.2021 31.4897 24.9427 32.6996 51.7979Z" stroke="#333333" stroke-width="1.5" stroke-miterlimit="10" stroke-linecap="round" stroke-linejoin="round"/>
<path d="M69.3203 54.289C69.3203 54.289 69.666 51.5401 72.9392 51.6368C76.4284 51.7334 77.5087 51.7334 80.7495 54.9547" stroke="#333333" stroke-width="1.5" stroke-miterlimit="10" stroke-linecap="round" stroke-linejoin="round"/>
<path d="M72.075 51.755C72.075 51.755 69.9469 56.1038 74.3867 56.4582C76.1584 56.5978 78.0812 54.9441 77.3358 53.0758C77.325 53.0865 74.808 51.0678 72.075 51.755Z" fill="#333333"/>
<path d="M54.8234 54.289C54.8234 54.289 54.4778 51.5401 51.2046 51.6368C47.7153 51.7334 46.6351 51.7334 43.3943 54.9547" stroke="#333333" stroke-width="1.5" stroke-miterlimit="10" stroke-linecap="round" stroke-linejoin="round"/>
<path d="M52.0688 51.755C52.0688 51.755 54.1969 56.1038 49.757 56.4582C47.9854 56.5978 46.0625 54.9441 46.8079 53.0758C46.8187 53.0865 49.3357 51.0678 52.0688 51.755Z" fill="#333333"/>
<path d="M69.6445 44.2815C69.6445 44.2815 77.4332 44.3781 79.7018 45.774C81.9595 47.17 83.1586 48.3833 83.1586 48.3833" stroke="#333333" stroke-width="1.5" stroke-miterlimit="10" stroke-linecap="round" stroke-linejoin="round"/>
<path d="M54.8773 44.6035C54.8773 44.6035 47.0887 44.3351 44.7661 45.6236C42.4435 46.9122 41.1904 48.0718 41.1904 48.0718" stroke="#333333" stroke-width="1.5" stroke-miterlimit="10" stroke-linecap="round" stroke-linejoin="round"/>
<path d="M52.6628 75.3564C52.6628 75.3564 56.3249 77.1711 61.3697 77.1711C66.4146 77.1711 71.0273 75.3564 71.0273 75.3564" stroke="#333333" stroke-width="1.5" stroke-miterlimit="10" stroke-linecap="round" stroke-linejoin="round"/>
<path d="M50.8047 19.359C50.8047 19.359 64.5456 16.2988 68.8667 23.8152C72.5396 30.215 70.9516 42.2198 81.8298 47.4384C92.708 52.6569 81.7974 76.1512 79.6693 79.6517C79.6693 79.6517 87.2095 80.7577 90.4719 79.6517C93.7343 78.5457 100.713 60.6244 100.227 57.2634C100.227 57.2634 98.6819 70.4817 96.4997 73.7782C96.4997 73.7782 100.194 72.1245 101.274 66.7556C102.582 60.2485 103.068 58.2835 100.821 50.5845C98.0337 40.985 94.7605 -6.3687 49.422 5.55025C43.837 7.02132 36.2968 10.7366 31.0575 19.5094C25.8183 28.2822 22.8368 37.0334 24.8352 52.1415C24.8352 52.1415 26.2072 49.747 28.6918 51.8838C28.6918 51.8838 29.005 57.3279 30.0961 58.4339C31.1872 59.5399 31.6301 59.5828 31.9542 63.9638C32.2782 68.3448 39.9481 75.3244 37.7444 78.9967C37.7444 78.9967 40.7691 75.26 36.5237 69.6012C32.2782 63.9423 32.5483 61.8914 33.4989 57.9614C34.4496 54.0314 37.3231 45.366 36.6209 43.0144C35.3786 38.8481 41.8601 23.8152 50.8047 19.359Z" fill="#333333"/>
<path d="M36.5238 69.6119C36.5238 69.6119 34.2984 69.9877 31.3385 71.3192C28.3786 72.6507 23.4958 56.0286 24.8354 52.1523C26.1749 48.2759 30.7984 52.1523 30.7984 52.1523" stroke="#333333" stroke-width="1.5" stroke-miterlimit="10" stroke-linecap="round" stroke-linejoin="round"/>
<path d="M29.3617 70.1594C29.3617 70.1594 28.8972 74.2827 33.2182 76.4303C37.5393 78.5778 40.4992 78.2772 40.4992 78.2772L36.459 68.9138C36.459 68.9138 33.2182 72.1352 29.3617 70.1594Z" fill="#333333"/>
<path d="M45.9436 83.9683C45.9436 83.9683 49.2492 100.558 29.3508 106.743C29.3508 106.743 33.9635 119.478 43.3078 123.72" stroke="#333333" stroke-width="1.5" stroke-miterlimit="10" stroke-linecap="round" stroke-linejoin="round"/>
<path d="M77.4981 81.7993C77.4981 81.7993 73.1878 103.275 90.472 106.496C90.472 106.496 84.3253 115.183 78.7512 123.73" stroke="#333333" stroke-width="1.5" stroke-miterlimit="10" stroke-linecap="round" stroke-linejoin="round"/>
<path d="M33.218 105.283C33.218 105.283 46.8617 118.05 56.2492 118.716" stroke="#333333" stroke-width="1.5" stroke-miterlimit="10" stroke-linecap="round" stroke-linejoin="round"/>
<path d="M59.1444 121.529C60.3376 121.529 61.3049 120.568 61.3049 119.381C61.3049 118.195 60.3376 117.234 59.1444 117.234C57.9512 117.234 56.9839 118.195 56.9839 119.381C56.9839 120.568 57.9512 121.529 59.1444 121.529Z" stroke="#333333" stroke-width="1.5" stroke-miterlimit="10" stroke-linecap="round" stroke-linejoin="round"/>
<path d="M87.0475 105.519C87.0475 105.519 75.3483 119.382 61.3049 119.382" stroke="#333333" stroke-width="1.5" stroke-miterlimit="10" stroke-linecap="round" stroke-linejoin="round"/>
<path d="M90.4719 106.496C90.4719 106.496 99.114 108.644 104.515 109.717L106.654 123.73" stroke="#333333" stroke-width="1.5" stroke-miterlimit="10" stroke-linecap="round" stroke-linejoin="round"/>
<path d="M104.515 109.718C104.515 109.718 117.489 108.74 120.19 123.73" stroke="#333333" stroke-width="1.5" stroke-miterlimit="10" stroke-linecap="round" stroke-linejoin="round"/>
<path d="M28.8971 106.496C28.8971 106.496 26.7365 107.57 16.4849 109.717L14.3459 123.73" stroke="#333333" stroke-width="1.5" stroke-miterlimit="10" stroke-linecap="round" stroke-linejoin="round"/>
<path d="M16.4849 109.718C16.4849 109.718 3.51095 108.74 0.810303 123.73" stroke="#333333" stroke-width="1.5" stroke-miterlimit="10" stroke-linecap="round" stroke-linejoin="round"/>
<path d="M54.8232 77.343C54.8232 77.343 62.7956 81.7563 67.7864 77.5578" stroke="#333333" stroke-width="1.5" stroke-miterlimit="10" stroke-linecap="round" stroke-linejoin="round"/>
<path d="M53.7107 6.55953C53.7107 6.55953 59.7926 -3.60916 75.7264 2.44695C91.6603 8.50307 103.932 25.8661 100.572 43.7015C97.2128 61.537 94.3933 56.6621 94.3933 56.6621C94.3933 56.6621 105.099 37.8065 92.9566 23.3856C80.8144 8.96479 67.1275 -4.25343 53.7107 6.55953Z" fill="#333333"/>
<path d="M48.0393 7.70857C48.0393 7.70857 53.7431 -0.967567 61.3049 1.22294C61.3049 1.22294 53.1273 4.49797 48.0393 7.70857Z" fill="#333333"/>
<path d="M59.1443 2.12487L65.6367 5.92605L67.1382 4.8308L61.3048 1.2229L59.1443 2.12487Z" fill="#333333"/>
</svg>
