<svg xmlns="http://www.w3.org/2000/svg" width="140" height="140" viewBox="0 0 140 140">
  <g fill="none" fill-rule="evenodd" transform="translate(0 13.9)">
    <path stroke="#333" stroke-linecap="round" stroke-linejoin="round" stroke-width="1.5" d="M100.856596,43.2081702 C99.7675745,51.4576454 100.282894,52.8461277 99.1350922,59.7187376 C97.9872908,66.5446809 91.1354326,73.3707234 84.4592199,80.22 C80.804922,83.9654468 77.9002695,85.8907943 73.5314752,85.8907943 C67.9562979,85.8907943 64.7938865,83.2770638 62.5801986,80.1966667 C56.8645248,72.2271915 51.1604681,69.951844 50.0126667,59.7187376 C49.2514043,52.927844 49.4739149,54.5496596 48.3845957,44.2465532 C46.9791348,30.8630496 47.7404965,8.99667801 74.6089787,8.15655887 C100.282894,7.36311631 103.058865,26.6157872 100.856596,43.2081702 Z"/>
    <path stroke="#333" stroke-linecap="round" stroke-linejoin="round" stroke-width="1.5" d="M80.1724397,47.105234 C80.1724397,47.105234 82.3041135,44.4916028 84.6701135,44.0832199 C86.2512199,43.8031206 89.0739574,44.4682695 91.1471489,46.4051348"/>
    <path fill="#333" fill-rule="nonzero" d="M82.7139858 45.0166525C82.7139858 45.0166525 81.7418298 47.0119007 82.6086383 47.7353333 83.7330071 48.6804823 85.2204823 48.6804823 86.3565674 47.7353333 86.7782553 47.385234 87.0710638 45.9267518 86.3565674 44.8998865 86.3682837 44.9116028 84.8925248 44.1997872 82.7139858 45.0166525zM78.3687234 40.6175745C78.1812624 40.2091915 78.2749929 39.7308085 78.6146667 39.4974752 80.3949504 38.2488936 87.153078 36.0785957 88.4531915 35.7519291 91.1939149 35.0518298 94.2860284 39.1240426 94.2860284 39.1240426 94.2860284 39.1240426 92.3418156 38.4589929 90.5145674 38.9256596 88.6874184 39.3924255 81.0391489 40.4542411 79.4227943 41.0959574 79.0246383 41.2476738 78.5678014 41.0376738 78.3687234 40.6175745z"/>
    <path stroke="#333" stroke-linecap="round" stroke-linejoin="round" stroke-width="1.5" d="M66.726383,47.105234 C66.726383,47.105234 64.5947092,44.4916028 62.2170922,44.0832199 C60.6358865,43.8031206 57.8014326,44.4682695 55.7400567,46.4051348"/>
    <path fill="#333" fill-rule="nonzero" d="M62.0062979 45.0166525C62.0062979 45.0166525 62.9784539 47.0119007 62.1116454 47.7353333 60.9872766 48.6804823 59.4998014 48.6804823 58.352 47.7353333 57.9303121 47.385234 57.6375035 45.9267518 58.352 44.8998865 58.352 44.9116028 59.8277589 44.1997872 62.0062979 45.0166525zM70.9311489 40.2439433C71.1067943 39.823844 70.9780142 39.3571773 70.6383404 39.135461 68.7994752 37.9685957 61.9359007 36.1366809 60.6357872 35.8682979 57.8716312 35.3082979 54.9785957 39.5087943 54.9785957 39.5087943 54.9785957 39.5087943 56.8877589 38.7504113 58.7383404 39.135461 60.588922 39.5087943 68.2723404 40.1972766 69.923844 40.7689929 70.310383 40.9089929 70.7554043 40.6756596 70.9311489 40.2439433z"/>
    <path stroke="#333" stroke-linecap="round" stroke-linejoin="round" stroke-width="1.5" d="M69.9707092,57.9798582 C69.9707092,57.9798582 70.2985674,61.3170213 73.8006525,61.1536879"/>
    <path fill="#333" fill-rule="nonzero" d="M68.5418156,19.9063121 L74.6908936,23.3834752 L72.6762837,19.9063121 L81.2381277,23.3834752 C81.2381277,23.3834752 77.9000709,17.3626809 79.0011064,18.4127801 C80.0903262,19.4629787 86.7898723,24.0835745 86.7898723,24.0835745 L87.9494894,19.6729787 L93.3254894,24.0835745 L92.341617,19.3345957 L97.3311773,24.0835745 L100.306525,27.5723546 L100.306525,45.5998865 L100.306525,48.1902837 C100.306525,48.1902837 101.969645,40.3725248 105.24922,41.4226241 C105.951206,40.1858582 106.33844,38.2839433 106.33844,37.4204113 C107.42766,39.3224255 107.42766,39.3224255 107.42766,39.3224255 L107.42766,32.006383 L108.516879,34.0949645 C108.516879,34.0949645 109.606099,23.6401418 105.237305,13.1737021 C101.95773,5.35596312 83.3113191,-1.61000993 74.081844,1.1553773 C74.081844,1.1553773 63.0368369,1.56377021 52.3081702,7.3629078 C41.5795035,13.1620851 41.8254468,25.6004397 40.7245106,27.6891206 L42.0246241,25.5654894 L41.7318156,32.904766 L42.8210355,31.9130496 C42.8210355,31.9130496 44.6833333,39.6257589 45.1050213,41.4226241 C47.2951773,41.4226241 48.7710355,45.6116028 48.7710355,45.6116028 C48.7710355,45.6116028 49.2160567,32.834766 50.0125674,26.7206383 C50.6450496,21.8199433 54.9435461,18.4244965 54.9435461,18.4244965 L54.9435461,23.6518582 L58.2230213,19.4629787 L58.2230213,21.5515603 L61.3034184,18.6344965 L65.8712908,21.5515603 L64.7820709,18.7511631 L68.5418156,19.9063121 Z"/>
    <path stroke="#333" stroke-linecap="round" stroke-linejoin="round" stroke-width="1.5" d="M103.04695 41.3410071C103.04695 41.3410071 107.005674 39.6608085 106.326525 44.0830213 105.647376 48.5053333 103.04695 56.0664255 99.7673759 59.3218723M47.0728652 41.3294894C47.0728652 41.3294894 43.7699574 39.4041418 43.8051064 43.8848369 43.840156 48.3654326 44.027617 53.896227 48.3964113 57.1632908"/>
    <path fill="#333" fill-rule="nonzero" d="M90.912922,35.4719291 C90.912922,35.4719291 94.3563262,36.5921277 95.2464681,38.8557589 C95.2464681,38.8440426 95.082539,35.0402128 90.912922,35.4719291 Z"/>
    <path fill="#333" fill-rule="nonzero" d="M93.5129504 35.0285957C93.5129504 35.0285957 96.6284965 36.872227 96.9916028 39.2758855 96.9916028 39.2875745 97.6709504 35.5303121 93.5129504 35.0285957zM58.7736879 35.4719291C58.7736879 35.4719291 55.3301844 36.5921277 54.4400426 38.8557589 54.4400426 38.8440426 54.6039716 35.0402128 58.7736879 35.4719291z"/>
    <path fill="#333" fill-rule="nonzero" d="M56.1735603,35.0285957 C56.1735603,35.0285957 53.0580142,36.872227 52.6949078,39.2758855 C52.6949078,39.2875745 52.0155603,35.5303121 56.1735603,35.0285957 Z"/>
    <path stroke="#333" stroke-linecap="round" stroke-linejoin="round" stroke-width="1.5" d="M27.6299433 20.1396454C24.3504681 19.0544965 21.0708936 10.3382553 24.3504681 10.3382553 27.6299433 10.3382553 31.9987376 10.3382553 33.0996738 11.4234043M13.4694894 77.909305C13.8325957 81.6548511 14.3830638 87.1039291 18.8806383 89.8226099M25.4395887 34.2931489C25.5450355 36.4167801 19.9698582 37.5602128 16.6902837 45.1796879 14.9685816 49.1819007 18.880539 50.628766 17.7796028 53.8958298M33.3806667 11.6568369C33.3806667 11.6568369 40.7479433 8.15631064 44.0274184 10.3382553M42.9265816 9.25304681C42.9265816 9.25304681 45.1167376 7.07107234 50.5748511 7.07107234 50.5748511 7.07107234 49.4855319 10.338156 48.3845957 12.5201702M44.0275177 10.3382553C44.0275177 10.3382553 50.5865674 12.5202695 48.3963121 17.9576312M25.9198582 29.0775035C25.9198582 29.0775035 16.7020993 31.0260851 15.6128794 33.208M26.3182128 26.627305C26.3182128 26.627305 18.2131064 25.332156 16.7021986 26.6622553M89.9289504 74.502539C89.9289504 74.502539 89.1558723 85.4240284 90.2569078 87.5243262 91.357844 89.6246241 104.13617 94.1869362 104.13617 94.1869362 104.13617 94.1869362 96.7808085 109.017305 70.2519007 105.78539M56.606766 74.502539C56.606766 74.502539 56.606766 84.5022128 56.606766 86.614227 56.606766 88.7378582 51.6757872 88.7378582 51.6757872 88.7378582M33.0879574 98.5388511C33.0879574 98.5388511 35.2781135 116.519716 14.511844 125.760709M39.6469078 100.720567C39.6469078 100.720567 40.736227 117.056879 27.6181277 125.760709"/>
    <path stroke="#333" stroke-linecap="round" stroke-linejoin="round" stroke-width="1.5" d="M28.2037447 31.8897163L25.1702128 34.5150638C23.811617 32.554766 22.1601135 26.6739716 24.3386525 24.5036738 26.5289078 22.3216596 28.5317021 18.2727801 28.5317021 18.2727801M28.7191631 87.6523121C28.7191631 87.6523121 23.9053475 84.7352482 23.2494326 83.3000993 22.5935177 81.8648511 19.9698582 78.9477872 19.9698582 74.5838582 19.9698582 70.2315461 23.0034894 69.0763972 24.3386525 72.401844 26.5289078 77.850922 27.618227 78.9360709 29.8084823 81.1180851 31.4598865 82.7633333 36.3674326 84.1984823 35.2782128 82.203234 34.1888936 80.2196028 30.9094184 76.754156 28.7660284 72.401844 27.3254184 69.4731631 28.7191631 68.0496312 30.4058156 68.2712482 32.0806525 68.4929645 34.0601135 71.176695 36.3791489 73.4869929 38.5694043 75.6690071 39.6587234 76.754156 42.9381986 81.1063688 43.9689362 82.471617 45.2339007 83.8251489 47.3069929 82.191617 49.3800851 80.5579858 48.3962128 80.0096028 48.1971348 78.7611206 47.9980567 77.512539 45.6672057 77.8275887 45.1167376 74.5605248 44.5662695 71.2933617 45.1167376 69.1114468 50.5864681 71.8767943 52.3667518 72.7752766 55.4705816 75.2606241 54.9552624 78.9127376 54.6155887 81.3164681 54.9552624 84.3619149 51.6757872 87.6289787 50.2116454 89.0875603 58.9609504 95.9717872 60.4249929 97.4303688 69.1742979 106.146809 70.2635177 103.964397 96.1950922 125.737872"/>
    <path stroke="#333" stroke-linecap="round" stroke-linejoin="round" stroke-width="1.5" d="M19.9815745 74.5839574C19.9815745 74.5839574 16.7020993 76.4392057 16.7020993 78.7845532 16.7020993 81.1181844 16.7020993 83.3001986 18.3418865 85.4821135 19.9815745 87.6641277 25.9198582 90.7329078 25.9198582 90.7329078L18.8923546 89.8344255 15.6128794 87.3024113C15.6128794 87.3024113 15.7299433 92.4131064 17.8031348 93.1015887 21.0826099 94.1867376 24.0692766 97.1504681 26.5523404 97.4538014 35.3016454 98.5389504 38.124383 99.192383 39.6704397 100.720567 41.860695 102.902979 47.3187092 110.522553 64.8055035 125.760709M104.13617 94.1866383C104.13617 94.1866383 126.143972 96.3685532 131.22766 101.805816 136.310355 107.254894 139.121277 125.760709 139.121277 125.760709"/>
    <path stroke="#333" stroke-linecap="round" stroke-linejoin="round" stroke-width="1.5" d="M30.6049929,55.1564255 C30.6049929,54.0128936 29.4571915,52.881078 27.6300426,52.1343121 C25.8028936,51.3875461 20.450227,53.277844 17.7915177,53.8846099 C12.3335035,55.1447092 12.3335035,58.5635887 12.3335035,60.8388369 C12.3335035,61.3873191 10.7171291,62.7758014 10.0495078,64.2577163 C9.32333475,65.8679149 10.6585674,66.4629645 10.0495078,67.6764965 C9.31161844,69.146695 6.57088511,71.0369929 8.9016766,73.3706241 C9.25305674,73.7206241 7.12137305,77.7812199 8.9016766,79.0647518 C11.1856028,80.71 9.86210638,94.2685532 8.9016766,99.5429787 C6.61774043,112.062553 4.33379433,125.715035 4.33379433,125.715035"/>
    <path stroke="#333" stroke-linecap="round" stroke-linejoin="round" stroke-width="1.5" d="M14.6172908,60.8503546 C14.6172908,60.8503546 18.049078,58.5750071 21.5041986,57.1631915 C24.7369078,55.8447092 31.7409787,52.8808794 31.7409787,59.706922"/>
    <path stroke="#333" stroke-linecap="round" stroke-linejoin="round" stroke-width="1.5" d="M13.4694894,66.5329645 C13.4694894,66.5329645 24.3386525,60.5704539 28.0398156,59.566922 C31.7409787,58.5634894 32.8888794,59.7070213 32.8888794,63.1140851 L32.8888794,69.1232624"/>
    <polyline stroke="#333" stroke-linecap="round" stroke-linejoin="round" stroke-width="1.5" points="13.469 77.91 17.44 75.669 19.982 73.487"/>
    <path stroke="#333" stroke-linecap="round" stroke-linejoin="round" stroke-width="1.5" d="M24.3504681,72.4017447 C24.3504681,72.4017447 30.6049929,76.835773 30.6049929,75.6689078"/>
    <line x1="24.889" x2="23.285" y1="97.256" y2="119.495" stroke="#333" stroke-linecap="round" stroke-linejoin="round" stroke-width="1.5"/>
    <path stroke="#333" stroke-linecap="round" stroke-linejoin="round" stroke-width="1.5" d="M23.8350496 66.5329645L27.629844 65.0044823 28.6722979 68.8083121C28.6722979 68.8083121 27.1848227 66.5329645 25.451305 66.5329645 23.7178865 66.5329645 13.071234 71.7253759 13.071234 71.7253759M14.6172908 54.4092624C14.6172908 54.4092624 12.0288794 43.487773 18.4590496 41.9241418M64.7937872 67.5244823C64.7937872 67.5244823 65.8362411 68.4929645 68.2138582 68.3296312 70.5914752 68.1662979 70.1815035 69.1581135 73.8124681 68.6680142 77.4433333 68.1662979 76.8342837 68.1662979 78.8487943 68.1662979 80.8634043 68.1662979 81.8824255 67.5244823 81.8824255 67.5244823M68.2139574 70.593461C68.2139574 70.593461 71.2592057 73.5105248 77.2092057 70.593461M77.7478582 110.98922C77.7478582 110.98922 98.7718865 111.198723 106.947092 98.5388511M8.9015773 101.805816C8.9015773 101.805816 5.28240851 104.956312 4.42738582 110.906809 3.57237305 116.858298.878491064 125.749787.878491064 125.749787"/>
  </g>
</svg>
