<svg width="140" height="128" viewBox="0 0 140 128" fill="none" xmlns="http://www.w3.org/2000/svg">
<path d="M100.577 43.5168C99.4802 51.8252 99.9992 53.2236 98.8432 60.1453C97.6872 67.02 90.7864 73.8948 84.0625 80.793C80.3821 84.5652 77.4567 86.5043 73.0567 86.5043C67.4417 86.5043 64.2567 83.8719 62.0272 80.7695C56.2707 72.7431 50.5259 70.4515 49.3699 60.1453C48.6032 53.3059 48.8273 54.9393 47.7302 44.5626C46.3147 31.0835 47.0815 9.06094 74.1419 8.21482C99.9992 7.41571 102.795 26.8059 100.577 43.5168Z" stroke="#333333" stroke-width="1.5" stroke-miterlimit="10" stroke-linecap="round" stroke-linejoin="round"/>
<path d="M79.7451 47.4417C79.7451 47.4417 81.892 44.8094 84.2749 44.3981C85.8673 44.116 88.7102 44.7859 90.7982 46.7366" stroke="#333333" stroke-width="1.5" stroke-miterlimit="10" stroke-linecap="round" stroke-linejoin="round"/>
<path d="M82.3048 45.3382C82.3048 45.3382 81.3257 47.3477 82.1987 48.0763C83.3311 49.0282 84.8292 49.0282 85.9734 48.0763C86.3981 47.7237 86.693 46.2548 85.9734 45.2206C85.9852 45.2324 84.4989 44.5155 82.3048 45.3382Z" fill="#333333"/>
<path d="M77.9285 40.9077C77.7397 40.4964 77.8341 40.0146 78.1762 39.7796C79.9692 38.5221 86.7756 36.3363 88.085 36.0073C90.8453 35.3022 93.9595 39.4035 93.9595 39.4035C93.9595 39.4035 92.0014 38.7337 90.1611 39.2037C88.3209 39.6738 80.618 40.7432 78.9901 41.3895C78.5891 41.5423 78.129 41.3308 77.9285 40.9077Z" fill="#333333"/>
<path d="M66.203 47.4417C66.203 47.4417 64.0561 44.8094 61.6615 44.3981C60.069 44.116 57.2143 44.7859 55.1382 46.7366" stroke="#333333" stroke-width="1.5" stroke-miterlimit="10" stroke-linecap="round" stroke-linejoin="round"/>
<path d="M61.4492 45.3382C61.4492 45.3382 62.4283 47.3477 61.5553 48.0763C60.4229 49.0282 58.9248 49.0282 57.7688 48.0763C57.3441 47.7237 57.0492 46.2548 57.7688 45.2206C57.7688 45.2324 59.2551 44.5155 61.4492 45.3382Z" fill="#333333"/>
<path d="M70.4378 40.5314C70.6147 40.1083 70.485 39.6383 70.1429 39.415C68.2909 38.2398 61.3783 36.3948 60.0689 36.1245C57.285 35.5605 54.3713 39.791 54.3713 39.791C54.3713 39.791 56.2941 39.0272 58.1579 39.415C60.0217 39.791 67.76 40.4844 69.4233 41.0602C69.8126 41.2012 70.2608 40.9662 70.4378 40.5314Z" fill="#333333"/>
<path d="M69.4705 58.394C69.4705 58.394 69.8007 61.755 73.3278 61.5905" stroke="#333333" stroke-width="1.5" stroke-miterlimit="10" stroke-linecap="round" stroke-linejoin="round"/>
<path d="M68.0314 20.0485L74.2244 23.5505L72.1954 20.0485L80.8184 23.5505C80.8184 23.5505 77.4565 17.4867 78.5654 18.5443C79.6624 19.602 86.4098 24.2556 86.4098 24.2556L87.5777 19.8135L92.9921 24.2556L92.0012 19.4727L97.0264 24.2556L100.023 27.7693V45.9256V48.5345C100.023 48.5345 101.698 40.6609 105.001 41.7185C105.708 40.4729 106.098 38.5574 106.098 37.6877C107.195 39.6033 107.195 39.6033 107.195 39.6033V32.235L108.292 34.3385C108.292 34.3385 109.389 23.809 104.989 13.2678C101.686 5.39422 82.9064 -1.62151 73.611 1.16363C73.611 1.16363 62.4871 1.57494 51.6818 7.4155C40.8765 13.2561 41.1242 25.7833 40.0154 27.8869L41.3248 25.7481L41.0299 33.1398L42.1269 32.141C42.1269 32.141 44.0025 39.9088 44.4272 41.7185C46.633 41.7185 48.1194 45.9374 48.1194 45.9374C48.1194 45.9374 48.5676 33.0693 49.3698 26.9115C50.0068 21.9758 54.336 18.5561 54.336 18.5561V23.8208L57.6389 19.602V21.7055L60.7413 18.7676L65.3418 21.7055L64.2448 18.8851L68.0314 20.0485Z" fill="#333333"/>
<path d="M102.783 41.6363C102.783 41.6363 106.77 39.9441 106.086 44.3979C105.402 48.8518 102.783 56.4669 99.48 59.7456" stroke="#333333" stroke-width="1.5" stroke-miterlimit="10" stroke-linecap="round" stroke-linejoin="round"/>
<path d="M46.4091 41.6247C46.4091 41.6247 43.0826 39.6856 43.118 44.1983C43.1533 48.7109 43.3421 54.2812 47.7421 57.5716" stroke="#333333" stroke-width="1.5" stroke-miterlimit="10" stroke-linecap="round" stroke-linejoin="round"/>
<path d="M90.5623 35.7253C90.5623 35.7253 94.0303 36.8535 94.9268 39.1333C94.9268 39.1215 94.7617 35.2905 90.5623 35.7253Z" fill="#333333"/>
<path d="M93.1809 35.2788C93.1809 35.2788 96.3187 37.1356 96.6844 39.5564C96.6844 39.5682 97.3686 35.7841 93.1809 35.2788Z" fill="#333333"/>
<path d="M58.1935 35.7253C58.1935 35.7253 54.7254 36.8535 53.8289 39.1333C53.8289 39.1215 53.994 35.2905 58.1935 35.7253Z" fill="#333333"/>
<path d="M55.5748 35.2788C55.5748 35.2788 52.437 37.1356 52.0713 39.5564C52.0713 39.5682 51.3871 35.7841 55.5748 35.2788Z" fill="#333333"/>
<path d="M26.8273 20.2835C23.5244 19.1906 20.2214 10.4121 23.5244 10.4121C26.8273 10.4121 31.2273 10.4121 32.3361 11.505" stroke="#333333" stroke-width="1.5" stroke-miterlimit="10" stroke-linecap="round" stroke-linejoin="round"/>
<path d="M12.5657 78.4658C12.9314 82.2381 13.4858 87.7261 18.0155 90.4642" stroke="#333333" stroke-width="1.5" stroke-miterlimit="10" stroke-linecap="round" stroke-linejoin="round"/>
<path d="M24.6213 34.5381C24.7275 36.6769 19.1125 37.8285 15.8095 45.5024C14.0755 49.5332 18.0154 50.9904 16.9066 54.2808" stroke="#333333" stroke-width="1.5" stroke-miterlimit="10" stroke-linecap="round" stroke-linejoin="round"/>
<path d="M32.6191 11.7401C32.6191 11.7401 40.039 8.21457 43.3419 10.4121" stroke="#333333" stroke-width="1.5" stroke-miterlimit="10" stroke-linecap="round" stroke-linejoin="round"/>
<path d="M42.2332 9.31914C42.2332 9.31914 44.439 7.12158 49.9361 7.12158C49.9361 7.12158 48.839 10.412 47.7302 12.6096" stroke="#333333" stroke-width="1.5" stroke-miterlimit="10" stroke-linecap="round" stroke-linejoin="round"/>
<path d="M43.342 10.4121C43.342 10.4121 49.9479 12.6097 47.742 18.0859" stroke="#333333" stroke-width="1.5" stroke-miterlimit="10" stroke-linecap="round" stroke-linejoin="round"/>
<path d="M25.105 29.2852C25.105 29.2852 15.8214 31.2477 14.7244 33.4452" stroke="#333333" stroke-width="1.5" stroke-miterlimit="10" stroke-linecap="round" stroke-linejoin="round"/>
<path d="M25.5062 26.8175C25.5062 26.8175 17.3432 25.5131 15.8215 26.8527" stroke="#333333" stroke-width="1.5" stroke-miterlimit="10" stroke-linecap="round" stroke-linejoin="round"/>
<path d="M89.5713 75.0347C89.5713 75.0347 88.7927 86.0342 89.9016 88.1495C91.0104 90.2648 103.88 94.8597 103.88 94.8597C103.88 94.8597 96.4721 109.796 69.7537 106.541" stroke="#333333" stroke-width="1.5" stroke-miterlimit="10" stroke-linecap="round" stroke-linejoin="round"/>
<path d="M56.0111 75.0347C56.0111 75.0347 56.0111 85.1058 56.0111 87.2329C56.0111 89.3717 51.0449 89.3717 51.0449 89.3717" stroke="#333333" stroke-width="1.5" stroke-miterlimit="10" stroke-linecap="round" stroke-linejoin="round"/>
<path d="M32.3243 99.2427C32.3243 99.2427 34.5301 117.352 13.6155 126.659" stroke="#333333" stroke-width="1.5" stroke-miterlimit="10" stroke-linecap="round" stroke-linejoin="round"/>
<path d="M38.9301 101.44C38.9301 101.44 40.0272 117.893 26.8154 126.659" stroke="#333333" stroke-width="1.5" stroke-miterlimit="10" stroke-linecap="round" stroke-linejoin="round"/>
<path d="M27.4052 32.1175L24.35 34.7616C22.9817 32.7873 21.3184 26.8645 23.5125 24.6787C25.7184 22.4811 27.7355 18.4033 27.7355 18.4033" stroke="#333333" stroke-width="1.5" stroke-miterlimit="10" stroke-linecap="round" stroke-linejoin="round"/>
<path d="M27.9243 88.2784C27.9243 88.2784 23.0761 85.3405 22.4155 83.8951C21.7549 82.4496 19.1125 79.5117 19.1125 75.1166C19.1125 70.7332 22.1678 69.5698 23.5125 72.919C25.7184 78.407 26.8155 79.4999 29.0214 81.6975C30.6846 83.3545 35.6272 84.7999 34.5302 82.7904C33.4331 80.7926 30.1302 77.3024 27.9715 72.919C26.5206 69.9694 27.9243 68.5357 29.623 68.7589C31.3098 68.9822 33.3034 71.6851 35.639 74.0119C37.8449 76.2095 38.942 77.3024 42.2449 81.6857C43.283 83.0607 44.557 84.4239 46.6449 82.7787C48.7328 81.1334 47.7419 80.5811 47.5414 79.3237C47.3409 78.0662 44.9934 78.3835 44.439 75.0931C43.8846 71.8026 44.439 69.6051 49.9478 72.3902C51.7408 73.2951 54.8668 75.7982 54.3478 79.4764C54.0057 81.8973 54.3478 84.9645 51.0449 88.2549C49.5703 89.7239 58.3821 96.6573 59.8566 98.1263C68.6684 106.905 69.7654 104.707 95.8822 126.636" stroke="#333333" stroke-width="1.5" stroke-miterlimit="10" stroke-linecap="round" stroke-linejoin="round"/>
<path d="M19.1243 75.1167C19.1243 75.1167 15.8214 76.9852 15.8214 79.3473C15.8214 81.6976 15.8214 83.8952 17.4729 86.0927C19.1243 88.2903 25.105 91.381 25.105 91.381L18.0273 90.4761L14.7244 87.926C14.7244 87.926 14.8423 93.0732 16.9303 93.7666C20.2332 94.8595 23.2412 97.8444 25.742 98.1499C34.5538 99.2428 37.3967 99.9009 38.9538 101.44C41.1597 103.638 46.6567 111.312 64.2684 126.659" stroke="#333333" stroke-width="1.5" stroke-miterlimit="10" stroke-linecap="round" stroke-linejoin="round"/>
<path d="M103.88 94.8594C103.88 94.8594 126.045 97.0569 131.165 102.533C136.284 108.021 139.115 126.659 139.115 126.659" stroke="#333333" stroke-width="1.5" stroke-miterlimit="10" stroke-linecap="round" stroke-linejoin="round"/>
<path d="M29.8236 55.5504C29.8236 54.3987 28.6676 53.2588 26.8274 52.5067C24.9872 51.7546 19.5963 53.6584 16.9186 54.2695C11.4216 55.5386 11.4216 58.9819 11.4216 61.2734C11.4216 61.8258 9.79368 63.2242 9.12129 64.7167C8.38993 66.3384 9.7347 66.9377 9.12129 68.1599C8.37813 69.6406 5.61782 71.5444 7.96526 73.8947C8.31915 74.2472 6.17224 78.3368 7.96526 79.6295C10.2655 81.2865 8.93255 94.9419 7.96526 100.254C5.66501 112.863 3.36475 126.613 3.36475 126.613" stroke="#333333" stroke-width="1.5" stroke-miterlimit="10" stroke-linecap="round" stroke-linejoin="round"/>
<path d="M13.7217 61.285C13.7217 61.285 17.178 58.9934 20.6578 57.5715C23.9136 56.2436 30.9677 53.2586 30.9677 60.1334" stroke="#333333" stroke-width="1.5" stroke-miterlimit="10" stroke-linecap="round" stroke-linejoin="round"/>
<path d="M12.5657 67.0082C12.5657 67.0082 23.5125 61.0031 27.2401 59.9924C30.9677 58.9818 32.1238 60.1335 32.1238 63.5649V69.617" stroke="#333333" stroke-width="1.5" stroke-miterlimit="10" stroke-linecap="round" stroke-linejoin="round"/>
<path d="M12.5657 78.4661L16.5646 76.2098L19.1244 74.0122" stroke="#333333" stroke-width="1.5" stroke-miterlimit="10" stroke-linecap="round" stroke-linejoin="round"/>
<path d="M23.5244 72.9189C23.5244 72.9189 29.8236 77.3846 29.8236 76.2094" stroke="#333333" stroke-width="1.5" stroke-miterlimit="10" stroke-linecap="round" stroke-linejoin="round"/>
<path d="M24.067 97.9502L22.4509 120.349" stroke="#333333" stroke-width="1.5" stroke-miterlimit="10" stroke-linecap="round" stroke-linejoin="round"/>
<path d="M23.0053 67.0082L26.8272 65.4688L27.8771 69.2998C27.8771 69.2998 26.379 67.0082 24.6331 67.0082C22.8873 67.0082 12.1646 72.2377 12.1646 72.2377" stroke="#333333" stroke-width="1.5" stroke-miterlimit="10" stroke-linecap="round" stroke-linejoin="round"/>
<path d="M13.7217 54.7979C13.7217 54.7979 11.1148 43.7984 17.5909 42.2236" stroke="#333333" stroke-width="1.5" stroke-miterlimit="10" stroke-linecap="round" stroke-linejoin="round"/>
<path d="M64.2566 68.0068C64.2566 68.0068 65.3065 68.9822 67.7011 68.8177C70.0957 68.6532 69.6828 69.6521 73.3397 69.1585C76.9965 68.6532 76.3831 68.6532 78.412 68.6532C80.441 68.6532 81.4673 68.0068 81.4673 68.0068" stroke="#333333" stroke-width="1.5" stroke-miterlimit="10" stroke-linecap="round" stroke-linejoin="round"/>
<path d="M67.7012 71.0977C67.7012 71.0977 70.7682 74.0356 76.7607 71.0977" stroke="#333333" stroke-width="1.5" stroke-miterlimit="10" stroke-linecap="round" stroke-linejoin="round"/>
<path d="M77.3032 111.782C77.3032 111.782 98.4774 111.993 106.711 99.2427" stroke="#333333" stroke-width="1.5" stroke-miterlimit="10" stroke-linecap="round" stroke-linejoin="round"/>
<path d="M7.96516 102.533C7.96516 102.533 4.32014 105.706 3.45901 111.699C2.59789 117.693 -0.115234 126.648 -0.115234 126.648" stroke="#333333" stroke-width="1.5" stroke-miterlimit="10" stroke-linecap="round" stroke-linejoin="round"/>
</svg>
