<svg width="135" height="129" viewBox="0 0 135 129" fill="none" xmlns="http://www.w3.org/2000/svg">
<path d="M93.6302 46.2308C93.6302 54.9821 93.5963 56.208 92.636 61.8038C90.6365 73.37 90.2411 75.9125 83.5871 83.4493C74.8883 93.2788 74.6398 92.1892 67.6469 92.1892C58.5867 92.1892 58.5867 91.0995 49.8879 82.3596C44.454 76.9 42.6465 68.9546 41.6185 59.772C40.9293 53.6654 41.4603 50.5667 41.6523 47.6724C40.9293 58.6937 38.0147 18.0475 67.2854 19.0009C92.2745 19.8068 93.6302 27.4798 93.6302 46.2308Z" stroke="#333333" stroke-width="1.5" stroke-miterlimit="10" stroke-linecap="round" stroke-linejoin="round"/>
<path d="M93.6302 51.8721C93.6302 51.8721 94.6244 47.8313 97.6294 50.8619C100.623 53.8925 96.6352 63.7902 95.6298 66.8208C94.6357 69.8514 92.5796 68.4326 92.5796 68.4326" stroke="#333333" stroke-width="1.5" stroke-miterlimit="10" stroke-linecap="round" stroke-linejoin="round"/>
<path d="M41.1779 49.5793C41.1779 49.5793 37.6532 44.3694 34.6595 47.4C31.6657 50.4306 38.5457 63.8015 39.5398 66.8207C40.5339 69.8513 42.59 68.4325 42.59 68.4325" stroke="#333333" stroke-width="1.5" stroke-miterlimit="10" stroke-linecap="round" stroke-linejoin="round"/>
<path d="M60.4844 51.7134C60.4844 51.7134 57.7166 50.2378 55.1296 50.2378C53.4012 50.2378 52.712 50.4081 49.2551 51.7134" stroke="#333333" stroke-width="1.5" stroke-miterlimit="10" stroke-linecap="round" stroke-linejoin="round"/>
<path d="M57.7732 50.6578C57.7732 50.6578 58.4963 52.8598 56.813 52.8598C55.1297 52.8598 54.2373 52.8598 53.4239 52.8598C52.6105 52.8598 51.7745 51.3274 52.8364 50.4989C52.8364 50.4989 54.531 49.9881 57.7732 50.6578Z" fill="#333333"/>
<path d="M73.928 51.5203C73.928 51.5203 76.7522 50.1469 79.3393 50.2377C81.0677 50.2945 81.7455 50.4988 85.146 51.9176" stroke="#333333" stroke-width="1.5" stroke-miterlimit="10" stroke-linecap="round" stroke-linejoin="round"/>
<path d="M76.6845 50.5554C76.6845 50.5554 75.8711 52.7347 77.5544 52.7915C79.2376 52.8482 80.1301 52.8823 80.9435 52.9163C81.7569 52.9504 82.6607 51.4407 81.6326 50.5781C81.6213 50.5668 79.9494 49.9992 76.6845 50.5554Z" fill="#333333"/>
<path d="M73.928 45.096C73.8489 44.71 73.397 43.7339 73.7811 43.575C75.792 42.7464 80.2657 41.7703 81.5874 41.6681C84.3891 41.4638 85.9142 43.7679 85.9142 43.7679C85.9142 43.7679 84.7506 44.483 82.8866 44.6192C81.0226 44.7554 76.5376 45.3343 74.8205 45.6521C74.4025 45.7316 73.9732 45.0506 73.8941 44.6533L73.928 45.096Z" fill="#333333"/>
<path d="M43.3582 51.0321C43.6859 52.292 43.9796 53.5406 44.2055 54.4827C44.4315 55.4248 45.2562 56.1172 46.2503 56.1966C49.2779 56.4236 55.7172 56.8209 60.0214 56.4804C61.6821 56.3442 63.0377 55.1183 63.2863 53.5065C63.4105 52.6666 63.5122 51.7585 63.5009 51.0321C63.467 49.1479 60.4733 47.7632 51.7859 47.8313C43.0984 47.8994 43.3582 51.0321 43.3582 51.0321Z" stroke="#333333" stroke-width="1.5" stroke-miterlimit="10" stroke-linecap="round" stroke-linejoin="round"/>
<path d="M90.1054 51.0321C89.7778 52.292 89.4841 53.5406 89.2582 54.4827C89.0322 55.4248 88.2075 56.1172 87.2134 56.1966C84.1858 56.4236 77.7465 56.8209 73.4423 56.4804C71.7816 56.3442 70.426 55.1183 70.1774 53.5065C70.0531 52.6666 69.9515 51.7585 69.9628 51.0321C69.9967 49.1479 72.9904 47.7632 81.6778 47.8313C90.3653 47.8994 90.1054 51.0321 90.1054 51.0321Z" stroke="#333333" stroke-width="1.5" stroke-miterlimit="10" stroke-linecap="round" stroke-linejoin="round"/>
<path d="M63.5007 51.0322C63.5007 51.0322 67.3417 49.8177 69.9627 51.0322" stroke="#333333" stroke-width="1.5" stroke-miterlimit="10" stroke-linecap="round" stroke-linejoin="round"/>
<path d="M44.4427 49.4432L40.8503 48.4897L40.5339 50.6236L44.4427 52.8257V49.4432Z" fill="#333333"/>
<path d="M90.1055 49.4432L93.6979 48.4897L94.0143 50.6236L90.1055 52.8257V49.4432Z" fill="#333333"/>
<path d="M83.3047 41.4071C83.3047 41.4071 86.1967 42.3719 86.7616 44.0404C86.7616 44.0404 86.9762 41.3049 83.3047 41.4071Z" fill="#333333"/>
<path d="M84.2537 41.2708C84.2537 41.2708 87.1005 42.3264 87.5863 44.0062C87.5863 44.0062 87.9252 41.2708 84.2537 41.2708Z" fill="#333333"/>
<path d="M71.7703 45.8904C71.7703 45.8904 71.8946 44.3014 72.8548 43.7679C72.8548 43.7565 71.0699 44.063 71.7703 45.8904Z" fill="#333333"/>
<path d="M72.8436 45.7768C72.8436 45.7768 72.9679 44.1878 73.9281 43.6543C73.9281 43.6543 72.1545 43.9608 72.8436 45.7768Z" fill="#333333"/>
<path d="M73.9281 45.6748C73.9281 45.6748 74.0523 44.0857 75.0126 43.5522C75.0126 43.5522 73.239 43.8587 73.9281 45.6748Z" fill="#333333"/>
<path d="M58.5753 44.5511C58.6205 44.1652 58.9707 43.1436 58.5753 43.0301C56.4966 42.4058 51.9552 41.861 50.6221 41.8951C47.8205 41.9632 46.51 44.4035 46.51 44.4035C46.51 44.4035 47.7414 45.0051 49.6054 44.9597C51.4807 44.9143 55.9996 45.0505 57.7393 45.2094C58.1573 45.2435 58.5188 44.5284 58.564 44.1198L58.5753 44.5511Z" fill="#333333"/>
<path d="M48.8938 41.7815C48.8938 41.7815 46.1035 43.0187 45.6968 44.7326C45.6968 44.744 45.2223 42.0312 48.8938 41.7815Z" fill="#333333"/>
<path d="M47.9334 41.7361C47.9334 41.7361 45.1996 43.0641 44.8832 44.7894C44.8832 44.7894 44.2845 42.0993 47.9334 41.7361Z" fill="#333333"/>
<path d="M60.8008 45.13C60.8008 45.13 60.5297 43.5523 59.5129 43.1209C59.5242 43.1096 61.3205 43.2458 60.8008 45.13Z" fill="#333333"/>
<path d="M59.7163 45.13C59.7163 45.13 59.4452 43.5523 58.4285 43.1209C58.4285 43.1096 60.236 43.2458 59.7163 45.13Z" fill="#333333"/>
<path d="M58.6319 45.13C58.6319 45.13 58.3607 43.5523 57.344 43.1209C57.344 43.1096 59.1402 43.2458 58.6319 45.13Z" fill="#333333"/>
<path d="M56.8242 75.7991C56.8242 75.7991 60.5071 77.1725 65.297 77.1725C72.3803 77.1725 72.3803 77.0703 75.9615 75.7991" stroke="#333333" stroke-width="1.5" stroke-miterlimit="10" stroke-linecap="round" stroke-linejoin="round"/>
<path d="M60.2585 78.9546C60.2585 78.9546 62.5857 80.1691 65.636 80.1691C70.1209 80.1691 70.1209 80.0783 72.3916 78.9546" stroke="#333333" stroke-width="1.5" stroke-miterlimit="10" stroke-linecap="round" stroke-linejoin="round"/>
<path d="M73.8262 28.2517C73.8262 28.2517 77.2831 35.2777 80.435 37.5137C80.435 37.5137 76.8538 30.9645 78.0513 29.8975C78.0513 29.8975 82.3103 33.4616 85.6656 36.0609C85.6656 36.0609 83.2367 32.0541 83.4174 29.8975C83.4174 29.8975 88.5576 31.3277 90.1166 33.2005C91.6756 35.0734 93.7091 48.4897 93.7091 48.4897L93.8559 55.1865C93.8559 55.1865 93.212 51.0549 97.6518 50.862C97.6518 50.862 98.6685 45.6748 98.7476 42.1675C98.8267 38.6601 98.6798 34.2561 97.7421 29.9202C94.4773 25.5503 90.1279 15.7207 66.212 15.7207C66.212 15.7207 48.8145 15.7207 35.7664 35.3798C34.6819 49.5794 34.6819 47.4 34.6819 47.4H42.2961L41.8442 44.0743C41.8442 44.0743 45.979 38.9553 47.4024 37.718C47.4024 37.718 48.5321 39.886 45.9677 42.5534C45.9677 42.5534 51.0062 39.7044 52.6329 36.4581C52.6329 36.4581 51.989 42.5647 49.8651 44.9824C49.8651 44.9824 56.1463 39.7044 58.4622 36.4581C58.4622 36.4581 57.1518 41.4751 56.248 43.3479C56.248 43.3479 61.3882 38.9666 62.1677 35.5387C62.1677 35.5387 61.8626 41.8383 60.2359 44.0743C60.2359 44.0743 67.771 39.7044 69.1605 36.4581C69.1605 36.4581 69.0702 38.6147 67.2965 40.8508C67.2965 40.8508 73.2388 37.7067 73.8149 34.3015C74.3911 30.8964 73.8262 28.2517 73.8262 28.2517Z" fill="#333333"/>
<path d="M29.2254 40.8395C31.225 33.1666 34.6593 3.72328 61.9869 1.52128C89.0208 -0.669374 97.7196 13.5415 98.725 19.0011C99.7305 24.4607 97.1321 29.8636 97.1321 29.8636C97.1321 29.8636 91.1899 14.9263 70.5275 15.3235C49.8765 15.7208 41.2116 29.1371 35.7325 35.3799C30.2535 41.6227 16.0417 55.4704 11.8166 58.3194C7.60283 61.1797 7.84007 71.6449 23.7915 81.2588C35.179 88.1259 44.4426 73.4383 44.4426 73.4383" stroke="#333333" stroke-width="1.5" stroke-miterlimit="10" stroke-linecap="round" stroke-linejoin="round"/>
<path d="M62.1453 35.5273C62.1453 35.5273 55.8867 42.5079 50.7126 43.8586C50.7126 43.8586 58.5867 36.7305 60.2135 33.3253C61.8403 29.9202 63.5348 32.4059 62.1453 35.5273Z" fill="#333333"/>
<path d="M52.3618 35.5273C52.3618 35.5273 46.1033 42.5079 40.9292 43.8586C40.9292 43.8586 48.8033 36.7305 50.43 33.3253C52.0568 29.9202 53.7514 32.4059 52.3618 35.5273Z" fill="#333333"/>
<path d="M83.8356 30.0679C83.8356 30.0679 90.0941 37.0484 95.2682 38.3992C95.2682 38.3992 87.3941 31.271 85.7674 27.8659C84.1406 24.4607 82.446 26.9465 83.8356 30.0679Z" fill="#333333"/>
<path d="M64.6079 58.864C64.6079 58.864 62.9925 63.8469 63.5008 66.0035C64.0092 68.1487 65.7603 69.5903 65.7603 69.5903" stroke="#333333" stroke-width="1.5" stroke-miterlimit="10" stroke-linecap="round" stroke-linejoin="round"/>
<path d="M98.9623 22.9738C98.9623 22.9738 91.6079 14.9716 87.5974 14.2566C87.5974 14.2566 88.5464 11.3395 92.5907 12.9853C96.6351 14.6311 98.725 19.0011 98.725 19.0011" stroke="#333333" stroke-width="1.5" stroke-miterlimit="10" stroke-linecap="round" stroke-linejoin="round"/>
<path d="M122.856 112.359C128.73 114.209 126.493 113.04 127.804 114.198C132.006 117.898 134.153 127.58 134.153 127.58" stroke="#333333" stroke-width="1.5" stroke-miterlimit="10" stroke-linecap="round" stroke-linejoin="round"/>
<path d="M84.4456 82.3484C84.4456 82.3484 84.4456 91.0429 84.4456 96.5252C84.4456 99.6126 92.0485 101.951 103.651 105.549" stroke="#333333" stroke-width="1.5" stroke-miterlimit="10" stroke-linecap="round" stroke-linejoin="round"/>
<path d="M47.2105 99.8735C47.2105 99.8735 46.4536 108.625 50.8255 113.256C58.2364 121.133 63.0151 125.435 69.364 124.845C75.713 124.254 83.5419 119.056 90.0942 100.509" stroke="#333333" stroke-width="1.5" stroke-miterlimit="10" stroke-linecap="round" stroke-linejoin="round"/>
<path d="M107.808 127.592C107.808 127.592 108.768 113.029 106.486 106.457L103.165 105.311C103.165 105.311 103.492 101.031 107.808 102.166C112.123 103.301 118.28 105.458 120.596 108.977C122.912 112.495 125.262 123.188 123.985 127.138" stroke="#333333" stroke-width="1.5" stroke-miterlimit="10" stroke-linecap="round" stroke-linejoin="round"/>
<path d="M12.1442 111.735C6.26976 113.585 8.50658 112.416 7.19612 113.574C2.99361 117.274 0.847168 126.956 0.847168 126.956" stroke="#333333" stroke-width="1.5" stroke-miterlimit="10" stroke-linecap="round" stroke-linejoin="round"/>
<path d="M50.5544 83.9829C50.5544 83.9829 50.5544 90.4073 50.5544 95.8896C50.5544 98.977 42.9515 101.315 31.3494 104.913" stroke="#333333" stroke-width="1.5" stroke-miterlimit="10" stroke-linecap="round" stroke-linejoin="round"/>
<path d="M27.192 126.956C27.192 126.956 26.2317 112.393 28.5137 105.821L31.8351 104.675C31.8351 104.675 31.5074 100.396 27.192 101.531C22.8765 102.666 16.7196 104.822 14.4037 108.341C12.0878 111.86 9.73798 122.552 11.0146 126.502" stroke="#333333" stroke-width="1.5" stroke-miterlimit="10" stroke-linecap="round" stroke-linejoin="round"/>
</svg>
