<svg width="171" height="158" viewBox="0 0 171 158" fill="none" xmlns="http://www.w3.org/2000/svg">
<path d="M79.642 28.3332C79.642 28.3332 76.528 37.0964 76.528 43.8135L68.2241 45.715V36.1664L64.0721 45.715L51.6162 49.5386L56.4117 33.9136C56.4117 33.9136 49.81 44.5576 45.3882 57.7438C43.3122 63.9442 39.5131 75.3116 39.5131 75.3116C39.5131 75.3116 35.8594 75.3116 32.2264 65.2463C30.8563 57.7438 30.8563 51.5434 30.8563 51.5434C26.7043 35.009 37.0842 -8.39387 84.832 1.94014C84.832 1.94014 102.893 -2.60682 115.972 12.2741C130.504 28.8086 130.504 47.4098 126.352 59.0872C123.03 56.049 120.124 59.0872 119.771 61.8981C116.615 68.9665 112.484 75.3116 112.484 75.3116C112.484 75.3116 112.484 68.6152 112.484 58.5498C112.484 58.5498 109.765 49.5592 105.343 48.7739L99.3639 34.2856C99.3639 34.2856 99.447 42.3874 99.447 45.7357L91.06 43.8342L86.9287 31.7227C86.9287 31.7227 88.465 39.0392 84.832 45.7357C84.832 45.7357 83.2958 35.0296 79.642 28.3332Z" fill="#333333"/>
<path d="M35.8599 68.0571C35.8599 68.0571 44.8489 90.7919 48.5026 98.0464C52.1564 105.301 63.0761 114.126 72.3558 115.263C83.7945 116.648 90.8944 113.713 94.1744 110.447C102.478 102.18 105.177 97.0956 108.831 89.8412C112.485 82.5867 116.118 68.0571 116.118 57.165" stroke="#333333" stroke-width="2.00357" stroke-miterlimit="10" stroke-linecap="round" stroke-linejoin="round"/>
<path d="M31.8943 50.51C31.8943 50.51 32.3925 71.6741 36.0463 75.3116" stroke="#333333" stroke-width="2.00357" stroke-miterlimit="10" stroke-linecap="round" stroke-linejoin="round"/>
<path d="M121.639 56.049C121.639 56.049 126.351 53.7755 126.351 60.6166C126.351 67.4577 120.912 74.2988 120.912 74.2988" stroke="#333333" stroke-width="2.00357" stroke-miterlimit="10" stroke-linecap="round" stroke-linejoin="round"/>
<path d="M117.135 74.3816L123.239 75.3116L120.042 79.9413L125.502 83.7442L120.395 91.8461H115.288L119.087 85.6457L112.859 79.4453L117.135 74.3816Z" stroke="#333333" stroke-width="2.00357" stroke-miterlimit="10" stroke-linecap="round" stroke-linejoin="round"/>
<path d="M43.9772 87.9191L41.5068 91.8461H36.3999L40.1989 85.6457L33.9709 79.4453L35.4449 77.6885L38.2475 74.3816" stroke="#333333" stroke-width="2.00357" stroke-miterlimit="10" stroke-linecap="round" stroke-linejoin="round"/>
<path d="M112.07 83.1035C112.07 83.1035 115.412 86.4931 117.011 83.5789" stroke="#333333" stroke-width="2.00357" stroke-miterlimit="10" stroke-linecap="round" stroke-linejoin="round"/>
<path d="M119.044 62.7659C119.044 62.7659 121.951 57.7849 123.632 60.2651C125.314 62.7659 119.086 73.5546 119.086 73.5546" stroke="#333333" stroke-width="2.00357" stroke-miterlimit="10" stroke-linecap="round" stroke-linejoin="round"/>
<path d="M58.6543 109.311C58.6543 109.311 58.6543 119.169 58.6543 123.075" stroke="#333333" stroke-width="2.00357" stroke-miterlimit="10" stroke-linecap="round" stroke-linejoin="round"/>
<path d="M104.326 98.9763C104.326 98.9763 104.326 115.325 104.326 121.814" stroke="#333333" stroke-width="2.00357" stroke-miterlimit="10" stroke-linecap="round" stroke-linejoin="round"/>
<path d="M48.5029 126.982C48.5029 126.982 53.8797 120.781 61.5816 123.882C69.2835 126.982 81.6564 129.214 91.0399 124.998C100.423 120.781 98.6588 119.045 107.835 123.013C117.011 126.982 117.011 126.982 110.783 133.182C104.555 139.383 91.725 147.774 77.3799 146.678C63.0348 145.583 42.2749 133.182 48.5029 126.982Z" stroke="#333333" stroke-width="2.00357" stroke-miterlimit="10" stroke-linecap="round" stroke-linejoin="round"/>
<path d="M104.326 118.26C104.326 118.26 108.457 113.671 112.733 116.193C117.01 118.714 121.079 120.781 119.044 124.915C117.01 129.048 114.54 129.11 114.54 129.11" stroke="#333333" stroke-width="2.00357" stroke-miterlimit="10" stroke-linecap="round" stroke-linejoin="round"/>
<path d="M119.106 121.091C119.106 121.091 131.957 120.905 133.825 129.11C135.693 137.316 139.845 149.716 143.997 151.783C143.997 151.783 128.697 150.543 124.94 143.929C121.162 137.316 117.01 127.788 117.01 127.788" stroke="#333333" stroke-width="2.00357" stroke-miterlimit="10" stroke-linecap="round" stroke-linejoin="round"/>
<path d="M116.117 118.26C116.117 118.26 123.653 114.601 135.902 120.781C148.15 126.982 154.378 141.449 154.378 141.449" stroke="#333333" stroke-width="2.00357" stroke-miterlimit="10" stroke-linecap="round" stroke-linejoin="round"/>
<path d="M46.7646 132.605C46.7646 132.605 16.8051 140.67 9.93849 144.931C3.07193 149.192 1.35034 156.648 1.35034 156.648" stroke="#333333" stroke-width="2.00357" stroke-miterlimit="10" stroke-linecap="round" stroke-linejoin="round"/>
<path d="M135.694 135.249C135.694 135.249 155.478 140.374 161.914 144.797C168.349 149.22 169.948 156.95 169.948 156.95" stroke="#333333" stroke-width="2.00357" stroke-miterlimit="10" stroke-linecap="round" stroke-linejoin="round"/>
<path d="M81.6557 60.451C79.206 65.3493 81.6557 72.0458 85.5378 73.9886C89.4199 75.9314 97.8899 75.9314 102.395 73.9886C106.9 72.0458 108.872 64.3986 106.92 60.4924C104.969 56.5861 101.087 54.6433 95.2534 54.6433C85.5378 54.6433 83.5863 56.5861 81.6557 60.451Z" stroke="#333333" stroke-width="2.00357" stroke-miterlimit="10" stroke-linecap="round" stroke-linejoin="round"/>
<path d="M71.4002 60.451C73.8498 65.3493 71.4002 72.0458 67.5181 73.9886C63.636 75.9314 55.1659 75.9314 50.661 73.9886C46.1561 72.0458 44.1839 64.3986 46.1354 60.4924C48.0868 56.5861 51.9689 54.6433 57.8024 54.6433C67.4973 54.6433 69.4487 56.5861 71.4002 60.451Z" stroke="#333333" stroke-width="2.00357" stroke-miterlimit="10" stroke-linecap="round" stroke-linejoin="round"/>
<path d="M85.0398 49.4766C85.0398 49.4766 91.8075 45.4463 103.516 49.394" stroke="#333333" stroke-width="2.00357" stroke-miterlimit="10" stroke-linecap="round" stroke-linejoin="round"/>
<path d="M70.3008 49.4766C70.3008 49.4766 63.533 45.4463 51.8245 49.394" stroke="#333333" stroke-width="2.00357" stroke-miterlimit="10" stroke-linecap="round" stroke-linejoin="round"/>
<path d="M64.072 63.9442C64.072 63.9442 60.3352 59.9139 53.8997 63.8615" stroke="#333333" stroke-width="2.00357" stroke-miterlimit="10" stroke-linecap="round" stroke-linejoin="round"/>
<path d="M72.3767 62.6837C72.3767 62.6837 76.155 59.2942 80.6807 62.6837" stroke="#333333" stroke-width="2.00357" stroke-miterlimit="10" stroke-linecap="round" stroke-linejoin="round"/>
<path d="M39.949 61.1746L45.3673 62.0219" stroke="#333333" stroke-width="2.00357" stroke-miterlimit="10" stroke-linecap="round" stroke-linejoin="round"/>
<path d="M115.952 61.1746L107.669 61.7326" stroke="#333333" stroke-width="2.00357" stroke-miterlimit="10" stroke-linecap="round" stroke-linejoin="round"/>
<path d="M56.8065 62.911C56.8065 62.911 55.7685 66.0112 59.9205 66.0112C65.0689 66.0112 63.0345 62.911 63.0345 62.911C63.0345 62.911 60.9585 60.8442 56.8065 62.911Z" fill="#333333"/>
<path d="M99.3642 63.9442C99.3642 63.9442 95.6275 59.9139 89.1919 63.8615" stroke="#333333" stroke-width="2.00357" stroke-miterlimit="10" stroke-linecap="round" stroke-linejoin="round"/>
<path d="M90.0221 62.911C90.0221 62.911 88.9841 66.0112 93.1361 66.0112C98.2845 66.0112 96.25 62.911 96.25 62.911C96.25 62.911 94.1741 60.8442 90.0221 62.911Z" fill="#333333"/>
<path d="M72.3767 79.7761C72.3767 79.7761 73.3939 83.2484 75.9889 83.9304" stroke="#333333" stroke-width="2.00357" stroke-miterlimit="10" stroke-linecap="round" stroke-linejoin="round"/>
<path d="M64.0728 90.8127C64.0728 90.8127 68.5569 93.5823 77.0685 93.5823C85.58 93.5823 91.0606 90.8127 91.0606 90.8127C91.0606 90.8127 89.9396 100.63 77.5667 100.63C65.1938 100.63 64.0728 90.8127 64.0728 90.8127Z" stroke="#333333" stroke-width="2.00357" stroke-miterlimit="10" stroke-linecap="round" stroke-linejoin="round"/>
</svg>
