<svg width="140" height="140" viewBox="0 0 140 140" fill="none" xmlns="http://www.w3.org/2000/svg">
<g clip-path="url(#clip0_423_395)">
<path d="M37.7777 57.2988C37.7777 75.0766 40.8666 81.3544 46.6666 90.6322C52.2222 99.5211 60.4666 106.188 67.7777 106.188C74.4444 106.188 77.4333 103.199 79.9999 100.632C86.4999 94.1322 89.9999 91.1877 92.8555 85.4766C95.7111 79.7655 98.8888 76.1877 97.7777 57.2988" stroke="#333333" stroke-width="1.5" stroke-linecap="round" stroke-linejoin="round"/>
<path d="M74.2556 55.9765C74.2556 55.9765 79.5556 52.8098 88.7001 55.9209" stroke="#333333" stroke-width="1.5" stroke-linecap="round" stroke-linejoin="round"/>
<path d="M45.5555 56.91C45.5555 56.91 50.4 53.0767 59.8778 54.9767" stroke="#333333" stroke-width="1.5" stroke-linecap="round" stroke-linejoin="round"/>
<path d="M64.3444 64.1433C65.2542 63.382 66.4027 62.9648 67.5889 62.9648C68.7752 62.9648 69.9236 63.382 70.8333 64.1433" stroke="#333333" stroke-width="1.5" stroke-linecap="round" stroke-linejoin="round"/>
<path d="M38.9667 62.9543L43.2111 63.621" stroke="#333333" stroke-width="1.5" stroke-linecap="round" stroke-linejoin="round"/>
<path d="M98.4445 62.9543L91.9556 63.3877" stroke="#333333" stroke-width="1.5" stroke-linecap="round" stroke-linejoin="round"/>
<path d="M87.7778 66.1877C86.8971 66.2183 86.0196 66.067 85.2 65.7433C83.3555 64.4988 79.5444 62.7322 76.3111 66.321" stroke="#333333" stroke-width="1.5" stroke-linecap="round" stroke-linejoin="round"/>
<path d="M87.2222 64.5209C86.637 64.4408 86.0718 64.2524 85.5556 63.9653C83.6222 62.8542 79.5445 61.2987 76.3445 66.1875" stroke="#333333" stroke-linecap="round" stroke-linejoin="round"/>
<path d="M78.0889 64.8543C78.0889 64.8543 77.4556 66.2765 78.0889 66.9099C80.7667 66.2765 80.9333 67.8654 82.8222 67.0765C83.1001 66.7333 83.2385 66.2979 83.2096 65.8572C83.1808 65.4165 82.987 65.0029 82.6667 64.6988C82.6667 64.6988 81.4 63.4321 78.0889 64.8543Z" fill="#333333"/>
<path d="M62.1222 78.6876C62.5772 79.5052 63.2152 80.2064 63.9862 80.7365C64.7572 81.2665 65.6404 81.6111 66.5666 81.7432" stroke="#333333" stroke-width="1.5" stroke-linecap="round" stroke-linejoin="round"/>
<path d="M71.7555 64.6544C72.1 59.7988 77.5667 58.321 82.3222 58.321C87.0778 58.321 89.7111 60.9544 90.7778 63.5988C91.8444 66.2433 90.7778 76.2766 82.3222 76.2766C73.8667 76.2766 71.2222 72.0544 71.7555 64.6544Z" stroke="#333333" stroke-width="1.5" stroke-linecap="round" stroke-linejoin="round"/>
<path d="M47.2445 66.1877C48.1252 66.2183 49.0027 66.067 49.8223 65.7433C51.6667 64.4988 55.4778 62.7322 58.7112 66.321" stroke="#333333" stroke-width="1.5" stroke-linecap="round" stroke-linejoin="round"/>
<path d="M47.7778 64.5209C48.3599 64.4534 48.9247 64.2802 49.4445 64.0098C51.3778 62.8986 55.4445 61.3431 58.6556 66.232" stroke="#333333" stroke-linecap="round" stroke-linejoin="round"/>
<path d="M56.9333 64.8543C56.9333 64.8543 57.5667 66.2765 56.9333 66.9099C54.2444 66.2765 54.0889 67.8654 52.1889 67.0765C51.9123 66.7319 51.776 66.2958 51.8069 65.855C51.8377 65.4143 52.0337 65.0014 52.3556 64.6988C52.3556 64.6988 53.6111 63.4321 56.9333 64.8543Z" fill="#333333"/>
<path d="M63.2666 64.6544C62.9222 59.7988 57.4555 58.321 52.7 58.321C47.9444 58.321 45.3 60.9544 44.2444 63.5988C43.1889 66.2433 44.2444 76.2766 52.7 76.2766C61.1555 76.2766 63.8 72.0544 63.2666 64.6544Z" stroke="#333333" stroke-width="1.5" stroke-linecap="round" stroke-linejoin="round"/>
<path d="M54.4445 86.7209C58.6898 87.4168 62.9774 87.8251 67.2778 87.9432C72.8333 87.9432 78.8889 87.3321 78.8889 87.3321C77.3377 88.1739 76.064 89.4475 75.2223 90.9987C74 93.4432 70.3333 93.4432 66.6667 93.4432C63.6111 93.4432 60.5556 92.8321 59.3334 90.9987C58.1981 89.0909 56.4861 87.5929 54.4445 86.7209V86.7209Z" stroke="#333333" stroke-width="1.5" stroke-linecap="round" stroke-linejoin="round"/>
<path d="M67.7778 37.2988C67.7778 37.2988 73.3333 42.8543 72.2222 50.6321C73.4797 46.1998 73.0848 41.4618 71.1111 37.2988C73.1129 39.4118 74.2949 42.1698 74.4444 45.0765V50.6321C75.9895 48.7641 76.782 46.3869 76.6667 43.9654C76.6338 41.2209 75.8665 38.5353 74.4444 36.1877C74.4444 36.1877 78.8889 39.521 78.8889 43.9654C78.9934 46.2412 78.6147 48.5133 77.7778 50.6321C77.7778 50.6321 82.2222 50.6321 83.3333 51.7432V42.8543C84.663 45.6382 85.4187 48.6612 85.5555 51.7432C85.5555 51.7432 88.8889 51.7432 90 52.8543L88.8889 47.2988C88.8889 47.2988 92.2222 52.8543 92.2222 53.9654V52.8543C92.2222 52.8543 95.5555 53.9654 95.5555 57.2988C95.5555 60.6321 94.4444 70.6321 94.4444 77.2988C94.4444 83.9654 92.2222 88.4099 92.2222 93.9654C92.3433 97.5509 93.5011 101.024 95.5555 103.965C95.5555 103.965 92.2222 96.1877 94.4444 90.6321C96.6667 85.0765 98.8889 71.7432 98.8889 67.2988C98.8889 62.8543 100 53.9654 100 53.9654C100.611 57.6411 100.982 61.3526 101.111 65.0766C101.111 69.521 101.111 79.521 97.7778 85.0766C96.8052 86.74 96.2025 88.5936 96.0108 90.511C95.8191 92.4283 96.0428 94.3645 96.6667 96.1877C96.6667 96.1877 95.5555 89.521 100 85.0766C104.444 80.6321 104.444 61.7432 102.222 52.8543C100 43.9654 97.7778 15.0765 65.5555 19.521L67.7778 37.2988Z" fill="#333333"/>
<path d="M65.5556 37.2988C65.5556 37.2988 60.0001 42.8543 61.1112 50.6321C59.8537 46.1998 60.2485 41.4618 62.2223 37.2988C60.2205 39.4118 59.0385 42.1698 58.8889 45.0765V50.6321C57.3439 48.7641 56.5514 46.3869 56.6667 43.9654C56.6996 41.2209 57.4669 38.5353 58.8889 36.1877C58.8889 36.1877 54.4445 39.521 54.4445 43.9654C54.34 46.2412 54.7187 48.5133 55.5556 50.6321C55.5556 50.6321 51.1112 50.6321 50.0001 51.7432V42.8543C48.6704 45.6382 47.9146 48.6612 47.7778 51.7432C47.7778 51.7432 44.4445 51.7432 43.3334 52.8543L44.4445 47.2988C44.4445 47.2988 41.1112 52.8543 41.1112 53.9654V52.8543C41.1112 52.8543 37.7778 53.9654 37.7778 57.2988C37.7778 60.6321 38.8889 70.6321 38.8889 77.2988C38.8889 83.9654 41.1112 88.4099 41.1112 93.9654C40.9901 97.5509 39.8323 101.024 37.7778 103.965C37.7778 103.965 41.1112 96.1877 38.8889 90.6321C36.6667 85.0765 34.4445 71.7432 34.4445 67.2988C34.4445 62.8543 33.3334 53.9654 33.3334 53.9654C32.7221 57.6411 32.351 61.3526 32.2223 65.0766C32.2223 69.521 32.2223 79.521 35.5556 85.0766C36.5282 86.74 37.1308 88.5936 37.3226 90.511C37.5143 92.4283 37.2906 94.3645 36.6667 96.1877C36.6667 96.1877 37.7778 89.521 33.3334 85.0766C28.8889 80.6321 28.8889 61.7432 31.1112 52.8543C33.3334 43.9654 35.5556 15.0765 67.7778 19.521L65.5556 37.2988Z" fill="#333333"/>
<path d="M65.7111 21.5877C65.7111 21.5877 62.2222 46.1877 64.4444 51.7432C64.4444 51.7432 68 23.6432 67.8888 21.5877C67.7777 19.5321 65.7111 21.5877 65.7111 21.5877Z" fill="#333333"/>
<path d="M58.4111 26.9098C58.4111 26.9098 54.0889 46.2654 56.8444 50.6321C56.8444 50.6321 61.2889 28.5321 61.1111 26.9098C60.9333 25.2876 58.4111 26.9098 58.4111 26.9098Z" fill="#333333"/>
<path d="M77.5777 24.6877C77.5777 24.6877 84.3666 44.0432 79.9999 48.4099C79.9999 48.4099 73.0777 26.3099 73.3333 24.6877C73.5888 23.0654 77.5777 24.6877 77.5777 24.6877Z" fill="#333333"/>
<path d="M67 21.5877C67 21.5877 70.4889 46.1877 68.2667 51.7432C68.2667 51.7432 64.7001 23.6432 64.8223 21.5877C64.9445 19.5321 67 21.5877 67 21.5877Z" fill="#333333"/>
<path d="M65.5556 20.1654C65.5556 20.1654 58.5556 13.0432 51.5111 20.1654C44.4667 27.2877 47.7778 25.0765 47.7778 25.0765C47.7778 25.0765 57.7 14.1543 65.5556 20.1654Z" fill="#333333"/>
<path d="M65.8777 20.1654C65.8777 20.1654 72.8778 13.0432 79.9111 20.1654C86.9444 27.2877 83.6222 25.0765 83.6222 25.0765C83.6222 25.0765 73.6889 14.1543 65.8777 20.1654Z" fill="#333333"/>
<path d="M73.6556 22.3876C73.6556 22.3876 80.6556 15.2654 87.6889 22.3876C94.7223 29.5098 91.4001 27.2987 91.4001 27.2987C91.4001 27.2987 81.4667 16.3765 73.6556 22.3876Z" fill="#333333"/>
<path d="M62.2222 21.2765C62.2222 21.2765 55.2222 14.1543 48.1777 21.2765C41.1333 28.3987 44.4444 26.1876 44.4444 26.1876C44.4444 26.1876 54.3666 15.2654 62.2222 21.2765Z" fill="#333333"/>
<path d="M59.8444 19.221C61.8562 17.8709 64.246 17.1975 66.6667 17.2988C71.1111 17.2988 75.1444 21.4543 75.1444 21.4543L65.8777 23.9654L59.8444 19.221Z" fill="#333333"/>
<path d="M85.5556 25.0765C85.5556 25.0765 90 22.8543 94.4445 29.5209C98.8889 36.1876 104.033 49.9543 101.456 58.6321C98.8778 67.3098 97.6779 78.6321 100.511 80.7432C100.511 80.7432 94.7779 76.2321 99.0556 61.2098C103.333 46.1876 85.5556 25.0765 85.5556 25.0765Z" fill="#333333"/>
<path d="M45.5557 35.0766C45.5557 35.0766 44.4445 53.9655 40.0001 59.521C35.5557 65.0766 34.4445 75.1766 41.1112 80.1321C41.1112 80.1321 31.1112 75.0766 35.5557 61.7432C40.0001 48.4099 40.0001 29.521 45.5557 35.0766Z" fill="#333333"/>
<path d="M38.889 52.8543C38.889 52.8543 35.5556 71.7432 32.2223 75.0765C28.889 78.4099 37.4112 87.9876 40.3668 87.6432C40.3668 87.6432 30.4889 81.5321 34.1334 76.0765C37.7778 70.621 41.1112 60.6321 41.1112 56.1876C41.1112 51.7432 38.889 52.8543 38.889 52.8543Z" fill="#333333"/>
<path d="M48.8889 41.7432C48.8889 41.7432 44.4444 57.5877 40 60.221C40 60.221 45.5556 47.2988 47.7778 39.521C50 31.7432 52.2222 37.2988 48.8889 41.7432Z" fill="#333333"/>
<path d="M88.3667 45.0765C88.3667 45.0765 92.8111 60.9209 97.2556 63.5543C97.2556 63.5543 91.7 50.632 89.4778 42.8543C87.2556 35.0765 85.0333 40.632 88.3667 45.0765Z" fill="#333333"/>
<path d="M51.8111 97.3877V105.077C51.8111 105.077 62.2222 125.077 70 125.077C70 125.077 81.1111 113.966 84.4444 106.188V96.1877" stroke="#333333" stroke-width="1.5" stroke-linecap="round" stroke-linejoin="round"/>
<path d="M84.4444 103.966C84.4444 103.966 87.7778 100.632 92.2222 105.077C96.6666 109.521 90 123.966 86.6666 127.299C83.3333 130.632 82.2222 137.299 82.2222 137.299C82.2222 137.299 76.6666 123.966 70 125.077C70 125.077 64.4444 128.41 61.1111 128.41C57.7778 128.41 55.5555 137.299 55.5555 137.299C55.5555 137.299 53.3333 129.521 48.8889 125.077C44.4444 120.632 42.2222 111.743 44.4444 106.188C44.677 105.455 45.0533 104.776 45.5515 104.191C46.0497 103.606 46.6597 103.126 47.3458 102.779C48.0318 102.432 48.7801 102.226 49.5468 102.172C50.3136 102.118 51.0834 102.218 51.8111 102.466" stroke="#333333" stroke-width="1.5" stroke-linecap="round" stroke-linejoin="round"/>
<path d="M43.9111 108.01C43.9111 108.01 27.8333 112.854 21.8889 118.41C15.9445 123.966 12.3778 133.966 10 139.521" stroke="#333333" stroke-width="1.5" stroke-linecap="round" stroke-linejoin="round"/>
<path d="M23.5555 117.054C23.5555 117.054 26.6666 129.521 26.6666 139.521" stroke="#333333" stroke-width="1.5" stroke-linecap="round" stroke-linejoin="round"/>
<path d="M93.3333 108.41C93.3333 108.41 110.711 112.854 117.144 118.41C123.578 123.965 127.433 133.965 130 139.521" stroke="#333333" stroke-width="1.5" stroke-linecap="round" stroke-linejoin="round"/>
<path d="M115.344 117.054C115.344 117.054 112.011 129.521 112.011 139.521" stroke="#333333" stroke-width="1.5" stroke-linecap="round" stroke-linejoin="round"/>
</g>
<defs>
<clipPath id="clip0_423_395">
<rect width="140" height="140" fill="white"/>
</clipPath>
</defs>
</svg>
