<svg width="128" height="128" viewBox="0 0 128 128" fill="none" xmlns="http://www.w3.org/2000/svg">
<g clip-path="url(#clip0)">
<path d="M91.2464 51.4321C87.2993 29.0144 83.6567 20.0879 72.4581 17.9689C60.1881 15.6471 45.4597 21.3051 45.4597 21.3051C45.4597 21.3051 38.9751 25.5655 35.6144 32.6661C31.5545 41.2658 32.2537 41.5476 32.2537 52.1647C32.2537 58.0368 34.3964 67.3578 40.7569 74.898C45.4709 80.4884 46.61 80.4208 48.9782 83.1145C54.8538 89.7981 56.0267 90.1588 63.5939 90.0348C66.9546 89.9784 69.9883 88.8964 77.1495 83.4639C83.0251 79.0119 90.0623 77.2424 91.2352 64.3372" stroke="#333333" stroke-width="1.5" stroke-miterlimit="10" stroke-linecap="round" stroke-linejoin="round"/>
<path d="M65.4209 44.3653C65.4209 44.3653 68.6801 42.021 73.6422 42.021C76.7774 42.021 81.8635 43.1932 81.8635 43.1932" stroke="#333333" stroke-width="1.5" stroke-miterlimit="10" stroke-linecap="round" stroke-linejoin="round"/>
<path d="M49.7001 87.3862V93.6077C49.7001 93.6077 40.1819 84.0726 41.3548 78.6062C41.3548 78.6062 47.4785 85.2109 49.7001 87.3862Z" fill="#333333"/>
<path d="M104.599 101.757C104.599 101.757 120.771 108.925 123.771 114.921C126.771 120.917 127.154 127.127 127.154 127.127" stroke="#333333" stroke-width="1.5" stroke-miterlimit="10" stroke-linecap="round" stroke-linejoin="round"/>
<path d="M28.8255 100.72C28.8255 100.72 8.0748 108.181 4.95092 114.425C1.82705 120.669 0.857178 127.139 0.857178 127.139" stroke="#333333" stroke-width="1.5" stroke-miterlimit="10" stroke-linecap="round" stroke-linejoin="round"/>
<path d="M81.8524 50.2601C80.4991 49.5838 79.5856 49.0879 74.1386 49.0879C68.6915 49.0879 67.6653 52.2325 67.6653 52.2325" stroke="#333333" stroke-width="1.5" stroke-miterlimit="10" stroke-linecap="round" stroke-linejoin="round"/>
<path d="M79.5067 49.0878C77.161 47.9157 75.9881 47.9157 74.1499 47.8819C68.7028 47.7804 67.6653 51.1842 67.6653 51.1842" stroke="#333333" stroke-width="1.5" stroke-miterlimit="10" stroke-linecap="round" stroke-linejoin="round"/>
<path d="M56.0268 45.5375C56.0268 45.5375 51.2226 42.021 46.9709 42.021C44.2756 42.021 41.9412 43.1932 41.9412 43.1932" stroke="#333333" stroke-width="1.5" stroke-miterlimit="10" stroke-linecap="round" stroke-linejoin="round"/>
<path d="M71.962 49.0879C71.962 49.0879 70.8681 52.2325 71.962 53.2807C71.962 53.2807 74.1386 54.3288 76.3151 53.2807C76.3151 53.2807 78.4917 51.1843 76.3151 49.0879C76.3264 49.0879 74.1386 49.0879 71.962 49.0879Z" fill="#333333"/>
<path d="M41.9412 50.2602C43.2606 48.423 46.0011 47.8257 49.0009 47.8257C52.0007 47.8257 54.9442 51.0266 54.9442 51.0266" stroke="#333333" stroke-width="1.5" stroke-miterlimit="10" stroke-linecap="round" stroke-linejoin="round"/>
<path d="M54.8539 50.2602C54.8539 50.2602 50.1625 46.7437 46.6326 46.7437C44.7831 46.7437 43.114 47.9158 43.114 47.9158" stroke="#333333" stroke-width="1.5" stroke-miterlimit="10" stroke-linecap="round" stroke-linejoin="round"/>
<path d="M51.8992 48.716C51.8992 48.716 52.4969 50.2601 51.324 52.6157C51.324 52.6157 48.9783 53.7878 46.9934 52.1423C46.9934 52.1423 45.4597 50.2713 46.9934 47.8706C46.9934 47.8706 48.9783 46.7436 51.8992 48.716Z" fill="#333333"/>
<path d="M94.878 125.944H94.472C94.4607 125.944 94.6299 125.978 94.878 125.944Z" fill="#333333"/>
<path d="M110.035 106.13C102.986 92.5371 99.4678 85.7407 99.4678 76.6902C99.4678 62.5566 105.343 37.0619 95.9492 18.9384C91.8442 11.0262 88.9007 4.21864 80.6794 4.21864C66.5938 -2.57769 49.5309 2.12226 40.7682 11.015C27.0096 24.957 25.5097 52.9087 25.5097 60.8321C25.5097 81.8748 27.8554 92.5371 26.6826 102.726C25.4646 113.343 14.469 127.473 14.469 127.473H45.4822C52.8013 122.096 55.5982 87.9047 51.3466 84.2868C35.0956 70.4575 40.1367 58.0032 41.9524 46.1124C44.986 26.2644 54.8652 24.5963 58.3837 23.4693C60.8761 22.669 70.1237 21.2038 70.1237 21.2038C81.8636 26.8618 83.0364 30.2656 87.7392 40.4544C89.0361 43.2609 90.9984 49.2682 91.2578 52.9087C94.8214 53.2018 92.2389 43.847 95.9492 43.847C101.825 43.847 94.641 62.2974 89.9496 63.4357C87.6038 74.7629 84.2093 78.9557 79.5178 81.2099C78.345 98.195 74.8264 100.46 84.2093 112.915C90.7164 121.537 82.8785 127.326 81.8748 127.473H115.5C115.5 129.001 115.347 116.397 110.035 106.13Z" fill="#333333"/>
<path d="M47.2642 104.89C47.2642 104.89 51.3241 118.618 56.0155 123.013" stroke="#333333" stroke-width="1.5" stroke-miterlimit="10" stroke-linecap="round" stroke-linejoin="round"/>
<path d="M45.4709 127.015C45.4709 127.015 81.1305 116.634 90.2991 108.677" stroke="#333333" stroke-width="1.5" stroke-miterlimit="10" stroke-linecap="round" stroke-linejoin="round"/>
<path d="M58.3726 58.4766C58.3726 58.4766 57.1997 64.3487 57.1997 65.5208C57.1997 66.693 60.7183 67.8652 61.8912 66.693" stroke="#333333" stroke-width="1.5" stroke-miterlimit="10" stroke-linecap="round" stroke-linejoin="round"/>
<path d="M90.2991 49.8656C89.9383 49.9107 90.2991 55.0502 91.2465 55.8617C92.1938 56.6732 93.5358 51.2068 93.423 49.426C93.423 49.426 92.5208 54.5543 91.7878 54.4866C91.066 54.419 90.2991 49.8656 90.2991 49.8656Z" fill="#333333"/>
<path d="M93.1862 52.1197C93.5358 52.1648 93.1862 57.3043 92.2727 58.1158C91.3592 58.9273 90.0623 53.461 90.1638 51.6802C90.1638 51.6802 91.0322 56.8084 91.7427 56.7408C92.4419 56.6732 93.1862 52.1197 93.1862 52.1197Z" fill="#333333"/>
<path d="M90.2991 47.6114C89.9383 47.6565 90.2991 52.796 91.2465 53.6075C92.1938 54.419 93.5358 48.9527 93.423 47.1719C93.423 47.1719 92.5208 52.3001 91.7878 52.2325C91.066 52.1649 90.2991 47.6114 90.2991 47.6114Z" fill="#333333"/>
<path d="M90.8856 52.1197C90.8856 52.1197 91.6073 57.8453 90.7954 60.6179C90.2202 62.5678 91.5509 65.5207 91.5509 65.5207H92.1938C92.1938 65.5207 91.0773 62.6579 91.0773 61.7675C91.0773 60.3249 91.6186 59.6261 91.6186 58.1947C91.6186 56.6055 91.3592 52.1084 91.3592 52.1084H90.8856V52.1197Z" fill="#333333"/>
<path d="M90.0962 52.1084C90.0962 52.1084 90.536 57.8565 89.5774 60.5953C88.912 62.5227 90.0962 65.532 90.0962 65.532L90.7277 65.5658C90.7277 65.5658 89.7466 62.6579 89.7917 61.7675C89.8594 60.3248 90.4345 59.6486 90.5022 58.2285C90.5811 56.6393 90.5473 52.1422 90.5473 52.1422L90.0962 52.1084Z" fill="#333333"/>
<path d="M51.5947 72.4524C51.5947 72.4524 56.1057 73.5795 60.6168 73.5795C65.1278 73.5795 70.7214 73.5795 72.9995 73.0159C72.9995 73.0159 70.7665 76.9607 60.6168 76.9607C53.8502 76.9607 51.5947 72.4524 51.5947 72.4524Z" stroke="#333333" stroke-width="1.5" stroke-miterlimit="10" stroke-linecap="round" stroke-linejoin="round"/>
<path d="M58.0002 78.6062C58.0002 78.6062 61.7444 80.2518 65.6915 78.6062" stroke="#333333" stroke-width="1.5" stroke-miterlimit="10" stroke-linecap="round" stroke-linejoin="round"/>
<path d="M16.6343 13.844C16.6343 13.844 16.6343 21.7336 12.1233 21.7336C12.1233 21.7336 16.6343 23.9878 16.6343 29.5668C16.6343 29.5668 16.6343 21.7336 21.337 21.7336C21.337 21.7336 16.6343 20.6065 16.6343 13.844Z" stroke="#333333" stroke-width="1.5" stroke-miterlimit="10" stroke-linecap="round" stroke-linejoin="round"/>
<path d="M115.234 82.5962C115.234 82.5962 115.234 89.3587 111.366 89.3587C111.366 89.3587 115.234 91.286 115.234 96.0649C115.234 96.0649 115.234 89.3587 119.26 89.3587C119.26 89.3587 115.234 88.3894 115.234 82.5962Z" stroke="#333333" stroke-width="1.5" stroke-miterlimit="10" stroke-linecap="round" stroke-linejoin="round"/>
</g>
<defs>
<clipPath id="clip0">
<rect width="128" height="127" fill="white" transform="translate(0 0.983887)"/>
</clipPath>
</defs>
</svg>
