<svg width="140" height="141" viewBox="0 0 140 141" fill="none" xmlns="http://www.w3.org/2000/svg">
<g clip-path="url(#clip0_1_2799)">
<path d="M77.8318 53.6911C77.8318 53.6911 84.9511 51.9166 90.3291 53.0479C92.6765 53.547 94.2855 54.9222 94.2855 54.9222" stroke="#333333" stroke-width="1.5" stroke-linecap="round" stroke-linejoin="round"/>
<path d="M62.6343 53.6911C62.6343 53.6911 55.515 51.9166 50.1369 53.0479C47.7895 53.547 46.1805 54.9222 46.1805 54.9222" stroke="#333333" stroke-width="1.5" stroke-linecap="round" stroke-linejoin="round"/>
<path d="M93.7455 60.5562C91.861 59.547 88.5879 58.327 83.805 58.327C78.7024 58.327 76.1016 59.7134 74.8673 60.7559C74.184 61.3326 73.6991 62.4084 73.5999 63.6394C73.5117 64.7818 73.1481 67.2439 74.3603 69.0738C76.7077 72.6117 80.2233 73.7873 83.805 73.7873C89.5908 73.7873 94.2856 72.6117 95.4097 65.1034C95.7072 63.1404 94.9248 61.1884 93.7455 60.5562Z" stroke="#333333" stroke-width="1.5" stroke-linecap="round" stroke-linejoin="round"/>
<path d="M88.4777 63.5396C88.4777 63.5396 84.5323 58.3492 77.8318 63.4287" stroke="#333333" stroke-width="1.5" stroke-linecap="round" stroke-linejoin="round"/>
<path d="M84.7681 63.8054C83.4889 64.243 82.5424 64.1683 81.9319 64.0077C81.6542 63.6617 81.5476 63.1542 81.5358 62.645C81.5296 62.3787 81.55 62.1372 81.5722 61.962C81.5733 61.9539 81.5743 61.946 81.5753 61.9382C82.6017 61.5195 83.4258 61.5161 83.9912 61.6121C84.2984 61.6642 84.5344 61.7466 84.6892 61.8131C84.7163 61.8248 84.7408 61.8359 84.7628 61.8463C84.77 61.8689 84.7776 61.8936 84.7855 61.9202C84.8319 62.077 84.8863 62.2944 84.9199 62.5377C84.9835 62.9985 84.96 63.4617 84.7681 63.8054Z" fill="#333333" stroke="#333333"/>
<path d="M67.23 63.6394C67.1308 62.4084 66.6459 61.3326 65.9626 60.7559C64.7283 59.7134 62.1274 58.327 57.0249 58.327C52.2419 58.327 48.9688 59.547 47.0843 60.5562C45.8941 61.1884 45.1226 63.1293 45.4202 65.1034C46.5553 72.6117 51.2391 73.7873 57.0249 73.7873C60.6176 73.7873 64.1332 72.6117 66.4695 69.0738C67.6818 67.2439 67.3181 64.7818 67.23 63.6394V63.6394Z" stroke="#333333" stroke-width="1.5" stroke-linecap="round" stroke-linejoin="round"/>
<path d="M67.3291 62.6634C67.3291 62.6634 69.5332 60.7115 73.5778 62.6634" stroke="#333333" stroke-width="1.5" stroke-linecap="round" stroke-linejoin="round"/>
<path d="M95.8481 63.0872L95.5671 62.0975L99.6878 62.1581L99.6973 62.8976L95.8481 63.0872Z" fill="#333333" stroke="#333333"/>
<path d="M72.7072 77.6025C72.7072 77.6025 69.8308 78.5452 68.2108 77.0923" stroke="#333333" stroke-width="1.5" stroke-linecap="round" stroke-linejoin="round"/>
<path d="M99.7407 61.5877C97.1398 41.1033 87.5188 32.741 75.7048 31.3879C62.7556 29.9018 38.8849 41.8574 39.9319 66.5452C40.1633 71.8687 41.7172 82.0277 46.5222 88.6709C48.7374 91.7319 52.3521 94.0277 57.6089 98.8743C59.8241 100.915 62.0613 102.124 71.539 102.59C77.6334 102.889 79.9146 100.394 82.1077 98.7745C87.6952 94.6599 89.9324 92.597 93.2826 88.4824C97.1619 83.7356 101.063 72.0461 99.7297 61.5877H99.7407Z" stroke="#333333" stroke-width="1.5" stroke-linecap="round" stroke-linejoin="round"/>
<path d="M61.2238 85.1774C61.2238 85.1774 64.563 86.6858 71.2415 86.6858C77.92 86.6858 80.1461 85.1774 80.1461 85.1774" stroke="#333333" stroke-width="1.5" stroke-linecap="round" stroke-linejoin="round"/>
<path d="M49.9447 97.5023C49.5928 97.2345 49.2145 96.9374 48.8153 96.6114C46.6091 94.8094 43.7718 92.1274 41.2416 88.6065C36.1902 81.577 32.3593 71.2066 37.2281 57.7541L37.2281 57.754C44.968 36.3618 55.4149 30.2814 63.7879 29.4148C68.0035 28.9785 71.7518 29.8556 74.4527 30.8473C75.8019 31.3427 76.8855 31.8652 77.6298 32.2626C77.8083 32.3579 77.9673 32.446 78.1056 32.5247C77.9737 32.6122 77.8235 32.7124 77.6563 32.8248C76.9431 33.3045 75.9191 34.007 74.6731 34.9006C72.1816 36.6873 68.8002 39.2393 65.2411 42.3005C58.1456 48.4034 50.2575 56.6016 47.3944 64.8394C43.4593 76.1597 44.5769 84.9634 46.6998 90.9494C47.7032 93.7788 48.9291 95.9731 49.9447 97.5023Z" fill="#333333" stroke="#333333"/>
<path d="M101.942 99.6427L101.93 99.6959V99.7073C100.813 104.815 101.373 108.535 102.236 110.998C102.669 112.232 103.175 113.144 103.578 113.753C103.59 113.77 103.601 113.788 103.613 113.804C100.239 113.609 97.2253 112.483 94.8261 110.951C92.1736 109.256 90.3076 107.089 89.5243 105.183L89.5242 105.183C89.2407 104.494 89.0818 103.343 89.022 101.94C88.9631 100.556 89.0022 98.9889 89.0817 97.5093C89.1611 96.0312 89.2803 94.6484 89.3797 93.6346C89.4293 93.1279 89.474 92.714 89.5063 92.427C89.5114 92.3814 89.5162 92.3391 89.5206 92.3C89.5249 92.2624 89.5289 92.228 89.5326 92.1967C89.6435 92.1141 89.801 91.9937 89.9977 91.8356C90.4013 91.5109 90.9701 91.0266 91.6382 90.3828C92.974 89.0957 94.7104 87.1677 96.3197 84.5986C97.4616 82.7757 98.5385 80.6311 99.3631 78.1661C98.946 79.6981 98.5204 81.0299 98.1825 82.0215C97.9841 82.6036 97.8161 83.0679 97.6979 83.386C97.6388 83.5451 97.5923 83.6675 97.5606 83.7498C97.5447 83.791 97.5326 83.8221 97.5246 83.8427L97.5155 83.8658L97.5134 83.8713L97.5129 83.8725L97.5128 83.8727L97.3919 84.1773L97.6228 84.4097L97.9775 84.0573C97.6228 84.4097 97.6233 84.4101 97.6237 84.4106L97.6247 84.4115L97.6267 84.4136L97.6316 84.4183L97.644 84.4301C97.6536 84.439 97.6657 84.4498 97.6802 84.4621C97.7093 84.4867 97.7486 84.5177 97.798 84.5513C97.8965 84.6185 98.0374 84.6981 98.2185 84.7588C98.5913 84.8839 99.1013 84.9172 99.706 84.6564C100.871 84.154 102.327 82.5886 104.003 78.6524L104.003 78.6522C105.707 74.6463 106.271 70.0869 106.129 66.6645C106.059 64.9588 105.811 63.4935 105.416 62.5072C105.221 62.0212 104.966 61.5911 104.625 61.3268C104.448 61.1893 104.239 61.0901 104.001 61.0641C103.762 61.0378 103.531 61.0895 103.318 61.1965C102.074 61.8225 101.444 62.7698 101.13 63.5587C100.975 63.9506 100.897 64.3035 100.857 64.5605C100.838 64.6893 100.827 64.7951 100.822 64.8709C100.82 64.9089 100.818 64.9395 100.818 64.9619L100.817 64.9892L100.817 64.998L100.817 65.0012L100.817 65.0025V65.0031C100.817 65.0033 100.817 65.0036 101.317 65.0036H100.817V65.0389L100.822 65.0738C101.054 66.7109 101.037 68.5068 100.866 70.3216C101.024 67.6273 100.851 64.687 100.22 61.5016L100.22 61.5015C98.2016 51.3217 92.9655 43.968 88.2419 39.164C85.8799 36.7618 83.6433 34.9941 81.9951 33.8258C81.1708 33.2415 80.4931 32.8067 80.0197 32.517C79.783 32.3722 79.5974 32.2636 79.4699 32.1907C79.4062 32.1542 79.357 32.1267 79.3233 32.1081L79.2844 32.0867L79.2739 32.081L79.2709 32.0793L79.27 32.0788C79.2697 32.0787 79.2694 32.0785 79.0331 32.5192L79.2694 32.0785L79.1587 32.0192H79.0331C64.32 32.0192 53.8787 41.1375 47.8855 51.953C44.8881 57.3621 42.9912 63.2133 42.2192 68.6018C41.4487 73.9803 41.7925 78.9451 43.3291 82.5562L43.3292 82.5563C48.2701 94.1583 49.3219 100.754 50.1955 106.231C50.3694 107.322 50.5362 108.368 50.7253 109.401C51.2668 112.358 50.4673 114.897 49.519 116.711C49.3219 117.088 49.1189 117.432 48.921 117.742C48.9933 116.996 48.9941 116.196 48.9463 115.378C48.8397 113.553 48.4855 111.561 48.0649 109.726C47.6438 107.888 47.153 106.193 46.7678 104.959C46.5752 104.341 46.4086 103.838 46.2901 103.489C46.2308 103.314 46.1835 103.178 46.1509 103.085C46.1346 103.039 46.122 103.003 46.1134 102.979L46.1035 102.951L46.1009 102.944L46.1002 102.942L46.1 102.941C46.1 102.941 46.0999 102.941 45.6296 103.111L46.0999 102.941L45.1296 103.111V112.072C45.1296 114.634 43.3402 116.745 41.4237 118.261C40.7495 118.794 40.0737 119.242 39.4827 119.598C40.2901 118.047 40.6024 116.273 40.7023 114.766C40.7738 113.686 40.738 112.716 40.6845 112.017C40.6578 111.666 40.6265 111.382 40.6017 111.185C40.5892 111.086 40.5785 111.009 40.5706 110.956C40.5667 110.929 40.5636 110.908 40.5613 110.894L40.5587 110.877L40.5579 110.873L40.5577 110.871L40.5576 110.871C40.5576 110.87 40.5575 110.87 40.0642 110.952L40.5575 110.87L39.5692 110.882C39.03 114.68 37.2331 117.536 35.562 119.447C35.4959 119.522 35.43 119.597 35.3644 119.669C36.0915 118.074 36.4234 116.354 36.4643 114.49C36.5354 111.251 35.7279 107.564 34.6146 103.328C34.3079 102.161 33.9773 100.949 33.6335 99.6898C31.4737 91.777 28.7979 81.9738 28.32 69.4651L28.32 69.465C27.5765 50.1106 37.161 30.5828 52.5683 21.729L52.5684 21.7289C60.2508 17.3111 66.8115 17.0461 71.4379 17.8672C73.7555 18.2786 75.5941 18.9638 76.85 19.5441C77.4778 19.8341 77.9593 20.0976 78.2816 20.287C78.4427 20.3816 78.5639 20.4577 78.6436 20.5093C78.6835 20.535 78.7129 20.5547 78.7318 20.5674L78.7521 20.5813L78.7562 20.5841L78.7563 20.5842L78.7567 20.5844L78.7568 20.5845L78.8858 20.6753H79.0441C88.8169 20.6753 95.0797 26.3895 99.3433 34.4186C103.617 42.4679 105.833 52.7638 107.504 61.7346L107.504 61.7349C109.963 74.9048 107.006 83.6818 104.374 91.4941C103.435 94.2812 102.537 96.9455 101.942 99.6427Z" fill="#333333" stroke="#333333"/>
<path d="M36.8038 79.2452L51.8639 94.4009C51.8676 94.4178 51.8716 94.4362 51.8759 94.4562C51.903 94.582 51.9409 94.7685 51.9833 95.0071C52.068 95.4846 52.1701 96.1691 52.2382 96.9913C52.3747 98.6399 52.3727 100.821 51.8338 102.99C51.7196 103.45 51.4277 103.969 50.9611 104.535C50.4976 105.097 49.883 105.681 49.1605 106.27C47.7153 107.449 45.8785 108.619 44.0603 109.658C42.2449 110.696 40.4621 111.596 39.132 112.236C38.5475 112.518 38.0511 112.749 37.6786 112.92C37.6862 112.78 37.6946 112.624 37.7036 112.452C37.7469 111.627 37.805 110.44 37.8642 108.995C37.9826 106.106 38.1058 102.183 38.1244 98.0475C38.1431 93.9141 38.0573 89.5612 37.7566 85.8156C37.6062 83.943 37.4016 82.2147 37.1275 80.7378C37.0296 80.2102 36.9221 79.7107 36.8038 79.2452Z" fill="#333333" stroke="#333333"/>
<path d="M30.8063 50.6715L32.7298 50.8666C32.632 51.2006 32.4964 51.6804 32.3283 52.3176C31.9606 53.7106 31.4369 55.8563 30.8091 58.8768C29.5536 64.9177 27.8818 74.4589 26.2107 88.4787L26.7072 88.5378L26.2107 88.4787C24.5372 102.524 25.0902 110.987 26.0776 115.958C26.5716 118.445 27.1752 120.063 27.6665 121.071C27.7063 121.152 27.7453 121.23 27.7835 121.304C27.5545 121.084 27.2892 120.749 27.0045 120.239C25.8135 118.107 24.4235 113.166 23.8673 101.966C23.3137 90.818 25.0711 77.9016 26.9741 67.7533C27.9248 62.6831 28.9102 58.3119 29.6579 55.2086C30.0317 53.6571 30.346 52.4228 30.5667 51.5769C30.667 51.1928 30.7479 50.8888 30.8063 50.6715Z" fill="#333333" stroke="#333333"/>
<path d="M66.8002 89.6691C66.8002 89.6691 71.2525 91.9094 74.5917 89.6691" stroke="#333333" stroke-width="1.5" stroke-linecap="round" stroke-linejoin="round"/>
<path d="M106.605 84.4256C106.601 84.4478 106.597 84.4723 106.593 84.4991C106.567 84.6488 106.531 84.8688 106.487 85.1515C106.4 85.7169 106.281 86.5333 106.156 87.5406C105.906 89.5546 105.63 92.3349 105.53 95.399C105.429 98.4615 105.503 101.818 105.955 104.982C106.178 106.537 106.493 108.055 106.928 109.473C106.739 109.132 106.548 108.764 106.36 108.367C104.868 105.226 103.491 100.27 104.041 93.0676C104.319 89.435 104.679 87.1056 105.056 85.6519C105.245 84.9243 105.433 84.4363 105.605 84.1201C105.781 83.7963 105.912 83.7045 105.959 83.6828C105.96 83.6824 105.961 83.682 105.962 83.6817C105.977 83.6745 105.991 83.6678 106.045 83.6973C106.121 83.7385 106.218 83.8278 106.324 83.9662C106.426 84.0987 106.512 84.2456 106.574 84.3638C106.585 84.3859 106.596 84.4066 106.605 84.4256Z" fill="#333333" stroke="#333333"/>
<path d="M115.798 119.924C128.967 125.514 127.281 131.758 129.166 141.218" stroke="#333333" stroke-width="1.5" stroke-linecap="round" stroke-linejoin="round"/>
<path d="M89.0728 94.1497V102.612C89.0728 104.83 90.7809 109.521 98.848 113.115" stroke="#333333" stroke-width="1.5" stroke-linecap="round" stroke-linejoin="round"/>
<path d="M23.9631 118.571C11.3996 124.15 11.8515 131.913 10 141.218" stroke="#333333" stroke-width="1.5" stroke-linecap="round" stroke-linejoin="round"/>
<path d="M50.093 94.1497V102.612C50.093 104.885 48.2966 109.754 39.7006 113.381" stroke="#333333" stroke-width="1.5" stroke-linecap="round" stroke-linejoin="round"/>
<path d="M95.7512 141.218C99.0905 132.257 99.0574 113.203 99.0574 113.203L114.685 116.564C114.685 116.564 116.911 132.257 114.685 141.218" stroke="#333333" stroke-width="1.5" stroke-linecap="round" stroke-linejoin="round"/>
<path d="M43.2822 141.218C39.9429 132.257 39.976 113.203 39.976 113.203L24.3488 116.564C24.3488 116.564 22.1226 132.257 24.3488 141.218" stroke="#333333" stroke-width="1.5" stroke-linecap="round" stroke-linejoin="round"/>
<path d="M64.5741 127.765C64.5741 127.765 61.0695 123.285 57.5539 123.285H41.1884" stroke="#333333" stroke-width="1.5" stroke-linecap="round" stroke-linejoin="round"/>
<path d="M73.4786 127.765C73.4786 127.765 77.1485 123.285 80.8294 123.285H97.9774" stroke="#333333" stroke-width="1.5" stroke-linecap="round" stroke-linejoin="round"/>
<path d="M40.8467 129.107C40.8467 129.107 53.4322 141.218 61.2238 141.218" stroke="#333333" stroke-width="1.5" stroke-linecap="round" stroke-linejoin="round"/>
<path d="M97.9774 129.107C97.9774 129.107 85.3919 141.218 77.6003 141.218" stroke="#333333" stroke-width="1.5" stroke-linecap="round" stroke-linejoin="round"/>
<mask id="path-28-inside-1_1_2799" fill="white">
<path d="M77.9199 62.7189C77.9199 62.7189 82.6478 57.2956 88.9515 62.7189C88.9515 62.7189 87.6952 59.8686 83.2759 59.8686C79.7934 59.8686 77.9199 62.7189 77.9199 62.7189Z"/>
</mask>
<path d="M77.9199 62.7189C77.9199 62.7189 82.6478 57.2956 88.9515 62.7189C88.9515 62.7189 87.6952 59.8686 83.2759 59.8686C79.7934 59.8686 77.9199 62.7189 77.9199 62.7189Z" fill="#333333"/>
<path d="M88.9515 62.7189L88.2994 63.477L89.8666 62.3156L88.9515 62.7189ZM77.9199 62.7189C78.6737 63.376 78.6734 63.3764 78.673 63.3768C78.6729 63.3769 78.6726 63.3773 78.6724 63.3775C78.6721 63.3779 78.6718 63.3782 78.6716 63.3785C78.6711 63.379 78.671 63.3791 78.6711 63.379C78.6713 63.3787 78.6727 63.3772 78.6751 63.3746C78.6799 63.3692 78.6891 63.3592 78.7025 63.345C78.7293 63.3165 78.7729 63.2714 78.8326 63.2133C78.9521 63.0971 79.1344 62.9307 79.3732 62.744C79.8538 62.368 80.5448 61.9241 81.3972 61.6307C83.032 61.0682 85.4176 60.9977 88.2994 63.477L89.6037 61.9608C86.1817 59.0168 83.0515 58.9463 80.7464 59.7396C79.6289 60.1242 78.7439 60.6971 78.1411 61.1686C77.8381 61.4055 77.6018 61.6204 77.4382 61.7796C77.3562 61.8593 77.2921 61.9254 77.2466 61.9737C77.2239 61.9979 77.2057 62.0176 77.1923 62.0325C77.1855 62.0399 77.18 62.0461 77.1756 62.051C77.1735 62.0534 77.1716 62.0556 77.17 62.0574C77.1692 62.0583 77.1685 62.0591 77.1678 62.0598C77.1675 62.0602 77.1671 62.0607 77.1669 62.0609C77.1665 62.0613 77.1661 62.0618 77.9199 62.7189ZM88.9515 62.7189C89.8666 62.3156 89.8663 62.315 89.8661 62.3144C89.866 62.3142 89.8657 62.3135 89.8655 62.3131C89.8651 62.3123 89.8647 62.3113 89.8643 62.3104C89.8634 62.3085 89.8625 62.3064 89.8615 62.3041C89.8594 62.2996 89.857 62.2944 89.8543 62.2885C89.8488 62.2767 89.8419 62.2622 89.8335 62.2451C89.8167 62.211 89.7939 62.1666 89.7646 62.1135C89.706 62.0073 89.6212 61.8657 89.5057 61.7005C89.275 61.3706 88.9199 60.9439 88.4061 60.5214C87.3637 59.6641 85.7211 58.8686 83.2759 58.8686V60.8686C85.25 60.8686 86.4452 61.4983 87.1358 62.0661C87.4885 62.3562 87.7237 62.6421 87.8666 62.8466C87.938 62.9487 87.9858 63.0297 88.0133 63.0794C88.027 63.1042 88.0355 63.1211 88.0392 63.1287C88.0411 63.1325 88.0418 63.134 88.0413 63.133C88.0411 63.1325 88.0406 63.1313 88.0397 63.1295C88.0393 63.1287 88.0389 63.1276 88.0383 63.1264C88.0381 63.1258 88.0378 63.1251 88.0375 63.1244C88.0373 63.1241 88.0371 63.1235 88.037 63.1234C88.0367 63.1228 88.0365 63.1222 88.9515 62.7189ZM83.2759 58.8686C81.2469 58.8686 79.696 59.7017 78.6728 60.5085C78.1608 60.9122 77.7722 61.3157 77.5092 61.6211C77.3773 61.7743 77.2759 61.9042 77.2051 61.9992C77.1697 62.0468 77.142 62.0857 77.1218 62.1145C77.1118 62.129 77.1036 62.1409 77.0973 62.1501C77.0942 62.1547 77.0915 62.1587 77.0894 62.162C77.0883 62.1636 77.0873 62.165 77.0865 62.1663C77.086 62.167 77.0856 62.1676 77.0853 62.1681C77.0851 62.1684 77.0848 62.1688 77.0848 62.1689C77.0845 62.1693 77.0843 62.1696 77.9199 62.7189C78.7556 63.2682 78.7553 63.2685 78.7551 63.2688C78.7551 63.2689 78.7549 63.2693 78.7547 63.2694C78.7545 63.2698 78.7543 63.2702 78.7541 63.2705C78.7537 63.271 78.7534 63.2715 78.7532 63.2717C78.7529 63.2723 78.753 63.2721 78.7535 63.2713C78.7545 63.2698 78.7573 63.2657 78.7618 63.2593C78.7708 63.2464 78.7867 63.2241 78.8093 63.1936C78.8547 63.1327 78.9267 63.04 79.0249 62.926C79.2221 62.697 79.5195 62.3879 79.9112 62.079C80.6953 61.4607 81.8224 60.8686 83.2759 60.8686V58.8686Z" fill="#333333" mask="url(#path-28-inside-1_1_2799)"/>
<path d="M52.1648 63.8391C52.1648 63.8391 56.1102 58.6486 62.8107 63.7282" stroke="#333333" stroke-width="1.5" stroke-linecap="round" stroke-linejoin="round"/>
<path d="M58.7216 64.3072C58.111 64.4678 57.1645 64.5425 55.8854 64.1048C55.6934 63.7611 55.6699 63.2979 55.7335 62.8372C55.7671 62.5938 55.8216 62.3764 55.868 62.2196C55.8758 62.193 55.8834 62.1683 55.8906 62.1457C55.9126 62.1353 55.9371 62.1242 55.9642 62.1126C56.119 62.046 56.355 61.9636 56.6622 61.9115C57.2276 61.8155 58.0517 61.8189 59.0781 62.2376C59.0791 62.2454 59.0801 62.2533 59.0812 62.2614C59.1034 62.4366 59.1238 62.6781 59.1176 62.9444C59.1058 63.4536 58.9992 63.9611 58.7216 64.3072Z" fill="#333333" stroke="#333333"/>
<mask id="path-32-inside-2_1_2799" fill="white">
<path d="M62.8547 63.6062C62.8547 63.6062 57.7081 58.1385 51.7129 63.0184C51.7129 63.0184 52.7268 60.4342 57.146 60.4342C60.6286 60.4342 62.8657 63.5951 62.8657 63.5951L62.8547 63.6062Z"/>
</mask>
<path d="M62.8547 63.6062C62.8547 63.6062 57.7081 58.1385 51.7129 63.0184C51.7129 63.0184 52.7268 60.4342 57.146 60.4342C60.6286 60.4342 62.8657 63.5951 62.8657 63.5951L62.8547 63.6062Z" fill="#333333"/>
<path d="M62.8547 63.6062L62.1266 64.2916L62.8352 65.0445L63.5641 64.311L62.8547 63.6062ZM51.7129 63.0184L50.782 62.6531L49.3914 66.1974L52.3442 63.7939L51.7129 63.0184ZM62.8657 63.5951L63.5751 64.2999L64.1677 63.7036L63.682 63.0173L62.8657 63.5951ZM62.8547 63.6062C63.5829 62.9207 63.5825 62.9204 63.5821 62.92C63.582 62.9198 63.5816 62.9194 63.5813 62.919C63.5806 62.9184 63.5799 62.9176 63.5792 62.9168C63.5776 62.9152 63.5757 62.9132 63.5735 62.9109C63.5691 62.9063 63.5634 62.9004 63.5565 62.8933C63.5426 62.879 63.5237 62.8598 63.4998 62.8361C63.4521 62.7887 63.3845 62.7234 63.2982 62.6442C63.1258 62.4858 62.8771 62.2706 62.5606 62.0309C61.9307 61.5538 61.0145 60.9666 59.8805 60.545C57.5617 59.6829 54.3927 59.5477 51.0816 62.2428L52.3442 63.7939C55.0283 61.6091 57.4302 61.7678 59.1835 62.4196C60.0856 62.755 60.8307 63.2296 61.3532 63.6253C61.6128 63.8219 61.813 63.9957 61.9455 64.1173C62.0116 64.178 62.0605 64.2254 62.0911 64.2558C62.1064 64.271 62.1171 64.2818 62.123 64.288C62.126 64.291 62.1278 64.2929 62.1284 64.2935C62.1287 64.2938 62.1287 64.2938 62.1284 64.2935C62.1282 64.2933 62.128 64.2931 62.1277 64.2928C62.1275 64.2926 62.1273 64.2923 62.1272 64.2922C62.1269 64.2919 62.1266 64.2916 62.8547 63.6062ZM51.7129 63.0184C52.6438 63.3836 52.6435 63.3843 52.6433 63.3849C52.6432 63.3851 52.6429 63.3858 52.6428 63.3862C52.6425 63.387 52.6421 63.3878 52.6418 63.3885C52.6412 63.39 52.6407 63.3914 52.6402 63.3926C52.6392 63.395 52.6385 63.3968 52.6379 63.3981C52.6369 63.4007 52.6367 63.401 52.6375 63.3992C52.6391 63.3957 52.6445 63.3838 52.6543 63.3648C52.6739 63.3268 52.7105 63.2607 52.7683 63.1754C52.8836 63.0052 53.0825 62.7593 53.3977 62.5065C54.0133 62.013 55.1468 61.4342 57.146 61.4342V59.4342C54.726 59.4342 53.1429 60.1475 52.1468 60.946C51.6561 61.3394 51.3253 61.7395 51.1124 62.0538C51.0061 62.2108 50.929 62.3465 50.8759 62.4498C50.8493 62.5015 50.8286 62.5452 50.8132 62.5794C50.8055 62.5966 50.7991 62.6114 50.7939 62.6238C50.7913 62.6299 50.7891 62.6355 50.7871 62.6404C50.7861 62.6428 50.7852 62.6451 50.7843 62.6472C50.7839 62.6483 50.7835 62.6493 50.7831 62.6503C50.7829 62.6508 50.7826 62.6515 50.7825 62.6517C50.7822 62.6524 50.782 62.6531 51.7129 63.0184ZM57.146 61.4342C58.5782 61.4342 59.7935 62.0855 60.6898 62.7976C61.1329 63.1497 61.4802 63.5029 61.7153 63.7666C61.8323 63.8979 61.9202 64.0055 61.9768 64.0774C62.0051 64.1134 62.0254 64.1403 62.0377 64.1567C62.0438 64.1649 62.0478 64.1705 62.0498 64.1733C62.0508 64.1746 62.0513 64.1753 62.0512 64.1752C62.0512 64.1752 62.0511 64.175 62.0508 64.1746C62.0506 64.1744 62.0504 64.1741 62.0502 64.1738C62.0501 64.1737 62.0499 64.1734 62.0499 64.1733C62.0497 64.1731 62.0495 64.1728 62.8657 63.5951C63.682 63.0173 63.6818 63.017 63.6815 63.0167C63.6814 63.0166 63.6812 63.0163 63.681 63.016C63.6807 63.0155 63.6803 63.015 63.6799 63.0144C63.6791 63.0132 63.6781 63.0119 63.677 63.0103C63.6747 63.0072 63.672 63.0033 63.6686 62.9987C63.6619 62.9895 63.653 62.9773 63.6419 62.9624C63.6196 62.9325 63.5885 62.8915 63.5488 62.841C63.4695 62.7402 63.3553 62.6008 63.2082 62.4358C62.915 62.1068 62.4854 61.6698 61.9339 61.2317C60.841 60.3634 59.1964 59.4342 57.146 59.4342V61.4342ZM62.1564 62.8902L62.1454 62.9013L63.5641 64.311L63.5751 64.2999L62.1564 62.8902Z" fill="#333333" mask="url(#path-32-inside-2_1_2799)"/>
</g>
<defs>
<clipPath id="clip0_1_2799">
<rect width="140" height="140" fill="white" transform="translate(0 0.541016)"/>
</clipPath>
</defs>
</svg>
