<svg width="140" height="140" viewBox="0 0 140 140" fill="none" xmlns="http://www.w3.org/2000/svg">
<g clip-path="url(#clip0_425_7135)">
<path d="M92.7296 68.2152C91.2681 81.9037 88.8138 89.2333 83.9274 94.1197C73.7308 104.316 72.5817 102.453 64.8728 102.453C54.8992 102.453 55.8698 102.23 46.2867 92.6582C40.2959 86.6674 39.5931 79.2374 37.6742 66.9211C37.1053 63.273 38.1093 53.6453 36.9937 42.3107C35.8781 30.9761 47.9267 22.6648 64.4823 23.2003C77.6689 23.6242 95.2286 31.9021 94.6819 43.7722C93.7002 65.2811 93.0754 64.9799 92.7296 68.2152Z" stroke="#333333" stroke-width="1.5" stroke-linecap="round" stroke-linejoin="round"/>
<path d="M44.9146 59.8035C47.7482 56.9698 49.4774 56.9698 51.2735 56.9698C53.9733 56.9698 56.595 59.8035 56.595 59.8035" stroke="#333333" stroke-width="1.5" stroke-linecap="round" stroke-linejoin="round"/>
<path d="M48.7967 57.3603C48.7967 57.3603 47.4134 60.127 49.7227 61.2092C49.7227 61.2092 51.6192 61.4769 52.4671 61.2092C53.4265 60.5844 53.8839 60.127 53.3373 57.5277C53.3373 57.5277 52.032 56.4344 48.7967 57.3603Z" fill="#333333"/>
<path d="M54.8322 50.4993C54.8322 50.4993 56.0482 51.5033 56.1486 52.6189C56.249 53.7345 53.1476 52.842 50.4924 53.0875C49.176 53.2102 48.6182 51.0124 47.7704 50.41C46.3312 49.3836 54.821 50.4993 54.821 50.4993H54.8322Z" fill="#333333"/>
<path d="M55.4792 50.6889C55.4792 50.6889 57.3869 52.2731 57.0746 53.623L55.4792 50.6889Z" fill="#333333"/>
<path d="M45.5613 49.975C45.5613 49.975 48.328 51.3583 48.7966 53.2102L45.5613 49.975Z" fill="#333333"/>
<path d="M44.178 50.4323C45.5613 50.8897 46.4873 50.8897 47.8707 53.199L44.178 50.4323Z" fill="#333333"/>
<path d="M43.5087 51.336C43.5087 51.336 46.6212 51.9719 47.4133 53.1991L43.5087 51.336Z" fill="#333333"/>
<path d="M47.4133 49.975C47.4133 49.975 49.2652 50.9009 49.7226 53.2102L47.4133 49.975Z" fill="#333333"/>
<path d="M42.7948 51.8158C42.7948 51.8158 45.4611 52.1951 46.5767 53.3888L42.7948 51.8158Z" fill="#333333"/>
<path d="M41.8689 52.2842C41.8689 52.2842 45.0707 52.6747 46.1863 53.8684L41.8689 52.2842Z" fill="#333333"/>
<path d="M41.4114 52.7416C41.4114 52.7416 44.6801 53.1544 45.7846 54.3369L41.4114 52.7416Z" fill="#333333"/>
<path d="M41.8689 53.6676C41.8689 53.6676 43.8435 53.6676 44.948 54.8613L41.8689 53.6676Z" fill="#333333"/>
<path d="M46.4874 49.975C46.4874 49.975 48.7967 50.9009 49.2541 53.2102L46.4874 49.975Z" fill="#333333"/>
<path d="M56.394 51.046C56.394 51.046 58.3017 52.6301 57.9894 53.98L56.394 51.046Z" fill="#333333"/>
<path d="M54.9995 50.2873C54.9995 50.2873 56.9518 52.3066 56.5948 53.2214L56.0817 52.3847L56.1598 53.2549L54.6537 53.1768C54.6537 53.1768 56.1151 52.8198 55.5908 51.9831C55.0665 51.1464 54.9884 50.2762 54.9884 50.2762L54.9995 50.2873Z" fill="#333333"/>
<path d="M84.3401 60.0489C81.3391 57.0591 79.5095 57.0591 77.6018 57.0591C74.7459 57.0591 71.968 60.0489 71.968 60.0489" stroke="#333333" stroke-width="1.5" stroke-linecap="round" stroke-linejoin="round"/>
<path d="M80.2458 57.4607C80.2458 57.4607 81.7073 60.3948 79.2641 61.5438C79.2641 61.5438 77.256 61.8227 76.3635 61.5438C75.3483 60.8856 74.8686 60.3948 75.4375 57.6392C75.4375 57.6392 76.8209 56.479 80.2346 57.4607H80.2458Z" fill="#333333"/>
<path d="M74.824 49.9973C74.824 49.9973 73.5633 51.046 73.4518 52.2062C73.3402 53.3664 75.7946 52.3178 78.5613 52.5743C79.9223 52.6971 81.1049 51.2579 81.9862 50.622C83.4811 49.551 74.8351 49.9973 74.8351 49.9973H74.824Z" fill="#333333"/>
<path d="M74.1546 50.187C74.1546 50.187 72.1688 51.8381 72.4923 53.2438L74.1546 50.187Z" fill="#333333"/>
<path d="M84.9091 50.6109C84.9091 50.6109 82.1312 51.3137 80.9933 52.5632L84.9091 50.6109Z" fill="#333333"/>
<path d="M83.113 50.2316C83.113 50.2316 80.5359 50.1312 79.8442 51.403L83.113 50.2316Z" fill="#333333"/>
<path d="M85.8909 51.1019C85.8909 51.1019 83.5816 50.8676 82.4659 52.5633L85.8909 51.1019Z" fill="#333333"/>
<path d="M86.8615 51.5926C86.8615 51.5926 84.5633 51.7599 83.4031 52.9871L86.8615 51.5926Z" fill="#333333"/>
<path d="M83.4477 50.6109C83.4477 50.6109 80.2459 51.2803 79.61 52.7417L83.4477 50.6109Z" fill="#333333"/>
<path d="M73.1952 50.5551C73.1952 50.5551 71.2094 52.2062 71.533 53.6119L73.1952 50.5551Z" fill="#333333"/>
<path d="M74.6455 49.7742C74.6455 49.7742 72.6151 51.8715 72.9832 52.8309L73.5187 51.9608L73.4295 52.8644L74.9913 52.7863C74.9913 52.7863 73.4741 52.4182 74.0096 51.548C74.5451 50.6778 74.6343 49.7742 74.6343 49.7742H74.6455Z" fill="#333333"/>
<path d="M75.1364 56.479C75.1364 56.479 80.0227 53.0541 85.4 59.4131C85.4 59.4131 80.5136 54.5267 75.1364 56.479Z" fill="#333333"/>
<path d="M56.6396 59.6696C55.7137 58.7437 50.6377 51.8269 43.7097 59.6696C44.1671 57.8177 50.6377 51.3583 56.6396 59.6696Z" fill="#333333"/>
<path d="M59.9865 73.1016C59.9865 73.1016 59.9865 77.4971 66.3454 76.0356" stroke="#333333" stroke-width="1.5" stroke-linecap="round" stroke-linejoin="round"/>
<path d="M54.0847 83.8561C54.0847 83.8561 56.2825 84.8379 62.8757 84.8379C69.469 84.8379 70.0156 85.8196 74.9689 84.347" stroke="#333333" stroke-width="1.5" stroke-linecap="round" stroke-linejoin="round"/>
<path d="M60.4661 89.2333C60.4661 89.2333 61.1131 88.2516 64.3819 88.2516C67.6506 88.2516 68.2977 88.7425 68.2977 90.2039V91.6654L67.6506 90.6836C67.6506 90.6836 67.0035 91.1745 67.0035 91.6654V92.6471L66.3565 90.6948C66.3565 90.6948 65.0512 91.6765 65.0512 92.1562C65.0512 92.6359 64.4042 90.2039 64.4042 90.2039L63.7571 91.6654L62.4518 90.2039C62.4518 90.2039 61.8048 90.6948 61.8048 91.1856C61.8048 91.6765 61.1577 90.2039 61.1577 90.2039V90.6948C61.1577 90.6948 60.5107 90.2039 60.5107 89.2333H60.4661Z" fill="#333333"/>
<path d="M60.6111 78.9586C60.6111 78.9586 54.0847 80.42 51.4742 82.3835C48.8637 84.347 51.4742 86.2993 51.4742 86.2993C51.4742 86.2993 52.7795 83.3652 55.39 82.3835C58.0005 81.4017 60.6111 78.9586 60.6111 78.9586Z" fill="#333333"/>
<path d="M62.4296 78.4788C62.4296 78.4788 61.9387 80.922 60.4773 81.9037C60.4773 81.9037 61.9387 79.9514 62.4296 78.4788Z" fill="#333333"/>
<path d="M61.9388 78.4788C61.9388 78.4788 61.4479 80.922 59.9865 81.9037C59.9865 81.9037 61.4479 79.9514 61.9388 78.4788Z" fill="#333333"/>
<path d="M60.957 78.9586C60.957 78.9586 60.4661 81.4017 59.0046 82.3835C59.0046 82.3835 60.4661 80.4312 60.957 78.9586Z" fill="#333333"/>
<path d="M60.4661 78.9586C60.4661 78.9586 59.9752 81.4017 58.5138 82.3835C58.5138 82.3835 59.9752 80.4312 60.4661 78.9586Z" fill="#333333"/>
<path d="M59.9864 79.4494C59.9864 79.4494 59.2501 81.5468 57.0524 82.3835C57.0524 82.3835 59.2501 80.71 59.9864 79.4494Z" fill="#333333"/>
<path d="M59.9864 79.4494C59.9864 79.4494 59.0046 81.5468 56.0706 82.3835C56.0706 82.3835 59.0046 80.71 59.9864 79.4494Z" fill="#333333"/>
<path d="M51.8982 86.9352C51.8982 86.9352 51.9986 84.6258 54.386 82.7293C54.386 82.7293 52.3221 85.4068 51.8982 86.9352Z" fill="#333333"/>
<path d="M67.7733 78.9586C67.7733 78.9586 74.2996 80.42 76.9102 82.3835C79.5207 84.3358 76.9102 86.2993 76.9102 86.2993C76.9102 86.2993 75.6049 83.3652 72.9944 82.3835C70.3838 81.4017 67.7733 78.9586 67.7733 78.9586Z" fill="#333333"/>
<path d="M65.9548 78.4788C65.9548 78.4788 66.4457 80.922 67.9072 81.9037C67.9072 81.9037 66.4457 79.9514 65.9548 78.4788Z" fill="#333333"/>
<path d="M66.4457 78.4788C66.4457 78.4788 66.9365 80.922 68.398 81.9037C68.398 81.9037 66.9365 79.9514 66.4457 78.4788Z" fill="#333333"/>
<path d="M67.4164 78.9586C67.4164 78.9586 67.9073 81.4017 69.3687 82.3835C69.3687 82.3835 67.9073 80.4312 67.4164 78.9586Z" fill="#333333"/>
<path d="M67.9072 78.9586C67.9072 78.9586 68.3981 81.4017 69.8595 82.3835C69.8595 82.3835 68.3981 80.4312 67.9072 78.9586Z" fill="#333333"/>
<path d="M68.3981 79.4494C68.3981 79.4494 69.1344 81.5468 71.3321 82.3835C71.3321 82.3835 69.1344 80.71 68.3981 79.4494Z" fill="#333333"/>
<path d="M68.3981 79.4494C68.3981 79.4494 69.3798 81.5468 72.3139 82.3835C72.3139 82.3835 69.3798 80.71 68.3981 79.4494Z" fill="#333333"/>
<path d="M76.4862 86.9352C76.4862 86.9352 76.3858 84.6258 73.9984 82.7293C73.9984 82.7293 76.0623 85.4068 76.4862 86.9352Z" fill="#333333"/>
<path d="M37.4957 61.8562C37.4957 61.8562 36.0343 57.4607 33.1002 60.3948C31.6388 61.8562 31.795 63.6858 32.8548 70.413C33.5911 75.0539 34.8071 74.3287 35.7889 77.2516C36.5586 79.5721 38.8902 78.6685 38.9237 76.1249" stroke="#333333" stroke-width="1.5" stroke-linecap="round" stroke-linejoin="round"/>
<path d="M37.5069 64.2436C37.5069 64.2436 34.0708 58.4313 34.0708 65.27C34.0708 72.1087 37.0049 74.5519 37.0049 74.5519" stroke="#333333" stroke-width="1.5" stroke-linecap="round" stroke-linejoin="round"/>
<path d="M93.5774 61.8562C93.5774 61.8562 95.0389 57.4607 97.9729 60.3948C99.4344 61.8562 99.2782 63.6858 98.2183 70.413C97.482 75.0539 96.266 74.3287 95.2843 77.2516C94.5145 79.5721 91.7924 79.5498 91.7478 77.0062" stroke="#333333" stroke-width="1.5" stroke-linecap="round" stroke-linejoin="round"/>
<path d="M93.5663 64.2436C93.5663 64.2436 97.0024 58.4313 97.0024 65.27C97.0024 72.1087 94.0683 74.5519 94.0683 74.5519" stroke="#333333" stroke-width="1.5" stroke-linecap="round" stroke-linejoin="round"/>
<path d="M93.7113 77.0062C93.7113 77.0062 96.266 77.564 94.693 79.9403C93.7113 81.4017 91.5582 79.5833 92.6403 78.78L92.0602 78.2111C92.0602 78.2111 90.2975 79.9403 92.2498 81.8926C94.2021 83.8449 97.1362 81.4017 97.1362 79.4494C97.1362 77.4971 94.693 75.0539 93.7113 77.0062Z" fill="#333333"/>
<path d="M93.2093 63.5297C92.9527 64.7791 92.7854 65.5824 92.7854 65.5824C92.9639 64.8796 93.0978 64.199 93.2093 63.5297Z" fill="#333333"/>
<path d="M98.1068 37.9041C99.0885 33.0177 94.6819 28.6222 90.7772 27.6404C88.5237 27.0715 86.326 27.3169 84.8645 27.6181C84.686 25.253 83.7935 19.4184 79.5319 17.8677C74.1546 15.9154 70.25 17.8677 70.25 17.8677C70.25 17.8677 74.1658 17.3768 76.609 19.82C77.2449 20.4559 77.7469 20.9245 78.1485 21.2815C75.6161 19.675 69.7257 16.7856 61.459 17.8677C50.2136 19.3291 45.3273 19.3291 39.4592 26.6699C33.591 33.9994 34.5728 33.0288 36.0342 34.4903C37.4957 35.9517 35.5434 44.263 36.0342 48.6697C36.5251 53.0764 37.5626 61.6331 37.5626 61.6331C37.5626 61.6331 38.9683 51.6038 40.4409 47.6991C41.1103 45.903 41.9916 44.832 42.7391 44.1961C43.5646 43.5044 44.0443 42.5004 44.0332 41.4182C44.0332 40.5815 44.1782 39.4994 44.7025 38.2722C44.8699 38.2053 45.0372 38.1383 45.2046 38.0714C46.9561 37.9264 48.8414 37.3909 50.236 36.041C53.7167 32.6495 64.2703 33.8098 64.2703 33.8098C63.8799 33.397 63.4671 33.04 63.0543 32.7165C63.8576 32.8057 64.3373 32.8727 64.3373 32.8727C64.248 32.7723 64.1588 32.6718 64.0584 32.5826C65.4417 32.895 66.3565 33.1627 66.3565 33.1627C66.3007 33.0735 66.2338 32.9954 66.178 32.9061C67.6618 33.4416 68.6435 33.8879 68.6435 33.8879C68.32 33.2185 67.9518 32.6161 67.5391 32.0694C68.7997 32.538 69.6141 32.9061 69.6141 32.9061C69.3798 32.4153 69.1121 31.9579 68.8332 31.5451H68.9113C70.5958 32.3706 71.7115 33.0288 71.7115 33.0288C71.533 32.5268 71.3321 32.0583 71.1202 31.612C71.2541 31.612 71.3879 31.612 71.5218 31.612C73.1171 32.4041 74.1658 33.0177 74.1658 33.0177C73.9873 32.5045 73.7753 32.0248 73.5522 31.5674C73.5968 31.5674 73.6415 31.5674 73.6749 31.5562C73.7196 31.5562 73.7642 31.5451 73.8088 31.5339C75.4934 32.3595 76.609 33.0177 76.609 33.0177C76.4416 32.5491 76.252 32.1029 76.0512 31.679C77.5796 32.4376 78.5725 33.0177 78.5725 33.0177C78.3828 32.471 78.1597 31.969 77.9254 31.4893C78.0258 31.5005 78.1151 31.5116 78.2043 31.5339C78.8067 31.8351 79.3422 32.1029 79.7773 32.3372C81.3615 33.6759 85.0542 36.8219 87.8209 39.399C88.2783 39.8229 88.401 40.5034 88.1109 41.0612C87.3523 42.5562 87.4639 44.3523 88.3898 45.7468C90.8776 49.4953 94.6484 55.0064 93.2316 63.5408C94.0348 59.6138 95.6859 51.1464 95.6859 48.19C95.6859 45.5348 96.5896 41.5298 95.9425 38.0045C96.69 39.8341 97.1585 41.3513 97.1585 41.3513C97.1585 34.9923 93.7336 31.0877 93.7336 31.0877C98.1291 32.0694 98.1291 37.9264 98.1291 37.9264L98.1068 37.9041ZM47.0788 34.7023H47.1122C47.1122 34.7023 47.0565 34.7357 47.0342 34.758L47.0788 34.7023ZM92.0379 32.0471C92.3949 32.2368 92.7407 32.538 93.0866 32.9173C92.7407 32.6049 92.3949 32.3149 92.0379 32.0471Z" fill="#333333"/>
<path d="M15.0942 124.475C12.6176 125.691 10.509 126.684 9.10338 127.354C1.81844 130.779 0 141.388 0 141.388" stroke="#333333" stroke-width="1.5" stroke-linecap="round" stroke-linejoin="round"/>
<path d="M44.1001 90.3266V105.365C44.1001 108.924 35.4541 114.312 26.4623 118.975" stroke="#333333" stroke-width="1.5" stroke-linecap="round" stroke-linejoin="round"/>
<path d="M120.954 125.368C122.762 126.127 124.268 126.774 125.35 127.242C133.17 130.667 135 141.388 135 141.388" stroke="#333333" stroke-width="1.5" stroke-linecap="round" stroke-linejoin="round"/>
<path d="M86.616 90.2039V105.242C86.616 109.047 97.7051 114.959 108.27 119.823" stroke="#333333" stroke-width="1.5" stroke-linecap="round" stroke-linejoin="round"/>
<path d="M42.7948 88.0173C42.7948 88.0173 47.525 95.3357 50.4479 98.2697L55.3343 103.156C56.316 104.138 56.7957 103.647 56.7957 103.647H57.7774L58.7592 104.629L59.7409 103.647L61.2024 105.599L62.1841 103.647L64.8727 106.336L64.6273 104.138L66.3342 107.317L67.5614 104.629L68.7885 106.826L69.5248 104.629L70.0157 106.09L70.9974 104.629L71.4883 105.61L72.9497 102.676V105.12C72.9497 105.12 74.9021 103.658 75.3929 103.167C75.8838 102.676 86.114 94.3651 86.8614 90.4605C86.8614 90.4605 80.7367 98.3701 75.8727 101.014C70.9974 103.658 69.0451 102.676 65.1405 102.676C61.2358 102.676 55.4347 102.676 52.958 99.2515C50.4814 95.8265 45.4276 92.9148 42.8171 88.0173H42.7948Z" fill="#333333"/>
<path d="M43.8547 107.317C43.8547 107.317 41.8801 123.94 65.1071 123.94C88.3341 123.94 86.8503 107.317 86.8503 107.317" stroke="#333333" stroke-width="1.5" stroke-linecap="round" stroke-linejoin="round"/>
<path d="M40.452 110.352C40.452 110.352 39.4479 128.324 66.825 128.324C90.2863 128.324 90.1189 109.805 90.1189 109.805" stroke="#333333" stroke-width="1.5" stroke-linecap="round" stroke-linejoin="round"/>
<path d="M25.6814 141.377C25.6814 141.377 25.2909 123.003 26.2615 119.065" stroke="#333333" stroke-width="1.5" stroke-linecap="round" stroke-linejoin="round"/>
<path d="M14.6257 141.377C14.6257 141.377 15.0497 127.343 15.2728 123.929C15.4959 120.515 16.4776 121.486 20.3823 120.013C24.2869 118.54 26.7301 116.588 27.7118 118.295" stroke="#333333" stroke-width="1.5" stroke-linecap="round" stroke-linejoin="round"/>
<path d="M109.497 141.377C109.497 141.377 110.066 125.178 108.482 119.913" stroke="#333333" stroke-width="1.5" stroke-linecap="round" stroke-linejoin="round"/>
<path d="M121.959 141.377C121.959 141.377 121.959 129.975 120.72 125.256C120.107 122.947 118.645 122.456 116.682 121.486L109.843 118.061C107.656 116.967 106.675 119.065 106.675 119.065" stroke="#333333" stroke-width="1.5" stroke-linecap="round" stroke-linejoin="round"/>
</g>
<defs>
<clipPath id="clip0_425_7135">
<rect width="135" height="128" fill="white" transform="translate(0 12)"/>
</clipPath>
</defs>
</svg>
