<svg xmlns="http://www.w3.org/2000/svg" width="140" height="140" viewBox="0 0 140 140">
  <g fill="none" fill-rule="evenodd" transform="translate(0 4.375)">
    <path stroke="#333" stroke-linecap="round" stroke-linejoin="round" stroke-width="1.5" d="M78.0685937 64.5149531C78.0685937 64.5149531 76.1369219 67.1481562 73.8094219 66.8956094M40.4918281 51.529625C40.75575 57.7697969 43.5512656 79.1115938 52.4895 85.2675469 56.604625 88.1050625 60.0359375 89.9086563 64.4870625 91.51975 67.4384375 92.5778438 69.2861094 94.0207188 74.7090313 93.9852891 77.5884375 93.9725938 79.688 92.6620625 82.4834063 91.51975 86.0706875 90.0408906 90.377875 88.2974531 94.4810781 84.0292031 99.280125 79.027375 106.394641 58.2988438 104.906922 45.9988594 102.015594 21.9398594 88.4342813 16.2647188 75.6928594 14.6295625 61.7276406 12.8020156 39.2440781 22.5409844 40.4918281 51.529625z"/>
    <path stroke="#333" stroke-linecap="round" stroke-linejoin="round" stroke-width="1.5" d="M80.0840469 44.0270469C80.0840469 44.0270469 87.7865625 40.6965781 94.00125 41.5261875 96.7127656 41.8869062 98.7283281 43.5220625 98.7283281 43.5220625M78.1044687 48.9084531C78.2005 47.9825937 78.7043906 47.1770469 79.4002344 46.74425 80.6600156 45.9626563 83.3235156 44.928625 88.554375 44.928625 93.4494531 44.928625 96.7967656 45.8424531 98.7283281 46.599875 99.9400938 47.0809062 100.66 48.5236719 100.432063 50.0025312 100.132047 51.9263281 99.6761719 54.3912031 99.1722813 54.9562344 98.3204688 55.9061562 95.3331094 56.5193125 88.554375 56.5193125 81.77575 56.5193125 79.1363125 55.9061562 78.3924531 52.6597969 78.0085469 51.0365625 78.0085469 49.7741563 78.1044687 48.9084531zM94.1932031 51.9144062C94.1932031 51.9144062 90.1380156 46.3114531 83.1314531 51.806125"/>
    <path fill="#333" fill-rule="nonzero" d="M85.147125,50.3152344 C85.147125,50.3152344 84.2233437,53.8741875 87.9306094,53.8741875 C92.5377031,53.8741875 90.7139844,50.3152344 90.7139844,50.3152344 C90.7139844,50.3152344 88.8664219,47.9466094 85.147125,50.3152344 Z"/>
    <path stroke="#333" stroke-linecap="round" stroke-linejoin="round" stroke-width="1.5" d="M69.2863281 44.0269375C69.2863281 44.0269375 61.5717812 40.6964687 55.369125 41.5381094 52.6696406 41.91075 50.6420469 43.5460156 50.6420469 43.5460156M71.2657969 48.9084531C71.1578437 47.9825937 70.63 47.1770469 69.8981719 46.74425 68.5664219 45.9626563 65.7589844 44.928625 60.2640937 44.928625 55.1050937 44.928625 51.57775 45.8424531 49.5382344 46.599875 48.2664219 47.0809062 47.4986094 48.5236719 47.7385781 50.0025312 48.0505156 51.9263281 48.542375 54.3912031 49.0703281 54.9562344 49.9701562 55.9061562 53.1134844 56.5193125 60.2640937 56.5193125 67.4145937 56.5193125 70.1860469 55.9061562 70.9779219 52.6597969 71.3618281 51.0365625 71.3618281 49.7741563 71.2657969 48.9084531zM55.1769531 51.9144062C55.1769531 51.9144062 59.2321406 46.3114531 66.2387031 51.806125"/>
    <path fill="#333" fill-rule="nonzero" d="M64.2233594,50.3152344 C64.2233594,50.3152344 65.1471406,53.8741875 61.439875,53.8741875 C56.8327812,53.8741875 58.6565,50.3152344 58.6565,50.3152344 C58.6565,50.3152344 60.5040625,47.9466094 64.2233594,50.3152344 Z"/>
    <path stroke="#333" stroke-linecap="round" stroke-linejoin="round" stroke-width="1.5" d="M71.28975,49.4014062 C71.28975,49.4014062 73.6772969,47.2853281 78.0804063,49.4014062"/>
    <polygon fill="#333" fill-rule="nonzero" points="40.984 50.087 47.69 48.464 47.69 51.566 40.948 51.914"/>
    <polygon fill="#333" fill-rule="nonzero" points="104.055 50.087 100.48 48.464 100.48 51.566 104.079 51.914"/>
    <path stroke="#333" stroke-linecap="round" stroke-linejoin="round" stroke-width="1.5" d="M63.1314688,73.5685781 C64.4871719,74.0135156 69.4062031,72.426375 74.745125,72.5947031 C80.0840469,72.7630313 80.696,73.2800469 84.5952188,73.6407656 C84.5952188,73.6407656 82.5196094,78.558375 73.497375,78.1255781 C65.6870156,77.7648594 63.1314688,73.5685781 63.1314688,73.5685781 Z"/>
    <path fill="#333" fill-rule="nonzero" d="M78.8843125,16.5413281 C78.8843125,16.5413281 63.2874375,17.7917031 56.0888125,24.0319844 C48.8902969,30.2721562 45.1950625,47.586 40.4440313,50.183 L41.3917656,59.6455781 C41.3917656,59.6455781 38.812375,53.1047344 34.8531094,54.1868906 C34.8531094,54.1868906 30.8939531,30.2841875 40.4919375,16.5413281 C49.6821719,3.38760625 63.0235156,-3.1772125 78.8843125,2.79845781 C78.8843125,2.79845781 86.1549063,-0.952870625 98.0805,7.80023125 C110.006094,16.5533594 112.477969,32.7850469 112.477969,41.5381094 C112.477969,50.2912812 107.066641,55.7499688 107.066641,55.7499688 L104.667172,55.7499688 C104.667172,55.7499688 104.763094,39.3257812 99.2802344,30.2962187 C93.797375,21.2665469 78.8843125,16.5413281 78.8843125,16.5413281 Z"/>
    <path stroke="#333" stroke-linecap="round" stroke-linejoin="round" stroke-width="1.5" d="M41.1997031,57.7697969 C41.1997031,57.7697969 37.4805156,49.9665469 32.981375,55.7378281 C28.4822344,61.5091094 38.3082656,74.7951094 41.1997031,73.1479219 C44.0911406,71.5126562 43.83925,70.4906562 43.83925,70.4906562"/>
    <path fill="#333" fill-rule="nonzero" d="M38.5722969,53.6097187 C38.5722969,53.6097187 38.5363125,70.4787344 35.9089063,76.6227656 C33.2813906,82.7666875 42.8794844,89.0069687 42.8794844,89.0069687 C42.8794844,89.0069687 36.6527656,83.5603125 37.3725625,79.4121562 C38.0804375,75.2641094 41.3917656,54.8000469 40.9358906,53.1648906 C40.4919375,51.5297344 38.5722969,53.6097187 38.5722969,53.6097187 Z"/>
    <path stroke="#333" stroke-linecap="round" stroke-linejoin="round" stroke-width="1.5" d="M104.667063 55.7378281C104.667063 55.7378281 107.678375 51.5174844 108.878219 56.5193125 110.078281 61.5210313 102.879328 71.2721406 102.279516 70.7671562 101.679594 70.2621719 101.06775 70.7912187 101.06775 70.7912187M91.0619063 87.5400312C91.0619063 87.5400312 90.881875 92.7461719 92.2616406 97.6637812 93.6414062 102.569469 104.667172 105.695516 104.667172 105.695516 104.667172 105.695516 96.8687344 119.919844 80.5999688 124.837344L80.0840469 135.284844M47.9665156 80.1935313C47.9665156 80.1935313 50.6419375 91.748125 47.9665156 97.2429063 45.2909844 102.737578 33.2934219 107.739406 33.2934219 107.739406 33.2934219 107.739406 41.6437656 120.772969 58.3324219 125.100938L59.9640781 135.284844"/>
    <path fill="#333" fill-rule="nonzero" d="M106.262734 53.6098281C106.262734 53.6098281 107.378469 67.4008125 108.122328 72.5828906 108.866188 77.7650781 101.06775 87.6964375 101.06775 87.6964375 101.06775 87.6964375 106.322672 79.2319062 106.394641 75.3723906 106.478641 71.5127656 102.459437 53.2009844 106.262734 53.6098281zM46.1788906 76.8151562C46.1788906 76.8151562 41.6917812 84.0051406 41.6917812 90.2573437 41.6917812 96.5095469 36.8927344 106.056234 36.8927344 106.056234 36.8927344 106.056234 47.126625 100.753844 48.6143438 95.4995781 50.1020625 90.2573437 47.7024844 80.2537969 47.7024844 80.2537969L46.1788906 76.8151562z"/>
    <path stroke="#333" stroke-linecap="round" stroke-linejoin="round" stroke-width="1.5" d="M43.8391406 101.775844C43.8391406 101.775844 50.2099062 114.112031 69.9459687 114.112031 89.6820312 114.112031 95.8607344 101.775844 95.8607344 101.775844M104.667063 105.695625C104.667063 105.695625 126.310625 110.480781 130.185781 114.112031 134.060937 117.743281 138.128594 127.855 139.099844 135.297969M33.2934219 107.751438C33.2934219 107.751438 14.3731875 110.3725 10.4979656 114.00375 6.62274375 117.635 1.87169062 127.867031.899887187 135.296875M28.3384063 108.545062C28.3384063 108.545062 34.6251719 128.984844 59.1602812 130.235M80.3839531 129.2375C80.3839531 129.2375 95.2249375 128.587813 109.849688 106.921828"/>
    <path stroke="#333" stroke-width="1.5" d="M119.184844 109.47125C119.184844 109.47125 121.295781 126.604844 120.479844 135.284844M20.1440313 110.240156C20.1440313 110.240156 18.2004375 121.603125 19.1482813 135.284844"/>
    <path fill="#333" fill-rule="nonzero" d="M44.3912656,80.1935313 C44.3912656,80.1935313 39.976125,91.4956875 38.4284687,97.7478906 C36.8927344,104.000094 31.8297656,107.739406 31.8297656,107.739406 L30.0660937,108.244391 C30.0660937,108.244391 34.0372812,104.61325 35.4650625,101.186531 C36.8927344,97.7478906 41.0918594,82.6343438 44.3912656,80.1935313 Z"/>
  </g>
</svg>
