<svg xmlns="http://www.w3.org/2000/svg" viewBox="0 0 41 40">
  <path d="M20.768 40c-11.045 0-20-8.954-20-20s8.955-20 20-20c11.046 0 20 8.954 20 20s-8.954 20-20 20zm0-12c2.767 0 5.537 0 8.296.004.346 0 .36-.021.356-.357-.003-.439-.003-.878.004-1.318.007-.331.007-.342-.328-.342-1.259 0-2.518-.004-3.778 0-.193 0-.313-.025-.24-.267.288-.95.568-1.901.84-2.856.055-.187.165-.245.35-.241.433.007.87-.011 1.303.003.259.008.408-.032.368-.342-.026-.205.018-.421.018-.63v-4.478c0-.677.007-1.35-.007-2.028-.007-.381-.026-.381-.415-.381H14.013c-.419 0-.423.003-.423.432v6.955c0 .069.004.14.004.21 0 .187.091.266.28.262.452-.003.907.011 1.358-.003.215-.008.313.068.375.273.266.919.55 1.834.83 2.749.102.328.09.342-.255.342-1.241 0-2.486.007-3.727-.007-.273-.004-.36.086-.353.342.01.421 0 .843 0 1.264 0 .407.007.415.415.415h8.251zm-.007-7.395c-1.438 0-2.876-.007-4.313.008-.266 0-.35-.072-.346-.343.018-1.062.014-2.125.004-3.187-.004-.224.058-.306.298-.306 2.92.007 5.838.003 8.758 0 .218 0 .291.068.291.288a161.73 161.73 0 000 3.267c.004.227-.091.277-.299.277-1.466-.007-2.93-.004-4.393-.004zm-.01 2.018c.95 0 1.9-.004 2.846.003.316 0 .323.018.236.314-.27.911-.546 1.819-.804 2.73-.059.205-.16.277-.375.277-1.249-.007-2.5-.007-3.753 0-.211 0-.317-.064-.379-.273-.273-.919-.56-1.834-.84-2.749-.088-.284-.077-.302.218-.302h2.85zm0-9.269h7.77c.415 0 .415 0 .415-.4V11.77c0-.433 0-.433-.44-.433H15.239c-.764 0-1.525.007-2.29-.003-.247-.004-.352.068-.338.327.018.415.004.825.004 1.24 0 .453 0 .453.47.453h7.665z" fill="#008E1E" fill-rule="evenodd"/>
</svg>
