<svg width="20" height="20" viewBox="0 0 20 20" fill="none" xmlns="http://www.w3.org/2000/svg">
<path fill-rule="evenodd" clip-rule="evenodd" d="M16.3647 14.5228L18.823 16.9895C19.098 17.2645 19.098 17.7145 18.823 17.9895C18.6897 18.1312 18.5063 18.1978 18.323 18.1978C18.1397 18.1978 17.9647 18.1312 17.823 17.9895L15.9647 16.1312L14.5397 14.7062L4.06467 4.23117L2.673 2.8395L1.873 2.0395C1.598 1.7645 1.598 1.3145 1.873 1.0395C2.148 0.764502 2.598 0.764502 2.873 1.0395L3.523 1.67284L3.91466 2.0645C4.20633 1.8895 4.55633 1.7895 4.93133 1.7895H14.4563C15.5147 1.7895 16.3647 2.58117 16.3647 3.54783V14.5228ZM14.4563 3.1145H4.948L14.5397 12.7062L14.9313 13.0978V3.55617C14.9313 3.3145 14.723 3.1145 14.4563 3.1145ZM10.0313 14.2645L14.6313 16.5562H14.6563C14.8063 16.6312 14.948 16.7312 15.0647 16.8479L16.3063 18.0895C16.248 18.2062 16.1563 18.3062 16.0313 18.3729C15.8147 18.4979 15.548 18.4979 15.323 18.3895L9.70634 15.5979L4.08968 18.3895C3.86468 18.4979 3.59801 18.4895 3.38134 18.3729C3.16467 18.2562 3.03134 18.0395 3.03134 17.8062V4.83121L4.45634 6.25621V16.7062L9.35634 14.2645C9.56467 14.1562 9.81468 14.1562 10.0313 14.2645Z" fill="currentColor"/>
</svg>
