<svg xmlns="http://www.w3.org/2000/svg" width="73" height="72" fill="none" viewBox="0 0 73 72"><g clip-path="url(#a)"><path fill="#062D2A" d="M72.03 0h-72v72h72V0Z"/><path fill="#C0A46B" d="M12.62 9a.41.41 0 1 0 0-.82.41.41 0 0 0 0 .82ZM25.62 17a.41.41 0 1 0 0-.82.41.41 0 0 0 0 .82ZM7.62 27a.41.41 0 1 0 0-.82.41.41 0 0 0 0 .82ZM58.62 8a.41.41 0 1 0 0-.82.41.41 0 0 0 0 .82ZM28.12 14.99a.91.91 0 1 0 0-1.82.91.91 0 0 0 0 1.82ZM61.62 21a.41.41 0 1 0 0-.82.41.41 0 0 0 0 .82ZM68.62 24a.41.41 0 1 0 0-.82.41.41 0 0 0 0 .82ZM50.62 31a.41.41 0 1 0 0-.82.41.41 0 0 0 0 .82Z"/><path fill="#133A2D" d="m39.57 46.95 1.46.65s-.72-.79-1.54-1.68l.68.35s-.84-1.03-1.71-2.09l1.47.76-1.18-1.45v-.39l1.84.95s-.83-1.03-1.71-2.08l.11.06s-.25-.31-.62-.76l1.11.57s-1.09-1.34-2.08-2.53v-.04l1.84.95s-1.24-1.53-2.28-2.77l.03-.12.85.76s-.64-1.04-1.14-1.86l1.75.9s-1.5-1.85-2.58-3.12l1.35.7s-1.26-1.56-2.3-2.8l-.01-.12 1.04.33s-1.44-1.17-1.95-1.54c-.13-.21-.23-.38-.29-.48 0 0-1.26 1.45-2.09 1.68l.9-.14-.11.42c-.12.09-.24.17-.35.23l.23-.09c-.49.37-1.05.75-1.44.86l.9-.14-.07.28c-.51.59-1.04 1.11-1.48 1.37l1.51-.65v.77c-.67.85-1.46 1.74-2.08 2.1l1.51-.65v.48c-.74.55-1.52 1.05-2.09 1.23l1.62-.27-.04.17c-.64.79-1.36 1.58-1.93 1.92l1.51-.65v.75c-.71.92-1.6 1.96-2.28 2.36l1.51-.65v.61c-.77.59-1.61 1.14-2.21 1.32l1.57-.27c-.65.81-1.38 1.61-1.97 1.95l1.51-.65v1.03l.33-.39c-.73 1-1.73 2.23-2.48 2.68l1.5-.66.01 1.03.89-1.07.34 1.06.52-1.04.62 1.03.32-1.06.52.55c-.32.32-.62.59-.9.76l1.14-.5.23.24v-.34l.14-.06.01 1.03.89-1.07.34 1.06.44-.88.02-.01.11-.05.57.94.28-.93.11-.06.92.97-.01-1.05.37.32.01.18.08-.1.11.09s-.02-.05-.07-.14l.14-.18h.01l.1.26.08-.17 1.03.52s-.34-.42-.82-.99l.15-.34.04-.05.39 1.04.13-.29.15.22.23-.94.63.94.1-.4.34.33-.05-.88.92.88-.05-.81 1 .44c-.05.02-.29-.24-.65-.63Zm-8.21-.02.12.06c-.04.05-.08.09-.12.14v-.2Zm1.82.93c.01-.01.01 0 0 0Zm.02-.01s-.01-.01 0 0l.06-.14.04.06c-.04.03-.07.06-.1.08Zm.97-.08.03-.1.04.04c-.03.02-.05.04-.07.06Zm1.35-.05c-.01-.01-.01-.02-.02-.03l.01.01.01.02Z"/><path fill="#133A2D" d="m26.21 46.52 1.28.14s-.75-.43-1.6-.91l.61.1s-.9-.59-1.83-1.19l1.31.22-1.26-.82-.1-.3 1.64.28s-.89-.59-1.82-1.18l.1.02s-.27-.18-.66-.43l.99.17s-1.17-.77-2.22-1.44l-.01-.03 1.64.28s-1.33-.87-2.43-1.57l-.01-.1.84.37s-.75-.64-1.33-1.15l1.57.27s-1.6-1.05-2.75-1.77l1.21.21s-1.35-.89-2.46-1.59l.01-.1h.88s-1.39-.55-1.87-.71c-.15-.13-.27-.24-.34-.3 0 0-.61 1.42-1.19 1.81l.66-.32.02.35c-.07.1-.14.19-.21.26l.15-.12c-.28.4-.62.83-.9 1.02l.66-.32.01.23c-.25.58-.53 1.11-.8 1.41l1-.87.19.59c-.31.82-.7 1.69-1.09 2.12l1-.87.12.37c-.43.61-.91 1.18-1.31 1.45l1.18-.61.01.14c-.3.77-.66 1.55-1.02 1.95l1-.87.18.58c-.32.89-.75 1.9-1.18 2.37l1-.87.15.47c-.45.64-.96 1.27-1.38 1.55l1.14-.59c-.3.78-.67 1.58-1.03 1.98l1-.87.25.79.16-.38c-.32.95-.79 2.14-1.26 2.67l.99-.88.26.79.42-1.04.52.73.15-.93.73.64-.02-.9.53.3c-.16.33-.33.61-.51.8l.76-.66.24.13-.09-.26.09-.08.26.79.42-1.04.52.73.12-.79.01-.01.07-.07.67.58-.02-.78.07-.07.94.52-.26-.8.36.15.05.14.03-.1.1.04-.09-.09.06-.17h.01l.14.18.02-.15.92.15s-.37-.24-.88-.56l.03-.3.02-.05.55.71.03-.25.17.13-.05-.78.72.57-.02-.33.34.17-.26-.67.92.46-.23-.61.88.1c.03.03-.22-.11-.59-.33Zm-6.32 1.99.11.02c-.02.05-.04.09-.06.14l-.05-.16Zm1.63.27c.01 0 0 0 0 0Zm.01-.01.01-.12.05.04c-.02.03-.04.06-.06.08Zm.73-.29v-.08l.04.02c-.02.02-.03.04-.04.06Zm1.03-.37-.02-.02h.01l.01.02ZM13.87 47.7l1.23.13s-.72-.41-1.54-.87l.59.1s-.86-.56-1.76-1.13l1.26.21s-.54-.35-1.22-.78l-.09-.29 1.58.26s-.86-.56-1.75-1.12l.1.02s-.26-.17-.64-.41l.96.16s-1.12-.73-2.13-1.37l-.01-.03 1.58.26s-1.28-.83-2.33-1.49l-.01-.09.81.36s-.72-.61-1.28-1.09l1.51.25s-1.54-1-2.64-1.68l1.17.19s-1.3-.84-2.36-1.51l-.03-.08h.85s-1.34-.52-1.8-.67c-.14-.12-.26-.23-.32-.29 0 0-.6 1.36-1.16 1.73l.63-.31.02.33c-.07.1-.14.18-.2.25l.15-.12c-.27.39-.6.8-.87.97l.63-.31.01.22c-.24.55-.51 1.06-.78 1.35l.99-.85.18.57c-.3.78-.68 1.62-1.06 2.03l.97-.83.11.35c-.42.58-.88 1.13-1.26 1.39l1.14-.58.01.13c-.29.73-.64 1.48-.99 1.86l.97-.83.18.55c-.31.85-.73 1.81-1.15 2.27l.97-.83.14.45c-.44.61-.93 1.21-1.33 1.49l1.1-.56c-.29.74-.65 1.51-1 1.9l.97-.83.24.76.15-.36c-.31.9-.77 2.04-1.22 2.55l.96-.84.25.75.41-.99.5.7.14-.88.7.61-.01-.86.51.28c-.16.31-.32.58-.49.77l.73-.64.23.12-.08-.25.09-.08.25.75.41-.99.5.7.12-.75.01-.01.07-.06.64.55-.01-.75.07-.07.91.5-.25-.77.35.15.05.13.03-.1.1.04s-.03-.03-.08-.09l.06-.17h.01l.13.17.02-.15.89.14-.84-.53.03-.29.02-.05.53.67.03-.24.16.13-.05-.74.69.54-.02-.32.33.16-.24-.64.89.43-.22-.58.85.09c-.05.02-.29-.12-.65-.32Zm-6.1 1.92.1.02c-.02.04-.04.09-.06.13l-.04-.15Zm1.57.26c.01-.01.01-.01 0 0Zm.01-.02.01-.11.04.04a.18.18 0 0 1-.05.07Zm.7-.28v-.08l.04.02c-.01.02-.02.04-.04.06Zm1-.36-.02-.02h.01l.01.02ZM63.53 51.45l.95.8-.79-1.58.43.41s-.4-.94-.83-1.91l.93.88s-.25-.6-.57-1.33l.08-.29 1.17 1.1s-.4-.94-.83-1.91l.07.07-.3-.7.71.66s-.52-1.23-1.01-2.32l.01-.03 1.17 1.1s-.6-1.4-1.1-2.54l.05-.08.47.75s-.25-.91-.45-1.62l1.12 1.05s-.72-1.69-1.25-2.87l.86.81s-.61-1.42-1.12-2.57l.02-.09.7.47s-.82-1.18-1.12-1.56c-.05-.18-.09-.33-.11-.42 0 0-1.25.8-1.92.79l.7.09-.17.28c-.11.04-.21.08-.31.09l.19-.01c-.44.17-.95.33-1.26.32l.7.09-.11.19c-.51.32-1.02.59-1.4.69l1.27-.15-.17.57c-.69.48-1.47.96-2.01 1.09l1.27-.15-.1.36c-.67.25-1.36.45-1.83.45l1.27.15-.07.12c-.65.45-1.36.87-1.86.99l1.27-.15-.16.56c-.73.53-1.62 1.1-2.22 1.24l1.27-.15-.13.45c-.71.26-1.45.49-1.94.49l1.23.15c-.66.45-1.38.89-1.89 1.01l1.27-.15-.22.76.33-.22c-.76.58-1.78 1.27-2.44 1.44l1.27-.16-.22.76.89-.6.02.85.61-.65.24.89.47-.72.27.52c-.31.17-.59.3-.84.36l.96-.12.12.23.07-.25.11-.01-.22.76.89-.6.02.85.52-.56h.02l.09-.02.22.82.41-.63.1-.02.47.92.22-.78.21.31-.03.14.08-.06.06.09s-.01-.04-.02-.12l.14-.1.02.22.1-.11.66.61s-.17-.38-.4-.91l.19-.22.04-.03.06.85.16-.18.06.2.38-.64.27.83.16-.28.18.32.15-.66.49.85.14-.61.65.55c.02.05-.1-.19-.28-.56Zm-6.14-1.81.08.07c-.04.03-.08.05-.12.08l.04-.15Zm1.17 1.09c0-.01 0-.01 0 0Zm.01-.01.07-.09.02.06-.09.03Zm.74.16.04-.06.02.04c-.02 0-.04.01-.06.02Zm1.03.26v-.03l.01.01-.01.02ZM49.53 46.45l.95.8-.79-1.58.43.41s-.4-.94-.83-1.91l.93.88s-.25-.6-.57-1.33l.08-.29 1.17 1.1s-.4-.94-.83-1.91l.07.07-.3-.7.71.66s-.52-1.23-1.01-2.32l.01-.03 1.17 1.1s-.6-1.4-1.1-2.54l.05-.08.47.75s-.25-.91-.45-1.62l1.12 1.05s-.72-1.69-1.25-2.87l.86.81s-.61-1.42-1.12-2.57l.02-.09.7.47s-.82-1.18-1.12-1.56c-.05-.18-.09-.33-.11-.42 0 0-1.25.8-1.92.79l.7.09-.17.28c-.11.04-.21.08-.31.09l.19-.01c-.44.17-.95.33-1.26.32l.7.09-.11.19c-.51.32-1.02.59-1.4.69l1.27-.15-.17.57c-.69.48-1.47.96-2.01 1.09l1.27-.15-.1.36c-.67.25-1.36.45-1.83.45l1.27.15-.07.12c-.65.45-1.36.87-1.86.99l1.27-.15-.16.56c-.73.53-1.62 1.1-2.22 1.24l1.27-.15-.13.45c-.71.26-1.45.49-1.94.49l1.23.15c-.66.45-1.38.89-1.89 1.01l1.27-.15-.22.76.33-.22c-.76.58-1.78 1.27-2.44 1.44l1.27-.16-.22.76.89-.6.02.85.61-.65.24.89.47-.72.27.52c-.31.17-.59.3-.84.36l.96-.12.12.23.07-.25.11-.01-.22.76.89-.6.02.85.52-.56h.02l.09-.02.22.82.41-.63.1-.02.47.92.22-.78.21.31-.03.14.08-.06.06.09s-.01-.04-.02-.12l.14-.1.02.22.1-.11.66.61s-.17-.38-.4-.91l.19-.22.04-.03.06.85.16-.18.06.2.38-.64.27.83.16-.28.18.32.15-.66.49.85.14-.61.65.55c.02.05-.1-.19-.28-.56Zm-6.14-1.81.08.07c-.04.03-.08.05-.12.08l.04-.15Zm1.17 1.09c0-.01 0-.01 0 0Zm.01-.01.07-.09.02.06-.09.03Zm.74.16.04-.06.02.04c-.02 0-.04.01-.06.02Zm1.03.26v-.03l.01.01-.01.02Z"/><path fill="#fff" d="M29.02 0s13.05 10.27 10.03 18.57c-3.02 8.3-10.05 10.21-6.53 25.37l4.06.06s-3.54-18.21 11.46-20.36c15-2.15 26.14-10.75 17.57-23.64H29.02Z" opacity=".12"/><path fill="#133A2D" d="m7.87 50.7 1.23.13s-.72-.41-1.54-.87l.59.1s-.86-.56-1.76-1.13l1.26.21s-.54-.35-1.22-.78l-.09-.29 1.58.26s-.86-.56-1.75-1.12l.1.02s-.26-.17-.64-.41l.96.16s-1.12-.73-2.13-1.37l-.01-.03 1.58.26s-1.28-.83-2.33-1.49l-.01-.09.81.36s-.72-.61-1.28-1.09l1.51.25s-1.54-1-2.64-1.68l1.17.19s-1.3-.84-2.36-1.51l-.03-.08h.84S.53 40.24 0 40.07v13.74l.22.31.14-.88.7.61-.01-.86.51.28c-.16.31-.32.58-.49.77l.73-.64.23.12-.08-.25.09-.08.25.75.41-.99.5.7.12-.75.01-.01.07-.06.64.55-.01-.75.07-.07.91.5-.25-.77.35.15.05.13.03-.1.1.04s-.03-.03-.08-.09l.06-.17h.01l.13.17.02-.15.89.14-.84-.53.03-.29.02-.05.53.67.03-.24.16.13-.05-.74.69.54-.02-.32.33.16-.24-.64.89.43-.22-.58.85.09c-.01 0-.25-.14-.61-.34Zm-6.05 2.07-.05-.15.1.02c-.01.04-.03.09-.05.13Zm1.52.11c.01-.01.01-.01 0 0Zm.01-.02.01-.11.04.04c-.01.03-.03.05-.05.07Zm.7-.28v-.08l.04.02a.21.21 0 0 1-.04.06Zm.98-.38h.01l.01.02c-.01 0-.01-.01-.02-.02ZM72.03 37.56c-.04-.14-.07-.27-.09-.34 0 0-1.4.9-2.15.89l.78.1-.19.32c-.12.05-.24.08-.34.1l.21-.02c-.5.19-1.06.37-1.41.37l.78.1-.13.21c-.57.36-1.13.67-1.56.78l1.41-.17-.19.64c-.77.54-1.64 1.08-2.24 1.23l1.41-.17-.12.4c-.75.28-1.52.5-2.04.51l1.41.17-.08.13c-.73.5-1.52.98-2.08 1.12l1.41-.17-.18.63c-.82.59-1.81 1.23-2.48 1.4l1.41-.17-.15.51c-.79.3-1.61.55-2.16.55l1.37.16c-.73.51-1.54 1-2.11 1.14l1.41-.17-.25.86.37-.24c-.85.65-1.99 1.43-2.72 1.62l1.41-.18-.24.86 1-.67.02.96.68-.73.27 1 .52-.81.3.58c-.34.19-.66.34-.93.41l1.07-.14.13.26.08-.29.13-.02-.24.86 1-.67.02.96.58-.63h.02l.1-.02.25.92.46-.7.11-.02.53 1.03.25-.87.23.35-.04.15.09-.07.07.1s-.01-.05-.02-.13l.16-.12h.01l.02.24.11-.13.73.68-.45-1.02.21-.25.05-.03.07.96.18-.21.07.22.42-.72.3.93.18-.31.2.36.17-.75.4.69V37.56h.02Zm-6.19 13.21.05-.17.09.08c-.05.03-.09.06-.14.09Zm1.34 1.05c.01 0 .01 0 0 0Zm.02-.01s-.01 0 0 0l.08-.1.02.06c-.04.02-.07.03-.1.04Zm.82.18.05-.07.02.04c-.02.01-.05.02-.07.03Zm1.15.29v-.03l.01.01-.01.02Z"/><path fill="#29846A" d="M.03 52.54s30-18.73 72 0V72h-72V52.54Z"/><path fill="#5A3523" d="M17.85 58.53h1.06l-.29-1.65-.77.47v1.18ZM53.07 58.46l-1.97-.44 2.06-1.79.65.65-.74 1.58Z"/><path fill="#48291B" d="M32.75 52.22c-.02-.01-.03-.03-.05-.04-.51-.46-1.28-.65-2.01-.53l-12.78 2.14 2.14 5.41 11.74-3.92c1.51-.44 2.03-2.06.96-3.06Z"/><path fill="#816339" d="m20.66 55.3-1.1.9.97-1.13c-.74-1.28-1.86-1.42-2.61-1.28-1.29.24-1.91 1.39-1.01 3.36.23.51.56 1 .94 1.38l.36-.68-.18.86c.62.54 1.35.81 2.01.49 1.16-.54 1.32-1.81.87-3.23-.07-.25-.16-.47-.25-.67Z"/><path fill="#48291B" d="M38.17 52.15c.02-.01.03-.03.05-.04.51-.46 1.28-.65 2.01-.53l12.78 2.14-2.14 5.41-11.74-3.92c-1.51-.44-2.04-2.06-.96-3.06Z"/><path fill="#816339" d="m50.26 55.23 1.1.9-.97-1.13c.74-1.28 1.86-1.42 2.61-1.28 1.29.24 1.91 1.39 1.01 3.36-.23.51-.56 1-.94 1.38l-.36-.68.18.86c-.62.54-1.35.81-2.01.49-1.16-.54-1.32-1.81-.87-3.23.06-.25.15-.47.25-.67Z"/><path fill="#5A3523" d="m30.42 61.12 2.08-6.42c.33-1 1.28-1.76 2.47-1.97.48-.08 1.02-.13 1.58-.08 1.25.11 2.3.84 2.71 1.85l2.91 7.1-11.75-.48Z"/><path fill="#5A3523" d="m42.01 63.05-.23-1.67-9.98 1.57.36 2.2.47.27 9.38-2.37Z"/><path fill="#816339" d="m39.01 62.71 3.12-.29c.02-.16.03-.33.03-.49 0-1.93-2.66-3.5-5.95-3.5s-5.95 1.57-5.95 3.5c0 1.12.59 2.37 1.9 3.22l.96-.81-.49 1.08c.9.46 2.08.75 3.58.75 3.81 0 5.35-1.52 5.8-3.12l-3-.34Z"/><path fill="#EA8B3E" d="M28.66 56.32s.43-2.06-.65-2.95c-1.08-.89-1.48-1.03-1.48-1.03s-1.38-1.04-.3-4.5c1.08-3.47-.61-5.38-.61-5.38s1.91 0 2.43 1.55c.52 1.55 2.21 2.8 2.21 2.8s-1.6-3.17-.35-5.02c1.26-1.84 2.99-5.2 1.39-6.27 0 0 2.56-.37 2.86 1.84.3 2.21 3.44 5.02 3.44 5.02s-.71-2.89 1.28-3.77c0 0-.61 1.45.43 2.3 1.04.85 2.73 3.25 2.38 5.53-.35 2.29.78 3.5.78 3.5s-.09-3.43 1.69-4.54c1.78-1.11 0-2.29 0-2.29s2.34.35 2.47 2.79c.13 2.45 2.29 4.48-.65 6.63l-4.37-.65s-3.33.95-2.12 3.18c0 0-1.47-2.52-3.68-2.41-2.21.11-3.52 2.66-3.52 2.66s.14-1.59-.9-1.3c-1.04.29-2.73 2.31-2.73 2.31Z"/><path fill="#E6C15B" d="M39.29 47.36c-.35-1.88-1.99-1.45-1.99-1.45.82.47 1 2.34-.72 2.04-1.72-.3-1.75-1.07-2.48-3.36s-2.82-1.81-2.82-1.81 1.21.44.82 3.43.91 2.4 1 3.91c.09 1.51-.87 1.44-1.86 1.18-1-.26-1.04-1.88-1.04-1.88-.44 2.47.19 3.96.64 4.88.2-.12.39-.22.56-.27 1.04-.3.9 1.3.9 1.3s1.31-2.55 3.52-2.66c2.21-.11 3.68 2.41 3.68 2.41-.86-1.59.57-2.53 1.48-2.94.05-.39.1-.84.14-1.35.12-1.85-1.48-1.55-1.83-3.43Z"/><path fill="#5A3523" d="M36.62 63.67c-.23 0-.49-.07-.84-.21-.87-.35-.93-.47-.99-1.27-.03-.37.38-.79.96-.99.63-.22 1.24-.11 1.64.28.85.84.57 1.33.22 1.67-.37.36-.64.52-.99.52Zm-1.76-1.48c.06.77.1.89.95 1.22.84.34 1.16.28 1.76-.3.21-.2.7-.68-.22-1.59-.38-.37-.96-.47-1.57-.26-.56.19-.95.58-.92.93Z"/><path fill="#5A3523" d="M36.5 62.96c-.12 0-.25-.04-.43-.11-.44-.18-.47-.24-.5-.65-.01-.19.19-.4.49-.51.32-.11.63-.06.84.14.44.43.29.68.11.85-.19.19-.33.28-.51.28Zm-.86-.76c.03.39.05.43.46.6.41.16.57.14.86-.15.17-.16.29-.38-.11-.78-.18-.18-.47-.23-.76-.13-.27.1-.47.3-.45.46Z"/><path fill="#5A3523" d="M36.93 64.62c-.35 0-.74-.08-1.15-.25-.8-.32-1.24-.57-1.54-.89-.32-.35-.48-.78-.53-1.44-.04-.52.39-1.05 1.12-1.38.8-.36 2.05-.49 3.12.22.95.63 1.42 1.25.85 2.42-.31.64-.73 1.05-1.26 1.22-.19.07-.39.1-.61.1Zm-.71-4.2c-.51 0-.98.12-1.36.29-.71.32-1.13.83-1.09 1.33.09 1.3.61 1.73 2.03 2.29.65.26 1.23.31 1.72.15.51-.17.92-.57 1.22-1.19.55-1.14.09-1.74-.83-2.36a2.97 2.97 0 0 0-1.69-.51Z"/><path fill="#5A3523" d="M37.05 65.09c-.55 0-1.15-.14-1.83-.4l-.18-.07c-1.88-.75-2.39-.95-2.52-2.74-.06-.85.86-1.8 2.2-2.26 1.45-.5 2.86-.26 3.77.64 2.08 2.05 1.59 2.75 1.23 3.26l-.01.02c-.74 1.04-1.59 1.55-2.66 1.55Zm-4.47-3.22c.13 1.76.63 1.96 2.49 2.69l.18.07c1.95.77 3.31.43 4.4-1.13l.01-.02c.35-.5.82-1.17-1.22-3.2-.89-.88-2.27-1.12-3.69-.62-1.32.46-2.23 1.39-2.17 2.21Z"/><path fill="#5A3523" d="M36.94 65.36c-.74 0-1.52-.14-2.31-.43-2.45-.89-2.77-1.08-2.93-3.12-.07-.86.9-1.85 2.35-2.39a5.7 5.7 0 0 1 2.49-.36c.91.08 1.72.41 2.34.97 1.3 1.17 2.39 2.34 1.43 3.79-.66 1-1.91 1.54-3.37 1.54Zm-.82-6.26c-.72 0-1.44.15-2.04.38-1.43.53-2.38 1.49-2.32 2.33.16 2 .48 2.19 2.89 3.07 2.32.84 4.62.39 5.6-1.09.94-1.42-.14-2.57-1.42-3.72-.78-.7-1.76-.97-2.71-.97Z"/><path fill="#5A3523" d="M36.48 65.83c-.75 0-1.49-.12-2.2-.35-2.71-.89-3.23-1.75-3.42-3.87-.07-.81.82-1.72 2.29-2.3.95-.38 2-.57 2.98-.53 1.13.05 2.11.39 2.86 1 .69.56 1.23.95 1.67 1.27.67.49 1.04.75 1.14 1.08.09.32-.07.68-.51 1.42-.54.91-1.58 1.64-2.88 2.01-.63.18-1.28.27-1.93.27Zm-.67-7.01c-.8 0-1.68.15-2.63.53-1.44.58-2.32 1.46-2.25 2.25.19 2.1.7 2.95 3.38 3.83 1.31.43 2.75.46 4.08.08 1.28-.36 2.32-1.09 2.84-1.98.82-1.4.71-1.48-.62-2.44-.44-.32-.98-.71-1.67-1.27-.66-.55-1.76-1-3.13-1ZM18.71 57.29c-.04 0-.08-.01-.12-.03-.38-.18-.68-.8-.63-1.16.03-.21.13-.48.32-.54.06-.02.16-.03.28.05.29.19.37.29.39.72.02.45.03.85-.15.95-.04 0-.06.01-.09.01Zm-.35-1.69c-.02 0-.04 0-.06.01-.13.05-.25.25-.28.5-.04.33.25.94.6 1.11.06.03.1.03.13.01.16-.09.14-.6.12-.9-.02-.41-.09-.5-.37-.68a.187.187 0 0 0-.14-.05Z"/><path fill="#5A3523" d="M18.79 57.8a.38.38 0 0 1-.17-.04c-.58-.25-1.04-1.15-.96-1.66.04-.29.19-.67.47-.77.13-.05.27-.03.42.06.44.28.56.41.59 1.03.03.48.07 1.2-.22 1.35-.04.02-.08.03-.13.03Zm-.52-2.44c-.04 0-.08.01-.12.02-.24.09-.39.43-.43.73-.07.48.38 1.37.93 1.6.1.04.17.05.23.01.25-.14.21-.87.19-1.3-.03-.6-.14-.72-.57-.99a.435.435 0 0 0-.23-.07Z"/><path fill="#5A3523" d="M19.22 58.26c-.29 0-1.31-.41-1.65-1.38-.34-.98.01-1.5.25-1.71.19-.17.43-.25.67-.21.19.03.46.15.66.54.07.15.14.27.21.4.25.46.43.79.39 1.37-.04.65-.21.98-.52 1 0-.01 0-.01-.01-.01Zm-.84-3.25c-.18 0-.37.07-.51.2-.23.21-.57.71-.24 1.66.33.94 1.34 1.34 1.58 1.34h.01c.27-.01.42-.33.46-.94.03-.57-.14-.89-.39-1.34-.07-.12-.14-.25-.21-.4-.19-.37-.43-.48-.61-.51-.02-.01-.05-.01-.09-.01Z"/><path fill="#5A3523" d="M19.38 58.5c-.17 0-.35-.03-.54-.1-.37-.14-1.06-.52-1.53-1.59-.39-.86-.3-1.46.29-2.07.09-.09.28-.15.54-.16.28-.01.7.04.93.23.73.61 1.1 1.71 1.17 2.27.08.72.02 1.18-.55 1.37-.1.03-.2.05-.31.05Zm-1.17-3.87h-.08c-.23.01-.41.06-.49.14-.57.59-.65 1.17-.28 2.01.47 1.04 1.14 1.42 1.5 1.56.29.11.58.13.79.06.54-.18.59-.61.51-1.32-.06-.55-.43-1.63-1.15-2.23-.19-.16-.53-.22-.8-.22Z"/><path fill="#5A3523" d="M19.41 58.93c-.14 0-.29-.02-.44-.05-.71-.17-1.36-.75-1.72-1.53-.8-1.72-.52-2.39.23-2.96.44-.33.95-.34 1.48-.02.47.29 1.3.88 1.58 1.56.07.17.29.77.3 1.41.01.64-.19 1.1-.6 1.36-.24.16-.53.23-.83.23Zm-1.2-4.74c-.24 0-.47.08-.68.24-.96.73-.81 1.61-.21 2.89.36.77.98 1.33 1.68 1.5.43.11.86.05 1.21-.17.86-.54.58-1.95.28-2.71-.27-.67-1.09-1.25-1.56-1.53-.25-.14-.49-.22-.72-.22ZM52.23 57.13c.04 0 .08-.01.12-.03.38-.18.68-.8.63-1.16-.03-.21-.13-.48-.32-.54-.06-.02-.16-.03-.28.05-.29.19-.37.29-.39.72-.02.45-.03.85.15.95.03 0 .06.01.09.01Zm.34-1.7c.02 0 .04 0 .06.01.13.05.25.25.28.5.04.33-.25.94-.6 1.11-.06.03-.1.03-.13.01-.16-.09-.14-.6-.12-.9.02-.41.09-.5.37-.68.05-.03.09-.05.14-.05Z"/><path fill="#5A3523" d="M52.14 57.64c.05 0 .11-.01.17-.04.58-.25 1.04-1.15.96-1.66-.04-.29-.19-.67-.47-.77-.13-.05-.27-.03-.42.06-.44.28-.56.41-.59 1.03-.03.48-.07 1.2.22 1.35.04.02.08.03.13.03Zm.53-2.45c.04 0 .08.01.12.02.24.09.39.43.43.73.07.48-.38 1.37-.93 1.6-.1.04-.17.05-.23.01-.25-.14-.21-.87-.19-1.3.03-.6.14-.72.57-.99.07-.04.15-.07.23-.07Z"/><path fill="#5A3523" d="M51.71 58.1c.29 0 1.31-.41 1.65-1.38.34-.98-.01-1.5-.25-1.71a.803.803 0 0 0-.67-.21c-.19.03-.46.15-.66.54-.07.15-.14.27-.21.4-.25.46-.43.79-.39 1.37.04.65.21.98.52 1 0-.01.01-.01.01-.01Zm.84-3.26c.18 0 .37.07.51.2.23.21.57.71.24 1.66-.33.94-1.34 1.34-1.58 1.34h-.01c-.27-.01-.42-.33-.46-.94-.03-.57.14-.89.39-1.34.07-.12.14-.25.21-.4.19-.37.43-.48.61-.51.02-.01.06-.01.09-.01Z"/><path fill="#5A3523" d="M51.56 58.33c.17 0 .35-.03.54-.1.37-.14 1.06-.52 1.53-1.59.39-.86.3-1.46-.29-2.07-.09-.09-.28-.15-.54-.16-.28-.01-.7.04-.93.23-.73.61-1.1 1.71-1.17 2.27-.08.72-.02 1.18.55 1.37.1.04.2.05.31.05Zm1.16-3.86h.08c.23.01.41.06.49.14.57.59.65 1.17.28 2.01-.47 1.04-1.14 1.42-1.5 1.56-.29.11-.58.13-.79.06-.54-.18-.59-.61-.51-1.32.06-.55.43-1.63 1.15-2.23.2-.17.54-.22.8-.22Z"/><path fill="#5A3523" d="M51.52 58.77c.14 0 .29-.02.44-.05.71-.17 1.36-.75 1.72-1.53.8-1.72.52-2.39-.23-2.96-.44-.33-.95-.34-1.48-.02-.47.29-1.3.88-1.58 1.56-.07.17-.29.77-.3 1.41-.01.64.19 1.1.6 1.36.24.15.53.23.83.23Zm1.2-4.75c.24 0 .47.08.68.24.96.73.81 1.61.21 2.89-.36.77-.98 1.33-1.68 1.5-.43.11-.86.05-1.21-.17-.86-.54-.58-1.95-.28-2.71.27-.67 1.09-1.25 1.56-1.53.25-.14.49-.22.72-.22Z"/></g><defs><clipPath id="a"><path fill="#fff" d="M0 0h72.03v72H0z"/></clipPath></defs></svg>
