<svg xmlns="http://www.w3.org/2000/svg" viewBox="0 0 24 24">
  <path d="M12 12.94l1.47-1.47a.75.75 0 011.06 1.06L13.06 14l1.47 1.47a.75.75 0 01-1.06 1.06L12 15.06l-1.47 1.47a.75.75 0 01-1.06-1.06L10.94 14l-1.47-1.47a.75.75 0 011.06-1.06L12 12.94zm8.707-4.19a.747.747 0 01.041.304l-.6 8.254c-.152 1.945-1.89 3.442-3.948 3.442H7.8c-2.058 0-3.796-1.497-3.948-3.446l-.6-8.25a.747.747 0 01.04-.304H3A.75.75 0 012.25 8V4A.75.75 0 013 3.25h18a.75.75 0 01.75.75v4a.75.75 0 01-.75.75h-.293zm-1.414 0H4.707a.75.75 0 01.041.196l.6 8.246c.089 1.14 1.155 2.058 2.452 2.058h8.4c1.297 0 2.363-.918 2.452-2.054l.6-8.25a.75.75 0 01.04-.196zM3.75 7.25h16.5v-2.5H3.75v2.5z" fill-rule="nonzero"/>
</svg>
