<svg xmlns="http://www.w3.org/2000/svg" viewBox="0 0 24 24">
  <g fill-rule="nonzero">
    <path d="M9.2 5.496v-.75a.75.75 0 00-.671.415l.67.335zm6 0l.67-.335a.75.75 0 00-.67-.415v.75zm-7 2v.75a.75.75 0 00.67-.415l-.67-.335zm8 0l-.671.335a.75.75 0 00.67.415v-.75zm-7-1.25h6v-1.5h-6v1.5zM8.87 7.83l1-2-1.341-.67-1 2 1.342.67zm-3.67.415h3v-1.5h-3v1.5zm-.25.25a.25.25 0 01.25-.25v-1.5a1.75 1.75 0 00-1.75 1.75h1.5zm0 9v-9h-1.5v9h1.5zm.25.25a.25.25 0 01-.25-.25h-1.5c0 .966.784 1.75 1.75 1.75v-1.5zm14 0h-14v1.5h14v-1.5zm.25-.25a.25.25 0 01-.25.25v1.5a1.75 1.75 0 001.75-1.75h-1.5zm0-9v9h1.5v-9h-1.5zm-.25-.25a.25.25 0 01.25.25h1.5a1.75 1.75 0 00-1.75-1.75v1.5zm-3 0h3v-1.5h-3v1.5zM14.529 5.83l1 2 1.342-.67-1-2-1.342.67zM12.2 16.246a3.75 3.75 0 110-7.5 3.75 3.75 0 010 7.5zm0-1.5a2.25 2.25 0 100-4.5 2.25 2.25 0 000 4.5z"/>
  </g>
</svg>
