<svg xmlns="http://www.w3.org/2000/svg" viewBox="0 0 16 16">
  <path d="M5.375 2.313l-.671-.336.207-.415h.464v.75zm5.25 0v-.75h.464l.207.415-.671.335zM4.5 4.063l.671.335-.207.415H4.5v-.75zm7 0v.75h-.464l-.207-.415.671-.335zm-6.125-1v-1.5h5.25v1.5h-5.25zm-.204 1.334l-1.342-.67.875-1.75 1.342.67-.875 1.75zM2 4.813v-1.5h2.5v1.5H2zm-.25.25H.25c0-.966.784-1.75 1.75-1.75v1.5a.25.25 0 00-.25.25zm0 7.625H.25V5.064h1.5v7.625zm.25.25v1.5a1.75 1.75 0 01-1.75-1.75h1.5c0 .139.112.25.25.25zm12 0v1.5H2v-1.5h12zm.25-.25h1.5a1.75 1.75 0 01-1.75 1.75v-1.5a.25.25 0 00.25-.25zm0-7.624h1.5v7.625h-1.5V5.061zm-.25-.25v-1.5c.966 0 1.75.783 1.75 1.75h-1.5a.25.25 0 00-.25-.25zm-2.5 0v-1.5H14v1.5h-2.5zM9.954 2.647l1.342-.67.875 1.75-1.342.67-.875-1.75zM8 11.811a3.375 3.375 0 110-6.749 3.375 3.375 0 010 6.75zm0-1.5a1.875 1.875 0 100-3.749 1.875 1.875 0 000 3.75z" fill-rule="nonzero"/>
</svg>
