<?xml version="1.0" encoding="UTF-8"?>
<svg width="12px" height="13px" viewBox="0 0 12 13" version="1.1" xmlns="http://www.w3.org/2000/svg" xmlns:xlink="http://www.w3.org/1999/xlink">
    <!-- Generator: Sketch 52.4 (67378) - http://www.bohemiancoding.com/sketch -->
    <title>Combined Shape</title>
    <desc>Created with Sketch.</desc>
    <g id="Page-1" stroke="none" stroke-width="1" fill="none" fill-rule="evenodd">
        <path d="M4.51430222,5.51429479 L1.49999744,2.50000422 L2.20710256,1.79289578 L10.6923926,10.2781458 L9.98528744,10.9852542 L7.44583049,8.44580924 L4.81988,11.0513 L4.74109,11.1294 L4.63662,11.1669 L1.250816,12.3821 L0.923238,12.4997 L0.699238,12.2333 L0.682048,12.2129 L0.5,11.9964 L0.5917743,11.7288 L1.76161,8.31837 L1.7995,8.20792 L1.8824,8.12567 L3.30452,6.71464 L4.01441,7.419 L2.66963,8.75329 L1.86492,11.0993 L4.19434,10.26322 L5.5298,8.93817 L6.20993,9.613 L6.9198,8.90867 L6.23967,8.23384 L6.73871221,7.7386943 L5.22141619,6.22140543 L4.72428,6.71466 L4.01439,6.01031 L4.51430222,5.51429479 Z M10.1846,2.81383 C9.76287,2.39539 9.07751,2.39539 8.65578,2.81383 L6.22821,5.22247 L5.51832,4.51811 L7.95145,2.10396 C8.76306,1.298681 10.07732,1.298681 10.8889,2.10396 C11.7027,2.91139 11.7027,4.22213 10.8889,5.02956 L8.4535,7.446 L7.7436,6.74164 L10.1846,4.31969 C10.6042,3.90341 10.6042,3.23011 10.1846,2.81383 Z" id="Combined-Shape" fill="#B3B3B3" fill-rule="nonzero"></path>
    </g>
</svg>