<svg xmlns="http://www.w3.org/2000/svg" viewBox="0 0 24 24">
  <path d="M19.681 4.299a2.122 2.122 0 00-2.988 0l-5.037 5.009-1.06-1.06 5.04-5.012a3.62 3.62 0 015.103 0 3.584 3.584 0 010 5.087l-5.048 5.02-1.06-1.06 5.05-5.023a2.084 2.084 0 000-2.961zM11.263 15.63l1.061 1.06-2.58 2.568-.12.117-.156.057-6.135 2.207-.492.177-.336-.401-.031-.037-.272-.324.137-.401 2.12-6.194.056-.165.124-.124 2.591-2.576 1.06 1.06-2.469 2.457-1.577 4.606 4.56-1.64 2.46-2.447zM3.211 4.968l1.06-1.06 16 16-1.06 1.06-16-16z" fill-rule="evenodd"/>
</svg>
