
<svg xmlns="http://www.w3.org/2000/svg" viewBox="0 0 24 24">
  <path d="M1.218.568l1.422.938c.8.531 1.599 1.068 2.368 1.592l1.149.788 1.137.796.748.536.655.481.382.29.338.264.291.237.245.21.086.078-.256.12c3.684-1.8 8.244-1.188 11.243 1.596 3.785 3.513 3.785 9.23 0 12.742-3.755 3.485-9.822 3.485-13.577 0-1.432-1.328-2.704-3.574-2.704-5.574a.7.7 0 011.4 0c0 1.548 1.083 3.46 2.256 4.548 3.218 2.987 8.454 2.987 11.672 0 3.188-2.959 3.188-7.731 0-10.69-2.39-2.218-5.961-2.83-9-1.659 1.609 1.935 2.12 4.028.594 5.444a5.442 5.442 0 01-.692.55.62.62 0 01-.073.12l-.077.084c-.532.493-.678 2.068.059 2.942.115.137.234.26.356.37l.045.038c.87.763 1.874.836 2.795.18.7-.504.558-1.279-.108-2.211l-.421-.586-.042-.06a5.28 5.28 0 01-.567-1.032c-.256-.656-.265-1.274.094-1.802.922-1.355 2.677-1.953 4.241-.93l.723-.67a.7.7 0 011.03.943l-.078.083-.66.613c.65.922.565 1.899-.007 2.739-.163.24-.328.414-.454.523a.7.7 0 01-.992-.982l.146-.147c.04-.045.091-.107.143-.182.328-.482.322-.924-.283-1.485-.962-.893-2.059-.589-2.652.283-.054.08-.051.236.053.504.086.219.227.468.422.756l.44.614c1.064 1.489 1.35 3.044-.213 4.167-1.305.93-2.786.925-4.038.11l-.504.468a.7.7 0 01-1.029-.942l.077-.084.409-.38-.123-.156c-.688-.93-.843-2.188-.603-3.228l-.1.015-.164.016-.156.009h-.153a2.14 2.14 0 01-.077-.005l-.156-.018a2.364 2.364 0 01-.163-.03l-.174-.045-.19-.06-.102-.036-.221-.086-.247-.106-.428-.197-.7-.342-2.018-1.024-.3-.16-.56-.308-.904-.511-1.29-.746a.7.7 0 01.709-1.208l.895.52 1.035.59.822.454 1.552.795.936.469.562.267.333.145.19.074.085.03.158.049.142.034.131.022c.042.005.083.008.124.01h.121l.123-.008.197-.024.145-.022c.484-.074.96-.322 1.474-.799.971-.901.224-2.756-1.61-4.458l-.2-.178-.25-.207-.3-.237-.344-.264-.6-.445-.696-.502-.785-.554-.956-.663C4.232 4.26 3.45 3.73 2.659 3.2L.453 1.742A.7.7 0 111.218.567zm9.55-.033l.04.096 1.043 3.174a.7.7 0 01-1.29.534l-.04-.096-1.044-3.174a.7.7 0 011.29-.534z"/>
</svg>
