
<svg xmlns="http://www.w3.org/2000/svg" viewBox="0 0 24 24">
  <path d="M22.662 21.35a.65.65 0 01.096 1.293l-.096.007H1.338a.65.65 0 01-.096-1.293l.096-.007h21.324zm-7.013-20a.65.65 0 01.096 1.293l-.096.007-3-.001.001 2.509a.65.65 0 01-.033.205c4.8.197 7.649 2.758 9.024 6.936.328.994.558 2.04.726 3.179.032.217.061.433.089.655l.078.695.1 1 .016.217c.012.85-.586 1.605-1.42 1.605H2.77c-.873 0-1.498-.828-1.412-1.73l.066-.72.083-.821c.035-.304.072-.595.114-.888.166-1.137.398-2.19.728-3.19 1.38-4.172 4.238-6.736 9.035-6.938a.605.605 0 01-.027-.11l-.007-.095V2.649L8.35 2.65a.65.65 0 01-.096-1.293l.096-.007h7.298zm-3.642 5.3c-4.566 0-7.15 2.207-8.423 6.059l-.131.408-.115.388-.101.377-.09.376-.078.385-.037.199-.068.417-.064.45-.06.493-.091.844-.097.996c-.018.19.072.308.118.308h18.46c.044 0 .137-.126.118-.318l-.144-1.41a28.678 28.678 0 00-.123-.955 17.635 17.635 0 00-.675-2.962c-1.268-3.854-3.838-6.055-8.4-6.055zm.128 3.202c1.263-.996 2.94-.514 3.293 1.435.092.503-.001 1.033-.241 1.582-.27.617-.72 1.249-1.3 1.887-.324.357-.67.694-1.015 1.002l-.227.199-.243.2a.65.65 0 01-.804 0l-.243-.2-.227-.2a13.723 13.723 0 01-1.015-1.001c-.58-.638-1.03-1.27-1.3-1.887-.24-.55-.333-1.079-.24-1.585.372-2.004 2.143-2.45 3.416-1.326l.01.009zm2.014 1.667c-.197-1.086-.971-1.165-1.606-.202a.65.65 0 01-1.085.002c-.635-.958-1.406-.88-1.607.2-.04.22.009.498.153.83.204.466.578.99 1.07 1.533.292.32.606.626.926.911.216-.192.425-.39.628-.596l.297-.315c.493-.543.867-1.067 1.07-1.534.145-.33.194-.61.154-.829z"/>
</svg>
