<?xml version="1.0" encoding="UTF-8"?>
<svg width="13px" height="13px" viewBox="0 0 13 13" version="1.1" xmlns="http://www.w3.org/2000/svg" xmlns:xlink="http://www.w3.org/1999/xlink">
    <!-- Generator: Sketch 52.4 (67378) - http://www.bohemiancoding.com/sketch -->
    <title>Combined Shape</title>
    <desc>Created with Sketch.</desc>
    <g id="Page-1" stroke="none" stroke-width="1" fill="none" fill-rule="evenodd">
        <path d="M10.92666,4.03012467 C11.3423979,3.61438682 11.3423979,2.94034931 10.92666,2.52461145 C10.5109076,2.10887263 9.8368556,2.10887263 9.42111678,2.52461145 L3.49014601,8.45558222 L2.69358452,10.7960748 L4.99211993,9.96464501 L10.92666,4.03012467 Z M1.90621917,11.5937538 L1.92467083,11.6000336 L2.29607628,11.2899829 L2.27904628,11.2695829 L1.90262593,11.58382 L1.90621917,11.5937538 Z M11.6337662,4.73723204 L5.62047619,10.750502 L5.4369995,10.8671333 L1.75290338,12.1997502 L1.33137974,11.6948129 L2.61846077,7.9130539 L8.71401,1.81750467 C9.52027118,1.01124349 10.8274792,1.01124349 11.633761,1.81749888 C12.4400289,2.62376682 12.4400289,3.93096931 11.6337662,4.73723204 Z M8.59610339,11.8324081 C8.14294339,11.8324081 7.77558339,11.4650081 7.77558339,11.0118081 C7.77558339,10.5586781 8.14294339,10.1913281 8.59610339,10.1913281 C9.04926339,10.1913281 9.41662339,10.5586781 9.41662339,11.0118081 C9.41662339,11.4650081 9.04926339,11.8324081 8.59610339,11.8324081 Z M11.7414134,11.8324081 C11.2882134,11.8324081 10.9208134,11.4650081 10.9208134,11.0118081 C10.9208134,10.5586781 11.2882134,10.1913281 11.7414134,10.1913281 C12.1945134,10.1913281 12.5619134,10.5586781 12.5619134,11.0118081 C12.5619134,11.4650081 12.1945134,11.8324081 11.7414134,11.8324081 Z" id="Combined-Shape" fill="#0D6763" fill-rule="nonzero"></path>
    </g>
</svg>