<svg xmlns="http://www.w3.org/2000/svg" viewBox="0 0 32 32">
  <path d="M6.25 6.75a.75.75 0 00-.75.75v17c0 .414.336.75.75.75h13a.75.75 0 00.75-.75v-17a.75.75 0 00-.75-.75h-13zm0-1.5h13A2.25 2.25 0 0121.5 7.5v17a2.25 2.25 0 01-2.25 2.25h-13A2.25 2.25 0 014 24.5v-17a2.25 2.25 0 012.25-2.25zm16 3.5v-1.5h1c.966 0 1.75.784 1.75 1.75v14a1.75 1.75 0 01-1.75 1.75h-1v-1.5h1a.25.25 0 00.25-.25V9a.25.25 0 00-.25-.25h-1zm3.5 2v-1.5h1c.69 0 1.25.56 1.25 1.25v11c0 .69-.56 1.25-1.25 1.25h-1v-1.5h.75v-10.5h-.75zM12 19v-2.25H9.75a.5.5 0 01-.5-.5v-.5a.5.5 0 01.5-.5H12V13a.5.5 0 01.5-.5h.5a.5.5 0 01.5.5v2.25h2.25a.5.5 0 01.5.5v.5a.5.5 0 01-.5.5H13.5V19a.5.5 0 01-.5.5h-.5a.5.5 0 01-.5-.5z" fill-rule="nonzero"/>
</svg>
