<svg xmlns="http://www.w3.org/2000/svg" viewBox="0 0 32 32">
  <path d="M6.25 5.25h13A2.25 2.25 0 0121.5 7.5v17a2.25 2.25 0 01-2.25 2.25h-13A2.25 2.25 0 014 24.5v-17a2.25 2.25 0 012.25-2.25zM12 19a.5.5 0 00.5.5h.5a.5.5 0 00.5-.5v-2.25h2.25a.5.5 0 00.5-.5v-.5a.5.5 0 00-.5-.5H13.5V13a.5.5 0 00-.5-.5h-.5a.5.5 0 00-.5.5v2.25H9.75a.5.5 0 00-.5.5v.5a.5.5 0 00.5.5H12V19zM22.25 8.75v-1.5h1c.966 0 1.75.784 1.75 1.75v14a1.75 1.75 0 01-1.75 1.75h-1v-1.5h1a.25.25 0 00.25-.25V9a.25.25 0 00-.25-.25h-1zm3.5 2v-1.5h1c.69 0 1.25.56 1.25 1.25v11c0 .69-.56 1.25-1.25 1.25h-1v-1.5h.75v-10.5h-.75z" fill-rule="evenodd"/>
</svg>
