<svg xmlns="http://www.w3.org/2000/svg" viewBox="0 0 16 16">
  <path d="M8.855 14a.5.5 0 01-.485-.62l.553-2.24a.5.5 0 00-.485-.62H5.86a.5.5 0 00-.485.38l-.672 2.72a.5.5 0 01-.486.38h-.07a.5.5 0 01-.487-.619l.548-2.242a.5.5 0 00-.486-.619H2.463a.46.46 0 110-.921h1.741a.5.5 0 00.486-.383l.55-2.281a.5.5 0 00-.487-.617H3.378a.457.457 0 010-.913h1.84a.5.5 0 00.485-.378l.67-2.649A.5.5 0 016.856 2h.073a.5.5 0 01.486.618l-.528 2.168a.5.5 0 00.486.619h2.562a.5.5 0 00.485-.378l.67-2.649A.5.5 0 0111.574 2h.08a.5.5 0 01.485.621l-.54 2.163a.5.5 0 00.486.621h1.455a.456.456 0 110 .913h-1.933a.5.5 0 00-.485.382l-.556 2.28a.5.5 0 00.485.619h1.555a.461.461 0 110 .921h-2.02a.5.5 0 00-.485.38l-.672 2.72a.5.5 0 01-.485.38h-.09zM5.846 8.998a.5.5 0 00.486.617h2.59a.5.5 0 00.485-.384l.551-2.305a.5.5 0 00-.486-.616H6.89a.5.5 0 00-.486.382l-.558 2.306z" fill-rule="evenodd"/>
</svg>
