<svg viewBox="0 0 24 24" xmlns="http://www.w3.org/2000/svg"><path d="M12.966 21a.5.5 0 01-.486-.62l.984-3.98a.5.5 0 00-.486-.62H8.595a.5.5 0 00-.485.38l-1.102 4.46a.5.5 0 01-.485.38H5.9a.5.5 0 01-.485-.619l.972-3.982a.5.5 0 00-.486-.618H3.454a.5.5 0 01-.487-.616l.092-.383a.5.5 0 01.486-.384h2.96a.5.5 0 00.486-.383l.944-3.92a.5.5 0 00-.486-.617H4.835a.5.5 0 01-.487-.618l.09-.37a.5.5 0 01.486-.383h3.1a.5.5 0 00.485-.377l1.099-4.352A.5.5 0 0110.093 3h.623a.5.5 0 01.486.618l-.943 3.87a.5.5 0 00.485.62h4.358a.5.5 0 00.485-.378l1.098-4.352A.5.5 0 0117.17 3h.635a.5.5 0 01.485.621l-.964 3.865a.5.5 0 00.485.621h2.735a.5.5 0 01.488.612l-.085.37a.5.5 0 01-.488.389h-3.243a.5.5 0 00-.485.381l-.956 3.92a.5.5 0 00.486.619h2.89a.5.5 0 01.488.61l-.088.384a.5.5 0 01-.487.389h-3.378a.5.5 0 00-.486.38l-1.101 4.459a.5.5 0 01-.486.38h-.65zm-4.27-7.195a.5.5 0 00.487.618h4.398a.5.5 0 00.486-.384l.946-3.958a.5.5 0 00-.487-.616H10.14a.5.5 0 00-.486.382l-.957 3.958z" fill-rule="evenodd"/></svg>
