<svg xmlns="http://www.w3.org/2000/svg" viewBox="0 0 24 24">
  <path d="M12 21.75A9.75 9.75 0 012.25 12 9.75 9.75 0 0112 2.25 9.75 9.75 0 0121.75 12 9.75 9.75 0 0112 21.75zm0-1.5A8.25 8.25 0 0020.25 12 8.25 8.25 0 0012 3.75 8.25 8.25 0 003.75 12 8.25 8.25 0 0012 20.25zm.75-5.902a.75.75 0 11-1.5 0v-.626c0-1.102.583-2.126 1.545-2.682.785-.46 1.044-1.413.593-2.182-.461-.787-1.413-1.045-2.17-.601-.511.312-.816.828-.816 1.395a.75.75 0 11-1.5 0c0-1.103.587-2.096 1.545-2.682 1.49-.873 3.358-.366 4.235 1.129.873 1.49.366 3.36-1.133 4.237-.499.289-.799.816-.799 1.386v.626zM12 17.565A.783.783 0 1112 16a.783.783 0 010 1.565z" fill-rule="nonzero"/>
</svg>
