<svg xmlns="http://www.w3.org/2000/svg" viewBox="0 0 24 24">
  <path d="M11.25 8a.75.75 0 111.5 0v5.02a.75.75 0 01-.337.626l-3 1.98a.75.75 0 01-.826-1.252l2.663-1.758V8zm-7.5-1.346C6.106 3.59 8.305 2.25 12 2.25c5.384 0 9.75 4.366 9.75 9.75s-4.366 9.75-9.75 9.75a9.715 9.715 0 01-6.844-2.808 9.746 9.746 0 01-2.047-2.936.75.75 0 111.368-.616 8.247 8.247 0 001.732 2.484A8.25 8.25 0 1012 3.75c-3.387 0-5.258 1.283-7.567 4.5H8a.75.75 0 010 1.5H3A.75.75 0 012.25 9V4a.75.75 0 011.5 0v2.654z" fill-rule="nonzero"/>
</svg>
