<svg xmlns="http://www.w3.org/2000/svg" viewBox="0 0 24 24">
  <path d="M20.014 20.75a.75.75 0 01-.026 0H4.013a.75.75 0 01-.027 0H2a.75.75 0 01-.75-.75V4A.75.75 0 012 3.25h20a.75.75 0 01.75.75v16a.75.75 0 01-.75.75h-1.986zm.41-1.5h.826V4.75H2.75v14.5h.822l5.682-9.631a.75.75 0 011.293 0l3.187 5.425 1.672-2.169a.75.75 0 011.237.072l3.782 6.303zm-1.749 0l-2.752-4.588-1.679 2.177a.75.75 0 01-1.24-.078l-3.105-5.283-4.586 7.772h13.362zm-1.175-8.5a2.25 2.25 0 11.001-4.501 2.25 2.25 0 01-.001 4.5zm0-1.5a.75.75 0 10-.001-1.501.75.75 0 00.001 1.5z" fill-rule="nonzero"/>
</svg>
