<svg xmlns="http://www.w3.org/2000/svg" viewBox="0 0 24 24">
  <path d="M8.221 10.685l-5.596-3.23.75-1.299 5.597 3.23A3.99 3.99 0 0112 8c1.226 0 2.322.551 3.056 1.42l5.576-3.139.736 1.308-5.575 3.137a4.001 4.001 0 01-3.083 5.21l-.062 6.072-1.5-.016.062-6.07a4.001 4.001 0 01-2.989-5.237zM11.898 2l-.356-.66a.75.75 0 01.713.001L11.899 2zM3 6.805h-.75a.75.75 0 01.394-.66l.356.66zm18 .13l.358-.659a.75.75 0 01.392.659H21zm-18 9.87l-.378.648a.75.75 0 01-.372-.648H3zM11.898 22l.357.659a.75.75 0 01-.735-.011l.378-.648zM21 17.065h.75a.75.75 0 01-.392.659L21 17.065zM11.542 1.34l.712 1.32-8.898 4.805-.712-1.32 8.898-4.805zm9.816 4.936l-.716 1.318-9.101-4.935.714-1.318 9.103 4.935zM2.25 6.805h1.5v10h-1.5v-10zm.372 10.648l.756-1.295 8.898 5.194-.756 1.296-8.898-5.195zm9.633 5.206l-.715-1.318 9.102-4.935.716 1.318-9.103 4.935zm9.495-5.594h-1.5V6.935h1.5v10.13zM12 14.5a2.5 2.5 0 100-5 2.5 2.5 0 000 5z"  fill-rule="nonzero"/>
</svg>
