<svg xmlns="http://www.w3.org/2000/svg" viewBox="0 0 24 24">
  <path d="M1.517 17.635a.582.582 0 01-.37-1.029c.581-.475 1.742-1.228 2.138-1.44a.583.583 0 01.78.278.58.58 0 01-.252.766c-.304.145-1.399.858-1.914 1.28a.574.574 0 01-.382.145zm9.805-9.884v.125a.71.71 0 01-.705-.706c0-.213.086-.406.24-.529a14.812 14.812 0 001.808-1.878c.32-.403.55-.746.674-.968.51-.883 1.335-1.348 2.196-1.236a.716.716 0 01.61.8.705.705 0 01-.788.61c-.314-.044-.574.18-.786.531-.16.277-.41.651-.768 1.104a16.111 16.111 0 01-1.996 2.09.668.668 0 01-.485.182V7.75zm11.126 4.51c-.551.933-1.59 2.412-2.25 3.074-2.174 2.157-3.396 3.055-6.107 4.287a4.016 4.016 0 00-1.74 1.534c-.365.614-.534.912-.537.885l.001.014c-.01.058-.01.058-.019.074 0 .004 0 .004-.006.019a.843.843 0 01-1.13.403c-.425-.198-.594-.73-.385-1.165.119-.211.294-.516.621-1.07.444-.764 1.13-1.297 2.386-1.948 3.38-1.757 4.732-2.67 6.18-4.288.734-.817 2.044-2.62 2.164-3.053.083-.283.028-.456-.144-.489-.14-.03-.299.05-.425.24-.626.9-1.372 1.77-2.509 2.933-.318.318-.7.369-.952.135a.563.563 0 01-.018-.838c1.885-1.943 3.04-3.614 3.975-5.549.272-.568.27-1.033.043-1.123-.197-.075-.39.028-.502.264-.654 1.454-2.503 3.975-4.094 5.492-.322.288-.644.351-.92.106l.083-.093-.086.09c-.264-.248-.246-.603.009-.94 1.734-1.857 3.273-3.962 4.003-5.498.3-.64.543-1.324.623-1.739.074-.38-.055-.631-.284-.685-.164-.033-.365.103-.465.381-.014.04-.135.394-.183.526a8.954 8.954 0 01-.336.792c-.962 2.03-2.35 4.018-4.294 5.676-.317.276-.658.24-.886-.01-.22-.24-.196-.634.113-.916 2.171-1.96 3.77-4.357 4.228-5.855.094-.313.01-.51-.133-.546a.518.518 0 00-.623.288c-.555 1.3-1.092 2.173-2.344 3.57-1.226 1.388-3.312 3.12-4.96 4.231-.675.445-1.212.554-1.703.268-.546-.32-.657-.902-.548-1.582.208-1.175.506-2.957.7-4.233.094-.63-.092-.834-.471-.873-.208-.023-.393.114-.53.463a49.107 49.107 0 00-.708 1.965 41.738 41.738 0 00-1.003 3.377c-.384 1.55-.396 3.514-.117 4.747.12.578.114.898.01 1.21-.039.13-.106.291-.22.532-.065.14-.358.745-.38.791-.08.174-.2.413-.454.919l-.003.005c-.24.478-.308.613-.41.811.01-.012.01-.012.007-.01-.009.02-.009.02-.016.026a.848.848 0 01-1.146.338.865.865 0 01-.358-1.095 9.13 9.13 0 01.501-.984c.104-.181.218-.37.351-.587.085-.137.527-.84.637-1.022.06-.09.081-.2.06-.307-.362-2.223-.318-4.23.108-5.987A26.859 26.859 0 015.96 6.707c.044-.114.426-1.08.505-1.296.5-1.374 1.4-1.88 2.416-1.744 1.03.131 1.672.941 1.547 2.248-.032.34-.124 1.007-.27 1.988l-.025.162c.007-.046-.282 1.852-.3 1.998-.01.068.005.091.044.102.056.014.141-.004.213-.052 1.422-.931 3.144-2.366 4.305-3.687 1.186-1.307 1.738-2.148 2.235-3.204.43-.907 1.024-1.249 1.847-1.232a1.2 1.2 0 01.86.406c.44-.308.94-.42 1.47-.311.843.184 1.433 1.162 1.219 2.14-.047.23-.114.516-.17.7.966.205 1.35 1.039 1.16 2.004-.117.596-.42 1.323-.98 2.28.947.29 1.21 1.69.41 3.051zm-3.893 6.773c.12-.014.172.079.211.145.198.369.884 2.058.99 2.428.053.185-.026.29-.145.343-.172.079-.422.119-.845.145-.422.027-.686.027-.857-.026-.132-.04-.212-.132-.185-.317.053-.37.501-2.138.646-2.534.027-.08.066-.171.185-.184zm1.017-.82c.052-.117.171-.104.237-.091.422.026 2.217.317 2.587.422.184.053.237.172.224.304-.026.17-.119.409-.317.792-.184.369-.33.593-.462.712-.105.093-.224.106-.369-.013-.304-.251-1.57-1.544-1.834-1.874-.053-.066-.119-.145-.066-.251zM5.014 5.309c.026.119-.066.172-.158.238-.344.237-1.954 1.095-2.31 1.24-.185.066-.29.013-.356-.105-.093-.16-.145-.41-.224-.832-.08-.422-.093-.686-.066-.858.026-.132.105-.224.303-.211.396.014 2.191.264 2.6.37.08.013.185.039.211.158zm.62-1.094c-.093.079-.185.026-.277-.014-.383-.171-1.953-1.108-2.257-1.332-.145-.12-.158-.238-.092-.357.08-.158.264-.343.58-.62.317-.277.528-.435.7-.501.132-.053.251-.027.343.145.185.343.897 2.019 1.03 2.415.026.079.065.184-.027.264z" fill-rule="evenodd"/>
</svg>
