<svg xmlns="http://www.w3.org/2000/svg" viewBox="0 0 16 16">
  <path d="M7.554 4.955a.426.426 0 01-.423-.422c0-.125.048-.24.144-.317 1.2-1.055 1.728-1.92 1.824-2.092.355-.614.921-.931 1.507-.854a.43.43 0 01.364.48.42.42 0 01-.47.364c-.345-.048-.576.288-.662.432-.106.183-.7 1.162-1.996 2.304a.4.4 0 01-.288.105zM.422 12.144A.426.426 0 010 11.72c0-.124.058-.25.154-.326a13.931 13.931 0 011.554-1.046.422.422 0 01.567.202.42.42 0 01-.183.556c-.22.106-1.017.624-1.391.93a.42.42 0 01-.279.107zm10.653-4.022c-.164-.154-.135-.365.01-.557 1.237-1.324 2.38-2.87 2.926-4.021.23-.49.403-.988.461-1.286.067-.345-.077-.557-.278-.605-.144-.028-.346.068-.442.336-.077.212-.153.49-.374.95-.442.93-1.401 2.649-3.1 4.099-.22.192-.413.115-.518 0-.106-.116-.135-.346.077-.538 1.88-1.7 2.86-3.513 3.1-4.3.095-.316-.039-.48-.154-.508-.115-.04-.442-.04-.566.259-.279.653-.615 1.372-1.69 2.572C9.51 5.675 7.88 6.95 6.939 7.585c-.422.278-.796.393-1.142.192-.441-.26-.393-.816-.355-1.056.086-.49.336-1.94.509-3.081.096-.633-.24-.72-.423-.74-.172-.018-.355.078-.48.395-.124.316-.834 2.207-1.247 3.896-.317 1.277-.26 2.726-.087 3.494.096.46.068.662.01.834-.058.192-.211.49-.432.95-.125.269-.45.903-.614 1.239-.01.009-.01.019-.02.028a.525.525 0 01-.71.212.539.539 0 01-.22-.682c.259-.614.748-1.334 1.075-1.871a.387.387 0 00.057-.288c-.268-1.651-.22-3.091.077-4.32.422-1.755.931-2.84 1.171-3.502.413-1.132 1.161-1.276 1.66-1.21.605.078 1.142.538 1.046 1.536-.057.615-.393 2.707-.431 3.014-.03.2.182.22.326.125.835-.547 2.178-1.594 3.148-2.697C10.902 2.9 11.257 2.21 11.496 1.7c.337-.71.797-.854 1.258-.844.26.009.442.134.557.259a.091.091 0 00.125.019 1.25 1.25 0 01.998-.211c.527.115.969.749.815 1.449a8.082 8.082 0 01-.124.528c0 .039.019.077.057.086.749.154.893.816.787 1.354-.077.393-.278.91-.71 1.65-.01.01-.01.01-.01.02-.01.038.01.076.048.086.567.154.883 1.046.27 2.092-.222.375-1.037 1.632-1.623 2.217-1.295 1.286-2.198 2.092-4.415 3.1a3.037 3.037 0 00-1.305 1.152c-.422.71-.403.69-.403.7 0 .01-.01.02-.01.029a.522.522 0 01-.7.25c-.269-.125-.365-.461-.24-.72.038-.067.134-.24.451-.777.346-.595.921-.98 1.699-1.382 2.217-1.152 3.368-1.853 4.52-3.14.422-.47 1.488-1.87 1.593-2.254.067-.23.03-.432-.173-.47-.134-.03-.287.038-.403.21-.46.663-1.007 1.296-1.813 2.122-.212.21-.432.22-.567.096-.134-.125-.163-.327-.01-.48 1.555-1.603 2.342-2.89 2.909-4.06.21-.441.22-.844-.02-.94-.201-.077-.383.038-.48.24-.431.959-1.727 2.792-2.955 3.963-.183.163-.375.23-.547.077zm-7.658-5.74c-.067.059-.135.02-.202-.01-.278-.123-1.42-.805-1.64-.968-.106-.086-.116-.173-.068-.26.058-.114.192-.25.422-.45.23-.202.384-.317.509-.365.096-.038.182-.02.25.106.134.249.652 1.468.748 1.756.02.058.048.134-.02.192zm-.451.797c.019.087-.048.125-.115.173-.25.173-1.42.797-1.68.902-.134.048-.211.01-.26-.077C.846 4.062.807 3.88.75 3.573.69 3.266.682 3.073.7 2.949c.019-.096.076-.163.22-.154.288.01 1.594.192 1.891.269.058.01.134.029.154.115zm9.848 9.982c.086-.01.124.057.153.105.144.269.643 1.497.72 1.766.038.135-.02.21-.106.25-.124.057-.307.086-.614.105-.307.02-.499.02-.624-.02-.096-.028-.153-.095-.134-.23.038-.268.365-1.554.47-1.842.02-.057.048-.125.135-.134zm.739-.595c.038-.087.125-.077.173-.067.307.019 1.612.23 1.88.307.135.038.174.125.164.22-.02.125-.086.298-.23.576-.135.269-.24.432-.336.519-.077.067-.163.076-.269-.01-.22-.182-1.142-1.123-1.334-1.363-.038-.048-.086-.105-.048-.182z"  fill-rule="evenodd"/>
</svg>
