<svg xmlns="http://www.w3.org/2000/svg" viewBox="0 0 24 24">
  <path d="M13.496 1.896a7.701 7.701 0 016.168 6.82l.45 4.705c.015.14.05.397.108.73.098.556.226 1.111.388 1.623.402 1.274.92 1.976 1.39 1.976v1.5H2v-1.5c.47 0 .988-.702 1.39-1.976.162-.512.29-1.067.388-1.622.058-.334.093-.59.107-.723l.451-4.713a7.701 7.701 0 016.168-6.82 1.5 1.5 0 012.992 0zM13.75 20.5h1.5c0 1.56-1.487 2.75-3.25 2.75s-3.25-1.19-3.25-2.75h1.5c0 .649.751 1.25 1.75 1.25s1.75-.601 1.75-1.25z"  fill-rule="nonzero"/>
</svg>
