<svg xmlns="http://www.w3.org/2000/svg" viewBox="0 0 24 24">
  <path d="M2.25 1.25h13A2.25 2.25 0 0117.5 3.5v17a2.25 2.25 0 01-2.25 2.25h-13A2.25 2.25 0 010 20.5v-17a2.25 2.25 0 012.25-2.25zM8 15a.5.5 0 00.5.5H9a.5.5 0 00.5-.5v-2.25h2.25a.5.5 0 00.5-.5v-.5a.5.5 0 00-.5-.5H9.5V9a.5.5 0 00-.5-.5h-.5A.5.5 0 008 9v2.25H5.75a.5.5 0 00-.5.5v.5a.5.5 0 00.5.5H8V15zM18.25 4.75v-1.5h1c.966 0 1.75.784 1.75 1.75v14a1.75 1.75 0 01-1.75 1.75h-1v-1.5h1a.25.25 0 00.25-.25V5a.25.25 0 00-.25-.25h-1zm3.5 2v-1.5h1c.69 0 1.25.56 1.25 1.25v11c0 .69-.56 1.25-1.25 1.25h-1v-1.5h.75V6.75h-.75z" fill-rule="evenodd"/>
</svg>
