<svg xmlns="http://www.w3.org/2000/svg" viewBox="0 0 24 24">
  <path d="M2.5 2.75a.75.75 0 00-.75.75v17c0 .414.336.75.75.75h12.644a.75.75 0 00.75-.75v-17a.75.75 0 00-.75-.75H2.5zm0-1.5h12.644a2.25 2.25 0 012.25 2.25v17a2.25 2.25 0 01-2.25 2.25H2.5A2.25 2.25 0 01.25 20.5v-17A2.25 2.25 0 012.5 1.25zm15.611 3.5v-1.5h.956c.966 0 1.75.784 1.75 1.75v14a1.75 1.75 0 01-1.75 1.75h-.956v-1.5h.956a.25.25 0 00.25-.25V5a.25.25 0 00-.25-.25h-.956zm3.422 2v-1.5h.967c.69 0 1.25.56 1.25 1.25v11c0 .69-.56 1.25-1.25 1.25h-.967v-1.5h.717V6.75h-.717zM8.09 15v-2.25h-2.19a.5.5 0 01-.5-.5v-.5a.5.5 0 01.5-.5h2.19V9a.5.5 0 01.5-.5h.467a.5.5 0 01.5.5v2.25h2.188a.5.5 0 01.5.5v.5a.5.5 0 01-.5.5H9.556V15a.5.5 0 01-.5.5h-.467a.5.5 0 01-.5-.5z"  fill-rule="nonzero"/>
</svg>
