<svg xmlns="http://www.w3.org/2000/svg" viewBox="0 0 24 24">
  <path d="M13.496 2.396a7.701 7.701 0 016.168 6.82l.45 4.705c.015.14.05.397.108.73.098.556.226 1.111.388 1.623.402 1.274.92 1.976 1.39 1.976v1.5H2v-1.5c.47 0 .988-.702 1.39-1.976.162-.512.29-1.067.388-1.622.058-.334.093-.59.107-.723l.451-4.713a7.701 7.701 0 016.168-6.82 1.5 1.5 0 012.992 0zm5.684 14.33a14.252 14.252 0 01-.435-1.815c-.065-.37-.104-.66-.123-.84L18.17 9.36a6.199 6.199 0 00-12.342 0l-.452 4.72c-.018.172-.057.462-.122.832a14.252 14.252 0 01-.435 1.815 7.966 7.966 0 01-.638 1.524h15.636a7.966 7.966 0 01-.638-1.524zM13.75 21h1.5c0 1.56-1.487 2.75-3.25 2.75S8.75 22.56 8.75 21h1.5c0 .649.751 1.25 1.75 1.25s1.75-.601 1.75-1.25z" fill-rule="nonzero"/>
</svg>
