<svg xmlns="http://www.w3.org/2000/svg" viewBox="0 0 32 32">
  <path d="M14.503 6.029a1.5 1.5 0 012.994 0 7.321 7.321 0 015.793 6.503l.456 5.018c.014.141.047.399.103.733.093.557.215 1.113.37 1.626.379 1.265.87 1.966 1.281 1.966v1.5h-19v-1.5c.412 0 .902-.7 1.282-1.966.154-.513.276-1.069.369-1.626.056-.334.089-.592.102-.726l.457-5.025a7.321 7.321 0 015.793-6.503zm8.279 14.312a14.85 14.85 0 01-.412-1.811 13.59 13.59 0 01-.117-.837l-.457-5.025a5.82 5.82 0 00-11.592 0L9.746 17.7c-.017.171-.054.46-.116.83a14.85 14.85 0 01-.412 1.81 8.168 8.168 0 01-.611 1.535h14.786a8.168 8.168 0 01-.611-1.534zm-5.032 4.284h1.5c0 1.56-1.487 2.75-3.25 2.75s-3.25-1.19-3.25-2.75h1.5c0 .65.75 1.25 1.75 1.25s1.75-.6 1.75-1.25z" fill-rule="nonzero"/>
</svg>
