<svg xmlns="http://www.w3.org/2000/svg" viewBox="0 0 24 24">
  <defs>
    <linearGradient id="a" x1="0%" y1="13.477%" y2="102.756%">
      <stop offset="0%" stop-color="#F4E2BC"/>
      <stop offset="100%" stop-color="#BF9F5E"/>
    </linearGradient>
  </defs>
  <path class="star" fill="url(#a)" stroke="url(#a)" stroke-linecap="round" stroke-linejoin="round" stroke-width="1.3" d="M10.886 2.171c.456-.923 1.772-.923 2.228 0l2.437 4.936c.18.367.53.62.934.68l5.45.797c1.02.149 1.426 1.4.688 2.12l-3.942 3.839a1.242 1.242 0 00-.358 1.1l.93 5.423c.174 1.015-.891 1.789-1.803 1.31l-4.872-2.563a1.243 1.243 0 00-1.156 0L6.55 22.376c-.912.479-1.977-.295-1.803-1.31l.93-5.423a1.243 1.243 0 00-.358-1.1l-3.942-3.84c-.738-.718-.332-1.97.687-2.12l5.45-.796c.405-.06.754-.313.935-.68l2.437-4.936z"/>
</svg>
