<svg width="16" height="16" xmlns="http://www.w3.org/2000/svg"><path d="M11.54 9.868c.285 0 .486-.04.742-.144.234-.095.447-.233.626-.408.178-.173.32-.38.415-.605a1.818 1.818 0 00-.415-2.027 1.934 1.934 0 00-.626-.408 1.799 1.799 0 00-.743-.144c-.746 0-1.472.517-2.793 1.876 1.354 1.388 2.028 1.86 2.793 1.86zm-2.948-1.7l-.192.2c-1.832 1.913-2.684 2.564-3.94 2.564-.424 0-.76-.068-1.14-.222a2.999 2.999 0 01-.97-.632A2.902 2.902 0 011.467 8c0-.78.318-1.528.881-2.078.583-.568 1.266-.854 2.112-.854 1.255 0 2.092.644 3.924 2.565.126.132.246.257.361.375l-.154.16zm-.96-.536l.193-.202c1.635-1.703 2.526-2.362 3.714-2.362.425 0 .76.068 1.141.222.363.146.692.36.97.632.28.272.5.595.652.952a2.882 2.882 0 01-.651 3.204 2.998 2.998 0 01-.971.632c-.38.154-.716.222-1.14.222-1.256 0-2.093-.644-3.925-2.565-.12-.126-.236-.246-.347-.36.116-.118.237-.243.363-.375zm-3.171-1.5c-.564 0-.982.175-1.369.552-.36.35-.56.823-.56 1.316 0 .493.2.966.56 1.316.179.175.392.313.626.408.256.104.457.144.743.144.766 0 1.452-.478 2.807-1.861-1.363-1.4-2.04-1.875-2.807-1.875z" fill="#FFF" fill-rule="nonzero"/></svg>
