<svg xmlns="http://www.w3.org/2000/svg" viewBox="0 0 16 16">
  <path d="M.992 7.927l.993-.12.883 7.354-.993.119-.883-7.353zm2.997-.01l.513 5.69h6.415c1.298 0 2.409-.902 2.646-2.143l.4-2.085c.03-.157.045-.318.045-.48 0-1.448-1.203-2.626-2.692-2.626H7.042l.193-.644.451-1.5c.04-.154.06-.311.06-.469 0-.954-.71-1.75-1.646-1.91L3.99 7.917zm7.327-2.644c2.037 0 3.692 1.62 3.692 3.625 0 .227-.021.452-.064.67l-.399 2.084c-.328 1.716-1.854 2.955-3.628 2.955H3.588l-.605-6.706.025-.207L5.396.72h.357c1.65 0 2.992 1.314 2.992 2.94 0 .24-.03.48-.095.736l-.263.877h2.93z" fill-rule="nonzero"/>
</svg>
