<svg xmlns="http://www.w3.org/2000/svg" viewBox="0 0 24 24">
  <path d="M5 4h2a1 1 0 011 1v2a1 1 0 01-1 1H5a1 1 0 01-1-1V5a1 1 0 011-1zm0 6h2a1 1 0 011 1v2a1 1 0 01-1 1H5a1 1 0 01-1-1v-2a1 1 0 011-1zm0 6h2a1 1 0 011 1v2a1 1 0 01-1 1H5a1 1 0 01-1-1v-2a1 1 0 011-1zm5.6-12H19a1 1 0 011 1v2a1 1 0 01-1 1h-8.4a1 1 0 01-1-1V5a1 1 0 011-1zm0 6H19a1 1 0 011 1v2a1 1 0 01-1 1h-8.4a1 1 0 01-1-1v-2a1 1 0 011-1zm0 6H19a1 1 0 011 1v2a1 1 0 01-1 1h-8.4a1 1 0 01-1-1v-2a1 1 0 011-1z"  fill-rule="evenodd"/>
</svg>
