<svg xmlns="http://www.w3.org/2000/svg" viewBox="0 0 32 32">
  <path d="M15.796 11.019l-4.027 3.356a.625.625 0 01-.4.145H8.625v2.96h2.744c.146 0 .288.051.4.145l4.027 3.356V11.02zm-4.427 2.251h-.226l-.174.145.4-.145zm4.652-4.066a.625.625 0 011.025.48v12.632c0 .53-.618.82-1.025.48l-4.878-4.066H8a.625.625 0 01-.625-.625v-4.21c0-.345.28-.625.625-.625h3.143l4.878-4.066zm5.533 1.138l-.363-.508 1.017-.727.364.509A10.987 10.987 0 0124.625 16c0 2.308-.733 4.54-2.105 6.356l-.377.498-.997-.753.376-.499c1.207-1.596 1.853-3.564 1.853-5.602 0-2.02-.636-3.999-1.82-5.658zm-2.789 1.544l-.348-.52 1.037-.696.349.518a8.645 8.645 0 01.045 9.576l-.342.522-1.045-.685.343-.523a7.395 7.395 0 00-.039-8.192z" fill-rule="nonzero"/>
</svg>
