<svg xmlns="http://www.w3.org/2000/svg" viewBox="0 0 24 24">
  <path d="M20.25 10.25V8.446H4.252a2.06 2.06 0 01-.502-.062v8.703a2.39 2.39 0 002.38 2.38h11.74a2.39 2.39 0 002.38-2.38v-.337h-3.625c-1.85 0-3.375-1.452-3.375-3.25s1.525-3.25 3.375-3.25h3.625zm-1.565-5.641L4.142 6.019c-.212.012-.392.215-.392.464 0 .253.214.463.502.463h14.433V4.609zM21 6.946a.75.75 0 01.75.75v9.391a3.89 3.89 0 01-3.88 3.88H6.13a3.89 3.89 0 01-3.88-3.88V6.522a.765.765 0 010-.04c0-1.022.777-1.897 1.773-1.959l15.34-1.487a.75.75 0 01.822.747v3.163H21zm-.75 4.804h-3.625c-1.037 0-1.875.798-1.875 1.75s.838 1.75 1.875 1.75h3.625v-3.5zM16.5 14.5a1 1 0 110-2 1 1 0 010 2z"  fill-rule="nonzero"/>
</svg>
