<svg xmlns="http://www.w3.org/2000/svg" viewBox="0 0 16 16">
  <path d="M4.823 8.5H2.02a5.968 5.968 0 001.128 3.031c.148-.086.305-.175.393-.221a6.59 6.59 0 011.515-.575c-.13-.696-.21-1.448-.234-2.235zm1 0c.025.73.103 1.421.222 2.051A15.07 15.07 0 018 10.44c.78 0 1.462.044 2.065.13.12-.635.2-1.332.224-2.069H5.824zm5.467 0a14.634 14.634 0 01-.24 2.26c.515.132.964.302 1.369.51.19.096.244.123.442.248A5.968 5.968 0 0013.979 8.5H11.29zm-5.16 5.203c-.344-.535-.63-1.214-.848-1.994a5.606 5.606 0 00-1.465.592 5.998 5.998 0 002.313 1.402zM8.042 14h.044c.663-.028 1.324-.983 1.748-2.455A14.11 14.11 0 008 11.44c-.661 0-1.228.03-1.726.09.427 1.492 1.097 2.457 1.768 2.47zm1.972-.347a6.002 6.002 0 002.185-1.368 5.557 5.557 0 00-1.375-.551c-.21.746-.483 1.398-.81 1.92zM4.823 7.5a14.52 14.52 0 01.263-2.384 6.42 6.42 0 01-1.868-.741A5.97 5.97 0 002.021 7.5h2.802zm1 0h4.466a13.507 13.507 0 00-.255-2.224c-.58.077-1.247.115-2.033.115-.727 0-1.362-.035-1.925-.104-.136.673-.226 1.42-.252 2.213zm5.467 0h2.69a5.97 5.97 0 00-1.214-3.145 6.237 6.237 0 01-1.745.733c.15.745.243 1.558.27 2.412zM6.13 2.297a5.996 5.996 0 00-2.226 1.319l.122.065a5.45 5.45 0 001.298.464c.211-.72.484-1.347.806-1.848zM8.042 2c-.646.013-1.292.91-1.72 2.31A15.41 15.41 0 008 4.39c.695 0 1.28-.03 1.787-.091C9.363 2.916 8.726 2.027 8.086 2h-.044zm1.972.347c.305.486.564 1.086.767 1.771a5.263 5.263 0 001.296-.52 5.998 5.998 0 00-2.063-1.251zM8.038 1a1.725 1.725 0 01.073 0 7 7 0 11-.073 0z" fill-rule="nonzero"/>
</svg>
