<svg xmlns="http://www.w3.org/2000/svg" viewBox="0 0 14 14"><defs><style>.cls-1{fill:none;stroke:#b3b3b3;stroke-miterlimit:10;}</style></defs><g id="Layer_2" data-name="Layer 2"><g id="Layer_1-2" data-name="Layer 1"><g id="world_1" data-name="world 1"><g id="World"><path id="Vector" class="cls-1" d="M7,13.5A6.5,6.5,0,1,0,.5,7,6.5,6.5,0,0,0,7,13.5Z"/><path id="Vector_2" data-name="Vector 2" class="cls-1" d="M.5,7h13"/><path id="Vector_3" data-name="Vector 3" class="cls-1" d="M2.08,2.7C2.82,3.16,3.81,3.89,7,3.89s4-.71,4.89-1.19"/><path id="Vector_4" data-name="Vector 4" class="cls-1" d="M12,11.18c-.7-.45-1.78-1.24-5-1.24s-4.13.76-5,1.24"/><path id="Vector_5" data-name="Vector 5" class="cls-1" d="M7.06,13.5C8.57,13.5,9.8,10.59,9.8,7S8.57.5,7.06.5,4.32,3.41,4.32,7,5.54,13.5,7.06,13.5Z"/></g></g></g></g></svg>