<svg width="22" height="22" viewBox="0 0 22 22" fill="none" xmlns="http://www.w3.org/2000/svg">
<g id="icon">
<path id="Vector" d="M12.4584 11L16.8652 6.59313L17.774 5.68434C17.9081 5.55027 17.9081 5.33242 17.774 5.19836L16.8016 4.22598C16.6676 4.09191 16.4497 4.09191 16.3157 4.22598L11 9.54164L5.68434 4.22555C5.55027 4.09148 5.33242 4.09148 5.19836 4.22555L4.22555 5.19793C4.09148 5.33199 4.09148 5.54984 4.22555 5.68391L9.54164 11L4.22555 16.3157C4.09148 16.4497 4.09148 16.6676 4.22555 16.8016L5.19793 17.774C5.33199 17.9081 5.54984 17.9081 5.68391 17.774L11 12.4584L15.4069 16.8652L16.3157 17.774C16.4497 17.9081 16.6676 17.9081 16.8016 17.774L17.774 16.8016C17.9081 16.6676 17.9081 16.4497 17.774 16.3157L12.4584 11Z" fill="currentColor" />
</g>
</svg>
