<svg width="22" height="22" viewBox="0 0 22 22" fill="none" xmlns="http://www.w3.org/2000/svg">
<path d="M20.1667 11C20.1667 5.93737 16.0627 1.83331 11 1.83331C5.93743 1.83331 1.83337 5.93737 1.83337 11C1.83337 15.5753 5.18547 19.3676 9.56775 20.0553V13.6497H7.24027V11H9.56775V8.98045C9.56775 6.68305 10.9363 5.41404 13.0301 5.41404C14.0327 5.41404 15.0821 5.59308 15.0821 5.59308V7.84894H13.9262C12.7875 7.84894 12.4323 8.55559 12.4323 9.28123V11H14.9746L14.5682 13.6497H12.4323V20.0553C16.8146 19.3676 20.1667 15.5753 20.1667 11Z" fill="#1877F2"/>
<path d="M14.5682 13.6497L14.9746 11H12.4323V9.28123C12.4323 8.55559 12.7875 7.84894 13.9262 7.84894H15.0821V5.59308C15.0821 5.59308 14.0327 5.41404 13.0301 5.41404C10.9363 5.41404 9.56775 6.68305 9.56775 8.98045V11H7.24027V13.6497H9.56775V20.0553C10.5168 20.2038 11.4832 20.2038 12.4323 20.0553V13.6497H14.5682Z" fill="white"/>
</svg>
