<svg width="22" height="22" viewBox="0 0 22 22" fill="none" xmlns="http://www.w3.org/2000/svg">
<g id="Mail">
<path id="Union" fill-rule="evenodd" clip-rule="evenodd" d="M3.5 6.58331C3.5 5.89296 4.05964 5.33331 4.75 5.33331H17.25C17.9404 5.33331 18.5 5.89296 18.5 6.58331V15.4166C18.5 16.107 17.9404 16.6666 17.25 16.6666H4.75C4.05964 16.6666 3.5 16.107 3.5 15.4166V6.58331ZM4.75 3.83331C3.23122 3.83331 2 5.06453 2 6.58331V15.4166C2 16.9354 3.23122 18.1666 4.75 18.1666H17.25C18.7688 18.1666 20 16.9354 20 15.4166V6.58331C20 5.06453 18.7688 3.83331 17.25 3.83331H4.75ZM5.14466 6.9475C4.81478 6.697 4.34429 6.76134 4.09379 7.09123C3.84329 7.42111 3.90764 7.8916 4.23752 8.1421L10.7375 13.078C11.0122 13.2866 11.3936 13.2809 11.662 13.0644L17.7797 8.1285C18.1021 7.8684 18.1525 7.39622 17.8924 7.07385C17.6323 6.75148 17.1602 6.701 16.8378 6.9611L11.1771 11.5283L5.14466 6.9475Z" fill="#333333"/>
</g>
</svg>
