<svg width="22" height="22" viewBox="0 0 22 22" fill="none" xmlns="http://www.w3.org/2000/svg">
<g clip-path="url(#clip0_976_11553)">
<path d="M19.0827 2.4624L12.0677 7.8002L13.365 4.65098L19.0827 2.4624Z" fill="#E2761B"/>
<path fill-rule="evenodd" clip-rule="evenodd" d="M19.4561 2.25452C19.5572 2.44506 19.5061 2.68281 19.3361 2.81213L12.3211 8.14993C12.1673 8.267 11.956 8.2641 11.8053 8.14284C11.6545 8.02158 11.6017 7.81198 11.6762 7.63108L12.9734 4.48186C13.0189 4.3715 13.1067 4.2852 13.2162 4.24328L18.934 2.0547C19.1323 1.97879 19.3549 2.06399 19.4561 2.25452ZM13.6853 4.99335L13.065 6.49915L16.4192 3.94689L13.6853 4.99335Z" fill="#E2761B"/>
<path d="M2.88831 2.4624L9.84685 7.85076L8.61306 4.65098L2.88831 2.4624Z" fill="#E4761B"/>
<path fill-rule="evenodd" clip-rule="evenodd" d="M2.51589 2.253C2.61745 2.06352 2.83931 1.97907 3.03699 2.05464L8.76175 4.24321C8.87456 4.28634 8.96421 4.37646 9.00845 4.49118L10.2422 7.69096C10.3122 7.87247 10.2558 8.07951 10.1041 8.19759C9.95247 8.31568 9.74265 8.31597 9.59069 8.1983L2.63215 2.80994C2.46382 2.6796 2.41432 2.44247 2.51589 2.253ZM5.46598 3.91273L8.89545 6.56834L8.28738 4.99135L5.46598 3.91273Z" fill="#E4761B"/>
<path d="M16.5587 14.8354L14.6904 17.768L18.6879 18.8948L19.837 14.9005L16.5587 14.8354Z" fill="#E4761B"/>
<path fill-rule="evenodd" clip-rule="evenodd" d="M16.2028 14.5976C16.2829 14.4719 16.4204 14.3973 16.5669 14.4002L19.8453 14.4652C19.9778 14.4679 20.1015 14.5337 20.1798 14.6432C20.2582 14.7527 20.2822 14.8934 20.2447 15.0237L19.0955 19.018C19.03 19.2457 18.7985 19.3777 18.5751 19.3147L14.5776 18.1879C14.4468 18.151 14.341 18.0523 14.2929 17.9223C14.2449 17.7923 14.2603 17.6465 14.3345 17.5301L16.2028 14.5976ZM16.7859 15.2756L15.3645 17.5065L18.3982 18.3616L19.2719 15.3249L16.7859 15.2756Z" fill="#E4761B"/>
<path d="M2.14807 14.9005L3.2902 18.8948L7.28767 17.768L5.41937 14.8354L2.14807 14.9005Z" fill="#E4761B"/>
<path fill-rule="evenodd" clip-rule="evenodd" d="M5.4112 14.4002C5.55767 14.3973 5.69527 14.4719 5.77534 14.5976L7.64364 17.5301C7.71782 17.6465 7.73326 17.7923 7.6852 17.9223C7.63713 18.0523 7.53134 18.151 7.40049 18.1879L3.40302 19.3147C3.17934 19.3778 2.94764 19.2454 2.88242 19.0173L1.74029 15.023C1.70306 14.8928 1.72719 14.7523 1.80554 14.6429C1.8839 14.5336 2.00752 14.4679 2.13991 14.4652L5.4112 14.4002ZM2.71233 15.3249L3.58061 18.3615L6.61358 17.5065L5.19225 15.2756L2.71233 15.3249Z" fill="#E4761B"/>
<path d="M7.0621 9.88052L5.94818 11.6068L9.91743 11.7874L9.77643 7.41748L7.0621 9.88052Z" fill="#E4761B"/>
<path fill-rule="evenodd" clip-rule="evenodd" d="M9.9444 7.01741C10.0957 7.08412 10.1957 7.23434 10.2012 7.40297L10.3422 11.7729C10.3461 11.8941 10.3004 12.0116 10.2162 12.0969C10.132 12.1822 10.0168 12.2276 9.89853 12.2223L5.92928 12.0417C5.77637 12.0347 5.63892 11.9441 5.56944 11.8043C5.49996 11.6646 5.50919 11.4974 5.5936 11.3666L6.70752 9.64028C6.728 9.60854 6.75246 9.57968 6.78026 9.55445L9.49459 7.09141C9.61787 6.97954 9.79314 6.95071 9.9444 7.01741ZM7.38573 10.1683L6.71629 11.2058L9.47744 11.3314L9.38148 8.35735L7.38573 10.1683Z" fill="#E4761B"/>
<path d="M14.909 9.88054L12.1594 7.36694L12.0677 11.7874L16.0299 11.6068L14.909 9.88054Z" fill="#E4761B"/>
<path fill-rule="evenodd" clip-rule="evenodd" d="M11.9897 6.96758C12.1418 6.89976 12.3185 6.92879 12.4423 7.04194L15.1919 9.55554C15.2189 9.58023 15.2427 9.60837 15.2628 9.63925L16.3838 11.3655C16.4687 11.4963 16.4783 11.6637 16.4089 11.8038C16.3395 11.9438 16.2019 12.0347 16.0488 12.0417L12.0866 12.2223C11.9691 12.2276 11.8548 12.1829 11.7707 12.0987C11.6866 12.0146 11.6403 11.8985 11.6428 11.7781L11.7344 7.35757C11.738 7.18767 11.8377 7.0354 11.9897 6.96758ZM12.5647 8.32091L12.5022 11.3317L15.2592 11.206L14.5853 10.1681L12.5647 8.32091Z" fill="#E4761B"/>
<path d="M7.28772 17.7681L9.67069 16.5763L7.61202 14.9294L7.28772 17.7681Z" fill="#E4761B"/>
<path fill-rule="evenodd" clip-rule="evenodd" d="M7.44817 14.5275C7.58988 14.4669 7.75249 14.4893 7.87354 14.5861L9.9322 16.233C10.0477 16.3254 10.1086 16.4722 10.0933 16.6215C10.0781 16.7709 9.98878 16.9016 9.85709 16.9674L7.47412 18.1592C7.33446 18.2291 7.16872 18.2153 7.04192 18.1232C6.91512 18.0311 6.84749 17.8755 6.86556 17.7173L7.18986 14.8787C7.20771 14.7224 7.30646 14.5882 7.44817 14.5275ZM7.94622 15.7491L7.80022 17.0271L8.87304 16.4905L7.94622 15.7491Z" fill="#E4761B"/>
<path d="M12.3004 16.5763L14.6904 17.7681L14.359 14.9294L12.3004 16.5763Z" fill="#E4761B"/>
<path fill-rule="evenodd" clip-rule="evenodd" d="M14.5224 14.5273C14.664 14.5877 14.7628 14.7216 14.781 14.8776L15.1124 17.7163C15.1308 17.8745 15.0635 18.0304 14.9368 18.1227C14.8101 18.2151 14.6442 18.2292 14.5044 18.1595L12.1144 16.9677C11.9825 16.9019 11.8931 16.7712 11.8777 16.6218C11.8623 16.4724 11.9232 16.3254 12.0388 16.233L14.0975 14.5861C14.2184 14.4894 14.3807 14.4669 14.5224 14.5273ZM13.0987 16.49L14.1759 17.0271L14.0265 15.7477L13.0987 16.49Z" fill="#E4761B"/>
<path d="M14.6904 17.768L12.3004 16.5762L12.4907 18.1725L12.4696 18.8442L14.6904 17.768Z" fill="#D7C1B3"/>
<path fill-rule="evenodd" clip-rule="evenodd" d="M12.0535 16.2218C12.1803 16.1292 12.3464 16.115 12.4864 16.1848L14.8764 17.3766C15.0234 17.4499 15.1163 17.603 15.1154 17.7705C15.1145 17.938 15.0199 18.0901 14.8721 18.1617L12.6513 19.2379C12.5174 19.3028 12.3603 19.2916 12.2364 19.2084C12.1126 19.1252 12.04 18.9819 12.0448 18.8303L12.0649 18.1921L11.8785 16.6291C11.8596 16.4707 11.9268 16.3145 12.0535 16.2218ZM12.817 17.3182L12.9126 18.1198C12.9137 18.1288 12.9145 18.1378 12.915 18.1468L13.708 17.7625L12.817 17.3182Z" fill="#D7C1B3"/>
<path d="M7.28772 17.768L9.50854 18.8442L9.49444 18.1725L9.67069 16.5762L7.28772 17.768Z" fill="#D7C1B3"/>
<path fill-rule="evenodd" clip-rule="evenodd" d="M9.91572 16.2206C10.0425 16.3122 10.1104 16.4673 10.0929 16.6252L9.9199 18.1925L9.93339 18.835C9.93656 18.9858 9.86327 19.1276 9.7397 19.2097C9.61613 19.2917 9.45989 19.3024 9.32676 19.2379L7.10594 18.1617C6.95825 18.0901 6.86368 17.9381 6.86268 17.7708C6.86167 17.6034 6.95441 17.4502 7.10123 17.3768L9.4842 16.185C9.62359 16.1153 9.78899 16.1289 9.91572 16.2206ZM8.26884 17.7619L9.06995 18.1501C9.0704 18.1413 9.07111 18.1324 9.07208 18.1236L9.1613 17.3155L8.26884 17.7619Z" fill="#D7C1B3"/>
<path d="M9.54377 13.8747L7.5556 13.2752L8.9586 12.6179L9.54377 13.8747Z" fill="#233447"/>
<path fill-rule="evenodd" clip-rule="evenodd" d="M8.78182 12.2222C8.99284 12.1233 9.24225 12.2161 9.34215 12.4307L9.92732 13.6875C9.99953 13.8426 9.97596 14.0267 9.86714 14.1574C9.75833 14.2882 9.58463 14.3411 9.42373 14.2926L7.43556 13.6931C7.26543 13.6418 7.14428 13.4877 7.13164 13.3065C7.119 13.1252 7.21753 12.955 7.37882 12.8794L8.78182 12.2222Z" fill="#233447"/>
<path d="M12.4273 13.8747L13.0125 12.6179L14.4225 13.2752L12.4273 13.8747Z" fill="#233447"/>
<path fill-rule="evenodd" clip-rule="evenodd" d="M12.6288 12.4307C12.7286 12.2164 12.9775 12.1235 13.1884 12.2218L14.5985 12.8791C14.7601 12.9544 14.859 13.1248 14.8464 13.3063C14.8338 13.4877 14.7125 13.642 14.5421 13.6932L12.5469 14.2927C12.386 14.3411 12.2124 14.288 12.1037 14.1573C11.995 14.0265 11.9715 13.8425 12.0437 13.6875L12.6288 12.4307Z" fill="#233447"/>
<path d="M7.28767 17.768L7.62607 14.8354L5.41937 14.9005L7.28767 17.768Z" fill="#CD6116"/>
<path fill-rule="evenodd" clip-rule="evenodd" d="M7.93967 14.5417C8.02305 14.6351 8.06265 14.761 8.04815 14.8867L7.70975 17.8192C7.68884 18.0004 7.55995 18.149 7.38683 18.1915C7.21371 18.2341 7.03304 18.1615 6.9342 18.0098L5.0659 15.1423C4.98007 15.0106 4.97083 14.8415 5.04177 14.7008C5.11271 14.56 5.25264 14.4699 5.40717 14.4653L7.61387 14.4003C7.73736 14.3967 7.85628 14.4483 7.93967 14.5417ZM6.19921 15.3132L7.001 16.5438L7.14623 15.2853L6.19921 15.3132Z" fill="#CD6116"/>
<path d="M14.352 14.8354L14.6904 17.768L16.5587 14.9005L14.352 14.8354Z" fill="#CD6116"/>
<path fill-rule="evenodd" clip-rule="evenodd" d="M14.0384 14.5417C14.1218 14.4483 14.2407 14.3967 14.3642 14.4003L16.5709 14.4653C16.7254 14.4699 16.8654 14.56 16.9363 14.7008C17.0073 14.8415 16.998 15.0106 16.9122 15.1423L15.0439 18.0098C14.945 18.1615 14.7644 18.2341 14.5913 18.1915C14.4181 18.149 14.2892 18.0004 14.2683 17.8192L13.9299 14.8867C13.9154 14.761 13.955 14.6351 14.0384 14.5417ZM14.8319 15.2853L14.9771 16.5438L15.7789 15.3132L14.8319 15.2853Z" fill="#CD6116"/>
<path d="M16.0299 11.6069L12.0677 11.7875L12.4343 13.875L13.0195 12.6181L14.4296 13.2755L16.0299 11.6069Z" fill="#CD6116"/>
<path fill-rule="evenodd" clip-rule="evenodd" d="M16.4181 11.4295C16.4892 11.593 16.4555 11.7844 16.333 11.912L14.7327 13.5805C14.6075 13.711 14.416 13.7474 14.2535 13.6716L13.2234 13.1914L12.8179 14.0623C12.7385 14.2329 12.5606 14.3315 12.3777 14.3064C12.1948 14.2812 12.0487 14.138 12.016 13.9519L11.6494 11.8645C11.6277 11.7409 11.6592 11.6137 11.7357 11.5156C11.8122 11.4175 11.9264 11.358 12.0488 11.3524L16.011 11.1718C16.1855 11.1639 16.347 11.2661 16.4181 11.4295ZM12.572 12.2002L12.6189 12.467L12.6359 12.4306C12.7356 12.2163 12.9846 12.1234 13.1955 12.2217L14.3348 12.7528L14.9697 12.091L12.572 12.2002Z" fill="#CD6116"/>
<path d="M7.55561 13.2755L8.96566 12.6181L9.54378 13.875L9.91743 11.7875L5.94818 11.6069L7.55561 13.2755Z" fill="#CD6116"/>
<path fill-rule="evenodd" clip-rule="evenodd" d="M5.55976 11.43C5.63076 11.2663 5.79234 11.1639 5.967 11.1718L9.93625 11.3524C10.059 11.358 10.1733 11.4177 10.2499 11.5161C10.3264 11.6146 10.3576 11.7421 10.3354 11.8659L9.96177 13.9534C9.92847 14.1394 9.78172 14.2822 9.59863 14.3066C9.41554 14.331 9.238 14.2316 9.1593 14.0604L8.75994 13.1923L7.73159 13.6716C7.56936 13.7473 7.3783 13.7112 7.2531 13.5812L5.64566 11.9127C5.52285 11.7852 5.48877 11.5937 5.55976 11.43ZM7.0118 12.091L7.64963 12.7531L8.78961 12.2217C9.00124 12.123 9.25096 12.2169 9.35008 12.4324L9.36431 12.4633L9.41141 12.2002L7.0118 12.091Z" fill="#CD6116"/>
<path d="M5.94818 11.6069L7.61201 14.9295L7.55562 13.2755L5.94818 11.6069Z" fill="#E4751F"/>
<path fill-rule="evenodd" clip-rule="evenodd" d="M5.69901 11.2541C5.86897 11.1281 6.10327 11.148 6.25065 11.3009L7.85808 12.9695C7.93298 13.0472 7.97662 13.151 7.98034 13.2601L8.03674 14.9142C8.04369 15.118 7.91164 15.2994 7.71899 15.3508C7.52634 15.4021 7.32473 15.3096 7.23386 15.1281L5.57003 11.8056C5.47426 11.6143 5.52904 11.3801 5.69901 11.2541Z" fill="#E4751F"/>
<path d="M14.4296 13.2755L14.3591 14.9295L16.03 11.6069L14.4296 13.2755Z" fill="#E4751F"/>
<path fill-rule="evenodd" clip-rule="evenodd" d="M16.279 11.254C16.4492 11.3802 16.5039 11.6149 16.4077 11.8062L14.7368 15.1288C14.6454 15.3106 14.4428 15.4027 14.2499 15.3502C14.057 15.2977 13.9257 15.1147 13.9344 14.9104L14.0049 13.2563C14.0095 13.1488 14.0528 13.0469 14.1264 12.9701L15.7268 11.3016C15.874 11.1481 16.1087 11.1278 16.279 11.254Z" fill="#E4751F"/>
<path d="M9.91741 11.7874L9.54376 13.8748L10.0091 16.3379L10.1148 13.0947L9.91741 11.7874Z" fill="#E4751F"/>
<path fill-rule="evenodd" clip-rule="evenodd" d="M9.92335 11.3521C10.1307 11.3551 10.3057 11.5109 10.3374 11.7209L10.5348 13.0283C10.5389 13.0551 10.5405 13.0822 10.5396 13.1094L10.4338 16.3525C10.4266 16.574 10.2582 16.7546 10.0426 16.772C9.82695 16.7895 9.63292 16.6383 9.59182 16.4207L9.12652 13.9577C9.11646 13.9044 9.1162 13.8497 9.12575 13.7964L9.4994 11.7089C9.5368 11.4999 9.71598 11.3491 9.92335 11.3521Z" fill="#E4751F"/>
<path d="M12.0677 11.7874L11.8774 13.0875L11.962 16.3379L12.4343 13.8748L12.0677 11.7874Z" fill="#E4751F"/>
<path fill-rule="evenodd" clip-rule="evenodd" d="M12.0615 11.3521C12.2695 11.349 12.4491 11.5006 12.486 11.7104L12.8526 13.7978C12.8619 13.8511 12.8615 13.9057 12.8513 13.9589L12.379 16.4219C12.3372 16.6397 12.1423 16.7904 11.9264 16.7719C11.7106 16.7533 11.5429 16.5714 11.5371 16.3496L11.4525 13.0992C11.4518 13.0737 11.4533 13.0482 11.457 13.023L11.6474 11.7229C11.6783 11.5121 11.8535 11.3552 12.0615 11.3521Z" fill="#E4751F"/>
<path d="M12.4343 13.8749L11.962 16.3379L12.3004 16.5763L14.359 14.9295L14.4295 13.2754L12.4343 13.8749Z" fill="#F6851B"/>
<path fill-rule="evenodd" clip-rule="evenodd" d="M14.6916 12.9325C14.7996 13.0192 14.8601 13.1539 14.8541 13.2943L14.7836 14.9483C14.7782 15.0756 14.7186 15.1941 14.6206 15.2725L12.5619 16.9194C12.4157 17.0363 12.2124 17.0426 12.0596 16.935L11.7212 16.6966C11.5815 16.5982 11.5122 16.4243 11.5449 16.2539L12.0173 13.7908C12.0478 13.6314 12.1625 13.5027 12.3147 13.457L14.3099 12.8574C14.4415 12.8179 14.5837 12.8459 14.6916 12.9325ZM12.8016 14.2182L12.4834 15.8773L13.943 14.7097L13.979 13.8644L12.8016 14.2182Z" fill="#F6851B"/>
<path d="M7.5556 13.2754L7.612 14.9295L9.67067 16.5763L10.0091 16.3379L9.54377 13.8749L7.5556 13.2754Z" fill="#F6851B"/>
<path fill-rule="evenodd" clip-rule="evenodd" d="M7.29513 12.9312C7.40304 12.8455 7.5446 12.8181 7.67561 12.8576L9.66378 13.4571C9.81619 13.503 9.93085 13.6322 9.96104 13.792L10.4263 16.2551C10.4585 16.4251 10.3892 16.5985 10.2499 16.6966L9.91146 16.935C9.75863 17.0426 9.55531 17.0363 9.40912 16.9194L7.35046 15.2725C7.25141 15.1933 7.19166 15.0732 7.18727 14.9445L7.13087 13.2905C7.12611 13.1506 7.18722 13.017 7.29513 12.9312ZM8.00093 13.8634L8.02984 14.7111L9.48948 15.8788L9.17567 14.2177L8.00093 13.8634Z" fill="#F6851B"/>
<path d="M12.4696 18.8443L12.4908 18.1726L12.3145 18.0137H9.65659L9.49444 18.1726L9.50854 18.8443L7.28772 17.7681L8.06324 18.4181L9.63544 19.5377H12.3357L13.9149 18.4181L14.6904 17.7681L12.4696 18.8443Z" fill="#C0AD9E"/>
<path fill-rule="evenodd" clip-rule="evenodd" d="M6.92847 17.5353C7.04321 17.3494 7.27531 17.2803 7.46942 17.3744L9.06997 18.15C9.07554 18.0395 9.12203 17.9349 9.20064 17.8578L9.36279 17.6989C9.44188 17.6214 9.54711 17.5782 9.65656 17.5782H12.3145C12.4178 17.5782 12.5176 17.6168 12.5952 17.6867L12.7715 17.8456C12.857 17.9227 12.9083 18.0313 12.915 18.1467L14.5087 17.3744C14.7028 17.2803 14.9349 17.3494 15.0496 17.5353C15.1644 17.7213 15.1257 17.9657 14.9595 18.105L14.184 18.7551C14.1752 18.7624 14.1661 18.7695 14.1567 18.7761L12.5775 19.8957C12.5064 19.9461 12.422 19.973 12.3356 19.973H9.63541C9.54869 19.973 9.46405 19.9459 9.39285 19.8952L7.82065 18.7756C7.81153 18.7691 7.80267 18.7623 7.79408 18.7551L7.01857 18.105C6.85238 17.9657 6.81372 17.7213 6.92847 17.5353ZM12.0568 18.449H9.92531L9.93341 18.8349C9.93546 18.9323 9.9056 19.026 9.85088 19.1022H12.1272C12.0716 19.0247 12.0417 18.9292 12.0448 18.8302L12.0568 18.449Z" fill="#C0AD9E"/>
<path d="M12.3004 16.5762L11.962 16.3379H10.009L9.67063 16.5762L9.49438 18.1725L9.65653 18.0136H12.3145L12.4907 18.1725L12.3004 16.5762Z" fill="#161616"/>
<path fill-rule="evenodd" clip-rule="evenodd" d="M9.76828 15.979C9.83913 15.9291 9.92308 15.9023 10.0091 15.9023H11.962C12.048 15.9023 12.1319 15.9291 12.2028 15.979L12.5412 16.2173C12.6415 16.288 12.7075 16.3994 12.7222 16.5233L12.9126 18.1196C12.934 18.299 12.845 18.4732 12.689 18.5575C12.533 18.6418 12.3424 18.6187 12.21 18.4993L12.1541 18.4489H9.82711L9.7882 18.487C9.65891 18.6137 9.46601 18.6439 9.30569 18.5625C9.14538 18.4811 9.05199 18.3056 9.0721 18.1235L9.24835 16.5272C9.26219 16.4018 9.32842 16.2888 9.42988 16.2173L9.76828 15.979ZM9.98774 17.5781H11.9917L11.9017 16.8237L11.83 16.7732H10.1411L10.0712 16.8224L9.98774 17.5781Z" fill="#161616"/>
<path d="M19.3787 8.1469L19.978 5.19991L19.0827 2.4624L12.3004 7.61961L14.9089 9.88042L18.5962 10.9855L19.414 10.0104L19.0615 9.75041L19.6255 9.22313L19.1884 8.87641L19.7524 8.43582L19.3787 8.1469Z" fill="#763D16"/>
<path fill-rule="evenodd" clip-rule="evenodd" d="M19.2101 2.04713C19.34 2.08894 19.4424 2.19195 19.4857 2.32418L20.381 5.06169C20.4049 5.13488 20.4095 5.21327 20.3941 5.28884L19.8497 7.9657L20.0084 8.0884C20.1145 8.17045 20.177 8.29866 20.1774 8.43487C20.1777 8.57108 20.1158 8.6996 20.0101 8.78219L19.886 8.87914C19.985 8.95783 20.0451 9.0773 20.0502 9.20563C20.0553 9.33406 20.0047 9.45823 19.912 9.54487L19.7279 9.71698C19.7873 9.78359 19.8255 9.86806 19.8361 9.95908C19.8501 10.0802 19.814 10.2018 19.7364 10.2943L18.9185 11.2694C18.8098 11.3991 18.637 11.4516 18.4769 11.4036L14.7896 10.2984C14.7326 10.2814 14.6798 10.2522 14.6345 10.213L12.0259 7.95216C11.9268 7.86629 11.8715 7.73876 11.8756 7.60588C11.8797 7.473 11.9429 7.34933 12.0471 7.27009L18.8294 2.11288C18.9387 2.02977 19.0803 2.00532 19.2101 2.04713ZM19.057 8.43159C18.9716 8.33029 18.9353 8.19258 18.9626 8.0582L19.5385 5.2266L18.8658 3.16971L12.9841 7.64203L15.1147 9.48853L18.4525 10.4889L18.7905 10.0859C18.6999 10.0091 18.6441 9.89683 18.6372 9.77569C18.6298 9.64473 18.6805 9.51732 18.7751 9.42889L18.9658 9.25061L18.9282 9.22084C18.8238 9.13803 18.7629 9.01022 18.7634 8.87494C18.7639 8.73967 18.8257 8.61231 18.9307 8.53029L19.057 8.43159Z" fill="#763D16"/>
<path d="M2 5.19991L2.59927 8.1469L2.21856 8.43582L2.78257 8.87641L2.35251 9.22313L2.91652 9.75041L2.56401 10.0104L3.37479 10.9855L7.06203 9.88042L9.67062 7.61961L2.88832 2.4624L2 5.19991Z" fill="#763D16"/>
<path fill-rule="evenodd" clip-rule="evenodd" d="M2.7605 2.04729C2.89048 2.00527 3.03225 2.02966 3.14169 2.11288L9.92398 7.27009C10.0282 7.34933 10.0913 7.473 10.0955 7.60588C10.0996 7.73876 10.0442 7.86629 9.94518 7.95216L7.33659 10.213C7.29127 10.2522 7.23841 10.2814 7.18144 10.2984L3.49419 11.4036C3.3334 11.4517 3.15997 11.3987 3.05133 11.268L2.24056 10.2929C2.16356 10.2003 2.12789 10.0789 2.14218 9.95816C2.1529 9.86748 2.19106 9.78336 2.25021 9.71698L2.06611 9.54488C1.97387 9.45864 1.92331 9.33521 1.92787 9.20736C1.9324 9.07999 1.99118 8.96108 2.08866 8.88196L1.96094 8.78219C1.85468 8.69918 1.79271 8.56981 1.79364 8.43292C1.79457 8.29603 1.85828 8.16755 1.96565 8.08606L2.1278 7.96301L1.58401 5.28883C1.56871 5.21361 1.57312 5.13558 1.59678 5.06266L2.4851 2.32516C2.5281 2.19265 2.63052 2.08931 2.7605 2.04729ZM3.18611 10.0872L3.51982 10.4885L6.85636 9.48853L8.98691 7.64203L3.1065 3.1706L2.43949 5.22607L3.01541 8.05821C3.04304 8.19412 3.00557 8.33335 2.91822 8.43489L3.04034 8.53028C3.14486 8.61194 3.20663 8.73855 3.20763 8.87321C3.20864 9.00787 3.14876 9.13543 3.04546 9.21871L3.00937 9.24781L3.20307 9.42889C3.29766 9.51732 3.34829 9.64472 3.34089 9.77569C3.334 9.89751 3.27759 10.0103 3.18611 10.0872Z" fill="#763D16"/>
<path d="M18.5962 10.9857L14.909 9.88062L16.03 11.6069L14.3591 14.9295L16.5587 14.9006H19.8371L18.5962 10.9857Z" fill="#F6851B"/>
<path fill-rule="evenodd" clip-rule="evenodd" d="M14.5666 9.62252C14.6724 9.47513 14.8568 9.41124 15.0283 9.46261L18.7155 10.5677C18.8504 10.6081 18.957 10.7142 19.0004 10.8512L20.2412 14.766C20.2833 14.8986 20.2608 15.0437 20.1808 15.1565C20.1009 15.2692 19.9731 15.3359 19.837 15.3359H16.5614L14.3645 15.3648C14.2153 15.3667 14.0761 15.2884 13.9976 15.1584C13.9191 15.0284 13.9129 14.8658 13.9812 14.73L15.5377 11.6349L14.5551 10.1217C14.4562 9.96935 14.4607 9.76991 14.5666 9.62252ZM15.9085 10.6338L16.3838 11.3656C16.4692 11.4972 16.4783 11.6658 16.4077 11.8062L15.0607 14.4847L16.5587 14.465L19.2522 14.4651L18.2613 11.3389L15.9085 10.6338Z" fill="#F6851B"/>
<path d="M7.06205 9.88062L3.37481 10.9857L2.14807 14.9006H5.41937L7.61197 14.9295L5.94812 11.6069L7.06205 9.88062Z" fill="#F6851B"/>
<path fill-rule="evenodd" clip-rule="evenodd" d="M7.40412 9.62201C7.51002 9.76905 7.51502 9.9682 7.41666 10.1206L6.43976 11.6346L7.99018 14.7306C8.05822 14.8665 8.05181 15.029 7.97329 15.1588C7.89477 15.2886 7.75562 15.3667 7.60658 15.3648L5.41672 15.3359H2.14815C2.01237 15.3359 1.88476 15.2694 1.80476 15.157C1.72475 15.0446 1.70199 14.8998 1.74349 14.7674L2.97022 10.8525C3.01333 10.715 3.12021 10.6083 3.25555 10.5677L6.9428 9.46261C7.11399 9.4113 7.29823 9.47496 7.40412 9.62201ZM3.71062 11.3387L2.73095 14.4651H5.42491L6.91169 14.4847L5.57006 11.8056C5.49999 11.6656 5.50901 11.4979 5.59366 11.3667L6.06757 10.6323L3.71062 11.3387Z" fill="#F6851B"/>
<path d="M12.0677 11.7874L12.3003 7.61976L13.372 4.65112H8.6131L9.67063 7.61976L9.91738 11.7874L10.002 13.102L10.009 16.3379H11.9619L11.976 13.102L12.0677 11.7874Z" fill="#F6851B"/>
<path fill-rule="evenodd" clip-rule="evenodd" d="M8.26487 4.4014C8.34439 4.28494 8.47438 4.21558 8.61311 4.21558H13.372C13.511 4.21558 13.6413 4.28526 13.7208 4.40217C13.8002 4.51908 13.8188 4.66841 13.7706 4.80203L12.721 7.70955L12.4917 11.8183L12.401 13.1184L12.387 16.3397C12.3859 16.5795 12.1959 16.7732 11.962 16.7732H10.009C9.7747 16.7732 9.58457 16.5789 9.58405 16.3388L9.57703 13.1167L9.49332 11.8159L9.49318 11.8137L9.25018 7.70932L8.21387 4.80027C8.16631 4.66676 8.18534 4.51787 8.26487 4.4014ZM9.22064 5.08641L10.0699 7.47035C10.084 7.50987 10.0924 7.55127 10.0949 7.59327L10.3415 11.7587L10.3416 11.7609L10.4261 13.0732C10.4267 13.0825 10.427 13.0917 10.427 13.1009L10.4331 15.9024H11.5389L11.5511 13.0999C11.5511 13.0902 11.5515 13.0805 11.5521 13.0709L11.6436 11.7594L11.8761 7.59477C11.8785 7.55164 11.8871 7.50912 11.9017 7.4686L12.7617 5.08641H9.22064Z" fill="#F6851B"/>
</g>
<defs>
<clipPath id="clip0_976_11553">
<rect width="18.3333" height="17.4167" fill="white" transform="translate(1.83337 2.29175)"/>
</clipPath>
</defs>
</svg>
