<svg width="22" height="22" viewBox="0 0 22 22" fill="none" xmlns="http://www.w3.org/2000/svg">
<g id="icon">
<path id="Vector" fill-rule="evenodd" clip-rule="evenodd" d="M4.39978 12.6506C5.31106 12.6506 6.0498 11.9119 6.0498 11.0006C6.0498 10.0893 5.31106 9.35059 4.39978 9.35059C3.4885 9.35059 2.74976 10.0893 2.74976 11.0006C2.74976 11.9119 3.4885 12.6506 4.39978 12.6506ZM10.9998 12.6506C11.911 12.6506 12.6498 11.9119 12.6498 11.0006C12.6498 10.0893 11.911 9.35059 10.9998 9.35059C10.0885 9.35059 9.34974 10.0893 9.34974 11.0006C9.34974 11.9119 10.0885 12.6506 10.9998 12.6506ZM19.2501 11.0006C19.2501 11.9119 18.5113 12.6506 17.6001 12.6506C16.6888 12.6506 15.95 11.9119 15.95 11.0006C15.95 10.0893 16.6888 9.35059 17.6001 9.35059C18.5113 9.35059 19.2501 10.0893 19.2501 11.0006Z" fill="currentColor"/>
</g>
</svg>
