<svg width="22" height="22" viewBox="0 0 22 22" fill="none" xmlns="http://www.w3.org/2000/svg">
<path d="M5.04517 7.09066C8.33393 3.74745 13.6661 3.74745 16.9548 7.09066L17.3507 7.49301C17.5151 7.66017 17.5151 7.93119 17.3507 8.09835L15.9966 9.47475C15.9144 9.55832 15.7812 9.55832 15.6989 9.47475L15.1543 8.92105C12.8599 6.58875 9.14008 6.58875 6.84576 8.92105L6.26246 9.51401C6.18024 9.59759 6.04693 9.59759 5.96471 9.51401L4.61073 8.13762C4.4463 7.97046 4.4463 7.69944 4.61073 7.53228L5.04517 7.09066ZM19.755 9.93717L20.96 11.1622C21.1244 11.3293 21.1244 11.6004 20.96 11.7675L15.5264 17.2912C15.3619 17.4584 15.0953 17.4584 14.9309 17.2912L11.0745 13.3709C11.0334 13.3291 10.9667 13.3291 10.9256 13.3709L7.06921 17.2912C6.90478 17.4584 6.63817 17.4584 6.47373 17.2912L1.03995 11.7674C0.875517 11.6003 0.875517 11.3293 1.03995 11.1621L2.24499 9.93711C2.40943 9.76994 2.67605 9.76994 2.84049 9.93711L6.69699 13.8575C6.7381 13.8993 6.80475 13.8993 6.84586 13.8575L10.7022 9.93711C10.8666 9.76994 11.1332 9.76994 11.2977 9.9371L15.1541 13.8575C15.1953 13.8992 15.2619 13.8992 15.3031 13.8575L19.1595 9.93717C19.3239 9.77002 19.5905 9.77002 19.755 9.93717Z" fill="#3B99FC"/>
</svg>
