<svg width="22" height="22" viewBox="0 0 22 22" fill="none" xmlns="http://www.w3.org/2000/svg">
<g id="icon">
<path id="Vector" d="M19.9603 16.8012C20.5478 17.8896 19.8104 19.25 18.637 19.25H3.36282C2.18716 19.25 1.45313 17.8875 2.03948 16.8012L9.67664 2.64924C10.2644 1.56039 11.7366 1.56236 12.3233 2.64924L19.9603 16.8012ZM11 13.8753C10.1914 13.8753 9.53587 14.5759 9.53587 15.4401C9.53587 16.3043 10.1914 17.0049 11 17.0049C11.8086 17.0049 12.4641 16.3043 12.4641 15.4401C12.4641 14.5759 11.8086 13.8753 11 13.8753ZM9.60993 8.25077L9.84604 12.8771C9.85708 13.0936 10.0246 13.263 10.2274 13.263H11.7726C11.9754 13.263 12.1429 13.0936 12.1539 12.8771L12.39 8.25077C12.402 8.01694 12.2278 7.82032 12.0087 7.82032H9.99127C9.77216 7.82032 9.59799 8.01694 9.60993 8.25077Z" fill="currentColor" />
</g>
</svg>
