<svg xmlns="http://www.w3.org/2000/svg" width="193" height="193" viewBox="0 0 193 193">
  <path fill="#BFA35E" fill-rule="evenodd" d="M96.4699385,192.6539 C94.5600231,192.6539 93.0108373,191.106883 93.0108373,189.196967 L93.0108373,168.393202 L73.3919137,157.066001 C73.3304668,157.030579 73.2711886,156.992265 73.2119103,156.953228 C64.7813902,152.077955 59.598883,148.565359 56.3450868,143.522373 C53.0255062,138.381071 52.0213909,132.180713 52.0213909,122.024619 L52.0213909,84.0019751 C52.0213909,82.0920596 53.568408,80.5428738 55.4783235,80.5428738 C57.388239,80.5428738 58.9374248,82.0920596 58.9374248,84.0019751 L58.9374248,122.024619 C58.9374248,130.799242 59.6849087,135.969459 62.1543528,139.792905 C64.6418695,143.647435 69.1773766,146.666287 76.6623367,150.994321 C76.7259524,151.024683 76.7895681,151.059382 76.851015,151.094081 L96.4699385,162.422006 L116.086693,151.094081 L116.091031,151.100588 L116.101151,151.094081 C123.691656,146.713276 128.277766,143.67852 130.785524,139.792905 C133.2528,135.969459 134.001007,130.799242 134.001007,122.024619 L134.001007,84.0019751 C134.001007,82.0920596 135.550192,80.5428738 137.460108,80.5428738 C139.3693,80.5428738 140.918486,82.0920596 140.918486,84.0019751 L140.918486,122.024619 C140.918486,132.180713 139.912925,138.381071 136.593344,143.522373 C133.316415,148.602227 128.080413,152.129282 119.541457,157.059495 L119.545795,157.066001 L99.9268711,168.393202 L99.9268711,185.672082 C123.152369,184.785077 144.099269,175.008508 159.459558,159.645327 C175.580343,143.524541 185.552097,121.254002 185.552097,96.6535385 C185.552097,72.0552442 175.580343,49.7847044 159.459558,33.663919 C143.338773,17.5431336 121.068233,7.57210253 96.4699385,7.57210253 C71.8694754,7.57210253 49.5989357,17.5431336 33.4781503,33.663919 C17.3573649,49.7847044 7.38633381,72.0552442 7.38633381,96.6535385 C7.38633381,118.840221 15.488655,139.127109 28.8942086,154.715114 C42.4862717,170.520712 61.5377147,181.504533 83.1301693,184.74604 C85.0191206,185.028696 86.3181812,186.78897 86.0355252,188.676476 C85.7528693,190.563981 83.9925952,191.86521 82.1029211,191.581832 C58.8448929,188.0902 38.3100485,176.246121 23.6524232,159.198571 C9.20371742,142.397532 0.4703,120.543386 0.4703,96.6535385 C0.4703,70.1453287 11.2162854,46.1455998 28.5869739,28.7727426 C45.9598311,11.3998854 69.95956,0.6539 96.4699385,0.6539 C122.978148,0.6539 146.9786,11.3998854 164.351457,28.7727426 C181.724315,46.1455998 192.4703,70.1453287 192.4703,96.6535385 C192.4703,123.163917 181.724315,147.164369 164.351457,164.537226 C146.9786,181.907915 122.978148,192.6539 96.4699385,192.6539 Z M72.7897337,56.7094131 L85.4803341,64.0367799 C85.541781,64.0722023 85.6010592,64.1090705 85.6588917,64.1473844 C88.7203951,65.9141647 91.1218861,67.3057572 93.0108373,68.5455395 L93.0108373,26.9040327 C93.0108373,24.9941172 94.5600231,23.4449315 96.4699385,23.4449315 C98.379854,23.4449315 99.9268711,24.9941172 99.9268711,26.9040327 L99.9268711,68.5455395 C101.816545,67.3057572 104.218036,65.9141647 107.27954,64.1473844 C107.336649,64.1090705 107.395927,64.0722023 107.458097,64.0367799 L120.147975,56.7094131 L120.147975,45.9778858 C120.147975,44.0679703 121.69716,42.5209532 123.607076,42.5209532 C125.516991,42.5209532 127.066177,44.0679703 127.066177,45.9778858 L127.066177,122.024619 C127.066177,136.655496 127.064008,136.72345 112.798198,144.958785 C112.740365,144.997822 112.681087,145.03469 112.61964,145.070113 L98.4022641,153.278701 L98.3776853,153.297496 L98.3509378,153.3134 L98.3328652,153.32569 L98.3249132,153.330027 L98.2981657,153.348823 L98.2714182,153.364727 L98.2627434,153.369064 L98.2446708,153.379185 L98.2179233,153.395812 L98.1911758,153.411715 L98.1629825,153.428342 L98.136235,153.4428 L98.1174394,153.452921 L98.1073188,153.457258 L98.0805713,153.471717 L98.052378,153.487621 L98.0437031,153.491958 L97.9677981,153.528826 L97.9396048,153.543284 L97.891893,153.563526 L97.8817724,153.570032 L97.8246628,153.59461 L97.8167109,153.598225 L97.7364684,153.62931 L97.6583947,153.659672 L97.648274,153.664009 L97.617912,153.67413 L97.5889958,153.684251 L97.5788751,153.688588 L97.5579108,153.695094 L97.5275488,153.705215 L97.4986326,153.715336 L97.4964639,153.715336 L97.4906807,153.717504 C97.4436918,153.731962 97.3945343,153.745698 97.343208,153.757987 L97.3330873,153.760156 L97.3121231,153.766662 L97.2550136,153.78112 L97.2506761,153.78112 L97.2181454,153.789072 L97.1870605,153.794855 L97.1668191,153.799193 L97.1566985,153.801361 L97.1234448,153.807145 L97.0909141,153.813651 L97.0807934,153.815819 L97.0605521,153.819434 L96.9969364,153.830278 L96.931152,153.840398 L96.9109107,153.842567 L96.8986213,153.844736 L96.8653677,153.84835 L96.8328369,153.850519 L96.8227163,153.852688 L96.8003062,153.854856 L96.7345218,153.86064 L96.6484961,153.864977 L96.6362067,153.867146 L96.6029531,153.867146 L96.5704224,153.869314 L96.558133,153.869314 L96.5357229,153.869314 L96.4699385,153.87076 L96.4027084,153.869314 L96.3795754,153.869314 L96.3694547,153.869314 L96.3347553,153.867146 L96.3022245,153.867146 L96.2921039,153.864977 L96.2039094,153.86064 L96.1381251,153.854856 L96.115715,153.852688 L96.1055943,153.850519 L96.0723407,153.84835 L96.03981,153.844736 L96.0296893,153.842567 L96.0072792,153.840398 L95.9436636,153.830278 L95.8778792,153.819434 L95.8576379,153.815819 L95.8467943,153.813651 L95.8142636,153.807145 L95.7839015,153.801361 L95.7716121,153.799193 L95.7506479,153.794855 L95.7202859,153.789072 L95.689201,153.78112 L95.6870322,153.78112 L95.6834177,153.78112 L95.6255853,153.766662 L95.605344,153.760156 L95.5952233,153.757987 C95.5460657,153.745698 95.4969082,153.731962 95.4477506,153.717504 L95.4412445,153.715336 L95.4108825,153.705215 L95.3797975,153.695094 L95.3595562,153.688588 L95.3508813,153.684251 L95.3205193,153.67413 L95.2894344,153.664009 L95.2793137,153.659672 L95.2019629,153.62931 L95.1238891,153.598225 L95.1137684,153.59461 L95.055936,153.570032 L95.0458154,153.563526 L94.9988265,153.543284 L94.9699103,153.528826 L94.8940053,153.491958 L94.8860533,153.487621 L94.8571371,153.471717 L94.8303896,153.457258 L94.8202689,153.452921 L94.8021963,153.4428 L94.7754488,153.428342 L94.7487013,153.411715 L94.7197851,153.395812 L94.6937605,153.379185 L94.6771337,153.369064 L94.667013,153.364727 L94.6402655,153.348823 L94.6135181,153.330027 L94.6055661,153.32569 L94.5867706,153.3134 L94.5621918,153.297496 L94.5354443,153.278701 L80.3180682,145.070113 C80.2566213,145.03469 80.1995118,144.997822 80.1402335,144.958785 C65.8758686,136.72345 65.8715312,136.655496 65.8715312,122.024619 L65.8715312,45.9778858 C65.8715312,44.0679703 67.420717,42.5209532 69.3306325,42.5209532 C71.2405479,42.5209532 72.7897337,44.0679703 72.7897337,45.9778858 L72.7897337,56.7094131 Z M87.9743569,98.8692429 L80.3325263,94.4587984 C77.3534341,92.7375612 74.9888113,91.3727162 73.1092578,90.1596814 L72.7897337,89.9753405 L72.7897337,96.7193229 C72.7897337,105.00237 72.7919024,106.897828 77.8305515,110.239818 L85.4680447,114.647371 L85.4781654,114.653877 L85.4825028,114.647371 C88.4514743,116.362825 90.8103139,117.725501 92.6833612,118.934199 L93.0108373,119.122877 L93.0108373,112.38757 L93.0108373,111.891657 L93.0108373,111.709485 C93.0072228,103.998255 92.8698708,102.117256 87.9743569,98.8692429 Z M82.0212328,70.0079767 L72.7897337,64.676551 L72.7897337,71.4140273 C72.7897337,79.694906 72.7919024,81.5903634 77.826937,84.9301853 L85.4680447,89.3420756 C88.4435224,91.0596983 90.8059765,92.4245433 92.6833612,93.6375782 L93.0108373,93.8262564 L93.0108373,87.082274 L93.0108373,86.5885298 L93.0108373,86.4056348 C93.005054,76.3999043 92.7751702,76.2068886 82.2142485,70.1106292 C82.1506328,70.0780985 82.0848485,70.0455678 82.0212328,70.0079767 Z M120.147975,64.676551 L110.916476,70.0079767 C110.853583,70.0455678 110.789967,70.0780985 110.724183,70.1106292 C100.162538,76.2068886 99.9333772,76.3999043 99.9268711,86.4056348 L99.9268711,86.5885298 L99.9268711,87.082274 L99.9268711,93.8262564 L100.257239,93.6354094 C102.133901,92.4245433 104.494909,91.0596983 107.470387,89.3420756 L115.111494,84.9301853 C120.146529,81.5903634 120.147975,79.694906 120.147975,71.4140273 L120.147975,64.676551 Z M119.828451,90.1596814 C117.94962,91.3727162 115.584997,92.7375612 112.605182,94.4587984 L104.966243,98.8692429 C100.068561,102.117256 99.9312085,104.000424 99.9268711,111.709485 L99.9268711,111.891657 L99.9268711,112.38757 L99.9268711,119.122877 L100.257239,118.934199 C102.129563,117.725501 104.488403,116.362825 107.458097,114.647371 L107.459543,114.653877 L107.470387,114.647371 L115.107157,110.239818 C120.146529,106.897828 120.147975,105.00237 120.147975,96.7193229 L120.147975,89.9753405 L119.828451,90.1596814 Z M87.9642363,124.178153 L80.3180682,119.764817 C80.2566213,119.729395 80.1995118,119.692526 80.1402335,119.65349 C77.255119,117.987916 74.9533889,116.655602 73.1179327,115.469314 L72.7897337,115.280636 L72.7897337,122.024619 C72.7897337,132.702651 72.7919024,132.764821 83.5848767,138.996263 C83.6506611,139.028794 83.7135538,139.061325 83.7771695,139.098193 L93.0108373,144.430342 L93.0108373,137.695034 L93.0108373,137.199121 L93.0108373,137.01478 C93.0072228,129.309334 92.8698708,127.430503 87.9642363,124.178153 Z M119.820499,115.469314 C117.984319,116.655602 115.683312,117.987916 112.798198,119.65349 C112.740365,119.692526 112.681087,119.729395 112.61964,119.764817 L104.976364,124.176707 C100.070729,127.430503 99.9312085,129.309334 99.9268711,137.01478 L99.9268711,137.199121 L99.9268711,137.695034 L99.9268711,144.430342 L109.160539,139.098193 C109.224155,139.061325 109.28777,139.028794 109.353555,138.996263 C120.147975,132.764821 120.147975,132.702651 120.147975,122.024619 L120.147975,115.280636 L119.820499,115.469314 Z"/>
</svg>
