<svg width="24" height="24" viewBox="0 0 24 24" fill="none" xmlns="http://www.w3.org/2000/svg">
<path d="M6 3.60001C5.68174 3.60001 5.37652 3.72643 5.15148 3.95148C4.92643 4.17652 4.8 4.48175 4.8 4.80001C4.8 5.11827 4.92643 5.42349 5.15148 5.64853C5.37652 5.87358 5.68174 6.00001 6 6.00001C12.6276 6.00001 18 11.3724 18 18C18 18.3183 18.1264 18.6235 18.3515 18.8485C18.5765 19.0736 18.8817 19.2 19.2 19.2C19.5183 19.2 19.8235 19.0736 20.0485 18.8485C20.2736 18.6235 20.4 18.3183 20.4 18C20.4 10.0476 13.9524 3.60001 6 3.60001Z" fill="#0D6763"/>
<path d="M4.80001 10.8C4.80001 10.4817 4.92643 10.1765 5.15148 9.95148C5.37652 9.72643 5.68175 9.60001 6.00001 9.60001C8.22782 9.60001 10.3644 10.485 11.9397 12.0603C13.515 13.6356 14.4 15.7722 14.4 18C14.4 18.3183 14.2736 18.6235 14.0485 18.8485C13.8235 19.0736 13.5183 19.2 13.2 19.2C12.8817 19.2 12.5765 19.0736 12.3515 18.8485C12.1264 18.6235 12 18.3183 12 18C12 16.4087 11.3679 14.8826 10.2426 13.7574C9.11743 12.6321 7.59131 12 6.00001 12C5.68175 12 5.37652 11.8736 5.15148 11.6485C4.92643 11.4235 4.80001 11.1183 4.80001 10.8ZM3.60001 18C3.60001 17.3635 3.85286 16.753 4.30295 16.303C4.75304 15.8529 5.36349 15.6 6.00001 15.6C6.63653 15.6 7.24698 15.8529 7.69706 16.303C8.14715 16.753 8.40001 17.3635 8.40001 18C8.40001 18.6365 8.14715 19.247 7.69706 19.6971C7.24698 20.1472 6.63653 20.4 6.00001 20.4C5.36349 20.4 4.75304 20.1472 4.30295 19.6971C3.85286 19.247 3.60001 18.6365 3.60001 18Z" fill="#0D6763"/>
</svg>
