<svg width="16" height="16" fill="none" viewBox="0 0 16 16"  xmlns="http://www.w3.org/2000/svg">
<path d="M5.375 2.25V1.5H4.91147L4.70418 1.91459L5.375 2.25ZM10.625 2.25L11.2958 1.91459L11.0885 1.5H10.625V2.25ZM4.5 4V4.75H4.96353L5.17082 4.33541L4.5 4ZM11.5 4L10.8292 4.33541L11.0365 4.75H11.5V4ZM5.375 3H10.625V1.5H5.375V3ZM5.17082 4.33541L6.04582 2.58541L4.70418 1.91459L3.82918 3.66459L5.17082 4.33541ZM2 4.75H4.5V3.25H2V4.75ZM1.75 5C1.75 4.86193 1.86193 4.75 2 4.75V3.25C1.0335 3.25 0.25 4.0335 0.25 5H1.75ZM1.75 12.625V5H0.25V12.625H1.75ZM2 12.875C1.86193 12.875 1.75 12.7631 1.75 12.625H0.25C0.25 13.5915 1.0335 14.375 2 14.375V12.875ZM14 12.875H2V14.375H14V12.875ZM14.25 12.625C14.25 12.7631 14.1381 12.875 14 12.875V14.375C14.9665 14.375 15.75 13.5915 15.75 12.625H14.25ZM14.25 5V12.625H15.75V5H14.25ZM14 4.75C14.1381 4.75 14.25 4.86193 14.25 5H15.75C15.75 4.0335 14.9665 3.25 14 3.25V4.75ZM11.5 4.75H14V3.25H11.5V4.75ZM9.95418 2.58541L10.8292 4.33541L12.1708 3.66459L11.2958 1.91459L9.95418 2.58541Z" fill="currentColor"/>
<path fill-rule="evenodd" clip-rule="evenodd" d="M8 11C9.44975 11 10.625 9.82475 10.625 8.375C10.625 6.92525 9.44975 5.75 8 5.75C6.55025 5.75 5.375 6.92525 5.375 8.375C5.375 9.82475 6.55025 11 8 11Z" stroke="currentColor" stroke-width="1.5"/>
</svg>
