<svg width="24" height="24" viewBox="0 0 24 24" fill="none" xmlns="http://www.w3.org/2000/svg">
<path d="M6.09768 8.54014C9.35929 5.15329 14.6439 5.15329 17.9109 8.54014L18.3036 8.94743C18.3425 8.98715 18.3736 9.03481 18.3947 9.08754C18.4159 9.14028 18.4268 9.19701 18.4268 9.25433C18.4268 9.31166 18.4159 9.36839 18.3947 9.42113C18.3736 9.47386 18.3425 9.52152 18.3036 9.56124L16.9611 10.9564C16.921 10.996 16.8682 11.0181 16.8134 11.0181C16.7586 11.0181 16.7058 10.996 16.6657 10.9564L16.1248 10.3976C15.021 9.26127 13.5432 8.62568 12.0048 8.62568C10.4665 8.62568 8.98865 9.26127 7.88481 10.3976L7.30821 10.9954C7.26891 11.0366 7.21585 11.0598 7.16055 11.0598C7.10524 11.0598 7.05218 11.0366 7.01288 10.9954L5.66713 9.60025C5.62816 9.56053 5.59715 9.51287 5.57597 9.46013C5.5548 9.4074 5.54388 9.35066 5.54388 9.29334C5.54388 9.23602 5.5548 9.17929 5.57597 9.12655C5.59715 9.07381 5.62816 9.02616 5.66713 8.98644L6.09768 8.54014ZM20.6868 11.4222L21.8767 12.6613C21.9157 12.701 21.9467 12.7486 21.9679 12.8014C21.9891 12.8541 22 12.9108 22 12.9682C22 13.0255 21.9891 13.0822 21.9679 13.135C21.9467 13.1877 21.9157 13.2354 21.8767 13.2751L16.4883 18.8716C16.4096 18.9539 16.3035 19 16.193 19C16.0825 19 15.9764 18.9539 15.8977 18.8716L12.0757 14.8962C12.0557 14.8765 12.0294 14.8656 12.0021 14.8656C11.9748 14.8656 11.9486 14.8765 11.9286 14.8962L8.10549 18.8693C8.02676 18.9516 7.92068 18.9977 7.81016 18.9977C7.69965 18.9977 7.59356 18.9516 7.51483 18.8693L2.12317 13.2785C2.08423 13.2389 2.05324 13.1913 2.03208 13.1387C2.01091 13.086 2 13.0294 2 12.9722C2 12.915 2.01091 12.8583 2.03208 12.8057C2.05324 12.753 2.08423 12.7055 2.12317 12.6659L3.31314 11.4268C3.39214 11.345 3.49812 11.2993 3.60847 11.2993C3.71882 11.2993 3.8248 11.345 3.9038 11.4268L7.73011 15.3999C7.75017 15.4199 7.77668 15.431 7.80421 15.431C7.83175 15.431 7.85825 15.4199 7.87832 15.3999L11.7003 11.4268C11.7793 11.345 11.8853 11.2993 11.9956 11.2993C12.106 11.2993 12.212 11.345 12.291 11.4268L16.1173 15.3999C16.1373 15.4199 16.1638 15.431 16.1914 15.431C16.2189 15.431 16.2454 15.4199 16.2655 15.3999L20.0918 11.4268C20.1304 11.3848 20.1765 11.3513 20.2274 11.3283C20.2784 11.3053 20.3331 11.2933 20.3884 11.2929C20.4437 11.2924 20.4986 11.3036 20.5498 11.3258C20.601 11.348 20.6476 11.3808 20.6868 11.4222V11.4222Z" fill="#3A99FC"/>
</svg>
