<svg xmlns="http://www.w3.org/2000/svg" fill="none" width="24" height="24" viewBox="0 0 24 24">
  <g fill-rule="evenodd" stroke="currentColor" stroke-linecap="round" stroke-linejoin="round" stroke-width="1.2" transform="translate(3.5 4)">
    <path d="M13.7754,15.3703 C15.2001,15.3703 16.3551,12.0734 16.3551,8.0064 C16.3551,3.93949 15.2001,0.64258 13.7754,0.64258 C12.3507,0.64258 11.1957,3.93949 11.1957,8.0064 C11.1957,12.0734 12.3507,15.3703 13.7754,15.3703 Z"/>
    <path d="M13.7754,0.64258 C13.5433,0.64258 13.324,0.73254 13.1176,0.89961 L1.54781,5.34619 C1.04478,5.34619 0.64493,6.5028 0.64493,7.9165 C0.64493,9.3301 1.04478,10.4868 1.54781,10.4868 L13.0918,15.0747 C13.3111,15.2418 13.5433,15.3446 13.7754,15.3446 C15.1942,15.3446 16.3551,12.0546 16.3551,7.9807 C16.3551,3.90683 15.1942,0.64258 13.7754,0.64258 Z"/>
    <path d="M3.44383 11.2578L3.44383 14.0337C3.44383 14.7662 4.03716 15.3703 4.78526 15.3703 5.52046 15.3703 6.12669 14.7791 6.12669 14.0337L6.12669 12.3116M11.286 6.1173L12.047 6.1173C13.0015 6.1173 13.7754 6.8884 13.7754 7.8394 13.7754 8.7904 13.0015 9.5615 12.047 9.5615L11.286 9.5615"/>
  </g>
</svg>
