<svg width="20" height="20" viewBox="0 0 20 20" fill="none" xmlns="http://www.w3.org/2000/svg">
<path d="M14.3012 9.79822V10.2015C14.3012 10.4232 14.1197 10.6047 13.8979 10.6047H10.6049V13.8977C10.6049 14.1195 10.4235 14.3009 10.2017 14.3009H9.79847C9.57669 14.3009 9.39524 14.1195 9.39524 13.8977V10.6047H6.10223C5.88046 10.6047 5.69901 10.4232 5.69901 10.2015V9.79822C5.69901 9.57645 5.88046 9.395 6.10223 9.395H9.39524V6.10199C9.39524 5.88021 9.57669 5.69876 9.79847 5.69876H10.2017C10.4235 5.69876 10.6049 5.88021 10.6049 6.10199V9.395H13.8979C14.1197 9.395 14.3012 9.57645 14.3012 9.79822ZM18.3334 9.99984C18.3334 14.6033 14.6036 18.3332 10.0001 18.3332C5.39659 18.3332 1.66675 14.6033 1.66675 9.99984C1.66675 5.39634 5.39659 1.6665 10.0001 1.6665C14.6036 1.6665 18.3334 5.39634 18.3334 9.99984ZM17.2581 9.99984C17.2581 5.97094 13.9887 2.74177 10.0001 2.74177C5.97118 2.74177 2.74202 6.01126 2.74202 9.99984C2.74202 14.0287 6.01151 17.2579 10.0001 17.2579C14.029 17.2579 17.2581 13.9884 17.2581 9.99984Z" fill="currentColor"/>
</svg>
