<svg width="24" height="24" fill="none" viewBox="0 0 24 24"  xmlns="http://www.w3.org/2000/svg">
<path d="M9 5V4.25C8.71592 4.25 8.45622 4.4105 8.32918 4.66459L9 5ZM15 5L15.6708 4.66459C15.5438 4.4105 15.2841 4.25 15 4.25V5ZM8 7V7.75C8.28408 7.75 8.54378 7.5895 8.67082 7.33541L8 7ZM16 7L15.3292 7.33541C15.4562 7.5895 15.7159 7.75 16 7.75V7ZM9 5.75H15V4.25H9V5.75ZM8.67082 7.33541L9.67082 5.33541L8.32918 4.66459L7.32918 6.66459L8.67082 7.33541ZM5 7.75H8V6.25H5V7.75ZM4.75 8C4.75 7.86193 4.86193 7.75 5 7.75V6.25C4.0335 6.25 3.25 7.0335 3.25 8H4.75ZM4.75 17V8H3.25V17H4.75ZM5 17.25C4.86193 17.25 4.75 17.1381 4.75 17H3.25C3.25 17.9665 4.0335 18.75 5 18.75V17.25ZM19 17.25H5V18.75H19V17.25ZM19.25 17C19.25 17.1381 19.1381 17.25 19 17.25V18.75C19.9665 18.75 20.75 17.9665 20.75 17H19.25ZM19.25 8V17H20.75V8H19.25ZM19 7.75C19.1381 7.75 19.25 7.86193 19.25 8H20.75C20.75 7.0335 19.9665 6.25 19 6.25V7.75ZM16 7.75H19V6.25H16V7.75ZM14.3292 5.33541L15.3292 7.33541L16.6708 6.66459L15.6708 4.66459L14.3292 5.33541Z" fill="currentColor"/>
<path fill-rule="evenodd" clip-rule="evenodd" d="M12 15C13.6569 15 15 13.6569 15 12C15 10.3431 13.6569 9 12 9C10.3431 9 9 10.3431 9 12C9 13.6569 10.3431 15 12 15Z" stroke="white" stroke-width="1.5" stroke-linecap="round" stroke-linejoin="round"/>
</svg>
