<svg width="24" height="24" viewBox="0 0 24 24" fill="none" xmlns="http://www.w3.org/2000/svg">
<path d="M14.1429 21.8569H6.42857C5.51926 21.8569 4.64719 21.4957 4.00421 20.8527C3.36122 20.2097 3 19.3377 3 18.4284V9.85693H17.5714V18.4284C17.5714 19.3377 17.2102 20.2097 16.5672 20.8527C15.9242 21.4957 15.0522 21.8569 14.1429 21.8569Z" stroke="currentColor" stroke-width="1.5" stroke-miterlimit="10"/>
<path d="M12.4287 9.85686V6.42829C12.4287 5.29165 12.8802 4.20156 13.684 3.39783C14.4877 2.59411 15.5778 2.14258 16.7144 2.14258V2.14258C17.8511 2.14258 18.9412 2.59411 19.7449 3.39783C20.5486 4.20156 21.0001 5.29165 21.0001 6.42829V9.85686" stroke="currentColor" stroke-width="1.5" stroke-miterlimit="10"/>
<path d="M10.286 17.9996C10.1581 18.0009 10.0333 17.9595 9.93163 17.8818C9.82992 17.8042 9.75706 17.6948 9.7246 17.571L9.0346 15.2653C8.99515 15.0786 8.99777 14.8854 9.04226 14.6998C9.08675 14.5142 9.172 14.3409 9.29182 14.1923C9.41164 14.0438 9.56302 13.9238 9.73499 13.841C9.90695 13.7583 10.0952 13.7148 10.286 13.7139C10.4755 13.7152 10.6624 13.7584 10.8333 13.8405C11.0041 13.9225 11.1547 14.0412 11.2743 14.1883C11.3939 14.3353 11.4795 14.5069 11.525 14.6909C11.5705 14.8749 11.5747 15.0666 11.5375 15.2524L10.8475 17.571C10.815 17.6948 10.7421 17.8042 10.6404 17.8818C10.5387 17.9595 10.414 18.0009 10.286 17.9996Z" fill="currentColor"/>
</svg>
