<svg width="24" height="24" viewBox="0 0 24 24" fill="none" xmlns="http://www.w3.org/2000/svg">
<path d="M12.5149 0.0510785C12.5895 0.163549 12.7098 0.217575 12.8208 0.281423C14.4657 1.23423 16.1107 2.18557 17.7561 3.13641C19.128 3.92911 20.5005 4.72132 21.8724 5.51353C22.0988 5.64417 22.3246 5.77629 22.5539 5.90202C22.6777 5.96979 22.7278 6.06508 22.7278 6.20603C22.7258 10.0674 22.7258 13.9287 22.7278 17.79C22.7278 17.9256 22.6787 18.0169 22.5598 18.0852C21.6932 18.5822 20.8285 19.0822 19.9628 19.5817C18.5329 20.4068 17.103 21.2319 15.6737 22.0585C14.6499 22.6504 13.628 23.2456 12.6033 23.836C12.5149 23.8865 12.4545 24.0054 12.3587 24C12.2713 23.9951 12.2099 23.8856 12.1245 23.8365C10.7722 23.057 9.42091 22.2746 8.0696 21.4932C6.96135 20.8523 5.85359 20.2109 4.74534 19.5704C3.89389 19.0783 3.04245 18.5862 2.18855 18.0985C2.05303 18.0214 2 17.9217 2 17.767C2.00344 13.9208 2.00344 10.0752 2.00049 6.22961C2.00049 6.06999 2.05598 5.9693 2.19494 5.88974C3.42103 5.18741 4.64419 4.48115 5.86783 3.77489C6.81404 3.22875 7.75976 2.68113 8.70597 2.134C9.80391 1.49896 10.9018 0.863914 11.9998 0.22838C12.0813 0.18123 12.1618 0.133099 12.2149 0.0515696C12.236 0.0181721 12.2767 0.0196456 12.3057 0H12.423C12.452 0.0196456 12.4928 0.0181721 12.5144 0.0510785H12.5149Z" fill="#336D6F"/>
<path d="M12.3057 0C12.2836 0.0324152 12.2482 0.0402734 12.2144 0.0510785L12.2355 0H12.3057Z" fill="#72CED1"/>
<path d="M12.5149 0.0510785C12.4805 0.0402734 12.4452 0.0324152 12.4231 0H12.4933L12.5144 0.0510785H12.5149Z" fill="#72CED1"/>
<path d="M11.7687 15.7258C11.722 15.6845 11.7446 15.63 11.7446 15.5824C11.7431 13.8983 11.7436 12.2137 11.7436 10.5295C11.7436 10.3763 11.7431 10.3753 11.611 10.4426C11.5418 10.478 11.4736 10.5163 11.4063 10.5556C11.3557 10.5855 11.3066 10.5998 11.2531 10.5644C11.205 10.5389 11.2001 10.4898 11.1883 10.4451C11.0198 9.8002 10.5882 9.4117 9.97445 9.20395C9.56247 9.06447 9.1343 9.03353 8.70367 9.02174C8.64327 9.02027 8.57698 9.04089 8.52641 8.98736C7.99659 8.6804 7.46726 8.37393 6.93793 8.06697C6.41155 7.76197 5.88615 7.4555 5.35928 7.15148C4.87316 6.87055 4.38655 6.59011 3.89749 6.31409C3.80419 6.26154 3.76245 6.1972 3.76294 6.09062C3.76638 5.65204 3.73103 5.76451 4.08408 5.55675C4.58836 5.2606 5.0951 4.96837 5.60135 4.67516C6.09091 4.39177 6.58095 4.11035 7.07051 3.82745C7.54337 3.55438 8.01574 3.28082 8.4886 3.00774C8.97471 2.72681 9.46132 2.44588 9.94744 2.16544C10.3324 1.94295 10.7188 1.72292 11.1018 1.49749C11.231 1.42136 11.3341 1.37765 11.4922 1.47244C11.6901 1.59081 11.9189 1.66349 12.1625 1.64532C12.3412 1.63206 12.5209 1.66399 12.6992 1.62273C12.8715 1.58295 13.035 1.51959 13.1853 1.42922C13.2928 1.36488 13.3758 1.35309 13.4946 1.42284C14.2817 1.885 15.0752 2.33488 15.8658 2.79115C16.6495 3.24349 17.4307 3.69927 18.2144 4.15161C19.113 4.66976 20.013 5.18545 20.9126 5.70213C21.0746 5.79496 21.1355 5.94819 21.0776 6.12598C21.0609 6.17755 21.0172 6.20506 20.9725 6.23109C20.6352 6.42656 20.2978 6.62203 19.9605 6.81751C19.1169 7.3057 18.2733 7.79438 17.4292 8.28258C16.8758 8.6028 16.3215 8.92204 15.7676 9.24128C15.7578 9.24668 15.745 9.24717 15.7337 9.24963C15.7214 9.23931 15.7121 9.22654 15.7072 9.21181C15.6735 9.10605 15.6 9.05301 15.4867 9.05268C14.3294 9.05268 13.1725 9.05268 12.0152 9.05268C11.9916 9.05268 11.968 9.05268 11.9449 9.05268C11.8227 9.0571 11.8099 9.06889 11.805 9.18725C11.803 9.22998 11.8045 9.2732 11.8045 9.31642C11.8045 11.3772 11.8045 13.4381 11.8035 15.4989C11.8035 15.5755 11.8222 15.6565 11.7687 15.7253V15.7258Z" fill="#449193"/>
<path d="M19.0648 8.91957C19.4242 8.70838 19.7836 8.4967 20.1435 8.28698C20.4298 8.12 20.7151 7.95055 21.0058 7.79191C21.2209 7.67453 21.4389 7.56108 21.6476 7.4324C21.6918 7.40539 21.7266 7.42405 21.7649 7.45106C21.8474 7.50951 21.9245 7.5768 22.0193 7.61658C22.0566 7.63229 22.0713 7.66029 22.0684 7.70007C22.0664 7.72365 22.0684 7.74722 22.0684 7.7703C22.0684 10.5948 22.0679 13.4194 22.0708 16.2439C22.0708 16.3485 22.0414 16.4026 21.9461 16.4507C21.6206 16.6152 21.3628 16.8618 21.2047 17.1884C21.0844 17.4364 21.0019 17.7056 21.0362 17.9914C21.0564 18.1599 20.9827 18.2517 20.8369 18.3332C20.2344 18.6702 19.6398 19.0213 19.0422 19.3666C18.532 19.6613 18.0213 19.9545 17.5116 20.2492C16.671 20.7354 15.8308 21.2221 14.9902 21.7088C14.4908 21.9981 13.991 22.2869 13.4911 22.5757C13.4224 22.6155 13.3556 22.6297 13.2839 22.5801C13.2358 22.5467 13.1857 22.5148 13.1317 22.4927C13.0624 22.4647 13.0423 22.4102 13.0349 22.3458C13.031 22.311 13.034 22.2756 13.034 22.2402C13.034 19.4471 13.0349 16.654 13.031 13.8604C13.031 13.7146 13.0816 13.636 13.2097 13.5687C13.5068 13.4135 13.7307 13.1763 13.9006 12.888C13.9517 12.8384 14.0175 12.8506 14.0784 12.8502C14.4997 12.8487 14.921 12.8502 15.3428 12.8492C15.5215 12.8492 15.5294 12.8408 15.5298 12.667C15.5303 12.472 15.5313 12.2765 15.5298 12.0815C15.5289 11.9519 15.5176 11.9401 15.3894 11.9391C15.0226 11.9371 14.6558 11.9391 14.289 11.9376C14.2281 11.9376 14.1623 11.9499 14.1122 11.8983C14.0931 11.7991 14.153 11.748 14.2281 11.7043C14.5861 11.4976 14.9431 11.2903 15.301 11.083C15.5608 10.9327 15.8205 10.7825 16.0803 10.6322C16.1382 10.6955 16.1142 10.7736 16.1142 10.8448C16.1156 11.277 16.2433 11.6636 16.5365 11.9838C16.7849 12.2549 17.1026 12.4224 17.4458 12.5447C17.877 12.6984 18.3208 12.8118 18.7549 12.9567C18.97 13.0284 19.1693 13.1286 19.3157 13.3054C19.6825 13.7494 19.4895 14.4852 18.9484 14.7121C18.6685 14.8294 18.3758 14.8442 18.0748 14.827C17.603 14.8 17.1606 14.6684 16.727 14.4925C16.6361 14.4557 16.5487 14.4115 16.4628 14.3658C16.4019 14.3334 16.3636 14.3354 16.3405 14.41C16.263 14.6561 16.1913 14.9041 16.1107 15.1497C16.0832 15.2337 16.1328 15.269 16.1967 15.3039C16.6214 15.5347 17.0766 15.6688 17.5524 15.7395C18.0714 15.8166 18.5885 15.8112 19.1016 15.6943C19.5661 15.5883 19.9795 15.3879 20.2977 15.0225C20.4568 14.8398 20.5653 14.6286 20.6262 14.3938C20.7406 13.9542 20.723 13.5171 20.5855 13.0869C20.4514 12.6665 20.147 12.3944 19.7738 12.1856C19.4301 11.9936 19.0603 11.8674 18.6857 11.753C18.4127 11.6695 18.1411 11.5811 17.8725 11.4838C17.3231 11.2849 17.1463 10.6449 17.5161 10.1877C17.6545 10.0163 17.8539 9.93721 18.0675 9.90332C18.3862 9.85273 18.7063 9.85863 19.0245 9.9102C19.3697 9.96619 19.7011 10.0693 20.0237 10.2039C20.1465 10.255 20.1524 10.251 20.2035 10.1268C20.2869 9.92444 20.3665 9.72013 20.4553 9.52023C20.4951 9.43085 20.4706 9.38763 20.3881 9.34539C20.0075 9.15139 19.6029 9.03744 19.1826 8.97507C19.1374 8.96819 19.0859 8.97458 19.0633 8.91908L19.0648 8.91957Z" fill="#449193"/>
<path d="M10.705 12.5972C10.8465 13.0407 11.1396 13.3585 11.5393 13.58C11.6493 13.6409 11.6974 13.7097 11.6974 13.8364C11.695 16.6447 11.6954 19.4525 11.695 22.2609C11.695 22.3493 11.7063 22.4411 11.6002 22.4907C11.4686 22.5526 11.3699 22.6577 11.1897 22.5487C10.5194 22.143 9.83396 21.7614 9.15536 21.3695C8.48364 20.981 7.81338 20.59 7.14166 20.2015C6.55782 19.8641 5.97252 19.5282 5.3877 19.1922C4.86034 18.8892 4.33248 18.5862 3.80561 18.2826C3.7133 18.2296 3.68531 18.1446 3.69415 18.043C3.73098 17.6196 3.58907 17.2513 3.33815 16.9212C3.1825 16.7164 2.97872 16.5637 2.75236 16.4458C2.67085 16.4035 2.63844 16.3466 2.63844 16.2616C2.63844 16.238 2.63844 16.2145 2.63844 16.1914C2.63844 13.4263 2.63893 10.6612 2.63647 7.89604C2.63647 7.75999 2.66299 7.66078 2.8103 7.62002C2.87217 7.60283 2.93846 7.56845 2.98167 7.52228C3.07398 7.42307 3.15647 7.45892 3.25026 7.51344C4.2662 8.10133 5.28312 8.68726 6.29954 9.27417C6.34619 9.30119 6.38695 9.33999 6.44832 9.3503C6.49006 9.2339 6.42181 9.10522 6.48712 8.99275C6.5539 9.11063 6.52149 9.23734 6.51461 9.35963C6.5097 9.44902 6.49988 9.53841 6.49988 9.62878C6.49988 11.5761 6.49988 13.5235 6.49988 15.4709C6.49988 15.6179 6.57223 15.6916 6.71692 15.6919C6.97863 15.6919 7.24084 15.6924 7.50256 15.6919C7.66067 15.6919 7.66853 15.684 7.66853 15.5269C7.66951 14.8073 7.66853 14.0878 7.66853 13.3683C7.66853 13.1119 7.68326 13.1168 7.93516 13.1232C8.50868 13.1375 9.08465 13.1753 9.65277 13.053C9.99207 12.9798 10.3142 12.8639 10.5887 12.6414C10.6216 12.6144 10.655 12.5845 10.7041 12.5992L10.705 12.5972Z" fill="#449193"/>
<path d="M10.7051 12.5972C10.2887 12.9602 9.78688 13.0972 9.25264 13.1478C8.78027 13.1925 8.3079 13.1836 7.83553 13.1478C7.73094 13.1399 7.69706 13.1606 7.69804 13.274C7.70344 14.0525 7.69902 14.8304 7.70344 15.6089C7.70394 15.7091 7.67398 15.7317 7.57872 15.7297C7.25415 15.7238 6.92958 15.7233 6.60501 15.7297C6.49944 15.7322 6.46851 15.7061 6.469 15.5961C6.47244 13.6208 6.47096 11.6459 6.47244 9.67053C6.47244 9.44412 6.48226 9.2177 6.48717 8.99129C7.16724 8.98981 7.84732 8.98785 8.5269 8.98637C8.93985 8.99374 9.35232 9.00749 9.75692 9.10523C10.3354 9.2452 10.8053 9.53448 11.0891 10.0782C11.1691 10.2314 11.2094 10.3979 11.2531 10.5634C11.2968 10.9097 11.2958 11.254 11.2305 11.5987C11.1573 11.9867 10.9766 12.3148 10.7051 12.5967V12.5972Z" fill="#FEFEFE"/>
<path d="M19.0648 8.91957C19.2902 8.96525 19.5185 8.99521 19.7399 9.06004C19.9918 9.13371 20.2334 9.23095 20.4676 9.3503C20.533 9.3837 20.5364 9.41415 20.5099 9.47603C20.4068 9.7162 20.3056 9.95784 20.2104 10.2014C20.1789 10.282 20.149 10.2957 20.0675 10.2599C19.5804 10.0482 19.0756 9.90332 18.5389 9.90038C18.2683 9.8989 18.0002 9.91413 17.7518 10.0423C17.4513 10.1975 17.3648 10.4681 17.3668 10.7766C17.3688 11.1002 17.5298 11.3286 17.8362 11.4357C18.2782 11.5899 18.7265 11.7274 19.1689 11.8806C19.517 12.001 19.847 12.1591 20.1382 12.3919C20.475 12.6616 20.6444 13.0206 20.7038 13.4371C20.7583 13.8211 20.7426 14.2013 20.6037 14.5691C20.4274 15.0352 20.0856 15.3412 19.6437 15.5455C19.108 15.7931 18.5384 15.8427 17.9595 15.8127C17.4007 15.7842 16.8635 15.659 16.3538 15.4203C16.0425 15.2744 16.041 15.2779 16.1417 14.9503C16.2001 14.7602 16.263 14.5711 16.3165 14.3791C16.3391 14.298 16.3597 14.275 16.4451 14.3201C16.8871 14.5544 17.3555 14.7116 17.8524 14.7759C18.203 14.8211 18.5536 14.8304 18.8934 14.7032C19.2602 14.5657 19.4394 14.2946 19.4664 13.9105C19.4949 13.5073 19.3015 13.2406 18.9523 13.0717C18.6626 12.9312 18.3464 12.8683 18.0415 12.7721C17.6658 12.6532 17.2833 12.5511 16.9411 12.3467C16.3415 11.9887 16.069 11.4529 16.0823 10.7623C16.0833 10.7196 16.0823 10.6764 16.0818 10.6336C16.1545 9.71178 16.7491 9.20738 17.575 8.99324C18.0032 8.88224 18.4402 8.87586 18.8787 8.91171C18.941 8.91662 19.0034 8.91712 19.0658 8.92006L19.0648 8.91957Z" fill="#FEFEFE"/>
<path d="M14.1128 11.8988C14.5547 11.9003 14.9966 11.9042 15.4385 11.9003C15.5338 11.8993 15.5662 11.9214 15.5632 12.0216C15.5559 12.2716 15.5574 12.5226 15.5628 12.7726C15.5647 12.861 15.5372 12.8855 15.4498 12.8845C14.9765 12.8806 14.5031 12.8826 14.0303 12.8831C13.9875 12.8831 13.9443 12.8865 13.9016 12.888C13.6247 12.886 13.3472 12.887 13.0703 12.8811C12.9682 12.8791 12.9947 12.9479 12.9947 13.0004C12.9937 13.8639 12.9917 14.7273 12.9971 15.5907C12.9976 15.7037 12.9706 15.7376 12.8572 15.7302C12.6976 15.7204 12.5375 15.7302 12.3775 15.7312C12.3696 15.739 12.3617 15.7395 12.3534 15.7312C12.159 15.7292 11.964 15.7272 11.7696 15.7253C11.7691 14.6379 11.7681 13.551 11.7676 12.4636C11.7671 11.3532 11.7676 10.2422 11.7632 9.13174C11.7632 9.03401 11.7882 9.00945 11.8854 9.00994C13.113 9.01338 14.3406 9.0124 15.5687 9.0124C15.679 9.0124 15.7333 9.06806 15.7317 9.17938C15.7317 9.20296 15.7336 9.22604 15.7346 9.24962C15.7002 9.4667 15.7135 9.68673 15.6968 9.90529C15.6909 9.98387 15.6644 10.0001 15.5917 10.0001C15.2087 9.99811 14.8252 10.0016 14.4422 10.003C14.3597 10.031 14.2753 10.0394 14.1884 10.0389C13.8442 10.0374 13.5004 10.0389 13.1562 10.0379C13.0728 10.0379 13.0305 10.0595 13.0232 10.1548C12.9795 10.7166 13.0065 11.279 12.9986 11.8409C12.9986 11.8605 12.9976 11.8802 13.0109 11.8964C13.3782 11.8973 13.746 11.8983 14.1132 11.8993L14.1128 11.8988Z" fill="#FEFEFE"/>
<path d="M13.0105 11.8959C12.9722 11.8654 12.9919 11.8232 12.9919 11.7873C12.9914 11.2294 12.9943 10.671 12.9914 10.113C12.9909 10.0217 13.0144 9.99419 13.1077 9.99566C13.5526 10.002 13.997 10.0006 14.4419 10.002C14.1291 10.1852 13.8158 10.3675 13.504 10.5516C13.4353 10.5924 13.3758 10.5924 13.3091 10.5462C13.2516 10.5064 13.1848 10.4804 13.1254 10.4436C13.04 10.391 13.0085 10.4013 13.01 10.5114C13.0149 10.9219 13.012 11.3325 13.012 11.7431C13.012 11.7942 13.0115 11.8448 13.011 11.8959H13.0105Z" fill="#449193"/>
<path d="M12.353 15.7317H12.3771V22.2766H12.353V15.7317Z" fill="#3B7577"/>
<path d="M5.50208 12.3698C5.50208 13.4489 5.5006 14.5284 5.50453 15.6074C5.50453 15.7042 5.48195 15.7322 5.38325 15.7302C5.04346 15.7238 4.70317 15.7253 4.36289 15.7297C4.28187 15.7307 4.25781 15.7096 4.25781 15.6261C4.26027 13.4557 4.26027 11.2859 4.25781 9.11554C4.25781 9.03401 4.27942 9.00945 4.36191 9.01043C4.7017 9.01485 5.04198 9.01633 5.38227 9.00994C5.47998 9.00798 5.50502 9.0345 5.50453 9.13224C5.5011 10.2113 5.50208 11.2908 5.50208 12.3698Z" fill="#FEFEFE"/>
<path d="M10.0466 11.4313C9.93465 11.919 9.59437 12.1424 9.13182 12.2313C8.78319 12.2981 8.43162 12.276 8.08102 12.2765C7.95778 12.2765 7.7977 12.33 7.7211 12.2495C7.65088 12.1758 7.70146 12.0187 7.70146 11.8978C7.70146 11.2967 7.70441 10.695 7.70588 10.0939C7.75351 10.0742 7.78935 10.1037 7.8252 10.1248C8.52737 10.5349 9.23347 10.9382 9.93711 11.3448C9.97737 11.3684 10.0196 11.3905 10.0466 11.4313Z" fill="#449193"/>
<path d="M10.0466 11.4313C9.79962 11.3158 9.57228 11.1651 9.33609 11.0305C8.79105 10.7211 8.24945 10.4063 7.70637 10.0939C7.69213 9.92051 7.69213 9.91953 7.86104 9.92051C8.21655 9.92297 8.57254 9.92002 8.92805 9.93279C9.17995 9.94163 9.41859 10.0104 9.6366 10.1464C9.90667 10.3154 10.0397 10.5654 10.0736 10.8714C10.0942 11.058 10.0918 11.2461 10.0471 11.4308L10.0466 11.4313Z" fill="#336D6F"/>
</svg>
