<svg width="16" height="17" viewBox="0 0 16 17" fill="none" xmlns="http://www.w3.org/2000/svg">
<path d="M2.56445 7.93885C3.14156 5.45576 5.36646 3.61053 8.0242 3.61053C10.6819 3.61053 12.8689 5.43298 13.4688 7.88569" stroke="#C0A46B" stroke-width="0.8" stroke-linecap="round" stroke-linejoin="round"/>
<path d="M9.35144 7.46799C9.35144 7.46799 8.82749 6.90607 7.89349 6.90607C6.95948 6.90607 6.52665 7.63505 6.66333 8.13622C6.85317 8.84242 7.93145 9.03985 8.53134 9.26006C9.23754 9.51824 9.91337 10.27 9.1692 11.0901C8.42503 11.9102 6.96708 11.5002 6.36719 10.9003" stroke="#C0A46B" stroke-width="0.8" stroke-linecap="round" stroke-linejoin="round"/>
<path d="M8.04492 5.7063V6.90608" stroke="#C0A46B" stroke-width="0.8" stroke-linecap="round" stroke-linejoin="round"/>
<path d="M8.04492 11.5002V12.6924" stroke="#C0A46B" stroke-width="0.8" stroke-linecap="round" stroke-linejoin="round"/>
<path d="M12.1328 7.30857L13.4769 7.88568L14.054 6.67072" stroke="#C0A46B" stroke-width="0.8" stroke-linecap="round" stroke-linejoin="round"/>
<path d="M13.4063 10.6422C12.8292 13.1252 10.6042 14.9705 7.94651 14.9705C5.28878 14.9705 3.10184 13.148 2.50195 10.6953" stroke="#C0A46B" stroke-width="0.8" stroke-linecap="round" stroke-linejoin="round"/>
<path d="M3.84694 11.2724L2.50289 10.6953L1.92578 11.9102" stroke="#C0A46B" stroke-width="0.8" stroke-linecap="round" stroke-linejoin="round"/>
</svg>
