<svg xmlns="http://www.w3.org/2000/svg" fill="none" viewBox="0 0 32 32">
  <path fill="currentColor" d="M18.1820964,6.62156683 C18.3564598,6.32379943 18.7114935,6.18342641 19.0423419,6.28144344 C19.7139769,6.48042174 20.363421,6.74915835 20.977256,7.08110327 C21.2812019,7.24546881 21.4335138,7.59622484 21.3461099,7.93052971 C21.1080657,8.84100789 21.2777543,9.51080507 21.8828637,10.115153 C22.59071,10.823891 23.2740628,11.0728962 24.0666189,10.8654838 C24.4009743,10.7779827 24.7518335,10.9302962 24.9162256,11.2343112 C25.2439447,11.8403714 25.5116129,12.4878747 25.7159783,13.1657697 C25.816002,13.4975555 25.6756948,13.8546691 25.3765729,14.0296338 C24.4822723,14.5527347 24.0155999,15.2268812 24.0155999,15.9994492 C24.0155999,16.7702938 24.4827226,17.444295 25.3785672,17.9681028 C25.6771344,18.1426776 25.8176088,18.4987828 25.7186337,18.8301778 C25.5170812,19.5050294 25.2492718,20.1517439 24.9184256,20.7635872 C24.7542606,21.0671822 24.4040993,21.2195479 24.0700573,21.1327376 C23.2769918,20.9266371 22.5928392,21.1759516 21.88473,21.8830793 C21.2794809,22.4883283 21.1100244,23.1578896 21.3482102,24.0669575 C21.4358866,24.4015865 21.2833216,24.7527736 20.9789008,24.9170651 C20.3685499,25.2464625 19.7217869,25.5145045 19.0477425,25.7175689 C18.7160684,25.8174899 18.3591123,25.6772665 18.1841278,25.3783144 C17.6989756,24.5494564 16.8353521,24.0171492 15.9999999,24.0171492 C15.1631052,24.0171492 14.3000111,24.548897 13.8163281,25.3775341 C13.641809,25.6765171 13.2853258,25.817204 12.953657,25.7179891 C12.2808392,25.5167234 11.6331722,25.2480359 11.0205619,24.9167749 C10.7164754,24.7523441 10.5641709,24.4013661 10.6517896,24.0669575 C10.8896083,23.1592909 10.7194527,22.4891011 10.1139357,21.8827449 C9.51074703,21.2787955 8.841138,21.1095374 7.92998041,21.3477592 C7.59545515,21.4352208 7.24449009,21.2826483 7.08026381,20.9783682 C6.75130265,20.3688656 6.48404273,19.7218885 6.28156701,19.0462494 C6.18232194,18.7150796 6.32230966,18.3589757 6.62050772,18.1840445 C7.4480759,17.6985701 7.98014991,16.8345328 7.98014991,15.9994492 C7.98014991,15.2265405 7.51409963,14.552414 6.62101753,14.0294527 C6.32287065,13.8548671 6.1825674,13.4991927 6.28122984,13.1680773 C6.48216658,12.493725 6.75036343,11.8448839 7.08055397,11.2342932 C7.24491951,10.9303472 7.59567554,10.7780353 7.92998041,10.8654392 C8.72364378,11.0729422 9.40703639,10.823925 10.1153057,10.1137853 C10.7205226,9.51092562 10.8900303,8.8418424 10.6517051,7.93058787 C10.5642687,7.59626831 10.7165781,7.24547948 11.0205439,7.08110327 C11.6365126,6.7480045 12.2840472,6.47971034 12.9548018,6.28134166 C13.2853766,6.18357759 13.6400242,6.32374911 13.8144318,6.62110334 C14.3000189,7.44899954 15.1632068,7.98069921 15.9988999,7.98069921 C16.8340129,7.98069921 17.6977899,7.44863668 18.1820964,6.62156683 Z M19.1249999,7.88954921 L19.0809131,7.9474335 C18.3055539,8.8927377 17.1666466,9.48069921 15.9988999,9.48069921 C14.8307996,9.48069921 13.6925513,8.89317796 12.9166228,7.94791882 L12.9166228,7.94791882 L12.8709999,7.88954921 L12.7055475,7.95051066 L12.3759851,8.08686569 L12.2199999,8.15854921 L12.231674,8.24348689 C12.3438417,9.29443419 12.0446266,10.2219656 11.3341669,11.0084177 L11.3341669,11.0084177 L11.175631,11.1747774 C10.2963346,12.0564029 9.31108712,12.5089485 8.21879141,12.4292054 L8.21879141,12.4292054 L8.16299991,12.4225492 L8.08824165,12.5867204 C8.04056875,12.6956659 7.99506392,12.8057818 7.95176592,12.9169788 L7.95176592,12.9169788 L7.89299991,13.0755492 L7.96243619,13.1271511 C8.86485889,13.8238381 9.4091671,14.7320671 9.47368054,15.7866093 L9.47368054,15.7866093 L9.48014991,15.9994492 C9.48014991,17.1669563 8.89241976,18.3057171 7.94729823,19.0817759 L7.94729823,19.0817759 L7.88999991,19.1255492 L7.95264346,19.2969694 C7.99600511,19.4082822 8.04151477,19.5184361 8.08914952,19.6273732 L8.08914952,19.6273732 L8.15899991,19.7785492 L8.24266324,19.7678362 C9.29318446,19.6556647 10.2207756,19.9543479 11.0086187,20.6643478 L11.0086187,20.6643478 L11.1752971,20.8227864 C11.9988985,21.6475292 12.3513025,22.6323445 12.2314216,23.7562642 L12.2314216,23.7562642 L12.2199999,23.8385492 L12.3748801,23.9104798 C12.4839285,23.9583263 12.5940527,24.0039773 12.7051853,24.0473991 L12.7051853,24.0473991 L12.8719999,24.1085492 L12.9161878,24.0523096 C13.6427475,23.1644587 14.6894594,22.5920662 15.7811447,22.5239853 L15.7811447,22.5239853 L15.9999999,22.5171492 C17.1681334,22.5171492 18.3069918,23.1054178 19.0827824,24.0519143 L19.0827824,24.0519143 L19.1259999,24.1075492 L19.2958445,24.0462548 C19.4071853,24.0027295 19.5174236,23.9570486 19.6264985,23.9092383 L19.6264985,23.9092383 L19.7789999,23.8375492 L19.7683768,23.7557771 C19.6561228,22.7061832 19.9551342,21.7784519 20.6658416,20.9890791 L20.6658416,20.9890791 L20.8244377,20.8220515 C21.7048199,19.9428893 22.6892323,19.4910995 23.7800583,19.5694856 L23.7800583,19.5694856 L23.8349999,19.5745492 L23.9113484,19.4104539 C23.9590743,19.3015369 24.0046175,19.191494 24.0479564,19.0803665 L24.0479564,19.0803665 L24.1049999,18.9215492 L24.0366759,18.8706795 C23.132242,18.1737543 22.5867385,17.2658483 22.5220835,16.2121199 L22.5220835,16.2121199 L22.5155999,15.9994492 C22.5155999,14.8539492 23.0714553,13.8701021 24.0351261,13.1269684 L24.0351261,13.1269684 L24.1029999,13.0765492 L24.0439399,12.9148121 C24.0004242,12.8032899 23.9548253,12.6930501 23.9071699,12.5841688 L23.9071699,12.5841688 L23.8329999,12.4225492 L23.7786251,12.4292035 C22.7598032,12.5037174 21.8338139,12.1146655 20.9995675,11.3462498 L20.9995675,11.3462498 L20.8222042,11.1758134 C19.99834,10.3529872 19.6463385,9.36841851 19.7662865,8.24305478 L19.7662865,8.24305478 L19.7769999,8.15854921 L19.6227256,8.08756045 C19.5137011,8.03981921 19.403646,7.99431937 19.292656,7.95110716 L19.292656,7.95110716 L19.1249999,7.88954921 Z M15.9988999,12.2494492 C18.0701403,12.2494492 19.7484999,13.9291618 19.7484999,16.0002492 C19.7484999,18.0717787 18.0705975,19.7494492 15.9988999,19.7494492 C13.9274263,19.7494492 12.2484999,18.0711027 12.2484999,16.0002492 C12.2484999,13.9289743 13.9279477,12.2494492 15.9988999,12.2494492 Z M15.9988999,13.7494492 C14.7563903,13.7494492 13.7484999,14.757386 13.7484999,16.0002492 C13.7484999,17.2425595 14.7557374,18.2494492 15.9988999,18.2494492 C17.2422168,18.2494492 18.2484999,17.2433052 18.2484999,16.0002492 C18.2484999,14.7573185 17.2414424,13.7494492 15.9988999,13.7494492 Z"/>
</svg>
