<svg width="16" height="16" viewBox="0 0 16 16" fill="none" xmlns="http://www.w3.org/2000/svg">
<g>
<g>
<path d="M5.83709 7.02961C5.61478 7.02961 5.42952 6.84436 5.42952 6.62205C5.42952 6.50163 5.47584 6.39047 5.56847 6.31637C6.72633 5.29745 7.2358 4.46378 7.32842 4.29705C7.67115 3.70422 8.21767 3.39855 8.7827 3.47265C9.00501 3.50044 9.16248 3.71349 9.1347 3.9358C9.10691 4.15811 8.90312 4.31558 8.68081 4.28779C8.34735 4.24147 8.12504 4.56568 8.04167 4.70462C7.93978 4.88062 7.36548 5.82543 6.11498 6.92772C6.04088 7.00183 5.93899 7.02961 5.83709 7.02961Z" fill="currentColor"/>
<path d="M9.45393 10.0859C9.62066 10.2341 9.80592 10.1692 9.98191 10.0118C11.1676 8.88169 12.4181 7.11247 12.8349 6.18618C12.9275 5.99166 13.1035 5.8805 13.298 5.95461C13.5296 6.04724 13.5204 6.43628 13.3166 6.86237C12.7701 7.99245 12.0105 9.23368 10.5099 10.7806C10.3617 10.9288 10.3895 11.1233 10.5192 11.2437C10.6488 11.3642 10.8619 11.3549 11.0657 11.1511C11.8438 10.3545 12.3717 9.74314 12.8164 9.104C12.9275 8.93727 13.0757 8.87243 13.2054 8.90022C13.3999 8.93727 13.437 9.13179 13.3721 9.3541C13.2703 9.72462 12.2421 11.077 11.8345 11.5309C10.7229 12.7721 9.14716 13.8936 7.53054 14.6243C6.76708 14.9694 6.30321 15.076 5.63427 15.076C5.13403 15.076 5.17086 15.8624 5.77494 15.8624C6.53373 15.8624 7.31419 15.5788 7.96259 15.2824C10.1023 14.3098 10.973 13.5317 12.2235 12.2904C12.7886 11.7254 13.5759 10.512 13.789 10.1507C14.3818 9.14105 14.0761 8.2796 13.5296 8.13139C13.4926 8.12213 13.474 8.08508 13.4833 8.04803C13.4833 8.03876 13.4833 8.03877 13.4926 8.0295C13.9094 7.31626 14.1039 6.81606 14.178 6.43628C14.2799 5.91755 14.141 5.27841 13.4185 5.13021C13.3814 5.12094 13.3629 5.08389 13.3629 5.04684C13.4092 4.88011 13.4555 4.67632 13.4833 4.53738C13.6315 3.86118 13.2054 3.24983 12.696 3.13868C12.3347 3.06457 12.0105 3.14794 11.7326 3.34246C11.6956 3.37025 11.64 3.36099 11.6122 3.32393C11.501 3.20352 11.325 3.0831 11.0749 3.07384C10.6303 3.06457 10.1857 3.20352 9.8615 3.88897C9.62992 4.37991 9.28719 5.04684 8.27753 6.15839C7.34198 7.22363 6.04517 8.23329 5.23929 8.76127C5.10035 8.8539 4.89657 8.83538 4.92435 8.64086C4.96141 8.34444 5.28561 6.32512 5.34119 5.7323C5.43382 4.76895 4.91509 4.32433 4.33153 4.25023C3.84986 4.18539 3.12735 4.32433 2.72904 5.41736C2.49747 6.0565 2.00653 7.10321 1.59896 8.79833C1.31181 9.98398 1.2655 11.3734 1.52486 12.9666C1.56197 13.1946 1.81784 13.354 2.08355 13.2532C2.34926 13.1524 2.43263 12.9296 2.34926 12.5591C2.18253 11.818 2.04358 10.336 2.34926 9.104C2.74757 7.47373 3.51639 5.7323 3.63681 5.42662C3.75723 5.12094 4.00643 4.97607 4.21712 4.99948C4.42781 5.02289 4.67195 5.13157 4.59089 5.66746C4.42416 6.76974 4.18332 8.16845 4.09995 8.64086C4.0629 8.87243 4.01659 9.40968 4.44268 9.65978C4.77615 9.8543 5.1374 9.74314 5.54497 9.47452C6.45274 8.86317 7.94407 7.72383 8.92594 6.61227C9.96339 5.45441 10.2876 4.75969 10.5562 4.12981C10.6766 3.84266 10.9916 3.84266 11.1027 3.87971C11.2139 3.9075 11.3436 4.06497 11.2509 4.37065C11.0194 5.13021 10.0745 6.8809 8.25901 8.52044C8.05522 8.7057 8.08301 8.92801 8.1849 9.03916C8.2868 9.15032 8.47206 9.22442 8.6851 9.03916C10.3246 7.64046 11.2509 5.9824 11.677 5.08389C11.8901 4.63927 11.9642 4.37065 12.0383 4.16686C12.1309 3.9075 12.3254 3.81487 12.4644 3.84266C12.6589 3.88897 12.7978 4.09276 12.733 4.42622C12.6774 4.71337 12.5107 5.19505 12.2884 5.66746C11.7604 6.77901 10.6581 8.27034 9.46319 9.54862C9.32424 9.73388 9.29646 9.93767 9.45393 10.0859Z" fill="currentColor"/>
<path d="M5.07565 3.02412C5.11308 2.95216 5.07049 2.89343 5.03571 2.85276C4.87208 2.6235 4.06315 1.72619 3.86666 1.54976C3.77124 1.45817 3.69121 1.4714 3.62117 1.52747C3.53416 1.60376 3.42777 1.74418 3.28719 1.99374C3.14661 2.24331 3.06609 2.39396 3.04538 2.51441C3.02817 2.60334 3.05945 2.67554 3.18207 2.72104C3.42622 2.79965 4.61596 3.05175 4.89297 3.07753C4.96842 3.08344 5.03822 3.09608 5.07565 3.02412Z" fill="currentColor"/>
<path d="M6.63027 3.02412C6.59284 2.95216 6.63543 2.89343 6.67021 2.85276C6.83384 2.6235 7.64277 1.72619 7.83926 1.54976C7.93468 1.45817 8.01471 1.4714 8.08475 1.52747C8.17176 1.60376 8.27815 1.74418 8.41873 1.99374C8.55931 2.24331 8.63983 2.39396 8.66054 2.51441C8.67775 2.60334 8.64647 2.67554 8.52385 2.72104C8.2797 2.79965 7.08996 3.05175 6.81295 3.07753C6.7375 3.08344 6.6677 3.09608 6.63027 3.02412Z" fill="currentColor"/>
<path d="M5.86144 2.73096C5.94254 2.73013 5.96758 2.65925 5.98804 2.60751C6.09035 2.3488 6.44486 1.18759 6.49759 0.933202C6.52396 0.806009 6.47463 0.741624 6.38462 0.712012C6.26874 0.672169 6.09305 0.662525 5.81255 0.668273C5.53204 0.674021 5.35852 0.689165 5.25021 0.736086C5.16561 0.768448 5.12144 0.834749 5.14465 0.957614C5.20347 1.20226 5.60371 2.3538 5.72559 2.60544C5.75579 2.66525 5.78033 2.7318 5.86144 2.73096Z" fill="currentColor"/>
</g>
</g>
</svg>
