<svg width="22" height="22" viewBox="0 0 22 22" fill="none" xmlns="http://www.w3.org/2000/svg">
<path d="M19.9879 11.2111C19.9879 10.588 19.9373 9.96152 19.8296 9.3485H11.1833V12.8784H16.1346C15.9291 14.0169 15.269 15.024 14.3023 15.6639V17.9543H17.2562C18.9909 16.3578 19.9879 14 19.9879 11.2111Z" fill="#4285F4"/>
<path d="M11.1833 20.1673C13.6556 20.1673 15.7405 19.3555 17.2596 17.9543L14.3056 15.6639C13.4838 16.2231 12.4228 16.5397 11.1866 16.5397C8.79518 16.5397 6.7675 14.9263 6.03996 12.7571H2.9917V15.1183C4.54783 18.2137 7.71735 20.1673 11.1833 20.1673Z" fill="#34A853"/>
<path d="M6.0366 12.7571C5.65262 11.6187 5.65262 10.3859 6.0366 9.24744V6.8863H2.99171C1.69157 9.47648 1.69156 12.5281 2.9917 15.1183L6.0366 12.7571Z" fill="#FBBC04"/>
<path d="M11.1833 5.46153C12.4901 5.44132 13.7532 5.93308 14.6997 6.83577L17.3168 4.21865C15.6597 2.66252 13.4602 1.80698 11.1833 1.83393C7.71734 1.83393 4.54784 3.78752 2.99171 6.8863L6.0366 9.24744C6.76077 7.07492 8.79181 5.46153 11.1833 5.46153Z" fill="#EA4335"/>
</svg>
