<svg xmlns="http://www.w3.org/2000/svg" viewBox="0 0 40 40">
  <path d="M20 40C8.954 40 0 31.046 0 20S8.954 0 20 0s20 8.954 20 20-8.954 20-20 20zm-9.253-10c.56-.178 1.114-.357 1.664-.536 1.144-.362 2.283-.724 3.428-1.092a.17.17 0 01.154.01c.79.432 1.624.735 2.499.923.77.164 1.554.248 2.343.214a9.542 9.542 0 006.152-2.546 9.35 9.35 0 002.953-5.885 9.238 9.238 0 00-.345-3.692 9.298 9.298 0 00-1.284-2.66 9.35 9.35 0 00-2.214-2.258 9.268 9.268 0 00-3.363-1.548 9.602 9.602 0 00-4.267-.04 9.452 9.452 0 00-5.372 3.325 9.36 9.36 0 00-1.514 2.69 9.436 9.436 0 00-.52 2.381 9.323 9.323 0 00.575 4.149c.19.501.42.992.705 1.449.035.055.03.11.01.169-.255.744-.505 1.483-.76 2.228l-.87 2.56a1.588 1.588 0 01-.054.14c.02.039.055.01.08.02zm17.634-9.97a7.892 7.892 0 01-.66 3.201 7.844 7.844 0 01-3.483 3.752c-.879.471-1.819.77-2.813.878a7.991 7.991 0 01-2.638-.139 7.795 7.795 0 01-2.534-1.057c-.06-.04-.115-.04-.18-.02-.93.298-1.864.591-2.793.889-.03.01-.06.03-.085.01-.03-.02-.005-.055.01-.08.125-.362.245-.73.37-1.091.18-.536.355-1.067.535-1.598.02-.065.014-.114-.025-.169-.205-.298-.4-.6-.565-.923a7.626 7.626 0 01-.805-2.526 6.84 6.84 0 01-.08-1.057 7.778 7.778 0 011.699-4.853 7.672 7.672 0 012.339-1.985 7.788 7.788 0 013.128-.958 7.868 7.868 0 013.673.541 7.816 7.816 0 012.498 1.623 7.865 7.865 0 011.65 2.263c.4.838.654 1.722.724 2.65.015.238.04.471.035.65zm-12.617-2.237c0 .585.155 1.096.394 1.607.335.705.785 1.34 1.255 1.966.38.5.804.967 1.274 1.389.41.372.85.715 1.334.983.77.426 1.584.739 2.418.997.22.064.445.124.675.1.335-.036.675-.08.99-.22.32-.143.62-.322.869-.57.345-.347.415-.799.47-1.26.025-.219-.075-.353-.26-.437l-.035-.02c-.35-.183-.7-.372-1.05-.556-.274-.143-.54-.297-.829-.412-.235-.089-.36-.054-.51.14-.244.317-.514.61-.794.903a.345.345 0 01-.43.074c-.465-.228-.93-.461-1.35-.774a6.612 6.612 0 01-1.813-2.084c-.215-.382-.2-.382.1-.695.22-.233.455-.456.58-.764a.452.452 0 00.01-.333l-.72-1.925a.772.772 0 00-.165-.273c-.065-.064-.14-.114-.23-.114-.19 0-.374-.03-.564-.04-.305-.015-.54.13-.755.338-.58.55-.86 1.22-.864 1.98z" fill="#00A200" fill-rule="evenodd"/>
</svg>
