<svg width="24" height="24" viewBox="0 0 24 24" fill="none" xmlns="http://www.w3.org/2000/svg">
<path d="M20.0165 4.1001L13.082 9.3501L14.3607 6.2501L20.0165 4.1001Z" fill="#E17726"/>
<path d="M3.98364 4.1001L10.8689 9.4001L9.63938 6.2501L3.98364 4.1001Z" fill="#E27625"/>
<path d="M10.8688 9.50006L3.95898 4.20007C3.95898 4.20007 3.95898 4.19995 3.95898 4.07495L9.63931 6.22507L10.8688 9.37509V9.50006ZM4.62289 4.50006L10.6229 9.125L9.56554 6.37506L4.62289 4.50006Z" fill="#E27625"/>
<path d="M17.5327 16.2749L15.6638 19.1499L19.6228 20.2749L20.754 16.3249L17.5327 16.2749Z" fill="#E27625"/>
<path d="M19.6475 20.3751L15.6885 19.2751L17.5574 16.4001H20.7787L19.6721 20.35L19.6475 20.3751ZM15.836 19.075L19.5738 20.1251L20.6065 16.425H17.582L15.836 19.075Z" fill="#E27625"/>
<path d="M3.24585 16.3249L4.377 20.2749L8.33601 19.1499L6.49175 16.2749L3.24585 16.3249Z" fill="#E27625"/>
<path d="M4.37698 20.3749L3.24585 16.4249H6.49177L8.31142 19.3L4.35244 20.4L4.37698 20.3749ZM3.39338 16.4249L4.45082 20.125L8.16388 19.0749L6.44262 16.375L3.39338 16.4249Z" fill="#E27625"/>
<path d="M8.11468 11.4001L7.03271 13.1001L10.9426 13.2751L10.8196 8.9751L8.11468 11.4001Z" fill="#E27625"/>
<path d="M10.9427 13.375L7.0083 13.2L8.11489 11.5L10.8198 9L10.9427 13.2999V13.375ZM7.20506 12.9999L10.8198 13.1499V9.20004L8.3608 11.475L7.20506 12.9999Z" fill="#E27625"/>
<path d="M15.8853 11.4L13.1558 8.92505L13.082 13.275L16.9919 13.1L15.8853 11.4Z" fill="#E27625"/>
<path d="M13.0821 13.3751V9.02515L15.8116 11.5251L16.9181 13.2251L13.0083 13.4001L13.0821 13.3751ZM13.2542 9.15012V13.1501L16.869 13.0001L15.8854 11.4751L13.2542 9.15012Z" fill="#E27625"/>
<path d="M8.33618 19.1501L10.6968 17.9751L8.65585 16.3501L8.33618 19.1501Z" fill="#E27625"/>
<path d="M8.33597 19.2499L8.65566 16.45L10.7212 18.1L8.26221 19.2499H8.33597ZM8.72943 16.55L8.4589 19.05L10.4999 18.05L8.72943 16.55Z" fill="#E27625"/>
<path d="M13.3032 17.9751L15.6639 19.1501L15.3442 16.3501L13.3032 17.9751Z" fill="#E27625"/>
<path d="M15.6639 19.2499L13.2048 18.1L15.2458 16.45L15.5655 19.2499H15.6639ZM13.4999 17.95L15.5409 18.95L15.2458 16.45L13.4999 17.95Z" fill="#E27625"/>
<path d="M15.6639 19.1501L13.3032 17.9751L13.4999 19.5251L13.4754 20.2001L15.6639 19.1501Z" fill="#D5BFB2"/>
<path d="M13.4755 20.3001V19.6251L13.2788 18.1001L15.7378 19.275L13.5493 20.35L13.4755 20.3001ZM13.4755 18.15L13.6476 19.5251V20.025L15.4673 19.1501L13.4755 18.15Z" fill="#D5BFB2"/>
<path d="M8.33618 19.1501L10.5247 20.2001V19.5251L10.6968 17.9751L8.33618 19.1501Z" fill="#D5BFB2"/>
<path d="M10.5246 20.3001L8.31152 19.225L10.7705 18.05L10.5739 19.6V20.2501L10.5246 20.3001ZM8.58205 19.1501L10.4263 20.025V19.5251L10.5985 18.15L8.58205 19.1501Z" fill="#D5BFB2"/>
<path d="M10.5737 15.3251L8.60645 14.7251L9.98349 14.1001L10.5737 15.3251Z" fill="#233447"/>
<path d="M10.5737 15.4249L8.60645 14.8498L9.98356 14.2H10.1311L10.7212 15.4249C10.7212 15.4249 10.5983 15.4249 10.5737 15.4249ZM8.90159 14.6998L10.3769 15.15L9.93433 14.2248L8.90159 14.6998Z" fill="#233447"/>
<path d="M13.4263 15.3251L14.0164 14.1001L15.3935 14.7251L13.4263 15.3251Z" fill="#233447"/>
<path d="M8.33596 19.1499L8.68022 16.2749L6.4917 16.3249L8.33596 19.1499Z" fill="#CC6228"/>
<path d="M8.33596 19.2501L6.4917 16.425H8.68018L8.33596 19.3001V19.2501ZM6.68839 16.425L8.26219 18.925L8.55726 16.425H6.68839Z" fill="#CC6228"/>
<path d="M15.3442 16.2749L15.6639 19.1499L17.5328 16.3249L15.3442 16.2749Z" fill="#CC6228"/>
<path d="M15.6639 19.2499L15.3442 16.375H17.5327L15.6639 19.2V19.2499ZM15.4672 16.375L15.7377 18.875L17.336 16.375H15.4672Z" fill="#CC6228"/>
<path d="M16.9919 13.1001L13.082 13.2751L13.4263 15.3251L14.0165 14.1001L15.3935 14.7251L16.9919 13.1001Z" fill="#CC6228"/>
<path d="M13.4262 15.425L13.0574 13.375L16.9672 13.2L15.3688 14.825L14.0655 14.2249L13.5245 15.3499C13.5245 15.3499 13.4754 15.425 13.4262 15.425ZM13.2049 13.375L13.4754 14.95L13.918 14.025H14.041L15.3688 14.65L16.7213 13.25L13.2049 13.375Z" fill="#CC6228"/>
<path d="M8.60649 14.7251L9.98353 14.1001L10.5737 15.3251L10.9426 13.2751L7.03271 13.1001L8.60649 14.7251Z" fill="#CC6228"/>
<path d="M10.5737 15.425L10.0327 14.3L8.75406 14.8999H8.63106L7.03271 13.275L10.9425 13.4499L10.5737 15.4999V15.425ZM9.98356 13.9749L10.4262 14.925L10.7212 13.3249L7.18025 13.1499L8.53268 14.5499L9.83595 13.9249L9.98356 13.9749Z" fill="#CC6228"/>
<path d="M7.03271 13.1001L8.65567 16.3501L8.60649 14.7251L7.03271 13.1001Z" fill="#E27525"/>
<path d="M8.65567 16.45L7.03271 13.2C7.03271 13.2 7.03271 13.2 7.03271 13.05H7.18025L8.75406 14.6751V16.3L8.65567 16.45ZM7.42617 13.675L8.53268 15.8751V14.7751L7.42617 13.675Z" fill="#E27525"/>
<path d="M15.3934 14.7251L15.3442 16.3501L16.9918 13.1001L15.3934 14.7251Z" fill="#E27525"/>
<path d="M10.9426 13.2749L10.5737 15.3249L11.0164 17.7499L11.1393 14.5499L10.9426 13.2749Z" fill="#E27525"/>
<path d="M11.0163 17.8501L10.5737 15.3501L10.9426 13.3L11.1393 14.5751V17.8002L11.0163 17.8501ZM10.6721 15.3501L10.9426 16.8001V14.5751V13.9751L10.6721 15.3501Z" fill="#E27525"/>
<path d="M13.082 13.2749L12.8853 14.5499L12.959 17.7499L13.4262 15.3249L13.082 13.2749Z" fill="#E27525"/>
<path d="M12.959 17.8501V14.6251L13.1311 13.3501L13.5 15.4001L13.0328 17.9001C13.0043 17.8903 12.9789 17.873 12.959 17.8501ZM12.959 13.925V14.55V16.7501L13.2294 15.3002L12.959 13.925Z" fill="#E27525"/>
<path d="M13.4262 15.3251L12.959 17.7501L13.3032 17.9751L15.3442 16.3501L15.3934 14.7251L13.4262 15.3251Z" fill="#F5841F"/>
<path d="M13.3032 18.075L12.959 17.825L13.4262 15.325L15.3934 14.75V16.3751L13.377 18L13.3032 18.075ZM13.0819 17.7L13.3032 17.85L15.2459 16.3V14.875L13.4754 15.4L13.0819 17.7Z" fill="#F5841F"/>
<path d="M8.60645 14.7251L8.65563 16.3501L10.6966 17.9751L11.0163 17.7501L10.5737 15.3251L8.60645 14.7251Z" fill="#F5841F"/>
<path d="M10.6967 18.0749L8.6311 16.4499V14.825L10.5984 15.3999L11.041 17.8999L10.7213 18.1498L10.6967 18.0749ZM8.7541 16.2999L10.6967 17.8499L10.8934 17.6999L10.4754 15.3999L8.72949 14.8748L8.7541 16.2999Z" fill="#F5841F"/>
<path d="M13.4755 20.1999L13.5001 19.5249L13.3034 19.3749H10.6722L10.5247 19.5249V20.1999L8.33618 19.1499L9.09848 19.7999L10.6722 20.8999H13.328L14.9018 19.7999L15.6641 19.1499L13.4755 20.1999Z" fill="#C0AC9D"/>
<path d="M13.3278 20.9999H10.5983L9.0245 19.8999L8.26221 19.2498V19.0999C8.26221 19.0999 8.2622 19.0999 8.40974 19.0999L10.4507 20.0749V19.5749L10.6228 19.4249H13.3769L13.5737 19.5749V20.0749L15.5901 19.0999C15.5901 19.0999 15.5901 19.0999 15.713 19.0999V19.2498L14.9507 19.8999L13.3769 20.9999H13.3278ZM10.6966 20.775H13.3032L14.8277 19.6998H14.9507L13.5245 20.3999V19.7749H11.0654V20.3999L9.5901 19.6998H9.73763L10.6966 20.775Z" fill="#C0AC9D"/>
<path d="M13.3033 17.975L12.9591 17.75H11.0165L10.6968 17.975L10.5247 19.525L10.6722 19.375H13.3033L13.5001 19.525L13.3033 17.975Z" fill="#161616"/>
<path d="M10.5247 19.625L10.7214 18.075L11.0411 17.825H13.1067L13.4509 18.075L13.6477 19.625H13.5001H11.0411H10.8936H10.5247ZM10.6723 19.275H13.3526L13.2051 18.05L12.9345 17.85H11.0656L10.7952 18.025L10.6477 19.275H10.6723Z" fill="#161616"/>
<path d="M20.3114 9.7001L20.9016 6.8001L20.0163 4.1001L13.3032 9.2001L15.8852 11.4001L19.5245 12.4751L20.336 11.5251L19.9917 11.2751L20.5327 10.7501L20.1147 10.4001L20.6803 9.9751L20.3114 9.7001Z" fill="#763E1A"/>
<path d="M19.4755 12.5749L15.8361 11.4999L13.2542 9.2749L19.9427 4.2749L20.8279 6.94992L20.2624 9.79996L20.5574 10.0249L20.1148 10.3749L20.4345 10.6499L19.9918 11.075L20.2131 11.25L19.4017 12.1999L19.4755 12.5749ZM15.8853 11.2999L19.4755 12.4249L20.164 11.6249L19.9181 11.4249L20.3853 10.9999L20.0656 10.7249L20.5083 10.3749L20.2377 10.1749L20.8279 7.29996L19.9918 4.79996L13.5001 9.79996L15.8853 11.2999Z" fill="#763E1A"/>
<path d="M3.09839 6.8001L3.68855 9.7001L3.3197 9.9751L3.86068 10.4001L3.44265 10.7501L4.00822 11.2751L3.66396 11.5251L4.45085 12.4751L8.11478 11.4001L10.6968 9.2001L3.98363 4.1001L3.09839 6.8001Z" fill="#763E1A"/>
<path d="M4.45097 12.575L3.63946 11.625L3.88537 11.45L3.41815 11.025L3.73784 10.7501L3.29523 10.4L3.63946 10.175L3.04932 7.32507L3.90999 4.65005L10.6477 9.65005L8.18865 11.8751L4.54928 12.9501L4.45097 12.575ZM3.81161 11.5501L4.50013 12.3499L8.06566 11.3L10.5247 9.17505L4.03291 4.17505L3.22147 6.67505L3.81161 9.54996L3.54107 9.75L3.98375 10.1L3.66407 10.375L4.13129 10.8L3.81161 11.5501Z" fill="#763E1A"/>
<path d="M19.5246 12.4749L15.8852 11.3999L16.9918 13.0999L15.3442 16.3499L17.5328 16.3249H20.7541L19.5246 12.4749Z" fill="#F5841F"/>
<path d="M15.3444 16.45L16.9674 13.25L15.9099 11.5999V11.475L19.4755 12.425L20.705 16.2749H15.2952L15.3444 16.45ZM16.1313 11.45L17.0903 12.9L15.5165 15.9749H20.6067L19.4509 12.325L16.1313 11.45Z" fill="#F5841F"/>
<path d="M8.1147 11.3999L4.45077 12.4749L3.24585 16.3249H6.49175L8.65569 16.3499L7.03273 13.0999L8.1147 11.3999Z" fill="#F5841F"/>
<path d="M13.082 13.275L13.3033 9.2L14.3607 6.25H9.6394L10.6968 9.2L10.9427 13.275L11.0165 14.575V17.75H12.9591V14.575L13.082 13.275Z" fill="#F5841F"/>
<path d="M12.959 17.8499H11.0164V14.65V13.375L10.7951 9.29996L9.7377 6.375H14.459L13.4016 9.29996L13.1803 13.375V14.675V17.8499H12.959ZM11.1147 17.625H12.8606V14.5499V13.25L13.1065 9.17499L14.1148 6.375H9.68848L10.6967 9.17499L10.918 13.25V14.5499L11.1147 17.625Z" fill="#F5841F"/>
</svg>
