<svg xmlns="http://www.w3.org/2000/svg" viewBox="0 0 41 40">
  <path d="M20.884 40c-11.046 0-20-8.954-20-20s8.954-20 20-20 20 8.954 20 20-8.954 20-20 20zm9.932-21.588c-.267-1.875-1.231-3.38-2.688-4.586-2.09-1.733-4.557-2.446-7.279-2.492-.603.03-1.226.053-1.845.151-2.418.383-4.525 1.358-6.21 3.135-2.022 2.13-2.494 5.188-1.147 7.725 1.103 2.077 2.898 3.373 5.094 4.184.84.31 1.721.467 2.599.632.702.13.851.346.836 1.042-.003.123-.021.247-.04.37-.05.339-.118.677-.146 1.019-.027.323.141.45.469.398.283-.046.534-.17.783-.3 1.632-.863 3.157-1.887 4.63-2.986 1.331-.994 2.589-2.064 3.587-3.394 1.1-1.458 1.617-3.083 1.357-4.898zM16.62 21.82c-.702.002-1.404-.008-2.107.005-.27.005-.361-.098-.359-.354.011-.66.003-1.32.003-1.98 0-.66.005-1.32-.003-1.98-.002-.238.076-.348.338-.343.862.018.76-.1.763.75.003.86.008 1.72-.005 2.58-.003.205.06.254.262.249.487-.013.974.005 1.462-.008.267-.008.39.074.385.36-.01.816.065.718-.739.72zm2.429-3.926v3.551c0 .341-.037.377-.385.375-.784-.003-.713.084-.713-.68V19.48c0-.658.008-1.317-.003-1.975-.005-.246.084-.341.341-.336.823.018.76-.108.76.726zm4.473 3.936c-.47.044-.763-.113-1.027-.503-.506-.745-1.08-1.445-1.672-2.229 0 .845-.008 1.61.005 2.373.003.259-.086.356-.356.351-.802-.018-.747.095-.747-.716v-3.556c0-.346.04-.344.38-.387.469-.062.747.128 1 .498.51.732 1.067 1.432 1.607 2.146.115-.059.066-.157.066-.231.005-.688.01-1.376 0-2.064-.006-.262.094-.352.361-.347.841.02.726-.092.729.722.005 1.193-.006 2.39.005 3.584.002.261-.087.333-.351.36zm3.466-.013c-.702.005-1.404-.005-2.106.005-.244.003-.325-.084-.323-.32.01-.678.003-1.359.003-2.036 0-.66.008-1.32-.003-1.98-.002-.233.074-.323.32-.32.849.01 1.698.007 2.547 0 .22-.003.32.063.312.295-.024.867.141.775-.792.78-.361.003-.723.008-1.082-.003-.18-.005-.23.054-.23.229 0 .488-.01.488.484.488.44 0 .878.002 1.318-.003.202-.002.307.062.302.283-.021.911.136.79-.8.798-.35.003-.702.008-1.053-.003-.18-.005-.257.029-.254.232.008.482-.005.482.495.482.43 0 .86.005 1.29-.002.232-.003.33.082.324.323-.026.868.12.747-.752.752z" fill="#00BE3D" fill-rule="evenodd"/>
</svg>
