<svg width="16" height="16" viewBox="0 0 16 16" fill="none" xmlns="http://www.w3.org/2000/svg">
<path d="M0.757698 6.56206C1.68939 5.44384 3.72559 3 7.38764 3C10.3114 3 12.2844 4.61662 12.9502 5.50424C13.1888 5.82246 13.1243 6.27392 12.8061 6.51258C12.4879 6.75125 12.0364 6.68676 11.7978 6.36854C11.3554 5.77873 9.78259 4.44049 7.38764 4.44049C4.75645 4.44049 3.15686 5.98383 2.18502 7.10538C2.55995 7.64392 3.14339 8.31692 3.89495 8.89889C4.85493 9.64223 6.04273 10.2025 7.38764 10.2025C7.78542 10.2025 8.10788 10.5249 8.10788 10.9227C8.10788 11.3205 7.78542 11.643 7.38764 11.643C5.62995 11.643 4.13991 10.9104 3.01302 10.0378C1.88955 9.16789 1.08078 8.12434 0.667901 7.4018C0.518702 7.1407 0.547425 6.81439 0.739942 6.58337C0.745815 6.57632 0.751734 6.56922 0.757698 6.56206Z" fill="currentColor" stroke-linejoin="round"/>
<path d="M7.37216 5.48535C6.37921 5.48535 5.56982 6.34756 5.56982 7.40532C5.56982 8.46308 6.37921 9.32528 7.37216 9.32528C8.36512 9.32528 9.1745 8.46308 9.1745 7.40532C9.16616 6.34756 8.36512 5.48535 7.37216 5.48535Z" fill="currentColor" stroke-linejoin="round"/>
<path d="M12.7577 8.4383C12.7577 8.097 12.481 7.82031 12.1397 7.82031C11.7984 7.82031 11.5217 8.097 11.5217 8.4383V10.2924H9.66773C9.32643 10.2924 9.04974 10.5691 9.04974 10.9104C9.04974 11.2517 9.32643 11.5283 9.66773 11.5283H11.5217V13.3822C11.5217 13.7235 11.7984 14.0002 12.1397 14.0002C12.481 14.0002 12.7577 13.7235 12.7577 13.3822V11.5283H14.6116C14.953 11.5283 15.2296 11.2517 15.2296 10.9104C15.2296 10.5691 14.953 10.2924 14.6116 10.2924H12.7577V8.4383Z" fill="currentColor" stroke-linejoin="round"/>
</svg>
