<svg width="14" height="14" viewBox="0 0 14 14" fill="none" xmlns="http://www.w3.org/2000/svg">
<path d="M13.5304 6.47317L11.5563 2.18869L9.58228 6.47317" stroke="#0D6763" stroke-width="0.6" stroke-linecap="round" stroke-linejoin="round"/>
<path d="M10.2303 5.18726H12.7303" stroke="#0D6763" stroke-width="0.6" stroke-linecap="round" stroke-linejoin="round"/>
<path d="M1.03271 7.53621H5.21002" stroke="#0D6763" stroke-width="0.6" stroke-linecap="round" stroke-linejoin="round"/>
<path d="M3.12372 6.78404V7.46956" stroke="#0D6763" stroke-width="0.6" stroke-linecap="round" stroke-linejoin="round"/>
<path d="M4.57854 7.53621C4.57854 7.53621 3.83009 9.86887 1 11.0352" stroke="#0D6763" stroke-width="0.6" stroke-linecap="round" stroke-linejoin="round"/>
<path d="M1.53796 7.53621C1.53796 7.53621 2.28642 9.86887 5.11651 11.0352" stroke="#0D6763" stroke-width="0.6" stroke-linecap="round" stroke-linejoin="round"/>
<path d="M8.25067 1L8.71845 1.95211C3.57283 1 2.63727 5.28448 2.63727 5.28448" stroke="#0D6763" stroke-width="0.6" stroke-linecap="round" stroke-linejoin="round"/>
<path d="M8.25061 2.90421L8.71839 1.9521" stroke="#0D6763" stroke-width="0.6" stroke-linecap="round" stroke-linejoin="round"/>
<path d="M6.8473 13.3774L6.37952 12.4253C11.5251 13.3774 12.4607 9.09291 12.4607 9.09291" stroke="#0D6763" stroke-width="0.6" stroke-linecap="round" stroke-linejoin="round"/>
<path d="M6.8473 11.4732L6.37952 12.4253" stroke="#0D6763" stroke-width="0.6" stroke-linecap="round" stroke-linejoin="round"/>
</svg>
