<svg width="96" height="20" viewBox="0 0 96 20" fill="none" xmlns="http://www.w3.org/2000/svg">
<g id="Matters">
<path id="Matters_2" fill-rule="evenodd" clip-rule="evenodd" d="M0 19.5856V0H4.55208L9.66319 14.9171H9.74306L14.8542 0H19.4329V19.5856H16.1586V5.74585H16.0521C16.0302 5.82925 16.0082 5.91368 15.986 5.99944L15.9859 5.99969C15.846 6.53884 15.6924 7.1304 15.4398 7.8453L11.2604 19.5856H8.19907L4.01968 7.8453C3.72685 7.01657 3.54051 6.35359 3.40741 5.74585H3.30093V19.5856H0ZM29.082 20C24.9026 20 21.8147 16.4088 21.8147 11.9337C21.8147 7.45856 24.9026 3.8674 29.082 3.8674C31.6908 3.8674 33.714 5.33149 34.6457 7.34806H34.7522V4.30939H37.9999V19.5856H34.7522V16.6022H34.6457C33.3679 19.0055 31.4513 20 29.082 20ZM29.7745 16.7403C32.4365 16.7403 34.2733 14.6685 34.2733 11.9337C34.2733 9.17127 32.4365 7.12707 29.7745 7.12707C27.1391 7.12707 25.3289 9.17127 25.3289 11.9337C25.3289 14.6685 27.1391 16.7403 29.7745 16.7403ZM41.9833 19.5856V7.54143H39.716V4.30939H41.9833V0H45.3175V4.30939H47.0631H47.6648H50.3183V0H53.6525V4.30939H55.9998V7.54143H53.6525V16.3536H55.9198V19.5856H50.3183V7.54143H47.6648H47.0631H45.3175V16.3536H47.5848V19.5856H41.9833ZM65.5583 20C61.0175 20 57.4708 16.3536 57.4708 11.8785C57.4708 7.40332 61.0175 3.89503 65.5583 3.89503C70.0992 3.89503 73.6459 7.40332 73.6459 11.989C73.6459 12.2376 73.619 12.6796 73.5384 13.0939H61.0712C61.4474 15.1934 63.3551 16.768 65.6121 16.768C67.3854 16.768 68.8632 15.9116 69.5618 14.3646H73.2698C72.2219 17.6519 69.2663 20 65.5583 20ZM61.1251 10.4696H69.9112C69.6157 8.64641 67.8692 7.12707 65.5047 7.12707C63.1403 7.12707 61.3669 8.53591 61.1251 10.4696ZM75.5934 19.5856V4.3094H84.5407V7.54144H78.9789V19.5856H75.5934ZM90.5186 20C87.3481 20 84.9836 17.7901 84.9836 15.1105H88.3422C88.3691 16.105 89.3364 16.8232 90.5724 16.8232C91.8889 16.8232 92.7219 16.1602 92.7219 15.1657C92.7219 13.895 91.4053 13.6188 90.0619 13.2597C87.2675 12.5414 85.2792 11.3536 85.2792 8.56354C85.2792 5.93923 87.5899 3.89503 90.6261 3.89503C93.5548 3.89503 95.973 5.96686 95.973 8.67404L92.6144 8.64641C92.6144 7.62431 91.674 7.0442 90.6261 7.0442C89.5513 7.0442 88.6378 7.59669 88.6378 8.53591C88.6378 9.66851 89.9275 9.94475 91.271 10.3039C93.2593 10.8287 95.9999 11.5193 95.9999 15.1105C95.9999 17.8177 93.528 20 90.5186 20Z" fill="#333333"/>
</g>
</svg>
