<svg width="24" height="24" viewBox="0 0 24 24" fill="none" xmlns="http://www.w3.org/2000/svg">
<rect width="24" height="24" rx="12" fill="#D7805B"/>
<path d="M14.113 8C13.6776 8.00006 13.2504 8.12961 12.878 8.3746C12.5055 8.61958 12.2018 8.97066 12 9.38975C11.752 8.87711 11.3531 8.4694 10.8669 8.23165C10.3808 7.99389 9.83531 7.93978 9.31752 8.07792C8.79973 8.21607 8.33944 8.53853 8.01003 8.99389C7.68062 9.44925 7.50107 10.0113 7.5 10.5904C7.5 12.0205 8.31783 13.3274 9.37435 14.4005C10.1894 15.185 11.0682 15.8877 12 16.5C12.9248 15.8764 13.8027 15.1744 14.6257 14.4005C15.7996 13.236 16.5 12.0205 16.5 10.5904C16.5 10.25 16.4382 9.91301 16.3183 9.59859C16.1983 9.28417 16.0224 8.99852 15.8008 8.75795C15.5791 8.51739 15.3159 8.32662 15.0263 8.19657C14.7368 8.06652 14.4264 7.99972 14.113 8Z" stroke="white" stroke-width="1.25" stroke-miterlimit="10" stroke-linecap="round" stroke-linejoin="round"/>
</svg>
