<svg width="24" height="24" viewBox="0 0 24 24" fill="none" xmlns="http://www.w3.org/2000/svg">
<g id="Anthology">
<g id="Vector">
<path d="M18.0975 7.17588C17.8245 7.1031 17.5561 7.30674 17.5561 7.58669V14.9341C17.5561 16.3072 16.4316 17.4205 15.0448 17.4205H6.68438C6.42959 17.4205 6.35688 17.7035 6.60294 17.769L14.62 19.9132C15.9589 20.2719 17.3374 19.4864 17.6998 18.1607L19.8654 10.2231C20.1872 9.04585 19.9493 8.15173 18.9652 7.50748C18.7046 7.33688 18.4026 7.24213 18.0975 7.17588Z" fill="currentColor"/>
<path d="M14.187 4H5.72327C4.77153 4 4 4.76389 4 5.70619V14.0861C4 15.0284 4.77153 15.7923 5.72327 15.7923H14.187C15.1387 15.7923 15.9103 15.0284 15.9103 14.0861V5.70619C15.9103 4.76389 15.1387 4 14.187 4Z" fill="currentColor"/>
</g>
</g>
</svg>
