<svg xmlns="http://www.w3.org/2000/svg" fill="none" viewBox="0 0 24 24"><path d="M11.99 1.5V0c1.45 0 2.868.258 4.2.756l-.526 1.405A10.476 10.476 0 0011.99 1.5zm6.882 2.57l.983-1.133A12.048 12.048 0 0122.53 6.26l-1.316.718c-.6-1.1-1.395-2.086-2.342-2.908zm3.515 6.452l1.485-.21c.077.548.116 1.102.118 1.661V12c0 .877-.095 1.743-.28 2.586l-1.465-.322a10.54 10.54 0 00.245-2.263v-.025c-.001-.49-.036-.975-.103-1.454zm-1.59 7.199l1.256.818a12.062 12.062 0 01-2.923 3.106l-.893-1.204a10.562 10.562 0 002.56-2.72zm-5.885 4.367l.416 1.441a12.007 12.007 0 01-4.274.435l.115-1.496a10.503 10.503 0 003.743-.38zm-7.368-.573l-.636 1.359a12.028 12.028 0 01-3.481-2.467l1.07-1.051c.879.895 1.91 1.628 3.047 2.16zm-5.16-5.267l-1.371.607A11.938 11.938 0 01.01 12.707l1.498-.087c.073 1.264.372 2.488.876 3.628zm-.44-7.312L.509 8.499A11.966 11.966 0 012.46 4.705l1.19.912a10.466 10.466 0 00-1.707 3.319zm4.523-5.868l-.79-1.275A11.93 11.93 0 019.647.23L9.94 1.7a10.43 10.43 0 00-3.472 1.368z" fill="currentColor"  fill-rule="nonzero"/></svg>
