<svg width="16" height="16" viewBox="0 0 16 16" fill="none" xmlns="http://www.w3.org/2000/svg">
<path d="M14.1629 14.75H3.87618C2.34285 14.75 1.47618 14.0167 1.42285 12.6833C1.42285 12.59 1.42285 12.4967 1.42285 12.4033C1.42285 12.3767 1.42285 12.3567 1.42285 12.33V2.93C1.42285 2.85 1.44952 2.77 1.48952 2.70333C1.82952 1.25 3.37618 1.25 4.00285 1.25H14.1629C14.3895 1.25 14.5762 1.43667 14.5762 1.66333V10.9967C14.5762 10.9967 14.5762 11.0233 14.5762 11.0433C14.5762 11.0767 14.5629 11.1167 14.5495 11.15C14.5495 11.15 14.5229 11.21 14.5029 11.2367C14.4962 11.25 14.4829 11.2633 14.4762 11.27C14.4295 11.3233 13.5362 12.43 14.5229 14.1233C14.5962 14.25 14.5962 14.41 14.5229 14.5433C14.4495 14.67 14.3095 14.75 14.1629 14.75ZM3.87618 11.4167C3.24285 11.4167 2.78952 11.5567 2.52952 11.8233C2.28285 12.0767 2.24285 12.41 2.25618 12.65C2.27618 13.2367 2.48285 13.9167 3.87618 13.9167H13.4962C13.0695 12.8433 13.2229 11.9767 13.4495 11.4167H3.87618ZM2.25618 3.33V10.9767C2.66285 10.71 3.20952 10.5767 3.87618 10.5767H13.7495V2.08333H4.00285C2.53618 2.08333 2.25618 2.52333 2.25618 3.33667V3.33Z" fill="currentColor"/>
</svg>
