<svg width="24" height="24" viewBox="0 0 24 24" fill="none" xmlns="http://www.w3.org/2000/svg">
<path fill-rule="evenodd" clip-rule="evenodd" d="M2.375 12C2.375 6.68426 6.68426 2.375 12 2.375C17.3157 2.375 21.625 6.68426 21.625 12C21.625 17.3157 17.3157 21.625 12 21.625C6.68426 21.625 2.375 17.3157 2.375 12ZM15.9295 8.04598C16.1667 8.29674 16.1667 8.7033 15.9295 8.95406L12.8589 12.2001L15.8014 15.3108C16.0386 15.5616 16.0385 15.9681 15.8013 16.2189C15.5641 16.4696 15.1795 16.4696 14.9423 16.2189L11.9999 13.1082L9.05743 16.2187C8.82022 16.4694 8.43563 16.4694 8.19842 16.2187C7.96121 15.9679 7.96121 15.5614 8.19842 15.3106L11.1409 12.2L8.07047 8.95404C7.83327 8.70328 7.83328 8.29672 8.0705 8.04597C8.30771 7.79521 8.69231 7.79523 8.92951 8.04599L11.9999 11.292L15.0705 8.04598C15.3077 7.79522 15.6923 7.79522 15.9295 8.04598Z" fill="currentColor"/>
</svg>
