<svg width="24" height="24" viewBox="0 0 24 24" fill="none" xmlns="http://www.w3.org/2000/svg">
<path fill-rule="evenodd" clip-rule="evenodd" d="M2.375 12C2.375 6.68426 6.68426 2.375 12 2.375C17.3157 2.375 21.625 6.68426 21.625 12C21.625 17.3157 17.3157 21.625 12 21.625C6.68426 21.625 2.375 17.3157 2.375 12ZM16.4607 9.92233C16.694 9.66788 16.6768 9.27253 16.4223 9.03928C16.1679 8.80604 15.7725 8.82323 15.5393 9.07768L10.5157 14.5579L7.97455 11.5933C7.74991 11.3312 7.35535 11.3008 7.09327 11.5255C6.83119 11.7501 6.80084 12.1447 7.02548 12.4067L10.0255 15.9067C10.1418 16.0425 10.3108 16.1219 10.4896 16.1249C10.6684 16.1279 10.8399 16.0541 10.9607 15.9223L16.4607 9.92233Z" fill="currentColor"/>
</svg>
