<svg width="24" height="24" viewBox="0 0 24 24" fill="none" xmlns="http://www.w3.org/2000/svg">
<path d="M12.105 16.5784C10.555 16.5784 9.30499 15.3184 9.30499 13.7784C9.30499 12.4184 11.235 9.98839 11.625 9.50839C11.745 9.35839 11.925 9.27839 12.105 9.27839C12.295 9.27839 12.475 9.35839 12.585 9.50839C12.975 9.98839 14.905 12.4184 14.905 13.7784C14.905 15.3284 13.645 16.5784 12.105 16.5784ZM12.105 10.9184C11.355 11.9384 10.555 13.2184 10.555 13.7684C10.555 14.6284 11.255 15.3184 12.105 15.3184C12.955 15.3184 13.655 14.6184 13.655 13.7684C13.655 13.2184 12.855 11.9284 12.105 10.9184Z" fill="currentColor"/>
<path d="M12.005 22.6284C6.85499 22.6284 2.67499 18.4484 2.67499 13.2984C2.67499 8.54839 4.95499 6.92839 6.97499 5.48839C8.37499 4.48839 9.57499 3.62839 10.055 1.83839C10.105 1.66839 10.215 1.51839 10.375 1.43839C10.535 1.35839 10.715 1.34839 10.885 1.41839C14.065 2.68839 14.385 4.03839 14.445 5.41839C14.475 6.04839 14.505 6.22839 14.925 6.43839C15.255 6.60839 15.385 6.52839 15.425 6.50839C15.765 6.31839 15.985 5.46839 16.025 4.94839C16.045 4.72839 16.175 4.52839 16.375 4.43839C16.575 4.33839 16.815 4.35839 16.995 4.47839C19.825 6.36839 21.325 9.41839 21.325 13.2984C21.325 18.4384 17.135 22.6284 11.995 22.6284H12.005ZM11.035 2.84839C10.335 4.62839 8.99499 5.57839 7.69499 6.50839C5.75499 7.88839 3.92499 9.19839 3.92499 13.2984C3.92499 17.7584 7.54499 21.3784 12.005 21.3784C16.465 21.3784 20.085 17.7584 20.085 13.2984C20.085 10.1884 19.075 7.76839 17.085 6.09839C16.915 6.65839 16.615 7.28839 16.055 7.59839C15.715 7.79839 15.145 7.94839 14.375 7.55839C13.275 7.00839 13.235 6.12839 13.205 5.47839C13.165 4.65839 13.125 3.80839 11.035 2.84839Z" fill="currentColor"/>
</svg>
