<svg width="24" height="24" viewBox="0 0 24 24" fill="none" xmlns="http://www.w3.org/2000/svg">
<g id="Civic Liker">
<circle id="Ellipse 1814" cx="12" cy="12" r="12" fill="white"/>
<g id="Vector">
<path fill-rule="evenodd" clip-rule="evenodd" d="M12 23C18.0751 23 23 18.0751 23 12C23 5.92487 18.0751 1 12 1C5.92487 1 1 5.92487 1 12C1 18.0751 5.92487 23 12 23ZM16.8617 15.6384C16.1577 17.3587 14.4759 18.4167 12.3403 18.4167C8.99221 18.4167 6.95833 16.0083 6.95833 12C6.95833 8.00034 9.03132 5.58333 12.2777 5.58333C14.3898 5.58333 16.0247 6.6155 16.7992 8.4046C16.9556 8.73146 17.0338 9.06691 17.0338 9.37656C17.0338 10.0561 16.6192 10.4947 15.9934 10.4947C15.4615 10.4947 15.1251 10.2367 14.867 9.63461C14.3507 8.3702 13.4276 7.73369 12.3012 7.73369C10.5176 7.73369 9.36769 9.37656 9.36769 11.9914C9.36769 14.6406 10.502 16.2749 12.309 16.2749C13.498 16.2749 14.3898 15.6814 14.8983 14.4342C15.1408 13.8493 15.438 13.6171 15.9387 13.6171C16.6036 13.6171 17.0417 14.0815 17.0417 14.7697C17.0417 15.0621 16.9791 15.3374 16.8617 15.6384Z" fill="#40BFA5"/>
<path d="M12.3403 18.4167C14.4759 18.4167 16.1577 17.3587 16.8617 15.6384C16.9791 15.3374 17.0417 15.0621 17.0417 14.7697C17.0417 14.0815 16.6036 13.6171 15.9387 13.6171C15.438 13.6171 15.1408 13.8493 14.8983 14.4342C14.3898 15.6814 13.498 16.2749 12.309 16.2749C10.502 16.2749 9.36769 14.6406 9.36769 11.9914C9.36769 9.37656 10.5176 7.73369 12.3012 7.73369C13.4276 7.73369 14.3507 8.3702 14.867 9.63461C15.1251 10.2367 15.4615 10.4947 15.9934 10.4947C16.6192 10.4947 17.0338 10.0561 17.0338 9.37656C17.0338 9.06691 16.9556 8.73146 16.7992 8.4046C16.0247 6.6155 14.3898 5.58333 12.2777 5.58333C9.03132 5.58333 6.95833 8.00034 6.95833 12C6.95833 16.0083 8.99221 18.4167 12.3403 18.4167Z" fill="white"/>
</g>
</g>
</svg>
