<svg width="24" height="24" viewBox="0 0 24 24" fill="none" xmlns="http://www.w3.org/2000/svg">
<path fill-rule="evenodd" clip-rule="evenodd" d="M12 24C18.6274 24 24 18.6274 24 12C24 5.37258 18.6274 0 12 0C5.37258 0 0 5.37258 0 12C0 18.6274 5.37258 24 12 24ZM17.3037 15.9692C16.5357 17.8458 14.7009 19 12.3712 19C8.71877 19 6.5 16.3727 6.5 12C6.5 7.63673 8.76144 5 12.3029 5C14.6071 5 16.3906 6.12601 17.2355 8.07775C17.4061 8.43432 17.4915 8.80027 17.4915 9.13807C17.4915 9.87936 17.0392 10.3579 16.3565 10.3579C15.7762 10.3579 15.4092 10.0764 15.1276 9.41957C14.5644 8.04021 13.5574 7.34584 12.3285 7.34584C10.3829 7.34584 9.12839 9.13807 9.12839 11.9906C9.12839 14.8807 10.3658 16.6635 12.3371 16.6635C13.6342 16.6635 14.6071 16.0161 15.1618 14.6555C15.4263 14.0174 15.7506 13.7641 16.2967 13.7641C17.0221 13.7641 17.5 14.2708 17.5 15.0214C17.5 15.3405 17.4317 15.6408 17.3037 15.9692Z" fill="#40BFA5"/>
</svg>
