<svg width="24" height="24" viewBox="0 0 24 24" fill="none" xmlns="http://www.w3.org/2000/svg">
<path d="M21.149 14.2959C19.599 15.4459 18.569 16.1559 16.559 16.9959C15.749 17.3359 15.139 17.3559 15.139 17.1959C15.139 16.9259 15.139 16.7859 15.879 16.5159C18.399 15.6059 21.219 13.4259 22.009 12.7259C22.579 12.2159 22.579 11.3859 22.329 10.8859C22.079 10.3759 21.269 10.2259 20.679 10.7759C18.719 12.5959 16.879 13.5559 15.679 14.1559C15.139 14.4259 14.369 14.7059 14.269 14.3359C14.199 14.0859 14.289 13.9359 15.349 13.4059C17.919 12.1259 19.759 10.7759 20.549 9.69594C21.069 8.98594 21.509 7.92594 20.919 7.37594C20.259 6.75594 19.309 7.19594 18.789 7.93594C18.089 8.92594 17.069 9.89594 14.469 11.3759C14.429 11.3959 13.659 11.8459 13.589 11.3759C13.569 11.2459 13.609 11.2059 14.199 10.8359C16.699 9.28594 16.829 8.95594 17.579 8.06594C18.279 7.23594 18.389 6.63594 18.139 6.16594C17.569 5.08594 16.179 6.18594 14.709 7.43594C12.989 8.89594 11.629 9.23594 10.499 9.42594C10.229 9.46594 10.039 9.17594 10.189 8.94594C10.759 8.09594 11.339 7.08594 11.349 6.14594C11.349 4.72594 10.759 4.20594 10.259 4.02594C9.17899 3.61594 8.62899 5.80594 6.69899 8.05594C4.72899 10.3459 2.99899 10.6259 2.18899 12.9359C0.948989 16.4459 1.33899 19.8759 3.95899 21.7659C5.69899 23.0159 7.68899 23.0159 9.74899 22.8759C15.769 22.4559 20.149 18.5859 21.629 16.6459C22.259 15.8159 22.569 15.2559 22.239 14.4859C22.069 14.0859 21.509 14.0259 21.159 14.2859L21.149 14.2959Z" fill="currentColor"/>
<path d="M19.349 5.91594C19.559 5.91594 19.759 5.84594 19.929 5.69594L21.189 4.56594C21.549 4.24594 21.569 3.69594 21.259 3.34594C20.939 2.98594 20.389 2.96594 20.039 3.27594L18.779 4.40594C18.419 4.72594 18.399 5.27594 18.709 5.62594C18.879 5.81594 19.119 5.91594 19.349 5.91594Z" fill="currentColor"/>
<path d="M12.849 2.74594C12.919 3.17594 13.279 3.47594 13.699 3.47594C13.739 3.47594 13.789 3.47594 13.829 3.46594C14.299 3.39594 14.629 2.95594 14.549 2.47594L14.459 1.88594C14.389 1.41594 13.949 1.08594 13.469 1.16594C12.999 1.23594 12.669 1.67594 12.749 2.15594L12.839 2.74594H12.849Z" fill="currentColor"/>
<path d="M16.649 4.56594C16.729 4.58594 16.809 4.59594 16.889 4.59594C17.269 4.59594 17.609 4.34594 17.719 3.96594L18.239 2.16594C18.369 1.70594 18.109 1.22594 17.649 1.09594C17.189 0.965938 16.709 1.22594 16.579 1.68594L16.059 3.48594C15.929 3.94594 16.189 4.42594 16.649 4.55594V4.56594Z" fill="currentColor"/>
<path d="M12.519 7.97594C12.739 7.87594 12.999 7.72594 13.279 7.49594C13.759 7.11594 14.449 6.46594 15.089 6.12594C15.369 5.97594 15.349 5.57594 15.059 5.45594C14.559 5.25594 13.789 5.19594 12.829 5.90594C12.679 6.01594 12.579 6.17594 12.539 6.34594C12.469 6.62594 12.339 7.09594 12.109 7.52594C11.969 7.79594 12.249 8.09594 12.529 7.96594L12.519 7.97594Z" fill="currentColor"/>
</svg>
