<svg width="24" height="24" viewBox="0 0 24 24" fill="none" xmlns="http://www.w3.org/2000/svg">
<path d="M21.8784 14.4562C21.7484 14.0562 21.4884 13.7762 21.2384 13.5762C21.6084 12.9562 22.0584 11.9762 21.8784 11.0762C21.7484 10.4362 21.4084 10.0962 21.1484 9.93615C21.0784 9.89615 21.0084 9.85615 20.9384 9.82615C21.1784 9.17615 21.3184 8.27615 20.7284 7.60615C20.0884 6.88615 19.2584 6.90615 18.5584 7.15615C18.4384 6.65615 18.1384 6.26615 17.6984 6.03615C16.9284 5.63615 15.5784 5.77615 14.1184 7.36615C12.2884 9.36615 10.5684 9.62615 9.18838 9.83615L9.01838 9.86615V9.84615C9.09838 9.72615 9.19838 9.57615 9.31838 9.41615C9.97838 8.48615 10.8784 7.21615 10.8784 6.10615C10.8784 4.81615 10.3684 4.35615 9.93838 4.19615C8.96838 3.82615 7.59838 4.70615 5.73838 6.85615C3.67838 9.21615 2.92838 10.8962 2.08838 12.9962C1.95838 13.3162 2.11838 13.6762 2.43838 13.8062C2.75838 13.9362 3.12838 13.7762 3.24838 13.4562C4.06838 11.4062 4.74838 9.88615 6.65838 7.66615C8.63838 5.36615 9.40838 5.35615 9.45838 5.35615C9.45838 5.35615 9.59838 5.58615 9.59838 6.09615C9.59838 6.80615 8.76838 7.98615 8.26838 8.68615C8.14838 8.85615 8.03838 9.01615 7.94838 9.14615C7.65838 9.58615 7.64838 10.1462 7.92838 10.5862C8.18839 10.9862 8.62839 11.1862 9.09838 11.1162L9.35838 11.0762C10.7684 10.8662 12.8984 10.5362 15.0184 8.21615C15.9384 7.21615 16.7384 6.96615 17.0984 7.14615C17.3084 7.25615 17.3784 7.55615 17.3284 7.94615C16.6684 8.70615 14.9784 10.4162 13.5484 10.8262C13.2184 10.9162 13.0284 11.2662 13.1184 11.5962C13.1984 11.8662 13.4484 12.0462 13.7184 12.0462C13.7784 12.0462 13.8384 12.0462 13.8884 12.0262C15.9284 11.4462 18.0084 9.06615 18.3484 8.66615C18.5184 8.53615 19.3384 7.95615 19.7584 8.43615C20.0284 8.73615 19.6984 9.57615 19.4584 9.97615C19.1884 10.2962 16.7684 13.1262 14.1584 13.7362C13.8184 13.8162 13.6184 14.1562 13.6884 14.4862C13.7584 14.7762 14.0084 14.9662 14.2984 14.9662C14.3484 14.9662 14.3984 14.9662 14.4384 14.9462C17.1884 14.2962 19.6084 11.7062 20.2684 10.9362C20.3284 10.9362 20.3984 10.9562 20.4484 10.9862C20.5284 11.0362 20.5884 11.1562 20.6184 11.3162C20.7484 11.9762 20.0984 13.0262 19.8284 13.3762C19.5284 13.6662 17.0784 15.9962 14.9684 16.7362C14.6384 16.8462 14.4684 17.2062 14.5884 17.5362C14.6784 17.7962 14.9184 17.9562 15.1784 17.9562C15.2484 17.9562 15.3184 17.9462 15.3884 17.9162C17.4184 17.2062 19.6084 15.2962 20.4184 14.5462C20.5284 14.6262 20.6284 14.7162 20.6684 14.8362C20.7384 15.0562 20.6084 15.3962 20.3084 15.7962C19.2184 17.2262 15.1184 21.0562 9.35838 21.5162C7.39838 21.6762 5.77838 21.4062 4.53838 20.7262C4.23838 20.5562 3.85838 20.6762 3.68838 20.9762C3.51838 21.2762 3.62838 21.6562 3.93838 21.8262C5.12838 22.4862 6.59838 22.8162 8.30838 22.8162C8.67838 22.8162 9.06838 22.7962 9.46838 22.7662C15.4684 22.2862 19.8384 18.4962 21.3184 16.5562C21.8984 15.7962 22.0784 15.0862 21.8784 14.4462V14.4562Z" fill="currentColor"/>
<path d="M12.5384 6.91615C12.6084 6.91615 12.6784 6.90615 12.7384 6.88615C12.8184 6.85615 13.5084 6.60615 14.2984 5.70615C14.4284 5.55615 14.5084 5.50615 14.5284 5.49615C14.8384 5.35615 14.9884 4.98615 14.8384 4.66615C14.6984 4.34615 14.3284 4.20615 14.0084 4.35615C13.7784 4.45615 13.5684 4.62615 13.3484 4.87615C12.7984 5.50615 12.3484 5.69615 12.3184 5.70615C11.9984 5.81615 11.8284 6.17615 11.9384 6.49615C12.0284 6.75615 12.2684 6.91615 12.5284 6.91615H12.5384Z" fill="currentColor"/>
<path d="M19.2184 5.59615C19.3684 5.59615 19.5184 5.54615 19.6384 5.43615L20.9084 4.29615C21.1684 4.06615 21.1884 3.67615 20.9584 3.41615C20.7284 3.15615 20.3284 3.13615 20.0784 3.36615L18.8084 4.50615C18.5484 4.73615 18.5284 5.12615 18.7584 5.38615C18.8784 5.52615 19.0484 5.59615 19.2284 5.59615H19.2184Z" fill="currentColor"/>
<path d="M13.4984 3.12615C13.4984 3.12615 13.5584 3.12615 13.5984 3.12615C13.9384 3.07615 14.1684 2.75615 14.1184 2.41615L14.0284 1.81615C13.9784 1.47615 13.6584 1.23615 13.3184 1.29615C12.9784 1.34615 12.7484 1.66615 12.7984 2.00615L12.8884 2.60615C12.9384 2.91615 13.1984 3.13615 13.5084 3.13615L13.4984 3.12615Z" fill="currentColor"/>
<path d="M16.5584 4.23615C16.6184 4.25615 16.6784 4.25615 16.7284 4.25615C16.9984 4.25615 17.2484 4.07615 17.3284 3.80615L17.8484 1.97615C17.9484 1.64615 17.7484 1.29615 17.4184 1.20615C17.0884 1.11615 16.7384 1.30615 16.6484 1.63615L16.1284 3.46615C16.0284 3.79615 16.2284 4.14615 16.5584 4.23615Z" fill="currentColor"/>
</svg>
