<svg width="24" height="24" viewBox="0 0 24 24" fill="none" xmlns="http://www.w3.org/2000/svg">
<path d="M7.61347 4.53606C7.66962 4.42812 7.60573 4.34003 7.55357 4.27901C7.30812 3.93513 6.09472 2.58917 5.79998 2.32452C5.65686 2.18714 5.53682 2.20698 5.43176 2.29109C5.30124 2.40551 5.14166 2.61615 4.93079 2.99049C4.71992 3.36484 4.59914 3.59082 4.56808 3.7715C4.54225 3.90489 4.58917 4.01319 4.7731 4.08144C5.13933 4.19935 6.92394 4.57751 7.33946 4.61618C7.45263 4.62503 7.55732 4.644 7.61347 4.53606Z" fill="currentColor"/>
<path d="M9.94541 4.53606C9.88926 4.42812 9.95315 4.34003 10.0053 4.27901C10.2508 3.93513 11.4642 2.58917 11.7589 2.32452C11.902 2.18714 12.0221 2.20698 12.1271 2.29109C12.2576 2.40551 12.4172 2.61615 12.6281 2.99049C12.839 3.36484 12.9597 3.59082 12.9908 3.7715C13.0166 3.90489 12.9697 4.01319 12.7858 4.08144C12.4195 4.19935 10.6349 4.57751 10.2194 4.61618C10.1062 4.62503 10.0016 4.644 9.94541 4.53606Z" fill="currentColor"/>
<path d="M8.79216 4.09632C8.91382 4.09507 8.95137 3.98876 8.98206 3.91114C9.13553 3.52307 9.66729 1.78126 9.74639 1.39968C9.78594 1.20889 9.71195 1.11231 9.57693 1.0679C9.40311 1.00813 9.13958 0.993665 8.71882 1.00229C8.29806 1.01091 8.03777 1.03363 7.87531 1.10401C7.74841 1.15255 7.68216 1.252 7.71698 1.4363C7.80521 1.80327 8.40557 3.53058 8.58838 3.90804C8.63368 3.99775 8.6705 4.09757 8.79216 4.09632Z" fill="currentColor"/>
<path d="M15.9729 15.0176C15.7089 15.2538 15.431 15.351 15.1809 15.1287C14.9447 14.9064 14.9864 14.6007 15.1948 14.3228C16.9872 12.4054 18.6406 10.1684 19.4326 8.50108C19.7661 7.79247 20.0162 7.06996 20.0995 6.63923C20.1968 6.13903 19.9884 5.83336 19.6966 5.76389C19.4882 5.7222 19.1964 5.86115 19.0575 6.25019C18.9463 6.55587 18.8352 6.9588 18.5156 7.62573C17.8764 8.97349 16.487 11.4606 14.0277 13.5586C13.7081 13.8365 13.4302 13.7254 13.2774 13.5586C13.1246 13.3919 13.0829 13.0584 13.3886 12.7806C16.1119 10.3212 17.5291 7.69521 17.8764 6.55587C18.0154 6.09735 17.8209 5.86115 17.6541 5.81946C17.4874 5.76389 17.015 5.76389 16.8344 6.19461C16.4314 7.13943 15.9451 8.18151 14.3889 9.91831C12.9161 11.5856 10.6791 13.2946 9.3175 14.2117C8.70614 14.6146 8.16426 14.7813 7.66407 14.4896C7.02492 14.1144 7.0944 13.3085 7.14997 12.9612C7.27502 12.2526 7.63628 10.1545 7.88638 8.50108C8.00796 7.69726 7.64176 7.53424 7.32573 7.49912C7.00969 7.46401 6.63588 7.68131 6.45525 8.13983C6.27463 8.59834 5.12139 11.2105 4.52393 13.6559C4.06542 15.5039 4.27384 17.727 4.52393 18.8385C5.2436 22.0371 8.44805 22.6138 9.45145 22.6138C10.4549 22.6138 11.1507 22.4539 12.2958 21.9363C14.7208 20.8403 17.0845 19.1581 18.7518 17.2962C19.3631 16.6154 20.9054 14.5868 21.0583 14.0311C21.1555 13.6976 21.0999 13.4058 20.8082 13.3502C20.6136 13.3085 20.3913 13.4058 20.2246 13.6559C19.5577 14.6146 18.7657 15.5316 17.5986 16.7266C17.2929 17.0322 16.9733 17.0461 16.7788 16.8655C16.5843 16.6849 16.5426 16.3931 16.7649 16.1708C19.0158 13.8504 20.1551 11.9886 20.9749 10.2935C21.2806 9.65432 21.2945 9.07075 20.9471 8.93181C20.6553 8.82065 20.3913 8.98739 20.2524 9.27917C19.6271 10.6686 17.7514 13.3224 15.9729 15.0176Z" fill="currentColor"/>
<path d="M9.61135 11.3518C9.27789 11.3518 9 11.074 9 10.7405C9 10.5599 9.06947 10.3931 9.20842 10.282C10.9452 8.75359 11.7094 7.5031 11.8483 7.253C12.3624 6.36376 13.1822 5.90524 14.0298 6.0164C14.3632 6.05808 14.5994 6.37765 14.5578 6.71112C14.5161 7.04458 14.2104 7.28079 13.8769 7.2391C13.3767 7.16963 13.0433 7.65594 12.9182 7.86435C12.7654 8.12835 11.9039 9.54557 10.0282 11.199C9.91703 11.3102 9.76419 11.3518 9.61135 11.3518Z" fill="currentColor"/>
</svg>
