<svg width="24" height="24" viewBox="0 0 24 24" fill="none" xmlns="http://www.w3.org/2000/svg">
<path d="M8.75564 10.5443C8.42217 10.5443 8.14429 10.2664 8.14429 9.93295C8.14429 9.75232 8.21376 9.58559 8.3527 9.47443C10.0895 7.94605 10.8537 6.69555 10.9926 6.44545C11.5067 5.55621 12.3265 5.0977 13.1741 5.20885C13.5075 5.25054 13.7437 5.57011 13.702 5.90357C13.6604 6.23704 13.3547 6.47324 13.0212 6.43156C12.521 6.36209 12.1876 6.84839 12.0625 7.05681C11.9097 7.3208 11.0482 8.73803 9.17247 10.3915C9.06132 10.5026 8.90848 10.5443 8.75564 10.5443Z" fill="currentColor"/>
<path d="M14.1809 15.1287C14.431 15.351 14.7089 15.2537 14.9729 15.0175C16.7514 13.3224 18.6271 10.6686 19.2523 9.27915C19.3913 8.98737 19.6553 8.82063 19.9471 8.93179C20.2944 9.07073 20.2805 9.6543 19.9749 10.2934C19.1551 11.9886 18.0157 13.8504 15.7648 16.1708C15.5425 16.3931 15.5842 16.6849 15.7787 16.8655C15.9733 17.0461 16.2928 17.0322 16.5985 16.7265C17.7656 15.5316 18.5576 14.6146 19.2246 13.6559C19.3913 13.4058 19.6136 13.3085 19.8081 13.3502C20.0999 13.4058 20.1555 13.6976 20.0582 14.031C19.9054 14.5868 18.3631 16.6154 17.7517 17.2962C16.0844 19.1581 13.7207 20.8403 11.2958 21.9363C10.1506 22.4539 9.45482 22.6138 8.45141 22.6138C7.70104 22.6138 7.75629 23.7935 8.66242 23.7935C9.8006 23.7935 10.9713 23.3681 11.9439 22.9234C15.1535 21.4645 16.4596 20.2974 18.3353 18.4356C19.1829 17.588 20.3639 15.7678 20.6835 15.2259C21.5727 13.7115 21.1142 12.4193 20.2944 12.197C20.2388 12.1831 20.2111 12.1275 20.225 12.0719C20.225 12.058 20.225 12.058 20.2388 12.0441C20.8641 10.9743 21.1559 10.224 21.267 9.6543C21.4199 8.87621 21.2115 7.9175 20.1277 7.69519C20.0721 7.68129 20.0443 7.62572 20.0443 7.57014C20.1138 7.32004 20.1833 7.01436 20.225 6.80595C20.4473 5.79166 19.8081 4.87462 19.0439 4.70789C18.502 4.59674 18.0157 4.72179 17.5989 5.01357C17.5433 5.05525 17.46 5.04136 17.4183 4.98578C17.2515 4.80515 16.9876 4.62453 16.6124 4.61063C15.9455 4.59674 15.2785 4.80515 14.7922 5.83334C14.4449 6.56974 13.9308 7.57014 12.4163 9.23746C11.013 10.8353 9.06775 12.3498 7.85894 13.1418C7.65053 13.2807 7.34485 13.2529 7.38653 12.9612C7.44211 12.5165 7.92841 9.48756 8.01178 8.59832C8.15072 7.15331 7.37264 6.48637 6.49729 6.37522C5.77478 6.27796 4.69102 6.48637 4.09356 8.12591C3.7462 9.08463 3.0098 10.6547 2.39844 13.1974C1.96772 14.9758 1.89825 17.06 2.28729 19.4498C2.34295 19.7917 2.72676 20.0309 3.12532 19.8797C3.52389 19.7285 3.64894 19.3943 3.52389 18.8385C3.27379 17.7269 3.06538 15.5038 3.52389 13.6559C4.12135 11.2105 5.27458 8.59832 5.45521 8.13981C5.63584 7.68129 6.00965 7.46399 6.32568 7.4991C6.64172 7.53422 7.00792 7.69724 6.88633 8.50106C6.63623 10.1545 6.27498 12.2525 6.14993 12.9612C6.09435 13.3085 6.02488 14.1144 6.66402 14.4895C7.16422 14.7813 7.7061 14.6146 8.31746 14.2117C9.67911 13.2946 11.9161 11.5856 13.3889 9.91829C14.9451 8.18149 15.4314 7.13941 15.8343 6.19459C16.0149 5.76387 16.4874 5.76387 16.6541 5.81944C16.8208 5.86113 17.0153 6.09733 16.8764 6.55585C16.529 7.69519 15.1118 10.3212 12.3885 12.7805C12.0828 13.0584 12.1245 13.3919 12.2774 13.5586C12.4302 13.7254 12.7081 13.8365 13.0277 13.5586C15.487 11.4606 16.8764 8.97347 17.5155 7.62571C17.8351 6.95878 17.9463 6.55585 18.0574 6.25017C18.1964 5.86113 18.4882 5.72218 18.6966 5.76387C18.9883 5.83334 19.1968 6.13901 19.0995 6.63921C19.0161 7.06994 18.766 7.79245 18.4326 8.50106C17.6406 10.1684 15.9872 12.4054 14.1948 14.3228C13.9864 14.6007 13.9447 14.9064 14.1809 15.1287Z" fill="currentColor"/>
<path d="M7.61347 4.53606C7.66962 4.42812 7.60573 4.34003 7.55357 4.27901C7.30812 3.93513 6.09472 2.58917 5.79998 2.32452C5.65686 2.18714 5.53682 2.20698 5.43176 2.29109C5.30124 2.40551 5.14166 2.61615 4.93079 2.99049C4.71992 3.36484 4.59914 3.59082 4.56808 3.7715C4.54225 3.90489 4.58917 4.01319 4.7731 4.08144C5.13933 4.19935 6.92394 4.57751 7.33946 4.61618C7.45263 4.62503 7.55732 4.644 7.61347 4.53606Z" fill="currentColor"/>
<path d="M9.94541 4.53606C9.88926 4.42812 9.95315 4.34003 10.0053 4.27901C10.2508 3.93513 11.4642 2.58917 11.7589 2.32452C11.902 2.18714 12.0221 2.20698 12.1271 2.29109C12.2576 2.40551 12.4172 2.61615 12.6281 2.99049C12.839 3.36484 12.9597 3.59082 12.9908 3.7715C13.0166 3.90489 12.9697 4.01319 12.7858 4.08144C12.4195 4.19935 10.6349 4.57751 10.2194 4.61618C10.1062 4.62503 10.0016 4.644 9.94541 4.53606Z" fill="currentColor"/>
<path d="M8.79216 4.09632C8.91382 4.09507 8.95137 3.98876 8.98206 3.91114C9.13553 3.52307 9.66729 1.78126 9.74639 1.39968C9.78594 1.20889 9.71195 1.11231 9.57693 1.0679C9.40311 1.00813 9.13958 0.993665 8.71882 1.00229C8.29806 1.01091 8.03777 1.03363 7.87531 1.10401C7.74841 1.15255 7.68216 1.252 7.71698 1.4363C7.80521 1.80327 8.40557 3.53058 8.58838 3.90804C8.63368 3.99775 8.6705 4.09757 8.79216 4.09632Z" fill="currentColor"/>
</svg>
