<svg width="24" height="24" viewBox="0 0 24 24" fill="none" xmlns="http://www.w3.org/2000/svg">
<path d="M12 22.6199C6.15 22.6199 1.38 17.8521 1.38 11.9949C1.38 6.13764 6.15 1.37988 12 1.37988C17.85 1.37988 22.62 6.14764 22.62 11.9949C22.62 17.8421 17.85 22.6099 12 22.6099V22.6199ZM12 2.62929C6.84 2.62929 2.63 6.83731 2.63 11.9949C2.63 17.1525 6.84 21.3705 12.01 21.3705C17.18 21.3705 21.39 17.1625 21.39 11.9949C21.39 6.82732 17.17 2.62929 12 2.62929ZM12 19.2915C11.65 19.2915 11.38 19.0116 11.38 18.6717V17.5922C10.59 17.4923 9.86 17.2124 9.27 16.7726L8.29 16.043C8.01 15.8331 7.96 15.4433 8.17 15.1634C8.38 14.8835 8.77 14.8335 9.05 15.0435L10.03 15.7731C11.07 16.5527 12.95 16.5527 13.99 15.7731C14.46 15.4233 14.72 14.9735 14.72 14.5037C14.72 14.0339 14.46 13.5841 13.99 13.2343C13.47 12.8445 12.76 12.6246 12.01 12.6246C11.03 12.6246 10.1 12.3147 9.40001 11.755C8.65001 11.1653 8.24001 10.3657 8.24001 9.49606C8.24001 8.62647 8.65001 7.83684 9.40001 7.23713C9.95001 6.79733 10.64 6.51746 11.39 6.40752V5.32802C11.39 4.98818 11.67 4.70832 12.01 4.70832C12.35 4.70832 12.63 4.98818 12.63 5.32802V6.40752C13.38 6.50747 14.07 6.79733 14.62 7.23713L15.08 7.59696C15.35 7.80686 15.4 8.20667 15.18 8.47654C14.97 8.74641 14.57 8.79639 14.3 8.57649L13.84 8.20667C12.87 7.43703 11.13 7.43703 10.17 8.20667C9.73001 8.5565 9.48001 9.01629 9.48001 9.48607C9.48001 9.95584 9.72001 10.4156 10.17 10.7655C10.65 11.1453 11.31 11.3652 12.01 11.3652C13.03 11.3652 14.01 11.665 14.74 12.2248C15.53 12.8145 15.97 13.6241 15.97 14.4937C15.97 15.3633 15.53 16.1629 14.74 16.7626C14.16 17.2024 13.42 17.4823 12.63 17.5823V18.6617C12.63 19.0016 12.35 19.2815 12.01 19.2815L12 19.2915Z" fill="currentColor"/>
</svg>
