<svg width="24" height="24" viewBox="0 0 24 24" fill="none" xmlns="http://www.w3.org/2000/svg">
<path fill-rule="evenodd" clip-rule="evenodd" d="M11.5576 15.3944C11.8211 15.2019 12.179 15.2019 12.4425 15.3944L17.4425 19.0474C17.777 19.2918 17.85 19.761 17.6056 20.0955C17.3613 20.4299 16.8921 20.503 16.5576 20.2586L12.0001 16.9288L7.4425 20.2586C7.10804 20.503 6.63882 20.4299 6.39446 20.0955C6.1501 19.761 6.22315 19.2918 6.55761 19.0474L11.5576 15.3944Z" fill="#333333"/>
<path fill-rule="evenodd" clip-rule="evenodd" d="M12.4424 8.60559C12.1789 8.79814 11.821 8.79814 11.5575 8.60559L6.5575 4.95258C6.22304 4.70822 6.15 4.239 6.39436 3.90454C6.63871 3.57008 7.10794 3.49704 7.4424 3.7414L11.9999 7.07116L16.5575 3.7414C16.892 3.49704 17.3612 3.57009 17.6055 3.90454C17.8499 4.239 17.7769 4.70823 17.4424 4.95258L12.4424 8.60559Z" fill="#333333"/>
</svg>
