<svg width="24" height="24" viewBox="0 0 24 24" fill="none" xmlns="http://www.w3.org/2000/svg">
<path d="M12 19H7.6041C6.1659 19 5 17.8341 5 16.3959V1M5.38889 9.25H11.6111M17.5 21.5004C16.1193 21.5004 15 20.3811 15 19.0004C15 17.6198 16.1193 16.5005 17.5 16.5005C18.8806 16.5005 19.9999 17.6198 19.9999 19.0004C19.9999 20.3811 18.8806 21.5004 17.5 21.5004ZM17.5 11.4999C16.1193 11.4999 15 10.3806 15 8.99995C15 7.61927 16.1193 6.5 17.5 6.5C18.8806 6.5 19.9999 7.61927 19.9999 8.99995C19.9999 10.3806 18.8806 11.4999 17.5 11.4999Z" stroke="currentColor" stroke-width="1.25" stroke-linecap="round" stroke-linejoin="round"/>
</svg>
