<svg width="24" height="24" viewBox="0 0 24 24" fill="none" xmlns="http://www.w3.org/2000/svg">
<path d="M7.5 8.25V6C7.5 4.75736 8.50736 3.75 9.75 3.75H18C19.2426 3.75 20.25 4.75736 20.25 6V14.25C20.25 15.4926 19.2426 16.5 18 16.5H15.75M7.5 8.25H6C4.75736 8.25 3.75 9.25736 3.75 10.5V18C3.75 19.2426 4.75736 20.25 6 20.25H13.5C14.7426 20.25 15.75 19.2426 15.75 18V16.5M7.5 8.25H13.5C14.7426 8.25 15.75 9.25736 15.75 10.5V16.5" stroke="currentColor" stroke-width="1.25" stroke-linecap="round" stroke-linejoin="round"/>
</svg>
