<svg width="24" height="24" fill="none" viewBox="0 0 24 24"  xmlns="http://www.w3.org/2000/svg">
<path fill-rule="evenodd" clip-rule="evenodd" d="M19.6331 4.36517C18.8084 3.54494 17.4695 3.54494 16.6447 4.36517L11.6078 9.37443L10.5471 8.31377L15.587 3.30159C16.9969 1.89947 19.281 1.89947 20.6909 3.30159C22.103 4.70599 22.103 6.9847 20.6909 8.3891L15.6428 13.4094L14.5821 12.3488L19.6331 7.32552C20.4556 6.50757 20.4556 5.18312 19.6331 4.36517ZM13.2633 13.6604L14.324 14.721L13.5945 15.4465L12.5338 14.3858L13.2633 13.6604ZM11.215 15.6974L8.75504 18.1439L4.19619 19.7838L5.77252 15.1776L8.24247 12.7213L7.18181 11.6606L4.59072 14.2374L4.46664 14.3608L4.40999 14.5264L2.2904 20.72L2.15332 21.1206L2.42543 21.4449L2.45658 21.4821L2.79279 21.8828L3.28502 21.7057L9.41961 19.4989L9.57644 19.4425L9.69461 19.325L12.2757 16.7581L11.215 15.6974ZM9.56132 11.4097L10.2889 10.686L9.22828 9.62536L8.50065 10.349L9.56132 11.4097Z" fill="currentColor"/>
<line x1="3.69317" y1="4.50397" x2="19.6932" y2="20.504" stroke="currentColor" stroke-width="1.5"/>
</svg>
