<svg width="24" height="24" viewBox="0 0 24 24" fill="none" xmlns="http://www.w3.org/2000/svg">
<path d="M6.3798 14.9201L6.87269 14.8362L6.3798 14.9201ZM7.51367 13.4946L7.51368 12.9946L7.51367 13.4946ZM8.85714 15.0764L9.34967 14.9903L8.85714 15.0764ZM7.54992 23.4724C7.61286 23.7413 7.88185 23.9082 8.15072 23.8453C8.4196 23.7824 8.58654 23.5134 8.5236 23.2445L7.54992 23.4724ZM17.6233 14.9201L17.1304 14.8362L17.6233 14.9201ZM16.4894 13.4946L16.4894 12.9946L16.4894 13.4946ZM15.146 15.0764L14.6535 14.9903L15.146 15.0764ZM15.4795 23.2445C15.4166 23.5134 15.5835 23.7824 15.8524 23.8453C16.1213 23.9082 16.3903 23.7413 16.4532 23.4724L15.4795 23.2445ZM13.6499 9.01256L13.3499 9.41256L13.3499 9.41256L13.6499 9.01256ZM13.6499 11.4874L13.9499 11.8874H13.9499L13.6499 11.4874ZM10.3502 11.4874L10.0502 11.8874H10.0502L10.3502 11.4874ZM9.96667 10.5747C9.74576 10.4091 9.43236 10.4538 9.26667 10.6747C9.10098 10.8956 9.14575 11.209 9.36666 11.3747L9.96667 10.5747ZM11.9999 8.5L11.9999 8H11.9999L11.9999 8.5ZM10.4422 7.98746L10.1312 8.37896H10.1312L10.4422 7.98746ZM10.4422 5.51258L10.1312 5.12108L10.4422 5.51258ZM13.5576 5.51258L13.8686 5.12108L13.5576 5.51258ZM13.5693 6.16043C13.7855 6.3322 14.1 6.29616 14.2718 6.07994C14.4436 5.86372 14.4075 5.54919 14.1913 5.37743L13.5693 6.16043ZM5.21562 11.7011C5.33361 11.9507 5.63166 12.0575 5.88132 11.9395C6.13099 11.8215 6.23773 11.5235 6.11974 11.2738L5.21562 11.7011ZM17.8803 11.2738C17.7623 11.5235 17.869 11.8215 18.1187 11.9395C18.3683 12.0575 18.6664 11.9507 18.7844 11.7011L17.8803 11.2738ZM12.5 3.83333C12.5 3.55719 12.2761 3.33333 12 3.33333C11.7239 3.33333 11.5 3.55719 11.5 3.83333H12.5ZM11.5 13.1667C11.5 13.4428 11.7239 13.6667 12 13.6667C12.2761 13.6667 12.5 13.4428 12.5 13.1667H11.5ZM21.5 2C21.5 1.72386 21.2761 1.5 21 1.5C20.7239 1.5 20.5 1.72386 20.5 2H21.5ZM20.5 4C20.5 4.27614 20.7239 4.5 21 4.5C21.2761 4.5 21.5 4.27614 21.5 4H20.5ZM3.5 12C3.5 11.7239 3.27614 11.5 3 11.5C2.72386 11.5 2.5 11.7239 2.5 12H3.5ZM2.5 14C2.5 14.2761 2.72386 14.5 3 14.5C3.27614 14.5 3.5 14.2761 3.5 14H2.5ZM22 3.5C22.2761 3.5 22.5 3.27614 22.5 3C22.5 2.72386 22.2761 2.5 22 2.5V3.5ZM20 2.5C19.7239 2.5 19.5 2.72386 19.5 3C19.5 3.27614 19.7239 3.5 20 3.5V2.5ZM4 13.5C4.27614 13.5 4.5 13.2761 4.5 13C4.5 12.7239 4.27614 12.5 4 12.5V13.5ZM2 12.5C1.72386 12.5 1.5 12.7239 1.5 13C1.5 13.2761 1.72386 13.5 2 13.5V12.5ZM6.87269 14.8362C6.7805 14.295 7.16559 13.9946 7.51367 13.9946L7.51368 12.9946C6.63825 12.9946 5.67578 13.7649 5.8869 15.0041L6.87269 14.8362ZM7.51367 13.9946C7.62719 13.9946 7.78289 14.0353 7.93524 14.1826C8.08986 14.3322 8.26994 14.621 8.36461 15.1625L9.34967 14.9903C9.22885 14.2992 8.97491 13.7971 8.63052 13.4639C8.28387 13.1286 7.87558 12.9946 7.51368 12.9946L7.51367 13.9946ZM8.36461 15.1625C8.45344 15.6706 8.88434 18.9521 8.94222 19.9495L9.94054 19.8915C9.87981 18.845 9.44292 15.5237 9.34967 14.9903L8.36461 15.1625ZM8.5236 23.2445C7.79597 20.136 7.35834 17.6867 6.87269 14.8362L5.8869 15.0041C6.37357 17.8607 6.81524 20.3338 7.54992 23.4724L8.5236 23.2445ZM18.1162 15.0041C18.3273 13.7649 17.3649 12.9946 16.4894 12.9946L16.4895 13.9946C16.8375 13.9946 17.2226 14.295 17.1304 14.8362L18.1162 15.0041ZM16.4894 12.9946C16.1275 12.9946 15.7193 13.1286 15.3726 13.4639C15.0282 13.7971 14.7743 14.2992 14.6535 14.9903L15.6385 15.1625C15.7332 14.621 15.9133 14.3322 16.0679 14.1827C16.2202 14.0353 16.3759 13.9946 16.4895 13.9946L16.4894 12.9946ZM14.6535 14.9903C14.5602 15.5237 14.1233 18.845 14.0626 19.8915L15.0609 19.9495C15.1188 18.9521 15.5497 15.6706 15.6385 15.1625L14.6535 14.9903ZM16.4532 23.4724C17.1879 20.3338 17.6296 17.8607 18.1162 15.0041L17.1304 14.8362C16.6448 17.6867 16.2072 20.136 15.4795 23.2445L16.4532 23.4724ZM14.0595 19.8062C14.0595 20.9434 13.1376 21.8653 12.0004 21.8653V22.8653C13.6899 22.8653 15.0595 21.4957 15.0595 19.8062H14.0595ZM12.0004 21.8653C10.8632 21.8653 9.94135 20.9434 9.94135 19.8062H8.94135C8.94135 21.4957 10.3109 22.8653 12.0004 22.8653V21.8653ZM9.94135 19.8062C9.94135 18.669 10.8632 17.7471 12.0004 17.7471V16.7471C10.3109 16.7471 8.94135 18.1167 8.94135 19.8062H9.94135ZM12.0004 17.7471C13.1376 17.7471 14.0595 18.669 14.0595 19.8062H15.0595C15.0595 18.1167 13.6899 16.7471 12.0004 16.7471V17.7471ZM5.5 8.5C5.5 4.91015 8.41015 2 12 2V1C7.85786 1 4.5 4.35786 4.5 8.5H5.5ZM12 2C15.5899 2 18.5 4.91015 18.5 8.5H19.5C19.5 4.35786 16.1421 1 12 1V2ZM13.3499 9.41256C13.6993 9.67461 13.8333 9.9826 13.8333 10.25C13.8333 10.5174 13.6993 10.8254 13.3499 11.0874L13.9499 11.8874C14.5117 11.4661 14.8333 10.8783 14.8333 10.25C14.8333 9.62167 14.5117 9.03393 13.9499 8.61257L13.3499 9.41256ZM10.6502 11.0874L9.96667 10.5747L9.36666 11.3747L10.0502 11.8874L10.6502 11.0874ZM11.9999 9C12.5083 8.99997 12.9952 9.14646 13.3499 9.41256L13.9499 8.61257C13.3934 8.19518 12.6859 7.99996 11.9999 8L11.9999 9ZM10.7532 7.59595C10.4293 7.33862 10.297 7.0293 10.297 6.75002C10.297 6.47074 10.4293 6.16142 10.7532 5.90409L10.1312 5.12108C9.59482 5.54716 9.29696 6.13357 9.29696 6.75002C9.29696 7.36647 9.59482 7.95288 10.1312 8.37896L10.7532 7.59595ZM11.9999 8C11.5315 8.00003 11.0821 7.85726 10.7532 7.59595L10.1312 8.37896C10.6626 8.80114 11.3407 9.00004 11.9999 9L11.9999 8ZM13.2466 5.90409L13.5693 6.16043L14.1913 5.37743L13.8686 5.12108L13.2466 5.90409ZM6.11974 11.2738C5.72243 10.4331 5.5 9.49324 5.5 8.5H4.5C4.5 9.64407 4.75651 10.7296 5.21562 11.7011L6.11974 11.2738ZM18.5 8.5C18.5 9.49324 18.2776 10.4331 17.8803 11.2738L18.7844 11.7011C19.2435 10.7296 19.5 9.64407 19.5 8.5H18.5ZM10.7532 5.90409C11.0821 5.6428 11.5316 5.5 12 5.50002L12 4.50002C11.3408 4.5 10.6626 4.69891 10.1312 5.12108L10.7532 5.90409ZM12 5.50002C12.4683 5.50004 12.9177 5.64283 13.2466 5.90409L13.8686 5.12108C13.3372 4.69896 12.6592 4.50005 12 4.50002L12 5.50002ZM11.5 3.83333V5.00002H12.5V3.83333H11.5ZM11.5 12V13.1667H12.5V12H11.5ZM13.3499 11.0874C12.9952 11.3535 12.5083 11.5 12 11.5L12 12.5C12.686 12.5 13.3935 12.3048 13.9499 11.8874L13.3499 11.0874ZM12 11.5C11.4917 11.5 11.005 11.3535 10.6502 11.0874L10.0502 11.8874C10.6066 12.3048 11.3141 12.5 12 12.5L12 11.5ZM20.5 2V4H21.5V2H20.5ZM2.5 12V14H3.5V12H2.5ZM22 2.5L20 2.5V3.5L22 3.5V2.5ZM4 12.5H2V13.5H4V12.5Z" fill="currentColor"/>
</svg>
