<svg width="24" height="24" fill="none" viewBox="0 0 24 24"  xmlns="http://www.w3.org/2000/svg">
<path d="M10.0836 7.60612C13.4594 5.95617 17.7343 6.45186 20.5767 9.09319C24.0744 12.3435 24.0744 17.612 20.5767 20.8623C17.079 24.1126 11.4096 24.1126 7.91188 20.8623C7.01538 20.0292 5.42407 17.9038 5.42407 15.7783" stroke="currentColor" stroke-width="1.4" stroke-miterlimit="10" stroke-linecap="round" stroke-linejoin="round"/>
<path d="M17.392 14.7794C17.392 14.7794 18.9236 13.4623 17.3386 11.9894C15.7536 10.5165 14.1686 11.5858 13.62 12.3931C13.0713 13.2003 14.1153 14.475 14.5496 15.0839C14.984 15.6929 15.9137 17.265 14.4963 18.2847C13.0789 19.2973 11.4939 18.9433 10.3433 17.5766C9.19262 16.2099 9.74118 14.2122 10.3432 13.6528" stroke="currentColor" stroke-width="1.4" stroke-miterlimit="10" stroke-linecap="round" stroke-linejoin="round"/>
<path d="M17.3384 11.9823L18.4967 10.9059" stroke="currentColor" stroke-width="1.4" stroke-miterlimit="10" stroke-linecap="round" stroke-linejoin="round"/>
<path d="M9.86987 18.922L10.8072 18.051" stroke="currentColor" stroke-width="1.4" stroke-miterlimit="10" stroke-linecap="round" stroke-linejoin="round"/>
<path d="M0.800049 1.20544C0.800049 1.20544 7.9501 5.87825 9.57321 7.38657C11.1963 8.89488 12.8042 11.3946 11.1887 12.8958C8.99407 14.9352 7.13473 13.4906 4.45241 12.1452C3.56847 11.6991 1.30165 10.3691 1.30165 10.3691" stroke="currentColor" stroke-width="1.4" stroke-miterlimit="10" stroke-linecap="round" stroke-linejoin="round"/>
<path d="M10.1362 0.900024L11.1833 4.08822" stroke="currentColor" stroke-width="1.4" stroke-miterlimit="10" stroke-linecap="round" stroke-linejoin="round"/>
</svg>
