<svg width="24" height="24" viewBox="0 0 24 24" fill="none" xmlns="http://www.w3.org/2000/svg">
<path d="M18.17 2.74414H5.83C3.65 2.74414 1.87 4.52414 1.87 6.70414V17.2961C1.87 19.4761 3.65 21.2561 5.83 21.2561H18.17C20.35 21.2561 22.13 19.4761 22.13 17.2961V6.70414C22.13 4.52414 20.35 2.74414 18.17 2.74414ZM3.12 17.2861V6.70414C3.12 5.21414 4.33 3.99414 5.83 3.99414H14.93V19.9961H5.83C4.34 19.9961 3.12 18.7861 3.12 17.2861ZM20.88 17.2961H20.87C20.87 18.7761 19.66 19.9961 18.16 19.9961H16.17V3.99414H18.17C19.66 3.99414 20.88 5.20414 20.88 6.70414V17.2961Z" fill="currentColor"/>
<path d="M5.84 8.12417H12.34C12.68 8.12417 12.96 7.84417 12.96 7.50417C12.96 7.16417 12.68 6.88417 12.34 6.88417H5.84C5.5 6.88417 5.22 7.16417 5.22 7.50417C5.22 7.84417 5.5 8.12417 5.84 8.12417Z" fill="currentColor"/>
<path d="M12.34 11.3642H5.84C5.5 11.3642 5.22 11.6442 5.22 11.9842C5.22 12.3242 5.5 12.6042 5.84 12.6042H12.34C12.68 12.6042 12.96 12.3242 12.96 11.9842C12.96 11.6442 12.68 11.3642 12.34 11.3642Z" fill="currentColor"/>
<path d="M8.77999 15.8542H5.84C5.5 15.8542 5.22 16.1342 5.22 16.4742C5.22 16.8142 5.5 17.0942 5.84 17.0942H8.77999C9.12 17.0942 9.4 16.8142 9.4 16.4742C9.4 16.1342 9.12 15.8542 8.77999 15.8542Z" fill="currentColor"/>
</svg>
