<svg width="25" height="24" viewBox="0 0 25 24" fill="none" xmlns="http://www.w3.org/2000/svg">
<path d="M5.67141 19.7C5.06141 19.7 4.57141 19.21 4.57141 18.6V6.1C4.57141 5.49 5.06141 5 5.67141 5C6.28141 5 6.77141 5.49 6.77141 6.1V18.6C6.77141 19.21 6.28141 19.7 5.67141 19.7Z" fill="currentColor"/>
<path d="M13.3014 19.7C12.6914 19.7 12.2014 19.21 12.2014 18.6V6.1C12.2014 5.49 12.6914 5 13.3014 5C13.9114 5 14.4014 5.49 14.4014 6.1V18.6C14.4014 19.21 13.9014 19.7 13.3014 19.7Z" fill="currentColor"/>
<path d="M13.112 13.9H5.85195C5.24195 13.9 4.75195 13.4099 4.75195 12.7999C4.75195 12.1899 5.24195 11.7 5.85195 11.7H13.112C13.722 11.7 14.212 12.1899 14.212 12.7999C14.212 13.4099 13.722 13.9 13.112 13.9Z" fill="currentColor"/>
<path d="M20.6714 19.35H17.1714C16.8414 19.35 16.5514 19.13 16.4514 18.82C16.3514 18.5 16.4814 18.16 16.7514 17.98C16.7614 17.97 18.0914 17.08 18.9414 16.13C19.4414 15.57 19.6814 15.01 19.6114 14.59C19.5714 14.34 19.4114 14.14 19.1314 13.98C18.8014 13.79 18.6414 13.86 18.5914 13.88C18.2514 14.02 17.9614 14.6 17.8814 14.87C17.7614 15.26 17.3414 15.49 16.9414 15.36C16.5514 15.24 16.3214 14.82 16.4414 14.43C16.4914 14.28 16.9214 12.93 18.0214 12.49C18.4214 12.33 19.0714 12.23 19.8614 12.68C20.5414 13.07 20.9714 13.64 21.0814 14.34C21.2314 15.22 20.8614 16.21 20.0514 17.12C19.8314 17.37 19.5814 17.62 19.3214 17.85H20.6514C21.0614 17.85 21.4014 18.19 21.4014 18.6C21.4014 19.01 21.0814 19.35 20.6714 19.35Z" fill="currentColor"/>
</svg>
