<svg width="24" height="24" viewBox="0 0 24 24" fill="none" xmlns="http://www.w3.org/2000/svg">
<path d="M12.2472 14.7071C11.3872 14.7071 10.5572 14.4171 9.86716 13.8871C9.43716 13.5471 9.35716 12.9171 9.69716 12.4871C10.0372 12.0471 10.6672 11.9771 11.0972 12.3171C11.4872 12.6271 11.9772 12.7571 12.4672 12.6971C12.9572 12.6371 13.3972 12.3871 13.7072 11.9971L16.0572 8.99714C16.6872 8.18714 16.5472 7.01714 15.7472 6.38714C15.3572 6.07714 14.8672 5.93714 14.3772 6.00714C13.8872 6.06714 13.4472 6.31714 13.1372 6.70714L12.2972 7.76714C11.9572 8.19714 11.3272 8.27714 10.8972 7.93714C10.4672 7.59714 10.3872 6.96714 10.7272 6.53714L11.5672 5.47714C12.2072 4.66714 13.1172 4.14714 14.1372 4.02714C15.1672 3.90714 16.1672 4.18714 16.9872 4.82714C17.7972 5.46714 18.3172 6.37714 18.4372 7.39714C18.5572 8.41714 18.2772 9.42714 17.6372 10.2471L15.2872 13.2471C14.6472 14.0571 13.7372 14.5771 12.7172 14.6971C12.5572 14.6971 12.3972 14.7071 12.2472 14.7071Z" fill="currentColor"/>
<path d="M8.85714 19.0172C7.99714 19.0172 7.16713 18.7272 6.47713 18.1972C5.66713 17.5572 5.14714 16.6472 5.02714 15.6272C4.90714 14.6072 5.18714 13.5972 5.82714 12.7772L7.78714 10.2772C9.09714 8.60716 11.5271 8.30716 13.2071 9.62716C13.6371 9.96716 13.7171 10.5972 13.3771 11.0272C13.0371 11.4672 12.4071 11.5372 11.9771 11.1972C11.1671 10.5672 9.99713 10.7072 9.36713 11.5072L7.40713 14.0072C7.09713 14.3972 6.96714 14.8872 7.02714 15.3772C7.08714 15.8672 7.33713 16.3072 7.72713 16.6172C8.11713 16.9272 8.60714 17.0572 9.09714 16.9972C9.58714 16.9372 10.0271 16.6872 10.3371 16.2972L11.1371 15.2772C11.4771 14.8372 12.1071 14.7672 12.5371 15.0972C12.9771 15.4372 13.0471 16.0672 12.7171 16.4972L11.9171 17.5272C11.2771 18.3372 10.3671 18.8572 9.33713 18.9772C9.16713 19.0072 9.01714 19.0172 8.85714 19.0172Z" fill="currentColor"/>
</svg>
