<svg width="24" height="24" viewBox="0 0 24 24" fill="none" xmlns="http://www.w3.org/2000/svg">
<path d="M18.3199 15.3301C17.9799 15.3601 17.7199 15.6601 17.7399 16.0001C17.7799 16.5101 17.7199 17.0201 17.5799 17.4401C17.0999 18.9701 15.1599 20.3901 11.1399 19.7901C7.25988 19.2101 6.22988 16.9801 6.22988 15.8901C6.22988 15.5501 5.94988 15.2701 5.60988 15.2701C5.26988 15.2701 4.98988 15.5501 4.98988 15.8901C4.98988 17.4701 6.24988 20.3301 10.9699 21.0301C11.6699 21.1301 12.3199 21.1801 12.9199 21.1801C16.4199 21.1801 18.2399 19.5401 18.7799 17.8301C18.9799 17.2601 19.0599 16.5901 18.9999 15.9001C18.9699 15.5601 18.6799 15.3001 18.3299 15.3201L18.3199 15.3301Z" fill="currentColor"/>
<path d="M20.9999 11.9101H14.1099C9.69988 10.9101 7.66988 9.81007 7.30988 8.26007C7.14988 7.57007 7.30988 6.42007 8.03988 5.50007C8.77988 4.56007 9.97988 4.07007 11.4799 4.07007C15.1199 4.07007 16.7499 5.83007 16.7499 7.58007C16.7499 7.92007 17.0299 8.20007 17.3699 8.20007C17.7099 8.20007 17.9899 7.92007 17.9899 7.58007C17.9899 5.21007 15.9699 2.82007 11.4699 2.82007C9.06988 2.82007 7.73988 3.85007 7.04988 4.72007C5.98988 6.05007 5.86988 7.60007 6.07988 8.53007C6.43988 10.1001 7.84988 11.1401 9.69988 11.9001H2.99988C2.64988 11.9001 2.37988 12.1801 2.37988 12.5201C2.37988 12.8601 2.65988 13.1401 2.99988 13.1401H20.9999C21.3499 13.1401 21.6199 12.8601 21.6199 12.5201C21.6199 12.1801 21.3399 11.9001 20.9999 11.9001V11.9101Z" fill="currentColor"/>
</svg>
