<svg width="24" height="24" viewBox="0 0 24 24" fill="none" xmlns="http://www.w3.org/2000/svg">

<path d="M5.7925 16.0009C5.5125 16.0009 5.2225 15.8809 5.0325 15.6509L2.2325 12.3309C1.9225 11.9609 1.9225 11.4109 2.2325 11.0409L5.0325 7.72088C5.3925 7.30088 6.0225 7.24088 6.4425 7.60088C6.8625 7.96088 6.9225 8.59088 6.5625 9.01088L4.3025 11.6809L6.5625 14.3509C6.9225 14.7709 6.8625 15.4009 6.4425 15.7609C6.2525 15.9209 6.0225 16.0009 5.7925 16.0009Z" fill="currentColor"/>
<path d="M18.1925 16.0009C17.9625 16.0009 17.7325 15.9209 17.5525 15.7609C17.1325 15.4009 17.0726 14.7709 17.4326 14.3509L19.6925 11.6809L17.4326 9.01088C17.0726 8.59088 17.1325 7.96088 17.5525 7.60088C17.9725 7.24088 18.6025 7.30088 18.9625 7.72088L21.7625 11.0409C22.0725 11.4109 22.0725 11.9609 21.7625 12.3309L18.9625 15.6509C18.7625 15.8809 18.4725 16.0009 18.1925 16.0009Z" fill="currentColor"/>
<path d="M9.99255 18.0009C9.88255 18.0009 9.76255 17.9809 9.65255 17.9409C9.13255 17.7509 8.86255 17.1809 9.05255 16.6609L13.0526 5.66085C13.2426 5.14085 13.8126 4.87085 14.3326 5.06085C14.8526 5.25085 15.1226 5.82085 14.9326 6.34085L10.9326 17.3409C10.7826 17.7509 10.4026 18.0009 9.99255 18.0009Z" fill="currentColor"/>
</svg>
