<svg width="24" height="24" viewBox="0 0 24 24" fill="none" xmlns="http://www.w3.org/2000/svg">
<path d="M21.84 20.95L3.04998 2.15998C2.79998 1.91998 2.40998 1.91998 2.15998 2.15998C1.91998 2.40998 1.91998 2.79998 2.15998 3.04998L8.23998 9.12998C7.81998 9.34998 7.40998 9.61998 7.04998 9.97998L4.31998 12.71C2.39998 14.64 2.39998 17.76 4.31998 19.68C5.27998 20.64 6.53998 21.12 7.79998 21.12C9.05998 21.11 10.32 20.63 11.28 19.67L12.42 18.53C12.67 18.29 12.66 17.9 12.42 17.65C12.18 17.4 11.78 17.41 11.54 17.65L10.4 18.79C8.95998 20.23 6.62998 20.22 5.19998 18.79C3.76998 17.35 3.76998 15.02 5.19998 13.59L7.92998 10.86C8.28998 10.5 8.70998 10.23 9.15998 10.05L13.31 14.2C12.42 14.16 11.54 13.82 10.87 13.14C10.63 12.89 10.24 12.9 9.98998 13.14C9.73998 13.38 9.74998 13.78 9.98998 14.02C10.95 14.98 12.21 15.46 13.47 15.46C13.81 15.47 14.14 15.43 14.48 15.36L20.96 21.84C21.08 21.96 21.24 22.02 21.4 22.02C21.56 22.02 21.72 21.96 21.84 21.84C22.08 21.6 22.08 21.2 21.84 20.96V20.95Z" fill="currentColor"/>
<path d="M12.24 6.35998L13.39 5.20998C14.88 3.71998 17.3 3.71998 18.78 5.20998C20.22 6.64998 20.14 8.88998 18.6 10.43L16.21 12.82C15.97 13.06 15.97 13.46 16.21 13.7C16.45 13.94 16.85 13.94 17.09 13.7L19.48 11.31C21.52 9.26998 21.6 6.25998 19.66 4.31998C17.72 2.37998 14.47 2.34998 12.5 4.31998L11.35 5.46998C11.11 5.70998 11.11 6.10998 11.35 6.34998C11.59 6.58998 11.99 6.58998 12.23 6.34998L12.24 6.35998Z" fill="currentColor"/>
</svg>
