<svg width="24" height="24" viewBox="0 0 24 24" fill="none" xmlns="http://www.w3.org/2000/svg">
<path d="M12.1904 4.74512C11.8404 4.74512 11.5704 5.02512 11.5704 5.36512V11.3751H3.12037V5.36512C3.12037 5.02512 2.84037 4.74512 2.50037 4.74512C2.16037 4.74512 1.88037 5.02512 1.88037 5.36512V18.6351C1.88037 18.9751 2.16037 19.2551 2.50037 19.2551C2.84037 19.2551 3.12037 18.9751 3.12037 18.6351V12.6251H11.5704V18.6351C11.5704 18.9751 11.8504 19.2551 12.1904 19.2551C12.5304 19.2551 12.8104 18.9751 12.8104 18.6351V5.36512C12.8104 5.02512 12.5304 4.74512 12.1904 4.74512Z" fill="currentColor"/>
<path d="M21.4204 15.1751C21.3104 15.0751 21.1904 14.9851 21.0704 14.9051C21.5704 14.4951 21.8404 13.9251 21.8404 13.2951C21.8404 12.1051 20.8104 10.8751 19.0804 10.8751C17.2304 10.8751 16.3004 12.2751 16.0704 13.0051C15.9704 13.3351 16.1504 13.6751 16.4704 13.7851C16.7904 13.8951 17.1504 13.7151 17.2604 13.3851C17.3004 13.2551 17.7204 12.1151 19.0804 12.1151C20.0204 12.1151 20.5904 12.7151 20.5904 13.2851C20.5904 13.5451 20.4704 13.7751 20.2404 13.9551C20.0304 14.1151 19.6404 14.3051 18.9404 14.3451C18.8104 14.3451 18.7204 14.3451 18.6804 14.3451C18.3404 14.3651 18.0804 14.6551 18.1004 14.9851C18.1104 15.3251 18.3904 15.5851 18.7204 15.5851C18.8004 15.5851 18.8804 15.5851 18.9604 15.5851C19.3804 15.5851 20.1604 15.6851 20.5704 16.0751C20.7704 16.2651 20.8704 16.5151 20.8704 16.8451C20.8704 17.7651 19.7504 18.0051 19.0804 18.0051C17.6504 18.0051 17.3004 17.1051 17.2604 17.0151C17.1604 16.6851 16.8104 16.4951 16.4804 16.6051C16.1504 16.7051 15.9704 17.0551 16.0704 17.3851C16.0904 17.4651 16.6804 19.2551 19.0804 19.2551C20.5404 19.2551 22.1204 18.5051 22.1204 16.8451C22.1204 16.1751 21.8804 15.5951 21.4204 15.1651V15.1751Z" fill="currentColor"/>
</svg>
