<svg width="24" height="24" viewBox="0 0 24 24" fill="none" xmlns="http://www.w3.org/2000/svg">
<path d="M8.99014 5.61008H19.9901C20.3301 5.61008 20.6101 5.33008 20.6101 4.99008C20.6101 4.65008 20.3301 4.37008 19.9901 4.37008H8.99014C8.65014 4.37008 8.37014 4.65008 8.37014 4.99008C8.37014 5.33008 8.65014 5.61008 8.99014 5.61008Z" fill="currentColor"/>
<path d="M3.39014 3.95008V20.0501C3.39014 20.3901 3.67014 20.6701 4.01014 20.6701C4.35014 20.6701 4.63014 20.3901 4.63014 20.0501V3.95008C4.63014 3.61008 4.35014 3.33008 4.01014 3.33008C3.67014 3.33008 3.39014 3.61008 3.39014 3.95008Z" fill="currentColor"/>
<path d="M19.9901 11.3601H8.99014C8.65014 11.3601 8.37014 11.6401 8.37014 11.9801C8.37014 12.3201 8.65014 12.6001 8.99014 12.6001H19.9901C20.3301 12.6001 20.6101 12.3201 20.6101 11.9801C20.6101 11.6401 20.3301 11.3601 19.9901 11.3601Z" fill="currentColor"/>
<path d="M16.7901 18.3601H8.98014C8.64014 18.3601 8.36014 18.6401 8.36014 18.9801C8.36014 19.3201 8.64014 19.6001 8.98014 19.6001H16.7901C17.1301 19.6001 17.4101 19.3201 17.4101 18.9801C17.4101 18.6401 17.1301 18.3601 16.7901 18.3601Z" fill="currentColor"/>
</svg>
