<svg width="24" height="24" viewBox="0 0 24 24" fill="none" xmlns="http://www.w3.org/2000/svg">
<path d="M4.39 7.26999C4.88153 7.26999 5.28 6.87152 5.28 6.37999C5.28 5.88846 4.88153 5.48999 4.39 5.48999C3.89847 5.48999 3.5 5.88846 3.5 6.37999C3.5 6.87152 3.89847 7.26999 4.39 7.26999Z" fill="currentColor"/>
<path d="M4.39 7.78C3.62 7.78 3 7.16 3 6.39C3 5.62 3.62 5 4.39 5C5.16 5 5.78 5.62 5.78 6.39C5.78 7.16 5.16 7.78 4.39 7.78ZM4.39 5.99C4.17 5.99 4 6.17 4 6.38C4 6.6 4.18 6.77 4.39 6.77C4.61 6.77 4.78 6.59 4.78 6.38C4.79 6.17 4.61 5.99 4.39 5.99Z" fill="currentColor"/>
<path d="M19.57 7.37988H9C8.45 7.37988 8 6.92988 8 6.37988C8 5.82988 8.45 5.37988 9 5.37988H19.57C20.12 5.37988 20.57 5.82988 20.57 6.37988C20.57 6.92988 20.12 7.37988 19.57 7.37988Z" fill="currentColor"/>
<path d="M4.39 12.6301C4.88153 12.6301 5.28 12.2316 5.28 11.7401C5.28 11.2486 4.88153 10.8501 4.39 10.8501C3.89847 10.8501 3.5 11.2486 3.5 11.7401C3.5 12.2316 3.89847 12.6301 4.39 12.6301Z" fill="currentColor"/>
<path d="M4.39 13.1301C3.62 13.1301 3 12.5101 3 11.7401C3 10.9701 3.62 10.3501 4.39 10.3501C5.16 10.3501 5.78 10.9701 5.78 11.7401C5.78 12.5101 5.16 13.1301 4.39 13.1301ZM4.39 11.3501C4.17 11.3501 4 11.5301 4 11.7401C4 11.9501 4.18 12.1301 4.39 12.1301C4.61 12.1301 4.78 11.9501 4.78 11.7401C4.78 11.5301 4.61 11.3501 4.39 11.3501Z" fill="currentColor"/>
<path d="M19.57 12.74H9C8.45 12.74 8 12.29 8 11.74C8 11.19 8.45 10.74 9 10.74H19.57C20.12 10.74 20.57 11.19 20.57 11.74C20.57 12.29 20.12 12.74 19.57 12.74Z" fill="currentColor"/>
<path d="M4.39 17.99C4.88153 17.99 5.28 17.5915 5.28 17.1C5.28 16.6084 4.88153 16.21 4.39 16.21C3.89847 16.21 3.5 16.6084 3.5 17.1C3.5 17.5915 3.89847 17.99 4.39 17.99Z" fill="currentColor"/>
<path d="M4.39 18.49C3.62 18.49 3 17.87 3 17.1C3 16.33 3.62 15.71 4.39 15.71C5.16 15.71 5.78 16.33 5.78 17.1C5.78 17.87 5.16 18.49 4.39 18.49ZM4.39 16.7C4.17 16.7 4 16.88 4 17.09C4 17.31 4.18 17.48 4.39 17.48C4.61 17.48 4.78 17.3 4.78 17.09C4.79 16.88 4.61 16.7 4.39 16.7Z" fill="currentColor"/>
<path d="M19.57 18.1001H9C8.45 18.1001 8 17.6501 8 17.1001C8 16.5501 8.45 16.1001 9 16.1001H19.57C20.12 16.1001 20.57 16.5501 20.57 17.1001C20.57 17.6501 20.12 18.1001 19.57 18.1001Z" fill="currentColor"/>
</svg>
