<svg width="24" height="24" viewBox="0 0 24 24" fill="none" xmlns="http://www.w3.org/2000/svg">
<path d="M15.9599 11.05C16.7999 10.2 17.3199 9.02 17.3199 7.73C17.3199 5.12 15.1999 3 12.5899 3H8.15994C6.51994 3 5.18994 4.33 5.18994 5.97V18.03C5.18994 19.67 6.51994 21 8.15994 21H13.5399C16.4499 21 18.8099 18.63 18.8099 15.73C18.8099 13.7 17.6499 11.93 15.9599 11.05ZM13.5399 19H8.15994C7.61994 19 7.18994 18.56 7.18994 18.03V5.97C7.18994 5.43 7.62994 5 8.15994 5H12.5999C14.0999 5 15.3299 6.22 15.3299 7.73C15.3299 9.24 14.1099 10.46 12.5999 10.46H10.3699C9.81994 10.46 9.36994 10.91 9.36994 11.46C9.36994 12.01 9.81994 12.46 10.3699 12.46H13.5399C15.3399 12.46 16.8099 13.93 16.8099 15.73C16.8099 17.53 15.3399 19 13.5399 19Z" fill="currentColor"/>
</svg>
