<svg width="24" height="24" viewBox="0 0 24 24" fill="none" xmlns="http://www.w3.org/2000/svg">
<path d="M8.99697 5.60926H19.997C20.337 5.60926 20.617 5.32926 20.617 4.98926C20.617 4.64926 20.337 4.36926 19.997 4.36926H8.99697C8.65697 4.36926 8.37697 4.64926 8.37697 4.98926C8.37697 5.32926 8.65697 5.60926 8.99697 5.60926Z" fill="currentColor"/>
<path d="M19.997 11.3593H8.99697C8.65697 11.3593 8.37697 11.6393 8.37697 11.9793C8.37697 12.3193 8.65697 12.5993 8.99697 12.5993H19.997C20.337 12.5993 20.617 12.3193 20.617 11.9793C20.617 11.6393 20.337 11.3593 19.997 11.3593Z" fill="currentColor"/>
<path d="M19.997 18.3593H8.99697C8.65697 18.3593 8.37697 18.6393 8.37697 18.9793C8.37697 19.3193 8.65697 19.5993 8.99697 19.5993H19.997C20.337 19.5993 20.617 19.3193 20.617 18.9793C20.617 18.6393 20.337 18.3593 19.997 18.3593Z" fill="currentColor"/>
<path d="M3.63697 13.5593H5.43697C5.57697 13.5593 5.68697 13.4493 5.68697 13.3093C5.68697 13.1693 5.57697 13.0593 5.43697 13.0593H3.93697C4.01697 12.9093 4.19697 12.6993 4.62697 12.5093C5.14697 12.2893 5.48697 11.9393 5.55697 11.5493C5.60697 11.2493 5.50697 10.9593 5.24697 10.7193C4.90697 10.3993 4.48697 10.3193 4.08697 10.4993C3.69697 10.6693 3.38697 11.0593 3.38697 11.3793C3.38697 11.5193 3.49697 11.6293 3.63697 11.6293C3.77697 11.6293 3.88697 11.5193 3.88697 11.3793C3.88697 11.2893 4.04697 11.0593 4.28697 10.9493C4.50697 10.8593 4.71697 10.8993 4.90697 11.0793C5.03697 11.1993 5.08697 11.3293 5.06697 11.4593C5.02697 11.6793 4.79697 11.8993 4.43697 12.0393C3.26697 12.5393 3.38697 13.3193 3.38697 13.3493C3.40697 13.4693 3.50697 13.5593 3.63697 13.5593Z" fill="currentColor"/>
<path d="M5.32697 18.9193C5.50697 18.7593 5.60697 18.5493 5.60697 18.3093C5.60697 17.8493 5.20697 17.3793 4.54697 17.3793C3.83697 17.3793 3.47697 17.9193 3.39697 18.1993C3.35697 18.3293 3.42697 18.4693 3.55697 18.5093C3.68697 18.5493 3.82697 18.4793 3.87697 18.3493C3.89697 18.2993 4.04697 17.8793 4.55697 17.8793C4.90697 17.8793 5.11697 18.0993 5.11697 18.3093C5.11697 18.3993 5.07697 18.4893 4.98697 18.5493C4.90697 18.6093 4.76697 18.6793 4.49697 18.6893C4.44697 18.6893 4.41697 18.6893 4.39697 18.6893C4.26697 18.6893 4.15697 18.8093 4.16697 18.9493C4.16697 19.1093 4.34697 19.1893 4.50697 19.1893C4.66697 19.1893 4.95697 19.2293 5.11697 19.3693C5.19697 19.4393 5.22697 19.5293 5.22697 19.6493C5.22697 19.9893 4.80697 20.0793 4.55697 20.0793C4.02697 20.0793 3.88697 19.7493 3.87697 19.7093C3.83697 19.5793 3.69697 19.5093 3.56697 19.5493C3.43697 19.5893 3.35697 19.7293 3.40697 19.8593C3.40697 19.8893 3.64697 20.5793 4.55697 20.5793C5.24697 20.5793 5.72697 20.1993 5.72697 19.6493C5.72697 19.3893 5.63697 19.1693 5.45697 18.9993C5.41697 18.9593 5.37697 18.9293 5.33697 18.8993L5.32697 18.9193Z" fill="currentColor"/>
<path d="M3.77697 4.62926L4.50697 4.13926V6.28926C4.50697 6.42926 4.61697 6.53926 4.75697 6.53926C4.89697 6.53926 5.00697 6.42926 5.00697 6.28926V3.66926C5.00697 3.57926 4.95697 3.48926 4.87697 3.44926C4.79697 3.40926 4.69697 3.40926 4.61697 3.45926L3.49697 4.20926C3.37697 4.28926 3.34697 4.43926 3.42697 4.55926C3.50697 4.67926 3.65697 4.69926 3.77697 4.62926Z" fill="currentColor"/>
</svg>
