<svg width="25" height="24" viewBox="0 0 25 24" fill="none" xmlns="http://www.w3.org/2000/svg">
<path d="M5.31859 7.26999C5.81012 7.26999 6.20859 6.87152 6.20859 6.37999C6.20859 5.88846 5.81012 5.48999 5.31859 5.48999C4.82705 5.48999 4.42859 5.88846 4.42859 6.37999C4.42859 6.87152 4.82705 7.26999 5.31859 7.26999Z" fill="currentColor"/>
<path d="M5.31859 7.78C4.54859 7.78 3.92859 7.16 3.92859 6.39C3.92859 5.62 4.54859 5 5.31859 5C6.08859 5 6.70859 5.62 6.70859 6.39C6.70859 7.16 6.08859 7.78 5.31859 7.78ZM5.31859 5.99C5.09859 5.99 4.92859 6.17 4.92859 6.38C4.92859 6.6 5.10859 6.77 5.31859 6.77C5.53859 6.77 5.70859 6.59 5.70859 6.38C5.71859 6.17 5.53859 5.99 5.31859 5.99Z" fill="currentColor"/>
<path d="M20.4986 7.37988H9.92859C9.37859 7.37988 8.92859 6.92988 8.92859 6.37988C8.92859 5.82988 9.37859 5.37988 9.92859 5.37988H20.4986C21.0486 5.37988 21.4986 5.82988 21.4986 6.37988C21.4986 6.92988 21.0486 7.37988 20.4986 7.37988Z" fill="currentColor"/>
<path d="M5.31859 12.6301C5.81012 12.6301 6.20859 12.2316 6.20859 11.7401C6.20859 11.2486 5.81012 10.8501 5.31859 10.8501C4.82705 10.8501 4.42859 11.2486 4.42859 11.7401C4.42859 12.2316 4.82705 12.6301 5.31859 12.6301Z" fill="currentColor"/>
<path d="M5.31859 13.1301C4.54859 13.1301 3.92859 12.5101 3.92859 11.7401C3.92859 10.9701 4.54859 10.3501 5.31859 10.3501C6.08859 10.3501 6.70859 10.9701 6.70859 11.7401C6.70859 12.5101 6.08859 13.1301 5.31859 13.1301ZM5.31859 11.3501C5.09859 11.3501 4.92859 11.5301 4.92859 11.7401C4.92859 11.9501 5.10859 12.1301 5.31859 12.1301C5.53859 12.1301 5.70859 11.9501 5.70859 11.7401C5.70859 11.5301 5.53859 11.3501 5.31859 11.3501Z" fill="currentColor"/>
<path d="M20.4986 12.74H9.92859C9.37859 12.74 8.92859 12.29 8.92859 11.74C8.92859 11.19 9.37859 10.74 9.92859 10.74H20.4986C21.0486 10.74 21.4986 11.19 21.4986 11.74C21.4986 12.29 21.0486 12.74 20.4986 12.74Z" fill="currentColor"/>
<path d="M5.31859 17.99C5.81012 17.99 6.20859 17.5915 6.20859 17.1C6.20859 16.6084 5.81012 16.21 5.31859 16.21C4.82705 16.21 4.42859 16.6084 4.42859 17.1C4.42859 17.5915 4.82705 17.99 5.31859 17.99Z" fill="currentColor"/>
<path d="M5.31859 18.49C4.54859 18.49 3.92859 17.87 3.92859 17.1C3.92859 16.33 4.54859 15.71 5.31859 15.71C6.08859 15.71 6.70859 16.33 6.70859 17.1C6.70859 17.87 6.08859 18.49 5.31859 18.49ZM5.31859 16.7C5.09859 16.7 4.92859 16.88 4.92859 17.09C4.92859 17.31 5.10859 17.48 5.31859 17.48C5.53859 17.48 5.70859 17.3 5.70859 17.09C5.71859 16.88 5.53859 16.7 5.31859 16.7Z" fill="currentColor"/>
<path d="M20.4986 18.1001H9.92859C9.37859 18.1001 8.92859 17.6501 8.92859 17.1001C8.92859 16.5501 9.37859 16.1001 9.92859 16.1001H20.4986C21.0486 16.1001 21.4986 16.5501 21.4986 17.1001C21.4986 17.6501 21.0486 18.1001 20.4986 18.1001Z" fill="currentColor"/>
</svg>
