<svg width="24" height="24" viewBox="0 0 24 24" fill="none" xmlns="http://www.w3.org/2000/svg">
<path d="M10.5711 17.278L19.8848 7.96425C21.0563 6.79268 20.7028 5.24674 19.5312 4.07517C18.3597 2.90359 16.8137 2.55004 15.6421 3.72161L6.32843 13.0353M5.05563 14.591L3.5 20.1064L9.01543 18.5508C9.15685 16.5709 7.03553 14.4495 5.05563 14.591ZM20.75 20.375C20.75 20.5821 20.5821 20.75 20.375 20.75C20.1679 20.75 20 20.5821 20 20.375C20 20.1679 20.1679 20 20.375 20C20.5821 20 20.75 20.1679 20.75 20.375ZM15.75 20.375C15.75 20.5821 15.5821 20.75 15.375 20.75C15.1679 20.75 15 20.5821 15 20.375C15 20.1679 15.1679 20 15.375 20C15.5821 20 15.75 20.1679 15.75 20.375Z" stroke="currentColor" stroke-width="1.25" stroke-linecap="round" stroke-linejoin="round"/>
</svg>
