<svg width="24" height="24" viewBox="0 0 24 24" fill="none" xmlns="http://www.w3.org/2000/svg">
<path d="M5.1 19.7C4.49 19.7 4 19.21 4 18.6V6.1C4 5.49 4.49 5 5.1 5C5.71 5 6.2 5.49 6.2 6.1V18.6C6.2 19.21 5.71 19.7 5.1 19.7Z" fill="currentColor"/>
<path d="M12.73 19.7C12.12 19.7 11.63 19.21 11.63 18.6V6.1C11.63 5.49 12.12 5 12.73 5C13.34 5 13.83 5.49 13.83 6.1V18.6C13.83 19.21 13.33 19.7 12.73 19.7Z" fill="currentColor"/>
<path d="M12.5405 13.9H5.28054C4.67054 13.9 4.18054 13.4099 4.18054 12.7999C4.18054 12.1899 4.67054 11.7 5.28054 11.7H12.5405C13.1505 11.7 13.6405 12.1899 13.6405 12.7999C13.6405 13.4099 13.1505 13.9 12.5405 13.9Z" fill="currentColor"/>
<path d="M20.1 19.35H16.6C16.27 19.35 15.98 19.13 15.88 18.82C15.78 18.5 15.91 18.16 16.18 17.98C16.19 17.97 17.52 17.08 18.37 16.13C18.87 15.57 19.11 15.01 19.04 14.59C19 14.34 18.84 14.14 18.56 13.98C18.23 13.79 18.07 13.86 18.02 13.88C17.68 14.02 17.39 14.6 17.31 14.87C17.19 15.26 16.77 15.49 16.37 15.36C15.98 15.24 15.75 14.82 15.87 14.43C15.92 14.28 16.35 12.93 17.45 12.49C17.85 12.33 18.5 12.23 19.29 12.68C19.97 13.07 20.4 13.64 20.51 14.34C20.66 15.22 20.29 16.21 19.48 17.12C19.26 17.37 19.01 17.62 18.75 17.85H20.08C20.49 17.85 20.83 18.19 20.83 18.6C20.83 19.01 20.51 19.35 20.1 19.35Z" fill="currentColor"/>
</svg>
