<svg width="24" height="24" viewBox="0 0 24 24" fill="none" xmlns="http://www.w3.org/2000/svg">
<path d="M15.8999 13C15.8999 14.6554 13.8807 16 11.9999 16M11.9999 16C10.1129 16 8.09989 14.6554 8.09989 13M11.9999 16L11.9999 18.3672M21 12C21 16.9706 16.9706 21 12 21C7.02944 21 3 16.9706 3 12C3 7.02944 7.02944 3 12 3C16.9706 3 21 7.02944 21 12ZM11.9999 7C13.1045 7 13.9999 7.91875 13.9999 9.05208V11.9479C13.9999 13.0813 13.1045 14 11.9999 14C10.8953 14 9.99989 13.0813 9.99989 11.9479V9.05208C9.99989 7.91875 10.8953 7 11.9999 7Z" stroke="currentColor" stroke-width="1.25" stroke-linecap="round" stroke-linejoin="round"/>
</svg>
