<svg width="24" height="24" viewBox="0 0 24 24" fill="none" xmlns="http://www.w3.org/2000/svg">
<path d="M15.5 11.27C16.05 10.62 16.36 9.77 16.36 8.84C16.36 7.69 15.87 5 11.37 5H7.91C7.41 5 7 5.41 7 5.91V17.86C7 18.36 7.41 18.77 7.91 18.77H11.63C14.98 18.77 17.06 17.08 17.06 14.36C17.06 13.05 16.5 11.95 15.5 11.27ZM10.17 10.13V7.9H11.17C13.2 7.9 13.2 8.51 13.2 9C13.2 9.37 13.2 10.13 11.09 10.13H10.17ZM13.91 14.32C13.91 14.78 13.91 15.87 11.41 15.87H10.17V13H11.41C13.91 13 13.91 13.96 13.91 14.32Z" fill="currentColor"/>
</svg>
