<svg width="24" height="24" viewBox="0 0 24 24" fill="none" xmlns="http://www.w3.org/2000/svg">
<path d="M18.78 7.21997H8.21002C7.66002 7.21997 7.21002 6.76997 7.21002 6.21997C7.21002 5.66997 7.66002 5.21997 8.21002 5.21997H18.78C19.33 5.21997 19.78 5.66997 19.78 6.21997C19.78 6.76997 19.33 7.21997 18.78 7.21997Z" fill="currentColor"/>
<path d="M18.78 12.5801H8.21002C7.66002 12.5801 7.21002 12.1301 7.21002 11.5801C7.21002 11.0301 7.66002 10.5801 8.21002 10.5801H18.78C19.33 10.5801 19.78 11.0301 19.78 11.5801C19.78 12.1301 19.33 12.5801 18.78 12.5801Z" fill="currentColor"/>
<path d="M18.78 17.9399H8.21002C7.66002 17.9399 7.21002 17.4899 7.21002 16.9399C7.21002 16.3899 7.66002 15.9399 8.21002 15.9399H18.78C19.33 15.9399 19.78 16.3899 19.78 16.9399C19.78 17.4899 19.33 17.9399 18.78 17.9399Z" fill="currentColor"/>
<path d="M4.57001 5.67L4.18001 5.79C4.14001 5.76 4.1 5.73 4.06 5.68C4.02 5.63 4 5.57 4 5.48C4 5.32 4.09999 5.21 4.28999 5.15L4.73 5H4.88C4.99 5 5.07999 5.03 5.14999 5.1C5.21999 5.17 5.25 5.25 5.25 5.37V7.42C5.22 7.43 5.18 7.43 5.12 7.44C5.06 7.45 5.01 7.45 4.95 7.45C4.89 7.45 4.83999 7.45 4.78999 7.44C4.73999 7.43 4.71 7.42 4.67 7.39C4.64 7.37 4.61001 7.33 4.60001 7.29C4.58001 7.25 4.57001 7.2 4.57001 7.13V5.67Z" fill="currentColor"/>
<path d="M4.91002 10.29C5.06002 10.29 5.19001 10.31 5.31001 10.35C5.43001 10.39 5.52002 10.44 5.60002 10.51C5.68002 10.58 5.74001 10.65 5.78001 10.74C5.82001 10.83 5.84001 10.92 5.84001 11.03C5.84001 11.31 5.68001 11.57 5.37001 11.82L4.85002 12.23H5.79001C5.81001 12.26 5.82001 12.3 5.84001 12.34C5.85001 12.38 5.86002 12.43 5.86002 12.49C5.86002 12.58 5.84002 12.65 5.80002 12.69C5.76002 12.73 5.70002 12.75 5.63002 12.75H4.27002C4.21002 12.71 4.17002 12.66 4.13002 12.6C4.09002 12.54 4.08002 12.47 4.08002 12.38C4.08002 12.29 4.10001 12.22 4.14001 12.15C4.18001 12.09 4.22001 12.04 4.26001 12L4.80002 11.54C4.87002 11.48 4.92002 11.43 4.97002 11.38C5.01002 11.33 5.05002 11.29 5.08002 11.26C5.11002 11.22 5.13001 11.19 5.14001 11.16C5.15001 11.13 5.16002 11.1 5.16002 11.07C5.16002 11 5.13001 10.94 5.06001 10.9C5.00001 10.86 4.92002 10.84 4.82002 10.84C4.72002 10.84 4.62001 10.86 4.54001 10.89C4.46001 10.92 4.39002 10.96 4.33002 10.99C4.29002 10.96 4.25002 10.92 4.22002 10.87C4.19002 10.82 4.18002 10.77 4.18002 10.7C4.18002 10.56 4.24001 10.46 4.37001 10.4C4.51001 10.32 4.69002 10.29 4.91002 10.29Z" fill="currentColor"/>
<path d="M4.87 15.54C5.17 15.54 5.4 15.6 5.56 15.73C5.72 15.85 5.8 16.02 5.8 16.23C5.8 16.36 5.77 16.46 5.7 16.55C5.63 16.64 5.55001 16.7 5.46001 16.75C5.52001 16.77 5.57 16.8 5.61 16.83C5.66 16.86 5.70001 16.9 5.74001 16.95C5.78001 17 5.81 17.05 5.83 17.12C5.85 17.18 5.86 17.26 5.86 17.34C5.86 17.45 5.83999 17.55 5.78999 17.64C5.73999 17.73 5.67 17.81 5.59 17.87C5.5 17.93 5.4 17.98 5.28 18.01C5.16 18.04 5.03 18.06 4.89 18.06C4.62 18.06 4.41 18.02 4.27 17.95C4.13 17.87 4.06 17.78 4.06 17.66C4.06 17.59 4.08 17.53 4.11 17.48C4.14 17.43 4.19001 17.39 4.24001 17.36C4.29001 17.4 4.36 17.44 4.45 17.48C4.54 17.52 4.64999 17.54 4.78999 17.54C4.91999 17.54 5.02 17.52 5.09 17.47C5.15 17.42 5.19 17.36 5.19 17.29C5.19 17.22 5.16 17.16 5.11 17.12C5.06 17.08 4.97 17.06 4.84 17.06H4.47C4.45 17.03 4.44 17 4.42 16.95C4.41 16.91 4.39999 16.86 4.39999 16.8C4.39999 16.74 4.41 16.69 4.42 16.64C4.43 16.6 4.45 16.56 4.47 16.53H4.84C5.03 16.53 5.11999 16.46 5.11999 16.31C5.11999 16.24 5.09 16.19 5.03 16.14C4.97 16.09 4.87999 16.08 4.75999 16.08C4.64999 16.08 4.56 16.09 4.48 16.12C4.4 16.14 4.33 16.18 4.28 16.21C4.24 16.18 4.2 16.14 4.17 16.09C4.14 16.04 4.13 15.99 4.13 15.93C4.13 15.8 4.2 15.7 4.33 15.64C4.46 15.57 4.65 15.54 4.87 15.54Z" fill="currentColor"/>
</svg>
