<svg width="25" height="24" viewBox="0 0 25 24" fill="none" xmlns="http://www.w3.org/2000/svg">
<path d="M20.8858 12.19H4.88577C4.27577 12.19 3.78577 11.7 3.78577 11.09C3.78577 10.48 4.27577 9.98999 4.88577 9.98999H20.8858C21.4958 9.98999 21.9858 10.48 21.9858 11.09C21.9858 11.7 21.4958 12.19 20.8858 12.19Z" fill="currentColor"/>
<path d="M9.3958 11.07C10.5158 11.63 11.6358 11.77 12.6158 11.9C12.8258 11.93 13.0258 11.96 13.2258 11.99H17.2658C17.1058 11.73 16.9458 11.49 16.7558 11.29C15.9058 10.35 14.8458 10.05 14.1258 9.91C13.7258 9.83 13.3158 9.78 12.8858 9.72C11.9958 9.61 11.1658 9.5 10.3758 9.11C9.90579 8.88 9.6758 8.21 9.8258 7.56C9.9258 7.15 10.3258 6.2 11.9258 6.2C13.9558 6.2 14.9958 7.88 15.1658 8.33C15.3758 8.9 16.0158 9.19 16.5858 8.97C17.1558 8.76 17.4458 8.12 17.2258 7.55C16.6858 6.12 14.8358 4 11.9258 4C9.3358 4 8.0358 5.58 7.6858 7.06C7.2958 8.72 7.9958 10.38 9.3958 11.07Z" fill="currentColor"/>
<path d="M15.3658 13.0901C15.4258 13.1801 15.4758 13.2701 15.5358 13.3801C15.8858 14.0701 15.8758 14.7201 15.5058 15.3101C14.9558 16.2101 13.6758 16.8301 12.3958 16.8301C10.1858 16.8301 9.03579 15.6001 8.86579 14.3701C8.82579 14.1001 8.83579 13.8301 8.89579 13.5601C8.92579 13.4001 8.91579 13.2401 8.88579 13.0901H6.75579C6.75579 13.1001 6.74579 13.1101 6.73579 13.1301C6.63579 13.6401 6.61579 14.1601 6.68579 14.6701C7.03579 17.2401 9.38579 19.0301 12.3958 19.0301C14.4658 19.0301 16.4158 18.0201 17.3858 16.4701C18.0258 15.4301 18.1558 14.2501 17.7858 13.0901H15.3658Z" fill="currentColor"/>
</svg>
