<svg width="24" height="24" viewBox="0 0 24 24" fill="none" xmlns="http://www.w3.org/2000/svg">
<path d="M5.1 19.7C4.49 19.7 4 19.21 4 18.6V6.1C4 5.49 4.49 5 5.1 5C5.71 5 6.2 5.49 6.2 6.1V18.6C6.2 19.21 5.71 19.7 5.1 19.7Z" fill="currentColor"/>
<path d="M12.73 19.7C12.12 19.7 11.63 19.21 11.63 18.6V6.1C11.63 5.49 12.12 5 12.73 5C13.34 5 13.83 5.49 13.83 6.1V18.6C13.83 19.21 13.33 19.7 12.73 19.7Z" fill="currentColor"/>
<path d="M12.5405 13.9H5.28054C4.67054 13.9 4.18054 13.4099 4.18054 12.7999C4.18054 12.1899 4.67054 11.7 5.28054 11.7H12.5405C13.1505 11.7 13.6405 12.1899 13.6405 12.7999C13.6405 13.4099 13.1505 13.9 12.5405 13.9Z" fill="currentColor"/>
<path d="M20.1685 16.1999C20.0085 16.0199 19.8285 15.8699 19.6185 15.7499C19.7985 15.6199 19.9385 15.4699 20.0485 15.2999C20.2585 14.9899 20.3585 14.6099 20.3585 14.1599C20.3585 13.5199 20.1285 13.0099 19.6885 12.6599C19.2585 12.3199 18.6685 12.1499 17.9185 12.1499C17.2585 12.1599 16.6185 12.3399 15.9985 12.6899C15.7985 12.8099 15.6885 13.0099 15.6885 13.2399C15.6885 13.3599 15.7185 13.4799 15.7885 13.5799L15.8585 13.6599C15.8585 13.6599 15.8685 13.6699 15.8785 13.6799L15.9685 13.7699C16.1385 13.8799 16.3085 13.9099 16.5685 13.7999C16.9585 13.5999 17.3885 13.5099 17.8585 13.5099C18.2585 13.5099 18.5585 13.5799 18.7685 13.7299C18.9485 13.8599 19.0385 14.0299 19.0385 14.2599C19.0385 14.5599 18.9285 14.7699 18.6785 14.9199C18.4085 15.0899 17.9885 15.1799 17.4285 15.1799H17.3785C17.2085 15.1799 17.0485 15.2499 16.9185 15.3899C16.7985 15.5199 16.7385 15.6799 16.7385 15.8499C16.7385 16.0199 16.7985 16.1799 16.9185 16.3099C17.0485 16.4499 17.1985 16.5199 17.3785 16.5199H17.5285C18.1485 16.5199 18.6085 16.6099 18.8985 16.7899C19.1585 16.9499 19.2785 17.1699 19.2785 17.4899C19.2785 17.7599 19.1685 17.9499 18.9485 18.0799C18.6785 18.2399 18.3285 18.3099 17.8585 18.3099C17.3885 18.3099 16.9285 18.2199 16.5185 18.0499C16.2385 17.9299 15.9685 17.9999 15.7885 18.1999C15.6785 18.3299 15.6285 18.4799 15.6285 18.6599C15.6285 18.7999 15.6585 18.9199 15.7285 19.0299C15.7985 19.1399 15.8985 19.2199 16.0185 19.2699C16.6285 19.5499 17.2785 19.6799 18.0185 19.6799C18.7585 19.6799 19.4085 19.4899 19.8785 19.1299C20.3785 18.7499 20.6285 18.2099 20.6285 17.5499C20.6285 17.0099 20.4885 16.5599 20.1985 16.2299L20.1685 16.1999Z" fill="currentColor"/>
</svg>
