<svg width="24" height="24" fill="none" viewBox="0 0 24 24"  xmlns="http://www.w3.org/2000/svg">
<path fill-rule="evenodd" clip-rule="evenodd" d="M18.5775 5.18737C19.494 6.10387 19.494 7.58981 18.5775 8.50631L9.55757 17.5262L4.52555 19.3464L4.5 19.3158L6.23863 14.2073L15.2585 5.18737C16.175 4.27088 17.661 4.27088 18.5775 5.18737Z" stroke="currentColor" stroke-width="1.5"/>
<path fill-rule="evenodd" clip-rule="evenodd" d="M14.5513 19.6797C15.2311 19.6797 15.7821 19.1287 15.7821 18.4489C15.7821 17.7692 15.2311 17.2181 14.5513 17.2181C13.8716 17.2181 13.3206 17.7692 13.3206 18.4489C13.3206 19.1287 13.8716 19.6797 14.5513 19.6797Z" fill="currentColor"/>
<path fill-rule="evenodd" clip-rule="evenodd" d="M19.2694 19.6797C19.9491 19.6797 20.5001 19.1287 20.5001 18.4489C20.5001 17.7692 19.9491 17.2181 19.2694 17.2181C18.5896 17.2181 18.0386 17.7692 18.0386 18.4489C18.0386 19.1287 18.5896 19.6797 19.2694 19.6797Z" fill="currentColor"/>
</svg>
