<svg width="25" height="24" viewBox="0 0 25 24" fill="none" xmlns="http://www.w3.org/2000/svg">
<rect x="0.888885" width="24" height="24" fill="white"/>
<path d="M5.9889 19.7C5.3789 19.7 4.8889 19.21 4.8889 18.6V6.1C4.8889 5.49 5.3789 5 5.9889 5C6.5989 5 7.0889 5.49 7.0889 6.1V18.6C7.0889 19.21 6.5989 19.7 5.9889 19.7Z" fill="currentColor"/>
<path d="M13.6189 19.7C13.0089 19.7 12.5189 19.21 12.5189 18.6V6.1C12.5189 5.49 13.0089 5 13.6189 5C14.2289 5 14.7189 5.49 14.7189 6.1V18.6C14.7189 19.21 14.2189 19.7 13.6189 19.7Z" fill="currentColor"/>
<path d="M13.4294 13.9H6.16944C5.55944 13.9 5.06944 13.4099 5.06944 12.7999C5.06944 12.1899 5.55944 11.7 6.16944 11.7H13.4294C14.0394 11.7 14.5294 12.1899 14.5294 12.7999C14.5294 13.4099 14.0394 13.9 13.4294 13.9Z" fill="currentColor"/>
<path d="M21.0575 16.2C20.8975 16.02 20.7175 15.87 20.5075 15.75C20.6875 15.62 20.8275 15.47 20.9375 15.3C21.1475 14.99 21.2475 14.61 21.2475 14.16C21.2475 13.52 21.0175 13.01 20.5775 12.66C20.1475 12.32 19.5575 12.15 18.8075 12.15C18.1475 12.16 17.5075 12.34 16.8875 12.69C16.6875 12.81 16.5775 13.01 16.5775 13.24C16.5775 13.36 16.6075 13.48 16.6775 13.58L16.7475 13.66C16.7475 13.66 16.7575 13.67 16.7675 13.68L16.8575 13.77C17.0275 13.88 17.1975 13.91 17.4575 13.8C17.8475 13.6 18.2775 13.51 18.7475 13.51C19.1475 13.51 19.4475 13.58 19.6575 13.73C19.8375 13.86 19.9275 14.03 19.9275 14.26C19.9275 14.56 19.8175 14.77 19.5675 14.92C19.2975 15.09 18.8775 15.18 18.3175 15.18H18.2675C18.0975 15.18 17.9375 15.25 17.8075 15.39C17.6875 15.52 17.6275 15.68 17.6275 15.85C17.6275 16.02 17.6875 16.18 17.8075 16.31C17.9375 16.45 18.0875 16.52 18.2675 16.52H18.4175C19.0375 16.52 19.4975 16.61 19.7875 16.79C20.0475 16.95 20.1675 17.17 20.1675 17.49C20.1675 17.76 20.0575 17.95 19.8375 18.08C19.5675 18.24 19.2175 18.31 18.7475 18.31C18.2775 18.31 17.8175 18.22 17.4075 18.05C17.1275 17.93 16.8575 18 16.6775 18.2C16.5675 18.33 16.5175 18.48 16.5175 18.66C16.5175 18.8 16.5475 18.92 16.6175 19.03C16.6875 19.14 16.7875 19.22 16.9075 19.27C17.5175 19.55 18.1675 19.68 18.9075 19.68C19.6475 19.68 20.2975 19.49 20.7675 19.13C21.2675 18.75 21.5175 18.21 21.5175 17.55C21.5175 17.01 21.3775 16.56 21.0875 16.23L21.0575 16.2Z" fill="currentColor"/>
</svg>
