<svg width="24" height="24" viewBox="0 0 24 24" fill="none" xmlns="http://www.w3.org/2000/svg">
<path d="M7.80477 21.115C6.54477 21.115 5.28477 20.635 4.32477 19.675C2.40477 17.755 2.40477 14.635 4.32477 12.705L7.05477 9.97501C8.97477 8.05501 12.0948 8.05501 14.0148 9.97501C14.2548 10.215 14.2648 10.615 14.0148 10.855C13.7648 11.095 13.3748 11.105 13.1348 10.855C11.7048 9.42501 9.36477 9.42501 7.93477 10.855L5.20477 13.585C3.77477 15.015 3.77477 17.345 5.20477 18.785C6.63477 20.215 8.96477 20.225 10.4048 18.785L11.5448 17.645C11.7848 17.405 12.1848 17.395 12.4248 17.645C12.6648 17.895 12.6748 18.285 12.4248 18.525L11.2848 19.665C10.3248 20.625 9.06477 21.105 7.80477 21.105V21.115ZM13.4648 15.455C12.2048 15.455 10.9448 14.975 9.98477 14.015C9.74477 13.775 9.73477 13.375 9.98477 13.135C10.2348 12.895 10.6248 12.885 10.8648 13.135C12.2948 14.565 14.6348 14.565 16.0648 13.135L18.7948 10.405C20.2248 8.97501 20.2248 6.64501 18.7948 5.20501C17.3648 3.77501 15.0348 3.77501 13.5948 5.20501L12.4548 6.34501C12.2148 6.58501 11.8148 6.58501 11.5748 6.34501C11.3348 6.10501 11.3348 5.70501 11.5748 5.46501L12.7148 4.32501C14.6348 2.40501 17.7548 2.40501 19.6748 4.32501C21.5948 6.24501 21.5948 9.36501 19.6748 11.295L16.9448 14.025C15.9848 14.985 14.7248 15.465 13.4648 15.465V15.455Z" fill="currentColor"/>
</svg>
