<svg width="24" height="24" viewBox="0 0 24 24" fill="none" xmlns="http://www.w3.org/2000/svg">
<path d="M12.3504 4.63989C12.0004 4.63989 11.7304 4.91989 11.7304 5.25989V11.3799H3.12037V5.25989C3.12037 4.91989 2.84037 4.63989 2.50037 4.63989C2.16037 4.63989 1.88037 4.91989 1.88037 5.25989V18.7399C1.88037 19.0799 2.16037 19.3599 2.50037 19.3599C2.84037 19.3599 3.12037 19.0799 3.12037 18.7399V12.6199H11.7204V18.7399C11.7204 19.0799 12.0004 19.3599 12.3404 19.3599C12.6804 19.3599 12.9604 19.0799 12.9604 18.7399V5.25989C12.9604 4.91989 12.6804 4.63989 12.3404 4.63989H12.3504Z" fill="currentColor"/>
<path d="M17.4904 18.1199C17.6804 17.7099 18.1504 17.1199 19.3604 16.6099C20.7104 16.0399 21.6004 15.1299 21.7804 14.1099C21.9204 13.3299 21.6404 12.5699 20.9904 11.9499C20.1104 11.1199 19.0104 10.9099 17.9604 11.3699C16.9404 11.8099 16.1404 12.8299 16.1404 13.6799C16.1404 14.0199 16.4204 14.2999 16.7604 14.2999C17.1004 14.2999 17.3804 14.0199 17.3804 13.6799C17.3804 13.4299 17.7904 12.8099 18.4504 12.5199C19.0404 12.2599 19.6104 12.3799 20.1304 12.8699C20.4704 13.1899 20.6104 13.5399 20.5504 13.8899C20.4504 14.4699 19.8204 15.0599 18.8804 15.4499C15.8204 16.7399 16.1304 18.7599 16.1504 18.8399C16.2004 19.1399 16.4604 19.3599 16.7704 19.3599H21.5004C21.8504 19.3599 22.1204 19.0799 22.1204 18.7399C22.1204 18.3999 21.8404 18.1199 21.5004 18.1199H17.4904Z" fill="currentColor"/>
</svg>
