<svg width="24" height="24" viewBox="0 0 24 24" fill="none" xmlns="http://www.w3.org/2000/svg">
<path d="M9.06494 5.63H20.0649C20.4049 5.63 20.6849 5.35 20.6849 5.01C20.6849 4.67 20.4049 4.39 20.0649 4.39H9.06494C8.72494 4.39 8.44494 4.67 8.44494 5.01C8.44494 5.35 8.72494 5.63 9.06494 5.63Z" fill="currentColor"/>
<path d="M4.56494 6.25C5.2553 6.25 5.81494 5.69036 5.81494 5C5.81494 4.30964 5.2553 3.75 4.56494 3.75C3.87459 3.75 3.31494 4.30964 3.31494 5C3.31494 5.69036 3.87459 6.25 4.56494 6.25Z" fill="currentColor"/>
<path d="M20.0649 11.37H9.06494C8.72494 11.37 8.44494 11.65 8.44494 11.99C8.44494 12.33 8.72494 12.61 9.06494 12.61H20.0649C20.4049 12.61 20.6849 12.33 20.6849 11.99C20.6849 11.65 20.4049 11.37 20.0649 11.37Z" fill="currentColor"/>
<path d="M4.56494 13.25C5.2553 13.25 5.81494 12.6904 5.81494 12C5.81494 11.3096 5.2553 10.75 4.56494 10.75C3.87459 10.75 3.31494 11.3096 3.31494 12C3.31494 12.6904 3.87459 13.25 4.56494 13.25Z" fill="currentColor"/>
<path d="M20.0649 18.37H9.06494C8.72494 18.37 8.44494 18.65 8.44494 18.99C8.44494 19.33 8.72494 19.61 9.06494 19.61H20.0649C20.4049 19.61 20.6849 19.33 20.6849 18.99C20.6849 18.65 20.4049 18.37 20.0649 18.37Z" fill="currentColor"/>
<path d="M4.56494 20.25C5.2553 20.25 5.81494 19.6904 5.81494 19C5.81494 18.3096 5.2553 17.75 4.56494 17.75C3.87459 17.75 3.31494 18.3096 3.31494 19C3.31494 19.6904 3.87459 20.25 4.56494 20.25Z" fill="currentColor"/>
</svg>
