<svg width="24" height="24" viewBox="0 0 24 24" fill="none" xmlns="http://www.w3.org/2000/svg">
<path d="M7 13.7647L9.64565 11.3369C10.0963 10.9234 10.8268 10.9234 11.2774 11.3369L13.9231 13.7647M13.1538 13.0588L13.8764 12.3958C14.327 11.9823 15.0576 11.9823 15.5082 12.3958L17 13.7647M21 12C21 16.9706 16.9706 21 12 21C7.02944 21 3 16.9706 3 12C3 7.02944 7.02944 3 12 3C16.9706 3 21 7.02944 21 12ZM8.28205 16H15.7179C16.6556 16 17 15.684 17 14.8235V9.17647C17 8.31603 16.6556 8 15.7179 8H8.28205C7.3444 8 7 8.31603 7 9.17647C7 10.0369 7 14.8235 7 14.8235C7 14.8235 7 14.8235 7 14.8235C7 15.684 7.3444 16 8.28205 16ZM13.1538 10.2353H13.1577V10.2388H13.1538V10.2353ZM13.3462 10.2353C13.3462 10.3328 13.2601 10.4118 13.1538 10.4118C13.0476 10.4118 12.9615 10.3328 12.9615 10.2353C12.9615 10.1378 13.0476 10.0588 13.1538 10.0588C13.2601 10.0588 13.3462 10.1378 13.3462 10.2353Z" stroke="currentColor" stroke-width="1.25" stroke-linecap="round" stroke-linejoin="round"/>
</svg>
