<svg width="25" height="24" viewBox="0 0 25 24" fill="none" xmlns="http://www.w3.org/2000/svg">
<path d="M12.39 14.7071C11.53 14.7071 10.7 14.4171 10.01 13.8871C9.57998 13.5471 9.49999 12.9171 9.83999 12.4871C10.18 12.0471 10.81 11.9771 11.24 12.3171C11.63 12.6271 12.12 12.7571 12.61 12.6971C13.1 12.6371 13.54 12.3871 13.85 11.9971L16.2 8.99714C16.83 8.18714 16.69 7.01714 15.89 6.38714C15.5 6.07714 15.01 5.93714 14.52 6.00714C14.03 6.06714 13.59 6.31714 13.28 6.70714L12.44 7.76714C12.1 8.19714 11.47 8.27714 11.04 7.93714C10.61 7.59714 10.53 6.96714 10.87 6.53714L11.71 5.47714C12.35 4.66714 13.26 4.14714 14.28 4.02714C15.31 3.90714 16.31 4.18714 17.13 4.82714C17.94 5.46714 18.46 6.37714 18.58 7.39714C18.7 8.41714 18.42 9.42714 17.78 10.2471L15.43 13.2471C14.79 14.0571 13.88 14.5771 12.86 14.6971C12.7 14.6971 12.54 14.7071 12.39 14.7071Z" fill="currentColor"/>
<path d="M8.99999 19.0172C8.13999 19.0172 7.30999 18.7272 6.61999 18.1972C5.80999 17.5572 5.28999 16.6472 5.16999 15.6272C5.04999 14.6072 5.32999 13.5972 5.96999 12.7772L7.92999 10.2772C9.23999 8.60716 11.67 8.30716 13.35 9.62716C13.78 9.96716 13.86 10.5972 13.52 11.0272C13.18 11.4672 12.55 11.5372 12.12 11.1972C11.31 10.5672 10.14 10.7072 9.50999 11.5072L7.54999 14.0072C7.23999 14.3972 7.10999 14.8872 7.16999 15.3772C7.22999 15.8672 7.47999 16.3072 7.86999 16.6172C8.25999 16.9272 8.74999 17.0572 9.23999 16.9972C9.72999 16.9372 10.17 16.6872 10.48 16.2972L11.28 15.2772C11.62 14.8372 12.25 14.7672 12.68 15.0972C13.12 15.4372 13.19 16.0672 12.86 16.4972L12.06 17.5272C11.42 18.3372 10.51 18.8572 9.47999 18.9772C9.30999 19.0072 9.15999 19.0172 8.99999 19.0172Z" fill="currentColor"/>
</svg>
