<svg width="25" height="24" viewBox="0 0 25 24" fill="none" xmlns="http://www.w3.org/2000/svg">
<path d="M20.1772 7.64014H9.60718C9.05718 7.64014 8.60718 7.19014 8.60718 6.64014C8.60718 6.09014 9.05718 5.64014 9.60718 5.64014H20.1772C20.7272 5.64014 21.1772 6.09014 21.1772 6.64014C21.1772 7.19014 20.7272 7.64014 20.1772 7.64014Z" fill="currentColor"/>
<path d="M20.1772 13H9.60718C9.05718 13 8.60718 12.55 8.60718 12C8.60718 11.45 9.05718 11 9.60718 11H20.1772C20.7272 11 21.1772 11.45 21.1772 12C21.1772 12.55 20.7272 13 20.1772 13Z" fill="currentColor"/>
<path d="M20.1772 18.3599H9.60718C9.05718 18.3599 8.60718 17.9099 8.60718 17.3599C8.60718 16.8099 9.05718 16.3599 9.60718 16.3599H20.1772C20.7272 16.3599 21.1772 16.8099 21.1772 17.3599C21.1772 17.9099 20.7272 18.3599 20.1772 18.3599Z" fill="currentColor"/>
<path d="M5.60718 19.5C5.19718 19.5 4.85718 19.16 4.85718 18.75V5.75C4.85718 5.34 5.19718 5 5.60718 5C6.01718 5 6.35718 5.34 6.35718 5.75V18.75C6.35718 19.16 6.01718 19.5 5.60718 19.5Z" fill="currentColor"/>
</svg>
