<svg width="24" height="24" viewBox="0 0 24 24" fill="none" xmlns="http://www.w3.org/2000/svg">
<path d="M9.21624 20.2354C9.21624 20.2354 9.24624 20.2254 9.25624 20.2154L21.1462 8.45537C22.5862 7.01537 22.4262 4.92537 20.7562 3.25537C19.0862 1.58537 16.9962 1.42537 15.5562 2.86537L6.20624 12.1954C5.96624 12.4354 5.96624 12.8354 6.20624 13.0754C6.44624 13.3154 6.84624 13.3154 7.08624 13.0754L16.4262 3.73537C17.5462 2.61537 18.9362 3.20537 19.8662 4.12537C20.7962 5.04537 21.3762 6.43537 20.2662 7.55537L9.26624 18.4354C9.03624 17.6954 8.58624 16.9754 7.95624 16.3354C6.86624 15.2454 5.46624 14.6454 4.18624 14.7354C3.92624 14.7554 3.69624 14.9354 3.62624 15.1854L1.89624 21.3254C1.83624 21.5454 1.89624 21.7754 2.05624 21.9354C2.17624 22.0554 2.33624 22.1154 2.49624 22.1154C2.55624 22.1154 2.60624 22.1154 2.66624 22.0954L8.97624 20.3654C8.97624 20.3654 8.99624 20.3554 9.01624 20.3454C9.03624 20.3454 9.06624 20.3254 9.08624 20.3154C9.13624 20.2954 9.17624 20.2654 9.21624 20.2254V20.2354ZM3.40624 20.6054L4.70624 16.0054C5.50624 16.0854 6.37624 16.5354 7.07624 17.2354C7.70624 17.8654 8.09624 18.6054 8.18624 19.2954L3.41624 20.6054H3.40624Z" fill="currentColor"/>
<path d="M21.5062 20.8654H12.5062C12.1562 20.8654 11.8862 21.1454 11.8862 21.4854C11.8862 21.8254 12.1662 22.1054 12.5062 22.1054H21.5062C21.8562 22.1054 22.1262 21.8254 22.1262 21.4854C22.1262 21.1454 21.8462 20.8654 21.5062 20.8654Z" fill="currentColor"/>
</svg>
