<svg width="25" height="24" viewBox="0 0 25 24" fill="none" xmlns="http://www.w3.org/2000/svg">
<path d="M16.1429 11.27C16.6929 10.62 17.0029 9.77 17.0029 8.84C17.0029 7.69 16.5129 5 12.0129 5H8.55288C8.05288 5 7.64288 5.41 7.64288 5.91V17.86C7.64288 18.36 8.05288 18.77 8.55288 18.77H12.2729C15.6229 18.77 17.7029 17.08 17.7029 14.36C17.7029 13.05 17.1429 11.95 16.1429 11.27ZM10.8129 10.13V7.9H11.8129C13.8429 7.9 13.8429 8.51 13.8429 9C13.8429 9.37 13.8429 10.13 11.7329 10.13H10.8129ZM14.5529 14.32C14.5529 14.78 14.5529 15.87 12.0529 15.87H10.8129V13H12.0529C14.5529 13 14.5529 13.96 14.5529 14.32Z" fill="currentColor"/>
</svg>
