<svg width="24" height="24" viewBox="0 0 24 24" fill="none" xmlns="http://www.w3.org/2000/svg">
<path d="M20.1 12.19H4.1C3.49 12.19 3 11.7 3 11.09C3 10.48 3.49 9.98999 4.1 9.98999H20.1C20.71 9.98999 21.2 10.48 21.2 11.09C21.2 11.7 20.71 12.19 20.1 12.19Z" fill="currentColor"/>
<path d="M8.61009 11.07C9.73009 11.63 10.8501 11.77 11.8301 11.9C12.0401 11.93 12.2401 11.96 12.4401 11.99H16.4801C16.3201 11.73 16.1601 11.49 15.9701 11.29C15.1201 10.35 14.0601 10.05 13.3401 9.91C12.9401 9.83 12.5301 9.78 12.1001 9.72C11.2101 9.61 10.3801 9.5 9.59009 9.11C9.12009 8.88 8.89009 8.21 9.04009 7.56C9.14009 7.15 9.54009 6.2 11.1401 6.2C13.1701 6.2 14.2101 7.88 14.3801 8.33C14.5901 8.9 15.2301 9.19 15.8001 8.97C16.3701 8.76 16.6601 8.12 16.4401 7.55C15.9001 6.12 14.0501 4 11.1401 4C8.55009 4 7.25009 5.58 6.90009 7.06C6.51009 8.72 7.21009 10.38 8.61009 11.07Z" fill="currentColor"/>
<path d="M14.5801 13.0901C14.6401 13.1801 14.6901 13.2701 14.7501 13.3801C15.1001 14.0701 15.0901 14.7201 14.7201 15.3101C14.1701 16.2101 12.8901 16.8301 11.6101 16.8301C9.40008 16.8301 8.25009 15.6001 8.08009 14.3701C8.04009 14.1001 8.05008 13.8301 8.11008 13.5601C8.14008 13.4001 8.13008 13.2401 8.10008 13.0901H5.97009C5.97009 13.1001 5.96008 13.1101 5.95008 13.1301C5.85008 13.6401 5.83009 14.1601 5.90009 14.6701C6.25009 17.2401 8.60008 19.0301 11.6101 19.0301C13.6801 19.0301 15.6301 18.0201 16.6001 16.4701C17.2401 15.4301 17.3701 14.2501 17.0001 13.0901H14.5801Z" fill="currentColor"/>
</svg>
