<svg width="24" height="24" viewBox="0 0 24 24" fill="none" xmlns="http://www.w3.org/2000/svg">

<path d="M18.3958 5.8813C17.7589 5.44912 17.0158 5.21997 16.2467 5.21997C15.7816 5.21997 15.4042 5.59739 15.4042 6.06243C15.4042 6.52747 15.7816 6.90489 16.2467 6.90489C16.6763 6.90489 17.0925 7.03294 17.4489 7.27473C18.0453 7.67911 18.4008 8.34634 18.4008 9.05906V16.161C18.4008 17.3489 17.4345 18.3152 16.2467 18.3152H9.14474C7.95687 18.3152 6.98973 17.3489 6.98973 16.161V12.61C6.98973 12.145 6.61231 11.7676 6.14727 11.7676C5.68223 11.7676 5.30481 12.145 5.30481 12.61V16.161C5.30481 18.2781 7.02764 20.0001 9.14474 20.0001H16.2467C18.3638 20.0001 20.0858 18.2781 20.0858 16.161V9.0599C20.0858 7.78863 19.4539 6.59992 18.3949 5.8813H18.3958Z" fill="currentColor"/>
<path d="M11.6941 8.22819C11.6393 8.30317 11.5812 8.37394 11.5189 8.44218C11.1448 8.8474 10.7581 8.97882 10.7539 8.97967L10.7666 8.9763V8.97967C10.4287 9.0875 10.1827 9.40511 10.1827 9.78C10.1827 10.2442 10.5593 10.6208 11.0235 10.6208C11.0993 10.6208 11.1735 10.6098 11.2434 10.5904V10.5921C11.2484 10.5904 11.2594 10.5871 11.2729 10.5829C11.2729 10.5829 11.2737 10.5829 11.2746 10.5829C11.5837 10.4818 13.9645 9.58624 13.9645 6.11783C13.9645 6.09846 13.9629 6.07992 13.962 6.06139C13.9317 4.91817 12.9965 4.00073 11.8466 4.00073C10.6966 4.00073 9.72949 4.9485 9.72949 6.11783C9.72949 7.28717 10.5964 8.15069 11.6949 8.22904L11.6941 8.22819Z" fill="currentColor"/>
<path d="M5.15319 9.77927C5.15319 10.2435 5.52977 10.62 5.99397 10.62C6.06979 10.62 6.14393 10.6091 6.21385 10.5897V10.5914C6.21891 10.5897 6.22986 10.5863 6.24334 10.5821C6.24334 10.5821 6.24418 10.5821 6.24502 10.5821C6.55336 10.481 8.93499 9.58635 8.93499 6.1171C8.93499 6.09857 8.93331 6.08087 8.93247 6.06318C8.90382 4.91912 7.96785 4 6.81705 4C5.66625 4 4.69995 4.94777 4.69995 6.1171C4.69995 7.28643 5.56684 8.14995 6.66541 8.2283C6.61065 8.30328 6.55252 8.37405 6.49018 8.44229C6.11613 8.84751 5.72944 8.97893 5.72522 8.97978L5.73786 8.97641V8.97978C5.40003 9.08761 5.15404 9.40522 5.15404 9.78011L5.15319 9.77927Z" fill="currentColor"/>
</svg>
