<svg width="25" height="24" viewBox="0 0 25 24" fill="none" xmlns="http://www.w3.org/2000/svg">
<rect x="0.666656" width="24" height="24" fill="white"/>
<path d="M19.0625 5.88118C18.4256 5.449 17.6826 5.21985 16.9134 5.21985C16.4484 5.21985 16.071 5.59727 16.071 6.06231C16.071 6.52735 16.4484 6.90477 16.9134 6.90477C17.3431 6.90477 17.7592 7.03282 18.1156 7.27461C18.7121 7.67899 19.0676 8.34622 19.0676 9.05894V16.1609C19.0676 17.3487 18.1013 18.315 16.9134 18.315H9.81149C8.62362 18.315 7.65648 17.3487 7.65648 16.1609V12.6099C7.65648 12.1449 7.27905 11.7674 6.81402 11.7674C6.34898 11.7674 5.97156 12.1449 5.97156 12.6099V16.1609C5.97156 18.278 7.69439 20 9.81149 20H16.9134C19.0305 20 20.7525 18.278 20.7525 16.1609V9.05978C20.7525 7.78851 20.1207 6.5998 19.0617 5.88118H19.0625Z" fill="#333333"/>
<path d="M12.3608 8.22832C12.306 8.30329 12.2479 8.37406 12.1855 8.4423C11.8115 8.84752 11.4248 8.97895 11.4206 8.97979L11.4332 8.97642V8.97979C11.0954 9.08762 10.8494 9.40523 10.8494 9.78013C10.8494 10.2443 11.226 10.6209 11.6902 10.6209C11.766 10.6209 11.8401 10.6099 11.91 10.5906V10.5923C11.9151 10.5906 11.9261 10.5872 11.9395 10.583C11.9395 10.583 11.9404 10.583 11.9412 10.583C12.2504 10.4819 14.6312 9.58636 14.6312 6.11795C14.6312 6.09858 14.6295 6.08004 14.6287 6.06151C14.5983 4.91829 13.6632 4.00085 12.5132 4.00085C11.3633 4.00085 10.3961 4.94862 10.3961 6.11795C10.3961 7.28729 11.263 8.15081 12.3616 8.22916L12.3608 8.22832Z" fill="#333333"/>
<path d="M5.81991 9.77927C5.81991 10.2435 6.19649 10.62 6.66069 10.62C6.73651 10.62 6.81064 10.6091 6.88057 10.5897V10.5914C6.88562 10.5897 6.89657 10.5863 6.91005 10.5821C6.91005 10.5821 6.9109 10.5821 6.91174 10.5821C7.22008 10.481 9.60171 9.58635 9.60171 6.1171C9.60171 6.09857 9.60003 6.08087 9.59918 6.06318C9.57054 4.91912 8.63457 4 7.48377 4C6.33297 4 5.36667 4.94777 5.36667 6.1171C5.36667 7.28643 6.23356 8.14995 7.33213 8.2283C7.27737 8.30328 7.21924 8.37405 7.15689 8.44229C6.78284 8.84751 6.39615 8.97893 6.39194 8.97978L6.40458 8.97641V8.97978C6.06675 9.08761 5.82075 9.40522 5.82075 9.78011L5.81991 9.77927Z" fill="#333333"/>
</svg>
