<svg width="24" height="24" viewBox="0 0 24 24" fill="none" xmlns="http://www.w3.org/2000/svg">
<path d="M21.4649 11.5843L17.9249 7.64432C17.6949 7.38432 17.2949 7.36432 17.0449 7.59432C16.7849 7.82432 16.7649 8.22432 16.9949 8.47432L20.1549 11.9943L16.9949 15.5143C16.7649 15.7743 16.7849 16.1643 17.0449 16.3943C17.1649 16.5043 17.3149 16.5543 17.4649 16.5543C17.6349 16.5543 17.8049 16.4843 17.9249 16.3443L21.4649 12.4043C21.6749 12.1643 21.6749 11.8043 21.4649 11.5643V11.5843Z" fill="currentColor"/>
<path d="M6.95494 7.59432C6.69494 7.36432 6.30494 7.38432 6.07494 7.64432L2.53494 11.5843C2.32494 11.8243 2.32494 12.1843 2.53494 12.4243L6.07494 16.3643C6.19494 16.5043 6.36494 16.5743 6.53494 16.5743C6.68494 16.5743 6.83494 16.5243 6.95494 16.4143C7.21494 16.1843 7.23494 15.7843 7.00494 15.5343L3.84494 12.0143L7.00494 8.49432C7.23494 8.23432 7.21494 7.84432 6.95494 7.61432V7.59432Z" fill="currentColor"/>
<path d="M14.1449 6.16432C13.8249 6.04432 13.4649 6.21432 13.3449 6.53432L9.48494 17.0343C9.36494 17.3543 9.53494 17.7143 9.85494 17.8343C9.92494 17.8643 9.99494 17.8743 10.0749 17.8743C10.3249 17.8743 10.5649 17.7143 10.6649 17.4643L14.5149 6.96432C14.6349 6.64432 14.4649 6.28432 14.1449 6.16432Z" fill="currentColor"/>
</svg>
