<svg width="24" height="24" viewBox="0 0 24 24" fill="none" xmlns="http://www.w3.org/2000/svg">
<path d="M10.706 13.2068L10.404 13.7541L10.4151 13.7602L10.4265 13.7658L10.706 13.2068ZM10.706 10.8613L10.3959 10.3187L10.706 10.8613ZM11.1955 10.8721L10.8625 11.401L10.8632 11.4014L11.1955 10.8721ZM12.3951 11.6252L12.0628 12.1546L12.0676 12.1575L12.3951 11.6252ZM12.3951 12.4429L12.0676 11.9106L12.0645 11.9125L12.3951 12.4429ZM11.1955 13.1907L10.8649 12.6603L10.8482 12.6707L10.8322 12.6821L11.1955 13.1907ZM15.7693 13.4497C15.4578 13.301 15.0847 13.4329 14.936 13.7444C14.7873 14.0559 14.9192 14.429 15.2307 14.5777L15.7693 13.4497ZM16.34 14.4148L16.6113 13.8517L16.6093 13.8507L16.34 14.4148ZM16.34 9.58524L16.6093 10.1493L16.6113 10.1483L16.34 9.58524ZM15.2307 9.42228C14.9192 9.571 14.7873 9.94408 14.936 10.2556C15.0847 10.5671 15.4578 10.699 15.7693 10.5503L15.2307 9.42228ZM20.375 12C20.375 16.6254 16.6254 20.375 12 20.375V21.625C17.3157 21.625 21.625 17.3157 21.625 12H20.375ZM12 20.375C7.37462 20.375 3.625 16.6254 3.625 12H2.375C2.375 17.3157 6.68426 21.625 12 21.625V20.375ZM3.625 12C3.625 7.37462 7.37462 3.625 12 3.625V2.375C6.68426 2.375 2.375 6.68426 2.375 12H3.625ZM12 3.625C16.6254 3.625 20.375 7.37462 20.375 12H21.625C21.625 6.68426 17.3157 2.375 12 2.375V3.625ZM10.9427 12.641C10.9731 12.641 10.9876 12.6489 10.9855 12.6478L10.4265 13.7658C10.5749 13.8401 10.7508 13.891 10.9427 13.891V12.641ZM11.0079 12.6596C11.0307 12.6722 11.051 12.6919 11.0648 12.7159C11.0784 12.7394 11.0835 12.7628 11.0835 12.7818H9.8335C9.8335 13.178 10.041 13.5537 10.404 13.7541L11.0079 12.6596ZM11.0835 12.7818V11.2863H9.8335V12.7818H11.0835ZM11.0835 11.2863C11.0835 11.338 11.0559 11.3812 11.016 11.404L10.3959 10.3187C10.0548 10.5136 9.8335 10.8796 9.8335 11.2863H11.0835ZM11.016 11.404C10.9866 11.4208 10.9593 11.4255 10.938 11.425C10.9169 11.4245 10.8905 11.4186 10.8625 11.401L11.5285 10.3432C11.1897 10.1299 10.7488 10.117 10.3959 10.3187L11.016 11.404ZM10.8632 11.4014L12.0628 12.1546L12.7275 11.0959L11.5278 10.3428L10.8632 11.4014ZM12.0676 12.1575C12.0186 12.1274 11.9961 12.0796 11.9961 12.0341H13.2461C13.2461 11.655 13.0514 11.2952 12.7227 11.0929L12.0676 12.1575ZM11.9961 12.0341C11.9961 11.9885 12.0186 11.9408 12.0676 11.9106L12.7227 12.9752C13.0514 12.7729 13.2461 12.4132 13.2461 12.0341H11.9961ZM12.0645 11.9125L10.8649 12.6603L11.5261 13.7211L12.7257 12.9733L12.0645 11.9125ZM10.8322 12.6821C10.8871 12.6429 10.9317 12.641 10.9427 12.641V13.891C11.1258 13.891 11.3533 13.846 11.5588 13.6993L10.8322 12.6821ZM9.05332 8.625H13.9467V7.375H9.05332V8.625ZM13.9467 8.625C14.4594 8.625 14.875 9.04062 14.875 9.55332H16.125C16.125 8.35027 15.1497 7.375 13.9467 7.375V8.625ZM14.875 9.55332V14.4467H16.125V9.55332H14.875ZM14.875 14.4467C14.875 14.9594 14.4594 15.375 13.9467 15.375V16.625C15.1497 16.625 16.125 15.6497 16.125 14.4467H14.875ZM13.9467 15.375H9.05332V16.625H13.9467V15.375ZM9.05332 15.375C8.54062 15.375 8.125 14.9594 8.125 14.4467H6.875C6.875 15.6497 7.85027 16.625 9.05332 16.625V15.375ZM8.125 14.4467V9.55332H6.875V14.4467H8.125ZM8.125 9.55332C8.125 9.04062 8.54062 8.625 9.05332 8.625V7.375C7.85027 7.375 6.875 8.35027 6.875 9.55332H8.125ZM15.2307 14.5777L16.0707 14.9788L16.6093 13.8507L15.7693 13.4497L15.2307 14.5777ZM16.0687 14.9778C16.5231 15.1968 17.0238 15.1582 17.4126 14.9497C17.8021 14.7407 18.125 14.3303 18.125 13.7942H16.875C16.875 13.7988 16.8747 13.8014 16.8705 13.8077C16.8648 13.8164 16.8502 13.8329 16.8217 13.8482C16.7619 13.8803 16.6826 13.8861 16.6113 13.8517L16.0687 14.9778ZM18.125 13.7942V10.2058H16.875V13.7942H18.125ZM18.125 10.2058C18.125 9.66973 17.8021 9.25926 17.4126 9.05031C17.0238 8.84177 16.5231 8.80324 16.0687 9.02219L16.6113 10.1483C16.6826 10.1139 16.7619 10.1197 16.8217 10.1518C16.8502 10.1671 16.8648 10.1836 16.8705 10.1923C16.8747 10.1986 16.875 10.2012 16.875 10.2058H18.125ZM16.0707 9.02123L15.2307 9.42228L15.7693 10.5503L16.6093 10.1493L16.0707 9.02123Z" fill="currentColor"/>
</svg>
