<svg width="25" height="24" viewBox="0 0 25 24" fill="none" xmlns="http://www.w3.org/2000/svg">
<path d="M5.86391 16.0009C5.58391 16.0009 5.29391 15.8809 5.10391 15.6509L2.30391 12.3309C1.99391 11.9609 1.99391 11.4109 2.30391 11.0409L5.10391 7.72088C5.46391 7.30088 6.09391 7.24088 6.51391 7.60088C6.93391 7.96088 6.99391 8.59088 6.63391 9.01088L4.37391 11.6809L6.63391 14.3509C6.99391 14.7709 6.93391 15.4009 6.51391 15.7609C6.32391 15.9209 6.09391 16.0009 5.86391 16.0009Z" fill="currentColor"/>
<path d="M18.2639 16.0009C18.0339 16.0009 17.8039 15.9209 17.6239 15.7609C17.2039 15.4009 17.1439 14.7709 17.5039 14.3509L19.7639 11.6809L17.5039 9.01088C17.1439 8.59088 17.2039 7.96088 17.6239 7.60088C18.0439 7.24088 18.6739 7.30088 19.0339 7.72088L21.8339 11.0409C22.1439 11.4109 22.1439 11.9609 21.8339 12.3309L19.0339 15.6509C18.8339 15.8809 18.5439 16.0009 18.2639 16.0009Z" fill="currentColor"/>
<path d="M10.0639 18.0009C9.9539 18.0009 9.8339 17.9809 9.7239 17.9409C9.2039 17.7509 8.9339 17.1809 9.1239 16.6609L13.1239 5.66085C13.3139 5.14085 13.8839 4.87085 14.4039 5.06085C14.9239 5.25085 15.1939 5.82085 15.0039 6.34085L11.0039 17.3409C10.8539 17.7509 10.4739 18.0009 10.0639 18.0009Z" fill="currentColor"/>
</svg>
