<svg width="24" height="24" viewBox="0 0 24 24" fill="none" xmlns="http://www.w3.org/2000/svg">
<path d="M9.9005 9.7635C9.9005 10.3935 10.3805 10.812 11.2655 11.0175V11.016H11.273V8.376C10.418 8.5305 9.9005 9.0585 9.9005 9.7635Z" fill="#C0A46B"/>
<path d="M13.8755 14.172C13.8755 13.4595 13.379 13.056 12.3035 12.807L12.173 12.777V15.645C13.2575 15.543 13.8755 14.985 13.8755 14.172Z" fill="#C0A46B"/>
<path fill-rule="evenodd" clip-rule="evenodd" d="M12 24C18.6274 24 24 18.6274 24 12C24 5.37258 18.6274 0 12 0C5.37258 0 0 5.37258 0 12C0 18.6274 5.37258 24 12 24ZM11.273 16.944C9.245 16.812 8.114 15.6975 8 14.2665H9.602C9.74 14.9715 10.3505 15.477 11.273 15.6165V12.5655L10.6775 12.4185C9.167 12.066 8.258 11.208 8.258 9.858C8.258 8.3325 9.4805 7.254 11.273 7.0785V6H12.173V7.056C14.066 7.173 15.248 8.2515 15.362 9.63H13.784C13.646 8.949 13.073 8.457 12.173 8.355V11.2305L12.8825 11.3985C14.561 11.7945 15.5 12.558 15.5 14.0385C15.5 15.6675 14.273 16.7895 12.173 16.9365V18H11.273V16.944Z" fill="#C0A46B"/>
</svg>
