<svg width="24" height="24" viewBox="0 0 24 24" fill="none" xmlns="http://www.w3.org/2000/svg">
<path d="M7.93503 4.00006C7.93503 3.65488 7.65521 3.37506 7.31003 3.37506C6.96485 3.37506 6.68503 3.65488 6.68503 4.00006L7.93503 4.00006ZM6.68503 12.0001C6.68503 12.3452 6.96485 12.6251 7.31003 12.6251C7.65521 12.6251 7.93503 12.3452 7.93503 12.0001H6.68503ZM10.0893 16.0358C10.4345 16.0358 10.7143 15.756 10.7143 15.4108C10.7143 15.0657 10.4345 14.7858 10.0893 14.7858V16.0358ZM4.67261 14.7858C4.32743 14.7858 4.04761 15.0657 4.04761 15.4108C4.04761 15.756 4.32743 16.0358 4.67261 16.0358L4.67261 14.7858ZM20.6321 8.53579C20.9773 8.53579 21.2571 8.25597 21.2571 7.91079C21.2571 7.56562 20.9773 7.28579 20.6321 7.28579V8.53579ZM15.2154 7.28579C14.8703 7.28579 14.5904 7.56562 14.5904 7.91079C14.5904 8.25597 14.8703 8.53579 15.2154 8.53579V7.28579ZM18.625 11.0001V10.3751H17.375V11.0001H18.625ZM17.375 20.0001C17.375 20.3452 17.6549 20.6251 18 20.6251C18.3452 20.6251 18.625 20.3452 18.625 20.0001H17.375ZM18.5393 3.77148C18.5393 3.42631 18.2594 3.14648 17.9143 3.14648C17.5691 3.14648 17.2893 3.42631 17.2893 3.77148H18.5393ZM17.2893 7.37148V7.99648H18.5393V7.37148H17.2893ZM7.93212 16.6286V16.0036H6.68212V16.6286H7.93212ZM6.68212 20.2286C6.68212 20.5738 6.96194 20.8536 7.30712 20.8536C7.65229 20.8536 7.93212 20.5738 7.93212 20.2286H6.68212ZM6.68503 4.00006L6.68503 12.0001H7.93503L7.93503 4.00006L6.68503 4.00006ZM10.0893 14.7858L4.67261 14.7858L4.67261 16.0358L10.0893 16.0358V14.7858ZM20.6321 7.28579L15.2154 7.28579V8.53579L20.6321 8.53579V7.28579ZM17.375 11.0001V20.0001H18.625V11.0001H17.375ZM17.2893 3.77148V7.37148H18.5393V3.77148H17.2893ZM6.68212 16.6286V20.2286H7.93212V16.6286H6.68212Z" fill="currentColor"/>
</svg>
