<svg width="24" height="24" viewBox="0 0 24 24" fill="none" xmlns="http://www.w3.org/2000/svg">
<path d="M21.0001 6.57603C20.3594 6.8599 19.6713 7.05169 18.9478 7.13839C19.6943 6.69172 20.2528 5.98872 20.519 5.16055C19.8177 5.57713 19.0501 5.87036 18.2497 6.02749C17.7114 5.45275 16.9984 5.07181 16.2214 4.9438C15.4445 4.81579 14.647 4.94788 13.9528 5.31956C13.2586 5.69123 12.7065 6.28171 12.3822 6.9993C12.058 7.71689 11.9798 8.52145 12.1596 9.28807C10.7386 9.21672 9.34835 8.84736 8.07925 8.20395C6.81015 7.56055 5.69052 6.65748 4.79302 5.55336C4.48614 6.08272 4.30968 6.69648 4.30968 7.35013C4.30934 7.93857 4.45425 8.51799 4.73155 9.037C5.00885 9.556 5.40997 9.99853 5.89932 10.3253C5.3318 10.3073 4.77681 10.1539 4.28053 9.87805V9.92408C4.28047 10.7494 4.56595 11.5493 5.08853 12.1881C5.6111 12.8269 6.33859 13.2652 7.14754 13.4286C6.62108 13.5711 6.06912 13.5921 5.53336 13.49C5.7616 14.2001 6.20619 14.8211 6.80489 15.266C7.40359 15.7109 8.12642 15.9575 8.8722 15.9711C7.6062 16.965 6.04269 17.5041 4.4332 17.5017C4.1481 17.5018 3.86323 17.4851 3.58008 17.4518C5.21381 18.5022 7.11558 19.0597 9.05787 19.0576C15.6327 19.0576 19.2271 13.612 19.2271 8.88913C19.2271 8.73569 19.2232 8.58072 19.2163 8.42728C19.9155 7.92168 20.519 7.29558 20.9985 6.57833L21.0001 6.57603Z" fill="white"/>
</svg>
