<svg width="24" height="24" viewBox="0 0 24 24" fill="none" xmlns="http://www.w3.org/2000/svg">
<g clip-path="url(#clip0_425_4934)">
<path d="M8.10005 18C6.74289 17.9941 5.44341 17.4115 4.48694 16.3803C3.53047 15.3491 2.9952 13.9535 2.99867 12.5C2.99658 11.0469 3.5323 9.65219 4.48847 8.6213C5.44465 7.59041 6.74332 7.00741 8.10005 7C10.8927 7 13.2263 9.50624 13.2224 12.5014C13.2184 15.4966 10.894 18.0028 8.10005 18Z" fill="white"/>
<path d="M13.5952 12.7297C13.5533 11.1705 13.7849 9.87747 14.414 8.68949C14.8065 7.95121 15.3231 7.31239 16.1812 7.3348C17.0393 7.35722 17.5704 7.99323 17.9183 8.74692C19.0602 11.2251 19.0432 13.73 17.9392 16.2208C17.8109 16.4912 17.6455 16.7396 17.4487 16.9577C16.5906 17.9565 15.5664 17.9299 14.7751 16.868C13.9837 15.8061 13.675 14.5061 13.5978 13.1542C13.5847 12.9455 13.5952 12.7353 13.5952 12.7297Z" fill="white"/>
<path d="M20.9949 12.5391C21.02 13.6125 20.9345 14.6856 20.7398 15.7388C20.7057 15.9457 20.6554 16.149 20.5894 16.3468C20.4834 16.6452 20.4259 17.0613 20.0662 17.0655C19.662 17.0655 19.6005 16.6312 19.5011 16.3104C19.4108 15.9986 19.3439 15.6796 19.301 15.3564C18.9821 13.2795 19.0167 11.158 19.403 9.09426C19.4893 8.64457 19.5102 7.95252 20.0701 7.95953C20.5737 7.96653 20.5998 8.63337 20.6966 9.06485C20.9377 10.204 21.038 11.372 20.9949 12.5391Z" fill="white"/>
</g>
<defs>
<clipPath id="clip0_425_4934">
<rect width="18" height="11" fill="white" transform="translate(3 7)"/>
</clipPath>
</defs>
</svg>
