<svg xmlns="http://www.w3.org/2000/svg" width="24" height="24" viewBox="0 0 24 24">
  <path fill="#333" fill-rule="evenodd" d="M17.6522418,11.5826654 C17.3222934,11.4815262 17.0973285,11.4115068 17.2698016,10.9641604 C17.644743,9.99166841 17.6822372,9.1514353 17.2773004,8.55238021 C16.5124199,7.43206939 14.4277457,7.49041891 12.0356194,8.52515043 C12.0356194,8.52126046 11.2819872,8.86357766 11.4732073,8.24896269 C11.8443993,7.0275127 11.7881581,6.00834106 11.2144977,5.4170659 C9.91720044,4.07891687 6.46399,5.46763549 3.50570223,8.51737049 C1.28604905,10.8007818 0,13.2242319 0,15.3170348 C0,19.319812 4.98297141,22 9.86095923,22 C16.2499609,22 20.5017966,17.9310933 20.5017966,14.8930282 C20.5017966,13.0569633 19.0020309,12.0144518 17.6522418,11.5826654 Z M9.87220747,20.2028347 C5.98406499,20.5957215 2.62458991,18.8063362 2.37337916,16.2039475 C2.12216841,13.6015588 5.06920794,11.1819987 8.95735041,10.7891119 C12.8454929,10.3962251 16.2087174,12.1895004 16.4599281,14.7879991 C16.7111389,17.3864978 13.7640994,19.8138379 9.87220747,20.2028347 Z M24,8.32287209 C23.9479384,4.22913134 20.7095145,0.952869298 16.7636307,1.00195208 C16.4563438,0.980421464 16.1630897,1.13829173 16.0031404,1.41135408 C15.843191,1.68441643 15.843191,2.02718374 16.0031404,2.30024609 C16.1630897,2.57330844 16.4563438,2.73117871 16.7636307,2.70964809 C19.7904025,2.67267968 22.2738661,5.18656765 22.3127636,8.32676206 C22.3263642,8.79998776 22.7000522,9.17629628 23.1563818,9.17629628 C23.6127115,9.17629628 23.9863994,8.79998776 24,8.32676206 L24,8.32287209 Z M20.6442743,8.19839311 C20.2343545,6.26916182 18.7600328,4.77624592 16.8911108,4.39789425 C16.4393266,4.29967523 15.9952045,4.59588506 15.8937666,5.0630788 C15.8509305,5.28707109 15.8961582,5.51953509 16.0193869,5.70875045 C16.1426157,5.89796582 16.3336237,6.0282371 16.5499141,6.07058055 C17.764606,6.31710602 18.7230174,7.28700683 18.9907827,8.5407103 C19.0909619,9.00881625 19.5360654,9.30568062 19.9881269,9.20589485 C20.2049631,9.16462819 20.3966819,9.03459531 20.5201048,8.84508178 C20.6435277,8.65556825 20.688277,8.4225091 20.6442743,8.19839311 Z M7.87751914,13.337041 C6.31026402,13.6560184 5.25292923,14.9863875 5.51538822,16.3050867 C5.77784721,17.6237859 7.26261522,18.4406792 8.82987033,18.1217018 C10.3971254,17.8027244 11.4544602,16.4723553 11.1920012,15.1536561 C10.9295423,13.8349569 9.44477425,13.0180636 7.87751914,13.337041 Z"/>
</svg>
