<svg width="24" height="24" viewBox="0 0 24 24" fill="none" xmlns="http://www.w3.org/2000/svg">
<path fill-rule="evenodd" clip-rule="evenodd" d="M10.2003 9.8783H12.8001V11.1733C13.1746 10.4285 14.135 9.7593 15.5777 9.7593C18.3434 9.7593 19 11.2419 19 13.9621V19H16.2V14.5816C16.2 13.0325 15.8255 12.1589 14.8721 12.1589C13.5498 12.1589 13.0003 13.1004 13.0003 14.5809V19H10.2003V9.8783ZM5.399 18.881H8.199V9.7593H5.399V18.881ZM8.6001 6.785C8.6002 7.01969 8.55366 7.25206 8.46317 7.46861C8.37268 7.68516 8.24006 7.88156 8.073 8.0464C7.73448 8.38284 7.27627 8.57116 6.799 8.57C6.32257 8.56968 5.86542 8.38184 5.5264 8.0471C5.35995 7.8817 5.22777 7.68508 5.13744 7.4685C5.04711 7.25193 5.00041 7.01966 5 6.785C5 6.3111 5.189 5.8575 5.5271 5.5229C5.86582 5.18771 6.32317 4.99979 6.7997 5C7.2771 5 7.7349 5.1883 8.073 5.5229C8.4104 5.8575 8.6001 6.3111 8.6001 6.785Z" fill="white"/>
</svg>
