<svg xmlns="http://www.w3.org/2000/svg" width="24" height="24" viewBox="0 0 24 24">
  <path fill="#333" d="M19.1421687,13.4956402 C19.685147,13.4956402 20.1253012,13.0656977 20.1253012,12.5353165 C20.1253012,12.0049636 19.685147,11.5749927 19.1421687,11.5749927 C18.5991904,11.5749927 18.1590361,12.0049636 18.1590361,12.5353165 C18.1590361,13.0656977 18.5991904,13.4956402 19.1421687,13.4956402 Z M14.3421687,13.4956402 C14.885147,13.4956402 15.3253012,13.0656977 15.3253012,12.5353165 C15.3253012,12.0049636 14.885147,11.5749927 14.3421687,11.5749927 C13.7991904,11.5749927 13.3590361,12.0049636 13.3590361,12.5353165 C13.3590361,13.0656977 13.7991904,13.4956402 14.3421687,13.4956402 Z M19.6296,20.024712 C19.5067663,19.9552297 19.360106,19.9393844 19.2242602,19.979492 C18.4540916,20.2068911 17.6231133,20.3308858 16.7566265,20.3308858 C12.7562313,20.3308858 9.51325301,17.6879618 9.51325301,14.4277192 C9.51325301,11.1675048 12.7562313,8.52455257 16.7566265,8.52455257 C20.7570217,8.52455257 24,11.1675048 24,14.4277192 C24,16.2285239 23.0105928,17.840964 21.4506795,18.923729 C21.3255325,19.0106101 21.2687133,19.1642054 21.3076337,19.3092708 L21.6486072,20.5798356 C21.7507084,20.9602368 21.5491663,21.110245 21.2007614,20.9132374 L19.6296,20.024712 Z M5.77020723,15.7387588 C5.5838747,15.6845288 5.38291084,15.7087911 5.21502651,15.804541 L3.3513253,16.8674499 C2.93942169,17.1023903 2.70344096,16.9263686 2.82691084,16.476344 L3.23600964,14.9852719 C3.2917012,14.7822764 3.21154699,14.5676722 3.03652048,14.4455134 C1.17756145,13.1478901 0,11.2234013 0,9.07532649 C0,5.16774089 3.89673253,2 8.70361446,2 C13.0479904,2 16.6489446,4.58750762 17.3016578,7.97013507 C17.1499952,7.96318685 16.9972048,7.95965625 16.8433735,7.95965625 C12.4437398,7.95965625 8.87710843,10.8428589 8.87710843,14.3994744 C8.87710843,15.0028401 8.97975904,15.5868017 9.17167229,16.1405978 C9.01668434,16.1472918 8.86065542,16.150653 8.70361446,16.150653 C7.67430361,16.150653 6.68671807,16.0054181 5.77020723,15.7387588 Z M11.5951807,7.93141143 C12.2339566,7.93141143 12.7518072,7.42560326 12.7518072,6.80161878 C12.7518072,6.17766254 12.2339566,5.67182612 11.5951807,5.67182612 C10.9563759,5.67182612 10.4385542,6.17766254 10.4385542,6.80161878 C10.4385542,7.42560326 10.9563759,7.93141143 11.5951807,7.93141143 Z M5.78313253,7.93141143 C6.42190843,7.93141143 6.93975904,7.42560326 6.93975904,6.80161878 C6.93975904,6.17766254 6.42190843,5.67182612 5.78313253,5.67182612 C5.14435663,5.67182612 4.62650602,6.17766254 4.62650602,6.80161878 C4.62650602,7.42560326 5.14435663,7.93141143 5.78313253,7.93141143 Z"/>
</svg>
