<svg xmlns="http://www.w3.org/2000/svg" width="24" height="24" viewBox="0 0 24 24">
  <path fill="#333" fill-rule="evenodd" d="M24,22 L22.2003809,19.9653846 C22.0990476,19.8730769 22.095238,19.6576923 22.095238,19.2961538 L22.095238,4.96615382 C22.095238,4.57615382 22.0754285,4.36615382 22.3238095,4.11538464 L24,2 L17.7066666,2 L12.8380952,14.5384615 L7.23428573,2 L0.761904719,2 L2.89904763,5.24538464 C3.11999999,5.52307691 3.04761906,5.57923073 3.04761906,6.05384618 L3.04761906,17.0930769 C3.04761906,17.5392307 3.07733334,17.5953846 2.77333333,18.0130769 L0,22 L6.85714283,22 L4.08685711,18.0123077 C3.78285709,17.5946154 3.80952378,17.5384615 3.80952378,17.0923077 L3.80952378,6.44384618 C3.94742859,6.83461536 4.08685711,7.30769227 4.25219045,7.67076927 L10.7687619,22 L16.7619047,6.61538464 L16.7619047,19.2953846 C16.7619047,19.6576923 16.7420952,19.9 16.6780952,19.9646154 L14.8571428,22 L24,22 Z"/>
</svg>
