<svg width="24" height="24" viewBox="0 0 24 24" fill="none" xmlns="http://www.w3.org/2000/svg">
<path d="M18.2377 6.36897C17.0902 5.85147 15.8602 5.46898 14.574 5.25148C14.5625 5.24928 14.5506 5.2507 14.54 5.25554C14.5294 5.26037 14.5206 5.26839 14.5147 5.27848C14.3572 5.55523 14.1817 5.91597 14.0587 6.20097C12.6946 5.99715 11.3077 5.99715 9.94352 6.20097C9.80653 5.88512 9.65204 5.57714 9.48078 5.27848C9.47498 5.26827 9.46619 5.26007 9.45561 5.25498C9.44502 5.24988 9.43313 5.24814 9.42153 5.24998C8.13605 5.46748 6.90606 5.84997 5.75783 6.36822C5.74795 6.37236 5.73958 6.37942 5.73383 6.38847C3.39986 9.81967 2.76012 13.1661 3.07437 16.4706C3.07524 16.4787 3.07775 16.4865 3.08175 16.4936C3.08575 16.5007 3.09114 16.5069 3.09762 16.5118C4.45989 17.5036 5.97933 18.2592 7.59231 18.7468C7.60355 18.7503 7.61558 18.7503 7.62681 18.7468C7.63805 18.7433 7.64798 18.7365 7.6553 18.7273C8.0018 18.2623 8.3108 17.7711 8.57479 17.2551C8.59054 17.2251 8.57554 17.1891 8.54404 17.1771C8.05955 16.9946 7.59012 16.7744 7.14006 16.5186C7.13197 16.514 7.12516 16.5074 7.12023 16.4995C7.1153 16.4916 7.11241 16.4826 7.11181 16.4733C7.11122 16.464 7.11294 16.4547 7.11682 16.4463C7.12071 16.4378 7.12663 16.4304 7.13406 16.4248C7.22856 16.3551 7.32306 16.2823 7.41306 16.2096C7.42116 16.203 7.43092 16.1989 7.44125 16.1976C7.45157 16.1962 7.46207 16.1978 7.47156 16.2021C10.4168 17.5251 13.6065 17.5251 16.5172 16.2021C16.5267 16.1975 16.5373 16.1958 16.5478 16.197C16.5583 16.1982 16.5682 16.2023 16.5764 16.2088C16.6664 16.2823 16.7602 16.3551 16.8554 16.4248C16.8629 16.4303 16.869 16.4376 16.873 16.446C16.877 16.4544 16.8788 16.4636 16.8784 16.4729C16.8779 16.4822 16.8752 16.4912 16.8704 16.4992C16.8656 16.5072 16.8589 16.5138 16.8509 16.5186C16.4024 16.7766 15.9359 16.9948 15.4462 17.1763C15.4387 17.1791 15.4318 17.1834 15.4261 17.1889C15.4204 17.1945 15.4159 17.2013 15.413 17.2087C15.4101 17.2162 15.4088 17.2242 15.4092 17.2322C15.4096 17.2402 15.4118 17.248 15.4155 17.2551C15.6854 17.7703 15.9944 18.2608 16.3342 18.7266C16.3413 18.7361 16.3511 18.7433 16.3624 18.747C16.3736 18.7508 16.3858 18.751 16.3972 18.7476C18.0129 18.2613 19.5348 17.5054 20.8986 16.5118C20.9053 16.5072 20.9109 16.5012 20.915 16.4942C20.9191 16.4872 20.9217 16.4794 20.9226 16.4713C21.2976 12.6509 20.2941 9.33143 18.2609 6.38997C18.2559 6.38041 18.2477 6.37295 18.2377 6.36897ZM9.01504 14.4584C8.12855 14.4584 7.39731 13.6566 7.39731 12.6734C7.39731 11.6894 8.1143 10.8884 9.01504 10.8884C9.92252 10.8884 10.647 11.6961 10.6328 12.6734C10.6328 13.6574 9.91577 14.4584 9.01504 14.4584ZM14.9962 14.4584C14.109 14.4584 13.3785 13.6566 13.3785 12.6734C13.3785 11.6894 14.0947 10.8884 14.9962 10.8884C15.9037 10.8884 16.6282 11.6961 16.6139 12.6734C16.6139 13.6574 15.9044 14.4584 14.9962 14.4584Z" fill="white"/>
</svg>
