<svg width="24" height="24" viewBox="0 0 24 24" fill="none" xmlns="http://www.w3.org/2000/svg">
<path fill-rule="evenodd" clip-rule="evenodd" d="M24 12C24 18.6274 18.6274 24 12 24C5.37258 24 0 18.6274 0 12C0 5.37258 5.37258 0 12 0C18.6274 0 24 5.37258 24 12ZM13.0457 5.09985H10.0158C9.8792 5.09985 9.75699 5.18876 9.71746 5.31678L7.55372 12.1482C7.3165 12.8915 7.8772 13.6454 8.66434 13.6454H12.4419C12.6432 13.6454 12.7941 13.8339 12.7438 14.0294L11.3061 19.7158C11.2163 20.0607 11.6979 20.2528 11.8776 19.9434L16.3884 12.2051C16.7083 11.6575 16.3057 10.9711 15.6659 10.9711H11.8453C11.6296 10.9711 11.4786 10.7613 11.5505 10.5622L13.3405 5.50882C13.4123 5.30967 13.2614 5.09985 13.0457 5.09985Z" fill="#C0A46B"/>
</svg>
