<svg width="24" height="24" viewBox="0 0 24 24" fill="none" xmlns="http://www.w3.org/2000/svg">
<g id="Golden motor award">
<circle id="Ellipse 1814" cx="12" cy="12" r="12" fill="white"/>
<g id="Vector">
<path fill-rule="evenodd" clip-rule="evenodd" d="M23 12C23 18.0751 18.0751 23 12 23C5.92487 23 1 18.0751 1 12C1 5.92487 5.92487 1 12 1C18.0751 1 23 5.92487 23 12ZM12.9586 5.67487H10.1811C10.0559 5.67487 9.94391 5.75636 9.90767 5.87372L7.92424 12.1359C7.70679 12.8172 8.22077 13.5083 8.94231 13.5083H12.4051C12.5896 13.5083 12.728 13.681 12.6818 13.8603L11.3639 19.0728C11.2816 19.389 11.7231 19.565 11.8878 19.2814L16.0227 12.188C16.3159 11.686 15.9469 11.0569 15.3604 11.0569H11.8581C11.6605 11.0569 11.5221 10.8645 11.588 10.682L13.2288 6.04975C13.2946 5.8672 13.1563 5.67487 12.9586 5.67487Z" fill="#C0A46B"/>
<path d="M10.1811 5.67487H12.9586C13.1563 5.67487 13.2946 5.8672 13.2288 6.04975L11.588 10.682C11.5221 10.8645 11.6605 11.0569 11.8581 11.0569H15.3604C15.9469 11.0569 16.3159 11.686 16.0227 12.188L11.8878 19.2814C11.7231 19.565 11.2816 19.389 11.3639 19.0728L12.6818 13.8603C12.728 13.681 12.5896 13.5083 12.4051 13.5083H8.94231C8.22077 13.5083 7.70679 12.8172 7.92424 12.1359L9.90767 5.87372C9.94391 5.75636 10.0559 5.67487 10.1811 5.67487Z" fill="white"/>
</g>
</g>
</svg>
