<svg width="24" height="24" viewBox="0 0 24 24" fill="none" xmlns="http://www.w3.org/2000/svg">
<path d="M21.805 12.2303C21.805 11.5506 21.7499 10.8671 21.6323 10.1984H12.2V14.0492H17.6014C17.3773 15.2912 16.6571 16.3898 15.6025 17.088V19.5866H18.825C20.7174 17.8449 21.805 15.2728 21.805 12.2303Z" fill="#4285F4"/>
<path d="M12.2 22.0007C14.897 22.0007 17.1715 21.1151 18.8287 19.5866L15.6062 17.088C14.7096 17.6979 13.5522 18.0433 12.2037 18.0433C9.5948 18.0433 7.38278 16.2833 6.5891 13.9169H3.26373V16.4927C4.96132 19.8695 8.41897 22.0007 12.2 22.0007Z" fill="#34A853"/>
<path d="M6.58544 13.9169C6.16655 12.6749 6.16655 11.3301 6.58544 10.0881V7.51235H3.26374C1.8454 10.338 1.84539 13.667 3.26373 16.4927L6.58544 13.9169Z" fill="#FBBC04"/>
<path d="M12.2 5.95805C13.6257 5.936 15.0036 6.47247 16.0361 7.45722L18.8911 4.60218C17.0833 2.90459 14.6839 1.97128 12.2 2.00067C8.41897 2.00067 4.96133 4.13186 3.26374 7.51235L6.58544 10.0881C7.37544 7.71812 9.59112 5.95805 12.2 5.95805Z" fill="#EA4335"/>
</svg>
