<svg width="24" height="24" viewBox="0 0 24 24" fill="none" xmlns="http://www.w3.org/2000/svg">
<path d="M24 12C24 18.6274 18.6274 24 12 24C5.37258 24 0 18.6274 0 12C0 5.37258 5.37258 0 12 0C18.6274 0 24 5.37258 24 12Z" fill="white"/>
<path fill-rule="evenodd" clip-rule="evenodd" d="M12 23C18.0751 23 23 18.0751 23 12C23 5.92487 18.0751 1 12 1C5.92487 1 1 5.92487 1 12C1 18.0751 5.92487 23 12 23ZM12 24C18.6274 24 24 18.6274 24 12C24 5.37258 18.6274 0 12 0C5.37258 0 0 5.37258 0 12C0 18.6274 5.37258 24 12 24Z" fill="#EDEDED"/>
<path d="M18.5367 12.1536C18.5367 11.7004 18.4999 11.2448 18.4215 10.7989H12.1333V13.3661H15.7343C15.5849 14.1941 15.1047 14.9265 14.4017 15.392L16.55 17.0577C17.8116 15.8966 18.5367 14.1819 18.5367 12.1536Z" fill="#4285F4"/>
<path d="M12.1333 18.6671C13.9314 18.6671 15.4477 18.0768 16.5525 17.0577L14.4041 15.392C13.8064 15.7986 13.0348 16.0289 12.1358 16.0289C10.3965 16.0289 8.92186 14.8555 8.39274 13.2779L7.50005 14L6.17583 14.9951C7.30756 17.2463 9.61266 18.6671 12.1333 18.6671Z" fill="#34A853"/>
<path d="M8.3903 13.2779C8.11104 12.45 8.11104 11.5534 8.3903 10.7254L7.50011 10.0001L6.17583 9.00823C5.23028 10.892 5.23027 13.1114 6.17583 14.9951L8.3903 13.2779Z" fill="#FBBC04"/>
<path d="M12.1333 7.97203C13.0838 7.95734 14.0024 8.31498 14.6907 8.97148L16.5941 7.06812C15.3889 5.93639 13.7893 5.31419 12.1333 5.33378C9.61266 5.33378 7.30756 6.75458 6.17583 9.00823L8.3903 10.7254C8.91697 9.14541 10.3941 7.97203 12.1333 7.97203Z" fill="#EA4335"/>
</svg>
