<svg width="24" height="24" viewBox="0 0 24 24" fill="none" xmlns="http://www.w3.org/2000/svg">
<g id="Handle">
<path id="Vector" d="M21.6429 9H2.35714C2.16071 9 2 9.16071 2 9.35714V10.0714C2 10.2679 2.16071 10.4286 2.35714 10.4286H21.6429C21.8393 10.4286 22 10.2679 22 10.0714V9.35714C22 9.16071 21.8393 9 21.6429 9ZM21.6429 13.2857H2.35714C2.16071 13.2857 2 13.4464 2 13.6429V14.3571C2 14.5536 2.16071 14.7143 2.35714 14.7143H21.6429C21.8393 14.7143 22 14.5536 22 14.3571V13.6429C22 13.4464 21.8393 13.2857 21.6429 13.2857Z" fill="currentColor"/>
</g>
</svg>
