<svg width="24" height="24" viewBox="0 0 24 24" fill="none" xmlns="http://www.w3.org/2000/svg">
<path d="M12 1.37988C6.15 1.37988 1.38 6.14988 1.38 11.9999C1.38 17.8499 6.15 22.6199 12 22.6199C17.85 22.6199 22.62 17.8499 22.62 11.9999C22.62 6.14988 17.86 1.37988 12 1.37988ZM12 21.3799C6.83 21.3799 2.62 17.1699 2.62 11.9999C2.62 6.82988 6.84 2.62988 12 2.62988C17.16 2.62988 21.38 6.83988 21.38 12.0099C21.38 17.1799 17.17 21.3899 12 21.3899V21.3799Z" fill="currentColor"/>
<path d="M12 5.55988C9.79 5.55988 8 7.34988 8 9.55988C8 9.89988 8.28 10.1799 8.62 10.1799C8.96 10.1799 9.24001 9.89988 9.24001 9.55988C9.24001 8.03988 10.47 6.80988 11.99 6.80988C13.51 6.80988 14.74 8.06988 14.74 9.55988C14.74 10.6899 14.03 11.7199 12.98 12.1299C12.02 12.4999 11.37 13.4599 11.37 14.5299V15.1899C11.37 15.5299 11.65 15.8099 11.99 15.8099C12.33 15.8099 12.61 15.5299 12.61 15.1899V14.5299C12.61 13.9799 12.94 13.4799 13.42 13.2899C14.95 12.6999 15.98 11.1999 15.98 9.55988C15.98 7.38988 14.15 5.55988 11.98 5.55988H12Z" fill="currentColor"/>
<path d="M12 17.0099C11.48 17.0099 11.05 17.4299 11.05 17.9599C11.05 18.4899 11.47 18.9099 12 18.9099C12.53 18.9099 12.95 18.4899 12.95 17.9599C12.95 17.4299 12.53 17.0099 12 17.0099Z" fill="currentColor"/>
</svg>
