<svg width="24" height="24" viewBox="0 0 24 24" fill="none" xmlns="http://www.w3.org/2000/svg">
<path d="M2.25 15.75L7.40901 10.591C8.28769 9.71231 9.71231 9.71231 10.591 10.591L15.75 15.75M14.25 14.25L15.659 12.841C16.5377 11.9623 17.9623 11.9623 18.841 12.841L21.75 15.75M4.75 20.5H19.25C21.0784 20.5 21.75 19.8284 21.75 18V6C21.75 4.17157 21.0784 3.5 19.25 3.5H4.75C2.92157 3.5 2.25 4.17157 2.25 6C2.25 7.82843 2.25 18 2.25 18C2.25 18 2.25 18 2.25 18C2.25 19.8284 2.92157 20.5 4.75 20.5ZM14.25 8.25H14.2575V8.2575H14.25V8.25ZM14.625 8.25C14.625 8.45711 14.4571 8.625 14.25 8.625C14.0429 8.625 13.875 8.45711 13.875 8.25C13.875 8.04289 14.0429 7.875 14.25 7.875C14.4571 7.875 14.625 8.04289 14.625 8.25Z" stroke="currentColor" stroke-width="1.25" stroke-linecap="round" stroke-linejoin="round"/>
</svg>
