<svg width="24" height="24" viewBox="0 0 24 24" fill="none" xmlns="http://www.w3.org/2000/svg">
<rect width="24" height="24" rx="12" fill="white"/>
<path d="M12 1.62C17.7141 1.62 22.3798 6.27637 22.3799 11.9999C22.3799 17.7237 17.7239 22.3798 12 22.3798C6.2762 22.3797 1.62012 17.7237 1.62012 11.9999C1.62018 6.27611 6.27624 1.62006 12 1.62ZM10.8301 9.50964C10.0641 9.50966 9.45045 10.1236 9.4502 10.8895C9.4502 11.6593 10.0777 12.2704 10.8301 12.2704H10.9502V16.3895H10.29C9.52393 16.3896 8.91016 17.0043 8.91016 17.7704C8.91037 18.54 9.53776 19.1502 10.29 19.1503H15.6572L15.3262 18.8192C15.6283 18.5667 15.8203 18.1872 15.8203 17.7596C15.8201 16.9901 15.1926 16.3799 14.4404 16.3798H13.7002V10.8895C13.6999 10.12 13.0725 9.50975 12.3203 9.50964H10.8301ZM12.04 4.57019C10.9339 4.57023 10.04 5.46407 10.04 6.57019C10.0401 7.67622 10.934 8.57015 12.04 8.57019C13.1461 8.57019 14.0399 7.67624 14.04 6.57019C14.04 5.46405 13.1462 4.57019 12.04 4.57019Z" fill="#333333" stroke="#333333"/>
</svg>
