<svg width="24" height="24" viewBox="0 0 24 24" fill="none" xmlns="http://www.w3.org/2000/svg">
<path d="M11.6667 18.3333C15.3486 18.3333 18.3333 15.3486 18.3333 11.6667C18.3333 7.98477 15.3486 5 11.6667 5C7.98477 5 5 7.98477 5 11.6667C5 15.3486 7.98477 18.3333 11.6667 18.3333Z" stroke="currentColor" stroke-width="1.25" stroke-miterlimit="10"/>
<path d="M11.6017 8.76812C11.6017 8.73217 11.6308 8.70302 11.6667 8.70302C11.7027 8.70302 11.7318 8.73217 11.7318 8.76812C11.7318 8.80407 11.7027 8.83322 11.6667 8.83322C11.6308 8.83322 11.6017 8.80407 11.6017 8.76812Z" fill="currentColor" stroke="currentColor" stroke-width="1.7967"/>
<path d="M11.6666 15V10.8333H10.8333" stroke="currentColor" stroke-width="1.25" stroke-miterlimit="10"/>
<path d="M10.5074 14.8551H12.8262" stroke="currentColor" stroke-width="1.25" stroke-miterlimit="10"/>
</svg>
