<svg width="24" height="24" viewBox="0 0 24 24" fill="none" xmlns="http://www.w3.org/2000/svg">
<path d="M24 12C24 18.6274 18.6274 24 12 24C5.37258 24 0 18.6274 0 12C0 5.37258 5.37258 0 12 0C18.6274 0 24 5.37258 24 12Z" fill="url(#paint0_diamond_2901_714)"/>
<path d="M11.9984 9.99915C10.8967 9.99915 9.99757 10.8983 9.99757 12C9.99757 13.1017 10.8967 14.0009 11.9984 14.0009C13.1001 14.0009 13.9992 13.1017 13.9992 12C13.9992 10.8983 13.1001 9.99915 11.9984 9.99915ZM17.9993 12C17.9993 11.1714 18.0068 10.3504 17.9603 9.52333C17.9138 8.56268 17.6946 7.7101 16.9922 7.00763C16.2882 6.30365 15.4371 6.086 14.4765 6.03947C13.648 5.99294 12.8269 6.00045 11.9999 6.00045C11.1713 6.00045 10.3503 5.99294 9.52326 6.03947C8.56263 6.086 7.71007 6.30515 7.00761 7.00763C6.30365 7.7116 6.086 8.56268 6.03947 9.52333C5.99294 10.3519 6.00045 11.1729 6.00045 12C6.00045 12.8271 5.99294 13.6496 6.03947 14.4767C6.086 15.4373 6.30515 16.2899 7.00761 16.9924C7.71157 17.6963 8.56263 17.914 9.52326 17.9605C10.3518 18.0071 11.1728 17.9996 11.9999 17.9996C12.8284 17.9996 13.6495 18.0071 14.4765 17.9605C15.4371 17.914 16.2897 17.6948 16.9922 16.9924C17.6961 16.2884 17.9138 15.4373 17.9603 14.4767C18.0083 13.6496 17.9993 12.8286 17.9993 12ZM11.9984 15.0786C10.2948 15.0786 8.91986 13.7037 8.91986 12C8.91986 10.2963 10.2948 8.92142 11.9984 8.92142C13.702 8.92142 15.0769 10.2963 15.0769 12C15.0769 13.7037 13.702 15.0786 11.9984 15.0786ZM15.203 9.51432C14.8052 9.51432 14.484 9.1931 14.484 8.79533C14.484 8.39757 14.8052 8.07635 15.203 8.07635C15.6008 8.07635 15.922 8.39757 15.922 8.79533C15.9221 8.88979 15.9036 8.98333 15.8675 9.07062C15.8314 9.1579 15.7784 9.23721 15.7116 9.304C15.6449 9.37079 15.5656 9.42374 15.4783 9.45983C15.391 9.49592 15.2974 9.51444 15.203 9.51432Z" fill="white"/>
<defs>
<radialGradient id="paint0_diamond_2901_714" cx="0" cy="0" r="1" gradientUnits="userSpaceOnUse" gradientTransform="translate(13 24.5) rotate(-108.06) scale(24.1919 47.1073)">
<stop stop-color="#F8D749"/>
<stop offset="0.25" stop-color="#EE8232"/>
<stop offset="0.5" stop-color="#EA366D"/>
<stop offset="0.80999" stop-color="#C12EC0"/>
<stop offset="1" stop-color="#6E41F2"/>
</radialGradient>
</defs>
</svg>
