<svg width="24" height="24" viewBox="0 0 24 24" fill="none" xmlns="http://www.w3.org/2000/svg">
<path d="M18.9345 15.3205C19.9538 14.5019 20.8341 13.5135 21.6526 12.5097C22.116 11.9382 22.116 11.1197 21.6526 10.5483C19.4442 7.81468 16.8341 5.35908 12.0001 5.35908C11.0117 5.35908 10.1005 5.46719 9.28199 5.65252M6.53282 6.73362C4.83398 7.70659 3.53668 9.09656 2.34749 10.5637C1.88417 11.1352 1.88417 11.9537 2.34749 12.5251C4.55598 15.2587 7.16602 17.7143 12 17.7143C13.6834 17.7143 15.1042 17.4054 16.3243 16.9112M12.0002 8.44788C13.699 8.44788 15.089 9.83785 15.089 11.5367M13.9152 13.9614C13.3901 14.3784 12.726 14.6255 12.0156 14.6255C10.3168 14.6255 8.92681 13.2356 8.92681 11.5367C8.92681 10.8263 9.17391 10.1777 9.57546 9.65256M4.09263 4L19.9227 19.8301" stroke="currentColor" stroke-width="1.25" stroke-linecap="round" stroke-linejoin="round"/>
</svg>
