<svg width="24" height="24" fill="none" viewBox="0 0 24 24"  xmlns="http://www.w3.org/2000/svg">
<path d="M11.898 2L12.2555 1.34068C12.0329 1.21999 11.7645 1.21976 11.5417 1.34008L11.898 2ZM3 6.8052L2.64362 6.14528C2.40114 6.27623 2.25 6.52961 2.25 6.8052H3ZM21 6.93507H21.75C21.75 6.65994 21.5994 6.40689 21.3575 6.27575L21 6.93507ZM3 16.8052H2.25C2.25 17.0719 2.39158 17.3185 2.62186 17.4529L3 16.8052ZM11.898 22L11.5199 22.6477C11.7462 22.7798 12.0251 22.7842 12.2555 22.6593L11.898 22ZM21 17.065L21.3575 17.7243C21.5994 17.5932 21.75 17.3401 21.75 17.065H21ZM11.5417 1.34008L2.64362 6.14528L3.35638 7.46512L12.2544 2.65992L11.5417 1.34008ZM2.62507 7.45476L11.6251 12.6496L12.3749 11.3504L3.37493 6.15564L2.62507 7.45476ZM12.3678 12.6536L21.3678 7.58868L20.6322 6.28146L11.6322 11.3464L12.3678 12.6536ZM21.3575 6.27575L12.2555 1.34068L11.5405 2.65932L20.6425 7.59439L21.3575 6.27575ZM2.25 6.8052V16.8052H3.75V6.8052H2.25ZM2.62186 17.4529L11.5199 22.6477L12.2762 21.3523L3.37814 16.1575L2.62186 17.4529ZM12.2555 22.6593L21.3575 17.7243L20.6425 16.4057L11.5405 21.3407L12.2555 22.6593ZM21.75 17.065V6.93507H20.25V17.065H21.75ZM11.25 11.9924L11.1481 21.9924L12.648 22.0076L12.75 12.0076L11.25 11.9924Z" fill="currentColor"/>
<circle cx="12" cy="12" r="3.25" fill="white" stroke="currentColor" stroke-width="1.5"/>
</svg>
