<svg width="25" height="24" viewBox="0 0 25 24" fill="none" xmlns="http://www.w3.org/2000/svg">
<path d="M20.4537 11.503C20.4537 10.5921 20.4537 9.68131 20.4537 8.77049C20.4537 8.59421 20.4537 8.42379 20.4299 8.24751C20.3822 7.83617 20.1557 7.5306 19.804 7.30731C18.8445 6.70205 17.867 6.13793 16.8776 5.57969C16.0432 5.10959 15.2029 4.65712 14.3625 4.20465C13.9334 3.97547 13.5161 3.96372 13.0811 4.19289C11.1858 5.19773 9.30832 6.23195 7.50241 7.3837C7.43685 7.42483 7.37725 7.44246 7.30573 7.43071C6.94216 7.36607 6.57264 7.36607 6.20311 7.37195C6.14351 7.37195 6.07199 7.39545 6.04219 7.32494C6.01239 7.25442 6.07795 7.21916 6.11967 7.17803C6.54284 6.75494 7.05541 6.44937 7.56201 6.14381C9.15336 5.17423 10.7805 4.26928 12.4195 3.39372C12.7652 3.21156 13.1168 3.0529 13.5102 3.00589C13.9751 2.953 14.4042 3.0764 14.8035 3.28207C15.7452 3.77568 16.675 4.28691 17.5988 4.8099C18.5107 5.32701 19.4107 5.85587 20.2987 6.40824C20.9305 6.79607 21.3239 7.33669 21.449 8.06534C21.461 8.11823 21.461 8.17699 21.4669 8.22988C21.5146 10.1397 21.5086 12.0436 21.4848 13.9533C21.4848 14.3236 21.5146 14.6996 21.4252 15.0698C21.2821 15.6868 20.9424 16.1746 20.406 16.5154C19.4703 17.1148 18.5047 17.6671 17.5392 18.2136C16.6512 18.719 15.7512 19.2008 14.8512 19.6827C14.1181 20.0764 13.3791 20.1058 12.64 19.7121C10.7149 18.6955 8.81959 17.6378 6.97793 16.486C6.71568 16.3215 6.46536 16.1452 6.26271 15.9101C6.23291 15.8749 6.17927 15.8396 6.21503 15.7867C6.24483 15.7397 6.29251 15.7515 6.3402 15.7515C6.6978 15.775 7.05541 15.7456 7.41301 15.6868C7.52625 15.6692 7.62162 15.6868 7.7289 15.7456C9.18912 16.6623 10.697 17.5026 12.2109 18.3312C12.5208 18.5016 12.8307 18.6602 13.1466 18.8248C13.534 19.0304 13.9214 19.0246 14.3029 18.8248C16.1743 17.8376 18.0279 16.8092 19.8219 15.681C20.2272 15.4283 20.4358 15.0581 20.4477 14.5704C20.4775 13.542 20.4656 12.5195 20.4597 11.4912L20.4537 11.503Z" fill="#50E2C1"/>
<path d="M4.45666 12.878C4.90366 13.3246 5.42815 13.6125 6.048 13.73C6.41157 13.8006 6.78109 13.8123 7.14466 13.7183C7.30558 13.6772 7.45458 13.6008 7.57974 13.4891C7.89563 13.2071 7.86583 12.784 7.50822 12.5489C7.2281 12.3668 6.90625 12.2962 6.59037 12.2199C6.14336 12.1141 5.69039 12.0259 5.26127 11.8673C5.14803 11.8261 5.03478 11.7791 4.9275 11.7262C3.55668 11.1092 3.64012 9.46389 4.53414 8.72936C4.93942 8.39441 5.40431 8.21225 5.92284 8.14761C6.91221 8.03008 7.85391 8.17699 8.7062 8.72348C8.81944 8.794 8.92076 8.88802 9.03401 8.96441C9.10553 9.01142 9.11745 9.05255 9.05785 9.12894C8.83136 9.41688 8.61084 9.70481 8.39032 9.99863C8.33668 10.075 8.30688 10.0868 8.22343 10.0163C7.59762 9.5109 6.87645 9.2876 6.06588 9.38162C5.87516 9.40513 5.69635 9.47564 5.55331 9.61079C5.27915 9.87523 5.31491 10.2572 5.64271 10.4629C5.87516 10.6039 6.13144 10.6685 6.39369 10.7332C6.87645 10.8566 7.37114 10.9447 7.84199 11.1151C8.03271 11.1856 8.21747 11.262 8.39032 11.3619C9.05189 11.7439 9.36181 12.3726 9.27241 13.1248C9.17109 13.9769 8.7062 14.5645 7.88967 14.823C6.56057 15.2402 5.27915 15.0992 4.09905 14.3294C3.95005 14.2354 3.75336 14.1355 3.71164 13.9886C3.66992 13.8476 3.87257 13.7183 3.96197 13.5831C4.12289 13.3481 4.29573 13.1248 4.46858 12.8897L4.45666 12.878Z" fill="black"/>
<path d="M13.6056 15.0346C12.3838 14.9817 11.2513 14.4293 10.6017 13.1248C9.82093 11.55 10.3275 9.59318 11.7699 8.69411C12.9798 7.93608 14.2612 7.86556 15.5486 8.53546C16.0313 8.78813 16.377 9.1936 16.6631 9.64607C16.7108 9.72246 16.6929 9.75184 16.6154 9.7871C16.2578 9.95751 15.9002 10.1338 15.5426 10.3042C15.489 10.3277 15.4592 10.3336 15.4234 10.2748C14.9764 9.57555 14.3268 9.26999 13.5043 9.38751C12.6758 9.50504 12.1334 10.0045 11.8652 10.7743C11.5434 11.6851 11.8176 12.7252 12.5089 13.2952C13.3731 14.0121 14.7857 13.9122 15.4175 12.8604C15.4592 12.7899 15.489 12.7899 15.5545 12.8192C15.9002 12.9897 16.2519 13.1601 16.6035 13.3187C16.6989 13.3599 16.6989 13.3951 16.6512 13.4774C15.9956 14.5175 15.042 15.0228 13.6056 15.0228V15.0346Z" fill="black"/>
<path d="M21.9139 11.6734L22.5159 12.5078C22.5695 12.4784 22.5397 12.4314 22.5397 12.402C22.5397 11.0446 22.5397 9.69306 22.5397 8.33565C22.5397 8.22988 22.5635 8.20049 22.6708 8.20637C23.0702 8.21225 23.4695 8.21225 23.8688 8.20637C23.9642 8.20637 23.994 8.224 23.994 8.32977C23.994 10.4805 23.994 12.6312 23.994 14.7878C23.994 14.8935 23.9642 14.9171 23.8569 14.9171C23.4695 14.9171 23.0761 14.9171 22.6887 14.9171C22.6172 14.9171 22.5695 14.8994 22.5278 14.8348C22.3251 14.5468 22.1225 14.2648 21.9139 13.9827C21.8841 13.9416 21.8662 13.9005 21.8662 13.8476C21.8662 13.1365 21.8722 12.4255 21.8781 11.7086C21.8781 11.7027 21.8901 11.6969 21.902 11.6792L21.9139 11.6734Z" fill="black"/>
<path d="M19.3333 14.9053C18.8863 14.9053 18.4452 14.9053 17.9982 14.9053C17.9267 14.9053 17.8969 14.8877 17.9028 14.8171C17.9028 14.7819 17.9028 14.7466 17.9028 14.7114C17.9028 12.5959 17.9028 10.4805 17.9028 8.35914C17.9028 8.23574 17.9207 8.18873 18.0638 8.19461C18.469 8.20636 18.8743 8.20048 19.2737 8.19461C19.3631 8.19461 19.4167 8.22399 19.4703 8.2945C19.6372 8.53543 19.816 8.77048 19.9889 9.01141C20.0246 9.05842 20.0544 9.10543 20.0544 9.17007C20.0544 9.89872 20.0544 10.6215 20.0544 11.3737L19.3929 10.4452C19.3035 10.4746 19.3511 10.5451 19.3511 10.5921C19.3511 11.973 19.3511 13.354 19.3511 14.729C19.3511 14.7819 19.369 14.8407 19.3333 14.8877V14.9053Z" fill="black"/>
<path d="M0.999906 11.5617C0.999906 10.4922 0.999906 9.41688 0.999906 8.34741C0.999906 8.22988 1.02971 8.2005 1.14891 8.2005C1.54823 8.20638 1.94756 8.2005 2.34689 8.2005C2.43033 8.2005 2.45417 8.22401 2.45417 8.30627C2.45417 10.4746 2.45417 12.6429 2.45417 14.8054C2.45417 14.8818 2.43629 14.9053 2.35285 14.9053C1.93564 14.9053 1.52439 14.8994 1.10719 14.9053C0.987986 14.9053 0.993946 14.8465 0.993946 14.7702C0.993946 13.7771 0.993946 12.7899 0.993946 11.7968V11.5558L0.999906 11.5617Z" fill="black"/>
<path d="M19.3331 14.9053C19.3331 14.5351 19.3331 14.1708 19.3331 13.8006C19.3331 12.7193 19.3331 11.6322 19.3331 10.551C19.3331 10.5216 19.2735 10.4335 19.3867 10.457C19.3331 10.4981 19.3629 10.5569 19.3629 10.6098C19.3629 11.9966 19.3629 13.3775 19.3629 14.7643C19.3629 14.8113 19.3986 14.8759 19.3331 14.9112V14.9053Z" fill="#6F6F6F"/>
</svg>
