<svg width="20" height="20" viewBox="0 0 20 20" fill="none" xmlns="http://www.w3.org/2000/svg">
<path fill-rule="evenodd" clip-rule="evenodd" d="M6.42399 5.876C7.85199 5.004 9.61999 4.02 10.532 3.54C10.708 3.448 10.884 3.4 11.044 3.396C11.216 3.396 11.392 3.448 11.568 3.54C12.48 4.024 14.248 5.004 15.676 5.876H17.216C17.112 5.764 17 5.656 16.864 5.572C15.348 4.6 13.064 3.324 11.98 2.752C11.676 2.592 11.364 2.508 11.04 2.504C10.728 2.508 10.412 2.592 10.112 2.752C9.02799 3.324 6.74399 4.596 5.22799 5.572C5.10799 5.648 4.95199 5.756 4.79999 5.876H6.42399ZM11.148 6.992C9.42001 6.992 8.04401 8.236 8.04401 10.052C8.04401 11.872 9.41601 13.112 11.148 13.104C12.492 13.104 13.24 12.388 13.664 11.652L12.584 11.128C12.336 11.616 11.804 11.988 11.148 11.988C10.12 11.988 9.34001 11.164 9.34001 10.048C9.34001 8.932 10.12 8.108 11.148 8.108C11.804 8.108 12.336 8.488 12.584 8.968L13.664 8.436C13.248 7.7 12.496 6.992 11.148 6.992ZM1.26 7.092H0V13.004H1.26V7.092ZM3.00398 11.216C3.41998 11.652 4.06798 12.012 4.88398 12.012C5.57598 12.012 5.91198 11.684 5.91198 11.348C5.91198 10.904 5.39598 10.752 4.71598 10.596L4.6862 10.5892C3.72275 10.3704 2.50798 10.0945 2.50798 8.788C2.50798 7.804 3.35998 7.004 4.75198 7.004C5.69198 7.004 6.47198 7.288 7.05598 7.828L6.35598 8.752C5.87598 8.308 5.23998 8.104 4.66398 8.104C4.09598 8.104 3.79598 8.352 3.79598 8.708C3.79598 9.108 4.29198 9.232 4.97598 9.392C5.95198 9.612 7.19198 9.908 7.19198 11.22C7.19198 12.3 6.41998 13.116 4.82398 13.116C3.68798 13.116 2.87198 12.736 2.31598 12.176L3.00398 11.216ZM15.968 13.004V9.032L18.784 13.004H20V7.092H18.74V10.924L16 7.092H14.708V13.004H15.968ZM11.572 16.464C12.448 16 14.12 15.072 15.516 14.224V14.228H17.12C17.1042 14.2421 17.0885 14.2565 17.0727 14.271C17.0118 14.3268 16.9489 14.3844 16.876 14.432C15.36 15.408 13.076 16.68 11.992 17.252C11.692 17.412 11.38 17.496 11.064 17.5C10.74 17.496 10.428 17.412 10.124 17.252C9.03997 16.68 6.75597 15.408 5.23997 14.432C5.15597 14.376 5.04797 14.3 4.94397 14.224H6.58797C7.98397 15.072 9.65597 16 10.536 16.464C10.712 16.556 10.888 16.604 11.06 16.608C11.22 16.604 11.396 16.556 11.572 16.464Z" fill="#4A4A4A"/>
</svg>
