<svg width="24" height="24" fill="none" viewBox="0 0 24 24"  xmlns="http://www.w3.org/2000/svg">
<path d="M16.7755 19.3703C18.2002 19.3703 19.3551 16.0734 19.3551 12.0064C19.3551 7.93949 18.2002 4.64258 16.7755 4.64258C15.3508 4.64258 14.1958 7.93949 14.1958 12.0064C14.1958 16.0734 15.3508 19.3703 16.7755 19.3703Z" stroke="currentColor" stroke-width="1.2" stroke-miterlimit="10" stroke-linecap="round" stroke-linejoin="round"/>
<path d="M16.7755 4.64258C16.5434 4.64258 16.3241 4.73254 16.1177 4.89961L4.5479 9.34619C4.04487 9.34619 3.64502 10.5028 3.64502 11.9165C3.64502 13.3301 4.04487 14.4868 4.5479 14.4868L16.0919 19.0747C16.3112 19.2418 16.5434 19.3446 16.7755 19.3446C18.1943 19.3446 19.3552 16.0546 19.3552 11.9807C19.3552 7.90683 18.1943 4.64258 16.7755 4.64258Z" stroke="currentColor" stroke-width="1.2" stroke-miterlimit="10" stroke-linecap="round" stroke-linejoin="round"/>
<path d="M6.44385 15.2578V18.0337C6.44385 18.7662 7.03717 19.3703 7.78527 19.3703C8.52048 19.3703 9.1267 18.7791 9.1267 18.0337V16.3116" stroke="currentColor" stroke-width="1.2" stroke-miterlimit="10" stroke-linecap="round" stroke-linejoin="round"/>
<path d="M14.2861 10.1173H15.0471C16.0016 10.1173 16.7755 10.8884 16.7755 11.8394C16.7755 12.7904 16.0016 13.5615 15.0471 13.5615H14.2861" stroke="currentColor" stroke-width="1.2" stroke-miterlimit="10" stroke-linecap="round" stroke-linejoin="round"/>
</svg>
