<svg width="24" height="24" viewBox="0 0 24 24" fill="none" xmlns="http://www.w3.org/2000/svg">
<path d="M18.7159 3C16.9021 3 15.4318 7.02944 15.4318 12C15.4318 16.9706 16.9021 21 18.7159 21C20.5296 21 21.9999 16.9706 21.9999 12C21.9999 7.02944 20.5296 3 18.7159 3ZM18.7159 3C18.4203 3 18.1412 3.10995 17.8785 3.31414L3.14943 8.74869C2.50903 8.74869 2 10.1623 2 11.8901C2 13.6178 2.50903 15.0314 3.14943 15.0314L17.8456 20.6387C18.1248 20.8429 18.4204 20.9686 18.7159 20.9686C20.5222 20.9686 22 16.9476 22 11.9686C22 6.98953 20.5221 3 18.7159 3ZM5.56299 15.9738V19.3664C5.56299 20.2617 6.31832 20.9999 7.27071 20.9999C8.20667 20.9999 8.97842 20.2774 8.97842 19.3664V17.2617M18.469 10.0034C18.7915 10.4468 19.0017 11.1724 19.0017 11.9921C19.0017 12.8118 18.7915 13.5374 18.469 13.9809" stroke="currentColor" stroke-width="1.25" stroke-miterlimit="10" stroke-linecap="round" stroke-linejoin="round"/>
</svg>
