<svg width="24" height="24" viewBox="0 0 24 24" fill="none" xmlns="http://www.w3.org/2000/svg">
<path d="M12 23.9705C5.38242 23.9705 0 18.5947 0 11.9852C0 5.3758 5.38242 0 12 0C18.6176 0 24 5.3758 24 11.9852C24 18.5947 18.6176 23.9705 12 23.9705ZM12 1.22142C6.05809 1.22142 1.22293 6.05063 1.22293 11.9852C1.22293 17.9198 6.05809 22.749 12 22.749C17.9419 22.749 22.7771 17.9198 22.7771 11.9852C22.7771 6.05063 17.9419 1.22142 12 1.22142Z" fill="currentColor"/>
<path d="M17.7906 9.00025C17.5429 8.07044 17.1623 7.26125 16.6532 6.57267C16.1427 5.88409 15.5022 5.34056 14.7302 4.94054C13.9582 4.54205 13.0471 4.34204 12 4.34204C10.9513 4.34204 10.0418 4.54205 9.2698 4.94054C8.49783 5.34056 7.85579 5.88409 7.34674 6.57267C6.83617 7.26125 6.45706 8.07044 6.20942 9.00025C5.96178 9.93006 5.83643 10.9255 5.83643 11.9851C5.83643 13.0462 5.96025 14.0402 6.20942 14.97C6.45706 15.8998 6.83617 16.709 7.34674 17.3975C7.85732 18.0861 8.49783 18.6297 9.2698 19.0297C10.0418 19.4297 10.9513 19.6282 12 19.6282C13.0471 19.6282 13.9582 19.4282 14.7302 19.0297C15.5022 18.6297 16.1442 18.0861 16.6532 17.3975C17.1638 16.709 17.5429 15.8998 17.7906 14.97C18.0382 14.0402 18.1636 13.0462 18.1636 11.9851C18.1636 10.9255 18.0397 9.93006 17.7906 9.00025ZM7.51184 14.4738C7.31923 13.6966 7.22292 12.8661 7.22292 11.9851C7.22292 11.1042 7.31923 10.2736 7.51184 9.49645C7.70445 8.71932 8.00101 8.0399 8.40152 7.46125C8.8005 6.8826 9.3019 6.42915 9.90114 6.09784C10.5004 5.76805 11.2005 5.60164 12 5.60164C12.8132 5.60164 13.5164 5.76653 14.1095 6.09784C14.3878 6.25357 14.6446 6.43678 14.8815 6.64748L8.52381 16.6769C8.48254 16.6219 8.44127 16.567 8.40152 16.5105C8.00101 15.9303 7.70445 15.2524 7.51184 14.4738ZM16.4881 14.4738C16.2955 15.2524 15.999 15.9303 15.5985 16.509C15.198 17.0876 14.7027 17.5411 14.1095 17.8724C13.5164 18.2022 12.8132 18.3686 12 18.3686C11.2005 18.3686 10.5004 18.2037 9.90114 17.8724C9.75897 17.7945 9.62139 17.7075 9.49146 17.6159L15.7651 7.71775C16.0815 8.23686 16.323 8.82925 16.4881 9.49645C16.6808 10.2751 16.7771 11.1042 16.7771 11.9851C16.7786 12.8661 16.6808 13.6966 16.4881 14.4738Z" fill="currentColor"/>
</svg>
