<svg width="24" height="24" viewBox="0 0 24 24" fill="none" xmlns="http://www.w3.org/2000/svg">
<path d="M12 0C5.38242 0 0 5.38242 0 12C0 18.6176 5.38242 24 12 24C18.6176 24 24 18.6176 24 12C24 5.38242 18.6176 0 12 0ZM12 22.7771C6.05809 22.7771 1.22293 17.9419 1.22293 12C1.22293 10.2848 1.62803 8.66293 2.34344 7.2214L9.41197 11.4176C9.4135 11.4191 9.41656 11.4206 9.41962 11.4237L10.4591 12.0413C10.4622 12.0428 10.4652 12.0443 10.4698 12.0459L15.3447 14.9411V14.9427L16.586 15.6795C16.586 15.6795 16.586 15.6795 16.586 15.678L20.8158 18.1896C18.8637 20.961 15.6413 22.7771 12 22.7771ZM16.6685 14.3052C16.6303 13.9766 16.5508 13.6815 16.4255 13.4247C16.2436 13.0517 15.9791 12.7307 15.6321 12.4647C15.2851 12.1972 14.8601 11.9801 14.3572 11.8089C13.8543 11.6377 13.2841 11.494 12.642 11.3763C11.789 11.2143 11.1378 11.0064 10.6808 10.7511L10.5615 10.6808C10.5187 10.6548 10.4759 10.6288 10.4377 10.6013C9.98369 10.2757 9.75592 9.84611 9.75592 9.31261C9.75592 9.0665 9.80178 8.83567 9.89197 8.61707C9.98217 8.39847 10.132 8.20586 10.3414 8.04076C10.5493 7.87567 10.8229 7.74268 11.1592 7.64025C11.4955 7.53936 11.9098 7.48892 12.402 7.48892C12.8408 7.48892 13.2107 7.53172 13.5164 7.61733C13.8206 7.70293 14.0775 7.81299 14.2853 7.94599C14.4932 8.08051 14.6599 8.22115 14.7822 8.37096C14.9045 8.52076 15.0038 8.65987 15.0787 8.78828L16.3292 8.40306C16.2757 8.22115 16.1687 8.01783 16.0082 7.79312C15.8476 7.56841 15.6321 7.35134 15.3585 7.14038C15.0864 6.92943 14.7516 6.74293 14.3572 6.57936C13.9613 6.41733 13.492 6.3149 12.9462 6.27057V4.48968H11.6805V6.28433C10.5799 6.40204 9.75898 6.73223 9.22089 7.27643C8.68127 7.82064 8.41223 8.49325 8.41223 9.29274C8.41223 9.33096 8.41682 9.36764 8.41834 9.40433L2.95032 6.15898C4.87185 3.19185 8.20892 1.22293 12 1.22293C17.9419 1.22293 22.7771 6.05809 22.7771 12C22.7771 13.865 22.3001 15.6199 21.4639 17.1516L16.6685 14.3052Z" fill="currentColor"/>
<path d="M14.8677 16.0815C14.8126 16.1411 14.753 16.2007 14.6873 16.2557C14.458 16.4484 14.1584 16.5997 13.79 16.7113C13.4216 16.8229 12.9752 16.8794 12.4524 16.8794C11.8853 16.8794 11.4129 16.8107 11.0338 16.6715C10.6547 16.5324 10.3444 16.3719 10.1044 16.19C9.86437 16.0081 9.68551 15.8247 9.56781 15.6366C9.4501 15.4501 9.3645 15.308 9.31099 15.2117L8.06055 15.5969C8.12475 15.7895 8.23481 16.0142 8.38921 16.2695C8.5436 16.5263 8.76373 16.7785 9.04653 17.0262C9.32934 17.2738 9.68704 17.4955 10.1197 17.6912C10.5523 17.8868 11.0735 18.0152 11.6819 18.081V19.8924H12.9477V18.0978C14.1874 18.0229 15.1214 17.6866 15.7528 17.0889C15.8567 16.9895 15.953 16.8856 16.0402 16.777L14.8677 16.0815Z" fill="currentColor"/>
</svg>
