<svg width="24" height="24" viewBox="0 0 24 24" fill="none" xmlns="http://www.w3.org/2000/svg">
<path d="M12 24C5.38242 24 0 18.6176 0 12C0 5.38242 5.38242 0 12 0C18.6176 0 24 5.38242 24 12C24 18.6176 18.6176 24 12 24ZM12 1.22293C6.05809 1.22293 1.22293 6.05809 1.22293 12C1.22293 17.9419 6.05809 22.7771 12 22.7771C17.9419 22.7771 22.7771 17.9419 22.7771 12C22.7771 6.05809 17.9419 1.22293 12 1.22293Z" fill="currentColor"/>
<path d="M11.5293 13.9749C11.4498 14.1721 11.3229 14.377 11.1533 14.5925C10.982 14.8081 10.7634 15.0037 10.4975 15.1826C10.2315 15.3614 9.9181 15.5067 9.55733 15.6198C9.19657 15.7329 8.78689 15.7895 8.32829 15.7895C7.77491 15.7895 7.25975 15.7008 6.78281 15.5219C6.30587 15.3431 5.89313 15.0832 5.54306 14.7408C5.193 14.3984 4.91784 13.9749 4.71759 13.4689C4.51733 12.963 4.41797 12.3821 4.41797 11.7263C4.41797 11.0705 4.51733 10.4911 4.71759 9.98359C4.91784 9.47761 5.193 9.05417 5.54306 8.71175C5.89313 8.36933 6.30587 8.10946 6.78281 7.9306C7.25975 7.75175 7.77491 7.66309 8.32829 7.66309C8.78689 7.66309 9.19657 7.71965 9.55733 7.83277C9.9181 7.94589 10.2315 8.09111 10.4975 8.26996C10.7634 8.44882 10.982 8.64449 11.1533 8.86003C11.3245 9.07557 11.4498 9.28041 11.5293 9.47761L10.3492 9.81391C10.2911 9.72678 10.2101 9.6213 10.1092 9.49748C10.0068 9.37366 9.87377 9.25748 9.7102 9.14742C9.54663 9.03888 9.35096 8.9441 9.12625 8.86309C8.90001 8.7836 8.63555 8.74232 8.32829 8.74232C7.97211 8.74232 7.63275 8.80653 7.31326 8.9334C6.99224 9.06028 6.71249 9.24831 6.47249 9.49595C6.23249 9.7436 6.04294 10.0524 5.90383 10.4239C5.76472 10.7953 5.69593 11.2279 5.69593 11.7232C5.69593 12.2109 5.76472 12.6419 5.90383 13.018C6.04141 13.3925 6.23096 13.7044 6.47249 13.952C6.71249 14.1996 6.99377 14.3877 7.31326 14.5146C7.63275 14.6414 7.97211 14.7056 8.32829 14.7056C8.63402 14.7056 8.90001 14.6659 9.12625 14.5849C9.35249 14.5039 9.54663 14.4106 9.7102 14.3005C9.87377 14.192 10.0068 14.0743 10.1092 13.9505C10.2116 13.8267 10.2911 13.7212 10.3492 13.634L11.5293 13.9749Z" fill="currentColor"/>
<path d="M19.4258 13.9749C19.3463 14.1721 19.2194 14.377 19.0497 14.5925C18.8785 14.8081 18.6599 15.0037 18.3939 15.1826C18.128 15.3614 17.8146 15.5067 17.4538 15.6198C17.0931 15.7329 16.6834 15.7895 16.2248 15.7895C15.6714 15.7895 15.1562 15.7008 14.6793 15.5219C14.2024 15.3431 13.7896 15.0832 13.4395 14.7408C13.0895 14.3984 12.8143 13.9749 12.6141 13.4689C12.4138 12.963 12.3145 12.3821 12.3145 11.7263C12.3145 11.0705 12.4138 10.4911 12.6141 9.98359C12.8143 9.47761 13.0895 9.05417 13.4395 8.71175C13.7896 8.36933 14.2024 8.10946 14.6793 7.9306C15.1562 7.75175 15.6714 7.66309 16.2248 7.66309C16.6834 7.66309 17.0931 7.71965 17.4538 7.83277C17.8146 7.94589 18.128 8.09111 18.3939 8.26996C18.6599 8.44882 18.8785 8.64449 19.0497 8.86003C19.221 9.07557 19.3463 9.28041 19.4258 9.47761L18.2457 9.81697C18.1876 9.72984 18.1066 9.62436 18.0057 9.50054C17.9032 9.37672 17.7702 9.26054 17.6067 9.15047C17.4431 9.04194 17.2474 8.94716 17.0227 8.86614C16.7965 8.78665 16.532 8.74538 16.2248 8.74538C15.8686 8.74538 15.5292 8.80958 15.2097 8.93646C14.8887 9.06334 14.609 9.25137 14.369 9.49901C14.129 9.74665 13.9394 10.0554 13.8003 10.4269C13.6612 10.7984 13.5924 11.231 13.5924 11.7263C13.5924 12.2139 13.6612 12.645 13.8003 13.021C13.9379 13.3956 14.1274 13.7074 14.369 13.9551C14.609 14.2027 14.8902 14.3907 15.2097 14.5176C15.5292 14.6445 15.8686 14.7087 16.2248 14.7087C16.5305 14.7087 16.7965 14.6689 17.0227 14.5879C17.249 14.5069 17.4431 14.4137 17.6067 14.3036C17.7702 14.1951 17.9032 14.0774 18.0057 13.9535C18.1081 13.8297 18.1876 13.7242 18.2457 13.6371L19.4258 13.9749Z" fill="currentColor"/>
</svg>
