<svg width="24" height="24" viewBox="0 0 24 24" fill="none" xmlns="http://www.w3.org/2000/svg">
<path d="M12 24C5.38242 24 0 18.6176 0 12C0 5.38242 5.38242 0 12 0C18.6176 0 24 5.38242 24 12C24 18.6176 18.6176 24 12 24ZM12 1.22293C6.05809 1.22293 1.22293 6.05809 1.22293 12C1.22293 17.9419 6.05809 22.7771 12 22.7771C17.9419 22.7771 22.7771 17.9419 22.7771 12C22.7771 6.05809 17.9419 1.22293 12 1.22293Z" fill="currentColor"/>
<path d="M16.3901 8.88916H7.49023V10.1121H16.3901V8.88916Z" fill="currentColor"/>
<path d="M16.3901 13.6279H7.49023V14.8509H16.3901V13.6279Z" fill="currentColor"/>
</svg>
