<svg width="24" height="24" viewBox="0 0 24 24" fill="none" xmlns="http://www.w3.org/2000/svg">
<path d="M12 24C5.38242 24 0 18.6176 0 12C0 5.38242 5.38242 0 12 0C18.6176 0 24 5.38242 24 12C24 18.6176 18.6176 24 12 24ZM12 1.22293C6.05809 1.22293 1.22293 6.05809 1.22293 12C1.22293 17.9419 6.05809 22.7771 12 22.7771C17.9419 22.7771 22.7771 17.9419 22.7771 12C22.7771 6.05809 17.9419 1.22293 12 1.22293Z" fill="currentColor"/>
<path d="M17.5503 16.2069C17.4204 16.479 17.2201 16.7847 16.9496 17.1272C16.6775 17.4696 16.3228 17.7937 15.8841 18.0963C15.4438 18.4005 14.918 18.6528 14.305 18.853C13.6905 19.0533 12.9766 19.1542 12.1633 19.1542C11.2201 19.1542 10.3381 18.9998 9.51721 18.6895C8.69631 18.3791 7.98243 17.9205 7.37555 17.3137C6.76867 16.7068 6.28714 15.9562 5.93096 15.065C5.57479 14.1738 5.39746 13.1465 5.39746 11.9832C5.39746 10.8199 5.57479 9.79264 5.93096 8.90143C6.28561 8.01022 6.76714 7.26117 7.37555 6.65277C7.98243 6.04589 8.69631 5.58729 9.51721 5.27697C10.3381 4.96665 11.2201 4.81226 12.1633 4.81226C12.9781 4.81226 13.692 4.91315 14.305 5.1134C14.918 5.31366 15.4454 5.56589 15.8841 5.87009C16.3228 6.17429 16.679 6.49684 16.9496 6.83926C17.2217 7.18168 17.4204 7.48894 17.5503 7.75952L16.0385 8.22423C15.9345 8.06984 15.7832 7.88181 15.5829 7.66168C15.3827 7.44156 15.1274 7.23213 14.8171 7.03187C14.5068 6.83162 14.1322 6.65735 13.6935 6.50907C13.2533 6.36079 12.7442 6.28589 12.1618 6.28589C11.4892 6.28589 10.8441 6.40207 10.2234 6.63442C9.60281 6.86678 9.05708 7.2199 8.58472 7.69073C8.11237 8.16308 7.73479 8.75621 7.45045 9.47468C7.16612 10.1916 7.02396 11.0293 7.02396 11.9847C7.02396 12.9417 7.16612 13.7779 7.45045 14.4948C7.73479 15.2117 8.11237 15.8064 8.58472 16.2788C9.05555 16.7511 9.60281 17.1027 10.2234 17.3351C10.8441 17.5674 11.4892 17.6836 12.1618 17.6836C12.7427 17.6836 13.2533 17.6087 13.6935 17.4604C14.1322 17.3121 14.5083 17.1379 14.8171 16.9376C15.1274 16.7374 15.3827 16.5279 15.5829 16.3078C15.7832 16.0877 15.9345 15.9012 16.0385 15.7453L17.5503 16.2069Z" fill="currentColor"/>
</svg>
