<svg width="24" height="24" viewBox="0 0 24 24" fill="none" xmlns="http://www.w3.org/2000/svg">
<path d="M12.1567 8.68751C10.8145 8.68751 9.72461 7.59604 9.72461 6.25541C9.72461 4.91477 10.8161 3.82178 12.1567 3.82178C13.4973 3.82178 14.5888 4.91324 14.5888 6.25388C14.5888 7.59452 13.4989 8.68751 12.1567 8.68751ZM12.1567 5.04471C11.4902 5.04471 10.9475 5.58738 10.9475 6.25388C10.9475 6.92038 11.4902 7.46305 12.1567 7.46305C12.8232 7.46305 13.3659 6.92038 13.3659 6.25388C13.3659 5.58738 12.8247 5.04471 12.1567 5.04471Z" fill="currentColor"/>
<path d="M13.6545 20.4077H10.7913C10.1768 20.4077 9.67689 19.9078 9.67689 19.2933V14.9274C9.11587 14.903 8.66797 14.4398 8.66797 13.8727V9.51598C8.66797 8.46579 9.52249 7.61279 10.5712 7.61279H13.8731C14.9233 7.61279 15.7762 8.46732 15.7762 9.51598V13.8711C15.7762 14.4383 15.3284 14.9015 14.7673 14.9259V19.2933C14.7689 19.9078 14.269 20.4077 13.6545 20.4077ZM10.9013 19.1848H13.5459V14.5025C13.5459 14.0637 13.9036 13.706 14.3424 13.706H14.5548V9.51751C14.5548 9.14146 14.2491 8.83725 13.8746 8.83725H10.5727C10.1966 8.83725 9.89243 9.14298 9.89243 9.51751V13.706H10.1049C10.5436 13.706 10.9013 14.0637 10.9013 14.5025V19.1848Z" fill="currentColor"/>
<path d="M12 24C5.38242 24 0 18.6176 0 12C0 5.38242 5.38242 0 12 0C18.6176 0 24 5.38242 24 12C24 18.6176 18.6176 24 12 24ZM12 1.22293C6.05809 1.22293 1.22293 6.05809 1.22293 12C1.22293 17.9419 6.05809 22.7771 12 22.7771C17.9419 22.7771 22.7771 17.9419 22.7771 12C22.7771 6.05809 17.9419 1.22293 12 1.22293Z" fill="currentColor"/>
</svg>
