<svg width="24" height="24" viewBox="0 0 24 24" fill="none" xmlns="http://www.w3.org/2000/svg">
<path fill-rule="evenodd" clip-rule="evenodd" d="M12 24C18.6274 24 24 18.6274 24 12C24 5.37258 18.6274 0 12 0C5.37258 0 0 5.37258 0 12C0 18.6274 5.37258 24 12 24ZM8.03786 7.60955C8.0883 7.56584 8.06974 7.50854 8.05538 7.46421L8.05438 7.46112C7.98212 7.23339 7.57127 6.28383 7.46184 6.0927C7.43294 6.0195 7.35036 5.98087 7.27603 6.00933C7.27397 6.01035 7.27242 6.01086 7.27087 6.01137C7.26932 6.01188 7.26777 6.01238 7.26571 6.0134C7.16867 6.05 7.04893 6.13743 6.86311 6.29603C6.6773 6.45463 6.57613 6.56036 6.52452 6.64983C6.48323 6.71693 6.50387 6.80639 6.57201 6.84706C6.57407 6.84909 6.5782 6.85113 6.58026 6.85113C6.75782 6.98126 7.66004 7.50788 7.88095 7.60752C7.92431 7.62785 7.98212 7.65428 8.03373 7.60752L8.03786 7.60955ZM14.5351 12.0259C14.3927 12.1601 14.2399 12.2109 14.1057 12.0889C14.1016 12.0828 14.0974 12.0788 14.085 12.0686C13.9798 11.9588 13.9859 11.788 14.0974 11.6863C15.0781 10.6534 15.9865 9.4497 16.416 8.55097C16.577 8.23174 16.6988 7.89421 16.7814 7.54652C16.833 7.27609 16.7236 7.11139 16.5626 7.07682C16.449 7.05242 16.2838 7.12766 16.2116 7.33709C16.1311 7.59125 16.032 7.83728 15.9163 8.07721C15.3341 9.29923 14.498 10.3871 13.4636 11.2736C13.2943 11.422 13.1395 11.3671 13.0528 11.2736C12.9681 11.18 12.9433 11.0031 13.1126 10.8527C14.6053 9.52696 15.3816 8.11178 15.5695 7.49569C15.6459 7.24152 15.5365 7.11952 15.4456 7.09512C15.3568 7.06869 15.1008 7.06869 15.0017 7.29845C14.7829 7.80475 14.5145 8.36391 13.6639 9.3033C12.8566 10.198 11.5683 11.1983 10.8209 11.6884C10.4906 11.9059 10.1892 11.9954 9.91664 11.8368C9.56772 11.6355 9.60282 11.2004 9.63585 11.0133C9.70399 10.6331 9.90012 9.50257 10.0385 8.61197C10.1169 8.11585 9.84644 8.04671 9.70399 8.03655C9.56153 8.02638 9.41907 8.09958 9.31997 8.34358C8.93183 9.33583 8.6015 10.3505 8.33104 11.3793C8.08328 12.3736 8.12871 13.5001 8.2629 14.1019C8.34136 14.4577 8.31658 14.6143 8.27323 14.7505C8.17413 15.0047 8.05851 15.2528 7.9305 15.4927C7.89431 15.5647 7.83881 15.6722 7.77658 15.7928C7.6614 16.016 7.5229 16.2843 7.4412 16.4545C7.43707 16.4646 7.43294 16.4728 7.42881 16.4809C7.31939 16.6761 7.06957 16.7473 6.87137 16.6395C6.68349 16.5338 6.6071 16.304 6.69588 16.1088C6.85705 15.7369 7.1198 15.3245 7.35085 14.9618C7.4217 14.8506 7.48957 14.7441 7.55062 14.6448C7.59191 14.5777 7.60843 14.4984 7.59398 14.4211C7.37719 13.132 7.41642 12.0117 7.65385 11.0499C7.92005 9.97407 8.22326 9.21997 8.43405 8.69571C8.49137 8.55314 8.54186 8.42757 8.58291 8.31714C8.91118 7.43469 9.50785 7.32285 9.90012 7.37572C10.377 7.44079 10.8023 7.79458 10.7301 8.57537C10.6987 8.90707 10.5627 9.78962 10.4715 10.3816L10.4713 10.383C10.4307 10.6466 10.399 10.8526 10.3894 10.9259C10.3708 11.0784 10.5319 11.0967 10.6475 11.0215C11.3061 10.5965 12.3735 9.7791 13.1415 8.94747C13.9674 8.04671 14.2481 7.50992 14.4381 7.11342C14.7024 6.55629 15.0637 6.44446 15.4312 6.4526C15.5984 6.4587 15.7574 6.52986 15.8688 6.65389C15.8936 6.68236 15.937 6.68643 15.97 6.66609C16.1971 6.5014 16.4862 6.44243 16.7608 6.50343C17.1819 6.59086 17.535 7.08699 17.4111 7.63395C17.4021 7.67058 17.3923 7.71377 17.3817 7.75997C17.3606 7.85225 17.3368 7.95663 17.312 8.04468V8.04671C17.3037 8.07721 17.3223 8.10568 17.3533 8.11381C17.9417 8.23581 18.0614 8.74821 17.9747 9.1691C17.9087 9.4802 17.7538 9.87873 17.4111 10.4582L17.4105 10.4594L17.4097 10.462L17.409 10.4643C17.4085 10.4663 17.408 10.4684 17.407 10.4704C17.3987 10.4989 17.4152 10.5294 17.4462 10.5375C17.8901 10.6555 18.1482 11.3529 17.6568 12.1662C17.4813 12.4549 16.8392 13.437 16.3747 13.8945C15.3548 14.899 14.6363 15.5191 12.8814 16.3101C12.4561 16.5012 12.0968 16.8144 11.8491 17.2068C11.5261 17.737 11.5266 17.7438 11.527 17.7491C11.463 17.8996 11.3123 17.9998 11.1451 17.9998C11.0852 18.0018 11.0233 17.9876 10.9675 17.9611C10.7611 17.8554 10.6785 17.6073 10.7817 17.402C10.8065 17.3471 10.8808 17.2109 11.1347 16.792C11.4114 16.3304 11.8697 16.0295 12.4829 15.7164C14.2378 14.8176 15.1504 14.2707 16.0609 13.2683C16.3974 12.9002 17.2459 11.8022 17.3265 11.5054C17.376 11.3224 17.3492 11.1699 17.1881 11.1373C17.0746 11.115 16.961 11.1658 16.866 11.302C16.4325 11.8897 15.9514 12.4427 15.427 12.9551C15.2619 13.1198 15.0864 13.128 14.9769 13.0304L14.9584 13.0121C14.8613 12.9104 14.8675 12.7518 14.9708 12.6562C16.2033 11.4017 16.8268 10.3993 17.2748 9.48833C17.4441 9.14267 17.4483 8.82751 17.2604 8.75227C17.0993 8.69127 16.9507 8.77871 16.8784 8.9373C16.5378 9.6815 15.5075 11.1109 14.5351 12.0259ZM11.3185 9.62253C11.1327 9.62253 10.984 9.4741 10.982 9.29313C10.982 9.19757 11.0233 9.1081 11.0955 9.04507C12.0432 8.22158 12.4623 7.54042 12.5366 7.41639C12.8153 6.94059 13.2592 6.69049 13.7341 6.75353C13.9178 6.78403 14.0417 6.95279 14.0107 7.13376C13.9818 7.30659 13.8208 7.42859 13.6432 7.40825C13.3686 7.37165 13.1849 7.63192 13.1188 7.74375C13.0383 7.88608 12.5655 8.64857 11.5394 9.53916C11.4775 9.59406 11.399 9.62253 11.3185 9.62253ZM5.66978 15.2223C5.48397 15.2223 5.33325 15.0759 5.33325 14.8929C5.33325 14.7953 5.37661 14.7017 5.45506 14.6387C5.84527 14.3357 6.25819 14.0653 6.68969 13.8254C6.85485 13.7441 7.05718 13.8091 7.13977 13.9738C7.22235 14.1365 7.15628 14.3357 6.98905 14.4171C6.60297 14.6326 6.23341 14.8766 5.8845 15.147C5.82462 15.1979 5.74823 15.2263 5.66978 15.2263V15.2223ZM7.5736 8.14189C7.6199 8.15365 7.67505 8.16765 7.68688 8.23174C7.69721 8.30088 7.64559 8.33341 7.60636 8.35781C7.4061 8.48997 6.48116 8.98 6.2747 9.0593C6.27264 9.06032 6.27109 9.06134 6.26954 9.06235C6.26799 9.06337 6.26645 9.06439 6.26438 9.0654C6.19212 9.102 6.10541 9.07354 6.06825 9.00237C5.99805 8.85394 5.95469 8.69737 5.93611 8.53471C5.89276 8.29681 5.88037 8.15041 5.89895 8.04875C5.91134 7.97351 5.96089 7.92268 6.07237 7.92675C6.29329 7.93488 7.33177 8.08331 7.56714 8.14025L7.5736 8.14189ZM15.4786 16.0173C15.4116 16.0213 15.3905 16.0784 15.3742 16.1229L15.3733 16.1251C15.2928 16.3487 15.0327 17.3491 14.9997 17.5667C14.9749 17.6419 15.0182 17.7232 15.0967 17.7476C15.0988 17.7476 15.1003 17.7482 15.1019 17.7487C15.1034 17.7492 15.105 17.7497 15.107 17.7497C15.2701 17.7802 15.4353 17.7842 15.6005 17.7639C15.842 17.7476 15.9927 17.7273 16.0877 17.6846C16.162 17.6561 16.2013 17.5748 16.1723 17.4996C16.1703 17.4955 16.1703 17.4935 16.1682 17.4894C16.1063 17.28 15.714 16.3223 15.6005 16.1108L15.5983 16.1068C15.576 16.0648 15.5488 16.0134 15.4828 16.0173H15.4786ZM16.1045 15.6959C16.0737 15.6596 16.0347 15.6135 16.0671 15.5537C16.0942 15.5001 16.1469 15.5014 16.1915 15.5026L16.2095 15.5029C16.4511 15.5171 17.4875 15.6838 17.7001 15.7408C17.8096 15.7692 17.8385 15.8302 17.8281 15.9095C17.8158 16.0112 17.7579 16.1474 17.6444 16.3609C17.5783 16.5094 17.4875 16.6476 17.376 16.7676C17.3719 16.7696 17.3698 16.7717 17.3677 16.7737C17.3079 16.8266 17.215 16.8205 17.1613 16.7615C16.9899 16.6212 16.257 15.8851 16.1063 15.6981L16.1045 15.6959Z" fill="#28646E"/>
</svg>
