<svg width="24" height="24" viewBox="0 0 24 24" fill="none" xmlns="http://www.w3.org/2000/svg">
<path d="M16.9399 13.3287C18.518 11.4464 18.2726 8.64036 16.3918 7.06146C14.5107 5.48215 11.7068 5.72775 10.1292 7.60999C8.88304 9.09658 8.77456 11.159 9.70985 12.7383L6.02148 17.1379L6.33027 18.9786L8.19518 18.9632L8.18827 18.9713L10.0276 18.6623L10.0121 16.7959L11.8514 16.4869L11.836 14.6205L11.8604 14.5912C13.5997 15.2991 15.6682 14.8458 16.9399 13.3287ZM12.2667 11.9815C11.4293 11.2785 11.32 10.029 12.0225 9.19092C12.725 8.35288 13.9735 8.2435 14.8109 8.94654C15.6483 9.64959 15.7576 10.8991 15.0551 11.7372C14.3526 12.5752 13.1041 12.6846 12.2667 11.9815Z" fill="#C0A46B"/>
</svg>
