<svg width="24" height="24" viewBox="0 0 24 24" fill="none" xmlns="http://www.w3.org/2000/svg">
<path d="M19.1615 16.0735C15.8086 16.0735 8.5439 16.0735 6.30861 16.0735C3.51449 16.0735 2.99872 19.5941 6.86746 19.5941M19.1615 16.0735C18.0439 16.5765 18.4165 19.0912 19.1616 19.5941C17.8319 19.5941 13.901 19.5941 11.8222 19.5941M19.1615 16.0735V4.5C19.1615 3.94772 18.7143 3.5 18.1621 3.5C14.6179 3.5 8.89803 3.5 6.86746 3.5C4.07338 3.5 4.00003 5.51176 4.00003 7.52353C4.00003 8.32824 4 14.2018 4 17.89" stroke="currentColor" stroke-width="1.3" stroke-linecap="round" stroke-linejoin="round"/>
<path d="M10.9987 16.0999L10.9987 21.4999L8.99872 19.8799L6.99872 21.4999L6.99872 16.0999" stroke="currentColor" stroke-width="1.3" stroke-linecap="round" stroke-linejoin="round"/>
</svg>
