<svg width="24" height="24" viewBox="0 0 24 24" fill="none" xmlns="http://www.w3.org/2000/svg">
<path fill-rule="evenodd" clip-rule="evenodd" d="M24 12C24 18.6274 18.6274 24 12 24C5.37258 24 0 18.6274 0 12C0 5.37258 5.37258 0 12 0C18.6274 0 24 5.37258 24 12ZM18.2624 16.519C18.432 16.6887 18.7529 16.6444 18.9775 16.4199C19.0504 16.3469 19.1055 16.2622 19.1398 16.1686C19.5999 14.9231 19.4252 13.7301 18.6724 12.9772C17.8613 12.1662 16.5325 12.0304 15.205 12.6232L15.1908 12.6295L11.3666 8.80527L11.3728 8.79107C11.9657 7.4636 11.8302 6.13504 11.0189 5.32372C10.266 4.57086 9.07296 4.3962 7.82746 4.85633C7.73487 4.89075 7.64765 4.94717 7.57544 5.01937C7.3509 5.24392 7.30634 5.56453 7.47631 5.73449L9.22499 7.48318C9.40979 7.66797 9.36114 8.01776 9.11581 8.26309L8.28114 9.09776C8.03619 9.34272 7.68631 9.39203 7.50123 9.20695L5.75282 7.45854C5.58371 7.28943 5.26301 7.33466 5.03847 7.5592C4.96438 7.63329 4.90701 7.7226 4.87194 7.81756C4.42801 9.02633 4.58535 10.1968 5.29214 10.9489C6.08241 11.7898 7.46241 11.9481 8.80731 11.3515L8.82151 11.3453L12.6511 15.1749L12.6449 15.1891C12.0487 16.5336 12.2066 17.9133 13.0478 18.7039C13.7996 19.411 14.9704 19.568 16.1792 19.1241C16.2738 19.0894 16.3635 19.0316 16.4376 18.9575C16.6621 18.733 16.7076 18.4126 16.5382 18.2432L14.7898 16.4948C14.605 16.31 14.6537 15.9602 14.899 15.7149L15.734 14.8798C15.979 14.6349 16.3289 14.5855 16.514 14.7706L18.2624 16.519Z" fill="#DC752B"/>
</svg>
