<svg width="24" height="24" viewBox="0 0 24 24" fill="none" xmlns="http://www.w3.org/2000/svg">
<g id="Matters Architect">
<circle id="Ellipse 1814" cx="12" cy="12" r="12" fill="white"/>
<path id="Vector" fill-rule="evenodd" clip-rule="evenodd" d="M23 12C23 18.0751 18.0751 23 12 23C5.92487 23 1 18.0751 1 12C1 5.92487 5.92487 1 12 1C18.0751 1 23 5.92487 23 12ZM17.7405 16.1424C17.896 16.2979 18.1902 16.2573 18.396 16.0515C18.4629 15.9846 18.5134 15.9069 18.5448 15.8212C18.9666 14.6795 18.8065 13.5858 18.1163 12.8957C17.3729 12.1523 16.1548 12.0278 14.9379 12.5712L14.9249 12.5769L11.4194 9.07141L11.4251 9.0584C11.9686 7.84155 11.8443 6.6237 11.1006 5.87999C10.4105 5.18987 9.31688 5.02977 8.17517 5.45155C8.0903 5.4831 8.01034 5.53482 7.94416 5.60101C7.73833 5.80684 7.69748 6.10073 7.85328 6.25653L9.45625 7.8595C9.62564 8.02889 9.58105 8.34953 9.35616 8.57442L8.59105 9.33953C8.3665 9.56407 8.04578 9.60927 7.87612 9.43962L6.27342 7.83691C6.1184 7.6819 5.82443 7.72335 5.6186 7.92918C5.55068 7.9971 5.49809 8.07896 5.46594 8.16601C5.059 9.27405 5.20323 10.3469 5.85113 11.0364C6.57554 11.8073 7.84054 11.9523 9.07337 11.4054L9.08638 11.3997L12.5969 14.9102L12.5912 14.9232C12.0446 16.1557 12.1894 17.4204 12.9605 18.1451C13.6496 18.7934 14.7229 18.9372 15.8309 18.5303C15.9176 18.4985 15.9998 18.4456 16.0678 18.3777C16.2736 18.1718 16.3153 17.8781 16.16 17.7228L14.5573 16.1201C14.3879 15.9507 14.4325 15.6301 14.6574 15.4052L15.4229 14.6397C15.6474 14.4152 15.9681 14.37 16.1378 14.5397L17.7405 16.1424Z" fill="#DC752B"/>
</g>
</svg>
