<svg width="25" height="24" viewBox="0 0 25 24" fill="none" xmlns="http://www.w3.org/2000/svg">
<g id="Money">
<path id="Vector" d="M12.5 5.3333V7M12.5 18.6666L12.5 17M9.16667 15.5353L10.1432 16.2677C10.794 16.7559 11.647 16.9999 12.5 17M15.1861 8.09844L14.7251 7.73223C14.1107 7.24411 13.3053 7.00003 12.5 7M12.5 7C11.6945 6.99997 10.8891 7.24405 10.2745 7.73223C9.04555 8.70854 9.04555 10.2915 10.2745 11.2678C10.8891 11.756 11.6944 12 12.4999 12C13.353 11.9999 14.2061 12.244 14.8571 12.7322C16.1588 13.7085 16.1588 15.2914 14.8571 16.2677C14.2062 16.7559 13.3531 17 12.5 17M22.5 12C22.5 17.5228 18.0228 22 12.5 22C6.97715 22 2.5 17.5228 2.5 12C2.5 6.47712 6.97715 1.99997 12.5 1.99997C18.0228 1.99997 22.5 6.47712 22.5 12Z" stroke="currentColor" stroke-width="1.25" stroke-linecap="round" stroke-linejoin="round"/>
</g>
</svg>
