<svg width="24" height="24" viewBox="0 0 24 24" fill="none" xmlns="http://www.w3.org/2000/svg">
<path d="M12 5.33333V7.00003M12 18.6667L12 17M8.66667 15.5353L9.64319 16.2678C10.294 16.7559 11.147 17 12 17M14.6861 8.09847L14.2251 7.73226C13.6107 7.24414 12.8053 7.00006 12 7.00003M12 7.00003C11.1945 7 10.3891 7.24408 9.77455 7.73226C8.54555 8.70857 8.54555 10.2915 9.77455 11.2678C10.3891 11.756 11.1944 12 11.9999 12C12.853 12 13.7061 12.244 14.3571 12.7322C15.6588 13.7085 15.6588 15.2915 14.3571 16.2678C13.7062 16.7559 12.8531 17 12 17M22 12C22 17.5228 17.5228 22 12 22C6.47715 22 2 17.5228 2 12C2 6.47715 6.47715 2 12 2C17.5228 2 22 6.47715 22 12Z" stroke="currentColor" stroke-width="1.25" stroke-linecap="round" stroke-linejoin="round"/>
</svg>
