<svg width="24" height="24" viewBox="0 0 24 24" fill="none" xmlns="http://www.w3.org/2000/svg">
<path d="M3.83716 5.72973L4.306 5.09838C4.79995 4.42378 5.82972 4 6.95158 4H12.0334C13.1637 4 14.1934 4.43243 14.6874 5.11568L15.1395 5.72973M14.2354 17.5249L16.2949 15.2676C16.814 14.7054 16.814 13.8233 16.2949 13.2525L14.2354 10.9952M16.5463 14.2556H7.18628M3 7.80378H18.4967C19.8781 7.80378 21 9.04919 21 10.58V17.7238C21 19.2546 19.8781 20.5 18.4967 20.5H5.50326C4.12186 20.5 3 19.2546 3 17.7238V7.80378Z" stroke="currentColor" stroke-width="1.25" stroke-linecap="round" stroke-linejoin="round"/>
</svg>
