<svg width="24" height="24" viewBox="0 0 24 24" fill="none" xmlns="http://www.w3.org/2000/svg">
<path d="M4 8.24621V18C4 19.1046 4.89543 20 6 20H18C19.1046 20 20 19.1046 20 18V9.62791C20 8.52334 19.1046 7.62791 18 7.62791H15.0624C14.2239 7.62791 13.4744 7.10486 13.1852 6.31783L12.8148 5.31008C12.5256 4.52305 11.7761 4 10.9376 4H6.56155C5.64382 4 4.84385 4.62459 4.62127 5.51493L4.05971 7.76114C4.02005 7.91978 4 8.08269 4 8.24621Z" stroke="currentColor" stroke-width="1.8" stroke-linecap="round" stroke-linejoin="round"/>
<path d="M14.5 7.5H4" stroke="currentColor" stroke-width="1.8"/>
<path d="M13.8119 16.3889L15.7773 13.8077L13.8119 11.2266" stroke="currentColor" stroke-width="1.5" stroke-linecap="round" stroke-linejoin="round"/>
<path d="M15.7743 13.8086L8 13.8086" stroke="currentColor" stroke-width="1.5" stroke-linecap="round"/>
</svg>
