<svg width="24" height="24" viewBox="0 0 24 24" fill="none" xmlns="http://www.w3.org/2000/svg">
<path d="M19 6.27736V14.2222C19 17.81 17.81 19 14.2222 19H6.27736C6.79173 20.1773 7.96646 21 9.33333 21H14.2222C19.0632 21 21 19.0632 21 14.2222V9.33333C21 7.96645 20.1773 6.79173 19 6.27736Z" fill="currentColor"/>
<path d="M5.83333 17.5C3.99238 17.5 2.5 16.0076 2.5 14.1667V5.83333C2.5 3.99238 3.99238 2.5 5.83333 2.5H14.1667C16.0076 2.5 17.5 3.99238 17.5 5.83333V14.1667C17.5 16.0076 16.0076 17.5 14.1667 17.5H5.83333Z" fill="currentColor"/>
</svg>
