<svg width="24" height="24" fill="none" viewBox="0 0 24 24"  xmlns="http://www.w3.org/2000/svg">
<path fill-rule="evenodd" clip-rule="evenodd" d="M18.7425 2C18.7425 1.71035 18.574 1.44716 18.3109 1.32594C18.0478 1.20472 17.7383 1.24762 17.5181 1.43582L9.92635 7.92449H5.0003C4.59041 7.92449 4.25813 8.25677 4.25813 8.66666V15.3333C4.25813 15.7432 4.59041 16.0755 5.0003 16.0755H7.54617V14.5912H5.74248V9.40884H10.2003C10.3771 9.40884 10.5481 9.34572 10.6825 9.23084L17.2581 3.61066V5.23118H18.7425V2ZM17.2581 20.3893V10.7523H18.7425V22C18.7425 22.2896 18.574 22.5528 18.3109 22.6741C18.0478 22.7953 17.7383 22.7524 17.5181 22.5642L11.687 17.5804V15.6277L17.2581 20.3893ZM21.4786 5.58907C21.7768 5.30783 21.7905 4.83812 21.5093 4.53992C21.2281 4.24173 20.7583 4.22799 20.4601 4.50922L4.29399 19.756C3.9958 20.0372 3.98205 20.507 4.26329 20.8051C4.54452 21.1033 5.01424 21.1171 5.31243 20.8359L21.4786 5.58907Z" fill="currentColor"/>
</svg>
