<svg width="24" height="24" viewBox="0 0 24 24" fill="none" xmlns="http://www.w3.org/2000/svg">
<path fill-rule="evenodd" clip-rule="evenodd" d="M19.0635 14.0787C19.071 14.7831 19.3016 15.4721 19.7182 16.054L19.7405 16.0463C20.105 16.567 20.0604 17.1718 19.7628 17.6235C19.4801 18.06 18.9668 18.3432 18.394 18.3432H5.60601C5.03319 18.3432 4.51988 18.06 4.23719 17.6235C3.93963 17.1718 3.89499 16.5593 4.25951 16.0463C4.67611 15.4721 4.90672 14.7831 4.91416 14.0787C4.91416 13.9226 4.90879 13.7277 4.90261 13.5036C4.90152 13.464 4.9004 13.4234 4.89928 13.3819L4.89816 13.3489C4.85333 12.0354 4.77773 9.82025 5.36051 7.82347C5.72503 6.57549 6.34993 5.35814 7.42861 4.4547C8.51473 3.5436 10.0026 3 11.9888 3C13.9751 3 15.4629 3.5436 16.5491 4.4547C17.6278 5.3658 18.2526 6.58315 18.6172 7.82347C19.2 9.82025 19.1244 12.0354 19.0795 13.3489L19.0784 13.3819C19.0773 13.4234 19.0762 13.4639 19.0751 13.5036C19.0689 13.7277 19.0635 13.9225 19.0635 14.0787ZM15.5299 13.1523C15.7977 13.1523 16.0581 12.9991 16.192 12.7388V12.7312C16.2441 12.6393 16.6532 11.7741 16.5416 10.2199C16.4375 8.66567 15.9093 7.86941 15.8498 7.78519C15.6117 7.44831 15.1579 7.37175 14.8232 7.6091C14.4884 7.84644 14.4066 8.32113 14.6298 8.66567C14.6298 8.66629 14.6321 8.67043 14.6363 8.67811C14.6846 8.76523 14.9854 9.30754 15.0538 10.3347C15.1282 11.4296 14.8752 12.0191 14.8604 12.0498C14.6818 12.4173 14.8232 12.8766 15.1877 13.068C15.2993 13.1216 15.4183 13.1523 15.5299 13.1523ZM11.8476 21C10.873 21 10.0845 20.6937 9.50422 20.0966C9.31824 19.9051 9.18433 19.6984 9.06531 19.4917H14.7563C14.2356 20.2956 13.328 21 11.8476 21Z" fill="currentColor"/>
</svg>
