<svg width="24" height="24" viewBox="0 0 24 24" fill="none" xmlns="http://www.w3.org/2000/svg">
<path d="M14.68 1.87012H9.29999C5.20999 1.87012 1.87 5.21012 1.87 9.31012V14.6901C1.87 18.7901 5.21 22.1301 9.31 22.1301H14.69C18.79 22.1301 22.13 18.7901 22.13 14.6901V9.31012C22.13 5.21012 18.79 1.87012 14.69 1.87012H14.68ZM16.99 12.6201H12.61V17.0001C12.61 17.3401 12.33 17.6201 11.99 17.6201C11.65 17.6201 11.37 17.3401 11.37 17.0001V12.6201H6.99C6.64 12.6201 6.37 12.3401 6.37 12.0001C6.37 11.6601 6.64999 11.3801 6.99 11.3801H11.37V7.00012C11.37 6.66012 11.65 6.38012 11.99 6.38012C12.33 6.38012 12.61 6.66012 12.61 7.00012V11.3801H16.99C17.34 11.3801 17.61 11.6601 17.61 12.0001C17.61 12.3401 17.33 12.6201 16.99 12.6201Z" fill="currentColor"/>
</svg>
