<svg width="24" height="24" viewBox="0 0 24 24" fill="none" xmlns="http://www.w3.org/2000/svg">
<path d="M21.7172 11.1859L13.5146 4.5355C13.0873 4.18815 12.5532 4 11.9962 4C11.4392 4 10.905 4.18815 10.4777 4.5355L2.2675 11.1859C1.94702 11.4464 1.90887 11.9023 2.18356 12.2062C2.45826 12.5102 2.93897 12.5464 3.25944 12.2858L4.77025 11.0629V17.6264C4.77025 17.9376 4.83129 18.2343 4.95338 18.531C5.07546 18.8204 5.25096 19.081 5.47987 19.2981C5.70878 19.5224 5.97584 19.6961 6.27343 19.8191C6.57101 19.9421 6.89149 20 7.21196 20H16.788C17.1161 20 17.429 19.9349 17.7266 19.8191C18.0242 19.6961 18.2912 19.5224 18.5201 19.2981C18.7414 19.0737 18.9245 18.8132 19.0466 18.5237C19.1687 18.2343 19.2297 17.9303 19.2297 17.6264V11.0629L20.7406 12.2858C21.061 12.5464 21.5417 12.5102 21.8164 12.2062C22.0911 11.9023 22.053 11.4464 21.7325 11.1859H21.7172ZM14.621 16.1429C14.5295 16.237 13.6596 17.0475 11.9962 17.0475C10.3328 17.0475 9.46291 16.237 9.37135 16.1429C9.08139 15.8535 9.08902 15.3976 9.39424 15.1226C9.69182 14.8476 10.1725 14.8548 10.4625 15.137C10.493 15.166 10.9966 15.6074 11.9962 15.6074C12.9958 15.6074 13.507 15.1588 13.5299 15.137C13.8275 14.8621 14.3082 14.8621 14.6058 15.137C14.9033 15.412 14.911 15.8607 14.621 16.1429Z" fill="currentColor"/>
</svg>
