<svg width="24" height="24" viewBox="0 0 24 24" fill="none" xmlns="http://www.w3.org/2000/svg">
<path d="M14.755 19.815H9.24502C8.79502 19.815 8.40502 20.105 8.27502 20.525C8.13502 20.945 8.28502 21.405 8.64502 21.665C9.49502 22.275 10.715 22.625 12.005 22.625C13.295 22.625 14.515 22.275 15.365 21.665C15.725 21.405 15.875 20.945 15.735 20.525C15.595 20.095 15.205 19.815 14.755 19.815Z" fill="currentColor"/>
<path d="M22.005 14.835L21.255 13.975C20.605 13.225 20.255 12.345 20.255 11.415V8.445C20.255 4.545 16.555 1.375 11.995 1.375C7.43502 1.375 3.74502 4.545 3.74502 8.445V11.415C3.74502 12.335 3.39502 13.225 2.74502 13.975L1.99502 14.835C1.37502 15.545 1.22502 16.475 1.60502 17.305C2.04502 18.265 3.09502 18.895 4.27502 18.895H19.725C20.905 18.895 21.955 18.275 22.395 17.305C22.775 16.475 22.625 15.545 22.005 14.835ZM17.355 8.805C17.295 8.825 17.225 8.835 17.165 8.835C16.905 8.835 16.655 8.665 16.575 8.405C16.075 6.875 14.865 5.695 13.325 5.235C12.995 5.135 12.805 4.785 12.905 4.455C13.005 4.125 13.355 3.935 13.685 4.035C15.615 4.605 17.135 6.095 17.765 8.015C17.875 8.345 17.695 8.695 17.365 8.805H17.355Z" fill="currentColor"/>
</svg>
