<svg width="24" height="25" viewBox="0 0 24 25" fill="none" xmlns="http://www.w3.org/2000/svg">
<rect x="1" y="2.74219" width="15.6444" height="20" rx="1.5" stroke="#333333" stroke-width="1.5" stroke-miterlimit="10"/>
<path d="M18.1113 4.74219H19.0669C19.6192 4.74219 20.0669 5.1899 20.0669 5.74219V19.7422C20.0669 20.2945 19.6192 20.7422 19.0669 20.7422H18.1113" stroke="#333333" stroke-width="1.5" stroke-miterlimit="10"/>
<path d="M21.5332 6.74219H22.4999C22.776 6.74219 22.9999 6.96605 22.9999 7.24219V18.2422C22.9999 18.5183 22.776 18.7422 22.4999 18.7422H21.5332" stroke="#333333" stroke-width="1.5" stroke-miterlimit="10"/>
<path fill-rule="evenodd" clip-rule="evenodd" d="M8.08889 15.7422C8.08889 16.0183 8.31275 16.2422 8.58889 16.2422H9.05556C9.3317 16.2422 9.55556 16.0183 9.55556 15.7422V13.4922H11.7443C12.0205 13.4922 12.2443 13.2683 12.2443 12.9922V12.4922C12.2443 12.216 12.0205 11.9922 11.7443 11.9922H9.55556V9.74219C9.55556 9.46605 9.3317 9.24219 9.05556 9.24219H8.58889C8.31275 9.24219 8.08889 9.46605 8.08889 9.74219V11.9922H5.8999C5.62376 11.9922 5.3999 12.216 5.3999 12.4922V12.9922C5.3999 13.2683 5.62376 13.4922 5.8999 13.4922H8.08889V15.7422Z" fill="#333333"/>
</svg>
