<svg width="24" height="24" viewBox="0 0 24 24" fill="none" xmlns="http://www.w3.org/2000/svg">
<path fill-rule="evenodd" clip-rule="evenodd" d="M19.8181 19.7263L16.3857 15.6171C16.3857 15.6171 16.3297 15.5545 16.2977 15.5232C17.7219 14.2004 18.61 12.322 18.61 10.24C18.618 6.24821 15.3535 3 11.305 3C7.25644 3 4 6.24821 4 10.24C4 14.2318 7.26444 17.48 11.305 17.48C12.6732 17.48 13.9613 17.1043 15.0495 16.4546C15.0735 16.5094 15.1055 16.5564 15.1455 16.6033L18.578 20.7125C18.858 21.0491 19.3621 21.096 19.7061 20.8221C20.0502 20.5481 20.0982 20.055 19.8181 19.7185V19.7263ZM15.6816 12.6977C15.6416 12.7603 15.6016 12.8151 15.5696 12.8542C15.5536 12.8699 15.5376 12.8855 15.5296 12.9012L15.5136 12.9168V12.9246C15.2175 13.2456 14.7134 13.269 14.3854 12.9794C14.0574 12.6898 14.0334 12.2046 14.3214 11.8837C14.3214 11.8758 14.3454 11.8523 14.3614 11.8289C14.4014 11.7741 14.4574 11.6723 14.5214 11.5393C14.6414 11.2731 14.7615 10.8505 14.7134 10.2869C14.6734 9.71557 14.4894 9.32422 14.3374 9.07376C14.2574 8.94852 14.1854 8.86243 14.1374 8.80764C14.1134 8.78416 14.0974 8.76068 14.0894 8.75285C13.7613 8.47108 13.7133 7.9858 13.9934 7.65707C14.2734 7.32833 14.7775 7.28137 15.1215 7.55532V7.56314L15.1375 7.5788C15.1375 7.5788 15.1615 7.60228 15.1855 7.61793C15.2175 7.64924 15.2655 7.6962 15.3215 7.75099C15.4255 7.8684 15.5616 8.03276 15.6976 8.24409C15.9696 8.67458 16.2417 9.31639 16.3057 10.1617C16.3697 11.007 16.1856 11.6802 15.9856 12.1498C15.8816 12.3846 15.7776 12.5646 15.6896 12.6898L15.6816 12.6977Z" fill="currentColor"/>
</svg>
