<svg width="26" height="26" viewBox="0 0 26 26" fill="none" xmlns="http://www.w3.org/2000/svg">
<path fill-rule="evenodd" clip-rule="evenodd" d="M22.6874 12.9991C22.6874 11.5007 23.6102 10.3208 24.9971 9.50947C24.7457 8.67529 24.4158 7.87395 24.0087 7.12119C22.4532 7.52828 21.1947 6.91978 20.1363 5.85991C19.0778 4.80289 18.7536 3.54447 19.1607 1.98751C18.4079 1.58042 17.6066 1.2476 16.7724 1.00049C15.9611 2.38604 14.4941 3.30736 12.9986 3.30736C11.5016 3.30736 10.0361 2.38604 9.22331 1.00049C8.38769 1.2476 7.58921 1.58042 6.83645 1.98751C7.24354 3.54447 6.92072 4.80289 5.85942 5.85991C4.8024 6.91978 3.54398 7.52828 1.98703 7.12119C1.57993 7.87395 1.24854 8.67529 1 9.50947C2.38555 10.3208 3.30687 11.5007 3.30687 12.9991C3.30687 14.4946 2.38555 15.9616 1 16.7743C1.24997 17.6085 1.57993 18.4084 1.98703 19.1626C3.54398 18.7555 4.8024 19.0783 5.85942 20.1368C6.91787 21.1967 7.24354 22.4551 6.83645 24.0092C7.58921 24.4163 8.38912 24.7491 9.22473 24.9991C10.0361 23.6092 11.503 22.6893 13 22.6893C14.4955 22.6893 15.9625 23.6106 16.7753 24.9991C17.6094 24.7477 18.4094 24.4163 19.1635 24.0092C18.7565 22.4551 19.0793 21.1967 20.1391 20.1368C21.1976 19.0798 22.456 18.4713 24.0115 18.8755C24.4186 18.1227 24.75 17.3243 25 16.4872C23.6102 15.6745 22.6874 14.4946 22.6874 12.9991Z" stroke="currentColor" stroke-width="1.5" stroke-linecap="round" stroke-linejoin="round"/>
<path fill-rule="evenodd" clip-rule="evenodd" d="M12.9986 16.999C10.7886 16.999 8.99805 15.2087 8.99805 13.0001C8.99805 10.7904 10.7897 8.99902 12.9986 8.99902C15.2086 8.99902 16.998 10.7915 16.998 13.0001C16.998 15.2098 15.2086 16.999 12.9986 16.999Z" stroke="currentColor" stroke-width="1.5" stroke-linecap="round" stroke-linejoin="round"/>
</svg>
