<svg width="24" height="24" fill="none" viewBox="0 0 24 24"  xmlns="http://www.w3.org/2000/svg">
<path d="M5.08259 9.28706C5.42376 5.72193 8.41859 3 12 3C15.5814 3 18.5763 5.72194 18.9174 9.28709L19.3684 14C19.3684 14 19.8947 19 22 19H2C4.10526 19 4.63158 14 4.63158 14L5.08259 9.28706Z" fill="currentColor" stroke="currentColor" stroke-width="1.5" stroke-miterlimit="10"/>
<path d="M10.5 2.5C10.5 1.67157 11.1716 1 12 1C12.8284 1 13.5 1.67157 13.5 2.5V3H10.5V2.5Z" fill="currentColor"/>
<path d="M14.5 21C14.5 22.1046 13.3807 23 12 23C10.6193 23 9.5 22.1046 9.5 21" stroke="currentColor" stroke-width="1.5" stroke-miterlimit="10"/>
</svg>
