<svg width="24" height="24" viewBox="0 0 24 24" fill="none" xmlns="http://www.w3.org/2000/svg">
<path d="M15.9949 19.9001C15.6949 19.7201 15.3149 19.8201 15.1349 20.1201C14.7749 20.7201 13.6449 21.3701 11.9949 21.3701C10.3449 21.3701 9.2149 20.7201 8.8549 20.1201C8.6749 19.8201 8.2949 19.7201 7.9949 19.9001C7.6949 20.0801 7.6049 20.4601 7.7749 20.7601C8.4449 21.8901 10.1049 22.6301 11.9849 22.6301C13.8649 22.6301 15.5249 21.9001 16.1949 20.7601C16.3749 20.4601 16.2749 20.0801 15.9749 19.9001H15.9949Z" fill="currentColor"/>
<path d="M22.0049 14.8301L21.2549 13.9701C20.6049 13.2201 20.2549 12.3401 20.2549 11.4101V8.44012C20.2549 4.54012 16.5549 1.37012 11.9949 1.37012C7.4349 1.37012 3.7449 4.54012 3.7449 8.44012V11.4101C3.7449 12.3301 3.3949 13.2201 2.7449 13.9701L1.9949 14.8301C1.3749 15.5401 1.2249 16.4701 1.6049 17.3001C2.0449 18.2601 3.0949 18.8901 4.2749 18.8901H19.7249C20.9049 18.8901 21.9549 18.2701 22.3949 17.3001C22.7749 16.4701 22.6249 15.5401 22.0049 14.8301ZM21.2549 16.7801C21.0149 17.3001 20.4149 17.6301 19.7249 17.6301H4.2749C3.5849 17.6301 2.9849 17.2901 2.7449 16.7801C2.5649 16.3901 2.6349 15.9901 2.9349 15.6501L3.6849 14.7901C4.5249 13.8201 4.9949 12.6201 4.9949 11.4101V8.44012C4.9949 5.23012 8.1349 2.62012 12.0049 2.62012C15.8749 2.62012 19.0149 5.23012 19.0149 8.44012V11.4101C19.0149 12.6201 19.4749 13.8201 20.3249 14.7901L21.0749 15.6501C21.3749 15.9901 21.4449 16.4001 21.2649 16.7801H21.2549Z" fill="currentColor"/>
</svg>
