<svg width="24" height="24" viewBox="0 0 24 24" fill="none" xmlns="http://www.w3.org/2000/svg">
<path fill-rule="evenodd" clip-rule="evenodd" d="M5.25 3.32141C5.11898 3.32141 4.98804 3.3557 4.8711 3.42416C4.64125 3.55872 4.5 3.80507 4.5 4.07141V17.7744C4.5 18.0626 4.66512 18.3253 4.92479 18.4502L12.5185 22.1044C12.7509 22.2162 13.0245 22.2008 13.2429 22.0635C13.4612 21.9263 13.5938 21.6865 13.5938 21.4286V18.2337H18.75C19.1642 18.2337 19.5 17.898 19.5 17.4837V4.07141C19.5 3.6572 19.1642 3.32141 18.75 3.32141H5.25023C5.25016 3.32141 5.25008 3.32141 5.25 3.32141ZM8.118 4.82141L13.2109 7.68058C13.4474 7.81333 13.5938 8.06339 13.5938 8.33457V16.7337H18V4.82141H8.118ZM6 17.303V5.35257L12.0938 8.77362V20.2353L6 17.303Z" fill="currentColor"/>
</svg>
