<svg width="24" height="24" viewBox="0 0 24 24" fill="none" xmlns="http://www.w3.org/2000/svg">
<path fill-rule="evenodd" clip-rule="evenodd" d="M12 3C10.0194 3 8.5263 3.54192 7.42965 4.45864C6.3405 5.36909 5.71129 6.59157 5.34924 7.83095C4.76388 9.83477 4.84217 12.0606 4.88725 13.3421C4.89666 13.6098 4.90463 13.8362 4.9048 14.0109C4.8944 14.6716 4.67991 15.3163 4.28592 15.8585L4.28586 15.8585L4.27992 15.8669C3.88478 16.4266 3.93707 17.0922 4.25533 17.5765C4.56311 18.0449 5.10358 18.3382 5.70765 18.3382H8.56763C8.62472 18.6072 8.72072 18.9302 8.88362 19.2585C9.09461 19.6838 9.42327 20.1282 9.92943 20.4639C10.4387 20.8016 11.0839 21 11.8796 21C13.5187 21 14.4675 20.1632 14.9707 19.3052C15.1742 18.9584 15.3015 18.6161 15.3812 18.3382H18.2924C18.8964 18.3382 19.4369 18.0449 19.7447 17.5765C20.0629 17.0922 20.1152 16.4266 19.7201 15.8669L19.7201 15.8669L19.7141 15.8585C19.3201 15.3163 19.1056 14.6716 19.0952 14.0109C19.0954 13.8363 19.1033 13.61 19.1127 13.3424L19.1127 13.3421C19.1578 12.0606 19.2361 9.83477 18.6507 7.83095C18.2887 6.59157 17.6595 5.36909 16.5703 4.45864C15.4737 3.54192 13.9806 3 12 3ZM14.7938 16.8342C14.7891 16.8342 14.7844 16.8342 14.7797 16.8342H5.70765C5.57022 16.8342 5.49718 16.7731 5.47253 16.74C6.04112 15.9498 6.35532 15.0037 6.36907 14.0273L6.36914 14.0164C6.36914 13.7795 6.36001 13.4995 6.3498 13.1865C6.30717 11.8793 6.24573 9.99559 6.75181 8.26317C7.05787 7.21549 7.55809 6.29045 8.354 5.62513C9.1424 4.96609 10.29 4.50401 12 4.50401C13.71 4.50401 14.8576 4.96609 15.646 5.62513C16.4419 6.29045 16.9421 7.21549 17.2482 8.26317C17.7543 9.99559 17.6928 11.8793 17.6502 13.1865L17.6502 13.1865C17.64 13.4996 17.6308 13.7795 17.6308 14.0164L17.6309 14.0273C17.6447 15.0037 17.9589 15.9498 18.5275 16.74C18.5028 16.7731 18.4298 16.8342 18.2924 16.8342H14.7938ZM13.8171 18.3382C13.7872 18.4015 13.7537 18.4655 13.7164 18.5291C13.439 19.002 12.9338 19.496 11.8796 19.496C11.3286 19.496 10.967 19.3617 10.7237 19.2004C10.4773 19.0369 10.3075 18.8159 10.1884 18.5757C10.1492 18.4968 10.1161 18.4169 10.0882 18.3382H13.8171Z" fill="currentColor"/>
</svg>
