<svg width="24" height="24" viewBox="0 0 24 24" fill="none" xmlns="http://www.w3.org/2000/svg">
<path d="M21.7379 21.065L18.5779 17.785C18.3379 17.535 17.9379 17.535 17.6979 17.775C17.4579 18.015 17.4379 18.405 17.6779 18.655L20.8379 21.935C20.9579 22.065 21.1279 22.125 21.2879 22.125C21.4479 22.125 21.5979 22.065 21.7179 21.945C21.9679 21.705 21.9779 21.315 21.7379 21.065Z" fill="currentColor"/>
<path d="M10.8179 1.875C6.00789 1.875 2.08789 5.795 2.08789 10.605C2.08789 15.415 6.00789 19.335 10.8179 19.335C15.6279 19.335 19.5479 15.415 19.5479 10.605C19.5479 5.795 15.6279 1.875 10.8179 1.875ZM15.1979 14.935C15.0779 15.055 14.9179 15.115 14.7579 15.115C14.5979 15.115 14.4379 15.055 14.3179 14.935C14.0779 14.695 14.0779 14.295 14.3179 14.055C16.2179 12.155 16.2179 9.065 14.3179 7.155C14.0779 6.915 14.0779 6.515 14.3179 6.275C14.5579 6.035 14.9579 6.025 15.1979 6.275C17.5879 8.665 17.5879 12.545 15.1979 14.935Z" fill="currentColor"/>
</svg>
