<svg width="24" height="24" viewBox="0 0 24 24" fill="none" xmlns="http://www.w3.org/2000/svg">
<path fill-rule="evenodd" clip-rule="evenodd" d="M14.25 4.5H9.75C6.85051 4.5 4.5 6.85051 4.5 9.75V14.25C4.5 17.1495 6.85051 19.5 9.75 19.5H14.25C17.1495 19.5 19.5 17.1495 19.5 14.25V9.75C19.5 6.85051 17.1495 4.5 14.25 4.5ZM9.75 3C6.02208 3 3 6.02208 3 9.75V14.25C3 17.9779 6.02208 21 9.75 21H14.25C17.9779 21 21 17.9779 21 14.25V9.75C21 6.02208 17.9779 3 14.25 3H9.75ZM7.93423 12C7.93423 11.5858 8.27002 11.25 8.68423 11.25H11.25V8.87375C11.25 8.45954 11.5858 8.12375 12 8.12375C12.4142 8.12375 12.75 8.45954 12.75 8.87375V11.25H15.3158C15.73 11.25 16.0658 11.5858 16.0658 12C16.0658 12.4142 15.73 12.75 15.3158 12.75H12.75V15.5053C12.75 15.9195 12.4142 16.2553 12 16.2553C11.5858 16.2553 11.25 15.9195 11.25 15.5053V12.75H8.68423C8.27002 12.75 7.93423 12.4142 7.93423 12Z" fill="currentColor"/>
</svg>
