<svg width="24" height="24" viewBox="0 0 24 24" fill="none" xmlns="http://www.w3.org/2000/svg">
<path fill-rule="evenodd" clip-rule="evenodd" d="M5.6 10.2391C5.6 7.09504 8.16591 4.56521 11.3074 4.56521C14.4489 4.56521 17.0148 7.09504 17.0148 10.2391C17.0148 13.3832 14.4489 15.913 11.3074 15.913C8.16591 15.913 5.6 13.3832 5.6 10.2391ZM11.3074 3C7.26103 3 4 6.25152 4 10.2391C4 14.2267 7.26103 17.4782 11.3074 17.4782C12.6787 17.4782 13.9597 17.1048 15.0542 16.4559C15.0804 16.5075 15.1128 16.5571 15.1517 16.6037L18.5802 20.7124C18.8596 21.0472 19.3636 21.097 19.7059 20.8237C20.0481 20.5504 20.0991 20.0574 19.8197 19.7225L16.3911 15.6139C16.3636 15.5809 16.3339 15.5506 16.3023 15.5232C17.7267 14.2006 18.6148 12.3201 18.6148 10.2391C18.6148 6.25152 15.3538 3 11.3074 3Z" fill="currentColor"/>
</svg>
