<svg width="24" height="24" viewBox="0 0 24 24" fill="none" xmlns="http://www.w3.org/2000/svg">
<path d="M10.8179 1.875C6.00789 1.875 2.08789 5.795 2.08789 10.605C2.08789 15.415 6.00789 19.335 10.8179 19.335C15.6279 19.335 19.5479 15.415 19.5479 10.605C19.5479 5.795 15.6279 1.875 10.8179 1.875ZM10.8179 18.085C6.69789 18.085 3.33789 14.725 3.33789 10.605C3.33789 6.485 6.69789 3.125 10.8179 3.125C14.9379 3.125 18.2979 6.485 18.2979 10.605C18.2979 14.725 14.9379 18.085 10.8179 18.085Z" fill="currentColor"/>
<path d="M21.7379 21.065L18.5779 17.785C18.3379 17.535 17.9379 17.535 17.6979 17.775C17.4579 18.015 17.4379 18.405 17.6779 18.655L20.8379 21.935C20.9579 22.065 21.1279 22.125 21.2879 22.125C21.4479 22.125 21.5979 22.065 21.7179 21.945C21.9679 21.705 21.9779 21.315 21.7379 21.065Z" fill="currentColor"/>
</svg>
