<svg width="24" height="24" viewBox="0 0 24 24" fill="none" xmlns="http://www.w3.org/2000/svg">
<path fill-rule="evenodd" clip-rule="evenodd" d="M12 21C16.968 21 21 16.968 21 12C21 7.032 16.968 3 12 3C7.032 3 3 7.032 3 12C3 16.968 7.032 21 12 21ZM12.0504 8.976C12.0504 9.6888 11.4744 10.2648 10.7616 10.2648C10.0488 10.2648 9.4728 9.6888 9.4728 8.976C9.4728 8.2632 10.0488 7.6872 10.7616 7.6872C11.4744 7.6872 12.0504 8.2632 12.0504 8.976ZM18.048 8.976C18.048 9.6888 17.472 10.2648 16.7592 10.2648C16.0464 10.2648 15.4704 9.6888 15.4704 8.976C15.4704 8.2632 16.0464 7.6872 16.7592 7.6872C17.472 7.6872 18.048 8.2632 18.048 8.976Z" fill="currentColor"/>
</svg>
