<svg width="24" height="24" viewBox="0 0 24 24" fill="none" xmlns="http://www.w3.org/2000/svg">
<path fill-rule="evenodd" clip-rule="evenodd" d="M5.45455 7.45455C5.45455 6.34998 6.34998 5.45455 7.45455 5.45455H13.8182C14.9228 5.45455 15.8182 6.34998 15.8182 7.45455V16.5455C15.8182 17.65 14.9228 18.5455 13.8182 18.5455H7.45455C6.34998 18.5455 5.45455 17.65 5.45455 16.5455V7.45455ZM7.45455 4C5.54665 4 4 5.54665 4 7.45455V16.5455C4 18.4533 5.54665 20 7.45455 20H13.8182C14.9402 20 15.9373 19.4651 16.5684 18.6363C17.4763 18.6303 18.3457 18.267 18.9882 17.6246C19.636 16.9767 20 16.098 20 15.1818V8.59091C20 7.67471 19.636 6.79603 18.9882 6.14817C18.3403 5.50032 17.4617 5.13636 16.5455 5.13636C16.4934 5.13636 16.4427 5.14183 16.3937 5.15222C15.7611 4.44507 14.8416 4 13.8182 4H7.45455ZM17.1895 6.69745C17.244 6.9411 17.2727 7.19447 17.2727 7.45455V16.5455C17.2727 16.7201 17.2598 16.8916 17.2348 17.0593C17.5046 16.9602 17.7525 16.8032 17.9597 16.596C18.3347 16.221 18.5455 15.7123 18.5455 15.1818V8.59091C18.5455 8.06047 18.3347 7.55176 17.9597 7.17669C17.741 6.95801 17.4769 6.7952 17.1895 6.69745ZM7.63636 12C7.63636 11.5983 7.96197 11.2727 8.36364 11.2727H9.90909V9.72727C9.90909 9.32561 10.2347 9 10.6364 9C11.038 9 11.3636 9.32561 11.3636 9.72727V11.2727H12.9091C13.3108 11.2727 13.6364 11.5983 13.6364 12C13.6364 12.4017 13.3108 12.7273 12.9091 12.7273H11.3636V14.2727C11.3636 14.6744 11.038 15 10.6364 15C10.2347 15 9.90909 14.6744 9.90909 14.2727V12.7273H8.36364C7.96197 12.7273 7.63636 12.4017 7.63636 12Z" fill="currentColor"/>
</svg>
