<svg width="24" height="24" viewBox="0 0 24 24" fill="none" xmlns="http://www.w3.org/2000/svg">
<path d="M4.6875 4.07153V17.7745C4.6875 17.9907 4.81134 18.1877 5.00609 18.2814L12.5998 21.9355C12.7741 22.0194 12.9793 22.0079 13.1431 21.9049C13.3069 21.802 13.4062 21.6221 13.4062 21.4287V18.0464H13.41V9.16984C13.41 8.88764 13.2516 8.62932 13 8.50137L8.65991 6.29345C8.29072 6.10564 8.14369 5.6541 8.3315 5.28491C8.51932 4.91572 8.97086 4.76869 9.34004 4.9565L13.6802 7.16442C14.4348 7.54829 14.91 8.32323 14.91 9.16984V18.0464H18.7501C19.0607 18.0464 19.3126 17.7945 19.3126 17.4839V4.07153C19.3126 3.76087 19.0607 3.50903 18.7501 3.50903H5.25005C5.16064 3.50903 5.07518 3.53012 4.99906 3.56811C4.98783 3.57371 4.97674 3.5797 4.96582 3.5861C4.8968 3.6265 4.83844 3.68034 4.79326 3.74321C4.77618 3.76696 4.76087 3.79217 4.74754 3.81866C4.70869 3.89585 4.6875 3.98219 4.6875 4.07153Z" fill="currentColor"/>
</svg>
