<svg width="32" height="32" viewBox="0 0 32 32" fill="none" xmlns="http://www.w3.org/2000/svg">
<path fill-rule="evenodd" clip-rule="evenodd" d="M16 26C21.5228 26 26 21.5228 26 16C26 10.4772 21.5228 6 16 6C10.4772 6 6 10.4772 6 16C6 21.5228 10.4772 26 16 26ZM16 28C22.6274 28 28 22.6274 28 16C28 9.37258 22.6274 4 16 4C9.37258 4 4 9.37258 4 16C4 22.6274 9.37258 28 16 28ZM12 16C12 16.9468 11.2325 17.7143 10.2857 17.7143C9.33892 17.7143 8.57141 16.9468 8.57141 16C8.57141 15.0532 9.33892 14.2857 10.2857 14.2857C11.2325 14.2857 12 15.0532 12 16ZM18.2857 17.7143C19.2325 17.7143 20 16.9468 20 16C20 15.0532 19.2325 14.2857 18.2857 14.2857C17.3389 14.2857 16.5714 15.0532 16.5714 16C16.5714 16.9468 17.3389 17.7143 18.2857 17.7143Z" fill="currentColor"/>
</svg>
