<svg width="24" height="24" viewBox="0 0 24 24" fill="none" xmlns="http://www.w3.org/2000/svg">
<path fill-rule="evenodd" clip-rule="evenodd" d="M7.45454 4H13.8182C15.7236 4 17.2727 5.54909 17.2727 7.45454V16.5454C17.2727 18.4509 15.7236 20 13.8182 20H7.45454C5.54909 20 4 18.4509 4 16.5454V7.45454C4 5.54909 5.54909 4 7.45454 4ZM11.3673 12.7273H12.9091C13.3091 12.7273 13.6364 12.4 13.6364 12C13.6364 11.6 13.3091 11.2727 12.9091 11.2727H11.3673V9.7309C11.3673 9.3309 11.04 9.00363 10.64 9.00363C10.24 9.00363 9.91272 9.3309 9.91272 9.7309V11.2727H8.37091C7.97091 11.2727 7.64363 11.6 7.64363 12C7.64363 12.4 7.97091 12.7273 8.37091 12.7273H9.91272V14.2691C9.91272 14.6691 10.24 14.9964 10.64 14.9964C11.04 14.9964 11.3673 14.6691 11.3673 14.2691V12.7273ZM17.8764 5.39636C18.2909 5.57091 18.6691 5.82546 18.9891 6.14546C19.6363 6.79273 20 7.67273 20 8.58909V15.1782C20 16.0945 19.6363 16.9745 18.9891 17.6218C18.6982 17.9054 18.3709 18.1382 18.0073 18.3054C18.24 17.76 18.3636 17.1636 18.3636 16.5382V7.44727C18.3636 6.71273 18.1891 6.01455 17.8764 5.39636Z" fill="currentColor"/>
</svg>
