<svg width="24" height="24" fill="none" viewBox="0 0 24 24"  xmlns="http://www.w3.org/2000/svg">
<mask id="path-1-inside-1" fill="white">
<path d="M12 23C18.0751 23 23 18.0751 23 12C23 5.92487 18.0751 1 12 1C5.92487 1 1 5.92487 1 12C1 18.0751 5.92487 23 12 23Z"/>
</mask>
<path d="M21.5 12C21.5 17.2467 17.2467 21.5 12 21.5V24.5C18.9036 24.5 24.5 18.9036 24.5 12H21.5ZM12 21.5C6.7533 21.5 2.5 17.2467 2.5 12H-0.5C-0.5 18.9036 5.09644 24.5 12 24.5V21.5ZM2.5 12C2.5 6.7533 6.7533 2.5 12 2.5V-0.5C5.09644 -0.5 -0.5 5.09644 -0.5 12H2.5ZM12 2.5C17.2467 2.5 21.5 6.7533 21.5 12H24.5C24.5 5.09644 18.9036 -0.5 12 -0.5V2.5Z" fill="currentColor" mask="url(#path-1-inside-1)"/>
<path d="M6.8669 17.8378C6.41518 18.119 5.89512 17.5937 6.18084 17.1448L10.2532 10.7468C10.3308 10.625 10.4337 10.5214 10.5551 10.4432L17.0849 6.2344C17.5356 5.94388 18.0654 6.47034 17.7777 6.92288L13.5636 13.5526C13.4832 13.6791 13.3754 13.7859 13.2482 13.8651L6.8669 17.8378Z" fill="currentColor"/>
<path d="M12 13C12.5523 13 13 12.5523 13 12C13 11.4477 12.5523 11 12 11C11.4477 11 11 11.4477 11 12C11 12.5523 11.4477 13 12 13Z" fill="white"/>
</svg>
