<svg width="24" height="24" viewBox="0 0 24 24" fill="none" xmlns="http://www.w3.org/2000/svg">
<path fill-rule="evenodd" clip-rule="evenodd" d="M13.507 4.51601L21.7172 11.1789H21.7325C22.053 11.4396 22.0911 11.8959 21.8164 12.2001C21.6638 12.3666 21.4502 12.4535 21.2365 12.4535C21.061 12.4535 20.8855 12.3956 20.7406 12.2797L19.2297 11.0558V17.6245C19.2297 17.9287 19.1687 18.2329 19.0466 18.5226C18.9245 18.8123 18.7414 19.073 18.5201 19.2975C18.2912 19.522 18.0242 19.6958 17.7266 19.8189C17.429 19.9348 17.1161 20 16.788 20H7.21196C6.89149 20 6.57101 19.9421 6.27343 19.8189C5.97584 19.6958 5.70878 19.522 5.47987 19.2975C5.25096 19.0802 5.07546 18.8195 4.95338 18.5298C4.83129 18.2329 4.77025 17.9359 4.77025 17.6245V11.0558L3.25944 12.2797C2.93897 12.5405 2.45826 12.5042 2.18356 12.2001C1.90887 11.8959 1.94702 11.4396 2.2675 11.1789L10.4701 4.51601C11.3171 3.828 12.6524 3.828 13.507 4.51601ZM17.6197 17.9866C17.6655 17.8708 17.6884 17.7477 17.6884 17.6245L17.6808 17.6173V9.81012L12.515 5.61684C12.2098 5.37784 11.752 5.37784 11.4544 5.61684L6.28869 9.81012V17.6173C6.28869 17.7477 6.31921 17.8708 6.36499 17.9866C6.41077 18.1025 6.48708 18.2039 6.57101 18.2908C6.66258 18.3777 6.76177 18.4429 6.86859 18.4864C6.97542 18.5298 7.11277 18.5515 7.20433 18.5515H16.7804C16.9025 18.5443 17.0093 18.5298 17.1161 18.4864C17.2306 18.4429 17.3298 18.3777 17.4137 18.2908C17.5053 18.2039 17.574 18.1025 17.6197 17.9866ZM11.9962 15.5967C13.0034 15.5967 13.5299 15.1259 13.5299 15.1259C13.8351 14.8507 14.3158 14.8507 14.6058 15.1259C14.8957 15.4012 14.911 15.8502 14.621 16.1326C14.5295 16.2268 13.652 17.0379 11.9962 17.0379C10.3404 17.0379 9.46291 16.2268 9.37134 16.1326C9.08139 15.8502 9.08902 15.3867 9.39423 15.1115C9.69182 14.8363 10.1725 14.8435 10.4625 15.1259C10.493 15.1622 10.989 15.5967 11.9962 15.5967Z" fill="currentColor"/>
</svg>
