<svg width="24" height="24" viewBox="0 0 24 24" fill="none" xmlns="http://www.w3.org/2000/svg">
<path d="M9.30012 1.87012C5.21012 1.87012 1.87012 5.21012 1.87012 9.31012V14.6901C1.87012 18.7901 5.21012 22.1301 9.31012 22.1301H14.6901C18.7901 22.1301 22.1301 18.7901 22.1301 14.6901V9.31012C22.1301 5.21012 18.7901 1.87012 14.6901 1.87012H9.30012ZM20.8701 14.6801C20.8701 18.0901 18.0901 20.8701 14.6801 20.8701H9.30012C5.89012 20.8701 3.11012 18.0901 3.11012 14.6801V9.30012C3.12012 5.90012 5.90012 3.12012 9.31012 3.12012H14.6901C18.1001 3.12012 20.8801 5.90012 20.8801 9.31012V14.6901L20.8701 14.6801Z" fill="currentColor"/>
<path d="M16.9901 11.3701H12.6101V6.99012C12.6101 6.65012 12.3301 6.37012 11.9901 6.37012C11.6501 6.37012 11.3701 6.65012 11.3701 6.99012V11.3701H6.99012C6.64012 11.3701 6.37012 11.6501 6.37012 11.9901C6.37012 12.3301 6.65012 12.6101 6.99012 12.6101H11.3701V16.9901C11.3701 17.3301 11.6501 17.6101 11.9901 17.6101C12.3301 17.6101 12.6101 17.3301 12.6101 16.9901V12.6101H16.9901C17.3401 12.6101 17.6101 12.3301 17.6101 11.9901C17.6101 11.6501 17.3301 11.3701 16.9901 11.3701Z" fill="currentColor"/>
</svg>
