<svg width="24" height="24" viewBox="0 0 24 24" fill="none" xmlns="http://www.w3.org/2000/svg">
<path d="M24 12C24 18.6274 18.6274 24 12 24C5.37258 24 0 18.6274 0 12C0 5.37258 5.37258 0 12 0C18.6274 0 24 5.37258 24 12Z" fill="currentColor"/>
<path d="M16.6782 7.77672C15.8176 7.3886 14.8951 7.10173 13.9304 6.93861C13.9219 6.93696 13.913 6.93802 13.905 6.94165C13.897 6.94527 13.8904 6.95129 13.886 6.95885C13.7679 7.16641 13.6363 7.43697 13.544 7.65072C12.5209 7.49786 11.4807 7.49786 10.4576 7.65072C10.3549 7.41383 10.239 7.18285 10.1106 6.95885C10.1062 6.9512 10.0996 6.94505 10.0917 6.94123C10.0837 6.93741 10.0748 6.9361 10.0661 6.93748C9.10201 7.1006 8.17952 7.38747 7.31834 7.77616C7.31094 7.77926 7.30465 7.78456 7.30034 7.79134C5.54987 10.3647 5.07006 12.8746 5.30575 15.3529C5.3064 15.359 5.30829 15.3649 5.31128 15.3702C5.31428 15.3755 5.31833 15.3802 5.32318 15.3839C6.34489 16.1277 7.48447 16.6944 8.6942 17.0601C8.70263 17.0627 8.71165 17.0627 8.72008 17.0601C8.72851 17.0575 8.73596 17.0524 8.74145 17.0455C9.00132 16.6967 9.23307 16.3283 9.43107 15.9413C9.44288 15.9188 9.43163 15.8918 9.408 15.8828C9.04464 15.746 8.69256 15.5808 8.35502 15.3889C8.34895 15.3855 8.34384 15.3806 8.34014 15.3746C8.33644 15.3687 8.33428 15.362 8.33383 15.355C8.33338 15.348 8.33467 15.341 8.33759 15.3347C8.3405 15.3284 8.34494 15.3228 8.35052 15.3186C8.42139 15.2663 8.49227 15.2117 8.55976 15.1572C8.56584 15.1523 8.57316 15.1492 8.58091 15.1482C8.58865 15.1472 8.59652 15.1483 8.60364 15.1516C10.8125 16.1438 13.2048 16.1438 15.3879 15.1516C15.395 15.1482 15.4029 15.1468 15.4108 15.1477C15.4187 15.1486 15.4261 15.1517 15.4323 15.1566C15.4998 15.2117 15.5701 15.2663 15.6415 15.3186C15.6472 15.3227 15.6517 15.3282 15.6547 15.3345C15.6577 15.3408 15.6591 15.3477 15.6588 15.3547C15.6584 15.3616 15.6564 15.3684 15.6528 15.3744C15.6492 15.3804 15.6442 15.3854 15.6382 15.3889C15.3018 15.5824 14.9519 15.7461 14.5846 15.8822C14.579 15.8843 14.5738 15.8875 14.5695 15.8917C14.5653 15.8959 14.5619 15.901 14.5597 15.9065C14.5575 15.9121 14.5566 15.9181 14.5569 15.9241C14.5572 15.9301 14.5588 15.936 14.5616 15.9413C14.7641 16.3277 14.9958 16.6956 15.2506 17.0449C15.2559 17.0521 15.2633 17.0574 15.2717 17.0603C15.2802 17.0631 15.2893 17.0632 15.2979 17.0607C16.5097 16.696 17.6511 16.129 18.6739 15.3839C18.6789 15.3804 18.6831 15.3759 18.6862 15.3706C18.6893 15.3654 18.6913 15.3595 18.6919 15.3535C18.9732 12.4882 18.2206 9.99856 16.6957 7.79247C16.6919 7.7853 16.6857 7.77971 16.6782 7.77672ZM9.76125 13.8438C9.09638 13.8438 8.54795 13.2425 8.54795 12.505C8.54795 11.767 9.0857 11.1663 9.76125 11.1663C10.4419 11.1663 10.9852 11.7721 10.9745 12.505C10.9745 13.243 10.4368 13.8438 9.76125 13.8438ZM14.2471 13.8438C13.5817 13.8438 13.0338 13.2425 13.0338 12.505C13.0338 11.767 13.571 11.1663 14.2471 11.1663C14.9277 11.1663 15.4711 11.7721 15.4604 12.505C15.4604 13.243 14.9283 13.8438 14.2471 13.8438Z" fill="white"/>
</svg>
