<svg width="24" height="24" viewBox="0 0 24 24" fill="none" xmlns="http://www.w3.org/2000/svg">
<path d="M24 12C24 18.6274 18.6274 24 12 24C5.37258 24 0 18.6274 0 12C0 5.37258 5.37258 0 12 0C18.6274 0 24 5.37258 24 12Z" fill="currentColor"/>
<path d="M10.2303 18H12.7566V12.941H15.0329L15.283 10.4273H12.7566V9.15784C12.7566 8.99034 12.8232 8.82969 12.9416 8.71125C13.0601 8.5928 13.2207 8.52626 13.3882 8.52626H15.283V5.99993H13.3882C12.5507 5.99993 11.7475 6.33264 11.1552 6.92486C10.563 7.51709 10.2303 8.32031 10.2303 9.15784V10.4273H8.96714L8.71703 12.941H10.2303V18Z" fill="white"/>
</svg>
