<svg width="24" height="24" viewBox="0 0 24 24" fill="none" xmlns="http://www.w3.org/2000/svg">
<path d="M24 12C24 18.6274 18.6274 24 12 24C5.37258 24 0 18.6274 0 12C0 5.37258 5.37258 0 12 0C18.6274 0 24 5.37258 24 12Z" fill="currentColor"/>
<path d="M14.5223 12C14.5223 14.4853 12.4466 16.5 9.88616 16.5C7.32568 16.5 5.25 14.4853 5.25 12C5.25 9.51472 7.32568 7.5 9.88616 7.5C12.4466 7.5 14.5223 9.51472 14.5223 12Z" fill="white"/>
<path d="M13.6002 15.8744C14.7173 14.9347 15.4238 13.5474 15.4238 12C15.4238 10.4526 14.7173 9.06535 13.6002 8.12564C13.9291 8.04362 14.2738 8 14.629 8C16.905 8 18.75 9.79086 18.75 12C18.75 14.2091 16.905 16 14.629 16C14.2738 16 13.9291 15.9564 13.6002 15.8744Z" fill="white"/>
</svg>
