<svg width="16" height="16" viewBox="0 0 16 16" fill="none" xmlns="http://www.w3.org/2000/svg">
<path d="M12.3504 2.13281H3.64951C2.81213 2.13281 2.1333 2.79134 2.1333 3.60367V12.3965C2.1333 13.2089 2.81213 13.8674 3.64951 13.8674H12.3504C13.1878 13.8674 13.8666 13.2089 13.8666 12.3965V3.60367C13.8666 2.79134 13.1878 2.13281 12.3504 2.13281Z" stroke="currentColor" stroke-miterlimit="10"/>
<path d="M9.1595 6.75851L8.3591 5.19802C8.21167 4.90999 7.78827 4.90999 7.64042 5.19802L6.84002 6.75851C6.80019 6.8362 6.73448 6.89875 6.65399 6.93619L4.61376 7.88237C4.30946 8.0234 4.30946 8.4437 4.61376 8.58473L6.65399 9.5309C6.73489 9.56835 6.80019 9.6309 6.84002 9.70859L7.64042 11.2691C7.78785 11.5571 8.21126 11.5571 8.3591 11.2691L9.1595 9.70859C9.19934 9.6309 9.26504 9.56835 9.34554 9.5309L11.3858 8.58473C11.6901 8.4437 11.6901 8.0234 11.3858 7.88237L9.34554 6.93619C9.26463 6.89875 9.19934 6.8362 9.1595 6.75851Z" stroke="currentColor" stroke-miterlimit="10"/>
</svg>
