<svg width="24" height="24" viewBox="0 0 24 24" fill="none" xmlns="http://www.w3.org/2000/svg">
<path fill-rule="evenodd" clip-rule="evenodd" d="M8.04079 5.75443C7.92145 5.98124 7.85123 6.27106 7.85123 6.65055V9.91978H6.43457V6.65055C6.43457 6.09597 6.53782 5.56848 6.7871 5.09474C7.03851 4.61695 7.41762 4.23371 7.90678 3.94105C8.85645 3.37287 10.2305 3.14001 12 3.14001C13.7696 3.14001 15.1436 3.37287 16.0933 3.94105C16.5825 4.23371 16.9616 4.61695 17.213 5.09474C17.4623 5.56848 17.5655 6.09597 17.5655 6.65055V9.91978H16.1489V6.65055C16.1489 6.27106 16.0786 5.98124 15.9593 5.75443C15.8421 5.53167 15.6574 5.33112 15.366 5.15675C14.7544 4.79086 13.6999 4.55668 12 4.55668C10.3002 4.55668 9.24568 4.79086 8.63412 5.15675C8.34267 5.33112 8.15801 5.53167 8.04079 5.75443ZM17.6667 11.3365H6.33333C5.55093 11.3365 4.91667 11.9707 4.91667 12.7531V18.015C4.91667 18.7974 5.55093 19.4317 6.33333 19.4317H17.6667C18.4491 19.4317 19.0833 18.7974 19.0833 18.015V12.7531C19.0833 11.9707 18.4491 11.3365 17.6667 11.3365ZM6.33333 9.91981C4.76853 9.91981 3.5 11.1883 3.5 12.7531V18.015C3.5 19.5799 4.76853 20.8484 6.33333 20.8484H17.6667C19.2315 20.8484 20.5 19.5799 20.5 18.015V12.7531C20.5 11.1883 19.2315 9.91981 17.6667 9.91981H6.33333ZM11.9998 15.9913C12.6705 15.9913 13.2141 15.4476 13.2141 14.777C13.2141 14.1063 12.6705 13.5627 11.9998 13.5627C11.3292 13.5627 10.7855 14.1063 10.7855 14.777C10.7855 15.4476 11.3292 15.9913 11.9998 15.9913Z" fill="currentColor"/>
</svg>
