<svg width="24" height="24" viewBox="0 0 24 24" fill="none" xmlns="http://www.w3.org/2000/svg">
<path d="M8.55087 15.7675L5.76087 18.5475M15.8709 14.5575L20.0409 10.3875C20.4109 10.0175 20.4109 9.4075 20.0409 9.0375L15.2809 4.2775C14.9109 3.9075 14.3009 3.9075 13.9309 4.2775L9.76087 8.4475C9.33087 8.8775 8.69087 9.0075 8.10087 8.8475C6.85087 8.5175 5.69087 8.8275 4.81087 9.2575C3.93087 9.6875 3.71087 10.9275 4.43087 11.6475L12.6809 19.8975C13.4009 20.6175 14.6209 20.4275 15.0709 19.5175C15.5209 18.6075 15.8209 17.4775 15.4809 16.2275C15.3209 15.6375 15.4409 14.9975 15.8809 14.5675L15.8709 14.5575Z" stroke="currentColor" stroke-width="1.25" stroke-linecap="round" stroke-linejoin="round"/>
</svg>
