<svg width="24" height="24" fill="none" viewBox="0 0 24 24"  xmlns="http://www.w3.org/2000/svg">
<path fill-rule="evenodd" clip-rule="evenodd" d="M12 22C17.5228 22 22 17.5228 22 12C22 6.47715 17.5228 2 12 2C6.47715 2 2 6.47715 2 12C2 17.5228 6.47715 22 12 22Z" stroke="currentColor" stroke-width="1.5" stroke-linejoin="round"/>
<path d="M6 20L6.52644 17.1484C6.75627 15.9035 7.84187 15 9.10782 15H14.8922C16.1581 15 17.2437 15.9035 17.4736 17.1484L18 20" stroke="currentColor" stroke-width="1.5" stroke-linejoin="round"/>
<path fill-rule="evenodd" clip-rule="evenodd" d="M12 12C13.6569 12 15 10.6569 15 9C15 7.34315 13.6569 6 12 6C10.3431 6 9 7.34315 9 9C9 10.6569 10.3431 12 12 12Z" stroke="currentColor" stroke-width="1.5" stroke-linejoin="round"/>
</svg>
