<svg width="24" height="24" viewBox="0 0 24 24" fill="none" xmlns="http://www.w3.org/2000/svg">
<path d="M8.07487 15.5436C8.34342 15.3267 8.38531 14.9332 8.16844 14.6646C7.95157 14.3961 7.55806 14.3542 7.28952 14.5711L8.07487 15.5436ZM4.42202 18.6148C4.29067 18.934 4.44296 19.2992 4.76217 19.4306C5.08138 19.5619 5.44663 19.4097 5.57798 19.0904L4.42202 18.6148ZM18.4122 19.2125C18.5296 19.5371 18.8879 19.7051 19.2125 19.5878C19.5371 19.4704 19.7051 19.1121 19.5878 18.7875L18.4122 19.2125ZM12 22.625C17.868 22.625 22.625 17.868 22.625 12H21.375C21.375 17.1777 17.1777 21.375 12 21.375V22.625ZM22.625 12C22.625 6.13197 17.868 1.375 12 1.375V2.625C17.1777 2.625 21.375 6.82233 21.375 12H22.625ZM12 1.375C6.13197 1.375 1.375 6.13197 1.375 12H2.625C2.625 6.82233 6.82233 2.625 12 2.625V1.375ZM1.375 12C1.375 17.868 6.13197 22.625 12 22.625V21.375C6.82233 21.375 2.625 17.1777 2.625 12H1.375ZM7.28952 14.5711C5.88109 15.7085 4.98398 17.2491 4.42202 18.6148L5.57798 19.0904C6.09422 17.8359 6.88763 16.5023 8.07487 15.5436L7.28952 14.5711ZM19.5878 18.7875C19.072 17.3608 18.2022 15.7033 16.7345 14.5143L15.9477 15.4857C17.1689 16.4748 17.9363 17.8961 18.4122 19.2125L19.5878 18.7875ZM14.875 10.5C14.875 12.0878 13.5878 13.375 12 13.375V14.625C14.2782 14.625 16.125 12.7782 16.125 10.5H14.875ZM12 13.375C10.4122 13.375 9.125 12.0878 9.125 10.5H7.875C7.875 12.7782 9.72183 14.625 12 14.625V13.375ZM9.125 10.5C9.125 8.91218 10.4122 7.625 12 7.625V6.375C9.72183 6.375 7.875 8.22183 7.875 10.5H9.125ZM12 7.625C13.5878 7.625 14.875 8.91218 14.875 10.5H16.125C16.125 8.22183 14.2782 6.375 12 6.375V7.625Z" fill="currentColor"/>
</svg>
