<svg width="24" height="24" viewBox="0 0 24 24" fill="none" xmlns="http://www.w3.org/2000/svg">
<path d="M21.7304 2.26444C21.2204 1.74444 20.4704 1.58444 19.7804 1.82444L2.83043 7.94444C2.19043 8.16444 1.77043 8.72444 1.72043 9.40444C1.67043 10.0744 2.02043 10.6944 2.61043 11.0044L8.86043 14.2944C9.22043 14.4844 9.51043 14.7744 9.70043 15.1344L12.9904 21.3844C13.2904 21.9444 13.8404 22.2844 14.4704 22.2844C14.5104 22.2844 14.5504 22.2844 14.5904 22.2844C15.2604 22.2344 15.8204 21.8144 16.0504 21.1844L22.1704 4.21444C22.4204 3.52444 22.2504 2.78444 21.7404 2.26444H21.7304ZM20.9904 3.78444L14.8804 20.7344C14.8004 20.9744 14.5904 21.0144 14.5104 21.0144C14.4304 21.0244 14.2204 21.0144 14.1004 20.7844L10.8104 14.5344C10.5004 13.9444 10.0304 13.4744 9.44043 13.1644L3.19043 9.87444C2.97043 9.75444 2.96043 9.55444 2.96043 9.46444C2.96043 9.38444 3.00043 9.17444 3.24043 9.09444L20.2104 3.00444C20.5504 2.88444 20.7904 3.08444 20.8504 3.14444C20.9104 3.20444 21.1104 3.44444 20.9904 3.78444Z" fill="currentColor"/>
<path d="M15.5304 7.57444L10.8004 12.3044C10.5604 12.5444 10.5604 12.9444 10.8004 13.1844C10.9204 13.3044 11.0804 13.3644 11.2404 13.3644C11.4004 13.3644 11.5604 13.3044 11.6804 13.1844L16.4104 8.45444C16.6504 8.21444 16.6504 7.81444 16.4104 7.57444C16.1704 7.33444 15.7704 7.33444 15.5304 7.57444Z" fill="currentColor"/>
</svg>
