<svg width="24" height="24" viewBox="0 0 24 24" fill="none" xmlns="http://www.w3.org/2000/svg">
<g id="Publish-fill">
<path id="Vector" d="M21.7257 2.26744C21.2157 1.75744 20.4757 1.58744 19.7857 1.83744L2.82567 7.94744C2.19567 8.17744 1.76567 8.73744 1.72567 9.40744C1.67567 10.0774 2.01567 10.6974 2.61567 11.0074L8.86567 14.2974C9.22567 14.4874 9.51567 14.7774 9.70567 15.1374L12.9857 21.3774C13.2857 21.9474 13.8457 22.2774 14.4657 22.2774H14.5857C15.2657 22.2274 15.8257 21.8074 16.0557 21.1674L22.1657 4.21744C22.4157 3.52744 22.2457 2.78744 21.7257 2.26744ZM16.4157 8.46744L11.6857 13.1974C11.5657 13.3174 11.4057 13.3774 11.2457 13.3774C11.0857 13.3774 10.9257 13.3174 10.8057 13.1974C10.5657 12.9574 10.5657 12.5574 10.8057 12.3174L15.5357 7.58744C15.7757 7.34744 16.1757 7.34744 16.4157 7.58744C16.6557 7.82744 16.6557 8.22744 16.4157 8.46744Z" fill="currentColor"/>
</g>
</svg>
