<svg width="24" height="24" viewBox="0 0 24 24" fill="none" xmlns="http://www.w3.org/2000/svg">
<path d="M21.9136 12.6919C22.0836 12.1974 22.0063 11.6256 21.6508 11.1928C19.4408 8.45732 16.8289 6 11.9916 6C7.15419 6 4.55778 8.47277 2.34773 11.1928C1.88409 11.7647 1.88409 12.5838 2.34773 13.1556C4.55778 15.8911 7.16964 18.3484 12.007 18.3484C13.1507 18.3484 14.1707 18.2093 15.098 17.962M12.7954 15.1647C12.5481 15.2265 12.2699 15.2729 11.9917 15.2729C10.2917 15.2729 8.90077 13.882 8.90077 12.1819C8.90077 10.4819 10.2917 9.09096 11.9917 9.09096C13.6918 9.09096 15.0827 10.4819 15.0827 12.1819M15.5461 15.4273H21.7281M18.6372 12.3364V18.5183" stroke="currentColor" stroke-width="1.25" stroke-linecap="round" stroke-linejoin="round"/>
</svg>
