<svg width="24" height="24" viewBox="0 0 24 24" fill="none" xmlns="http://www.w3.org/2000/svg">
<path d="M21.17 3.21988C20.94 3.16988 15.8 2.00988 12.03 5.52988C8.25002 2.00988 3.11002 3.16988 2.88002 3.21988C2.60002 3.28988 2.40002 3.53988 2.40002 3.82988V17.9699C2.40002 18.1699 2.50002 18.3599 2.66002 18.4799C2.83002 18.5999 3.04002 18.6299 3.23002 18.5599C6.48002 17.3899 11.61 21.0099 11.66 21.0499C11.68 21.0599 11.7 21.0699 11.72 21.0799C11.72 21.0799 11.73 21.0899 11.74 21.0999C11.75 21.0999 11.76 21.0999 11.77 21.0999C11.85 21.1399 11.94 21.1599 12.02 21.1599C12.1 21.1599 12.19 21.1299 12.27 21.0999C12.28 21.0999 12.29 21.0999 12.3 21.0999C12.3 21.0999 12.31 21.0899 12.32 21.0799C12.34 21.0699 12.36 21.0599 12.38 21.0499C12.43 21.0099 17.56 17.3899 20.81 18.5599C21 18.6299 21.21 18.5999 21.38 18.4799C21.55 18.3599 21.64 18.1699 21.64 17.9699V3.82988C21.64 3.53988 21.44 3.28988 21.16 3.21988H21.17ZM3.65002 17.1699V4.35988C4.97002 4.17988 8.71002 3.94988 11.4 6.65988V19.3999C9.96002 18.5299 7.20002 17.0899 4.65002 17.0899C4.31002 17.0899 3.98002 17.1199 3.65002 17.1699ZM20.4 17.1699C17.61 16.6999 14.28 18.4099 12.65 19.3999V6.65988C15.34 3.94988 19.08 4.17988 20.4 4.35988V17.1699Z" fill="currentColor"/>
</svg>
