<svg width="24" height="24" viewBox="0 0 24 24" fill="none" xmlns="http://www.w3.org/2000/svg">
<path d="M11.4522 19.5C10.9414 19.5 10.5378 19.3034 10.0435 18.8707L3.48604 13.0343C3.15652 12.7354 3 12.3343 3 11.9961C3 11.65 3.14828 11.2646 3.48604 10.9657L10.0435 5.16072C10.5872 4.68878 10.9497 4.5 11.4439 4.5C12.2265 4.5 12.8032 5.08207 12.8032 5.81358V8.36209H12.9515C18.2897 8.36209 21 11.6578 21 17.2032C21 18.6662 20.5057 19.4056 19.7149 19.4056C19.1547 19.4056 18.7181 19.1932 18.3227 18.5168C17.2517 16.6369 15.6865 15.6772 12.9515 15.6772H12.8032V18.21C12.8032 18.9415 12.2265 19.5 11.4522 19.5Z" stroke="currentColor"/>
</svg>
