<svg width="24" height="24" viewBox="0 0 24 24" fill="none" xmlns="http://www.w3.org/2000/svg">
<g id="Seed User">
<circle id="Ellipse 1814" cx="12" cy="12" r="12" fill="white"/>
<g id="Vector">
<path fill-rule="evenodd" clip-rule="evenodd" d="M23 12C23 18.0751 18.0751 23 12 23C5.92487 23 1 18.0751 1 12C1 5.92487 5.92487 1 12 1C18.0751 1 23 5.92487 23 12ZM8.73074 13.0622L7.95898 17.562L12 15.4375L16.041 17.562L15.2693 13.0622L18.5385 9.87551L14.0205 9.219L12 5.125L9.97949 9.219L5.46149 9.87551L8.73074 13.0622Z" fill="#F3D26E"/>
<path d="M7.95898 17.562L8.73074 13.0622L5.46149 9.87551L9.97949 9.219L12 5.125L14.0205 9.219L18.5385 9.87551L15.2693 13.0622L16.041 17.562L12 15.4375L7.95898 17.562Z" fill="white"/>
</g>
</g>
</svg>
