<svg width="24" height="24" fill="none" viewBox="0 0 24 24"  xmlns="http://www.w3.org/2000/svg">
<path fill-rule="evenodd" clip-rule="evenodd" d="M19.267 12C19.267 10.8762 19.9591 9.99134 20.9993 9.38284C20.8108 8.7572 20.5633 8.1562 20.258 7.59162C19.0913 7.89694 18.1475 7.44057 17.3537 6.64566C16.5598 5.8529 16.3167 4.90909 16.622 3.74137C16.0574 3.43605 15.4564 3.18643 14.8308 3.0011C14.2223 4.04026 13.122 4.73125 12.0004 4.73125C10.8777 4.73125 9.77851 4.04026 9.16894 3.0011C8.54223 3.18643 7.94338 3.43605 7.3788 3.74137C7.68412 4.90909 7.44201 5.8529 6.64603 6.64566C5.85327 7.44057 4.90945 7.89694 3.74173 7.59162C3.43641 8.1562 3.18787 8.7572 3.00146 9.38284C4.04063 9.99134 4.73162 10.8762 4.73162 12C4.73162 13.1217 4.04063 14.2219 3.00146 14.8315C3.18894 15.4571 3.43641 16.057 3.74173 16.6227C4.90945 16.3174 5.85327 16.5595 6.64603 17.3533C7.43986 18.1482 7.68412 19.092 7.3788 20.2576C7.94338 20.5629 8.5433 20.8125 9.17002 21C9.77851 19.9576 10.8787 19.2677 12.0015 19.2677C13.1231 19.2677 14.2233 19.9587 14.8329 21C15.4586 20.8115 16.0585 20.5629 16.6241 20.2576C16.3188 19.092 16.5609 18.1482 17.3558 17.3533C18.1497 16.5606 19.0935 16.1042 20.2601 16.4074C20.5654 15.8428 20.814 15.2439 21.0015 14.6161C19.9591 14.0066 19.267 13.1217 19.267 12Z" stroke="currentColor" stroke-width="1.5" stroke-linecap="round" stroke-linejoin="round"/>
<path fill-rule="evenodd" clip-rule="evenodd" d="M12.0004 15C10.3429 15 9 13.6573 9 12.0008C9 10.3436 10.3437 9 12.0004 9C13.6579 9 15 10.3444 15 12.0008C15 13.6581 13.6579 15 12.0004 15Z" stroke="currentColor" stroke-width="1.5" stroke-linecap="round" stroke-linejoin="round"/>
</svg>
