<svg width="24" height="24" viewBox="0 0 24 24" fill="none" xmlns="http://www.w3.org/2000/svg">
<path fill-rule="evenodd" clip-rule="evenodd" d="M19.267 11.9999C19.267 10.8761 19.9591 9.99121 20.9993 9.38272C20.8108 8.75708 20.5633 8.15608 20.258 7.5915C19.0913 7.89682 18.1475 7.44045 17.3537 6.64554C16.5598 5.85278 16.3167 4.90896 16.622 3.74125C16.0574 3.43592 15.4564 3.18631 14.8308 3.00098C14.2223 4.04014 13.122 4.73113 12.0004 4.73113C10.8777 4.73113 9.77851 4.04014 9.16894 3.00098C8.54223 3.18631 7.94338 3.43592 7.3788 3.74125C7.68412 4.90896 7.44201 5.85278 6.64603 6.64554C5.85327 7.44045 4.90945 7.89682 3.74173 7.5915C3.43641 8.15608 3.18787 8.75708 3.00146 9.38272C4.04063 9.99121 4.73162 10.8761 4.73162 11.9999C4.73162 13.1216 4.04063 14.2218 3.00146 14.8314C3.18894 15.457 3.43641 16.0569 3.74173 16.6226C4.90945 16.3172 5.85327 16.5594 6.64603 17.3532C7.43986 18.1481 7.68412 19.0919 7.3788 20.2575C7.94338 20.5628 8.5433 20.8124 9.17002 20.9999C9.77851 19.9575 10.8787 19.2676 12.0015 19.2676C13.1231 19.2676 14.2233 19.9586 14.8329 20.9999C15.4586 20.8114 16.0585 20.5628 16.6241 20.2575C16.3188 19.0919 16.5609 18.1481 17.3558 17.3532C18.1497 16.5604 19.0935 16.1041 20.2601 16.4072C20.5654 15.8427 20.814 15.2438 21.0015 14.616C19.9591 14.0064 19.267 13.1216 19.267 11.9999Z" stroke="currentColor" stroke-width="1.25" stroke-linecap="round" stroke-linejoin="round"/>
<path fill-rule="evenodd" clip-rule="evenodd" d="M12.0004 14.9999C10.3429 14.9999 9 13.6571 9 12.0007C9 10.3434 10.3437 8.99988 12.0004 8.99988C13.6579 8.99988 15 10.3443 15 12.0007C15 13.658 13.6579 14.9999 12.0004 14.9999Z" stroke="currentColor" stroke-width="1.25" stroke-linecap="round" stroke-linejoin="round"/>
</svg>
