<svg width="24" height="24" viewBox="0 0 24 24" fill="none" xmlns="http://www.w3.org/2000/svg">
<g id="Brand Logo / Line">
<g id="Vector">
<path d="M24 12C24 18.6274 18.6274 24 12 24C5.37258 24 0 18.6274 0 12C0 5.37258 5.37258 0 12 0C18.6274 0 24 5.37258 24 12Z" fill="#06C755"/>
<path d="M12 6C15.8596 6 19 8.548 19 11.6805C19 12.9344 18.5144 14.0631 17.4994 15.1753C16.0311 16.8657 12.7472 18.9246 12 19.2396C11.2738 19.5459 11.3577 19.0672 11.391 18.8783L11.4934 18.2631C11.517 18.0846 11.5415 17.8073 11.4706 17.6305C11.3919 17.4354 11.0821 17.3339 10.8546 17.2849C7.49025 16.8412 5 14.4884 5 11.6805C5 8.548 8.14125 6 12 6ZM9.39425 12.7253H8.05988V10.3033C8.05988 10.2672 8.04561 10.2326 8.0202 10.207C7.99479 10.1815 7.9603 10.167 7.92425 10.1667H7.4325C7.41457 10.1667 7.39682 10.1703 7.38026 10.1771C7.3637 10.184 7.34866 10.1941 7.33598 10.2067C7.3233 10.2194 7.31325 10.2345 7.30639 10.251C7.29953 10.2676 7.296 10.2853 7.296 10.3033V13.3535C7.296 13.3894 7.31087 13.4235 7.3345 13.4471L7.33625 13.4497L7.338 13.4515C7.36338 13.4759 7.39729 13.4894 7.4325 13.4891H9.39425C9.4695 13.4891 9.52987 13.4279 9.52987 13.3526V12.8626C9.52999 12.8447 9.52657 12.8269 9.51982 12.8103C9.51307 12.7937 9.50311 12.7786 9.49051 12.7658C9.47792 12.7531 9.46294 12.7429 9.44642 12.736C9.4299 12.729 9.41218 12.7254 9.39425 12.7253ZM10.0864 10.1667C10.0502 10.1667 10.0155 10.1811 9.98985 10.2067C9.96426 10.2323 9.94987 10.267 9.94987 10.3033V13.3535C9.94987 13.4288 10.0111 13.4891 10.0864 13.4891H10.5781C10.6534 13.4891 10.7138 13.4279 10.7138 13.3535V10.3033C10.7138 10.2672 10.6995 10.2326 10.6741 10.207C10.6487 10.1815 10.6142 10.167 10.5781 10.1667H10.0864ZM13.4665 10.1667C13.4303 10.1667 13.3956 10.1811 13.37 10.2067C13.3444 10.2323 13.33 10.267 13.33 10.3033V12.1145L11.9326 10.228C11.9291 10.2234 11.9253 10.219 11.9212 10.2149C11.9185 10.2118 11.9156 10.208 11.9125 10.2052L11.9099 10.2026C11.9069 10.1998 11.9037 10.1971 11.9002 10.1947L11.8924 10.1895C11.891 10.1885 11.8895 10.1876 11.888 10.1869L11.881 10.1825H11.8792L11.8766 10.1807L11.8679 10.1772L11.8644 10.1755C11.8615 10.1745 11.8586 10.1736 11.8556 10.1729H11.8539L11.8512 10.172L11.8434 10.1702H11.8381L11.8355 10.1694H11.832L11.8302 10.1685H11.328C11.2919 10.1685 11.2574 10.1828 11.2318 10.2082C11.2062 10.2336 11.1917 10.2681 11.1915 10.3041V13.3544C11.1915 13.4296 11.2528 13.49 11.328 13.49H11.818C11.8941 13.49 11.9554 13.4287 11.9554 13.3544V11.5431L13.3554 13.4331C13.3647 13.4461 13.3762 13.4574 13.3895 13.4664L13.3904 13.4673L13.3991 13.4725L13.4026 13.4742C13.4049 13.4756 13.4072 13.4767 13.4096 13.4777L13.4158 13.4804L13.4201 13.4821C13.423 13.4831 13.4259 13.484 13.4289 13.4847H13.4315C13.4429 13.488 13.4547 13.4898 13.4665 13.49H13.9565C14.0326 13.49 14.0939 13.4287 14.0939 13.3544V10.3033C14.0939 10.267 14.0795 10.2323 14.0539 10.2067C14.0283 10.1811 13.9936 10.1667 13.9574 10.1667H13.4665ZM16.8046 10.7941V10.3041C16.8047 10.2862 16.8013 10.2684 16.7946 10.2518C16.7878 10.2352 16.7779 10.2201 16.7653 10.2073C16.7527 10.1946 16.7377 10.1844 16.7212 10.1775C16.7047 10.1705 16.6869 10.1669 16.669 10.1667H14.7072C14.6719 10.1668 14.638 10.1806 14.6128 10.2052L14.611 10.207L14.6093 10.2096C14.5848 10.2347 14.571 10.2682 14.5707 10.3033V13.3535C14.5707 13.3894 14.5856 13.4235 14.6093 13.4471L14.611 13.4497L14.6128 13.4515C14.6382 13.4758 14.6721 13.4893 14.7072 13.4891H16.669C16.7443 13.4891 16.8046 13.4279 16.8046 13.3526V12.8626C16.8047 12.8447 16.8013 12.8269 16.7946 12.8103C16.7878 12.7937 16.7779 12.7786 16.7653 12.7658C16.7527 12.7531 16.7377 12.7429 16.7212 12.736C16.7047 12.729 16.6869 12.7254 16.669 12.7253H15.3338V12.2099H16.6681C16.7434 12.2099 16.8037 12.1486 16.8037 12.0734V11.5834C16.8039 11.5654 16.8004 11.5477 16.7937 11.5311C16.7869 11.5145 16.777 11.4994 16.7644 11.4866C16.7518 11.4738 16.7368 11.4637 16.7203 11.4567C16.7038 11.4498 16.6861 11.4461 16.6681 11.446H15.3338V10.9306H16.6681C16.7434 10.9306 16.8046 10.8694 16.8046 10.7941Z" fill="white"/>
</g>
</g>
</svg>
