<svg width="25" height="24" viewBox="0 0 25 24" fill="none" xmlns="http://www.w3.org/2000/svg">
<g id="Brand Logo / Telegram">
<g id="Vector">
<path d="M24.5 12C24.5 18.6274 19.1274 24 12.5 24C5.87258 24 0.5 18.6274 0.5 12C0.5 5.37258 5.87258 0 12.5 0C19.1274 0 24.5 5.37258 24.5 12Z" fill="#3390EC"/>
<path d="M16.477 7.08828C16.477 7.08828 17.587 6.65543 17.4945 7.70665C17.4637 8.13951 17.1862 9.65451 16.9703 11.2932L16.2303 16.1474C16.2303 16.1474 16.1686 16.8585 15.6135 16.9822C15.0585 17.1059 14.2259 16.5493 14.0717 16.4257C13.9484 16.3329 11.7591 14.9416 10.9882 14.2614C10.7723 14.0759 10.5256 13.7048 11.019 13.272L14.2568 10.1801C14.6268 9.80911 14.9968 8.9434 13.455 9.99463L9.13803 12.9319C9.13803 12.9319 8.64466 13.2411 7.7196 12.9628L5.71526 12.3444C5.71526 12.3444 4.9752 11.8807 6.23947 11.4169C9.32306 9.96368 13.1159 8.4796 16.477 7.08828Z" fill="white"/>
</g>
</g>
</svg>
