<svg width="25" height="24" viewBox="0 0 25 24" fill="none" xmlns="http://www.w3.org/2000/svg">
<g id="Brand Logo / Facebook">
<g id="Vector">
<path d="M24.5 12C24.5 18.6274 19.1274 24 12.5 24C5.87258 24 0.5 18.6274 0.5 12C0.5 5.37258 5.87258 0 12.5 0C19.1274 0 24.5 5.37258 24.5 12Z" fill="#1B74E4"/>
<path d="M10.7303 18H13.2566V12.941H15.5329L15.783 10.4273H13.2566V9.15784C13.2566 8.99034 13.3232 8.82969 13.4416 8.71125C13.5601 8.5928 13.7207 8.52626 13.8882 8.52626H15.783V5.99993H13.8882C13.0507 5.99993 12.2475 6.33264 11.6552 6.92486C11.063 7.51709 10.7303 8.32031 10.7303 9.15784V10.4273H9.46714L9.21703 12.941H10.7303V18Z" fill="white"/>
</g>
</g>
</svg>
