<svg width="24" height="24" viewBox="0 0 24 24" fill="none" xmlns="http://www.w3.org/2000/svg">
<path fill-rule="evenodd" clip-rule="evenodd" d="M18.75 12C18.75 8.27208 15.7279 5.25 12 5.25C8.27208 5.25 5.25 8.27208 5.25 12C5.25 15.7279 8.27208 18.75 12 18.75C12.6904 18.75 13.25 19.3096 13.25 20C13.25 20.6904 12.6904 21.25 12 21.25C6.89137 21.25 2.75 17.1086 2.75 12C2.75 6.89137 6.89137 2.75 12 2.75C17.1086 2.75 21.25 6.89137 21.25 12C21.25 12.6904 20.6904 13.25 20 13.25C19.3096 13.25 18.75 12.6904 18.75 12Z" fill="url(#paint0_angular_2901_786)"/>
<defs>
<radialGradient id="paint0_angular_2901_786" cx="0" cy="0" r="1" gradientUnits="userSpaceOnUse" gradientTransform="translate(11.5 12) rotate(15.5241) scale(9.34077 9.54882)">
<stop stop-color="#333333"/>
<stop offset="0.822622" stop-color="#333333" stop-opacity="0"/>
<stop offset="1" stop-color="#333333" stop-opacity="0"/>
</radialGradient>
</defs>
</svg>
