<svg width="24" height="24" viewBox="0 0 24 24" fill="none" xmlns="http://www.w3.org/2000/svg">
<path d="M3.625 5C3.625 4.24061 4.24061 3.625 5 3.625H19C19.7594 3.625 20.375 4.24061 20.375 5V19C20.375 19.7594 19.7594 20.375 19 20.375H5C4.24061 20.375 3.625 19.7594 3.625 19V5ZM7.18652 10.5509L7.59327 11.0255L7.18652 10.5509C6.66237 11.0002 6.60166 11.7893 7.05094 12.3135L10.0509 15.8135C10.2837 16.085 10.6216 16.2439 10.9792 16.2498C11.3368 16.2558 11.6798 16.1083 11.9215 15.8447L17.4215 9.84466C17.8879 9.33576 17.8536 8.54505 17.3447 8.07856C16.8358 7.61207 16.0451 7.64645 15.5786 8.15535L11.0314 13.1159L8.94908 10.6865C8.4998 10.1624 7.71068 10.1017 7.18652 10.5509Z" fill="currentColor" stroke="currentColor" stroke-width="1.25"/>
</svg>
