<svg width="24" height="24" viewBox="0 0 24 24" fill="none" xmlns="http://www.w3.org/2000/svg">
<path d="M10.9471 1.96158C11.2768 0.9464 12.7232 0.9464 13.0529 1.96158L14.8867 7.6085C15.034 8.0623 15.4594 8.36988 15.9396 8.36988H21.8916C22.9612 8.36988 23.4082 9.72734 22.5451 10.3548L17.7153 13.8657C17.3306 14.1455 17.1696 14.6386 17.3159 15.0892L19.1573 20.7596C19.4864 21.7731 18.3163 22.6121 17.4509 21.9831L12.6535 18.4956C12.2644 18.2127 11.7356 18.2127 11.3465 18.4956L6.5491 21.9831C5.68374 22.6121 4.51356 21.7731 4.84269 20.7596L6.68406 15.0892C6.83041 14.6386 6.66945 14.1455 6.28466 13.8657L1.45491 10.3548C0.591838 9.72734 1.03877 8.36988 2.10842 8.36988H8.06042C8.54061 8.36988 8.96597 8.0623 9.11333 7.6085L10.9471 1.96158Z" fill="currentColor"/>
</svg>
