<svg width="24" height="24" viewBox="0 0 24 24" fill="none" xmlns="http://www.w3.org/2000/svg">
<path d="M24 12C24 18.6274 18.6274 24 12 24C5.37258 24 0 18.6274 0 12C0 5.37258 5.37258 0 12 0C18.6274 0 24 5.37258 24 12Z" fill="#3390EC"/>
<path d="M15.977 7.08828C15.977 7.08828 17.087 6.65543 16.9945 7.70665C16.9637 8.13951 16.6862 9.65451 16.4703 11.2932L15.7303 16.1474C15.7303 16.1474 15.6686 16.8585 15.1135 16.9822C14.5585 17.1059 13.7259 16.5493 13.5717 16.4257C13.4484 16.3329 11.2591 14.9416 10.4882 14.2614C10.2723 14.0759 10.0256 13.7048 10.519 13.272L13.7568 10.1801C14.1268 9.80911 14.4968 8.9434 12.955 9.99463L8.63803 12.9319C8.63803 12.9319 8.14466 13.2411 7.2196 12.9628L5.21526 12.3444C5.21526 12.3444 4.4752 11.8807 5.73947 11.4169C8.82306 9.96368 12.6159 8.4796 15.977 7.08828Z" fill="white"/>
</svg>
