<svg width="24" height="24" viewBox="0 0 24 24" fill="none" xmlns="http://www.w3.org/2000/svg">
<path d="M5.74536 12.6247C6.36439 13.2744 8.90085 13.76 11.9334 13.76C14.966 13.76 17.5002 13.2744 18.1215 12.6247C17.5963 12.0743 15.6923 11.6405 13.2765 11.5218V12.8945C12.843 12.9161 12.3938 12.9269 11.9334 12.9269C11.4731 12.9269 11.0239 12.9161 10.5903 12.8945V11.5218C8.17455 11.6405 6.27053 12.0743 5.74536 12.6247Z" fill="#00A776"/>
<path fill-rule="evenodd" clip-rule="evenodd" d="M12 24C18.6274 24 24 18.6274 24 12C24 5.37258 18.6274 0 12 0C5.37258 0 0 5.37258 0 12C0 18.6274 5.37258 24 12 24ZM13.2765 9.19072V10.5009C16.1192 10.6411 18.2511 11.2153 18.2668 11.906V13.3434C18.2511 14.0341 16.1192 14.6082 13.2765 14.7485V17.9645H10.5903V14.7485C7.74771 14.6082 5.61574 14.0341 5.6001 13.3434V11.906C5.61574 11.2174 7.74771 10.6411 10.5903 10.5009V9.19072H6.54317V7.29999H17.3237V9.19072H13.2765Z" fill="#00A776"/>
</svg>
