<svg width="24" height="24" viewBox="0 0 24 24" fill="none" xmlns="http://www.w3.org/2000/svg">
<rect width="24" height="24" rx="12" fill="black"/>
<path d="M12.1229 20H12.1181C9.752 19.984 7.93298 19.1968 6.71025 17.6608C5.62392 16.2928 5.06251 14.3904 5.04348 12.0064V11.9952C5.06251 9.6096 5.62392 7.7088 6.71184 6.3408C7.93298 4.8032 9.75358 4.016 12.1181 4H12.1277C13.9419 4.0128 15.4596 4.4832 16.6379 5.3984C17.7465 6.2592 18.5267 7.4848 18.9565 9.0432L17.6085 9.4224C16.879 6.7824 15.033 5.4336 12.1213 5.4128C10.1992 5.4272 8.74495 6.0368 7.79976 7.224C6.91642 8.336 6.45968 9.9424 6.44224 12C6.45968 14.0576 6.91642 15.664 7.80135 16.776C8.74654 17.9648 10.2008 18.5744 12.1229 18.5872C13.8563 18.5744 15.0029 18.1664 15.956 17.224C17.0439 16.1488 17.0249 14.8288 16.676 14.0256C16.4714 13.552 16.0987 13.1584 15.596 12.8592C15.4691 13.76 15.1853 14.4896 14.7476 15.04C14.1624 15.7744 13.3329 16.176 12.2831 16.2336C11.4885 16.2768 10.7226 16.088 10.1294 15.6992C9.42689 15.24 9.01614 14.5392 8.97174 13.7232C8.92892 12.9296 9.24134 12.2 9.85032 11.6688C10.4323 11.1616 11.2507 10.864 12.2181 10.808C12.9301 10.768 13.5978 10.8 14.2131 10.9024C14.1306 10.408 13.9657 10.0144 13.7183 9.7312C13.3789 9.3408 12.854 9.1424 12.1594 9.1376H12.1404C11.5821 9.1376 10.8241 9.2928 10.3419 10.0176L9.18107 9.232C9.82812 8.2624 10.878 7.728 12.1404 7.728H12.1689C14.2797 7.7408 15.5373 9.0448 15.6626 11.32C15.734 11.3504 15.8054 11.3824 15.8751 11.4144C16.86 11.8816 17.58 12.5888 17.959 13.4608C18.4855 14.6752 18.5347 16.6544 16.9361 18.2336C15.7134 19.44 14.2306 19.9856 12.1277 20H12.1229ZM12.7858 12.2064C12.6256 12.2064 12.4639 12.2112 12.2974 12.2208C11.0841 12.2896 10.3277 12.8512 10.3705 13.6496C10.4149 14.4864 11.33 14.8752 12.2101 14.8272C13.0189 14.784 14.072 14.4656 14.2496 12.3536C13.8024 12.256 13.3123 12.2064 12.7858 12.2064Z" fill="white"/>
</svg>
