<svg width="24" height="24" viewBox="0 0 24 24" fill="none" xmlns="http://www.w3.org/2000/svg">
<path d="M22.32 11.9902C22.32 10.6302 21.48 9.79023 20.12 9.79023H14.98C14.84 9.79023 14.77 9.70023 14.75 9.67023C14.72 9.63023 14.68 9.53023 14.73 9.42023C14.98 8.86023 15.31 8.09023 15.74 7.05023C16.57 5.05023 16.62 3.10023 15.87 1.97023C15.45 1.34023 14.8 0.990234 14.04 0.990234C12.33 0.990234 11.74 2.94023 11.22 4.65023C11.01 5.35023 10.81 6.01023 10.55 6.52023C10.29 7.05023 9.78998 7.73023 9.07998 8.54023C8.84998 8.80023 8.87998 9.20023 9.13998 9.42023C9.39998 9.65023 9.79998 9.62023 10.02 9.36023C10.8 8.47023 11.35 7.70023 11.66 7.07023C11.97 6.44023 12.19 5.72023 12.4 5.01023C12.81 3.64023 13.24 2.23023 14.03 2.23023C14.38 2.23023 14.63 2.36023 14.82 2.65023C15.24 3.28023 15.33 4.74023 14.58 6.55023C14.15 7.58023 13.82 8.34023 13.58 8.90023C13.37 9.37023 13.42 9.91023 13.7 10.3402C13.98 10.7702 14.46 11.0302 14.98 11.0302H20.12C20.79 11.0302 21.07 11.3202 21.07 11.9802C21.07 12.6002 20.65 13.2602 20.16 13.4102C19.92 13.4902 19.74 13.7002 19.72 13.9602C19.7 14.2102 19.84 14.4602 20.06 14.5702C20.06 14.5702 20.9 15.0002 20.66 15.5802C20.38 16.2702 19.73 16.3102 19.66 16.3102C19.4 16.3102 19.16 16.4802 19.07 16.7302C18.98 16.9802 19.06 17.2602 19.26 17.4302C19.38 17.5302 19.94 18.0402 19.57 18.6502C19.12 19.4002 18.73 19.4702 18.75 19.4702C18.54 19.4702 18.35 19.5702 18.23 19.7402C18.11 19.9102 18.09 20.1302 18.17 20.3202C18.17 20.3202 18.45 21.0802 18.08 21.4502C17.75 21.7802 17.6 21.7802 16.96 21.7402C16.76 21.7402 16.53 21.7202 16.27 21.7202H11.08C9.91998 21.7202 8.45998 21.3502 7.86998 20.5602V11.8402C7.86998 10.9502 7.13998 10.2202 6.24998 10.2202H3.28998C2.38998 10.2202 1.66998 10.9502 1.66998 11.8402V20.6702C1.66998 21.5602 2.39998 22.2902 3.28998 22.2902H6.25998C6.69998 22.2902 7.09998 22.1102 7.38998 21.8302C8.38998 22.6502 9.90998 22.9702 11.09 22.9702H16.28C16.52 22.9702 16.72 22.9802 16.91 22.9902C17.07 22.9902 17.22 23.0102 17.37 23.0102C17.91 23.0102 18.42 22.9102 18.98 22.3402C19.52 21.8002 19.59 21.0702 19.51 20.4902C19.85 20.3002 20.26 19.9402 20.66 19.2902C21.11 18.5402 21 17.8302 20.73 17.2902C21.16 17.0602 21.58 16.6802 21.83 16.0502C22.16 15.2302 21.86 14.5502 21.43 14.0702C21.97 13.5502 22.33 12.7802 22.33 11.9802L22.32 11.9902ZM6.62998 20.6902C6.62998 20.9002 6.45998 21.0602 6.25998 21.0602H3.28998C3.07998 21.0602 2.91998 20.8902 2.91998 20.6902V11.8602C2.91998 11.6502 3.08998 11.4902 3.28998 11.4902H6.25998C6.46998 11.4902 6.62998 11.6602 6.62998 11.8602V20.6902Z" fill="currentColor"/>
</svg>
