<svg width="24" height="24" viewBox="0 0 24 24" fill="none" xmlns="http://www.w3.org/2000/svg">
<path d="M21.425 9.92116C21.855 9.45116 22.155 8.76116 21.825 7.94116C21.575 7.31116 21.155 6.92116 20.725 6.70116C20.995 6.16116 21.105 5.45116 20.655 4.70116C20.265 4.04116 19.855 3.69116 19.505 3.50116C19.585 2.92116 19.515 2.19116 18.975 1.65116C18.255 0.921159 17.635 0.951159 16.915 0.981159C16.735 0.981159 16.525 1.00116 16.285 1.00116H11.095C9.90505 1.00116 8.39505 1.32116 7.39505 2.14116C7.10505 1.86116 6.70505 1.68116 6.26505 1.68116H3.29505C2.39505 1.68116 1.67505 2.41116 1.67505 3.30116V12.1312C1.67505 13.0312 2.40505 13.7512 3.29505 13.7512H6.26505C7.16505 13.7512 7.88505 13.0212 7.88505 12.1312V3.42116C8.47505 2.63116 9.93505 2.26116 11.095 2.26116H16.285C16.545 2.26116 16.775 2.25116 16.975 2.24116C17.615 2.20116 17.765 2.20116 18.095 2.53116C18.465 2.90116 18.185 3.66116 18.185 3.66116C18.105 3.85116 18.115 4.07116 18.225 4.24116C18.335 4.41116 18.515 4.51116 18.725 4.51116C18.725 4.51116 19.125 4.58116 19.585 5.34116C19.955 5.95116 19.3951 6.47116 19.275 6.56116C19.075 6.72116 18.995 7.00116 19.075 7.25116C19.155 7.50116 19.395 7.67116 19.655 7.68116C19.725 7.68116 20.385 7.72116 20.665 8.42116C20.895 8.99116 20.145 9.39116 20.065 9.43116C19.835 9.54116 19.705 9.79116 19.725 10.0412C19.745 10.2912 19.915 10.5112 20.165 10.5912C20.655 10.7412 21.075 11.4012 21.075 12.0212C21.075 12.6912 20.785 12.9712 20.125 12.9712H14.985C14.465 12.9712 13.985 13.2312 13.705 13.6612C13.425 14.0912 13.385 14.6312 13.585 15.1012C13.825 15.6512 14.155 16.4212 14.585 17.4412C15.345 19.2612 15.255 20.7112 14.825 21.3512C14.635 21.6412 14.385 21.7712 14.035 21.7712C13.245 21.7712 12.825 20.3612 12.405 18.9912C12.185 18.2712 11.965 17.5312 11.665 16.9212C11.355 16.3012 10.805 15.5312 10.025 14.6412C9.79505 14.3812 9.40505 14.3512 9.14505 14.5812C8.88505 14.8112 8.85505 15.2012 9.08505 15.4612C9.79505 16.2812 10.285 16.9612 10.555 17.4912C10.805 18.0012 11.005 18.6612 11.225 19.3612C11.745 21.0812 12.335 23.0312 14.045 23.0312C14.805 23.0312 15.465 22.6812 15.875 22.0612C16.625 20.9312 16.575 18.9812 15.745 16.9812C15.315 15.9412 14.985 15.1712 14.735 14.6112C14.685 14.5012 14.735 14.4012 14.755 14.3612C14.775 14.3212 14.855 14.2412 14.985 14.2412H20.125C21.4851 14.2412 22.325 13.4012 22.325 12.0412C22.325 11.2412 21.975 10.4712 21.425 9.95116V9.92116ZM6.63505 12.1412C6.63505 12.3512 6.46505 12.5112 6.26505 12.5112H3.29505C3.08505 12.5112 2.92505 12.3412 2.92505 12.1412V3.31116C2.92505 3.10116 3.09505 2.94116 3.29505 2.94116H6.26505C6.47505 2.94116 6.63505 3.11116 6.63505 3.31116V12.1412Z" fill="currentColor"/>
</svg>
