<svg width="24" height="24" viewBox="0 0 24 24" fill="none" xmlns="http://www.w3.org/2000/svg">
<path d="M12.015 7.16014C11.675 7.16014 11.395 7.44014 11.395 7.78014V12.7401L8.50502 14.6401C8.21502 14.8301 8.13502 15.2201 8.32502 15.5101C8.44502 15.6901 8.64502 15.7901 8.84502 15.7901C8.95502 15.7901 9.07502 15.7601 9.18502 15.6901L12.355 13.6001C12.525 13.4901 12.635 13.2901 12.635 13.0801V7.78014C12.635 7.44014 12.355 7.16014 12.015 7.16014Z" fill="currentColor"/>
<path d="M21.285 14.3401C21.045 14.1001 20.645 14.1001 20.405 14.3401L17.795 16.9501L15.185 14.3401C14.945 14.1001 14.545 14.0901 14.305 14.3401C14.065 14.5901 14.055 14.9801 14.305 15.2201L16.915 17.8301L14.305 20.4401C14.065 20.6801 14.065 21.0801 14.305 21.3201C14.425 21.4401 14.585 21.5001 14.745 21.5001C14.905 21.5001 15.065 21.4401 15.185 21.3201L17.795 18.7101L20.405 21.3201C20.525 21.4401 20.685 21.5001 20.845 21.5001C21.005 21.5001 21.165 21.4401 21.285 21.3201C21.525 21.0801 21.535 20.6801 21.285 20.4401L18.675 17.8301L21.285 15.2201C21.525 14.9801 21.525 14.5801 21.285 14.3401Z" fill="currentColor"/>
<path d="M12.005 1.39014C6.15502 1.39014 1.39502 6.15014 1.39502 12.0001C1.39502 17.8501 6.15502 22.6101 12.005 22.6101C12.355 22.6101 12.625 22.3301 12.625 21.9901C12.625 21.6501 12.345 21.3701 12.005 21.3701C6.84502 21.3701 2.64502 17.1701 2.64502 12.0101C2.64502 6.85014 6.84502 2.64014 12.005 2.64014C17.165 2.64014 21.365 6.84014 21.365 12.0001C21.365 12.3501 21.645 12.6201 21.985 12.6201C22.325 12.6201 22.605 12.3401 22.605 12.0001C22.605 6.15014 17.845 1.39014 12.005 1.39014Z" fill="currentColor"/>
</svg>
