<svg width="24" height="24" viewBox="0 0 24 24" fill="none" xmlns="http://www.w3.org/2000/svg">
<path d="M12.01 7.16477C11.67 7.16477 11.39 7.44477 11.39 7.78477V12.7448L8.5 14.6448C8.21 14.8348 8.13 15.2248 8.32 15.5148C8.44 15.6948 8.64001 15.7948 8.84 15.7948C8.95001 15.7948 9.07 15.7648 9.18001 15.6948L12.35 13.6048C12.52 13.4948 12.63 13.2948 12.63 13.0848V7.78477C12.63 7.44477 12.35 7.16477 12.01 7.16477Z" fill="currentColor"/>
<path d="M12 1.38477C6.15 1.38477 1.38 6.14477 1.38 11.9948C1.38 17.8448 6.15 22.6148 12 22.6148C17.85 22.6048 22.62 17.8348 22.62 11.9948C22.62 6.15477 17.85 1.38477 12 1.38477ZM12.01 21.3748C6.84 21.3748 2.63 17.1548 2.63 11.9948C2.63 6.83477 6.84 2.63477 12 2.63477C17.16 2.63477 21.39 6.83477 21.39 12.0048C21.39 17.1748 17.18 21.3848 12.01 21.3848V21.3748Z" fill="currentColor"/>
</svg>
