<svg width="24" height="24" viewBox="0 0 24 24" fill="none" xmlns="http://www.w3.org/2000/svg">
<path d="M21.7956 11.2098L18.8345 4.78304L15.8735 11.2098M16.8456 9.28088H20.5956M3.04911 12.8043H9.31507M6.1856 11.6761V12.7043M8.36781 12.8043C8.36781 12.8043 7.24513 16.3033 3 18.0528M3.80693 12.8043C3.80693 12.8043 4.92961 16.3033 9.17474 18.0528M13.876 3L14.5776 4.42816M14.5776 4.42816C6.85921 3 5.45586 9.42672 5.45586 9.42672M14.5776 4.42816L13.876 5.85631M11.7709 21.5661L11.0693 20.1379M11.0693 20.1379C18.7877 21.5661 20.191 15.1394 20.191 15.1394M11.0693 20.1379L11.7709 18.7097" stroke="currentColor" stroke-width="1.2" stroke-linecap="round" stroke-linejoin="round"/>
</svg>
