<svg width="24" height="24" viewBox="0 0 24 24" fill="none" xmlns="http://www.w3.org/2000/svg">
<path d="M21.2926 7.65C20.9926 7.5 20.6326 7.635 20.4976 7.935L20.2576 8.43C18.8476 5.175 15.6376 3 11.9926 3C7.77761 3 4.16261 5.865 3.21761 9.96C3.14261 10.275 3.33761 10.605 3.66761 10.68C3.6901 10.68 3.7126 10.6837 3.7351 10.6875C3.75759 10.6912 3.78011 10.695 3.80261 10.695C4.07261 10.695 4.32761 10.515 4.38761 10.23C5.21261 6.675 8.33261 4.2 11.9926 4.2C15.1576 4.2 17.9476 6.09 19.1626 8.925L18.3976 8.595C18.0976 8.46 17.7376 8.595 17.6026 8.91C17.4676 9.21 17.6026 9.57 17.9176 9.705L19.9276 10.575H19.9576L19.9873 10.5826C20.0335 10.5947 20.0729 10.605 20.1226 10.605H20.3026C20.3382 10.605 20.3644 10.5862 20.3961 10.5635C20.4045 10.5575 20.4132 10.5513 20.4226 10.545C20.4426 10.545 20.4626 10.5317 20.4826 10.5183C20.4926 10.5117 20.5026 10.505 20.5126 10.5C20.5876 10.455 20.6326 10.38 20.6776 10.305C20.6776 10.2988 20.6828 10.2951 20.6888 10.2909C20.6973 10.2849 20.7076 10.2776 20.7076 10.26L21.5776 8.445C21.7126 8.145 21.5776 7.785 21.2926 7.65Z" fill="currentColor"/>
<path d="M12.2326 14.88C12.2326 14.88 12.0976 14.835 12.0226 14.835C11.9476 14.835 11.8576 14.85 11.7976 14.88C11.0176 14.805 10.3126 14.475 9.93759 14.115C9.69759 13.875 9.32259 13.875 9.08259 14.115C8.84259 14.355 8.84259 14.73 9.08259 14.97C9.65259 15.54 10.5376 15.93 11.4226 16.065V17.235C11.4226 17.565 11.6926 17.835 12.0226 17.835C12.3526 17.835 12.6226 17.565 12.6226 17.235V16.065C13.2376 15.945 13.7626 15.675 14.1526 15.24C14.8426 14.475 14.8576 13.77 14.7376 13.305C14.5126 12.39 13.6726 11.79 12.9526 11.535C12.8701 11.505 12.7801 11.475 12.6845 11.4431C12.5888 11.4112 12.4876 11.3775 12.3826 11.34C11.6626 11.115 10.6726 10.8 10.5226 10.245C10.4776 10.065 10.5376 9.82499 10.6876 9.62999C10.8226 9.44999 11.1376 9.16499 11.7826 9.16499C12.8776 9.16499 13.5076 9.79499 13.5376 9.82499C13.7626 10.065 14.1376 10.08 14.3776 9.85499C14.6176 9.62999 14.6326 9.25499 14.4076 8.99999L14.4061 8.99851C14.3608 8.95296 13.718 8.30688 12.6076 8.06999V6.77999C12.6076 6.44999 12.3376 6.17999 12.0076 6.17999C11.6776 6.17999 11.4076 6.44999 11.4076 6.77999V8.02499C10.7176 8.11499 10.1176 8.41499 9.72759 8.92499C9.35259 9.41999 9.20259 10.05 9.35259 10.59C9.66487 11.7648 10.9944 12.1877 11.9819 12.5018L12.0076 12.51C12.1876 12.57 12.3676 12.63 12.5326 12.675C13.0576 12.87 13.4776 13.245 13.5676 13.605C13.5976 13.695 13.6576 13.995 13.2526 14.445C12.9976 14.715 12.6376 14.865 12.2176 14.91L12.2326 14.88Z" fill="currentColor"/>
<path d="M19.4777 14.01C19.5527 13.68 19.8677 13.485 20.1977 13.56C20.5277 13.635 20.7227 13.95 20.6477 14.28C19.6877 18.375 16.0877 21.24 11.8727 21.24C8.22768 21.24 5.01768 19.08 3.60768 15.825L3.38268 16.305C3.27768 16.53 3.06768 16.65 2.84268 16.65C2.75268 16.65 2.67768 16.635 2.58768 16.59C2.30268 16.455 2.16768 16.095 2.30268 15.795L3.18768 13.935L3.20268 13.92C3.21768 13.875 3.24768 13.845 3.27768 13.815L3.35268 13.74C3.38268 13.71 3.41268 13.695 3.44268 13.68C3.45207 13.6737 3.46081 13.6674 3.46916 13.6614C3.50085 13.6387 3.52707 13.62 3.56268 13.62H3.78768C3.81768 13.635 3.86268 13.65 3.89268 13.65C3.92268 13.665 3.96768 13.665 3.96768 13.665L5.97768 14.535C6.29268 14.67 6.42768 15.03 6.29268 15.33C6.15768 15.645 5.79768 15.78 5.49768 15.645L4.70268 15.3C5.90268 18.15 8.70768 20.04 11.8727 20.04C15.5327 20.04 18.6527 17.565 19.4777 14.01Z" fill="currentColor"/>
</svg>
