<svg width="24" height="24" viewBox="0 0 24 24" fill="none" xmlns="http://www.w3.org/2000/svg">
<g id="Traveloggers">
<circle id="Ellipse 1814" cx="12" cy="12" r="12" fill="white"/>
<g id="Vector">
<path fill-rule="evenodd" clip-rule="evenodd" d="M12.0975 13.6842C13.2731 13.6842 14.2261 12.7312 14.2261 11.5556C14.2261 10.38 13.2731 9.42693 12.0975 9.42693C10.9219 9.42693 9.96885 10.38 9.96885 11.5556C9.96885 12.7312 10.9219 13.6842 12.0975 13.6842ZM13.6941 11.2895C13.6941 11.7303 13.3367 12.0877 12.8958 12.0877C12.455 12.0877 12.0976 11.7303 12.0976 11.2895C12.0976 10.8486 12.455 10.4912 12.8958 10.4912C13.3367 10.4912 13.6941 10.8486 13.6941 11.2895Z" fill="url(#paint0_linear_4581_252)"/>
<path fill-rule="evenodd" clip-rule="evenodd" d="M23 12C23 18.0751 18.0751 23 12 23C5.92487 23 1 18.0751 1 12C1 5.92487 5.92487 1 12 1C18.0751 1 23 5.92487 23 12ZM8.60933 17.4093H15.3198C16.3323 17.4093 17.1531 16.5887 17.1531 15.5762V11.8216C17.1531 10.8955 17.0242 9.96937 16.6766 9.15545C17.2887 8.35071 17.9236 7.22616 17.2969 6.87825C16.7395 6.56885 15.8643 6.93963 15.2013 7.35155C14.4038 6.82102 13.3103 6.5 11.8315 6.5C10.3298 6.5 9.25851 6.83107 8.5008 7.37642C7.55429 6.96658 6.16194 6.56141 5.97779 7.29804C5.81043 7.96745 6.50926 8.79036 7.11744 9.32715C6.8597 10.0984 6.776 10.96 6.776 11.8216V15.5762C6.776 16.5887 7.59681 17.4093 8.60933 17.4093Z" fill="url(#paint1_linear_4581_252)"/>
<path fill-rule="evenodd" clip-rule="evenodd" d="M15.3198 17.4093H8.60933C7.59681 17.4093 6.776 16.5887 6.776 15.5762V11.8216C6.776 10.96 6.8597 10.0984 7.11744 9.32715C6.50926 8.79036 5.81043 7.96745 5.97779 7.29804C6.16194 6.56141 7.55429 6.96658 8.5008 7.37642C9.25851 6.83107 10.3298 6.5 11.8315 6.5C13.3103 6.5 14.4038 6.82102 15.2013 7.35155C15.8643 6.93963 16.7395 6.56885 17.2969 6.87825C17.9236 7.22616 17.2887 8.35071 16.6766 9.15545C17.0242 9.96937 17.1531 10.8955 17.1531 11.8216V15.5762C17.1531 16.5887 16.3323 17.4093 15.3198 17.4093ZM12.0975 13.6842C13.2731 13.6842 14.2261 12.7312 14.2261 11.5556C14.2261 10.38 13.2731 9.42693 12.0975 9.42693C10.9219 9.42693 9.96885 10.38 9.96885 11.5556C9.96885 12.7312 10.9219 13.6842 12.0975 13.6842Z" fill="white"/>
<path d="M12.8958 12.0877C13.3367 12.0877 13.6941 11.7303 13.6941 11.2895C13.6941 10.8486 13.3367 10.4912 12.8958 10.4912C12.455 10.4912 12.0976 10.8486 12.0976 11.2895C12.0976 11.7303 12.455 12.0877 12.8958 12.0877Z" fill="white"/>
</g>
</g>
<defs>
<linearGradient id="paint0_linear_4581_252" x1="2.48649" y1="9.525" x2="21.8108" y2="9.525" gradientUnits="userSpaceOnUse">
<stop stop-color="#1CB0AB"/>
<stop offset="1" stop-color="#33A5C9"/>
</linearGradient>
<linearGradient id="paint1_linear_4581_252" x1="2.48649" y1="9.525" x2="21.8108" y2="9.525" gradientUnits="userSpaceOnUse">
<stop stop-color="#1CB0AB"/>
<stop offset="1" stop-color="#33A5C9"/>
</linearGradient>
</defs>
</svg>
