<svg width="24" height="24" viewBox="0 0 24 24" fill="none" xmlns="http://www.w3.org/2000/svg">
<path d="M24 12C24 18.6274 18.6274 24 12 24C5.37258 24 0 18.6274 0 12C0 5.37258 5.37258 0 12 0C18.6274 0 24 5.37258 24 12Z" fill="#1D9BF0"/>
<path d="M18.75 7.93196C18.2695 8.14486 17.7534 8.28871 17.2108 8.35373C17.7707 8.01873 18.1895 7.49148 18.3892 6.87035C17.8632 7.18279 17.2875 7.40271 16.6872 7.52055C16.2835 7.0895 15.7488 6.80379 15.166 6.70779C14.5833 6.61178 13.9852 6.71085 13.4645 6.98961C12.9439 7.26836 12.5298 7.71122 12.2866 8.24941C12.0435 8.78761 11.9848 9.39103 12.1197 9.96599C11.0539 9.91248 10.0112 9.63546 9.05939 9.1529C8.10757 8.67035 7.26785 7.99305 6.59472 7.16496C6.36456 7.56198 6.23222 8.0223 6.23222 8.51254C6.23196 8.95387 6.34064 9.38843 6.54862 9.77769C6.75659 10.1669 7.05743 10.4988 7.42444 10.7439C6.99881 10.7304 6.58256 10.6154 6.21036 10.4085V10.443C6.21031 11.062 6.42442 11.6619 6.81635 12.141C7.20829 12.6201 7.7539 12.9488 8.36062 13.0714C7.96577 13.1783 7.5518 13.194 7.14998 13.1174C7.32116 13.65 7.6546 14.1158 8.10363 14.4495C8.55265 14.7831 9.09478 14.968 9.65411 14.9783C8.70461 15.7237 7.53198 16.128 6.32486 16.1262C6.11103 16.1263 5.89738 16.1138 5.68502 16.0888C6.91031 16.8766 8.33665 17.2947 9.79336 17.2931C14.7245 17.2931 17.4203 13.2089 17.4203 9.66679C17.4203 9.55171 17.4174 9.43548 17.4122 9.3204C17.9366 8.9412 18.3892 8.47163 18.7488 7.93369L18.75 7.93196Z" fill="white"/>
</svg>
