<svg xmlns="http://www.w3.org/2000/svg" viewBox="0 0 24 24">
  <path d="M11.68 9.107V6.43a5.036 5.036 0 1110.07 0v3.428h-1.5V6.43a3.536 3.536 0 10-7.07 0v2.678h5.14v9.322a4.178 4.178 0 01-4.178 4.178H6.428a4.178 4.178 0 01-4.179-4.178V9.107h9.43zm-7.93 1.5v7.822a2.678 2.678 0 002.678 2.678h7.714a2.678 2.678 0 002.679-2.678v-7.822H3.749zM10.285 18a.574.574 0 01-.561-.429l-.69-2.305a1.286 1.286 0 011.251-1.552 1.283 1.283 0 011.252 1.539l-.69 2.318a.574.574 0 01-.562.429z" fill="#000" fill-rule="nonzero"/>
</svg>
