<svg width="24" height="24" viewBox="0 0 24 24" fill="none" xmlns="http://www.w3.org/2000/svg">
<path d="M18.6557 15.3294C19.6136 14.487 20.2247 13.2979 20.2247 11.9931C20.2247 10.6883 19.6301 9.51566 18.6557 8.65682M20.605 17.7243C22.2566 16.2709 23.2971 14.2394 23.2971 11.9932C23.2971 9.74697 22.2566 7.71548 20.605 6.26206M5.04647 8.39263H2.80026C1.80929 8.39263 1 9.20193 1 10.1929V13.8099C1 14.8009 1.80929 15.6102 2.80026 15.6102H5.04647C5.64105 15.6102 6.21912 15.8084 6.69808 16.1552L12.5778 20.5816C13.9322 21.6056 15.8646 20.6311 15.8646 18.9465V5.05636C15.8646 3.3552 13.9322 2.39726 12.5778 3.42126L6.68157 7.8476C6.2026 8.21096 5.62453 8.39263 5.02995 8.39263H5.04647Z" stroke="currentColor" stroke-width="1.25" stroke-linecap="round" stroke-linejoin="round"/>
</svg>
