<svg width="24" height="24" fill="none" viewBox="0 0 24 24"  xmlns="http://www.w3.org/2000/svg">
<path fill-rule="evenodd" clip-rule="evenodd" d="M18.3139 1.31885C18.5797 1.44134 18.75 1.7073 18.75 2.00001V22C18.75 22.2927 18.5797 22.5587 18.3139 22.6812C18.048 22.8037 17.7352 22.7603 17.5127 22.5701L9.92316 16.0833H5C4.58579 16.0833 4.25 15.7476 4.25 15.3333V8.66668C4.25 8.25246 4.58579 7.91668 5 7.91668H9.92316L17.5127 1.42988C17.7352 1.2397 18.048 1.19635 18.3139 1.31885ZM17.25 3.62765L10.6873 9.23681C10.5515 9.35289 10.3787 9.41668 10.2 9.41668H5.75V14.5833H10.2C10.3787 14.5833 10.5515 14.6471 10.6873 14.7632L17.25 20.3724V3.62765Z" fill="currentColor"/>
</svg>
