<svg width="24" height="24" fill="none" viewBox="0 0 24 24"  xmlns="http://www.w3.org/2000/svg">
<path fill-rule="evenodd" clip-rule="evenodd" d="M16.6816 18.7131C16.9729 19.0075 16.9729 19.4849 16.6816 19.7793C16.3902 20.0738 15.9179 20.0738 15.6265 19.7793L12.0032 16.1175L8.37983 19.7793C8.08849 20.0738 7.61612 20.0738 7.32478 19.7793C7.03343 19.4849 7.03343 19.0075 7.32478 18.7131L10.9481 15.0513L7.22339 11.2871C6.93205 10.9926 6.93205 10.5153 7.22339 10.2208C7.51474 9.92639 7.9871 9.92639 8.27844 10.2208L12.0032 13.9851L15.7279 10.2208C16.0193 9.92639 16.4916 9.92639 16.783 10.2208C17.0743 10.5153 17.0743 10.9926 16.783 11.2871L13.0582 15.0513L16.6816 18.7131Z" fill="currentColor"/>
<path fill-rule="evenodd" clip-rule="evenodd" d="M21 3.75C21 4.16421 20.6642 4.5 20.25 4.5H3.75C3.33579 4.5 3 4.16421 3 3.75C3 3.33579 3.33579 3 3.75 3H20.25V3C20.6642 3 21 3.33579 21 3.75Z" fill="currentColor"/>
</svg>
