<svg width="24" height="24" viewBox="0 0 24 24" fill="none" xmlns="http://www.w3.org/2000/svg">
<path d="M8.7599 8.31006C8.4099 8.45006 7.9999 8.47006 7.6099 8.37006C6.3599 8.04006 5.1999 8.35006 4.3199 8.78006C3.4399 9.21006 3.2199 10.4501 3.9399 11.1701L12.1899 19.4201C12.9099 20.1401 14.1299 19.9501 14.5799 19.0401C15.0299 18.1301 15.3299 17.0001 14.9899 15.7501C14.8899 15.3701 14.8999 14.9701 15.0399 14.6201M17.47 12L19.6299 9.84006C19.9699 9.50006 19.9299 8.93006 19.5599 8.56006L14.7999 3.80006C14.4299 3.43006 13.8499 3.40006 13.5199 3.73006L11 6.25003M8.0699 15.2901L5.2799 18.0801M5.9899 5.37006L18.4499 17.8401" stroke="currentColor" stroke-width="1.25" stroke-linecap="round" stroke-linejoin="round"/>
</svg>
