<svg width="24" height="24" viewBox="0 0 24 24" fill="none" xmlns="http://www.w3.org/2000/svg">
<path d="M7.54322 13.4703C7.21728 13.1903 6.75641 13.1581 6.42567 13.4324C5.04 14.5816 3.85217 16.3268 3.2573 17.535C2.47322 19.1216 3.57426 20.9998 5.3009 20.9998H18.6844C20.3443 20.9998 21.4745 19.2459 20.8031 17.6894C20.2644 16.4442 18.6925 14.6915 17.186 13.5038C16.8006 13.1999 16.2825 13.2891 15.9385 13.6391C15.3342 14.2543 14.2565 15.0001 12 15.0001C9.54256 15.0001 8.28058 14.1037 7.54322 13.4703Z" fill="currentColor"/>
<path d="M11.9999 11.9999C14.4851 11.9999 16.4999 9.98522 16.4999 7.49996C16.4999 5.0147 14.4851 3 11.9999 3C9.5146 3 7.49989 5.0147 7.49989 7.49996C7.49989 9.98522 9.5146 11.9999 11.9999 11.9999Z" fill="currentColor"/>
</svg>
