<svg width="24" height="24" viewBox="0 0 24 24" fill="none" xmlns="http://www.w3.org/2000/svg">
<path d="M6.96845 14.0779C7.25456 13.8848 7.32997 13.4964 7.13687 13.2102C6.94377 12.9241 6.55529 12.8487 6.26918 13.0418L6.96845 14.0779ZM3.2573 17.535L3.81761 17.8119L3.81801 17.8111L3.2573 17.535ZM20.8031 17.6894L21.377 17.4418L21.3767 17.4412L20.8031 17.6894ZM6.26918 13.0418C4.52688 14.2177 3.40458 15.821 2.69658 17.2589L3.81801 17.8111C4.46129 16.5046 5.45767 15.0976 6.96845 14.0779L6.26918 13.0418ZM2.69698 17.2581C1.7245 19.2259 3.07339 21.6248 5.3009 21.6248V20.3748C4.07513 20.3748 3.22194 19.0172 3.81761 17.8119L2.69698 17.2581ZM5.3009 21.6248H18.6844V20.3748H5.3009V21.6248ZM18.6844 21.6248C20.8108 21.6248 22.2196 19.3951 21.377 17.4418L20.2292 17.9369C20.7295 19.0968 19.8778 20.3748 18.6844 20.3748V21.6248ZM21.3767 17.4412C20.7258 15.9366 19.6361 14.211 17.8211 12.9823L17.1204 14.0174C18.6753 15.07 19.6375 16.5691 20.2295 17.9375L21.3767 17.4412ZM15.8749 7.49996C15.8749 9.64004 14.14 11.3749 11.9999 11.3749V12.6249C14.8303 12.6249 17.1249 10.3304 17.1249 7.49996H15.8749ZM11.9999 11.3749C9.85978 11.3749 8.12489 9.64004 8.12489 7.49996H6.87489C6.87489 10.3304 9.16943 12.6249 11.9999 12.6249V11.3749ZM8.12489 7.49996C8.12489 5.35988 9.85978 3.625 11.9999 3.625V2.375C9.16943 2.375 6.87489 4.66952 6.87489 7.49996H8.12489ZM11.9999 3.625C14.14 3.625 15.8749 5.35988 15.8749 7.49996H17.1249C17.1249 4.66952 14.8303 2.375 11.9999 2.375V3.625Z" fill="currentColor"/>
</svg>
