<svg width="24" height="24" viewBox="0 0 24 24" fill="none" xmlns="http://www.w3.org/2000/svg">
<path d="M11.9846 6.00006C7.16602 6.00006 4.55598 8.4711 2.34749 11.1892C1.88417 11.7607 1.88417 12.5792 2.34749 13.1506C4.55598 15.8842 7.16602 18.3398 12 18.3398C16.834 18.3398 19.4286 15.8688 21.6525 13.1506C22.1158 12.5792 22.1158 11.7607 21.6525 11.1892C19.444 8.45566 16.834 6.00006 12 6.00006H11.9846Z" stroke="currentColor" stroke-width="1.25" stroke-linecap="round" stroke-linejoin="round"/>
<path d="M11.9844 15.2666C13.6903 15.2666 15.0732 13.8837 15.0732 12.1778C15.0732 10.4719 13.6903 9.08898 11.9844 9.08898C10.2785 9.08898 8.89562 10.4719 8.89562 12.1778C8.89562 13.8837 10.2785 15.2666 11.9844 15.2666Z" stroke="currentColor" stroke-width="1.25" stroke-linecap="round" stroke-linejoin="round"/>
</svg>
