<svg width="24" height="24" viewBox="0 0 24 24" fill="none" xmlns="http://www.w3.org/2000/svg">
<path d="M4.91722 7.04816C8.83115 2.98395 15.1726 2.98395 19.0931 7.04816L19.5643 7.53692C19.6111 7.58458 19.6483 7.64177 19.6737 7.70505C19.6991 7.76834 19.7122 7.83642 19.7122 7.9052C19.7122 7.97399 19.6991 8.04207 19.6737 8.10535C19.6483 8.16864 19.6111 8.22582 19.5643 8.27349L17.9533 9.94764C17.9052 9.99525 17.8419 10.0217 17.7761 10.0217C17.7103 10.0217 17.647 9.99525 17.5989 9.94764L16.9498 9.27715C15.6252 7.91353 13.8518 7.15082 12.0058 7.15082C10.1598 7.15082 8.38638 7.91353 7.06177 9.27715L6.36985 9.99445C6.3227 10.044 6.25902 10.0717 6.19266 10.0717C6.12629 10.0717 6.06261 10.044 6.01546 9.99445L4.40055 8.3203C4.35379 8.27263 4.31658 8.21545 4.29117 8.15216C4.26575 8.08888 4.25265 8.0208 4.25265 7.95201C4.25265 7.88322 4.26575 7.81515 4.29117 7.75186C4.31658 7.68858 4.35379 7.63139 4.40055 7.58373L4.91722 7.04816ZM22.4241 10.5066L23.8521 11.9935C23.8989 12.0412 23.9361 12.0984 23.9615 12.1617C23.9869 12.2249 24 12.293 24 12.3618C24 12.4306 23.9869 12.4987 23.9615 12.5619C23.9361 12.6252 23.8989 12.6824 23.8521 12.7301L17.386 19.446C17.2915 19.5447 17.1642 19.6 17.0316 19.6C16.899 19.6 16.7717 19.5447 16.6772 19.446L12.0908 14.6755C12.0668 14.6518 12.0353 14.6387 12.0025 14.6387C11.9698 14.6387 11.9383 14.6518 11.9143 14.6755L7.32659 19.4432C7.23212 19.5419 7.10482 19.5972 6.9722 19.5972C6.83958 19.5972 6.71228 19.5419 6.6178 19.4432L0.147799 12.7342C0.101072 12.6867 0.0638916 12.6296 0.0384924 12.5664C0.0130933 12.5033 0 12.4353 0 12.3666C0 12.2979 0.0130933 12.23 0.0384924 12.1668C0.0638916 12.1036 0.101072 12.0466 0.147799 11.999L1.57577 10.5121C1.67057 10.4141 1.79775 10.3592 1.93017 10.3592C2.06259 10.3592 2.18976 10.4141 2.28456 10.5121L6.87613 15.2799C6.90021 15.3039 6.93201 15.3172 6.96506 15.3172C6.9981 15.3172 7.02991 15.3039 7.05398 15.2799L11.6404 10.5121C11.7352 10.4141 11.8623 10.3592 11.9948 10.3592C12.1272 10.3592 12.2544 10.4141 12.3492 10.5121L16.9407 15.2799C16.9648 15.3039 16.9966 15.3172 17.0296 15.3172C17.0627 15.3172 17.0945 15.3039 17.1186 15.2799L21.7101 10.5121C21.7565 10.4617 21.8118 10.4216 21.8729 10.394C21.934 10.3664 21.9997 10.3519 22.0661 10.3514C22.1324 10.3509 22.1983 10.3644 22.2597 10.391C22.3212 10.4176 22.3771 10.4569 22.4241 10.5066Z" fill="#3A99FC"/>
</svg>
