<svg width="24" height="24" viewBox="0 0 24 24" fill="none" xmlns="http://www.w3.org/2000/svg">
<path fill-rule="evenodd" clip-rule="evenodd" d="M13.7364 4.03885C12.9687 2.69522 11.0313 2.69522 10.2635 4.03885L2.70983 17.2577C1.94793 18.591 2.91067 20.25 4.44631 20.25H19.5536C21.0892 20.25 22.052 18.591 21.2901 17.2577L13.7364 4.03885ZM12.75 8C12.75 7.58579 12.4142 7.25 12 7.25C11.5858 7.25 11.25 7.58579 11.25 8V14.087C11.25 14.5012 11.5858 14.837 12 14.837C12.4142 14.837 12.75 14.5012 12.75 14.087V8ZM12 18C12.5523 18 13 17.5523 13 17C13 16.4477 12.5523 16 12 16C11.4477 16 11 16.4477 11 17C11 17.5523 11.4477 18 12 18Z" fill="currentColor"/>
</svg>
