<svg xmlns="http://www.w3.org/2000/svg" width="16" height="16" viewBox="0 0 16 16">
    <g fill="none" fill-rule="evenodd">
        <path d="M0 0h16v16H0z"/>
        <path fill="#39C327" fill-rule="nonzero" d="M13.669 2.325A7.934 7.934 0 0 0 8.033 0C3.643 0 .07 3.556.067 7.928c0 1.397.366 2.761 1.063 3.964L0 16l4.223-1.102a7.991 7.991 0 0 0 3.807.965h.003c4.391 0 7.965-3.557 7.967-7.929 0-2.118-.827-4.11-2.331-5.609zM8.033 14.524h-.002a6.635 6.635 0 0 1-3.37-.919l-.242-.143-2.506.654.669-2.431-.158-.25a6.551 6.551 0 0 1-1.012-3.507C1.413 4.295 4.384 1.34 8.036 1.34c1.769 0 3.431.687 4.681 1.933a6.534 6.534 0 0 1 1.938 4.662c-.002 3.633-2.972 6.59-6.622 6.59zm3.633-4.936c-.2-.099-1.178-.578-1.36-.644-.183-.067-.316-.1-.449.099-.132.198-.514.644-.63.777-.116.132-.232.148-.431.05-.2-.1-.84-.31-1.6-.984-.593-.525-.992-1.174-1.108-1.373-.116-.198-.013-.305.087-.404.09-.089.2-.231.299-.347.1-.116.132-.198.199-.33.066-.133.033-.248-.017-.348-.05-.099-.448-1.074-.614-1.47-.161-.387-.325-.334-.448-.34a8.016 8.016 0 0 0-.381-.007.733.733 0 0 0-.53.247c-.183.199-.698.678-.698 1.653s.714 1.917.813 2.05c.1.132 1.404 2.133 3.4 2.99.476.205.846.327 1.136.418.476.15.91.13 1.253.079.383-.057 1.178-.48 1.344-.942.166-.463.166-.86.116-.942-.05-.083-.182-.133-.381-.232z"/>
    </g>
</svg>
