<svg width="16" height="16" viewBox="0 0 16 16" fill="none" xmlns="http://www.w3.org/2000/svg">
<path fill-rule="evenodd" clip-rule="evenodd" d="M8 16C12.4183 16 16 12.4183 16 8C16 3.58172 12.4183 0 8 0C3.58172 0 0 3.58172 0 8C0 12.4183 3.58172 16 8 16Z" fill="#DC752B"/>
<path d="M12.652 10.9466C12.5023 11.0963 12.2884 11.1258 12.1752 11.0127L11.0096 9.84706C10.8862 9.72368 10.653 9.75655 10.4897 9.91985L9.93299 10.4766C9.76943 10.6401 9.737 10.8733 9.8602 10.9965L11.0258 12.1621C11.1387 12.275 11.1084 12.4886 10.9587 12.6383C10.9093 12.6877 10.8495 12.7262 10.7865 12.7494C9.98061 13.0453 9.20007 12.9407 8.69888 12.4692C8.13808 11.9422 8.03278 11.0224 8.43026 10.126L8.4344 10.1166L5.88133 7.56349L5.87186 7.56763C4.97526 7.96537 4.05527 7.85988 3.52842 7.29926C3.05722 6.79782 2.95233 6.01753 3.24828 5.21169C3.27167 5.14838 3.30991 5.08884 3.35931 5.03945C3.509 4.88975 3.7228 4.8596 3.83554 4.97234L5.00114 6.13794C5.12453 6.26133 5.35778 6.22846 5.52109 6.06515L6.07753 5.50871C6.24109 5.34515 6.27352 5.11196 6.15032 4.98877L4.98453 3.82297C4.87122 3.70966 4.90093 3.49592 5.05062 3.34623C5.09876 3.29809 5.1569 3.26048 5.21863 3.23753C6.04897 2.93078 6.84433 3.04722 7.34623 3.54913C7.88711 4.09001 7.97747 4.97571 7.58222 5.86069L7.57808 5.87016L10.1275 8.41962L10.137 8.41548C11.022 8.02023 11.9079 8.11078 12.4486 8.65147C12.9505 9.15337 13.0669 9.94873 12.7602 10.7791C12.7373 10.8414 12.7006 10.8979 12.652 10.9466Z" fill="white"/>
</svg>
