<svg width="24" height="24" viewBox="0 0 24 24" fill="none" xmlns="http://www.w3.org/2000/svg">

<path d="M18.7801 7.21997H8.21008C7.66008 7.21997 7.21008 6.76997 7.21008 6.21997C7.21008 5.66997 7.66008 5.21997 8.21008 5.21997H18.7801C19.3301 5.21997 19.7801 5.66997 19.7801 6.21997C19.7801 6.76997 19.3301 7.21997 18.7801 7.21997Z" fill="currentColor"/>
<path d="M18.7801 12.5801H8.21008C7.66008 12.5801 7.21008 12.1301 7.21008 11.5801C7.21008 11.0301 7.66008 10.5801 8.21008 10.5801H18.7801C19.3301 10.5801 19.7801 11.0301 19.7801 11.5801C19.7801 12.1301 19.3301 12.5801 18.7801 12.5801Z" fill="currentColor"/>
<path d="M18.7801 17.9399H8.21008C7.66008 17.9399 7.21008 17.4899 7.21008 16.9399C7.21008 16.3899 7.66008 15.9399 8.21008 15.9399H18.7801C19.3301 15.9399 19.7801 16.3899 19.7801 16.9399C19.7801 17.4899 19.3301 17.9399 18.7801 17.9399Z" fill="currentColor"/>
<path d="M4.57001 5.67L4.18001 5.79C4.14001 5.76 4.1 5.73 4.06 5.68C4.02 5.63 4 5.57 4 5.48C4 5.32 4.09999 5.21 4.28999 5.15L4.73 5H4.88C4.99 5 5.07999 5.03 5.14999 5.1C5.21999 5.17 5.25 5.25 5.25 5.37V7.42C5.22 7.43 5.18 7.43 5.12 7.44C5.06 7.45 5.01 7.45 4.95 7.45C4.89 7.45 4.83999 7.45 4.78999 7.44C4.73999 7.43 4.71 7.42 4.67 7.39C4.64 7.37 4.61001 7.33 4.60001 7.29C4.58001 7.25 4.57001 7.2 4.57001 7.13V5.67Z" fill="currentColor"/>
<path d="M4.90996 10.29C5.05996 10.29 5.18995 10.31 5.30995 10.35C5.42995 10.39 5.51996 10.44 5.59996 10.51C5.67996 10.58 5.73995 10.65 5.77995 10.74C5.81995 10.83 5.83995 10.92 5.83995 11.03C5.83995 11.31 5.67995 11.57 5.36995 11.82L4.84996 12.23H5.78995C5.80995 12.26 5.81995 12.3 5.83995 12.34C5.84995 12.38 5.85995 12.43 5.85995 12.49C5.85995 12.58 5.83996 12.65 5.79996 12.69C5.75996 12.73 5.69996 12.75 5.62996 12.75H4.26996C4.20996 12.71 4.16996 12.66 4.12996 12.6C4.08996 12.54 4.07996 12.47 4.07996 12.38C4.07996 12.29 4.09995 12.22 4.13995 12.15C4.17995 12.09 4.21995 12.04 4.25995 12L4.79996 11.54C4.86996 11.48 4.91996 11.43 4.96996 11.38C5.00996 11.33 5.04996 11.29 5.07996 11.26C5.10996 11.22 5.12995 11.19 5.13995 11.16C5.14995 11.13 5.15996 11.1 5.15996 11.07C5.15996 11 5.12995 10.94 5.05995 10.9C4.99995 10.86 4.91996 10.84 4.81996 10.84C4.71996 10.84 4.61995 10.86 4.53995 10.89C4.45995 10.92 4.38996 10.96 4.32996 10.99C4.28996 10.96 4.24996 10.92 4.21996 10.87C4.18996 10.82 4.17996 10.77 4.17996 10.7C4.17996 10.56 4.23995 10.46 4.36995 10.4C4.50995 10.32 4.68996 10.29 4.90996 10.29Z" fill="currentColor"/>
<path d="M4.87006 15.54C5.17006 15.54 5.40006 15.6 5.56006 15.73C5.72006 15.85 5.80006 16.02 5.80006 16.23C5.80006 16.36 5.77006 16.46 5.70006 16.55C5.63006 16.64 5.55007 16.7 5.46007 16.75C5.52007 16.77 5.57006 16.8 5.61006 16.83C5.66006 16.86 5.70007 16.9 5.74007 16.95C5.78007 17 5.81006 17.05 5.83006 17.12C5.85006 17.18 5.86006 17.26 5.86006 17.34C5.86006 17.45 5.84005 17.55 5.79005 17.64C5.74005 17.73 5.67006 17.81 5.59006 17.87C5.50006 17.93 5.40006 17.98 5.28006 18.01C5.16006 18.04 5.03006 18.06 4.89006 18.06C4.62006 18.06 4.41007 18.02 4.27007 17.95C4.13007 17.87 4.06006 17.78 4.06006 17.66C4.06006 17.59 4.08006 17.53 4.11006 17.48C4.14006 17.43 4.19007 17.39 4.24007 17.36C4.29007 17.4 4.36006 17.44 4.45006 17.48C4.54006 17.52 4.65005 17.54 4.79005 17.54C4.92005 17.54 5.02006 17.52 5.09006 17.47C5.15006 17.42 5.19006 17.36 5.19006 17.29C5.19006 17.22 5.16006 17.16 5.11006 17.12C5.06006 17.08 4.97006 17.06 4.84006 17.06H4.47006C4.45006 17.03 4.44006 17 4.42006 16.95C4.41006 16.91 4.40005 16.86 4.40005 16.8C4.40005 16.74 4.41006 16.69 4.42006 16.64C4.43006 16.6 4.45006 16.56 4.47006 16.53H4.84006C5.03006 16.53 5.12006 16.46 5.12006 16.31C5.12006 16.24 5.09006 16.19 5.03006 16.14C4.97006 16.09 4.88006 16.08 4.76006 16.08C4.65006 16.08 4.56006 16.09 4.48006 16.12C4.40006 16.14 4.33006 16.18 4.28006 16.21C4.24006 16.18 4.20006 16.14 4.17006 16.09C4.14006 16.04 4.13007 15.99 4.13007 15.93C4.13007 15.8 4.20006 15.7 4.33006 15.64C4.46006 15.57 4.65006 15.54 4.87006 15.54Z" fill="currentColor"/>
</svg>
