<svg width="24" height="24" viewBox="0 0 24 24" fill="none" xmlns="http://www.w3.org/2000/svg">
<path d="M13.5714 17.625H14.4286C14.5422 17.625 14.6512 17.5806 14.7316 17.5014C14.812 17.4223 14.8571 17.315 14.8571 17.2031V9.60938C14.8571 9.49749 14.812 9.39018 14.7316 9.31106C14.6512 9.23195 14.5422 9.1875 14.4286 9.1875H13.5714C13.4578 9.1875 13.3488 9.23195 13.2684 9.31106C13.188 9.39018 13.1429 9.49749 13.1429 9.60938V17.2031C13.1429 17.315 13.188 17.4223 13.2684 17.5014C13.3488 17.5806 13.4578 17.625 13.5714 17.625ZM19.4286 5.8125H16.4854L15.2711 3.81914C15.1187 3.56919 14.9031 3.36235 14.6454 3.2188C14.3876 3.07524 14.0965 2.99986 13.8004 3H10.1996C9.90362 2.99998 9.61264 3.07542 9.35504 3.21897C9.09743 3.36252 8.88197 3.56929 8.72964 3.81914L7.51464 5.8125H4.57143C4.41988 5.8125 4.27453 5.87176 4.16737 5.97725C4.0602 6.08274 4 6.22582 4 6.375V6.9375C4 7.08668 4.0602 7.22976 4.16737 7.33525C4.27453 7.44074 4.41988 7.5 4.57143 7.5H5.14286V19.3125C5.14286 19.7601 5.32347 20.1893 5.64496 20.5057C5.96645 20.8222 6.40249 21 6.85714 21H17.1429C17.5975 21 18.0336 20.8222 18.355 20.5057C18.6765 20.1893 18.8571 19.7601 18.8571 19.3125V7.5H19.4286C19.5801 7.5 19.7255 7.44074 19.8326 7.33525C19.9398 7.22976 20 7.08668 20 6.9375V6.375C20 6.22582 19.9398 6.08274 19.8326 5.97725C19.7255 5.87176 19.5801 5.8125 19.4286 5.8125ZM10.1371 4.7898C10.1562 4.75851 10.1833 4.73264 10.2156 4.7147C10.2479 4.69677 10.2843 4.6874 10.3214 4.6875H13.6786C13.7156 4.68746 13.752 4.69686 13.7842 4.71479C13.8165 4.73272 13.8434 4.75856 13.8625 4.7898L14.4861 5.8125H9.51393L10.1371 4.7898ZM17.1429 19.3125H6.85714V7.5H17.1429V19.3125ZM9.57143 17.625H10.4286C10.5422 17.625 10.6512 17.5806 10.7316 17.5014C10.812 17.4223 10.8571 17.315 10.8571 17.2031V9.60938C10.8571 9.49749 10.812 9.39018 10.7316 9.31106C10.6512 9.23195 10.5422 9.1875 10.4286 9.1875H9.57143C9.45776 9.1875 9.34876 9.23195 9.26838 9.31106C9.18801 9.39018 9.14286 9.49749 9.14286 9.60938V17.2031C9.14286 17.315 9.18801 17.4223 9.26838 17.5014C9.34876 17.5806 9.45776 17.625 9.57143 17.625Z" fill="currentColor"/>
</svg>
