<svg width="24" height="24" viewBox="0 0 24 24" fill="none" xmlns="http://www.w3.org/2000/svg">
<rect width="24" height="24" rx="12" fill="#C0A46B"/>
<g clip-path="url(#clip0_9242_51414)">
<path d="M10.8821 9.43692C12.8513 8.47446 15.3451 8.76361 17.0031 10.3044C19.0434 12.2004 19.0434 15.2737 17.0031 17.1697C14.9628 19.0657 11.6556 19.0657 9.61528 17.1697C9.09233 16.6837 8.16406 15.4439 8.16406 14.204" stroke="white" stroke-width="0.8" stroke-miterlimit="10" stroke-linecap="round" stroke-linejoin="round"/>
<path d="M15.1452 13.6211C15.1452 13.6211 16.0387 12.8528 15.1141 11.9936C14.1895 11.1344 13.2649 11.7582 12.9449 12.2291C12.6248 12.7 13.2338 13.4435 13.4872 13.7988C13.7406 14.154 14.2829 15.071 13.4561 15.6659C12.6293 16.2566 11.7047 16.05 11.0335 15.2528C10.3623 14.4555 10.6823 13.2903 11.0334 12.9639" stroke="white" stroke-width="0.8" stroke-miterlimit="10" stroke-linecap="round" stroke-linejoin="round"/>
<path d="M15.1138 11.9897L15.7894 11.3618" stroke="white" stroke-width="0.8" stroke-miterlimit="10" stroke-linecap="round" stroke-linejoin="round"/>
<path d="M10.7573 16.0379L11.3041 15.5298" stroke="white" stroke-width="0.8" stroke-miterlimit="10" stroke-linecap="round" stroke-linejoin="round"/>
<path d="M5.4668 5.70312C5.4668 5.70312 9.63766 8.42893 10.5845 9.30878C11.5313 10.1886 12.4692 11.6468 11.5268 12.5225C10.2466 13.7122 9.16203 12.8695 7.59734 12.0847C7.08171 11.8244 5.7594 11.0486 5.7594 11.0486" stroke="white" stroke-width="0.8" stroke-miterlimit="10" stroke-linecap="round" stroke-linejoin="round"/>
<path d="M10.9131 5.5249L11.5239 7.38468" stroke="white" stroke-width="0.8" stroke-miterlimit="10" stroke-linecap="round" stroke-linejoin="round"/>
</g>
<defs>
<clipPath id="clip0_9242_51414">
<rect width="14" height="14" fill="white" transform="translate(5 5)"/>
</clipPath>
</defs>
</svg>
