<svg width="16" height="16" viewBox="0 0 16 16" fill="none" xmlns="http://www.w3.org/2000/svg">
<path fill-rule="evenodd" clip-rule="evenodd" d="M8 16C12.4183 16 16 12.4183 16 8C16 3.58172 12.4183 0 8 0C3.58172 0 0 3.58172 0 8C0 12.4183 3.58172 16 8 16Z" fill="url(#paint0_linear_1756:2499)"/>
<path fill-rule="evenodd" clip-rule="evenodd" d="M9.74778 11.934H6.20077C5.0962 11.934 4.20077 11.0386 4.20077 9.93406V7.87026C4.20077 7.24365 4.26164 6.61703 4.44909 6.05611C4.00678 5.66572 3.49854 5.06723 3.62025 4.58039C3.75418 4.04466 4.76679 4.33933 5.45517 4.6374C6.00623 4.24078 6.78537 4 7.87752 4C8.95297 4 9.74825 4.23347 10.3283 4.61931C10.8104 4.31973 11.447 4.05007 11.8523 4.27509C12.3081 4.52811 11.8464 5.34597 11.4012 5.93123C11.654 6.52318 11.7478 7.19672 11.7478 7.87026V9.93406C11.7478 11.0386 10.8524 11.934 9.74778 11.934ZM9.61905 7.67678C9.61905 8.53178 8.92594 9.22489 8.07095 9.22489C7.21595 9.22489 6.52284 8.53178 6.52284 7.67678C6.52284 6.82179 7.21595 6.12868 8.07095 6.12868C8.92594 6.12868 9.61905 6.82179 9.61905 7.67678ZM8.65154 8.06378C8.97216 8.06378 9.23208 7.80386 9.23208 7.48324C9.23208 7.16262 8.97216 6.9027 8.65154 6.9027C8.33092 6.9027 8.071 7.16262 8.071 7.48324C8.071 7.80386 8.33092 8.06378 8.65154 8.06378Z" fill="white"/>
<defs>
<linearGradient id="paint0_linear_1756:2499" x1="1.08108" y1="6.2" x2="15.1351" y2="6.2" gradientUnits="userSpaceOnUse">
<stop stop-color="#1CB0AB"/>
<stop offset="1" stop-color="#33A5C9"/>
</linearGradient>
</defs>
</svg>
