<svg width="24" height="24" fill="none" viewBox="0 0 24 24"  xmlns="http://www.w3.org/2000/svg">
<path fill-rule="evenodd" clip-rule="evenodd" d="M15 19.0004C15 17.6198 16.1193 16.5005 17.5 16.5005V16.5005C18.8806 16.5005 19.9999 17.6198 19.9999 19.0004V19.0004C19.9999 20.3811 18.8806 21.5004 17.5 21.5004V21.5004C16.1193 21.5004 15 20.3811 15 19.0004V19.0004Z" stroke="currentColor" stroke-width="1.5" stroke-linecap="round" stroke-linejoin="round"/>
<path d="M15 19H7.6041C6.1659 19 5 17.8341 5 16.3959V1" stroke="currentColor" stroke-width="1.5" stroke-linecap="round" stroke-linejoin="round"/>
<path d="M5.55556 9.25H14.4444" stroke="currentColor" stroke-width="1.5" stroke-linecap="round" stroke-linejoin="round"/>
<path fill-rule="evenodd" clip-rule="evenodd" d="M15 8.99995C15 7.61927 16.1193 6.5 17.5 6.5V6.5C18.8806 6.5 19.9999 7.61927 19.9999 8.99995V8.99995C19.9999 10.3806 18.8806 11.4999 17.5 11.4999V11.4999C16.1193 11.4999 15 10.3806 15 8.99995V8.99995Z" stroke="currentColor" stroke-width="1.5" stroke-linecap="round" stroke-linejoin="round"/>
</svg>
