<svg width="33" height="32" viewBox="0 0 33 32" fill="none" xmlns="http://www.w3.org/2000/svg">
<path fill-rule="evenodd" clip-rule="evenodd" d="M26.6742 26.3018L22.0976 20.8228C22.0976 20.8228 22.0229 20.7394 21.9803 20.6976C23.8792 18.9339 25.0633 16.4293 25.0633 13.6533C25.074 8.33094 20.7214 4 15.3234 4C9.92529 4 5.58337 8.33094 5.58337 13.6533C5.58337 18.9757 9.93596 23.3066 15.3234 23.3066C17.1476 23.3066 18.8652 22.8057 20.316 21.9395C20.348 22.0126 20.3907 22.0752 20.444 22.1378L25.0207 27.6167C25.394 28.0654 26.0661 28.1281 26.5249 27.7628C26.9836 27.3975 27.0476 26.7401 26.6742 26.2913V26.3018ZM21.1588 16.9302C21.1055 17.0137 21.0521 17.0868 21.0095 17.1389C20.9881 17.1598 20.9668 17.1807 20.9561 17.2016L20.9348 17.2224V17.2329C20.5401 17.6607 19.868 17.692 19.4306 17.3059C18.9932 16.9198 18.9612 16.2727 19.3452 15.8449C19.3452 15.8344 19.3772 15.8031 19.3986 15.7718C19.4519 15.6988 19.5266 15.5631 19.6119 15.3857C19.772 15.0309 19.932 14.4673 19.868 13.7159C19.8146 12.9541 19.5693 12.4323 19.3666 12.0983C19.2599 11.9314 19.1639 11.8166 19.0999 11.7435C19.0679 11.7122 19.0465 11.6809 19.0359 11.6705C18.5985 11.2948 18.5345 10.6477 18.9078 10.2094C19.2812 9.77111 19.9533 9.7085 20.412 10.0738V10.0842L20.4334 10.1051C20.4334 10.1051 20.4654 10.1364 20.4974 10.1572C20.5401 10.199 20.6041 10.2616 20.6787 10.3347C20.8174 10.4912 20.9988 10.7104 21.1801 10.9921C21.5429 11.5661 21.9056 12.4219 21.9909 13.5489C22.0763 14.676 21.8309 15.5735 21.5642 16.1997C21.4255 16.5128 21.2868 16.7528 21.1695 16.9198L21.1588 16.9302Z" fill="currentColor"/>
</svg>
