<svg width="88" height="88" viewBox="0 0 88 88" fill="none" xmlns="http://www.w3.org/2000/svg">
<path fill-rule="evenodd" clip-rule="evenodd" d="M11 33.121C11 20.9039 20.7712 11 32.8247 11L51.5086 11C63.5621 11 73.3333 20.9039 73.3333 33.1209V43.4059C73.3333 55.623 63.5621 65.5269 51.5086 65.5269H50.8212L35.1691 76.6426C34.5741 77.0651 33.7966 77.117 33.1521 76.7771C32.5077 76.4371 32.1034 75.762 32.1034 75.0256V65.515C20.3838 65.1293 11 55.3784 11 43.4059V33.121ZM32.8247 14.9487C22.9229 14.9487 14.8958 23.0847 14.8958 33.121L14.8958 43.4059C14.8958 53.4422 22.9228 61.5782 32.8247 61.5782H34.0513C35.1271 61.5782 35.9992 62.4621 35.9992 63.5525V71.2315L48.8322 62.1179C49.3268 61.7666 49.9162 61.5782 50.5202 61.5782H51.5086C61.4105 61.5782 69.4375 53.4422 69.4375 43.4059V33.1209C69.4375 23.0847 61.4105 14.9487 51.5086 14.9487L32.8247 14.9487Z" fill="currentColor"/>
</svg>
