<svg width="88" height="88" viewBox="0 0 88 88" fill="none" xmlns="http://www.w3.org/2000/svg">
<path fill-rule="evenodd" clip-rule="evenodd" d="M25.181 19.0928C25.2596 19.3368 25.3613 19.6524 25.0936 19.8911C24.8416 20.1158 24.5897 20 24.3378 19.8843C24.3126 19.8727 24.2874 19.8611 24.2622 19.8499C23.1141 19.3144 18.4029 16.3898 17.4923 15.6895C17.0569 15.3188 17.0173 14.9481 17.2152 14.5773C17.4528 14.083 18.007 13.5063 18.9572 12.6413C19.9073 11.7763 20.5408 11.282 21.0554 11.076C21.4513 10.9112 21.8076 10.9936 22.0848 11.5291C22.639 12.6001 24.7769 17.8315 25.1728 19.0673C25.1755 19.0757 25.1782 19.0842 25.181 19.0928ZM58.9391 44.1935C58.1869 44.8937 57.3951 45.1821 56.6825 44.523C56.0094 43.8639 56.1282 42.9577 56.7221 42.1339C61.8291 36.4494 66.5403 29.8175 68.7969 24.8744C69.7471 22.7736 70.4597 20.6316 70.6973 19.3547C70.9744 17.8718 70.3805 16.9656 69.5491 16.7596C68.9553 16.636 68.1239 17.0479 67.728 18.2013C67.6591 18.3984 67.5902 18.6092 67.5152 18.8387L67.515 18.8394L67.515 18.8395L67.5147 18.8402C67.245 19.6656 66.8961 20.7331 66.184 22.2793C64.3629 26.2749 60.4039 33.6483 53.3965 39.8683C52.486 40.6922 51.6942 40.3626 51.2587 39.8683C50.8232 39.374 50.7044 38.3854 51.5754 37.5616C59.335 30.2706 63.3731 22.4853 64.3629 19.1075C64.7588 17.7482 64.2045 17.0479 63.7295 16.9244C63.2544 16.7596 61.9083 16.7596 61.3937 18.0365C60.2456 20.8376 58.8599 23.927 54.4259 29.076C50.2293 34.019 43.4991 39.4976 39.6193 42.2163C37.8773 43.4108 36.3333 43.9051 34.9081 43.0401C33.087 41.9279 33.2849 39.5388 33.4433 38.509C33.7996 36.4082 34.8289 30.1882 35.5415 25.2863C35.9374 22.5677 34.5518 22.1969 33.7996 22.1146C33.087 22.0322 32.3348 22.4441 31.8201 23.8034C31.3054 25.1628 28.3758 33.2776 26.6734 40.5274C25.367 46.0059 25.6045 52.2259 26.3171 55.5213C26.713 57.4985 26.5942 58.3635 26.3567 59.105C26.1689 59.7562 25.7338 60.6906 25.1099 62.0302C24.9446 62.3852 24.7659 62.7687 24.5752 63.183C24.2804 63.8435 23.7131 65.0173 23.1556 66.1707L23.1555 66.1709L23.1551 66.1717L23.1546 66.1726C22.7389 67.0326 22.3288 67.8811 22.0414 68.4968C22.0216 68.5174 22.0117 68.5379 22.0018 68.5585C21.9919 68.5791 21.982 68.5997 21.9622 68.6203C21.3684 69.7325 20.0619 70.1032 19.0326 69.5266C18.0429 68.9499 17.6866 67.6729 18.122 66.6019C18.9464 64.5688 20.3359 62.2661 21.546 60.2608L21.5462 60.2604C21.9051 59.6657 22.2482 59.0971 22.5561 58.5695C22.7936 58.1988 22.8728 57.7456 22.7936 57.3337C21.6851 50.2487 21.8831 44.0699 23.1103 38.7973C24.4636 32.9412 26.0319 28.8253 27.1285 25.9475C27.4434 25.1209 27.7195 24.3964 27.9403 23.7622C29.6427 18.9016 32.7307 18.2837 34.7893 18.572C37.2835 18.9016 39.5005 20.8788 39.1046 25.1628C38.9444 26.9409 38.2619 31.6048 37.7859 34.8572L37.7859 34.8578L37.7855 34.8604L37.785 34.8636L37.7848 34.8649C37.5556 36.431 37.3745 37.6687 37.3231 38.0971C37.2043 38.9621 38.0753 39.0445 38.6691 38.6326C42.1134 36.2846 47.656 31.7947 51.6546 27.0576C55.9699 22.1146 57.4347 19.1487 58.4244 16.9656C59.8101 13.9173 61.7104 13.2995 63.6107 13.3407C64.6796 13.3818 65.4318 13.9173 65.9069 14.4528C66.0257 14.6176 66.2632 14.6588 66.4216 14.5352C67.6092 13.6702 68.9949 13.2995 70.5389 13.629C72.7163 14.1233 74.5375 16.842 73.904 19.849C73.7853 20.4669 73.5873 21.3731 73.3894 22.1146C73.3894 22.2793 73.4685 22.4441 73.6269 22.4853C76.7149 23.1444 77.3087 25.9866 76.8733 28.2934C76.5565 29.9822 75.7252 32.2066 73.9436 35.3784C73.9208 35.4021 73.9112 35.4121 73.9071 35.4242C73.9057 35.4282 73.905 35.4325 73.9045 35.4375L73.9041 35.4488L73.904 35.4608C73.8644 35.6255 73.9436 35.7903 74.102 35.8315C76.4378 36.4906 77.7442 40.3214 75.2105 44.8113C74.2999 46.4178 70.9348 51.814 68.5198 54.3267C63.1752 59.8464 59.4538 63.3066 50.3085 67.6317C47.5372 68.9499 45.7557 71.133 44.9243 72.5748C43.2541 75.4975 43.2581 75.5421 43.2613 75.5771L43.2615 75.5818C43.2615 75.6024 43.2516 75.623 43.2417 75.6436C43.2319 75.6642 43.222 75.6848 43.222 75.7054C42.7073 76.8587 41.4008 77.3119 40.3319 76.7764C39.2234 76.2409 38.8275 74.7991 39.3422 73.687L39.4233 73.5383C39.6275 73.1635 40.0771 72.3381 41.2029 70.3504C42.6281 67.7965 45.0035 66.1488 48.2103 64.4187C57.3555 59.4757 62.1063 56.4687 66.857 50.949C68.599 48.9306 72.9935 42.9165 73.4289 41.2688C73.7061 40.2802 73.5477 39.4152 72.7163 39.2504C72.1621 39.1269 71.5286 39.4152 71.0536 40.1567C69.1532 42.9989 66.8966 45.7176 63.5711 49.2601C62.7001 50.1663 61.7896 50.2075 61.2353 49.672C60.681 49.1365 60.5623 48.2715 61.1957 47.6124C67.6093 40.7333 70.8556 35.2136 73.1914 30.1882C74.0624 28.2934 74.102 26.5633 73.1122 26.1514C72.2808 25.8218 71.5286 26.3161 71.1327 27.1812C69.3512 31.3004 64.0066 39.168 58.9391 44.1935ZM42.1591 30.932C41.209 30.932 40.4172 30.1081 40.4172 29.1195C40.4172 28.584 40.6151 28.0897 41.011 27.7602C45.9597 23.2291 48.1372 19.5218 48.5331 18.7803C49.9979 16.144 52.3337 14.7847 54.7487 15.1142C55.6988 15.2378 56.3718 16.1852 56.2531 17.1738C56.1343 18.1624 55.2633 18.8627 54.3132 18.7391C52.8879 18.5332 51.9378 19.9749 51.5815 20.5928C51.146 21.3754 48.6914 25.577 43.3468 30.4788C43.0301 30.8084 42.5946 30.932 42.1591 30.932ZM12.7419 61.785C11.7918 61.785 11 60.9611 11 59.9725C11 59.437 11.2375 58.9015 11.6334 58.572C13.3754 57.0891 16.8593 54.7411 18.047 54.0821C18.918 53.6289 19.9473 54.0409 20.3828 54.9471C20.7787 55.8533 20.462 56.8831 19.6306 57.3362C18.72 57.7893 15.4341 60.0137 13.8901 61.3318C13.5733 61.6202 13.1774 61.785 12.7419 61.785ZM63.8578 66.1503C63.5015 66.1915 63.3828 66.4799 63.3036 66.727C62.8681 67.9628 61.522 73.4825 61.3637 74.6359C61.2845 75.2126 61.522 75.5009 61.9179 75.6245C62.4326 75.7892 63.2244 75.7892 64.4913 75.7069C65.7581 75.6245 66.5103 75.5009 67.025 75.2537C67.3813 75.089 67.6189 74.7595 67.4605 74.1828C67.1438 73.0294 65.0851 67.7568 64.4913 66.6034L64.4841 66.5911C64.3661 66.3862 64.2071 66.1099 63.8578 66.1503ZM67.0963 64.3674C66.9396 64.1637 66.7518 63.9196 66.9072 63.5962C67.0656 63.2254 67.4219 63.2666 67.6198 63.3078C68.8867 63.3902 74.2709 64.2964 75.3794 64.626C75.9337 64.7907 76.092 65.1615 76.0524 65.5734C75.9733 66.1089 75.6961 66.8503 75.1023 68.0449C74.548 69.1983 74.1125 69.8985 73.7166 70.2693C73.3999 70.5576 73.0436 70.5988 72.6081 70.2281C71.6976 69.4454 67.8969 65.4086 67.1052 64.3788L67.0963 64.3674ZM23.2338 23.3075C23.1546 22.9368 22.8379 22.8544 22.6003 22.8132C21.373 22.4837 15.9888 21.701 14.8011 21.6598C14.2073 21.6187 13.9698 21.907 13.8906 22.3189C13.8114 22.8544 13.851 23.6783 14.0885 24.9964C14.3261 26.3145 14.4844 27.0972 14.7615 27.5915C14.9595 27.9622 15.2762 28.127 15.8305 27.921C16.8994 27.4679 21.7293 24.7904 22.7587 24.049L22.8259 23.9995C23.0784 23.8149 23.3065 23.6482 23.2338 23.3075Z" fill="currentColor"/>
</svg>
