<svg width="24" height="24" viewBox="0 0 24 24" fill="none" xmlns="http://www.w3.org/2000/svg">
<path d="M4.00003 4H3.37503H4.00003ZM5.00003 3V2.375V3ZM18.9984 4.54419L19.5227 4.88431V4.88431L18.9984 4.54419ZM16.4611 8.45581L15.9368 8.11569V8.11569L16.4611 8.45581ZM16.4611 9.54419L16.9855 9.20407L16.9855 9.20407L16.4611 9.54419ZM18.9984 13.4558L18.474 13.7959H18.474L18.9984 13.4558ZM18.1594 15V15.625V15ZM7.00003 14.375C6.65485 14.375 6.37503 14.6548 6.37503 15C6.37503 15.3452 6.65485 15.625 7.00003 15.625V14.375ZM3.375 20.9998C3.375 21.345 3.65482 21.6248 4 21.6248C4.34518 21.6248 4.625 21.345 4.625 20.9998H3.375ZM4.62503 15L4.62503 4H3.37503L3.37503 15H4.62503ZM5.00003 3.625L18.1594 3.625V2.375L5.00003 2.375V3.625ZM18.474 4.20407L15.9368 8.11569L16.9855 8.79593L19.5227 4.88431L18.474 4.20407ZM15.9368 9.88431L18.474 13.7959L19.5227 13.1157L16.9855 9.20407L15.9368 9.88431ZM18.1594 14.375H7.00003V15.625H18.1594V14.375ZM18.474 13.7959C18.6359 14.0454 18.4568 14.375 18.1594 14.375V15.625C19.4481 15.625 20.224 14.1968 19.5227 13.1157L18.474 13.7959ZM15.9368 8.11569C15.5879 8.6536 15.5879 9.3464 15.9368 9.88431L16.9855 9.20407C16.905 9.07994 16.905 8.92006 16.9855 8.79593L15.9368 8.11569ZM18.1594 3.625C18.4568 3.625 18.6359 3.95458 18.474 4.20407L19.5227 4.88431C20.224 3.80319 19.4481 2.375 18.1594 2.375V3.625ZM4.62503 4C4.62503 3.79289 4.79292 3.625 5.00003 3.625V2.375C4.10257 2.375 3.37503 3.10254 3.37503 4H4.62503ZM4.625 20.9998V13.8835H3.375V20.9998H4.625Z" fill="currentColor"/>
</svg>
