<svg width="16" height="16" fill="none" viewBox="0 0 16 16"  xmlns="http://www.w3.org/2000/svg">
<path fill-rule="evenodd" clip-rule="evenodd" d="M3.20002 9.2002C3.86277 9.2002 4.40003 8.66294 4.40003 8.00019C4.40003 7.33744 3.86277 6.80017 3.20002 6.80017C2.53727 6.80017 2 7.33744 2 8.00019C2 8.66294 2.53727 9.2002 3.20002 9.2002ZM8.00001 9.2002C8.66276 9.2002 9.20002 8.66294 9.20002 8.00019C9.20002 7.33744 8.66276 6.80017 8.00001 6.80017C7.33726 6.80017 6.79999 7.33744 6.79999 8.00019C6.79999 8.66294 7.33726 9.2002 8.00001 9.2002ZM14.0002 8.00019C14.0002 8.66294 13.463 9.2002 12.8002 9.2002C12.1375 9.2002 11.6002 8.66294 11.6002 8.00019C11.6002 7.33744 12.1375 6.80017 12.8002 6.80017C13.463 6.80017 14.0002 7.33744 14.0002 8.00019Z" fill="currentColor"/>
</svg>
