<svg width="16" height="16" viewBox="0 0 16 16" fill="none" xmlns="http://www.w3.org/2000/svg">
<g clip-path="url(#clip0)">
<path d="M6.7221 5.07066C8.97261 3.9707 11.8226 4.30116 13.7175 6.06205C16.0493 8.22892 16.0493 11.7413 13.7175 13.9081C11.3857 16.075 7.60605 16.075 5.27426 13.9081C4.6766 13.3527 3.61572 11.9358 3.61572 10.5188" stroke="#B3B3B3" stroke-miterlimit="10" stroke-linecap="round" stroke-linejoin="round"/>
<path d="M11.5943 9.85297C11.5943 9.85297 12.6154 8.97488 11.5588 7.99294C10.5021 7.011 9.44543 7.72385 9.07965 8.26203C8.71388 8.80021 9.40986 9.64997 9.69943 10.056C9.989 10.462 10.6088 11.51 9.66387 12.1898C8.71896 12.8649 7.66229 12.6288 6.89519 11.7177C6.12809 10.8066 6.4938 9.47483 6.89513 9.10188" stroke="#B3B3B3" stroke-miterlimit="10" stroke-linecap="round" stroke-linejoin="round"/>
<path d="M11.5586 7.9882L12.3308 7.27063" stroke="#B3B3B3" stroke-miterlimit="10" stroke-linecap="round" stroke-linejoin="round"/>
<path d="M6.57959 12.6146L7.20445 12.0339" stroke="#B3B3B3" stroke-miterlimit="10" stroke-linecap="round" stroke-linejoin="round"/>
<path d="M0.533203 0.803589C0.533203 0.803589 5.2999 3.91879 6.38197 4.92434C7.46405 5.92988 8.53596 7.59635 7.45897 8.59717C5.99588 9.95678 4.75633 8.99373 2.96811 8.09676C2.37882 7.79935 0.867603 6.91267 0.867603 6.91267" stroke="#B3B3B3" stroke-miterlimit="10" stroke-linecap="round" stroke-linejoin="round"/>
<path d="M6.75732 0.599976L7.45539 2.72544" stroke="#B3B3B3" stroke-miterlimit="10" stroke-linecap="round" stroke-linejoin="round"/>
</g>
<defs>
<clipPath id="clip0">
<rect width="16" height="16" fill="white"/>
</clipPath>
</defs>
</svg>
