<svg width="16" height="16" fill="none" viewBox="0 0 16 16"  xmlns="http://www.w3.org/2000/svg">
<path d="M1.53776 8.57507L7.46832 14.4699C7.75999 14.7602 8.23962 14.7602 8.53128 14.4699L14.4618 8.57507C14.922 8.11434 14.5915 7.34435 13.9304 7.34435L11.8174 7.34435C11.4091 7.34435 11.072 7.02247 11.072 6.61855L11.072 2.54141C11.072 2.14379 10.7415 1.8156 10.3267 1.8156L5.65999 1.8156C5.25165 1.8156 4.91462 2.13748 4.91462 2.54141L4.91462 6.61855C4.91462 7.01616 4.58406 7.34435 4.16925 7.34435L2.05628 7.34435C1.40813 7.34435 1.07758 8.11434 1.53776 8.57507Z" stroke="currentColor" stroke-miterlimit="10" stroke-linecap="round" stroke-linejoin="round"/>
</svg>
