<svg width="16" height="16" fill="none" viewBox="0 0 16 16"  xmlns="http://www.w3.org/2000/svg">
<path d="M7.55363 4.95523C7.32329 4.95523 7.13135 4.76329 7.13135 4.53295C7.13135 4.40819 7.17933 4.29302 7.27531 4.21624C8.47497 3.16054 9.00282 2.29678 9.09879 2.12403C9.45389 1.5098 10.0201 1.19309 10.6056 1.26987C10.8359 1.29866 10.9991 1.5194 10.9703 1.74974C10.9415 1.98007 10.7303 2.14323 10.5 2.11443C10.1545 2.06645 9.92416 2.40235 9.83778 2.54631C9.73221 2.72866 9.13718 3.70758 7.84155 4.84966C7.76477 4.92644 7.6592 4.95523 7.55363 4.95523Z" fill="currentColor"/>
<path d="M0.422281 12.1437C0.191946 12.1437 0 11.9518 0 11.7214C0 11.5967 0.0575838 11.4719 0.153557 11.3951C0.575838 11.0496 1.4204 10.5026 1.70832 10.349C1.91946 10.2435 2.16899 10.3394 2.27456 10.5506C2.37053 10.7617 2.29375 11.0016 2.09221 11.1072C1.87147 11.2128 1.0749 11.731 0.700603 12.0381C0.623824 12.1053 0.527851 12.1437 0.422281 12.1437Z" fill="currentColor"/>
<path d="M11.0743 8.12204C11.247 8.27559 11.439 8.20841 11.6213 8.04526C12.8498 6.87439 14.1454 5.0413 14.5773 4.08157C14.6733 3.88003 14.8556 3.76486 15.0572 3.84164C15.2971 3.93762 15.2875 4.3407 15.0763 4.78218C14.5101 5.95305 13.7231 7.23908 12.1684 8.84183C12.0148 8.99539 12.0436 9.19693 12.178 9.3217C12.3123 9.44646 12.5331 9.43686 12.7442 9.22572C13.5504 8.40036 14.0974 7.76694 14.5581 7.10472C14.6733 6.93197 14.8268 6.86479 14.9612 6.89358C15.1627 6.93197 15.2011 7.13351 15.1339 7.36385C15.0284 7.74774 13.9631 9.14895 13.5408 9.61921C12.3891 10.9053 11.2374 11.6059 9.02046 12.7575C8.24307 13.1606 7.66724 13.5445 7.32173 14.1395C7.00502 14.677 6.90905 14.8497 6.87066 14.9169C6.7459 15.176 6.84187 15.512 7.11059 15.6367C7.36972 15.7615 7.68643 15.6559 7.8112 15.3872C7.8112 15.3776 7.82079 15.368 7.82079 15.3584C7.82079 15.3488 7.8016 15.368 8.22388 14.6578C8.42542 14.3219 8.8573 13.8132 9.52911 13.5061C11.7461 12.4984 12.6482 11.6922 13.9439 10.4062C14.5293 9.82076 15.3451 8.56351 15.5658 8.18922C16.18 7.14311 15.8633 6.25056 15.2971 6.09701C15.2587 6.08741 15.2395 6.04902 15.2491 6.01063C15.2491 6.00103 15.2491 6.00103 15.2587 5.99144C15.6906 5.25244 15.8921 4.73419 15.9689 4.3407C16.0745 3.80325 15.9305 3.14104 15.1819 2.98748C15.1435 2.97789 15.1243 2.9395 15.1243 2.90111C15.1723 2.72836 15.2203 2.51722 15.2491 2.37326C15.4027 1.67265 14.9612 1.03923 14.4333 0.924064C14.059 0.847286 13.7231 0.933662 13.4352 1.1352C13.3968 1.164 13.3392 1.1544 13.3104 1.11601C13.1953 0.991246 13.0129 0.866481 12.7538 0.856883C12.2931 0.847286 11.8325 0.991246 11.4966 1.70145C11.2566 2.2101 10.9015 2.90111 9.85542 4.05278C8.88609 5.15647 7.54247 6.20258 6.70751 6.74962C6.56355 6.8456 6.35241 6.8264 6.3812 6.62486C6.41959 6.31774 6.75549 4.22553 6.81308 3.61131C6.90905 2.61319 6.3716 2.15252 5.76697 2.07574C5.26791 2.00856 4.51932 2.15252 4.10664 3.285C3.86671 3.94721 3.35805 5.03171 2.93577 6.78801C2.63825 8.01647 2.59027 9.45606 2.85899 11.1068C2.87819 11.2028 2.85899 11.3083 2.80141 11.3947C2.4751 11.9322 1.98564 12.652 1.72651 13.2662C1.62094 13.5157 1.70732 13.8132 1.94725 13.9476C2.19678 14.082 2.51349 13.9956 2.65745 13.7365C2.66704 13.7269 2.66704 13.7173 2.67664 13.7077C2.8398 13.3718 3.1661 12.7383 3.29087 12.4696C3.51161 12.0089 3.66516 11.7114 3.72275 11.5195C3.78033 11.3467 3.80912 11.1452 3.71315 10.6845C3.5404 9.91673 3.48282 8.46754 3.79953 7.1911C4.21221 5.50197 4.92241 3.61131 5.04717 3.2946C5.17194 2.97789 5.35429 2.88191 5.52704 2.90111C5.70939 2.9203 6.04529 3.00668 5.94932 3.6401C5.77657 4.78218 5.52704 6.23137 5.44066 6.72083C5.40227 6.96076 5.35429 7.51741 5.79576 7.77653C6.14127 7.97808 6.51556 7.86291 6.93784 7.58459C7.87838 6.95117 9.50992 5.67473 10.5272 4.52305C11.6021 3.32339 11.938 2.60359 12.2164 1.95098C12.3411 1.65346 12.6674 1.65346 12.7826 1.69185C12.8978 1.72064 13.0321 1.88379 12.9362 2.2005C12.6962 2.98748 11.7173 4.80137 9.83623 6.50009C9.62508 6.69204 9.65388 6.92237 9.75945 7.03754C9.86502 7.15271 10.057 7.22949 10.2777 7.03754C11.9764 5.58835 12.9362 3.87043 13.3776 2.9395C13.5984 2.47883 13.6751 2.2005 13.7519 1.98936C13.8479 1.72064 14.0494 1.62467 14.1934 1.65346C14.3949 1.70145 14.5389 1.91259 14.4717 2.25809C14.4141 2.5556 14.2414 3.05466 14.011 3.54413C13.464 4.6958 12.3219 6.24097 11.0839 7.56539C10.9399 7.75734 10.9111 7.96848 11.0743 8.12204Z" fill="currentColor"/>
<path d="M3.41654 2.38293C3.48372 2.32535 3.45493 2.24857 3.43573 2.19099C3.33976 1.90307 2.8215 0.684211 2.68714 0.434681C2.61996 0.309916 2.53359 0.290722 2.43761 0.329111C2.31285 0.377097 2.15929 0.492265 1.92896 0.693808C1.69862 0.895351 1.56426 1.02971 1.50667 1.14488C1.45869 1.23126 1.46829 1.31763 1.57386 1.40401C1.79459 1.56716 2.93667 2.24857 3.21499 2.37334C3.28217 2.40213 3.34936 2.44052 3.41654 2.38293Z" fill="currentColor"/>
<path d="M2.96584 3.1793C2.94665 3.09292 2.86987 3.07373 2.81228 3.06413C2.51477 2.98735 1.20954 2.805 0.921616 2.79541C0.777657 2.78581 0.720073 2.85299 0.700878 2.94896C0.681684 3.07373 0.691281 3.26567 0.748865 3.57279C0.806449 3.8799 0.844838 4.06225 0.912019 4.17742C0.960005 4.26379 1.03678 4.30218 1.17115 4.2542C1.43027 4.14863 2.60114 3.5248 2.85067 3.35205C2.91785 3.30406 2.98504 3.26567 2.96584 3.1793Z" fill="currentColor"/>
<path d="M12.8139 13.1607C12.7275 13.1703 12.6987 13.2375 12.6795 13.2951C12.5739 13.583 12.2476 14.869 12.2092 15.1378C12.19 15.2721 12.2476 15.3393 12.3436 15.3681C12.4684 15.4065 12.6603 15.4065 12.9674 15.3873C13.2745 15.3681 13.4569 15.3393 13.5817 15.2817C13.668 15.2433 13.7256 15.1665 13.6872 15.0322C13.6105 14.7635 13.1114 13.535 12.9674 13.2663C12.9386 13.2183 12.9002 13.1511 12.8139 13.1607Z" fill="currentColor"/>
<path d="M13.5527 12.5659C13.5143 12.6426 13.5623 12.7002 13.6007 12.7482C13.7926 12.9881 14.714 13.9287 14.9347 14.111C15.0403 14.1974 15.1266 14.1878 15.2034 14.1206C15.2994 14.0343 15.405 13.8711 15.5393 13.6024C15.6833 13.3241 15.7505 13.1513 15.7697 13.0265C15.7793 12.9306 15.7409 12.8442 15.6065 12.8058C15.3378 12.729 14.0326 12.5179 13.7254 12.4987C13.6775 12.4891 13.5911 12.4795 13.5527 12.5659Z" fill="currentColor"/>
</svg>
