<svg width="16" height="16" fill="none" viewBox="0 0 16 16"  xmlns="http://www.w3.org/2000/svg">
<path d="M10.5303 3.53033C10.8232 3.23744 10.8232 2.76256 10.5303 2.46967C10.2374 2.17678 9.76256 2.17678 9.46967 2.46967L10.5303 3.53033ZM5 8L4.46967 7.46967C4.17678 7.76256 4.17678 8.23744 4.46967 8.53033L5 8ZM9.46967 13.5303C9.76256 13.8232 10.2374 13.8232 10.5303 13.5303C10.8232 13.2374 10.8232 12.7626 10.5303 12.4697L9.46967 13.5303ZM9.46967 2.46967L4.46967 7.46967L5.53033 8.53033L10.5303 3.53033L9.46967 2.46967ZM4.46967 8.53033L9.46967 13.5303L10.5303 12.4697L5.53033 7.46967L4.46967 8.53033Z" fill="currentColor"/>
</svg>
