<svg width="16" height="16" fill="none" viewBox="0 0 16 16"  xmlns="http://www.w3.org/2000/svg">
<path d="M12.4697 11.0303C12.7626 11.3232 13.2374 11.3232 13.5303 11.0303C13.8232 10.7374 13.8232 10.2626 13.5303 9.96967L12.4697 11.0303ZM8 5.5L8.53033 4.96967C8.23744 4.67678 7.76256 4.67678 7.46967 4.96967L8 5.5ZM2.46967 9.96967C2.17678 10.2626 2.17678 10.7374 2.46967 11.0303C2.76256 11.3232 3.23744 11.3232 3.53033 11.0303L2.46967 9.96967ZM13.5303 9.96967L8.53033 4.96967L7.46967 6.03033L12.4697 11.0303L13.5303 9.96967ZM7.46967 4.96967L2.46967 9.96967L3.53033 11.0303L8.53033 6.03033L7.46967 4.96967Z" fill="currentColor"/>
</svg>
