<svg width="16" height="16" fill="none" viewBox="0 0 16 16"  xmlns="http://www.w3.org/2000/svg">
<path d="M5.46967 12.4697C5.17678 12.7626 5.17678 13.2374 5.46967 13.5303C5.76256 13.8232 6.23744 13.8232 6.53033 13.5303L5.46967 12.4697ZM11 8L11.5303 8.53033C11.8232 8.23744 11.8232 7.76256 11.5303 7.46967L11 8ZM6.53033 2.46967C6.23744 2.17678 5.76256 2.17678 5.46967 2.46967C5.17678 2.76256 5.17678 3.23744 5.46967 3.53033L6.53033 2.46967ZM6.53033 13.5303L11.5303 8.53033L10.4697 7.46967L5.46967 12.4697L6.53033 13.5303ZM11.5303 7.46967L6.53033 2.46967L5.46967 3.53033L10.4697 8.53033L11.5303 7.46967Z" fill="currentColor"/>
</svg>
