
<svg width="16" height="16" viewBox="0 0 16 16" fill="none" xmlns="http://www.w3.org/2000/svg">
<path d="M4.43153 10.8539L5.178 14.1453C5.37499 15.0139 6.18444 15.5833 7.00026 15.3983C7.80202 15.2165 8.30415 14.3656 8.1037 13.4818L7.64062 11.4399" fill="currentColor"/>
<path d="M12.9745 12.0017C14.0408 11.7598 14.3602 9.1604 13.6878 6.19568C13.0155 3.23096 11.6059 1.02363 10.5396 1.26547C9.47323 1.50732 9.15385 4.10675 9.82623 7.07147C10.4986 10.0362 11.9081 12.2435 12.9745 12.0017Z" stroke="currentColor" stroke-miterlimit="10" stroke-linecap="round" stroke-linejoin="round"/>
<path fill-rule="evenodd" clip-rule="evenodd" d="M10.0594 1.58434C9.39409 2.406 9.27034 4.61166 9.82744 7.0681C10.3764 9.48868 11.4168 11.4044 12.3605 11.8944L3.01496 10.5173C2.63845 10.6027 2.14796 9.82742 1.91424 8.7969C1.68052 7.76637 1.78858 6.85534 2.16508 6.76995L10.0594 1.58434Z" fill="currentColor"/>
<path d="M10.0594 1.58434L10.448 1.899C10.6031 1.70748 10.5955 1.43152 10.4301 1.24881C10.2648 1.0661 9.99091 1.03114 9.78493 1.16644L10.0594 1.58434ZM12.3605 11.8944L12.2877 12.3891C12.5293 12.4247 12.7612 12.2806 12.8363 12.0482C12.9114 11.8158 12.8077 11.5632 12.591 11.4507L12.3605 11.8944ZM3.01496 10.5173L3.08785 10.0227C3.02678 10.0137 2.96457 10.016 2.90437 10.0297L3.01496 10.5173ZM2.16508 6.76995L2.27567 7.25757C2.33405 7.24433 2.38957 7.22072 2.43959 7.18786L2.16508 6.76995ZM9.67087 1.26968C9.23307 1.81033 9.03113 2.70497 8.98556 3.69007C8.93868 4.70323 9.05304 5.91414 9.33983 7.17869L10.3151 6.95751C10.0447 5.76562 9.94242 4.64548 9.98449 3.73628C10.0278 2.79903 10.2205 2.18001 10.448 1.899L9.67087 1.26968ZM9.33983 7.17869C9.62246 8.42489 10.0337 9.55167 10.5042 10.4394C10.9629 11.3048 11.5186 12.0206 12.1301 12.3382L12.591 11.4507C12.2588 11.2782 11.8224 10.7911 11.3877 9.97106C10.9649 9.17325 10.5814 8.13189 10.3151 6.95751L9.33983 7.17869ZM2.94207 11.012L12.2877 12.3891L12.4334 11.3998L3.08785 10.0227L2.94207 11.012ZM1.42662 8.90748C1.55273 9.46354 1.75214 9.97217 1.98945 10.3444C2.1069 10.5286 2.24895 10.7037 2.4174 10.8297C2.58419 10.9546 2.83447 11.0709 3.12555 11.0049L2.90437 10.0297C3.0072 10.0064 3.05497 10.0579 3.0166 10.0291C2.97988 10.0017 2.9141 9.93453 2.83265 9.80677C2.67216 9.55506 2.50946 9.16078 2.40186 8.68631L1.42662 8.90748ZM2.0545 6.28233C1.76342 6.34835 1.58783 6.56131 1.49121 6.74588C1.39363 6.93228 1.34101 7.15152 1.31452 7.36837C1.26099 7.80654 1.30051 8.35143 1.42662 8.90748L2.40186 8.68631C2.29425 8.21184 2.27094 7.78595 2.30714 7.48963C2.32551 7.33923 2.35589 7.25029 2.37716 7.20965C2.39939 7.16719 2.3785 7.23425 2.27567 7.25757L2.0545 6.28233ZM9.78493 1.16644L1.89057 6.35205L2.43959 7.18786L10.334 2.00225L9.78493 1.16644Z" fill="currentColor"/>
<path d="M9.58104 5.67908L10.1506 5.5499C10.865 5.38788 11.5717 5.81862 11.729 6.51188C11.8862 7.20514 11.4344 7.89862 10.72 8.06064L10.1505 8.18981" fill="currentColor"/>
</svg>
