<svg width="16" height="16" viewBox="0 0 16 16" fill="none" xmlns="http://www.w3.org/2000/svg">
<path d="M10.9306 3.50034L10.9306 4.00034L10.9306 3.50034ZM3.20024 3.5L3.20026 3L3.20024 3.5ZM11.9306 6.04954L11.8647 6.54518C12.0075 6.56417 12.1516 6.5206 12.26 6.42566C12.3684 6.33072 12.4306 6.19363 12.4306 6.04954H11.9306ZM11.9306 8.56574H12.4306C12.4306 8.42165 12.3684 8.28456 12.26 8.18962C12.1516 8.09468 12.0075 8.05112 11.8647 8.0701L11.9306 8.56574ZM10.9305 14.4999L10.9305 14.9999L10.9305 14.4999ZM3.20015 14.4996L3.20017 13.9996H3.20017L3.20015 14.4996ZM10.9306 3.00034L3.20026 3L3.20022 4L10.9306 4.00034L10.9306 3.00034ZM12.4306 4.50034C12.4306 3.67194 11.759 3.00038 10.9306 3.00034L10.9306 4.00034C11.2067 4.00035 11.4306 4.22421 11.4306 4.50034H12.4306ZM12.4306 6.04954V4.50034H11.4306V6.04954H12.4306ZM11.7618 6.53841C11.7969 6.53841 11.8313 6.54074 11.8647 6.54518L11.9964 5.5539C11.9194 5.54367 11.8411 5.53841 11.7618 5.53841V6.53841ZM10.9925 7.30764C10.9925 6.88281 11.3369 6.53841 11.7618 6.53841V5.53841C10.7846 5.53841 9.99253 6.33052 9.99253 7.30764H10.9925ZM11.7618 8.07687C11.3369 8.07687 10.9925 7.73248 10.9925 7.30764H9.99253C9.99253 8.28476 10.7846 9.07687 11.7618 9.07687V8.07687ZM11.8647 8.0701C11.8313 8.07455 11.7969 8.07687 11.7618 8.07687V9.07687C11.8411 9.07687 11.9194 9.07162 11.9964 9.06139L11.8647 8.0701ZM12.4306 13.4999V8.56574H11.4306V13.4999H12.4306ZM10.9305 14.9999C11.759 14.9999 12.4306 14.3284 12.4306 13.4999H11.4306C11.4306 13.776 11.2067 13.9999 10.9305 13.9999L10.9305 14.9999ZM3.20013 14.9996L10.9305 14.9999L10.9305 13.9999L3.20017 13.9996L3.20013 14.9996ZM1.7002 13.4996C1.7002 14.328 2.37173 14.9995 3.20013 14.9996L3.20017 13.9996C2.92404 13.9995 2.7002 13.7757 2.7002 13.4996H1.7002ZM1.7002 4.5V13.4996H2.7002V4.5H1.7002ZM3.20026 3C2.37181 2.99996 1.7002 3.67155 1.7002 4.5H2.7002C2.7002 4.22385 2.92407 3.99999 3.20022 4L3.20026 3Z" fill="currentColor"/>
<path d="M4 3.5V3.5C4 2.39543 4.89543 1.5 6 1.5H12C13.1046 1.5 14 2.39543 14 3.5V10.5C14 11.6046 13.1046 12.5 12 12.5V12.5" stroke="currentColor" stroke-linecap="round" stroke-linejoin="round"/>
</svg>
