<svg width="16" height="16" fill="none" viewBox="0 0 16 16"  xmlns="http://www.w3.org/2000/svg">
<path fill-rule="evenodd" clip-rule="evenodd" d="M1 8C1 4.13401 4.13401 1 8 1C11.866 1 15 4.13401 15 8C15 11.866 11.866 15 8 15C4.13401 15 1 11.866 1 8ZM11.4772 10.9772C11.5412 10.7325 11.4683 10.4722 11.2863 10.2965L8.98119 7.99139L11.2863 5.6863C11.5516 5.41163 11.5478 4.97504 11.2778 4.70502C11.0077 4.43501 10.5711 4.43122 10.2965 4.6965L7.99139 7.00159L5.6863 4.6965C5.41163 4.43122 4.97504 4.43501 4.70502 4.70502C4.43501 4.97504 4.43122 5.41163 4.6965 5.6863L7.00159 7.99139L4.6965 10.2965C4.43122 10.5711 4.43501 11.0077 4.70502 11.2778C4.97504 11.5478 5.41163 11.5516 5.6863 11.2863L7.99139 8.98119L10.2965 11.2863C10.4722 11.4683 10.7325 11.5412 10.9772 11.4772C11.222 11.4131 11.4131 11.222 11.4772 10.9772Z" fill="currentColor"/>
</svg>
