<svg xmlns="http://www.w3.org/2000/svg" width="16" height="16" viewBox="0 0 16 16"><path fill="currentColor" fill-rule="evenodd" d="M9.688 2.375H6.312a3.938 3.938 0 0 0-3.937 3.938v3.375a3.938 3.938 0 0 0 3.938 3.937h3.375a3.938 3.938 0 0 0 3.937-3.937V6.313a3.938 3.938 0 0 0-3.938-3.938ZM6.312 1.25A5.063 5.063 0 0 0 1.25 6.313v3.375a5.063 5.063 0 0 0 5.063 5.062h3.375a5.063 5.063 0 0 0 5.062-5.062V6.313A5.063 5.063 0 0 0 9.687 1.25H6.313ZM4.952 8c0-.31.252-.562.562-.562h1.925V5.655a.563.563 0 0 1 1.125 0v1.783h1.924a.563.563 0 1 1 0 1.125H8.562v2.066a.563.563 0 0 1-1.124 0V8.563H5.513A.563.563 0 0 1 4.951 8Z"/></svg>
