<svg width="16" height="16" viewBox="0 0 16 16" fill="none" xmlns="http://www.w3.org/2000/svg">
<path fill-rule="evenodd" clip-rule="evenodd" d="M13.802 5.46745C13.8971 5.72809 13.7359 6.00482 13.4677 6.07574L10.0283 6.98507C9.52422 7.11835 9.53514 7.8376 10.0431 7.95551L13.51 8.76033C13.7801 8.82304 13.9496 9.09452 13.8627 9.35786C13.459 10.5812 12.6654 11.6489 11.5938 12.3973C10.3831 13.2429 8.90091 13.6226 7.42623 13.4651C5.95156 13.3075 4.5861 12.6236 3.58686 11.5419C2.58762 10.4603 2.02351 9.05559 2.00072 7.59218C1.97793 6.12877 2.49802 4.70761 3.4631 3.59618C4.42819 2.48475 5.77171 1.75972 7.24078 1.55754C8.70985 1.35536 10.2032 1.68998 11.4396 2.49842C12.534 3.21396 13.3604 4.25698 13.802 5.46745ZM7.71035 5.98693C8.236 5.98693 8.66212 5.56647 8.66212 5.0478C8.66212 4.52914 8.236 4.10868 7.71035 4.10868C7.1847 4.10868 6.75858 4.52914 6.75858 5.0478C6.75858 5.56647 7.1847 5.98693 7.71035 5.98693Z" fill="currentColor"/>
</svg>
