<svg width="16" height="17" viewBox="0 0 16 17" fill="none" xmlns="http://www.w3.org/2000/svg">
<path d="M2.56445 7.93915C3.14156 5.45607 5.36646 3.61084 8.0242 3.61084C10.6819 3.61084 12.8689 5.43329 13.4688 7.886" stroke="#C0A46B" stroke-width="0.8" stroke-linecap="round" stroke-linejoin="round"/>
<path d="M9.35144 7.46817C9.35144 7.46817 8.82749 6.90625 7.89349 6.90625C6.95948 6.90625 6.52665 7.63523 6.66333 8.1364C6.85317 8.8426 7.93145 9.04003 8.53134 9.26024C9.23754 9.51842 9.91337 10.2702 9.1692 11.0903C8.42503 11.9104 6.96708 11.5003 6.36719 10.9004" stroke="#C0A46B" stroke-width="0.8" stroke-linecap="round" stroke-linejoin="round"/>
<path d="M8.04492 5.70654V6.90632" stroke="#C0A46B" stroke-width="0.8" stroke-linecap="round" stroke-linejoin="round"/>
<path d="M8.04492 11.5005V12.6927" stroke="#C0A46B" stroke-width="0.8" stroke-linecap="round" stroke-linejoin="round"/>
<path d="M12.1328 7.30875L13.4769 7.88586L14.054 6.6709" stroke="#C0A46B" stroke-width="0.8" stroke-linecap="round" stroke-linejoin="round"/>
<path d="M13.4063 10.6426C12.8292 13.1257 10.6042 14.9709 7.94651 14.9709C5.28878 14.9709 3.10184 13.1484 2.50195 10.6957" stroke="#C0A46B" stroke-width="0.8" stroke-linecap="round" stroke-linejoin="round"/>
<path d="M3.84694 11.2729L2.50289 10.6958L1.92578 11.9108" stroke="#C0A46B" stroke-width="0.8" stroke-linecap="round" stroke-linejoin="round"/>
</svg>
