<svg width="17" height="16" viewBox="0 0 17 16" fill="none" xmlns="http://www.w3.org/2000/svg">
<g id="Transaction">
<g id="Vector">
<path d="M14.6951 5.1C14.4951 5 14.2551 5.09 14.1651 5.29L14.0051 5.62C13.0651 3.45 10.9251 2 8.49507 2C5.68507 2 3.27507 3.91 2.64507 6.64C2.59507 6.85 2.72507 7.07 2.94507 7.12C2.96007 7.12 2.97507 7.1225 2.99007 7.125C3.00506 7.1275 3.02007 7.13 3.03507 7.13C3.21507 7.13 3.38507 7.01 3.42507 6.82C3.97507 4.45 6.05507 2.8 8.49507 2.8C10.6051 2.8 12.4651 4.06 13.2751 5.95L12.7651 5.73C12.5651 5.64 12.3251 5.73 12.2351 5.94C12.1451 6.14 12.2351 6.38 12.4451 6.47L13.7851 7.05H13.8051L13.8249 7.0551C13.8557 7.06314 13.8819 7.07 13.9151 7.07H14.0351C14.0588 7.07 14.0763 7.05748 14.0974 7.04234C14.103 7.03835 14.1088 7.03417 14.1151 7.03C14.1284 7.03 14.1417 7.02111 14.1551 7.01222C14.1617 7.00778 14.1684 7.00333 14.1751 7C14.2251 6.97 14.2551 6.92 14.2851 6.87C14.2851 6.86586 14.2885 6.86343 14.2925 6.86059C14.2982 6.85657 14.3051 6.85172 14.3051 6.84L14.8851 5.63C14.9751 5.43 14.8851 5.19 14.6951 5.1Z" fill="currentColor"/>
<path d="M8.65506 9.92C8.65506 9.92 8.56506 9.89 8.51506 9.89C8.46506 9.89 8.40506 9.9 8.36506 9.92C7.84506 9.87 7.37506 9.65 7.12506 9.41C6.96506 9.25 6.71506 9.25 6.55506 9.41C6.39506 9.57 6.39506 9.82 6.55506 9.98C6.93506 10.36 7.52506 10.62 8.11506 10.71V11.49C8.11506 11.71 8.29506 11.89 8.51506 11.89C8.73506 11.89 8.91506 11.71 8.91506 11.49V10.71C9.32506 10.63 9.67506 10.45 9.93506 10.16C10.3951 9.65 10.4051 9.18 10.3251 8.87C10.1751 8.26 9.61506 7.86 9.13506 7.69C9.08006 7.66999 9.02005 7.64999 8.9563 7.62874C8.89256 7.6075 8.82505 7.58499 8.75506 7.56C8.27506 7.41 7.61506 7.2 7.51506 6.83C7.48506 6.71 7.52506 6.55 7.62506 6.42C7.71506 6.3 7.92506 6.11 8.35506 6.11C9.08506 6.11 9.50506 6.53 9.52506 6.55C9.67506 6.71 9.92506 6.72 10.0851 6.57C10.2451 6.42 10.2551 6.17 10.1051 6L10.1041 5.99901C10.0739 5.96864 9.64534 5.53792 8.90506 5.38V4.52C8.90506 4.3 8.72506 4.12 8.50506 4.12C8.28506 4.12 8.10506 4.3 8.10506 4.52V5.35C7.64506 5.41 7.24506 5.61 6.98506 5.95C6.73506 6.28 6.63506 6.7 6.73506 7.06C6.94325 7.84319 7.82959 8.12513 8.48794 8.33455L8.50506 8.34C8.62506 8.38 8.74506 8.42 8.85506 8.45C9.20506 8.58 9.48506 8.83 9.54506 9.07C9.56506 9.13 9.60506 9.33 9.33506 9.63C9.16506 9.81 8.92506 9.91 8.64506 9.94L8.65506 9.92Z" fill="currentColor"/>
<path d="M13.4851 9.33997C13.5351 9.11997 13.7451 8.98997 13.9651 9.03997C14.1851 9.08997 14.3151 9.29997 14.2651 9.51997C13.6251 12.25 11.2251 14.16 8.41512 14.16C5.98512 14.16 3.84512 12.72 2.90512 10.55L2.75512 10.87C2.68512 11.02 2.54512 11.1 2.39512 11.1C2.33512 11.1 2.28512 11.09 2.22512 11.06C2.03512 10.97 1.94512 10.73 2.03512 10.53L2.62512 9.28997L2.63512 9.27997C2.64512 9.24997 2.66512 9.22997 2.68512 9.20997L2.73512 9.15997C2.75512 9.13997 2.77512 9.12997 2.79512 9.11997C2.80138 9.11579 2.8072 9.11162 2.81278 9.10763C2.8339 9.09249 2.85138 9.07997 2.87512 9.07997H3.02512C3.04512 9.08997 3.07512 9.09997 3.09512 9.09997C3.11512 9.10997 3.14512 9.10997 3.14512 9.10997L4.48512 9.68997C4.69512 9.77997 4.78512 10.02 4.69512 10.22C4.60512 10.43 4.36512 10.52 4.16512 10.43L3.63512 10.2C4.43512 12.1 6.30512 13.36 8.41512 13.36C10.8551 13.36 12.9351 11.71 13.4851 9.33997Z" fill="currentColor"/>
</g>
</g>
</svg>
