<svg width="16" height="16" fill="none" viewBox="0 0 16 16"  xmlns="http://www.w3.org/2000/svg">
<path fill-rule="evenodd" clip-rule="evenodd" d="M8.85716 14C8.53244 14 8.29387 13.6953 8.37176 13.3801L8.92513 11.1403C9.00302 10.8251 8.76444 10.5204 8.43973 10.5204H5.86102C5.63107 10.5204 5.43077 10.6772 5.37561 10.9005L4.70371 13.6199C4.64856 13.8432 4.44826 14 4.21831 14H4.14697C3.82281 14 3.58435 13.6963 3.66124 13.3814L4.20883 11.139C4.28573 10.8241 4.04726 10.5204 3.7231 10.5204H2.46453C2.16673 10.5204 1.9471 10.2422 2.01621 9.95255C2.06572 9.74503 2.25118 9.59861 2.46453 9.59861H4.2059C4.43696 9.59861 4.63793 9.44029 4.69201 9.21565L5.24099 6.93537C5.31671 6.62087 5.07837 6.31834 4.75488 6.31834H3.38018C3.08468 6.31834 2.86695 6.04198 2.93612 5.75468C2.98552 5.54947 3.16911 5.40484 3.38018 5.40484H5.22003C5.44902 5.40484 5.64875 5.24928 5.70481 5.02725L6.37384 2.37759C6.4299 2.15557 6.62963 2 6.85862 2H6.93233C7.25639 2 7.49484 2.30353 7.41812 2.61838L6.88978 4.78646C6.81306 5.10131 7.05151 5.40484 7.37557 5.40484H9.93843C10.1674 5.40484 10.3672 5.24928 10.4232 5.02725L11.0922 2.37759C11.1483 2.15557 11.348 2 11.577 2H11.6571C11.9823 2 12.221 2.30554 12.1422 2.62107L11.6025 4.78378C11.5238 5.0993 11.7624 5.40484 12.0876 5.40484H13.543C13.8365 5.40484 14.0539 5.67779 13.9881 5.96389C13.9405 6.17132 13.7558 6.31834 13.543 6.31834H11.6103C11.3798 6.31834 11.1792 6.47594 11.1246 6.69991L10.5686 8.98018C10.4919 9.29504 10.7303 9.59861 11.0544 9.59861H12.6092C12.9051 9.59861 13.1243 9.87339 13.0586 10.1619C13.0109 10.3716 12.8244 10.5204 12.6092 10.5204H10.5894C10.3595 10.5204 10.1592 10.6772 10.104 10.9005L9.43212 13.6199C9.37696 13.8432 9.17666 14 8.94671 14H8.85716ZM5.84803 8.99763C5.7719 9.31227 6.01029 9.61522 6.33401 9.61522H8.92277C9.15415 9.61522 9.35531 9.45646 9.40908 9.23141L9.95988 6.92622C10.035 6.61194 9.7967 6.31003 9.47357 6.31003H6.89178C6.66093 6.31003 6.46009 6.46807 6.4058 6.69244L5.84803 8.99763Z" fill="currentColor"/>
</svg>
