<svg width="16" height="16" fill="none" viewBox="0 0 16 16"  xmlns="http://www.w3.org/2000/svg">
<path d="M13.5 2.5L3 14" stroke="currentColor" stroke-linecap="round" stroke-linejoin="round"/>
<path fill-rule="evenodd" clip-rule="evenodd" d="M10.8353 3.88775C9.92207 3.35622 8.87605 3 7.71212 3C5.85404 3 4.15366 3.90868 2.83483 4.98807C1.51472 6.06852 0.513521 7.37135 0.0544195 8.27316C-0.0275721 8.43421 -0.0162718 8.62698 0.0839759 8.77735C0.128044 8.84345 0.17484 8.91438 0.224439 8.98955C0.787859 9.84351 1.71292 11.2456 3.10916 12.3497L3.78493 11.6096C2.53696 10.6395 1.67401 9.36445 1.0836 8.475C1.52715 7.71518 2.37024 6.66056 3.4682 5.76193C4.69483 4.75799 6.17627 4 7.71212 4C8.58832 4 9.40146 4.24699 10.1431 4.64592L10.8353 3.88775ZM5.57079 12.6198C6.21196 12.8582 6.92328 13 7.71212 13C11.0563 13 12.6604 10.464 13.7218 8.78592C13.7862 8.68413 13.8486 8.58549 13.9093 8.49077C13.4313 7.72215 12.7046 6.70595 11.7673 5.83321L12.4416 5.09469C13.5919 6.16388 14.436 7.41318 14.9299 8.24467C15.0282 8.41011 15.0228 8.61725 14.916 8.77735C14.818 8.92439 14.7098 9.09777 14.5896 9.29037L14.5896 9.2904C13.5601 10.9401 11.6506 14 7.71212 14C6.63572 14 5.68616 13.7723 4.85176 13.4074L5.57079 12.6198Z" fill="currentColor"/>
<path fill-rule="evenodd" clip-rule="evenodd" d="M9.49792 5.40014C9.05713 5.14563 8.54557 5 8 5C6.34315 5 5 6.34315 5 8C5 8.64314 5.20238 9.23902 5.54693 9.72741L6.246 8.96177C6.08919 8.67639 6 8.34861 6 8C6 6.89543 6.89543 6 8 6C8.28397 6 8.55411 6.05918 8.79877 6.16588L9.49792 5.40014ZM8.00631 9.99999C9.10798 9.99659 10 9.10247 10 8C10 7.94094 9.99744 7.88248 9.99242 7.82472L10.8053 6.93447C10.9311 7.26558 11 7.62474 11 8C11 9.65685 9.65685 11 8 11C7.72056 11 7.45005 10.9618 7.19339 10.8903L8.00631 9.99999Z" fill="currentColor"/>
</svg>
