<svg width="16" height="16" viewBox="0 0 16 16" fill="none" xmlns="http://www.w3.org/2000/svg">
<g id="Like-fill">
<g id="Vector">
<path fill-rule="evenodd" clip-rule="evenodd" d="M7.82174 15.0333L7.81996 15.0324L7.81573 15.0304L7.80098 15.0233C7.78839 15.0172 7.77035 15.0083 7.7472 14.9967C7.7009 14.9736 7.63413 14.9395 7.5496 14.8945C7.38059 14.8045 7.14031 14.671 6.85056 14.4942C6.27169 14.141 5.49195 13.6132 4.68754 12.9139C3.08558 11.5212 1.3445 9.41121 0.956485 6.6095C0.817863 5.60857 1.03855 4.48552 1.67173 3.60317C2.31529 2.70636 3.36824 2.0835 4.82277 2.0835C6.1338 2.0835 7.29866 2.71327 8.00004 3.68388C8.70142 2.71327 9.86628 2.0835 11.1773 2.0835C12.6318 2.0835 13.6848 2.70636 14.3283 3.60317C14.9615 4.48552 15.1822 5.60857 15.0436 6.6095C14.6556 9.41121 12.9145 11.5212 11.3125 12.9139C10.5081 13.6132 9.72839 14.141 9.14952 14.4942C8.85977 14.671 8.61949 14.8045 8.45048 14.8945C8.36595 14.9395 8.29918 14.9736 8.25288 14.9967C8.22973 15.0083 8.21169 15.0172 8.1991 15.0233L8.18435 15.0304L8.18012 15.0324L8.1788 15.0331L7.82174 15.0333ZM7.82174 15.0333C7.93442 15.0865 8.06534 15.0867 8.17802 15.0334L7.82174 15.0333Z" fill="#FF0000"/>
<path d="M7.82174 15.0333L7.81996 15.0324L7.81573 15.0304L7.80098 15.0233C7.78839 15.0172 7.77035 15.0083 7.7472 14.9967C7.7009 14.9736 7.63413 14.9395 7.5496 14.8945C7.38059 14.8045 7.14031 14.671 6.85056 14.4942C6.27169 14.141 5.49195 13.6132 4.68754 12.9139C3.08558 11.5212 1.3445 9.41121 0.956485 6.6095C0.817863 5.60857 1.03855 4.48552 1.67173 3.60317C2.31529 2.70636 3.36824 2.0835 4.82277 2.0835C6.1338 2.0835 7.29866 2.71327 8.00004 3.68388C8.70142 2.71327 9.86628 2.0835 11.1773 2.0835C12.6318 2.0835 13.6848 2.70636 14.3283 3.60317C14.9615 4.48552 15.1822 5.60857 15.0436 6.6095C14.6556 9.41121 12.9145 11.5212 11.3125 12.9139C10.5081 13.6132 9.72839 14.141 9.14952 14.4942C8.85977 14.671 8.61949 14.8045 8.45048 14.8945C8.36595 14.9395 8.29918 14.9736 8.25288 14.9967C8.22973 15.0083 8.21169 15.0172 8.1991 15.0233L8.18435 15.0304L8.18012 15.0324L8.1788 15.0331L7.82174 15.0333ZM7.82174 15.0333C7.93442 15.0865 8.06534 15.0867 8.17802 15.0334L7.82174 15.0333Z" stroke="#FF0000" stroke-linecap="round" stroke-linejoin="round"/>
</g>
</g>
</svg>
