<svg xmlns="http://www.w3.org/2000/svg" fill="none" width="16" height="16" viewBox="0 0 16 16">
  <path fill="currentColor" d="M7.99999,1.750035 C10.5403049,1.750035 11.8403747,2.47719282 11.9242235,4.06113707 L11.92856,4.228055 L10.92856,4.228055 C10.92856,3.25471907 10.2043665,2.78539154 8.23301778,2.75196171 L7.99999,2.750035 C5.93193264,2.750035 5.13114443,3.18331305 5.07466363,4.11797986 L5.07142,4.228055 L5.07142,6.535745 L12,6.535675 C13.0543618,6.535675 13.9181651,7.35155279 13.9945143,8.38641266 L14,8.535675 L14,12.249965 C14,13.3043268 13.1841222,14.1681301 12.1492623,14.2444793 L12,14.249965 L4,14.249965 C2.9456382,14.249965 2.08183488,13.4340872 2.00548574,12.3992273 L2,12.249965 L2,8.535675 C2,7.4813132 2.81587779,6.61750988 3.85073766,6.54116074 L4,6.535675 L4.07142,6.535745 L4.07142,4.228055 C4.07142,2.52820627 5.37207802,1.750035 7.99999,1.750035 Z M12,7.535675 L4,7.535675 C3.48716416,7.535675 3.06449284,7.92171519 3.00672773,8.41905387 L3,8.535675 L3,12.249965 C3,12.7628008 3.38604019,13.1854722 3.88337887,13.2432373 L4,13.249965 L12,13.249965 C12.5128358,13.249965 12.9355072,12.8639248 12.9932723,12.3665861 L13,12.249965 L13,8.535675 C13,7.98339025 12.5522847,7.535675 12,7.535675 Z M7.99997,9.106972 C8.47335701,9.106972 8.857113,9.49072799 8.857113,9.964115 C8.857113,10.437502 8.47335701,10.821258 7.99997,10.821258 C7.52658299,10.821258 7.142827,10.437502 7.142827,9.964115 C7.142827,9.49072799 7.52658299,9.106972 7.99997,9.106972 Z"/>
</svg>
