<svg width="16" height="16" viewBox="0 0 16 16" fill="none" xmlns="http://www.w3.org/2000/svg">
<g clip-path="url(#clip0_366_2330)">
<path id="Vector" d="M8.00016 3.55547V4.66661M8.00016 12.4444V11.3333M5.77794 10.3568L6.42896 10.8451C6.86284 11.1705 7.4315 11.3332 8.00016 11.3333M9.79092 5.3989L9.48359 5.15476C9.07395 4.82934 8.53706 4.66663 8.00016 4.66661M8.00016 4.66661C7.4632 4.66658 6.92622 4.8293 6.51653 5.15476C5.6972 5.80563 5.6972 6.86091 6.51653 7.51178C6.92623 7.83725 7.46309 7.99995 8.00008 7.99992C8.56883 7.99989 9.13759 8.1626 9.57154 8.48807C10.4393 9.13895 10.4393 10.1942 9.57154 10.8451C9.13761 11.1705 8.56889 11.3333 8.00016 11.3333M14.6668 7.99992C14.6668 11.6818 11.6821 14.6666 8.00016 14.6666C4.31826 14.6666 1.3335 11.6818 1.3335 7.99992C1.3335 4.31802 4.31826 1.33325 8.00016 1.33325C11.6821 1.33325 14.6668 4.31802 14.6668 7.99992Z" stroke="currentColor" stroke-width="1.25" stroke-linecap="round" stroke-linejoin="round"/>
</g>
<defs>
<clipPath id="clip0_366_2330">
<rect width="16" height="16" fill="white"/>
</clipPath>
</defs>
</svg>
