<svg width="16" height="16" viewBox="0 0 16 16" fill="none" xmlns="http://www.w3.org/2000/svg">
<path fill-rule="evenodd" clip-rule="evenodd" d="M3.20002 9.20008C3.86277 9.20008 4.40003 8.66282 4.40003 8.00007C4.40003 7.33731 3.86277 6.80005 3.20002 6.80005C2.53727 6.80005 2 7.33731 2 8.00007C2 8.66282 2.53727 9.20008 3.20002 9.20008ZM8.00001 9.20008C8.66276 9.20008 9.20002 8.66282 9.20002 8.00007C9.20002 7.33731 8.66276 6.80005 8.00001 6.80005C7.33726 6.80005 6.79999 7.33731 6.79999 8.00007C6.79999 8.66282 7.33726 9.20008 8.00001 9.20008ZM14.0002 8.00007C14.0002 8.66282 13.463 9.20008 12.8002 9.20008C12.1375 9.20008 11.6002 8.66282 11.6002 8.00007C11.6002 7.33731 12.1375 6.80005 12.8002 6.80005C13.463 6.80005 14.0002 7.33731 14.0002 8.00007Z" fill="currentColor"/>
</svg>
