<svg xmlns="http://www.w3.org/2000/svg" fill="none" width="16" height="16" viewBox="0 0 16 16">
  <path fill="currentColor" d="M10.9287,6.28571 L10.9287,3.97802 C10.9287,3.00469076 10.2044859,2.53535704 8.2331287,2.50192673 L8.0001,2.5 C5.93204862,2.5 5.13125488,2.93328051 5.07477366,3.86794513 L5.07153,3.97802 L5.07153,6.28571 L10.9287,6.28571 Z M12,7.28564 L4,7.28564 C3.44771525,7.28564 3,7.73335525 3,8.28564 L3,8.28564 L3,11.99993 C3,12.5522147 3.44771525,12.99993 4,12.99993 L4,12.99993 L12,12.99993 C12.5522847,12.99993 13,12.5522147 13,11.99993 L13,11.99993 L13,8.28564 C13,7.73335525 12.5522847,7.28564 12,7.28564 L12,7.28564 Z M7.99997,8.857177 C8.47335701,8.857177 8.857113,9.24093299 8.857113,9.71432 C8.857113,10.187707 8.47335701,10.571463 7.99997,10.571463 C7.52658299,10.571463 7.142827,10.187707 7.142827,9.71432 C7.142827,9.24093299 7.52658299,8.857177 7.99997,8.857177 Z M4.07153,3.97802 C4.07153,2.27817326 5.37219432,1.5 8.0001,1.5 C10.5404219,1.5 11.8405132,2.22716064 11.9243634,3.81110235 L11.9287,3.97802 L11.9287,6.28571 L12,6.28564 C13.1045695,6.28564 14,7.1810705 14,8.28564 L14,8.28564 L14,11.99993 C14,13.1044995 13.1045695,13.99993 12,13.99993 L12,13.99993 L4,13.99993 C2.8954305,13.99993 2,13.1044995 2,11.99993 L2,11.99993 L2,8.28564 C2,7.1810705 2.8954305,6.28564 4,6.28564 L4,6.28564 L4.07153,6.28571 L4.07153,3.97802 Z"/>
</svg>
