<svg width="16" height="16" viewBox="0 0 16 16" fill="none" xmlns="http://www.w3.org/2000/svg">
<g id="Pin">
<path id="Vector" d="M5.70066 10.5115L3.84066 12.3648M10.5807 9.70484L13.3607 6.92484C13.6073 6.67817 13.6073 6.2715 13.3607 6.02484L10.1873 2.8515C9.94066 2.60484 9.53399 2.60484 9.28733 2.8515L6.50733 5.6315C6.22066 5.91817 5.79399 6.00484 5.40066 5.89817C4.56733 5.67817 3.79399 5.88484 3.20733 6.1715C2.62066 6.45817 2.47399 7.28484 2.95399 7.76484L8.45399 13.2648C8.93399 13.7448 9.74733 13.6182 10.0473 13.0115C10.3473 12.4048 10.5473 11.6515 10.3207 10.8182C10.214 10.4248 10.294 9.99817 10.5873 9.7115L10.5807 9.70484Z" stroke="currentColor" stroke-linecap="round" stroke-linejoin="round"/>
</g>
</svg>
