<svg width="16" height="16" viewBox="0 0 16 16" fill="none" xmlns="http://www.w3.org/2000/svg">
<g clip-path="url(#clip0)">
<path d="M13.9159 7.65912C13.8324 7.51241 11.8805 4 7.99946 4C4.11844 4 2.16655 7.51241 2.083 7.65912C1.96908 7.86623 1.96908 8.13376 2.083 8.34088C2.16655 8.48759 4.11844 12 7.99946 12C11.8805 12 13.8324 8.48759 13.9159 8.34088C14.0298 8.13376 14.0298 7.86623 13.9159 7.65912ZM7.99946 10.7055C5.3868 10.7055 3.81465 8.79827 3.26781 8.00431C3.81465 7.20173 5.3868 5.2945 7.99946 5.2945C10.6121 5.2945 12.1843 7.20173 12.7311 7.99569C12.1843 8.79827 10.6121 10.7055 7.99946 10.7055Z" fill="currentColor"/>
<path d="M8.03797 6.03668C7.13417 6.03668 6.39746 6.87379 6.39746 7.90076C6.39746 8.92773 7.13417 9.76484 8.03797 9.76484C8.94176 9.76484 9.67847 8.92773 9.67847 7.90076C9.67088 6.87379 8.94176 6.03668 8.03797 6.03668Z" fill="currentColor"/>
</g>
<defs>
<clipPath id="clip0">
<rect width="12" height="8" fill="none" transform="translate(2 4)"/>
</clipPath>
</defs>
</svg>
