<svg width="16" height="16" viewBox="0 0 16 16" fill="none" xmlns="http://www.w3.org/2000/svg">
<g clip-path="url(#clip0)">
<path d="M0.453673 -0.00390625H15.5669V1.69892H0.453673V-0.00390625ZM14.2532 10.1308V3.47455H1.7674V10.1308H14.2532ZM3.5784 5.17615H12.4611V8.42962H3.5784V5.17615ZM11.5521 13.9659C12.095 13.135 12.6083 12.1701 13.0834 11.0752L11.267 10.413C10.7949 11.7106 10.2445 12.8969 9.61892 13.9663H6.45799C5.93357 12.5797 5.34252 11.3943 4.67948 10.413L3.00915 11.0752C3.69809 12.1088 4.25336 13.0713 4.67948 13.9663H0.0259094V15.6502H15.9946V13.9663H11.5525L11.5521 13.9659Z" fill="#2E963D"/>
</g>
<defs>
<clipPath id="clip0">
<rect width="16" height="16" fill="white"/>
</clipPath>
</defs>
</svg>
