<svg width="16" height="16" viewBox="0 0 16 16" fill="none" xmlns="http://www.w3.org/2000/svg">
<path d="M11.287 2C10.6096 2.00009 9.94513 2.18298 9.3657 2.52884C8.78627 2.87471 8.31397 3.37034 8 3.962C7.61423 3.23827 6.99375 2.66269 6.23748 2.32703C5.48121 1.99138 4.6327 1.91498 3.82725 2.11001C3.0218 2.30504 2.30579 2.76028 1.79338 3.40314C1.28097 4.046 1.00166 4.83946 1 5.657C1 7.676 2.27217 9.521 3.91565 11.036C5.18354 12.1435 6.55057 13.1356 8 14C9.43856 13.1196 10.8043 12.1285 12.0843 11.036C13.9104 9.392 15 7.676 15 5.657C15 5.1765 14.9039 4.70072 14.7173 4.25683C14.5307 3.81295 14.2571 3.40967 13.9123 3.07005C13.5675 2.73043 13.1581 2.46112 12.7076 2.27751C12.2572 2.09391 11.7744 1.99961 11.287 2Z" stroke="#B3B3B3" stroke-miterlimit="10" stroke-linecap="round" stroke-linejoin="round"/>
</svg>
