<svg width="16" height="16" viewBox="0 0 16 16" fill="none" xmlns="http://www.w3.org/2000/svg">
<g>
<path id="Vector" d="M4.76218 9.55798C5.04829 9.36488 5.12369 8.9764 4.93059 8.69029C4.7375 8.40417 4.34902 8.32877 4.06291 8.52187L4.76218 9.55798ZM2.17153 11.69L2.73185 11.9669L2.73225 11.9661L2.17153 11.69ZM13.8687 11.7929L14.4426 11.5453L14.4423 11.5448L13.8687 11.7929ZM4.06291 8.52187C2.86279 9.33184 2.0936 10.4334 1.61081 11.4139L2.73225 11.9661C3.15031 11.117 3.79358 10.2117 4.76218 9.55798L4.06291 8.52187ZM1.61122 11.4131C0.900097 12.8521 1.88197 14.6249 3.53393 14.6249V13.3749C2.88371 13.3749 2.39753 12.6434 2.73184 11.9669L1.61122 11.4131ZM3.53393 14.6249H12.4563V13.3749H3.53393V14.6249ZM12.4563 14.6249C14.0294 14.6249 15.0614 12.9798 14.4426 11.5453L13.2948 12.0405C13.5714 12.6815 13.0964 13.3749 12.4563 13.3749V14.6249ZM14.4423 11.5448C13.9986 10.519 13.2509 9.3308 11.9975 8.48234L11.2968 9.51746C12.29 10.1899 12.9103 11.1515 13.2951 12.041L14.4423 11.5448ZM10.3749 4.99997C10.3749 6.31163 9.31159 7.37495 7.99992 7.37495V8.62495C10.0019 8.62495 11.6249 7.00199 11.6249 4.99997H10.3749ZM7.99992 7.37495C6.68824 7.37495 5.62493 6.31163 5.62493 4.99997H4.37493C4.37493 7.00199 5.99789 8.62495 7.99992 8.62495V7.37495ZM5.62493 4.99997C5.62493 3.68831 6.68824 2.625 7.99992 2.625V1.375C5.99789 1.375 4.37493 2.99795 4.37493 4.99997H5.62493ZM7.99992 2.625C9.31159 2.625 10.3749 3.68831 10.3749 4.99997H11.6249C11.6249 2.99795 10.0019 1.375 7.99992 1.375V2.625Z" fill="currentColor"/>
</g>
</svg>
