<svg width="16" height="16" viewBox="0 0 16 16" fill="none" xmlns="http://www.w3.org/2000/svg">
<path d="M7.99988 14.4998C11.5897 14.4998 14.4998 11.5897 14.4998 7.99988C14.4998 4.41009 11.5897 1.5 7.99988 1.5C4.41009 1.5 1.5 4.41009 1.5 7.99988C1.5 11.5897 4.41009 14.4998 7.99988 14.4998Z" stroke="currentColor" stroke-miterlimit="10"/>
<path d="M1.5 8H14.4998" stroke="currentColor" stroke-miterlimit="10"/>
<path d="M3.08301 3.7041C3.81778 4.15627 4.80689 4.89104 8.00031 4.89104C11.1937 4.89104 12.0415 4.18453 12.8893 3.7041" stroke="currentColor" stroke-miterlimit="10"/>
<path d="M12.974 12.1819C12.2675 11.7298 11.1936 10.9385 8.00019 10.9385C4.80677 10.9385 3.87418 11.7015 3.02637 12.1819" stroke="currentColor" stroke-miterlimit="10"/>
<path d="M8.05668 14.4998C9.57063 14.4998 10.7979 11.5897 10.7979 7.99988C10.7979 4.41009 9.57063 1.5 8.05668 1.5C6.54273 1.5 5.31543 4.41009 5.31543 7.99988C5.31543 11.5897 6.54273 14.4998 8.05668 14.4998Z" stroke="currentColor" stroke-miterlimit="10"/>
</svg>
