<svg width="16" height="16" viewBox="0 0 16 16" fill="none" xmlns="http://www.w3.org/2000/svg">
<path d="M2 8C2 11.3138 4.6862 14 8 14C11.3138 14 14 11.3138 14 8C14 4.6862 11.3138 2 8 2C4.6862 2 2 4.6862 2 8Z" stroke="currentColor" stroke-width="0.8" stroke-linecap="round" stroke-linejoin="round"/>
<path d="M8.59993 2.0293C8.59993 2.0293 10.3999 4.3993 10.3999 7.9993C10.3999 11.5993 8.59993 13.9693 8.59993 13.9693M7.39993 13.9693C7.39993 13.9693 5.59993 11.5993 5.59993 7.9993C5.59993 4.3993 7.39993 2.0293 7.39993 2.0293M2.37793 10.0993H13.6219M2.37793 5.8993H13.6219" stroke="currentColor" stroke-width="0.8" stroke-linecap="round" stroke-linejoin="round"/>
</svg>
