<svg width="16" height="16" viewBox="0 0 16 16" fill="none" xmlns="http://www.w3.org/2000/svg">
<g clip-path="url(#clip0_7144_46718)">
<path d="M7.71448 12.2813L6.02714 13.9031C5.51367 14.3942 4.82122 14.6696 4.09973 14.6696C3.37824 14.6696 2.68579 14.3942 2.17232 13.9031C1.922 13.6611 1.7234 13.3736 1.5879 13.0571C1.45239 12.7406 1.38264 12.4013 1.38264 12.0586C1.38264 11.716 1.45239 11.3767 1.5879 11.0602C1.7234 10.7437 1.922 10.4562 2.17232 10.2142L5.38925 7.1235C5.90272 6.63235 6.59517 6.35696 7.31666 6.35696C8.03814 6.35696 8.7306 6.63235 9.24407 7.1235C9.57084 7.43809 9.80726 7.82985 9.92998 8.26008C9.99747 8.20612 10.0595 8.14602 10.1152 8.08062L11 7.22985C10.8019 6.83024 10.5352 6.46614 10.2112 6.15309C9.4407 5.41436 8.40056 5 7.31666 5C6.23275 5 5.19261 5.41436 4.42211 6.15309L1.19833 9.27037C0.818605 9.63552 0.517223 10.0699 0.311554 10.5484C0.105886 11.027 0 11.5402 0 12.0586C0 12.577 0.105886 13.0903 0.311554 13.5688C0.517223 14.0474 0.818605 14.4818 1.19833 14.8469C1.96883 15.5856 3.00897 16 4.09287 16C5.17677 16 6.21692 15.5856 6.98742 14.8469L9.491 12.4408H9.14804C8.66502 12.449 8.18301 12.3954 7.71448 12.2813Z" fill="black"/>
<path d="M14.9247 1.15309C14.2237 0.414357 13.2772 0 12.291 0C11.3048 0 10.3583 0.414357 9.65727 1.15309L7.37928 3.55918H7.68509C8.12778 3.55906 8.56852 3.62164 8.99572 3.74528L10.531 2.1235C10.9982 1.63235 11.6283 1.35696 12.2848 1.35696C12.9412 1.35696 13.5713 1.63235 14.0385 2.1235C14.2663 2.36552 14.447 2.65301 14.5703 2.9695C14.6936 3.286 14.757 3.62529 14.757 3.96795C14.757 4.3106 14.6936 4.64989 14.5703 4.96639C14.447 5.28289 14.2663 5.57037 14.0385 5.81239L11.1114 8.90309C10.6442 9.39423 10.0142 9.66962 9.3577 9.66962C8.70122 9.66962 8.07116 9.39423 7.60396 8.90309C7.30663 8.5885 7.09151 8.19674 6.97985 7.76651C6.91738 7.81173 6.85889 7.8629 6.8051 7.91938L6 8.77015C6.18027 9.16976 6.42296 9.53386 6.71772 9.84691C7.4188 10.5856 8.36522 11 9.35146 11C10.3377 11 11.2841 10.5856 11.9852 9.84691L14.9123 6.75622C15.257 6.39062 15.5306 5.9561 15.7172 5.47762C15.9039 4.99913 16 4.48609 16 3.96795C16 3.4498 15.9039 2.93676 15.7172 2.45828C15.5306 1.97979 15.257 1.54527 14.9123 1.17967L14.9247 1.15309Z" fill="black"/>
</g>
<defs>
<clipPath id="clip0_7144_46718">
<rect width="16" height="16" fill="white"/>
</clipPath>
</defs>
</svg>
