<svg width="73" height="72" viewBox="0 0 73 72" fill="none" xmlns="http://www.w3.org/2000/svg">
<g clip-path="url(#clip0)">
<path d="M72.0303 0H0.0302734V72H72.0303V0Z" fill="#062D2A"/>
<path d="M12.62 8.99994C12.8464 8.99994 13.03 8.81637 13.03 8.58994C13.03 8.3635 12.8464 8.17993 12.62 8.17993C12.3935 8.17993 12.21 8.3635 12.21 8.58994C12.21 8.81637 12.3935 8.99994 12.62 8.99994Z" fill="#C0A46B"/>
<path d="M25.62 16.9999C25.8464 16.9999 26.03 16.8164 26.03 16.5899C26.03 16.3635 25.8464 16.1799 25.62 16.1799C25.3935 16.1799 25.21 16.3635 25.21 16.5899C25.21 16.8164 25.3935 16.9999 25.62 16.9999Z" fill="#C0A46B"/>
<path d="M7.61996 26.9999C7.8464 26.9999 8.02996 26.8164 8.02996 26.5899C8.02996 26.3635 7.8464 26.1799 7.61996 26.1799C7.39352 26.1799 7.20996 26.3635 7.20996 26.5899C7.20996 26.8164 7.39352 26.9999 7.61996 26.9999Z" fill="#C0A46B"/>
<path d="M58.62 7.99994C58.8464 7.99994 59.03 7.81637 59.03 7.58994C59.03 7.3635 58.8464 7.17993 58.62 7.17993C58.3935 7.17993 58.21 7.3635 58.21 7.58994C58.21 7.81637 58.3935 7.99994 58.62 7.99994Z" fill="#C0A46B"/>
<path d="M28.12 14.9901C28.6225 14.9901 29.03 14.5826 29.03 14.08C29.03 13.5775 28.6225 13.17 28.12 13.17C27.6174 13.17 27.21 13.5775 27.21 14.08C27.21 14.5826 27.6174 14.9901 28.12 14.9901Z" fill="#C0A46B"/>
<path d="M61.62 20.9999C61.8464 20.9999 62.03 20.8164 62.03 20.5899C62.03 20.3635 61.8464 20.1799 61.62 20.1799C61.3935 20.1799 61.21 20.3635 61.21 20.5899C61.21 20.8164 61.3935 20.9999 61.62 20.9999Z" fill="#C0A46B"/>
<path d="M68.62 23.9999C68.8464 23.9999 69.03 23.8164 69.03 23.5899C69.03 23.3635 68.8464 23.1799 68.62 23.1799C68.3935 23.1799 68.21 23.3635 68.21 23.5899C68.21 23.8164 68.3935 23.9999 68.62 23.9999Z" fill="#C0A46B"/>
<path d="M50.62 30.9999C50.8464 30.9999 51.03 30.8164 51.03 30.5899C51.03 30.3635 50.8464 30.1799 50.62 30.1799C50.3935 30.1799 50.21 30.3635 50.21 30.5899C50.21 30.8164 50.3935 30.9999 50.62 30.9999Z" fill="#C0A46B"/>
<path d="M39.5704 46.95L41.0304 47.6C41.0304 47.6 40.3104 46.81 39.4904 45.92L40.1704 46.27C40.1704 46.27 39.3304 45.24 38.4604 44.18L39.9304 44.94C39.9304 44.94 39.4004 44.29 38.7504 43.49V43.1L40.5904 44.05C40.5904 44.05 39.7604 43.02 38.8804 41.97L38.9904 42.03C38.9904 42.03 38.7404 41.72 38.3704 41.27L39.4804 41.84C39.4804 41.84 38.3904 40.5 37.4004 39.31V39.27L39.2404 40.22C39.2404 40.22 38.0004 38.69 36.9604 37.45L36.9904 37.33L37.8404 38.09C37.8404 38.09 37.2004 37.05 36.7004 36.23L38.4504 37.13C38.4504 37.13 36.9504 35.28 35.8704 34.01L37.2204 34.71C37.2204 34.71 35.9604 33.15 34.9204 31.91L34.9104 31.79L35.9504 32.12C35.9504 32.12 34.5104 30.95 34.0004 30.58C33.8704 30.37 33.7704 30.2 33.7104 30.1C33.7104 30.1 32.4504 31.55 31.6204 31.78L32.5204 31.64L32.4104 32.06C32.2904 32.15 32.1704 32.23 32.0604 32.29L32.2904 32.2C31.8004 32.57 31.2404 32.95 30.8504 33.06L31.7504 32.92L31.6804 33.2C31.1704 33.79 30.6404 34.31 30.2004 34.57L31.7104 33.92V34.69C31.0404 35.54 30.2504 36.43 29.6304 36.79L31.1404 36.14V36.62C30.4004 37.17 29.6204 37.67 29.0504 37.85L30.6704 37.58L30.6304 37.75C29.9904 38.54 29.2704 39.33 28.7004 39.67L30.2104 39.02V39.77C29.5004 40.69 28.6104 41.73 27.9304 42.13L29.4404 41.48V42.09C28.6704 42.68 27.8304 43.23 27.2304 43.41L28.8004 43.14C28.1504 43.95 27.4204 44.75 26.8304 45.09L28.3404 44.44V45.47L28.6704 45.08C27.9404 46.08 26.9404 47.31 26.1904 47.76L27.6904 47.1L27.7004 48.13L28.5904 47.06L28.9304 48.12L29.4504 47.08L30.0704 48.11L30.3904 47.05L30.9104 47.6C30.5904 47.92 30.2904 48.19 30.0104 48.36L31.1504 47.86L31.3804 48.1V47.76L31.5204 47.7L31.5304 48.73L32.4204 47.66L32.7604 48.72L33.2004 47.84L33.2204 47.83L33.3304 47.78L33.9004 48.72L34.1804 47.79L34.2904 47.73L35.2104 48.7L35.2004 47.65L35.5704 47.97L35.5804 48.15L35.6604 48.05L35.7704 48.14C35.7704 48.14 35.7504 48.09 35.7004 48L35.8404 47.82H35.8504L35.9504 48.08L36.0304 47.91L37.0604 48.43C37.0604 48.43 36.7204 48.01 36.2404 47.44L36.3904 47.1L36.4304 47.05L36.8204 48.09L36.9504 47.8L37.1004 48.02L37.3304 47.08L37.9604 48.02L38.0604 47.62L38.4004 47.95L38.3504 47.07L39.2704 47.95L39.2204 47.14L40.2204 47.58C40.1704 47.6 39.9304 47.34 39.5704 46.95ZM31.3604 46.93L31.4804 46.99C31.4404 47.04 31.4004 47.08 31.3604 47.13V46.93ZM33.1804 47.86C33.1904 47.85 33.1904 47.86 33.1804 47.86V47.86ZM33.2004 47.85C33.2004 47.85 33.1904 47.84 33.2004 47.85L33.2604 47.71L33.3004 47.77C33.2604 47.8 33.2304 47.83 33.2004 47.85ZM34.1704 47.77L34.2004 47.67L34.2404 47.71C34.2104 47.73 34.1904 47.75 34.1704 47.77ZM35.5204 47.72C35.5104 47.71 35.5104 47.7 35.5004 47.69L35.5104 47.7L35.5204 47.72Z" fill="#133A2D"/>
<path d="M26.2096 46.52L27.4896 46.66C27.4896 46.66 26.7396 46.23 25.8896 45.75L26.4996 45.85C26.4996 45.85 25.5996 45.26 24.6696 44.66L25.9796 44.88C25.9796 44.88 25.4096 44.51 24.7196 44.06L24.6196 43.76L26.2596 44.04C26.2596 44.04 25.3696 43.45 24.4396 42.86L24.5396 42.88C24.5396 42.88 24.2696 42.7 23.8796 42.45L24.8696 42.62C24.8696 42.62 23.6996 41.85 22.6496 41.18L22.6396 41.15L24.2796 41.43C24.2796 41.43 22.9496 40.56 21.8496 39.86L21.8396 39.76L22.6796 40.13C22.6796 40.13 21.9296 39.49 21.3496 38.98L22.9196 39.25C22.9196 39.25 21.3196 38.2 20.1696 37.48L21.3796 37.69C21.3796 37.69 20.0296 36.8 18.9196 36.1L18.9296 36H19.8096C19.8096 36 18.4196 35.45 17.9396 35.29C17.7896 35.16 17.6696 35.05 17.5996 34.99C17.5996 34.99 16.9896 36.41 16.4096 36.8L17.0696 36.48L17.0896 36.83C17.0196 36.93 16.9496 37.02 16.8796 37.09L17.0296 36.97C16.7496 37.37 16.4096 37.8 16.1296 37.99L16.7896 37.67L16.7996 37.9C16.5496 38.48 16.2696 39.01 15.9996 39.31L16.9996 38.44L17.1896 39.03C16.8796 39.85 16.4896 40.72 16.0996 41.15L17.0996 40.28L17.2196 40.65C16.7896 41.26 16.3096 41.83 15.9096 42.1L17.0896 41.49L17.0996 41.63C16.7996 42.4 16.4396 43.18 16.0796 43.58L17.0796 42.71L17.2596 43.29C16.9396 44.18 16.5096 45.19 16.0796 45.66L17.0796 44.79L17.2296 45.26C16.7796 45.9 16.2696 46.53 15.8496 46.81L16.9896 46.22C16.6896 47 16.3196 47.8 15.9596 48.2L16.9596 47.33L17.2096 48.12L17.3696 47.74C17.0496 48.69 16.5796 49.88 16.1096 50.41L17.0996 49.53L17.3596 50.32L17.7796 49.28L18.2996 50.01L18.4496 49.08L19.1796 49.72L19.1596 48.82L19.6896 49.12C19.5296 49.45 19.3596 49.73 19.1796 49.92L19.9396 49.26L20.1796 49.39L20.0896 49.13L20.1796 49.05L20.4396 49.84L20.8596 48.8L21.3796 49.53L21.4996 48.74L21.5096 48.73L21.5796 48.66L22.2496 49.24L22.2296 48.46L22.2996 48.39L23.2396 48.91L22.9796 48.11L23.3396 48.26L23.3896 48.4L23.4196 48.3L23.5196 48.34C23.5196 48.34 23.4896 48.31 23.4296 48.25L23.4896 48.08H23.4996L23.6396 48.26L23.6596 48.11L24.5796 48.26C24.5796 48.26 24.2096 48.02 23.6996 47.7L23.7296 47.4L23.7496 47.35L24.2996 48.06L24.3296 47.81L24.4996 47.94L24.4496 47.16L25.1696 47.73L25.1496 47.4L25.4896 47.57L25.2296 46.9L26.1496 47.36L25.9196 46.75L26.7996 46.85C26.8296 46.88 26.5796 46.74 26.2096 46.52ZM19.8896 48.51L19.9996 48.53C19.9796 48.58 19.9596 48.62 19.9396 48.67L19.8896 48.51ZM21.5196 48.78C21.5296 48.78 21.5196 48.78 21.5196 48.78V48.78ZM21.5296 48.77L21.5396 48.65L21.5896 48.69C21.5696 48.72 21.5496 48.75 21.5296 48.77ZM22.2596 48.48V48.4L22.2996 48.42C22.2796 48.44 22.2696 48.46 22.2596 48.48ZM23.2896 48.11C23.2796 48.1 23.2796 48.1 23.2696 48.09H23.2796L23.2896 48.11Z" fill="#133A2D"/>
<path d="M13.8704 47.7L15.1004 47.83C15.1004 47.83 14.3804 47.42 13.5604 46.96L14.1504 47.06C14.1504 47.06 13.2904 46.5 12.3904 45.93L13.6504 46.14C13.6504 46.14 13.1104 45.79 12.4304 45.36L12.3404 45.07L13.9204 45.33C13.9204 45.33 13.0604 44.77 12.1704 44.21L12.2704 44.23C12.2704 44.23 12.0104 44.06 11.6304 43.82L12.5904 43.98C12.5904 43.98 11.4704 43.25 10.4604 42.61L10.4504 42.58L12.0304 42.84C12.0304 42.84 10.7504 42.01 9.70039 41.35L9.69039 41.26L10.5004 41.62C10.5004 41.62 9.78039 41.01 9.22039 40.53L10.7304 40.78C10.7304 40.78 9.19039 39.78 8.09039 39.1L9.26039 39.29C9.26039 39.29 7.96039 38.45 6.90039 37.78L6.87039 37.7H7.72039C7.72039 37.7 6.38039 37.18 5.92039 37.03C5.78039 36.91 5.66039 36.8 5.60039 36.74C5.60039 36.74 5.00039 38.1 4.44039 38.47L5.07039 38.16L5.09039 38.49C5.02039 38.59 4.95039 38.67 4.89039 38.74L5.04039 38.62C4.77039 39.01 4.44039 39.42 4.17039 39.59L4.80039 39.28L4.81039 39.5C4.57039 40.05 4.30039 40.56 4.03039 40.85L5.02039 40L5.20039 40.57C4.90039 41.35 4.52039 42.19 4.14039 42.6L5.11039 41.77L5.22039 42.12C4.80039 42.7 4.34039 43.25 3.96039 43.51L5.10039 42.93L5.11039 43.06C4.82039 43.79 4.47039 44.54 4.12039 44.92L5.09039 44.09L5.27039 44.64C4.96039 45.49 4.54039 46.45 4.12039 46.91L5.09039 46.08L5.23039 46.53C4.79039 47.14 4.30039 47.74 3.90039 48.02L5.00039 47.46C4.71039 48.2 4.35039 48.97 4.00039 49.36L4.97039 48.53L5.21039 49.29L5.36039 48.93C5.05039 49.83 4.59039 50.97 4.14039 51.48L5.10039 50.64L5.35039 51.39L5.76039 50.4L6.26039 51.1L6.40039 50.22L7.10039 50.83L7.09039 49.97L7.60039 50.25C7.44039 50.56 7.28039 50.83 7.11039 51.02L7.84039 50.38L8.07039 50.5L7.99039 50.25L8.08039 50.17L8.33039 50.92L8.74039 49.93L9.24039 50.63L9.36039 49.88L9.37039 49.87L9.44039 49.81L10.0804 50.36L10.0704 49.61L10.1404 49.54L11.0504 50.04L10.8004 49.27L11.1504 49.42L11.2004 49.55L11.2304 49.45L11.3304 49.49C11.3304 49.49 11.3004 49.46 11.2504 49.4L11.3104 49.23H11.3204L11.4504 49.4L11.4704 49.25L12.3604 49.39C12.3604 49.39 12.0104 49.17 11.5204 48.86L11.5504 48.57L11.5704 48.52L12.1004 49.19L12.1304 48.95L12.2904 49.08L12.2404 48.34L12.9304 48.88L12.9104 48.56L13.2404 48.72L13.0004 48.08L13.8904 48.51L13.6704 47.93L14.5204 48.02C14.4704 48.04 14.2304 47.9 13.8704 47.7ZM7.77039 49.62L7.87039 49.64C7.85039 49.68 7.83039 49.73 7.81039 49.77L7.77039 49.62ZM9.34039 49.88C9.35039 49.87 9.35039 49.87 9.34039 49.88V49.88ZM9.35039 49.86L9.36039 49.75L9.40039 49.79C9.39039 49.82 9.37039 49.84 9.35039 49.86ZM10.0504 49.58V49.5L10.0904 49.52C10.0804 49.54 10.0704 49.56 10.0504 49.58ZM11.0504 49.22C11.0404 49.21 11.0404 49.21 11.0304 49.2H11.0404L11.0504 49.22Z" fill="#133A2D"/>
<path d="M63.5296 51.45L64.4796 52.25C64.4796 52.25 64.1096 51.51 63.6896 50.67L64.1196 51.08C64.1196 51.08 63.7196 50.14 63.2896 49.17L64.2196 50.05C64.2196 50.05 63.9696 49.45 63.6496 48.72L63.7296 48.43L64.8996 49.53C64.8996 49.53 64.4996 48.59 64.0696 47.62L64.1396 47.69C64.1396 47.69 64.0196 47.41 63.8396 46.99L64.5496 47.65C64.5496 47.65 64.0296 46.42 63.5396 45.33L63.5496 45.3L64.7196 46.4C64.7196 46.4 64.1196 45 63.6196 43.86L63.6696 43.78L64.1396 44.53C64.1396 44.53 63.8896 43.62 63.6896 42.91L64.8096 43.96C64.8096 43.96 64.0896 42.27 63.5596 41.09L64.4196 41.9C64.4196 41.9 63.8096 40.48 63.2996 39.33L63.3196 39.24L64.0196 39.71C64.0196 39.71 63.1996 38.53 62.8996 38.15C62.8496 37.97 62.8096 37.82 62.7896 37.73C62.7896 37.73 61.5396 38.53 60.8696 38.52L61.5696 38.61L61.3996 38.89C61.2896 38.93 61.1896 38.97 61.0896 38.98L61.2796 38.97C60.8396 39.14 60.3296 39.3 60.0196 39.29L60.7196 39.38L60.6096 39.57C60.0996 39.89 59.5896 40.16 59.2096 40.26L60.4796 40.11L60.3096 40.68C59.6196 41.16 58.8396 41.64 58.2996 41.77L59.5696 41.62L59.4696 41.98C58.7996 42.23 58.1096 42.43 57.6396 42.43L58.9096 42.58L58.8396 42.7C58.1896 43.15 57.4796 43.57 56.9796 43.69L58.2496 43.54L58.0896 44.1C57.3596 44.63 56.4696 45.2 55.8696 45.34L57.1396 45.19L57.0096 45.64C56.2996 45.9 55.5596 46.13 55.0696 46.13L56.2996 46.28C55.6396 46.73 54.9196 47.17 54.4096 47.29L55.6796 47.14L55.4596 47.9L55.7896 47.68C55.0296 48.26 54.0096 48.95 53.3496 49.12L54.6196 48.96L54.3996 49.72L55.2896 49.12L55.3096 49.97L55.9196 49.32L56.1596 50.21L56.6296 49.49L56.8996 50.01C56.5896 50.18 56.3096 50.31 56.0596 50.37L57.0196 50.25L57.1396 50.48L57.2096 50.23L57.3196 50.22L57.0996 50.98L57.9896 50.38L58.0096 51.23L58.5296 50.67H58.5496L58.6396 50.65L58.8596 51.47L59.2696 50.84L59.3696 50.82L59.8396 51.74L60.0596 50.96L60.2696 51.27L60.2396 51.41L60.3196 51.35L60.3796 51.44C60.3796 51.44 60.3696 51.4 60.3596 51.32L60.4996 51.22L60.5196 51.44L60.6196 51.33L61.2796 51.94C61.2796 51.94 61.1096 51.56 60.8796 51.03L61.0696 50.81L61.1096 50.78L61.1696 51.63L61.3296 51.45L61.3896 51.65L61.7696 51.01L62.0396 51.84L62.1996 51.56L62.3796 51.88L62.5296 51.22L63.0196 52.07L63.1596 51.46L63.8096 52.01C63.8296 52.06 63.7096 51.82 63.5296 51.45ZM57.3896 49.64L57.4696 49.71C57.4296 49.74 57.3896 49.76 57.3496 49.79L57.3896 49.64ZM58.5596 50.73C58.5596 50.72 58.5596 50.72 58.5596 50.73V50.73ZM58.5696 50.72L58.6396 50.63L58.6596 50.69C58.6296 50.7 58.5996 50.71 58.5696 50.72ZM59.3096 50.88L59.3496 50.82L59.3696 50.86C59.3496 50.86 59.3296 50.87 59.3096 50.88ZM60.3396 51.14C60.3396 51.13 60.3396 51.12 60.3396 51.11L60.3496 51.12L60.3396 51.14Z" fill="#133A2D"/>
<path d="M49.5296 46.45L50.4796 47.25C50.4796 47.25 50.1096 46.51 49.6896 45.67L50.1196 46.08C50.1196 46.08 49.7196 45.14 49.2896 44.17L50.2196 45.05C50.2196 45.05 49.9696 44.45 49.6496 43.72L49.7296 43.43L50.8996 44.53C50.8996 44.53 50.4996 43.59 50.0696 42.62L50.1396 42.69C50.1396 42.69 50.0196 42.41 49.8396 41.99L50.5496 42.65C50.5496 42.65 50.0296 41.42 49.5396 40.33L49.5496 40.3L50.7196 41.4C50.7196 41.4 50.1196 40 49.6196 38.86L49.6696 38.78L50.1396 39.53C50.1396 39.53 49.8896 38.62 49.6896 37.91L50.8096 38.96C50.8096 38.96 50.0896 37.27 49.5596 36.09L50.4196 36.9C50.4196 36.9 49.8096 35.48 49.2996 34.33L49.3196 34.24L50.0196 34.71C50.0196 34.71 49.1996 33.53 48.8996 33.15C48.8496 32.97 48.8096 32.82 48.7896 32.73C48.7896 32.73 47.5396 33.53 46.8696 33.52L47.5696 33.61L47.3996 33.89C47.2896 33.93 47.1896 33.97 47.0896 33.98L47.2796 33.97C46.8396 34.14 46.3296 34.3 46.0196 34.29L46.7196 34.38L46.6096 34.57C46.0996 34.89 45.5896 35.16 45.2096 35.26L46.4796 35.11L46.3096 35.68C45.6196 36.16 44.8396 36.64 44.2996 36.77L45.5696 36.62L45.4696 36.98C44.7996 37.23 44.1096 37.43 43.6396 37.43L44.9096 37.58L44.8396 37.7C44.1896 38.15 43.4796 38.57 42.9796 38.69L44.2496 38.54L44.0896 39.1C43.3596 39.63 42.4696 40.2 41.8696 40.34L43.1396 40.19L43.0096 40.64C42.2996 40.9 41.5596 41.13 41.0696 41.13L42.2996 41.28C41.6396 41.73 40.9196 42.17 40.4096 42.29L41.6796 42.14L41.4596 42.9L41.7896 42.68C41.0296 43.26 40.0096 43.95 39.3496 44.12L40.6196 43.96L40.3996 44.72L41.2896 44.12L41.3096 44.97L41.9196 44.32L42.1596 45.21L42.6296 44.49L42.8996 45.01C42.5896 45.18 42.3096 45.31 42.0596 45.37L43.0196 45.25L43.1396 45.48L43.2096 45.23L43.3196 45.22L43.0996 45.98L43.9896 45.38L44.0096 46.23L44.5296 45.67H44.5496L44.6396 45.65L44.8596 46.47L45.2696 45.84L45.3696 45.82L45.8396 46.74L46.0596 45.96L46.2696 46.27L46.2396 46.41L46.3196 46.35L46.3796 46.44C46.3796 46.44 46.3696 46.4 46.3596 46.32L46.4996 46.22L46.5196 46.44L46.6196 46.33L47.2796 46.94C47.2796 46.94 47.1096 46.56 46.8796 46.03L47.0696 45.81L47.1096 45.78L47.1696 46.63L47.3296 46.45L47.3896 46.65L47.7696 46.01L48.0396 46.84L48.1996 46.56L48.3796 46.88L48.5296 46.22L49.0196 47.07L49.1596 46.46L49.8096 47.01C49.8296 47.06 49.7096 46.82 49.5296 46.45ZM43.3896 44.64L43.4696 44.71C43.4296 44.74 43.3896 44.76 43.3496 44.79L43.3896 44.64ZM44.5596 45.73C44.5596 45.72 44.5596 45.72 44.5596 45.73V45.73ZM44.5696 45.72L44.6396 45.63L44.6596 45.69C44.6296 45.7 44.5996 45.71 44.5696 45.72ZM45.3096 45.88L45.3496 45.82L45.3696 45.86C45.3496 45.86 45.3296 45.87 45.3096 45.88ZM46.3396 46.14C46.3396 46.13 46.3396 46.12 46.3396 46.11L46.3496 46.12L46.3396 46.14Z" fill="#133A2D"/>
<path opacity="0.12" d="M29.0195 0C29.0195 0 42.0695 10.27 39.0495 18.57C36.0295 26.87 28.9995 28.78 32.5195 43.94L36.5795 44C36.5795 44 33.0395 25.79 48.0395 23.64C63.0395 21.49 74.1795 12.89 65.6095 0H29.0195Z" fill="white"/>
<path d="M7.87 50.7001L9.1 50.8301C9.1 50.8301 8.38 50.4201 7.56 49.9601L8.15 50.0601C8.15 50.0601 7.29 49.5001 6.39 48.9301L7.65 49.1401C7.65 49.1401 7.11 48.7901 6.43 48.3601L6.34 48.0701L7.92 48.3301C7.92 48.3301 7.06 47.7701 6.17 47.2101L6.27 47.2301C6.27 47.2301 6.01 47.0601 5.63 46.8201L6.59 46.9801C6.59 46.9801 5.47 46.2501 4.46 45.6101L4.45 45.5801L6.03 45.8401C6.03 45.8401 4.75 45.0101 3.7 44.3501L3.69 44.2601L4.5 44.6201C4.5 44.6201 3.78 44.0101 3.22 43.5301L4.73 43.7801C4.73 43.7801 3.19 42.7801 2.09 42.1001L3.26 42.2901C3.26 42.2901 1.96 41.4501 0.9 40.7801L0.87 40.7001H1.71C1.71 40.7001 0.53 40.2401 0 40.0701V53.8101L0.22 54.1201L0.36 53.2401L1.06 53.8501L1.05 52.9901L1.56 53.2701C1.4 53.5801 1.24 53.8501 1.07 54.0401L1.8 53.4001L2.03 53.5201L1.95 53.2701L2.04 53.1901L2.29 53.9401L2.7 52.9501L3.2 53.6501L3.32 52.9001L3.33 52.8901L3.4 52.8301L4.04 53.3801L4.03 52.6301L4.1 52.5601L5.01 53.0601L4.76 52.2901L5.11 52.4401L5.16 52.5701L5.19 52.4701L5.29 52.5101C5.29 52.5101 5.26 52.4801 5.21 52.4201L5.27 52.2501H5.28L5.41 52.4201L5.43 52.2701L6.32 52.4101C6.32 52.4101 5.97 52.1901 5.48 51.8801L5.51 51.5901L5.53 51.5401L6.06 52.2101L6.09 51.9701L6.25 52.1001L6.2 51.3601L6.89 51.9001L6.87 51.5801L7.2 51.7401L6.96 51.1001L7.85 51.5301L7.63 50.9501L8.48 51.0401C8.47 51.0401 8.23 50.9001 7.87 50.7001ZM1.82 52.7701L1.77 52.6201L1.87 52.6401C1.86 52.6801 1.84 52.7301 1.82 52.7701ZM3.34 52.8801C3.35 52.8701 3.35 52.8701 3.34 52.8801V52.8801ZM3.35 52.8601L3.36 52.7501L3.4 52.7901C3.39 52.8201 3.37 52.8401 3.35 52.8601ZM4.05 52.5801V52.5001L4.09 52.5201C4.08 52.5401 4.07 52.5601 4.05 52.5801ZM5.03 52.2001H5.04L5.05 52.2201C5.04 52.2201 5.04 52.2101 5.03 52.2001Z" fill="#133A2D"/>
<path d="M72.0301 37.56C71.9901 37.42 71.9601 37.29 71.9401 37.22C71.9401 37.22 70.5401 38.12 69.7901 38.11L70.5701 38.21L70.3801 38.53C70.2601 38.58 70.1401 38.61 70.0401 38.63L70.2501 38.61C69.7501 38.8 69.1901 38.98 68.8401 38.98L69.6201 39.08L69.4901 39.29C68.9201 39.65 68.3601 39.96 67.9301 40.07L69.3401 39.9L69.1501 40.54C68.3801 41.08 67.5101 41.62 66.9101 41.77L68.3201 41.6L68.2001 42C67.4501 42.28 66.6801 42.5 66.1601 42.51L67.5701 42.68L67.4901 42.81C66.7601 43.31 65.9701 43.79 65.4101 43.93L66.8201 43.76L66.6401 44.39C65.8201 44.98 64.8301 45.62 64.1601 45.79L65.5701 45.62L65.4201 46.13C64.6301 46.43 63.8101 46.68 63.2601 46.68L64.6301 46.84C63.9001 47.35 63.0901 47.84 62.5201 47.98L63.9301 47.81L63.6801 48.67L64.0501 48.43C63.2001 49.08 62.0601 49.86 61.3301 50.05L62.7401 49.87L62.5001 50.73L63.5001 50.06L63.5201 51.02L64.2001 50.29L64.4701 51.29L64.9901 50.48L65.2901 51.06C64.9501 51.25 64.6301 51.4 64.3601 51.47L65.4301 51.33L65.5601 51.59L65.6401 51.3L65.7701 51.28L65.5301 52.14L66.5301 51.47L66.5501 52.43L67.1301 51.8H67.1501L67.2501 51.78L67.5001 52.7L67.9601 52L68.0701 51.98L68.6001 53.01L68.8501 52.14L69.0801 52.49L69.0401 52.64L69.1301 52.57L69.2001 52.67C69.2001 52.67 69.1901 52.62 69.1801 52.54L69.3401 52.42H69.3501L69.3701 52.66L69.4801 52.53L70.2101 53.21C70.2101 53.21 70.0201 52.78 69.7601 52.19L69.9701 51.94L70.0201 51.91L70.0901 52.87L70.2701 52.66L70.3401 52.88L70.7601 52.16L71.0601 53.09L71.2401 52.78L71.4401 53.14L71.6101 52.39L72.0101 53.08V37.56H72.0301ZM65.8401 50.77L65.8901 50.6L65.9801 50.68C65.9301 50.71 65.8901 50.74 65.8401 50.77ZM67.1801 51.82C67.1901 51.82 67.1901 51.82 67.1801 51.82V51.82ZM67.2001 51.81C67.2001 51.81 67.1901 51.81 67.2001 51.81L67.2801 51.71L67.3001 51.77C67.2601 51.79 67.2301 51.8 67.2001 51.81ZM68.0201 51.99L68.0701 51.92L68.0901 51.96C68.0701 51.97 68.0401 51.98 68.0201 51.99ZM69.1701 52.28C69.1701 52.27 69.1701 52.26 69.1701 52.25L69.1801 52.26L69.1701 52.28Z" fill="#133A2D"/>
<path d="M0.0302734 52.54C0.0302734 52.54 30.0303 33.81 72.0303 52.54V72H0.0302734V52.54Z" fill="#29846A"/>
<path d="M17.8506 58.53H18.9106L18.6206 56.88L17.8506 57.35V58.53Z" fill="#5A3523"/>
<path d="M53.0706 58.46L51.1006 58.02L53.1606 56.23L53.8106 56.88L53.0706 58.46Z" fill="#5A3523"/>
<path d="M32.7502 52.22C32.7302 52.21 32.7202 52.19 32.7002 52.18C32.1902 51.72 31.4202 51.53 30.6902 51.65L17.9102 53.79L20.0502 59.2L31.7902 55.28C33.3002 54.84 33.8202 53.22 32.7502 52.22Z" fill="#48291B"/>
<path d="M20.6604 55.3001L19.5604 56.2001L20.5304 55.0701C19.7904 53.7901 18.6704 53.65 17.9204 53.79C16.6304 54.03 16.0104 55.18 16.9104 57.15C17.1404 57.66 17.4704 58.1501 17.8504 58.5301L18.2104 57.8501L18.0304 58.7101C18.6504 59.2501 19.3804 59.5201 20.0404 59.2001C21.2004 58.6601 21.3604 57.3901 20.9104 55.9701C20.8404 55.7201 20.7504 55.5001 20.6604 55.3001Z" fill="#816339"/>
<path d="M38.1704 52.1499C38.1904 52.1399 38.2004 52.1199 38.2204 52.1099C38.7304 51.6499 39.5004 51.4599 40.2304 51.5799L53.0104 53.7199L50.8704 59.1299L39.1304 55.2099C37.6204 54.7699 37.0904 53.1499 38.1704 52.1499Z" fill="#48291B"/>
<path d="M50.2605 55.23L51.3605 56.13L50.3905 55C51.1305 53.72 52.2505 53.58 53.0005 53.72C54.2905 53.96 54.9105 55.11 54.0105 57.08C53.7805 57.59 53.4505 58.08 53.0705 58.46L52.7105 57.78L52.8905 58.64C52.2705 59.18 51.5405 59.45 50.8805 59.13C49.7205 58.59 49.5605 57.32 50.0105 55.9C50.0705 55.65 50.1605 55.43 50.2605 55.23Z" fill="#816339"/>
<path d="M30.4209 61.12L32.5009 54.7C32.8309 53.7 33.7809 52.94 34.9709 52.73C35.4509 52.65 35.9909 52.6 36.5509 52.65C37.8009 52.76 38.8509 53.49 39.2609 54.5L42.1709 61.6L30.4209 61.12Z" fill="#5A3523"/>
<path d="M42.0108 63.05L41.7808 61.38L31.8008 62.95L32.1608 65.15L32.6308 65.42L42.0108 63.05Z" fill="#5A3523"/>
<path d="M39.0107 62.7101L42.1307 62.4201C42.1507 62.2601 42.1607 62.0901 42.1607 61.9301C42.1607 60.0001 39.5007 58.4301 36.2107 58.4301C32.9207 58.4301 30.2607 60.0001 30.2607 61.9301C30.2607 63.0501 30.8507 64.3001 32.1607 65.1501L33.1207 64.3401L32.6307 65.4201C33.5307 65.8801 34.7107 66.1701 36.2107 66.1701C40.0207 66.1701 41.5607 64.65 42.0107 63.05L39.0107 62.7101Z" fill="#816339"/>
<path d="M28.6601 56.32C28.6601 56.32 29.0901 54.26 28.0101 53.37C26.9301 52.48 26.5301 52.34 26.5301 52.34C26.5301 52.34 25.1501 51.3 26.2301 47.84C27.3101 44.37 25.6201 42.46 25.6201 42.46C25.6201 42.46 27.5301 42.46 28.0501 44.01C28.5701 45.56 30.2601 46.81 30.2601 46.81C30.2601 46.81 28.6601 43.64 29.9101 41.79C31.1701 39.95 32.9001 36.59 31.3001 35.52C31.3001 35.52 33.8601 35.15 34.1601 37.36C34.4601 39.57 37.6001 42.38 37.6001 42.38C37.6001 42.38 36.8901 39.49 38.8801 38.61C38.8801 38.61 38.2701 40.06 39.3101 40.91C40.3501 41.76 42.0401 44.16 41.6901 46.44C41.3401 48.73 42.4701 49.94 42.4701 49.94C42.4701 49.94 42.3801 46.51 44.1601 45.4C45.9401 44.29 44.1601 43.11 44.1601 43.11C44.1601 43.11 46.5001 43.46 46.6301 45.9C46.7601 48.35 48.9201 50.38 45.9801 52.53L41.6101 51.88C41.6101 51.88 38.2801 52.83 39.4901 55.06C39.4901 55.06 38.0201 52.54 35.8101 52.65C33.6001 52.76 32.2901 55.31 32.2901 55.31C32.2901 55.31 32.4301 53.72 31.3901 54.01C30.3501 54.3 28.6601 56.32 28.6601 56.32Z" fill="#EA8B3E"/>
<path d="M39.29 47.3599C38.94 45.4799 37.3 45.9099 37.3 45.9099C38.12 46.3799 38.3 48.2499 36.58 47.9499C34.86 47.6499 34.83 46.8799 34.1 44.5899C33.37 42.2999 31.28 42.7799 31.28 42.7799C31.28 42.7799 32.49 43.2199 32.1 46.2099C31.71 49.1999 33.01 48.6099 33.1 50.1199C33.19 51.6299 32.23 51.5599 31.24 51.2999C30.24 51.0399 30.2 49.4199 30.2 49.4199C29.76 51.8899 30.39 53.3799 30.84 54.2999C31.04 54.1799 31.23 54.0799 31.4 54.0299C32.44 53.7299 32.3 55.3299 32.3 55.3299C32.3 55.3299 33.61 52.7799 35.82 52.6699C38.03 52.5599 39.5 55.0799 39.5 55.0799C38.64 53.4899 40.07 52.5499 40.98 52.1399C41.03 51.7499 41.08 51.2999 41.12 50.7899C41.24 48.9399 39.64 49.2399 39.29 47.3599Z" fill="#E6C15B"/>
<path d="M36.6206 63.67C36.3906 63.67 36.1306 63.5999 35.7806 63.4599C34.9106 63.1099 34.8506 62.9899 34.7906 62.1899C34.7606 61.8199 35.1706 61.3999 35.7506 61.1999C36.3806 60.9799 36.9906 61.0899 37.3906 61.4799C38.2406 62.3199 37.9606 62.8099 37.6106 63.1499C37.2406 63.5099 36.9706 63.67 36.6206 63.67ZM34.8606 62.1899C34.9206 62.9599 34.9606 63.0799 35.8106 63.4099C36.6506 63.7499 36.9706 63.6899 37.5706 63.1099C37.7806 62.9099 38.2706 62.4299 37.3506 61.5199C36.9706 61.1499 36.3906 61.0499 35.7806 61.2599C35.2206 61.4499 34.8306 61.8399 34.8606 62.1899Z" fill="#5A3523"/>
<path d="M36.5007 62.9599C36.3807 62.9599 36.2507 62.9199 36.0707 62.8499C35.6307 62.6699 35.6007 62.61 35.5707 62.2C35.5607 62.01 35.7607 61.7999 36.0607 61.6899C36.3807 61.5799 36.6907 61.6299 36.9007 61.8299C37.3407 62.2599 37.1907 62.5099 37.0107 62.6799C36.8207 62.8699 36.6807 62.9599 36.5007 62.9599ZM35.6407 62.2C35.6707 62.59 35.6907 62.6299 36.1007 62.7999C36.5107 62.9599 36.6707 62.9399 36.9607 62.6499C37.1307 62.4899 37.2507 62.2699 36.8507 61.8699C36.6707 61.6899 36.3807 61.6399 36.0907 61.7399C35.8207 61.8399 35.6207 62.04 35.6407 62.2Z" fill="#5A3523"/>
<path d="M36.9306 64.62C36.5806 64.62 36.1906 64.54 35.7806 64.37C34.9806 64.05 34.5406 63.8 34.2406 63.48C33.9206 63.13 33.7606 62.7 33.7106 62.04C33.6706 61.52 34.1006 60.99 34.8306 60.66C35.6306 60.3 36.8806 60.17 37.9506 60.88C38.9006 61.51 39.3706 62.13 38.8006 63.3C38.4906 63.94 38.0706 64.35 37.5406 64.52C37.3506 64.59 37.1506 64.62 36.9306 64.62ZM36.2206 60.42C35.7106 60.42 35.2406 60.54 34.8606 60.71C34.1506 61.03 33.7306 61.54 33.7706 62.04C33.8606 63.34 34.3806 63.77 35.8006 64.33C36.4506 64.59 37.0306 64.64 37.5206 64.48C38.0306 64.31 38.4406 63.91 38.7406 63.29C39.2906 62.15 38.8306 61.55 37.9106 60.93C37.3706 60.56 36.7706 60.42 36.2206 60.42Z" fill="#5A3523"/>
<path d="M37.0503 65.09C36.5003 65.09 35.9003 64.95 35.2203 64.69L35.0403 64.62C33.1603 63.87 32.6503 63.67 32.5203 61.88C32.4603 61.03 33.3803 60.08 34.7203 59.62C36.1703 59.12 37.5803 59.36 38.4903 60.26C40.5703 62.31 40.0803 63.0099 39.7203 63.5199L39.7103 63.54C38.9703 64.58 38.1203 65.09 37.0503 65.09ZM32.5803 61.87C32.7103 63.63 33.2103 63.83 35.0703 64.56L35.2503 64.63C37.2003 65.4 38.5603 65.06 39.6503 63.5L39.6603 63.48C40.0103 62.98 40.4803 62.31 38.4403 60.28C37.5503 59.4 36.1703 59.16 34.7503 59.66C33.4303 60.12 32.5203 61.05 32.5803 61.87Z" fill="#5A3523"/>
<path d="M36.9408 65.36C36.2008 65.36 35.4208 65.22 34.6308 64.93C32.1808 64.04 31.8608 63.85 31.7008 61.81C31.6308 60.95 32.6008 59.96 34.0508 59.42C34.8708 59.11 35.7308 58.99 36.5408 59.06C37.4508 59.14 38.2608 59.47 38.8808 60.03C40.1808 61.2 41.2708 62.37 40.3108 63.82C39.6508 64.82 38.4008 65.36 36.9408 65.36ZM36.1208 59.1C35.4008 59.1 34.6808 59.25 34.0808 59.48C32.6508 60.01 31.7008 60.97 31.7608 61.81C31.9208 63.81 32.2408 64 34.6508 64.88C36.9708 65.72 39.2708 65.27 40.2508 63.79C41.1908 62.37 40.1108 61.22 38.8308 60.07C38.0508 59.37 37.0708 59.1 36.1208 59.1Z" fill="#5A3523"/>
<path d="M36.4803 65.83C35.7303 65.83 34.9903 65.71 34.2803 65.48C31.5703 64.59 31.0503 63.73 30.8603 61.61C30.7903 60.8 31.6803 59.89 33.1503 59.31C34.1003 58.93 35.1503 58.74 36.1303 58.78C37.2603 58.83 38.2403 59.17 38.9903 59.78C39.6803 60.34 40.2203 60.73 40.6603 61.05C41.3303 61.54 41.7003 61.8 41.8003 62.13C41.8903 62.45 41.7303 62.81 41.2903 63.55C40.7503 64.46 39.7103 65.19 38.4103 65.56C37.7803 65.74 37.1303 65.83 36.4803 65.83ZM35.8103 58.82C35.0103 58.82 34.1303 58.97 33.1803 59.35C31.7403 59.93 30.8603 60.81 30.9303 61.6C31.1203 63.7 31.6303 64.55 34.3103 65.43C35.6203 65.86 37.0603 65.89 38.3903 65.51C39.6703 65.15 40.7103 64.42 41.2303 63.53C42.0503 62.13 41.9403 62.05 40.6103 61.09C40.1703 60.77 39.6303 60.38 38.9403 59.82C38.2803 59.27 37.1803 58.82 35.8103 58.82Z" fill="#5A3523"/>
<path d="M18.7105 57.29C18.6705 57.29 18.6305 57.28 18.5905 57.26C18.2105 57.08 17.9105 56.46 17.9605 56.1C17.9905 55.89 18.0905 55.62 18.2805 55.56C18.3405 55.54 18.4405 55.53 18.5605 55.61C18.8505 55.8 18.9305 55.9 18.9505 56.33C18.9705 56.78 18.9805 57.18 18.8005 57.28C18.7605 57.28 18.7405 57.29 18.7105 57.29ZM18.3605 55.6C18.3405 55.6 18.3205 55.6 18.3005 55.61C18.1705 55.66 18.0505 55.86 18.0205 56.11C17.9805 56.44 18.2705 57.05 18.6205 57.22C18.6805 57.25 18.7205 57.25 18.7505 57.23C18.9105 57.14 18.8905 56.63 18.8705 56.33C18.8505 55.92 18.7805 55.83 18.5005 55.65C18.4605 55.61 18.4105 55.6 18.3605 55.6Z" fill="#5A3523"/>
<path d="M18.7904 57.8C18.7404 57.8 18.6804 57.79 18.6204 57.76C18.0404 57.51 17.5804 56.61 17.6604 56.1C17.7004 55.81 17.8504 55.43 18.1304 55.33C18.2604 55.28 18.4004 55.3 18.5504 55.39C18.9904 55.67 19.1104 55.8 19.1404 56.42C19.1704 56.9 19.2104 57.62 18.9204 57.77C18.8804 57.79 18.8404 57.8 18.7904 57.8ZM18.2704 55.36C18.2304 55.36 18.1904 55.37 18.1504 55.38C17.9104 55.47 17.7604 55.81 17.7204 56.11C17.6504 56.59 18.1004 57.48 18.6504 57.71C18.7504 57.75 18.8204 57.76 18.8804 57.72C19.1304 57.58 19.0904 56.85 19.0704 56.42C19.0404 55.82 18.9304 55.7 18.5004 55.43C18.4204 55.38 18.3404 55.36 18.2704 55.36Z" fill="#5A3523"/>
<path d="M19.22 58.26C18.93 58.26 17.91 57.85 17.57 56.88C17.23 55.9 17.58 55.38 17.82 55.17C18.01 55 18.25 54.92 18.49 54.96C18.68 54.99 18.95 55.11 19.15 55.5C19.22 55.65 19.29 55.77 19.36 55.9C19.61 56.36 19.79 56.69 19.75 57.27C19.71 57.92 19.54 58.25 19.23 58.27C19.23 58.26 19.23 58.26 19.22 58.26ZM18.38 55.01C18.2 55.01 18.01 55.08 17.87 55.21C17.64 55.42 17.3 55.92 17.63 56.87C17.96 57.81 18.97 58.21 19.21 58.21H19.22C19.49 58.2 19.64 57.88 19.68 57.27C19.71 56.7 19.54 56.38 19.29 55.93C19.22 55.81 19.15 55.68 19.08 55.53C18.89 55.16 18.65 55.05 18.47 55.02C18.45 55.01 18.42 55.01 18.38 55.01Z" fill="#5A3523"/>
<path d="M19.3806 58.4999C19.2106 58.4999 19.0306 58.4699 18.8405 58.3999C18.4705 58.2599 17.7806 57.8799 17.3106 56.8099C16.9206 55.9499 17.0106 55.3499 17.6006 54.7399C17.6906 54.6499 17.8806 54.5899 18.1406 54.5799C18.4206 54.5699 18.8406 54.6199 19.0706 54.8099C19.8006 55.4199 20.1705 56.5199 20.2405 57.0799C20.3205 57.7999 20.2606 58.2599 19.6906 58.4499C19.5906 58.4799 19.4906 58.4999 19.3806 58.4999ZM18.2106 54.6299C18.1806 54.6299 18.1606 54.6299 18.1306 54.6299C17.9006 54.6399 17.7206 54.6899 17.6406 54.7699C17.0706 55.3599 16.9906 55.9399 17.3606 56.7799C17.8306 57.8199 18.5006 58.1999 18.8606 58.3399C19.1506 58.4499 19.4406 58.4699 19.6506 58.3999C20.1906 58.2199 20.2405 57.7899 20.1605 57.0799C20.1005 56.5299 19.7306 55.4499 19.0106 54.8499C18.8205 54.6899 18.4806 54.6299 18.2106 54.6299Z" fill="#5A3523"/>
<path d="M19.4102 58.93C19.2702 58.93 19.1202 58.91 18.9702 58.88C18.2602 58.71 17.6102 58.13 17.2502 57.35C16.4502 55.63 16.7302 54.96 17.4802 54.39C17.9202 54.06 18.4302 54.05 18.9602 54.37C19.4302 54.66 20.2602 55.25 20.5402 55.93C20.6102 56.1 20.8302 56.7 20.8402 57.34C20.8502 57.98 20.6502 58.44 20.2402 58.7C20.0002 58.86 19.7102 58.93 19.4102 58.93ZM18.2102 54.19C17.9702 54.19 17.7402 54.27 17.5302 54.43C16.5702 55.16 16.7202 56.04 17.3202 57.32C17.6802 58.09 18.3002 58.65 19.0002 58.82C19.4302 58.93 19.8602 58.87 20.2102 58.65C21.0702 58.11 20.7902 56.7 20.4902 55.94C20.2202 55.27 19.4002 54.69 18.9302 54.41C18.6802 54.27 18.4402 54.19 18.2102 54.19Z" fill="#5A3523"/>
<path d="M52.23 57.13C52.27 57.13 52.31 57.12 52.35 57.1C52.73 56.92 53.03 56.3 52.98 55.94C52.95 55.73 52.85 55.46 52.66 55.4C52.6 55.38 52.5 55.37 52.38 55.45C52.09 55.64 52.01 55.74 51.99 56.17C51.97 56.62 51.96 57.02 52.14 57.12C52.17 57.12 52.2 57.13 52.23 57.13ZM52.57 55.43C52.59 55.43 52.61 55.43 52.63 55.44C52.76 55.49 52.88 55.69 52.91 55.94C52.95 56.27 52.66 56.88 52.31 57.05C52.25 57.08 52.21 57.08 52.18 57.06C52.02 56.97 52.04 56.46 52.06 56.16C52.08 55.75 52.15 55.66 52.43 55.48C52.48 55.45 52.52 55.43 52.57 55.43Z" fill="#5A3523"/>
<path d="M52.1403 57.64C52.1903 57.64 52.2503 57.63 52.3103 57.6C52.8903 57.35 53.3503 56.45 53.2703 55.94C53.2303 55.65 53.0803 55.27 52.8003 55.17C52.6703 55.12 52.5303 55.14 52.3803 55.23C51.9403 55.51 51.8203 55.64 51.7903 56.26C51.7603 56.74 51.7203 57.46 52.0103 57.61C52.0503 57.63 52.0903 57.64 52.1403 57.64ZM52.6703 55.19C52.7103 55.19 52.7503 55.2 52.7903 55.21C53.0303 55.3 53.1803 55.64 53.2203 55.94C53.2903 56.42 52.8403 57.31 52.2903 57.54C52.1903 57.58 52.1203 57.59 52.0603 57.55C51.8103 57.41 51.8503 56.68 51.8703 56.25C51.9003 55.65 52.0103 55.53 52.4403 55.26C52.5103 55.22 52.5903 55.19 52.6703 55.19Z" fill="#5A3523"/>
<path d="M51.7104 58.0999C52.0004 58.0999 53.0204 57.6899 53.3604 56.7199C53.7004 55.7399 53.3504 55.2199 53.1104 55.0099C52.9204 54.8399 52.6804 54.7599 52.4404 54.7999C52.2504 54.8299 51.9804 54.9499 51.7804 55.3399C51.7104 55.4899 51.6404 55.6099 51.5704 55.7399C51.3204 56.1999 51.1404 56.5299 51.1804 57.1099C51.2204 57.7599 51.3904 58.0899 51.7004 58.1099C51.7004 58.0999 51.7104 58.0999 51.7104 58.0999ZM52.5504 54.8399C52.7304 54.8399 52.9204 54.9099 53.0604 55.0399C53.2904 55.2499 53.6304 55.7499 53.3004 56.6999C52.9704 57.6399 51.9604 58.0399 51.7204 58.0399H51.7104C51.4404 58.0299 51.2904 57.7099 51.2504 57.0999C51.2204 56.5299 51.3904 56.2099 51.6404 55.7599C51.7104 55.6399 51.7804 55.5099 51.8504 55.3599C52.0404 54.9899 52.2804 54.8799 52.4604 54.8499C52.4804 54.8399 52.5204 54.8399 52.5504 54.8399Z" fill="#5A3523"/>
<path d="M51.5604 58.33C51.7304 58.33 51.9104 58.3 52.1004 58.23C52.4704 58.09 53.1604 57.71 53.6304 56.64C54.0204 55.78 53.9304 55.18 53.3404 54.57C53.2504 54.48 53.0604 54.42 52.8004 54.41C52.5204 54.4 52.1004 54.45 51.8704 54.64C51.1404 55.25 50.7704 56.35 50.7004 56.91C50.6204 57.63 50.6804 58.09 51.2504 58.28C51.3504 58.32 51.4504 58.33 51.5604 58.33ZM52.7204 54.47C52.7504 54.47 52.7704 54.47 52.8004 54.47C53.0304 54.48 53.2104 54.53 53.2904 54.61C53.8604 55.2 53.9404 55.78 53.5704 56.62C53.1004 57.66 52.4304 58.04 52.0704 58.18C51.7804 58.29 51.4904 58.31 51.2804 58.24C50.7404 58.06 50.6904 57.63 50.7704 56.92C50.8304 56.37 51.2004 55.29 51.9204 54.69C52.1204 54.52 52.4604 54.47 52.7204 54.47Z" fill="#5A3523"/>
<path d="M51.5202 58.77C51.6602 58.77 51.8102 58.75 51.9602 58.72C52.6702 58.55 53.3202 57.97 53.6802 57.19C54.4802 55.47 54.2002 54.7999 53.4502 54.2299C53.0102 53.8999 52.5002 53.89 51.9702 54.21C51.5002 54.5 50.6702 55.09 50.3902 55.77C50.3202 55.94 50.1002 56.5399 50.0902 57.1799C50.0802 57.8199 50.2802 58.2799 50.6902 58.5399C50.9302 58.6899 51.2202 58.77 51.5202 58.77ZM52.7202 54.02C52.9602 54.02 53.1902 54.0999 53.4002 54.2599C54.3602 54.9899 54.2102 55.8699 53.6102 57.1499C53.2502 57.9199 52.6302 58.4799 51.9302 58.6499C51.5002 58.7599 51.0702 58.6999 50.7202 58.4799C49.8602 57.9399 50.1402 56.53 50.4402 55.77C50.7102 55.1 51.5302 54.52 52.0002 54.24C52.2502 54.1 52.4902 54.02 52.7202 54.02Z" fill="#5A3523"/>
</g>
<defs>
<clipPath id="clip0">
<rect width="72.03" height="72" fill="white"/>
</clipPath>
</defs>
</svg>
