<svg width="24" height="24" fill="none" viewBox="0 0 24 24"  xmlns="http://www.w3.org/2000/svg">
<path d="M1.58065 17.6981C1.26393 17.6981 1 17.4342 1 17.1175C1 16.9459 1.07918 16.7743 1.21115 16.6688C1.7918 16.1937 2.9531 15.4415 3.34899 15.2303C3.63932 15.0852 3.98243 15.2171 4.12759 15.5075C4.25956 15.7978 4.15399 16.1277 3.87686 16.2729C3.57334 16.418 2.47802 17.1306 1.96335 17.5529C1.85778 17.6453 1.72581 17.6981 1.58065 17.6981Z" fill="currentColor"/>
<path d="M11.3863 7.81379C11.0696 7.81379 10.8057 7.54986 10.8057 7.23314C10.8057 7.06159 10.8716 6.90323 11.0036 6.79766C12.6532 5.34603 13.379 4.15834 13.511 3.9208C13.9992 3.07622 14.7778 2.64073 15.5828 2.7463C15.8995 2.78589 16.1239 3.08941 16.0843 3.40613C16.0447 3.72285 15.7544 3.94719 15.4377 3.9076C14.9626 3.84162 14.6459 4.3035 14.5271 4.50145C14.3819 4.75218 13.5638 6.09824 11.7822 7.66863C11.6766 7.7742 11.5315 7.81379 11.3863 7.81379Z" fill="currentColor"/>
<path d="M11.3863 7.81379C11.0696 7.81379 10.8057 7.54986 10.8057 7.23314C10.8057 7.06159 10.8716 6.90323 11.0036 6.79766C12.6532 5.34603 13.379 4.15834 13.511 3.9208C13.9992 3.07622 14.7778 2.64073 15.5828 2.7463C15.8995 2.78589 16.1239 3.08941 16.0843 3.40613C16.0447 3.72285 15.7544 3.94719 15.4377 3.9076C14.9626 3.84162 14.6459 4.3035 14.5271 4.50145C14.3819 4.75218 13.5638 6.09824 11.7822 7.66863C11.6766 7.7742 11.5315 7.81379 11.3863 7.81379" stroke="currentColor" stroke-width="0.25"/>
<path d="M16.2275 12.1679C16.465 12.3791 16.729 12.2867 16.9797 12.0623C18.6689 10.4524 20.4504 7.93181 21.0443 6.61215C21.1762 6.33502 21.427 6.17666 21.7041 6.28223C22.034 6.4142 22.0208 6.96846 21.7305 7.5755C20.9519 9.18548 19.8698 10.9538 17.7319 13.1577C17.5208 13.3688 17.5604 13.6459 17.7451 13.8175C17.9299 13.989 18.2334 13.9758 18.5237 13.6855C19.6322 12.5506 20.3844 11.6796 21.0179 10.7691C21.1762 10.5315 21.3874 10.4392 21.5721 10.4788C21.8492 10.5315 21.902 10.8087 21.8097 11.1254C21.6645 11.6532 20.1997 13.5799 19.619 14.2266C18.0354 15.9949 16.4518 16.9583 13.4034 18.5419C12.3345 19.0961 11.5427 19.624 11.0676 20.4422C10.6321 21.1812 10.5002 21.4187 10.4474 21.5111C10.2758 21.8674 10.4078 22.3293 10.7773 22.5008C11.1336 22.6724 11.5691 22.5272 11.7407 22.1577C11.7407 22.1445 11.7539 22.1313 11.7539 22.1181C11.7539 22.1049 11.7275 22.1313 12.3081 21.1548C12.5852 20.6929 13.1791 19.9935 14.1028 19.5712C17.1513 18.1856 18.3917 17.077 20.1733 15.3087C20.9783 14.5037 22.1 12.775 22.4035 12.2603C23.2481 10.8219 22.8126 9.59458 22.034 9.38343C21.9812 9.37024 21.9548 9.31745 21.968 9.26466C21.968 9.25147 21.968 9.25147 21.9812 9.23827C22.5751 8.22213 22.8522 7.50952 22.9578 6.96846C23.1029 6.22945 22.905 5.31888 21.8756 5.10774C21.8229 5.09454 21.7965 5.04175 21.7965 4.98897C21.8624 4.75143 21.9284 4.4611 21.968 4.26315C22.1792 3.2998 21.5721 2.42883 20.8463 2.27047C20.3316 2.1649 19.8698 2.28367 19.4739 2.56079C19.4211 2.60038 19.3419 2.58719 19.3023 2.5344C19.1439 2.36284 18.8932 2.19129 18.5369 2.17809C17.9035 2.1649 17.27 2.36284 16.8081 3.33939C16.4782 4.03881 15.99 4.98897 14.5515 6.57256C13.2187 8.09017 11.3711 9.5286 10.223 10.2808C10.0251 10.4128 9.73477 10.3864 9.77436 10.1092C9.82715 9.68695 10.289 6.8101 10.3682 5.96551C10.5002 4.59307 9.76117 3.95963 8.92978 3.85406C8.24356 3.76168 7.21422 3.95963 6.64677 5.51683C6.31685 6.4274 5.61743 7.91861 5.03678 10.3336C4.62769 12.0228 4.56171 14.0022 4.93121 16.2721C4.9576 16.404 4.93121 16.5492 4.85203 16.668C4.40335 17.407 3.73032 18.3967 3.37401 19.2413C3.22885 19.5844 3.34762 19.9935 3.67754 20.1782C4.02065 20.363 4.45613 20.2442 4.65408 19.8879C4.66728 19.8747 4.66728 19.8615 4.68048 19.8483C4.90482 19.3864 5.3535 18.5155 5.52506 18.146C5.82858 17.5125 6.03973 17.1034 6.11891 16.8395C6.19808 16.602 6.23767 16.3248 6.10571 15.6914C5.86817 14.6357 5.78899 12.643 6.22448 10.8878C6.79193 8.56524 7.76848 5.96551 7.94003 5.53003C8.11159 5.09454 8.36233 4.96257 8.59986 4.98897C8.8506 5.01536 9.31248 5.13413 9.18051 6.00511C8.94298 7.5755 8.59986 9.56818 8.4811 10.2412C8.42831 10.5711 8.36233 11.3365 8.96937 11.6928C9.44445 11.97 9.95911 11.8116 10.5398 11.4289C11.833 10.5579 14.0765 8.80278 15.4753 7.21919C16.9533 5.56962 17.4152 4.57987 17.7979 3.6825C17.9694 3.27341 18.4181 3.27341 18.5765 3.3262C18.7348 3.36579 18.9196 3.59013 18.7876 4.02562C18.4577 5.10774 17.1117 7.60189 14.5251 9.93769C14.2348 10.2016 14.2744 10.5183 14.4196 10.6767C14.5647 10.8351 14.8287 10.9406 15.1322 10.6767C17.468 8.68401 18.7876 6.32182 19.3947 5.04175C19.6982 4.40832 19.8038 4.02562 19.9093 3.73529C20.0413 3.36579 20.3184 3.23382 20.5164 3.27341C20.7935 3.33939 20.9915 3.62972 20.8991 4.1048C20.8199 4.51389 20.5824 5.20011 20.2657 5.87314C19.5134 7.45673 17.9431 9.58138 16.2407 11.4025C16.0427 11.6664 16.0032 11.9568 16.2275 12.1679Z" fill="currentColor" stroke="currentColor" stroke-width="0.25"/>
<path d="M18.6192 19.0966C18.5004 19.1098 18.4608 19.2022 18.4344 19.2813C18.2892 19.6772 17.8406 21.4456 17.7878 21.8151C17.7614 21.9998 17.8406 22.0922 17.9725 22.1318C18.1441 22.1846 18.408 22.1846 18.8303 22.1582C19.2526 22.1318 19.5033 22.0922 19.6749 22.013C19.7937 21.9603 19.8728 21.8547 19.82 21.6699C19.7145 21.3004 19.0283 19.6113 18.8303 19.2418C18.7907 19.1758 18.7379 19.0834 18.6192 19.0966Z" fill="currentColor"/>
<path d="M19.6356 18.2783C19.5828 18.3839 19.6488 18.4631 19.7016 18.5291C19.9655 18.859 21.2324 20.1522 21.5359 20.403C21.6811 20.5217 21.7999 20.5085 21.9054 20.4162C22.0374 20.2974 22.1826 20.0731 22.3673 19.7036C22.5653 19.3209 22.6576 19.0833 22.684 18.9118C22.6972 18.7798 22.6444 18.661 22.4597 18.6082C22.0902 18.5027 20.2954 18.2123 19.8732 18.1859C19.8072 18.1727 19.6884 18.1595 19.6356 18.2783Z" fill="currentColor"/>
<path d="M5.07792 5.37117C5.05153 5.2524 4.94596 5.22601 4.86678 5.21282C4.45768 5.10724 2.66294 4.85651 2.26705 4.84331C2.0691 4.83011 1.98992 4.92249 1.96352 5.05446C1.93713 5.22601 1.95033 5.48994 2.02951 5.91223C2.10869 6.33453 2.16147 6.58526 2.25385 6.74362C2.31983 6.86239 2.42541 6.91518 2.61016 6.84919C2.96647 6.70403 4.57645 5.84625 4.91956 5.60871C5.01194 5.54273 5.10431 5.48994 5.07792 5.37117Z" fill="currentColor"/>
<path d="M5.69786 4.27664C5.79024 4.19747 5.75065 4.09189 5.72426 4.01271C5.59229 3.61682 4.87967 1.94085 4.69492 1.59774C4.60254 1.42618 4.48378 1.39979 4.35181 1.45257C4.18025 1.51856 3.96911 1.67692 3.65239 1.95404C3.33567 2.23117 3.15092 2.41593 3.07174 2.57428C3.00576 2.69305 3.01895 2.81182 3.16412 2.93059C3.46764 3.15493 5.03803 4.09189 5.42073 4.26345C5.51311 4.30304 5.60549 4.35582 5.69786 4.27664Z" fill="currentColor"/>
</svg>
